G04 #@! TF.GenerationSoftware,KiCad,Pcbnew,7.0.10*
G04 #@! TF.CreationDate,2025-02-28T21:12:07-05:00*
G04 #@! TF.ProjectId,SDP25_MainPCB_V2,53445032-355f-44d6-9169-6e5043425f56,2.1*
G04 #@! TF.SameCoordinates,Original*
G04 #@! TF.FileFunction,Soldermask,Bot*
G04 #@! TF.FilePolarity,Negative*
%FSLAX46Y46*%
G04 Gerber Fmt 4.6, Leading zero omitted, Abs format (unit mm)*
G04 Created by KiCad (PCBNEW 7.0.10) date 2025-02-28 21:12:07*
%MOMM*%
%LPD*%
G01*
G04 APERTURE LIST*
G04 Aperture macros list*
%AMRoundRect*
0 Rectangle with rounded corners*
0 $1 Rounding radius*
0 $2 $3 $4 $5 $6 $7 $8 $9 X,Y pos of 4 corners*
0 Add a 4 corners polygon primitive as box body*
4,1,4,$2,$3,$4,$5,$6,$7,$8,$9,$2,$3,0*
0 Add four circle primitives for the rounded corners*
1,1,$1+$1,$2,$3*
1,1,$1+$1,$4,$5*
1,1,$1+$1,$6,$7*
1,1,$1+$1,$8,$9*
0 Add four rect primitives between the rounded corners*
20,1,$1+$1,$2,$3,$4,$5,0*
20,1,$1+$1,$4,$5,$6,$7,0*
20,1,$1+$1,$6,$7,$8,$9,0*
20,1,$1+$1,$8,$9,$2,$3,0*%
G04 Aperture macros list end*
%ADD10C,3.054000*%
%ADD11RoundRect,0.250000X0.625000X-0.350000X0.625000X0.350000X-0.625000X0.350000X-0.625000X-0.350000X0*%
%ADD12O,1.750000X1.200000*%
%ADD13C,1.371600*%
%ADD14RoundRect,0.250000X-0.350000X-0.625000X0.350000X-0.625000X0.350000X0.625000X-0.350000X0.625000X0*%
%ADD15O,1.200000X1.750000*%
%ADD16C,1.600000*%
%ADD17O,1.600000X1.600000*%
%ADD18C,7.000000*%
%ADD19R,1.295400X1.295400*%
%ADD20C,1.295400*%
%ADD21RoundRect,0.650000X0.650000X-0.650000X0.650000X0.650000X-0.650000X0.650000X-0.650000X-0.650000X0*%
%ADD22C,2.600000*%
%ADD23RoundRect,0.650000X-0.650000X0.650000X-0.650000X-0.650000X0.650000X-0.650000X0.650000X0.650000X0*%
%ADD24RoundRect,0.250000X-0.625000X0.350000X-0.625000X-0.350000X0.625000X-0.350000X0.625000X0.350000X0*%
%ADD25C,1.117600*%
%ADD26RoundRect,0.102000X-0.679000X0.679000X-0.679000X-0.679000X0.679000X-0.679000X0.679000X0.679000X0*%
%ADD27C,1.562000*%
G04 APERTURE END LIST*
D10*
X101295000Y-84034000D03*
X101295000Y-79034000D03*
X94285000Y-79034000D03*
X94285000Y-84034000D03*
D11*
X167640000Y-92456000D03*
D12*
X167640000Y-90456000D03*
X167640000Y-88456000D03*
X167640000Y-86456000D03*
D10*
X101295000Y-93432000D03*
X101295000Y-88432000D03*
X94285000Y-88432000D03*
X94285000Y-93432000D03*
D13*
X114173000Y-98913000D03*
X114173000Y-96413000D03*
D14*
X189230000Y-98425000D03*
D15*
X191230000Y-98425000D03*
X193230000Y-98425000D03*
D14*
X169990000Y-69300000D03*
D15*
X171990000Y-69300000D03*
X173990000Y-69300000D03*
D16*
X172720000Y-75184000D03*
D17*
X175260000Y-75184000D03*
D13*
X123864000Y-73640000D03*
X123864000Y-71140000D03*
D14*
X151130000Y-98425000D03*
D15*
X153130000Y-98425000D03*
X155130000Y-98425000D03*
D18*
X231140000Y-69596000D03*
D19*
X163830000Y-85725000D03*
D20*
X161290000Y-85725000D03*
X158750000Y-85725000D03*
X156210000Y-85725000D03*
X153670000Y-85725000D03*
X151130000Y-85725000D03*
X148590000Y-85725000D03*
X146050000Y-85725000D03*
X146050000Y-93345000D03*
X148590000Y-93345000D03*
X151130000Y-93345000D03*
X153670000Y-93345000D03*
X156210000Y-93345000D03*
X158750000Y-93345000D03*
X161290000Y-93345000D03*
X163830000Y-93345000D03*
D19*
X223774000Y-92456000D03*
D20*
X223774000Y-89916000D03*
X223774000Y-87376000D03*
X223774000Y-84836000D03*
X223774000Y-82296000D03*
X223774000Y-79756000D03*
X223774000Y-77216000D03*
X216154000Y-77216000D03*
X216154000Y-79756000D03*
X216154000Y-82296000D03*
X216154000Y-84836000D03*
X216154000Y-87376000D03*
X216154000Y-89916000D03*
X216154000Y-92456000D03*
D13*
X106045000Y-95357000D03*
X106045000Y-92857000D03*
D16*
X131419600Y-78714600D03*
D17*
X133959600Y-78714600D03*
D14*
X189040000Y-69300000D03*
D15*
X191040000Y-69300000D03*
X193040000Y-69300000D03*
D21*
X125349000Y-99695000D03*
D22*
X125349000Y-94615000D03*
D23*
X142875000Y-76200000D03*
D22*
X142875000Y-81280000D03*
D18*
X96266000Y-99314000D03*
D14*
X170180000Y-98425000D03*
D15*
X172180000Y-98425000D03*
X174180000Y-98425000D03*
D24*
X168698000Y-77756000D03*
D12*
X168698000Y-79756000D03*
D16*
X134660000Y-91440000D03*
X139660000Y-91440000D03*
D19*
X146050000Y-83185000D03*
D20*
X148590000Y-83185000D03*
X151130000Y-83185000D03*
X153670000Y-83185000D03*
X156210000Y-83185000D03*
X158750000Y-83185000D03*
X161290000Y-83185000D03*
X163830000Y-83185000D03*
X163830000Y-75565000D03*
X161290000Y-75565000D03*
X158750000Y-75565000D03*
X156210000Y-75565000D03*
X153670000Y-75565000D03*
X151130000Y-75565000D03*
X148590000Y-75565000D03*
X146050000Y-75565000D03*
D25*
X108624000Y-70505000D03*
X108624000Y-73005000D03*
X109855000Y-87777000D03*
X109855000Y-90277000D03*
D13*
X113704000Y-81875000D03*
X113704000Y-79375000D03*
D18*
X231394000Y-99568000D03*
D14*
X132461000Y-98425000D03*
D15*
X134461000Y-98425000D03*
X136461000Y-98425000D03*
D16*
X117729000Y-89027000D03*
D17*
X117729000Y-91567000D03*
D21*
X127254000Y-73914000D03*
D22*
X127254000Y-68834000D03*
D19*
X212090000Y-75565000D03*
D20*
X209550000Y-75565000D03*
X207010000Y-75565000D03*
X204470000Y-75565000D03*
X201930000Y-75565000D03*
X199390000Y-75565000D03*
X196850000Y-75565000D03*
X196850000Y-83185000D03*
X199390000Y-83185000D03*
X201930000Y-83185000D03*
X204470000Y-83185000D03*
X207010000Y-83185000D03*
X209550000Y-83185000D03*
X212090000Y-83185000D03*
D14*
X150940000Y-69300000D03*
D15*
X152940000Y-69300000D03*
X154940000Y-69300000D03*
D13*
X124206000Y-91293000D03*
X124206000Y-88793000D03*
D19*
X233680000Y-92456000D03*
D20*
X233680000Y-89916000D03*
X233680000Y-87376000D03*
X233680000Y-84836000D03*
X233680000Y-82296000D03*
X233680000Y-79756000D03*
X233680000Y-77216000D03*
X226060000Y-77216000D03*
X226060000Y-79756000D03*
X226060000Y-82296000D03*
X226060000Y-84836000D03*
X226060000Y-87376000D03*
X226060000Y-89916000D03*
X226060000Y-92456000D03*
D16*
X117514000Y-70710000D03*
D17*
X117514000Y-73250000D03*
D14*
X179705000Y-98425000D03*
D15*
X181705000Y-98425000D03*
X183705000Y-98425000D03*
D13*
X104814000Y-78085000D03*
X104814000Y-75585000D03*
D26*
X189420500Y-78499500D03*
D27*
X186880500Y-78499500D03*
X184340500Y-78499500D03*
X181800500Y-78499500D03*
X179260500Y-78499500D03*
X176720500Y-78499500D03*
X174180500Y-78499500D03*
X174180500Y-93739500D03*
X176720500Y-93739500D03*
X179260500Y-93739500D03*
X181800500Y-93739500D03*
X184340500Y-93739500D03*
X186880500Y-93739500D03*
X189420500Y-93739500D03*
D18*
X96266000Y-69342000D03*
D14*
X160465000Y-69300000D03*
D15*
X162465000Y-69300000D03*
X164465000Y-69300000D03*
D14*
X141415000Y-69300000D03*
D15*
X143415000Y-69300000D03*
X145415000Y-69300000D03*
D13*
X142875000Y-93325000D03*
X142875000Y-90825000D03*
D14*
X131700000Y-69300000D03*
D15*
X133700000Y-69300000D03*
X135700000Y-69300000D03*
D19*
X212090000Y-86995000D03*
D20*
X209550000Y-86995000D03*
X207010000Y-86995000D03*
X204470000Y-86995000D03*
X201930000Y-86995000D03*
X199390000Y-86995000D03*
X196850000Y-86995000D03*
X196850000Y-94615000D03*
X199390000Y-94615000D03*
X201930000Y-94615000D03*
X204470000Y-94615000D03*
X207010000Y-94615000D03*
X209550000Y-94615000D03*
X212090000Y-94615000D03*
D14*
X141700000Y-98425000D03*
D15*
X143700000Y-98425000D03*
X145700000Y-98425000D03*
D14*
X179515000Y-69300000D03*
D15*
X181515000Y-69300000D03*
X183515000Y-69300000D03*
D14*
X160655000Y-98425000D03*
D15*
X162655000Y-98425000D03*
X164655000Y-98425000D03*
D13*
X142875000Y-85765000D03*
X142875000Y-88265000D03*
M02*
