M48
; DRILL file {KiCad 7.0.10} date Fri Feb 28 21:12:27 2025
; FORMAT={-:-/ absolute / metric / decimal}
; #@! TF.CreationDate,2025-02-28T21:12:27-05:00
; #@! TF.GenerationSoftware,Kicad,Pcbnew,7.0.10
; #@! TF.FileFunction,Plated,1,4,PTH
FMAT,2
METRIC
; #@! TA.AperFunction,Plated,PTH,ViaDrill
T1C0.400
; #@! TA.AperFunction,Plated,PTH,ComponentDrill
T2C0.610
; #@! TA.AperFunction,Plated,PTH,ComponentDrill
T3C0.750
; #@! TA.AperFunction,Plated,PTH,ComponentDrill
T4C0.787
; #@! TA.AperFunction,Plated,PTH,ComponentDrill
T5C0.800
; #@! TA.AperFunction,Plated,PTH,ComponentDrill
T6C0.850
; #@! TA.AperFunction,Plated,PTH,ComponentDrill
T7C0.864
; #@! TA.AperFunction,Plated,PTH,ComponentDrill
T8C1.300
; #@! TA.AperFunction,Plated,PTH,ComponentDrill
T9C1.900
; #@! TA.AperFunction,Plated,PTH,ComponentDrill
T10C3.500
%
G90
G05
T1
X104.14Y-67.564
X104.14Y-68.834
X104.14Y-70.104
X104.14Y-71.374
X104.14Y-72.644
X104.14Y-73.914
X104.775Y-84.455
X104.775Y-85.725
X104.775Y-86.995
X104.775Y-88.265
X104.775Y-89.535
X104.775Y-90.805
X105.41Y-67.564
X105.41Y-68.834
X105.41Y-70.104
X105.41Y-71.374
X105.41Y-72.644
X105.41Y-73.914
X106.045Y-84.455
X106.045Y-85.725
X106.045Y-86.995
X106.045Y-88.265
X106.045Y-89.535
X106.045Y-90.805
X106.68Y-67.564
X106.68Y-68.834
X106.68Y-70.104
X106.68Y-71.374
X106.68Y-72.644
X106.68Y-73.914
X107.315Y-84.455
X107.315Y-85.725
X107.315Y-86.995
X107.315Y-88.265
X107.315Y-89.535
X107.315Y-90.805
X108.712Y-68.834
X109.855Y-86.36
X110.49Y-74.295
X111.252Y-70.866
X111.76Y-91.44
X112.141Y-87.757
X113.03Y-70.358
X113.665Y-86.995
X114.808Y-70.358
X115.189Y-86.995
X117.602Y-67.056
X118.618Y-67.056
X118.618Y-68.199
X118.745Y-84.455
X118.745Y-85.598
X118.745Y-86.868
X119.634Y-67.056
X119.634Y-68.199
X119.634Y-69.469
X120.015Y-84.455
X120.015Y-85.598
X120.015Y-86.868
X120.904Y-67.056
X120.904Y-68.199
X120.904Y-69.469
X121.285Y-84.455
X121.285Y-85.598
X121.285Y-86.868
X122.174Y-67.056
X122.174Y-68.199
X122.174Y-69.469
X122.174Y-75.184
X122.174Y-76.2
X122.555Y-84.455
X122.555Y-85.598
X122.555Y-86.868
X122.555Y-93.091
X122.555Y-93.98
X123.444Y-67.056
X123.444Y-68.199
X123.444Y-69.469
X123.825Y-84.455
X123.825Y-85.598
X123.825Y-86.868
X124.714Y-67.056
X124.714Y-68.199
X124.714Y-69.469
X125.095Y-84.455
X125.095Y-85.598
X125.095Y-86.868
X127.254Y-82.55
X127.254Y-83.566
X127.254Y-84.582
X127.254Y-85.598
X127.254Y-86.614
X127.254Y-87.63
T2
X108.624Y-70.505
X108.624Y-73.005
X109.855Y-87.777
X109.855Y-90.277
T3
X131.7Y-69.3
X132.461Y-98.425
X133.7Y-69.3
X134.461Y-98.425
X135.7Y-69.3
X136.461Y-98.425
X141.415Y-69.3
X141.7Y-98.425
X143.415Y-69.3
X143.7Y-98.425
X145.415Y-69.3
X145.7Y-98.425
X150.94Y-69.3
X151.13Y-98.425
X152.94Y-69.3
X153.13Y-98.425
X154.94Y-69.3
X155.13Y-98.425
X160.465Y-69.3
X160.655Y-98.425
X162.465Y-69.3
X162.655Y-98.425
X164.465Y-69.3
X164.655Y-98.425
X167.64Y-86.456
X167.64Y-88.456
X167.64Y-90.456
X167.64Y-92.456
X168.698Y-77.756
X168.698Y-79.756
X169.99Y-69.3
X170.18Y-98.425
X171.99Y-69.3
X172.18Y-98.425
X173.99Y-69.3
X174.18Y-98.425
X179.515Y-69.3
X179.705Y-98.425
X181.515Y-69.3
X181.705Y-98.425
X183.515Y-69.3
X183.705Y-98.425
X189.04Y-69.3
X189.23Y-98.425
X191.04Y-69.3
X191.23Y-98.425
X193.04Y-69.3
X193.23Y-98.425
T4
X146.05Y-75.565
X146.05Y-83.185
X146.05Y-85.725
X146.05Y-93.345
X148.59Y-75.565
X148.59Y-83.185
X148.59Y-85.725
X148.59Y-93.345
X151.13Y-75.565
X151.13Y-83.185
X151.13Y-85.725
X151.13Y-93.345
X153.67Y-75.565
X153.67Y-83.185
X153.67Y-85.725
X153.67Y-93.345
X156.21Y-75.565
X156.21Y-83.185
X156.21Y-85.725
X156.21Y-93.345
X158.75Y-75.565
X158.75Y-83.185
X158.75Y-85.725
X158.75Y-93.345
X161.29Y-75.565
X161.29Y-83.185
X161.29Y-85.725
X161.29Y-93.345
X163.83Y-75.565
X163.83Y-83.185
X163.83Y-85.725
X163.83Y-93.345
X196.85Y-75.565
X196.85Y-83.185
X196.85Y-86.995
X196.85Y-94.615
X199.39Y-75.565
X199.39Y-83.185
X199.39Y-86.995
X199.39Y-94.615
X201.93Y-75.565
X201.93Y-83.185
X201.93Y-86.995
X201.93Y-94.615
X204.47Y-75.565
X204.47Y-83.185
X204.47Y-86.995
X204.47Y-94.615
X207.01Y-75.565
X207.01Y-83.185
X207.01Y-86.995
X207.01Y-94.615
X209.55Y-75.565
X209.55Y-83.185
X209.55Y-86.995
X209.55Y-94.615
X212.09Y-75.565
X212.09Y-83.185
X212.09Y-86.995
X212.09Y-94.615
X216.154Y-77.216
X216.154Y-79.756
X216.154Y-82.296
X216.154Y-84.836
X216.154Y-87.376
X216.154Y-89.916
X216.154Y-92.456
X223.774Y-77.216
X223.774Y-79.756
X223.774Y-82.296
X223.774Y-84.836
X223.774Y-87.376
X223.774Y-89.916
X223.774Y-92.456
X226.06Y-77.216
X226.06Y-79.756
X226.06Y-82.296
X226.06Y-84.836
X226.06Y-87.376
X226.06Y-89.916
X226.06Y-92.456
X233.68Y-77.216
X233.68Y-79.756
X233.68Y-82.296
X233.68Y-84.836
X233.68Y-87.376
X233.68Y-89.916
X233.68Y-92.456
T5
X117.514Y-70.71
X117.514Y-73.25
X117.729Y-89.027
X117.729Y-91.567
X131.42Y-78.715
X133.96Y-78.715
X134.66Y-91.44
X139.66Y-91.44
X172.72Y-75.184
X175.26Y-75.184
T6
X174.18Y-78.499
X174.18Y-93.739
X176.72Y-78.499
X176.72Y-93.739
X179.26Y-78.499
X179.26Y-93.739
X181.8Y-78.499
X181.8Y-93.739
X184.34Y-78.499
X184.34Y-93.739
X186.88Y-78.499
X186.88Y-93.739
X189.421Y-78.499
X189.421Y-93.739
T7
X104.814Y-75.585
X104.814Y-78.085
X106.045Y-92.857
X106.045Y-95.357
X113.704Y-79.375
X113.704Y-81.875
X114.173Y-96.413
X114.173Y-98.913
X123.864Y-71.14
X123.864Y-73.64
X124.206Y-88.793
X124.206Y-91.293
X142.875Y-85.765
X142.875Y-88.265
X142.875Y-90.825
X142.875Y-93.325
T8
X125.349Y-94.615
X125.349Y-99.695
X127.254Y-68.834
X127.254Y-73.914
X142.875Y-76.2
X142.875Y-81.28
T9
X94.285Y-79.034
X94.285Y-84.034
X94.285Y-88.432
X94.285Y-93.432
X101.295Y-79.034
X101.295Y-84.034
X101.295Y-88.432
X101.295Y-93.432
T10
X96.266Y-69.342
X96.266Y-99.314
X231.14Y-69.596
X231.394Y-99.568
M30
