G04 #@! TF.GenerationSoftware,KiCad,Pcbnew,7.0.10*
G04 #@! TF.CreationDate,2025-02-28T21:12:07-05:00*
G04 #@! TF.ProjectId,SDP25_MainPCB_V2,53445032-355f-44d6-9169-6e5043425f56,2.1*
G04 #@! TF.SameCoordinates,Original*
G04 #@! TF.FileFunction,Paste,Top*
G04 #@! TF.FilePolarity,Positive*
%FSLAX46Y46*%
G04 Gerber Fmt 4.6, Leading zero omitted, Abs format (unit mm)*
G04 Created by KiCad (PCBNEW 7.0.10) date 2025-02-28 21:12:07*
%MOMM*%
%LPD*%
G01*
G04 APERTURE LIST*
%ADD10R,1.900000X5.100000*%
%ADD11R,1.066800X1.447800*%
%ADD12R,0.889000X0.609600*%
%ADD13R,1.803400X0.558800*%
%ADD14R,0.655599X0.499999*%
%ADD15R,0.889000X0.965200*%
%ADD16R,1.170000X1.800000*%
%ADD17R,1.447800X1.066800*%
%ADD18R,2.500000X1.500000*%
%ADD19R,7.000000X7.000000*%
%ADD20R,0.249999X0.549999*%
%ADD21R,1.000000X0.249999*%
%ADD22R,1.300000X0.249999*%
%ADD23R,0.549999X0.249999*%
%ADD24R,0.499999X0.655599*%
%ADD25R,1.800000X1.170000*%
G04 APERTURE END LIST*
D10*
X117319000Y-80010000D03*
X121519000Y-80010000D03*
D11*
X127177800Y-78740000D03*
X129032000Y-78740000D03*
D12*
X113665000Y-90284300D03*
X113665000Y-88785700D03*
X113069000Y-73139300D03*
X113069000Y-71640700D03*
D13*
X109093000Y-95885000D03*
X109093000Y-92329000D03*
D14*
X136581801Y-78714600D03*
X137687399Y-78714600D03*
D15*
X115189000Y-91059000D03*
X115189000Y-89611200D03*
D16*
X133169000Y-73914000D03*
X130229000Y-73914000D03*
D17*
X121158000Y-90970100D03*
X121158000Y-89115900D03*
D18*
X138430000Y-87364600D03*
D19*
X131580000Y-85064600D03*
D18*
X138430000Y-82764600D03*
D13*
X107989000Y-78740000D03*
X107989000Y-75184000D03*
D15*
X114974000Y-73113900D03*
X114974000Y-71666100D03*
D20*
X113529002Y-74985001D03*
X113029003Y-74985001D03*
X112529001Y-74985001D03*
D21*
X112579001Y-75659998D03*
D20*
X112529001Y-76835000D03*
X113029003Y-76835000D03*
X113529002Y-76835000D03*
D22*
X113328999Y-76159998D03*
D23*
X113704000Y-75659998D03*
D24*
X112141000Y-88937402D03*
X112141000Y-90043000D03*
D20*
X113903001Y-92732004D03*
X113403002Y-92732004D03*
X112903000Y-92732004D03*
D21*
X112953000Y-93407001D03*
D20*
X112903000Y-94582003D03*
X113403002Y-94582003D03*
X113903001Y-94582003D03*
D22*
X113702998Y-93907001D03*
D23*
X114077999Y-93407001D03*
D24*
X111164000Y-71919402D03*
X111164000Y-73025000D03*
D10*
X117661000Y-98171000D03*
X121861000Y-98171000D03*
D25*
X128524000Y-97209000D03*
X128524000Y-100149000D03*
D17*
X120689000Y-73317100D03*
X120689000Y-71462900D03*
M02*
