%TF.GenerationSoftware,KiCad,Pcbnew,7.0.10*%
%TF.CreationDate,2025-02-28T21:12:33-05:00*%
%TF.ProjectId,SDP25_MainPCB_V2,53445032-355f-44d6-9169-6e5043425f56,2.1*%
%TF.SameCoordinates,Original*%
%TF.FileFunction,Drillmap*%
%TF.FilePolarity,Positive*%
%FSLAX45Y45*%
G04 Gerber Fmt 4.5, Leading zero omitted, Abs format (unit mm)*
G04 Created by KiCad (PCBNEW 7.0.10) date 2025-02-28 21:12:33*
%MOMM*%
%LPD*%
G01*
G04 APERTURE LIST*
%ADD10C,0.100000*%
%ADD11C,0.200000*%
G04 APERTURE END LIST*
D10*
X9194800Y-6527800D02*
X23545800Y-6527800D01*
X23545800Y-10363200D01*
X9194800Y-10363200D01*
X9194800Y-6527800D01*
D11*
X9450577Y-10679684D02*
X9450577Y-10479684D01*
X9450577Y-10479684D02*
X9498196Y-10479684D01*
X9498196Y-10479684D02*
X9526767Y-10489208D01*
X9526767Y-10489208D02*
X9545815Y-10508255D01*
X9545815Y-10508255D02*
X9555339Y-10527303D01*
X9555339Y-10527303D02*
X9564863Y-10565398D01*
X9564863Y-10565398D02*
X9564863Y-10593970D01*
X9564863Y-10593970D02*
X9555339Y-10632065D01*
X9555339Y-10632065D02*
X9545815Y-10651112D01*
X9545815Y-10651112D02*
X9526767Y-10670160D01*
X9526767Y-10670160D02*
X9498196Y-10679684D01*
X9498196Y-10679684D02*
X9450577Y-10679684D01*
X9650577Y-10679684D02*
X9650577Y-10546350D01*
X9650577Y-10584446D02*
X9660101Y-10565398D01*
X9660101Y-10565398D02*
X9669624Y-10555874D01*
X9669624Y-10555874D02*
X9688672Y-10546350D01*
X9688672Y-10546350D02*
X9707720Y-10546350D01*
X9774386Y-10679684D02*
X9774386Y-10546350D01*
X9774386Y-10479684D02*
X9764863Y-10489208D01*
X9764863Y-10489208D02*
X9774386Y-10498731D01*
X9774386Y-10498731D02*
X9783910Y-10489208D01*
X9783910Y-10489208D02*
X9774386Y-10479684D01*
X9774386Y-10479684D02*
X9774386Y-10498731D01*
X9898196Y-10679684D02*
X9879148Y-10670160D01*
X9879148Y-10670160D02*
X9869624Y-10651112D01*
X9869624Y-10651112D02*
X9869624Y-10479684D01*
X10002958Y-10679684D02*
X9983910Y-10670160D01*
X9983910Y-10670160D02*
X9974386Y-10651112D01*
X9974386Y-10651112D02*
X9974386Y-10479684D01*
X10231529Y-10679684D02*
X10231529Y-10479684D01*
X10231529Y-10479684D02*
X10298196Y-10622541D01*
X10298196Y-10622541D02*
X10364863Y-10479684D01*
X10364863Y-10479684D02*
X10364863Y-10679684D01*
X10545815Y-10679684D02*
X10545815Y-10574922D01*
X10545815Y-10574922D02*
X10536291Y-10555874D01*
X10536291Y-10555874D02*
X10517244Y-10546350D01*
X10517244Y-10546350D02*
X10479148Y-10546350D01*
X10479148Y-10546350D02*
X10460101Y-10555874D01*
X10545815Y-10670160D02*
X10526767Y-10679684D01*
X10526767Y-10679684D02*
X10479148Y-10679684D01*
X10479148Y-10679684D02*
X10460101Y-10670160D01*
X10460101Y-10670160D02*
X10450577Y-10651112D01*
X10450577Y-10651112D02*
X10450577Y-10632065D01*
X10450577Y-10632065D02*
X10460101Y-10613017D01*
X10460101Y-10613017D02*
X10479148Y-10603493D01*
X10479148Y-10603493D02*
X10526767Y-10603493D01*
X10526767Y-10603493D02*
X10545815Y-10593970D01*
X10641053Y-10546350D02*
X10641053Y-10746350D01*
X10641053Y-10555874D02*
X10660101Y-10546350D01*
X10660101Y-10546350D02*
X10698196Y-10546350D01*
X10698196Y-10546350D02*
X10717244Y-10555874D01*
X10717244Y-10555874D02*
X10726767Y-10565398D01*
X10726767Y-10565398D02*
X10736291Y-10584446D01*
X10736291Y-10584446D02*
X10736291Y-10641589D01*
X10736291Y-10641589D02*
X10726767Y-10660636D01*
X10726767Y-10660636D02*
X10717244Y-10670160D01*
X10717244Y-10670160D02*
X10698196Y-10679684D01*
X10698196Y-10679684D02*
X10660101Y-10679684D01*
X10660101Y-10679684D02*
X10641053Y-10670160D01*
X10822005Y-10660636D02*
X10831529Y-10670160D01*
X10831529Y-10670160D02*
X10822005Y-10679684D01*
X10822005Y-10679684D02*
X10812482Y-10670160D01*
X10812482Y-10670160D02*
X10822005Y-10660636D01*
X10822005Y-10660636D02*
X10822005Y-10679684D01*
X10822005Y-10555874D02*
X10831529Y-10565398D01*
X10831529Y-10565398D02*
X10822005Y-10574922D01*
X10822005Y-10574922D02*
X10812482Y-10565398D01*
X10812482Y-10565398D02*
X10822005Y-10555874D01*
X10822005Y-10555874D02*
X10822005Y-10574922D01*
M02*
