G04 #@! TF.GenerationSoftware,KiCad,Pcbnew,7.0.10*
G04 #@! TF.CreationDate,2025-02-28T21:12:07-05:00*
G04 #@! TF.ProjectId,SDP25_MainPCB_V2,53445032-355f-44d6-9169-6e5043425f56,2.1*
G04 #@! TF.SameCoordinates,Original*
G04 #@! TF.FileFunction,Legend,Top*
G04 #@! TF.FilePolarity,Positive*
%FSLAX46Y46*%
G04 Gerber Fmt 4.6, Leading zero omitted, Abs format (unit mm)*
G04 Created by KiCad (PCBNEW 7.0.10) date 2025-02-28 21:12:07*
%MOMM*%
%LPD*%
G01*
G04 APERTURE LIST*
G04 Aperture macros list*
%AMRoundRect*
0 Rectangle with rounded corners*
0 $1 Rounding radius*
0 $2 $3 $4 $5 $6 $7 $8 $9 X,Y pos of 4 corners*
0 Add a 4 corners polygon primitive as box body*
4,1,4,$2,$3,$4,$5,$6,$7,$8,$9,$2,$3,0*
0 Add four circle primitives for the rounded corners*
1,1,$1+$1,$2,$3*
1,1,$1+$1,$4,$5*
1,1,$1+$1,$6,$7*
1,1,$1+$1,$8,$9*
0 Add four rect primitives between the rounded corners*
20,1,$1+$1,$2,$3,$4,$5,0*
20,1,$1+$1,$4,$5,$6,$7,0*
20,1,$1+$1,$6,$7,$8,$9,0*
20,1,$1+$1,$8,$9,$2,$3,0*%
G04 Aperture macros list end*
%ADD10C,0.150000*%
%ADD11C,0.300000*%
%ADD12C,0.254000*%
%ADD13C,0.127000*%
%ADD14C,0.120000*%
%ADD15C,0.152400*%
%ADD16C,0.100000*%
%ADD17C,0.200000*%
%ADD18C,3.054000*%
%ADD19RoundRect,0.250000X0.625000X-0.350000X0.625000X0.350000X-0.625000X0.350000X-0.625000X-0.350000X0*%
%ADD20O,1.750000X1.200000*%
%ADD21RoundRect,0.102000X-0.950000X-2.550000X0.950000X-2.550000X0.950000X2.550000X-0.950000X2.550000X0*%
%ADD22C,1.371600*%
%ADD23R,1.066800X1.447800*%
%ADD24R,0.889000X0.609600*%
%ADD25RoundRect,0.250000X-0.350000X-0.625000X0.350000X-0.625000X0.350000X0.625000X-0.350000X0.625000X0*%
%ADD26O,1.200000X1.750000*%
%ADD27C,1.600000*%
%ADD28O,1.600000X1.600000*%
%ADD29R,1.803400X0.558800*%
%ADD30R,0.655599X0.499999*%
%ADD31C,7.000000*%
%ADD32R,1.295400X1.295400*%
%ADD33C,1.295400*%
%ADD34R,0.889000X0.965200*%
%ADD35RoundRect,0.102000X0.585000X0.900000X-0.585000X0.900000X-0.585000X-0.900000X0.585000X-0.900000X0*%
%ADD36R,1.447800X1.066800*%
%ADD37RoundRect,0.650000X0.650000X-0.650000X0.650000X0.650000X-0.650000X0.650000X-0.650000X-0.650000X0*%
%ADD38C,2.600000*%
%ADD39RoundRect,0.650000X-0.650000X0.650000X-0.650000X-0.650000X0.650000X-0.650000X0.650000X0.650000X0*%
%ADD40R,2.500000X1.500000*%
%ADD41R,7.000000X7.000000*%
%ADD42RoundRect,0.250000X-0.625000X0.350000X-0.625000X-0.350000X0.625000X-0.350000X0.625000X0.350000X0*%
%ADD43C,1.117600*%
%ADD44R,0.249999X0.549999*%
%ADD45R,1.000000X0.249999*%
%ADD46R,1.300000X0.249999*%
%ADD47R,0.549999X0.249999*%
%ADD48R,0.499999X0.655599*%
%ADD49RoundRect,0.102000X-0.679000X0.679000X-0.679000X-0.679000X0.679000X-0.679000X0.679000X0.679000X0*%
%ADD50C,1.562000*%
%ADD51RoundRect,0.102000X-0.900000X0.585000X-0.900000X-0.585000X0.900000X-0.585000X0.900000X0.585000X0*%
G04 APERTURE END LIST*
D10*
X135464779Y-73148866D02*
X136226684Y-73148866D01*
X135845731Y-73529819D02*
X135845731Y-72767914D01*
X135718779Y-95500866D02*
X136480684Y-95500866D01*
X136099731Y-95881819D02*
X136099731Y-95119914D01*
X193122779Y-95500866D02*
X193884684Y-95500866D01*
X193503731Y-95881819D02*
X193503731Y-95119914D01*
X193376779Y-102358866D02*
X194138684Y-102358866D01*
X193757731Y-102739819D02*
X193757731Y-101977914D01*
D11*
X169718510Y-74413400D02*
X170861368Y-74413400D01*
X170289939Y-74984828D02*
X170289939Y-73841971D01*
D10*
X193376779Y-66163866D02*
X194138684Y-66163866D01*
X193757731Y-66544819D02*
X193757731Y-65782914D01*
X124796779Y-100834866D02*
X125558684Y-100834866D01*
X125177731Y-101215819D02*
X125177731Y-100453914D01*
X129711220Y-74171133D02*
X128949316Y-74171133D01*
X129330268Y-73790180D02*
X129330268Y-74552085D01*
X132670779Y-92198866D02*
X133432684Y-92198866D01*
X133051731Y-92579819D02*
X133051731Y-91817914D01*
X107477160Y-103200200D02*
X107620017Y-103247819D01*
X107620017Y-103247819D02*
X107858112Y-103247819D01*
X107858112Y-103247819D02*
X107953350Y-103200200D01*
X107953350Y-103200200D02*
X108000969Y-103152580D01*
X108000969Y-103152580D02*
X108048588Y-103057342D01*
X108048588Y-103057342D02*
X108048588Y-102962104D01*
X108048588Y-102962104D02*
X108000969Y-102866866D01*
X108000969Y-102866866D02*
X107953350Y-102819247D01*
X107953350Y-102819247D02*
X107858112Y-102771628D01*
X107858112Y-102771628D02*
X107667636Y-102724009D01*
X107667636Y-102724009D02*
X107572398Y-102676390D01*
X107572398Y-102676390D02*
X107524779Y-102628771D01*
X107524779Y-102628771D02*
X107477160Y-102533533D01*
X107477160Y-102533533D02*
X107477160Y-102438295D01*
X107477160Y-102438295D02*
X107524779Y-102343057D01*
X107524779Y-102343057D02*
X107572398Y-102295438D01*
X107572398Y-102295438D02*
X107667636Y-102247819D01*
X107667636Y-102247819D02*
X107905731Y-102247819D01*
X107905731Y-102247819D02*
X108048588Y-102295438D01*
X108477160Y-103247819D02*
X108477160Y-102247819D01*
X108477160Y-102247819D02*
X108715255Y-102247819D01*
X108715255Y-102247819D02*
X108858112Y-102295438D01*
X108858112Y-102295438D02*
X108953350Y-102390676D01*
X108953350Y-102390676D02*
X109000969Y-102485914D01*
X109000969Y-102485914D02*
X109048588Y-102676390D01*
X109048588Y-102676390D02*
X109048588Y-102819247D01*
X109048588Y-102819247D02*
X109000969Y-103009723D01*
X109000969Y-103009723D02*
X108953350Y-103104961D01*
X108953350Y-103104961D02*
X108858112Y-103200200D01*
X108858112Y-103200200D02*
X108715255Y-103247819D01*
X108715255Y-103247819D02*
X108477160Y-103247819D01*
X109477160Y-103247819D02*
X109477160Y-102247819D01*
X109477160Y-102247819D02*
X109858112Y-102247819D01*
X109858112Y-102247819D02*
X109953350Y-102295438D01*
X109953350Y-102295438D02*
X110000969Y-102343057D01*
X110000969Y-102343057D02*
X110048588Y-102438295D01*
X110048588Y-102438295D02*
X110048588Y-102581152D01*
X110048588Y-102581152D02*
X110000969Y-102676390D01*
X110000969Y-102676390D02*
X109953350Y-102724009D01*
X109953350Y-102724009D02*
X109858112Y-102771628D01*
X109858112Y-102771628D02*
X109477160Y-102771628D01*
X111191446Y-102343057D02*
X111239065Y-102295438D01*
X111239065Y-102295438D02*
X111334303Y-102247819D01*
X111334303Y-102247819D02*
X111572398Y-102247819D01*
X111572398Y-102247819D02*
X111667636Y-102295438D01*
X111667636Y-102295438D02*
X111715255Y-102343057D01*
X111715255Y-102343057D02*
X111762874Y-102438295D01*
X111762874Y-102438295D02*
X111762874Y-102533533D01*
X111762874Y-102533533D02*
X111715255Y-102676390D01*
X111715255Y-102676390D02*
X111143827Y-103247819D01*
X111143827Y-103247819D02*
X111762874Y-103247819D01*
X112667636Y-102247819D02*
X112191446Y-102247819D01*
X112191446Y-102247819D02*
X112143827Y-102724009D01*
X112143827Y-102724009D02*
X112191446Y-102676390D01*
X112191446Y-102676390D02*
X112286684Y-102628771D01*
X112286684Y-102628771D02*
X112524779Y-102628771D01*
X112524779Y-102628771D02*
X112620017Y-102676390D01*
X112620017Y-102676390D02*
X112667636Y-102724009D01*
X112667636Y-102724009D02*
X112715255Y-102819247D01*
X112715255Y-102819247D02*
X112715255Y-103057342D01*
X112715255Y-103057342D02*
X112667636Y-103152580D01*
X112667636Y-103152580D02*
X112620017Y-103200200D01*
X112620017Y-103200200D02*
X112524779Y-103247819D01*
X112524779Y-103247819D02*
X112286684Y-103247819D01*
X112286684Y-103247819D02*
X112191446Y-103200200D01*
X112191446Y-103200200D02*
X112143827Y-103152580D01*
X113762875Y-102247819D02*
X114334303Y-102247819D01*
X114048589Y-103247819D02*
X114048589Y-102247819D01*
X115048589Y-103200200D02*
X114953351Y-103247819D01*
X114953351Y-103247819D02*
X114762875Y-103247819D01*
X114762875Y-103247819D02*
X114667637Y-103200200D01*
X114667637Y-103200200D02*
X114620018Y-103104961D01*
X114620018Y-103104961D02*
X114620018Y-102724009D01*
X114620018Y-102724009D02*
X114667637Y-102628771D01*
X114667637Y-102628771D02*
X114762875Y-102581152D01*
X114762875Y-102581152D02*
X114953351Y-102581152D01*
X114953351Y-102581152D02*
X115048589Y-102628771D01*
X115048589Y-102628771D02*
X115096208Y-102724009D01*
X115096208Y-102724009D02*
X115096208Y-102819247D01*
X115096208Y-102819247D02*
X114620018Y-102914485D01*
X115953351Y-103247819D02*
X115953351Y-102724009D01*
X115953351Y-102724009D02*
X115905732Y-102628771D01*
X115905732Y-102628771D02*
X115810494Y-102581152D01*
X115810494Y-102581152D02*
X115620018Y-102581152D01*
X115620018Y-102581152D02*
X115524780Y-102628771D01*
X115953351Y-103200200D02*
X115858113Y-103247819D01*
X115858113Y-103247819D02*
X115620018Y-103247819D01*
X115620018Y-103247819D02*
X115524780Y-103200200D01*
X115524780Y-103200200D02*
X115477161Y-103104961D01*
X115477161Y-103104961D02*
X115477161Y-103009723D01*
X115477161Y-103009723D02*
X115524780Y-102914485D01*
X115524780Y-102914485D02*
X115620018Y-102866866D01*
X115620018Y-102866866D02*
X115858113Y-102866866D01*
X115858113Y-102866866D02*
X115953351Y-102819247D01*
X116429542Y-103247819D02*
X116429542Y-102581152D01*
X116429542Y-102676390D02*
X116477161Y-102628771D01*
X116477161Y-102628771D02*
X116572399Y-102581152D01*
X116572399Y-102581152D02*
X116715256Y-102581152D01*
X116715256Y-102581152D02*
X116810494Y-102628771D01*
X116810494Y-102628771D02*
X116858113Y-102724009D01*
X116858113Y-102724009D02*
X116858113Y-103247819D01*
X116858113Y-102724009D02*
X116905732Y-102628771D01*
X116905732Y-102628771D02*
X117000970Y-102581152D01*
X117000970Y-102581152D02*
X117143827Y-102581152D01*
X117143827Y-102581152D02*
X117239066Y-102628771D01*
X117239066Y-102628771D02*
X117286685Y-102724009D01*
X117286685Y-102724009D02*
X117286685Y-103247819D01*
X119048589Y-103247819D02*
X118477161Y-103247819D01*
X118762875Y-103247819D02*
X118762875Y-102247819D01*
X118762875Y-102247819D02*
X118667637Y-102390676D01*
X118667637Y-102390676D02*
X118572399Y-102485914D01*
X118572399Y-102485914D02*
X118477161Y-102533533D01*
X119620018Y-102676390D02*
X119524780Y-102628771D01*
X119524780Y-102628771D02*
X119477161Y-102581152D01*
X119477161Y-102581152D02*
X119429542Y-102485914D01*
X119429542Y-102485914D02*
X119429542Y-102438295D01*
X119429542Y-102438295D02*
X119477161Y-102343057D01*
X119477161Y-102343057D02*
X119524780Y-102295438D01*
X119524780Y-102295438D02*
X119620018Y-102247819D01*
X119620018Y-102247819D02*
X119810494Y-102247819D01*
X119810494Y-102247819D02*
X119905732Y-102295438D01*
X119905732Y-102295438D02*
X119953351Y-102343057D01*
X119953351Y-102343057D02*
X120000970Y-102438295D01*
X120000970Y-102438295D02*
X120000970Y-102485914D01*
X120000970Y-102485914D02*
X119953351Y-102581152D01*
X119953351Y-102581152D02*
X119905732Y-102628771D01*
X119905732Y-102628771D02*
X119810494Y-102676390D01*
X119810494Y-102676390D02*
X119620018Y-102676390D01*
X119620018Y-102676390D02*
X119524780Y-102724009D01*
X119524780Y-102724009D02*
X119477161Y-102771628D01*
X119477161Y-102771628D02*
X119429542Y-102866866D01*
X119429542Y-102866866D02*
X119429542Y-103057342D01*
X119429542Y-103057342D02*
X119477161Y-103152580D01*
X119477161Y-103152580D02*
X119524780Y-103200200D01*
X119524780Y-103200200D02*
X119620018Y-103247819D01*
X119620018Y-103247819D02*
X119810494Y-103247819D01*
X119810494Y-103247819D02*
X119905732Y-103200200D01*
X119905732Y-103200200D02*
X119953351Y-103152580D01*
X119953351Y-103152580D02*
X120000970Y-103057342D01*
X120000970Y-103057342D02*
X120000970Y-102866866D01*
X120000970Y-102866866D02*
X119953351Y-102771628D01*
X119953351Y-102771628D02*
X119905732Y-102724009D01*
X119905732Y-102724009D02*
X119810494Y-102676390D01*
X121191447Y-103247819D02*
X121191447Y-102247819D01*
X121191447Y-102247819D02*
X121524780Y-102962104D01*
X121524780Y-102962104D02*
X121858113Y-102247819D01*
X121858113Y-102247819D02*
X121858113Y-103247819D01*
X122762875Y-103247819D02*
X122762875Y-102724009D01*
X122762875Y-102724009D02*
X122715256Y-102628771D01*
X122715256Y-102628771D02*
X122620018Y-102581152D01*
X122620018Y-102581152D02*
X122429542Y-102581152D01*
X122429542Y-102581152D02*
X122334304Y-102628771D01*
X122762875Y-103200200D02*
X122667637Y-103247819D01*
X122667637Y-103247819D02*
X122429542Y-103247819D01*
X122429542Y-103247819D02*
X122334304Y-103200200D01*
X122334304Y-103200200D02*
X122286685Y-103104961D01*
X122286685Y-103104961D02*
X122286685Y-103009723D01*
X122286685Y-103009723D02*
X122334304Y-102914485D01*
X122334304Y-102914485D02*
X122429542Y-102866866D01*
X122429542Y-102866866D02*
X122667637Y-102866866D01*
X122667637Y-102866866D02*
X122762875Y-102819247D01*
X123239066Y-103247819D02*
X123239066Y-102581152D01*
X123239066Y-102247819D02*
X123191447Y-102295438D01*
X123191447Y-102295438D02*
X123239066Y-102343057D01*
X123239066Y-102343057D02*
X123286685Y-102295438D01*
X123286685Y-102295438D02*
X123239066Y-102247819D01*
X123239066Y-102247819D02*
X123239066Y-102343057D01*
X123715256Y-102581152D02*
X123715256Y-103247819D01*
X123715256Y-102676390D02*
X123762875Y-102628771D01*
X123762875Y-102628771D02*
X123858113Y-102581152D01*
X123858113Y-102581152D02*
X124000970Y-102581152D01*
X124000970Y-102581152D02*
X124096208Y-102628771D01*
X124096208Y-102628771D02*
X124143827Y-102724009D01*
X124143827Y-102724009D02*
X124143827Y-103247819D01*
X125381923Y-103247819D02*
X125381923Y-102247819D01*
X125381923Y-102247819D02*
X125762875Y-102247819D01*
X125762875Y-102247819D02*
X125858113Y-102295438D01*
X125858113Y-102295438D02*
X125905732Y-102343057D01*
X125905732Y-102343057D02*
X125953351Y-102438295D01*
X125953351Y-102438295D02*
X125953351Y-102581152D01*
X125953351Y-102581152D02*
X125905732Y-102676390D01*
X125905732Y-102676390D02*
X125858113Y-102724009D01*
X125858113Y-102724009D02*
X125762875Y-102771628D01*
X125762875Y-102771628D02*
X125381923Y-102771628D01*
X126953351Y-103152580D02*
X126905732Y-103200200D01*
X126905732Y-103200200D02*
X126762875Y-103247819D01*
X126762875Y-103247819D02*
X126667637Y-103247819D01*
X126667637Y-103247819D02*
X126524780Y-103200200D01*
X126524780Y-103200200D02*
X126429542Y-103104961D01*
X126429542Y-103104961D02*
X126381923Y-103009723D01*
X126381923Y-103009723D02*
X126334304Y-102819247D01*
X126334304Y-102819247D02*
X126334304Y-102676390D01*
X126334304Y-102676390D02*
X126381923Y-102485914D01*
X126381923Y-102485914D02*
X126429542Y-102390676D01*
X126429542Y-102390676D02*
X126524780Y-102295438D01*
X126524780Y-102295438D02*
X126667637Y-102247819D01*
X126667637Y-102247819D02*
X126762875Y-102247819D01*
X126762875Y-102247819D02*
X126905732Y-102295438D01*
X126905732Y-102295438D02*
X126953351Y-102343057D01*
X127715256Y-102724009D02*
X127858113Y-102771628D01*
X127858113Y-102771628D02*
X127905732Y-102819247D01*
X127905732Y-102819247D02*
X127953351Y-102914485D01*
X127953351Y-102914485D02*
X127953351Y-103057342D01*
X127953351Y-103057342D02*
X127905732Y-103152580D01*
X127905732Y-103152580D02*
X127858113Y-103200200D01*
X127858113Y-103200200D02*
X127762875Y-103247819D01*
X127762875Y-103247819D02*
X127381923Y-103247819D01*
X127381923Y-103247819D02*
X127381923Y-102247819D01*
X127381923Y-102247819D02*
X127715256Y-102247819D01*
X127715256Y-102247819D02*
X127810494Y-102295438D01*
X127810494Y-102295438D02*
X127858113Y-102343057D01*
X127858113Y-102343057D02*
X127905732Y-102438295D01*
X127905732Y-102438295D02*
X127905732Y-102533533D01*
X127905732Y-102533533D02*
X127858113Y-102628771D01*
X127858113Y-102628771D02*
X127810494Y-102676390D01*
X127810494Y-102676390D02*
X127715256Y-102724009D01*
X127715256Y-102724009D02*
X127381923Y-102724009D01*
X129715256Y-103247819D02*
X129381923Y-102771628D01*
X129143828Y-103247819D02*
X129143828Y-102247819D01*
X129143828Y-102247819D02*
X129524780Y-102247819D01*
X129524780Y-102247819D02*
X129620018Y-102295438D01*
X129620018Y-102295438D02*
X129667637Y-102343057D01*
X129667637Y-102343057D02*
X129715256Y-102438295D01*
X129715256Y-102438295D02*
X129715256Y-102581152D01*
X129715256Y-102581152D02*
X129667637Y-102676390D01*
X129667637Y-102676390D02*
X129620018Y-102724009D01*
X129620018Y-102724009D02*
X129524780Y-102771628D01*
X129524780Y-102771628D02*
X129143828Y-102771628D01*
X130524780Y-103200200D02*
X130429542Y-103247819D01*
X130429542Y-103247819D02*
X130239066Y-103247819D01*
X130239066Y-103247819D02*
X130143828Y-103200200D01*
X130143828Y-103200200D02*
X130096209Y-103104961D01*
X130096209Y-103104961D02*
X130096209Y-102724009D01*
X130096209Y-102724009D02*
X130143828Y-102628771D01*
X130143828Y-102628771D02*
X130239066Y-102581152D01*
X130239066Y-102581152D02*
X130429542Y-102581152D01*
X130429542Y-102581152D02*
X130524780Y-102628771D01*
X130524780Y-102628771D02*
X130572399Y-102724009D01*
X130572399Y-102724009D02*
X130572399Y-102819247D01*
X130572399Y-102819247D02*
X130096209Y-102914485D01*
X130905733Y-102581152D02*
X131143828Y-103247819D01*
X131143828Y-103247819D02*
X131381923Y-102581152D01*
X132477162Y-102343057D02*
X132524781Y-102295438D01*
X132524781Y-102295438D02*
X132620019Y-102247819D01*
X132620019Y-102247819D02*
X132858114Y-102247819D01*
X132858114Y-102247819D02*
X132953352Y-102295438D01*
X132953352Y-102295438D02*
X133000971Y-102343057D01*
X133000971Y-102343057D02*
X133048590Y-102438295D01*
X133048590Y-102438295D02*
X133048590Y-102533533D01*
X133048590Y-102533533D02*
X133000971Y-102676390D01*
X133000971Y-102676390D02*
X132429543Y-103247819D01*
X132429543Y-103247819D02*
X133048590Y-103247819D01*
X133477162Y-103152580D02*
X133524781Y-103200200D01*
X133524781Y-103200200D02*
X133477162Y-103247819D01*
X133477162Y-103247819D02*
X133429543Y-103200200D01*
X133429543Y-103200200D02*
X133477162Y-103152580D01*
X133477162Y-103152580D02*
X133477162Y-103247819D01*
X134477161Y-103247819D02*
X133905733Y-103247819D01*
X134191447Y-103247819D02*
X134191447Y-102247819D01*
X134191447Y-102247819D02*
X134096209Y-102390676D01*
X134096209Y-102390676D02*
X134000971Y-102485914D01*
X134000971Y-102485914D02*
X133905733Y-102533533D01*
X135667638Y-102866866D02*
X136429543Y-102866866D01*
X137620019Y-103200200D02*
X137762876Y-103247819D01*
X137762876Y-103247819D02*
X138000971Y-103247819D01*
X138000971Y-103247819D02*
X138096209Y-103200200D01*
X138096209Y-103200200D02*
X138143828Y-103152580D01*
X138143828Y-103152580D02*
X138191447Y-103057342D01*
X138191447Y-103057342D02*
X138191447Y-102962104D01*
X138191447Y-102962104D02*
X138143828Y-102866866D01*
X138143828Y-102866866D02*
X138096209Y-102819247D01*
X138096209Y-102819247D02*
X138000971Y-102771628D01*
X138000971Y-102771628D02*
X137810495Y-102724009D01*
X137810495Y-102724009D02*
X137715257Y-102676390D01*
X137715257Y-102676390D02*
X137667638Y-102628771D01*
X137667638Y-102628771D02*
X137620019Y-102533533D01*
X137620019Y-102533533D02*
X137620019Y-102438295D01*
X137620019Y-102438295D02*
X137667638Y-102343057D01*
X137667638Y-102343057D02*
X137715257Y-102295438D01*
X137715257Y-102295438D02*
X137810495Y-102247819D01*
X137810495Y-102247819D02*
X138048590Y-102247819D01*
X138048590Y-102247819D02*
X138191447Y-102295438D01*
X139048590Y-103247819D02*
X139048590Y-102724009D01*
X139048590Y-102724009D02*
X139000971Y-102628771D01*
X139000971Y-102628771D02*
X138905733Y-102581152D01*
X138905733Y-102581152D02*
X138715257Y-102581152D01*
X138715257Y-102581152D02*
X138620019Y-102628771D01*
X139048590Y-103200200D02*
X138953352Y-103247819D01*
X138953352Y-103247819D02*
X138715257Y-103247819D01*
X138715257Y-103247819D02*
X138620019Y-103200200D01*
X138620019Y-103200200D02*
X138572400Y-103104961D01*
X138572400Y-103104961D02*
X138572400Y-103009723D01*
X138572400Y-103009723D02*
X138620019Y-102914485D01*
X138620019Y-102914485D02*
X138715257Y-102866866D01*
X138715257Y-102866866D02*
X138953352Y-102866866D01*
X138953352Y-102866866D02*
X139048590Y-102819247D01*
X139524781Y-103247819D02*
X139524781Y-102581152D01*
X139524781Y-102676390D02*
X139572400Y-102628771D01*
X139572400Y-102628771D02*
X139667638Y-102581152D01*
X139667638Y-102581152D02*
X139810495Y-102581152D01*
X139810495Y-102581152D02*
X139905733Y-102628771D01*
X139905733Y-102628771D02*
X139953352Y-102724009D01*
X139953352Y-102724009D02*
X139953352Y-103247819D01*
X139953352Y-102724009D02*
X140000971Y-102628771D01*
X140000971Y-102628771D02*
X140096209Y-102581152D01*
X140096209Y-102581152D02*
X140239066Y-102581152D01*
X140239066Y-102581152D02*
X140334305Y-102628771D01*
X140334305Y-102628771D02*
X140381924Y-102724009D01*
X140381924Y-102724009D02*
X140381924Y-103247819D01*
X142191447Y-103152580D02*
X142143828Y-103200200D01*
X142143828Y-103200200D02*
X142000971Y-103247819D01*
X142000971Y-103247819D02*
X141905733Y-103247819D01*
X141905733Y-103247819D02*
X141762876Y-103200200D01*
X141762876Y-103200200D02*
X141667638Y-103104961D01*
X141667638Y-103104961D02*
X141620019Y-103009723D01*
X141620019Y-103009723D02*
X141572400Y-102819247D01*
X141572400Y-102819247D02*
X141572400Y-102676390D01*
X141572400Y-102676390D02*
X141620019Y-102485914D01*
X141620019Y-102485914D02*
X141667638Y-102390676D01*
X141667638Y-102390676D02*
X141762876Y-102295438D01*
X141762876Y-102295438D02*
X141905733Y-102247819D01*
X141905733Y-102247819D02*
X142000971Y-102247819D01*
X142000971Y-102247819D02*
X142143828Y-102295438D01*
X142143828Y-102295438D02*
X142191447Y-102343057D01*
X142620019Y-103247819D02*
X142620019Y-102247819D01*
X143048590Y-103247819D02*
X143048590Y-102724009D01*
X143048590Y-102724009D02*
X143000971Y-102628771D01*
X143000971Y-102628771D02*
X142905733Y-102581152D01*
X142905733Y-102581152D02*
X142762876Y-102581152D01*
X142762876Y-102581152D02*
X142667638Y-102628771D01*
X142667638Y-102628771D02*
X142620019Y-102676390D01*
X143524781Y-103247819D02*
X143524781Y-102581152D01*
X143524781Y-102247819D02*
X143477162Y-102295438D01*
X143477162Y-102295438D02*
X143524781Y-102343057D01*
X143524781Y-102343057D02*
X143572400Y-102295438D01*
X143572400Y-102295438D02*
X143524781Y-102247819D01*
X143524781Y-102247819D02*
X143524781Y-102343057D01*
X144429542Y-103200200D02*
X144334304Y-103247819D01*
X144334304Y-103247819D02*
X144143828Y-103247819D01*
X144143828Y-103247819D02*
X144048590Y-103200200D01*
X144048590Y-103200200D02*
X144000971Y-103152580D01*
X144000971Y-103152580D02*
X143953352Y-103057342D01*
X143953352Y-103057342D02*
X143953352Y-102771628D01*
X143953352Y-102771628D02*
X144000971Y-102676390D01*
X144000971Y-102676390D02*
X144048590Y-102628771D01*
X144048590Y-102628771D02*
X144143828Y-102581152D01*
X144143828Y-102581152D02*
X144334304Y-102581152D01*
X144334304Y-102581152D02*
X144429542Y-102628771D01*
X145000971Y-103247819D02*
X144905733Y-103200200D01*
X144905733Y-103200200D02*
X144858114Y-103152580D01*
X144858114Y-103152580D02*
X144810495Y-103057342D01*
X144810495Y-103057342D02*
X144810495Y-102771628D01*
X144810495Y-102771628D02*
X144858114Y-102676390D01*
X144858114Y-102676390D02*
X144905733Y-102628771D01*
X144905733Y-102628771D02*
X145000971Y-102581152D01*
X145000971Y-102581152D02*
X145143828Y-102581152D01*
X145143828Y-102581152D02*
X145239066Y-102628771D01*
X145239066Y-102628771D02*
X145286685Y-102676390D01*
X145286685Y-102676390D02*
X145334304Y-102771628D01*
X145334304Y-102771628D02*
X145334304Y-103057342D01*
X145334304Y-103057342D02*
X145286685Y-103152580D01*
X145286685Y-103152580D02*
X145239066Y-103200200D01*
X145239066Y-103200200D02*
X145143828Y-103247819D01*
X145143828Y-103247819D02*
X145000971Y-103247819D01*
X145762876Y-103247819D02*
X145762876Y-102581152D01*
X145762876Y-102247819D02*
X145715257Y-102295438D01*
X145715257Y-102295438D02*
X145762876Y-102343057D01*
X145762876Y-102343057D02*
X145810495Y-102295438D01*
X145810495Y-102295438D02*
X145762876Y-102247819D01*
X145762876Y-102247819D02*
X145762876Y-102343057D01*
X146239066Y-102581152D02*
X146239066Y-103247819D01*
X146239066Y-102676390D02*
X146286685Y-102628771D01*
X146286685Y-102628771D02*
X146381923Y-102581152D01*
X146381923Y-102581152D02*
X146524780Y-102581152D01*
X146524780Y-102581152D02*
X146620018Y-102628771D01*
X146620018Y-102628771D02*
X146667637Y-102724009D01*
X146667637Y-102724009D02*
X146667637Y-103247819D01*
X147524780Y-103200200D02*
X147429542Y-103247819D01*
X147429542Y-103247819D02*
X147239066Y-103247819D01*
X147239066Y-103247819D02*
X147143828Y-103200200D01*
X147143828Y-103200200D02*
X147096209Y-103104961D01*
X147096209Y-103104961D02*
X147096209Y-102724009D01*
X147096209Y-102724009D02*
X147143828Y-102628771D01*
X147143828Y-102628771D02*
X147239066Y-102581152D01*
X147239066Y-102581152D02*
X147429542Y-102581152D01*
X147429542Y-102581152D02*
X147524780Y-102628771D01*
X147524780Y-102628771D02*
X147572399Y-102724009D01*
X147572399Y-102724009D02*
X147572399Y-102819247D01*
X147572399Y-102819247D02*
X147096209Y-102914485D01*
X148715257Y-102962104D02*
X149191447Y-102962104D01*
X148620019Y-103247819D02*
X148953352Y-102247819D01*
X148953352Y-102247819D02*
X149286685Y-103247819D01*
X149762876Y-103247819D02*
X149667638Y-103200200D01*
X149667638Y-103200200D02*
X149620019Y-103104961D01*
X149620019Y-103104961D02*
X149620019Y-102247819D01*
X150524781Y-103200200D02*
X150429543Y-103247819D01*
X150429543Y-103247819D02*
X150239067Y-103247819D01*
X150239067Y-103247819D02*
X150143829Y-103200200D01*
X150143829Y-103200200D02*
X150096210Y-103104961D01*
X150096210Y-103104961D02*
X150096210Y-102724009D01*
X150096210Y-102724009D02*
X150143829Y-102628771D01*
X150143829Y-102628771D02*
X150239067Y-102581152D01*
X150239067Y-102581152D02*
X150429543Y-102581152D01*
X150429543Y-102581152D02*
X150524781Y-102628771D01*
X150524781Y-102628771D02*
X150572400Y-102724009D01*
X150572400Y-102724009D02*
X150572400Y-102819247D01*
X150572400Y-102819247D02*
X150096210Y-102914485D01*
X150905734Y-103247819D02*
X151429543Y-102581152D01*
X150905734Y-102581152D02*
X151429543Y-103247819D01*
X152858115Y-102247819D02*
X152858115Y-102962104D01*
X152858115Y-102962104D02*
X152810496Y-103104961D01*
X152810496Y-103104961D02*
X152715258Y-103200200D01*
X152715258Y-103200200D02*
X152572401Y-103247819D01*
X152572401Y-103247819D02*
X152477163Y-103247819D01*
X153477163Y-103247819D02*
X153381925Y-103200200D01*
X153381925Y-103200200D02*
X153334306Y-103152580D01*
X153334306Y-103152580D02*
X153286687Y-103057342D01*
X153286687Y-103057342D02*
X153286687Y-102771628D01*
X153286687Y-102771628D02*
X153334306Y-102676390D01*
X153334306Y-102676390D02*
X153381925Y-102628771D01*
X153381925Y-102628771D02*
X153477163Y-102581152D01*
X153477163Y-102581152D02*
X153620020Y-102581152D01*
X153620020Y-102581152D02*
X153715258Y-102628771D01*
X153715258Y-102628771D02*
X153762877Y-102676390D01*
X153762877Y-102676390D02*
X153810496Y-102771628D01*
X153810496Y-102771628D02*
X153810496Y-103057342D01*
X153810496Y-103057342D02*
X153762877Y-103152580D01*
X153762877Y-103152580D02*
X153715258Y-103200200D01*
X153715258Y-103200200D02*
X153620020Y-103247819D01*
X153620020Y-103247819D02*
X153477163Y-103247819D01*
X154239068Y-103247819D02*
X154239068Y-102247819D01*
X154667639Y-103247819D02*
X154667639Y-102724009D01*
X154667639Y-102724009D02*
X154620020Y-102628771D01*
X154620020Y-102628771D02*
X154524782Y-102581152D01*
X154524782Y-102581152D02*
X154381925Y-102581152D01*
X154381925Y-102581152D02*
X154286687Y-102628771D01*
X154286687Y-102628771D02*
X154239068Y-102676390D01*
X155143830Y-102581152D02*
X155143830Y-103247819D01*
X155143830Y-102676390D02*
X155191449Y-102628771D01*
X155191449Y-102628771D02*
X155286687Y-102581152D01*
X155286687Y-102581152D02*
X155429544Y-102581152D01*
X155429544Y-102581152D02*
X155524782Y-102628771D01*
X155524782Y-102628771D02*
X155572401Y-102724009D01*
X155572401Y-102724009D02*
X155572401Y-103247819D01*
X156000973Y-103200200D02*
X156096211Y-103247819D01*
X156096211Y-103247819D02*
X156286687Y-103247819D01*
X156286687Y-103247819D02*
X156381925Y-103200200D01*
X156381925Y-103200200D02*
X156429544Y-103104961D01*
X156429544Y-103104961D02*
X156429544Y-103057342D01*
X156429544Y-103057342D02*
X156381925Y-102962104D01*
X156381925Y-102962104D02*
X156286687Y-102914485D01*
X156286687Y-102914485D02*
X156143830Y-102914485D01*
X156143830Y-102914485D02*
X156048592Y-102866866D01*
X156048592Y-102866866D02*
X156000973Y-102771628D01*
X156000973Y-102771628D02*
X156000973Y-102724009D01*
X156000973Y-102724009D02*
X156048592Y-102628771D01*
X156048592Y-102628771D02*
X156143830Y-102581152D01*
X156143830Y-102581152D02*
X156286687Y-102581152D01*
X156286687Y-102581152D02*
X156381925Y-102628771D01*
X157000973Y-103247819D02*
X156905735Y-103200200D01*
X156905735Y-103200200D02*
X156858116Y-103152580D01*
X156858116Y-103152580D02*
X156810497Y-103057342D01*
X156810497Y-103057342D02*
X156810497Y-102771628D01*
X156810497Y-102771628D02*
X156858116Y-102676390D01*
X156858116Y-102676390D02*
X156905735Y-102628771D01*
X156905735Y-102628771D02*
X157000973Y-102581152D01*
X157000973Y-102581152D02*
X157143830Y-102581152D01*
X157143830Y-102581152D02*
X157239068Y-102628771D01*
X157239068Y-102628771D02*
X157286687Y-102676390D01*
X157286687Y-102676390D02*
X157334306Y-102771628D01*
X157334306Y-102771628D02*
X157334306Y-103057342D01*
X157334306Y-103057342D02*
X157286687Y-103152580D01*
X157286687Y-103152580D02*
X157239068Y-103200200D01*
X157239068Y-103200200D02*
X157143830Y-103247819D01*
X157143830Y-103247819D02*
X157000973Y-103247819D01*
X157762878Y-102581152D02*
X157762878Y-103247819D01*
X157762878Y-102676390D02*
X157810497Y-102628771D01*
X157810497Y-102628771D02*
X157905735Y-102581152D01*
X157905735Y-102581152D02*
X158048592Y-102581152D01*
X158048592Y-102581152D02*
X158143830Y-102628771D01*
X158143830Y-102628771D02*
X158191449Y-102724009D01*
X158191449Y-102724009D02*
X158191449Y-103247819D01*
X159429545Y-103247819D02*
X159429545Y-102247819D01*
X160000973Y-103247819D02*
X159572402Y-102676390D01*
X160000973Y-102247819D02*
X159429545Y-102819247D01*
X160334307Y-102581152D02*
X160572402Y-103247819D01*
X160810497Y-102581152D02*
X160572402Y-103247819D01*
X160572402Y-103247819D02*
X160477164Y-103485914D01*
X160477164Y-103485914D02*
X160429545Y-103533533D01*
X160429545Y-103533533D02*
X160334307Y-103581152D01*
X161334307Y-103247819D02*
X161239069Y-103200200D01*
X161239069Y-103200200D02*
X161191450Y-103104961D01*
X161191450Y-103104961D02*
X161191450Y-102247819D01*
X162096212Y-103200200D02*
X162000974Y-103247819D01*
X162000974Y-103247819D02*
X161810498Y-103247819D01*
X161810498Y-103247819D02*
X161715260Y-103200200D01*
X161715260Y-103200200D02*
X161667641Y-103104961D01*
X161667641Y-103104961D02*
X161667641Y-102724009D01*
X161667641Y-102724009D02*
X161715260Y-102628771D01*
X161715260Y-102628771D02*
X161810498Y-102581152D01*
X161810498Y-102581152D02*
X162000974Y-102581152D01*
X162000974Y-102581152D02*
X162096212Y-102628771D01*
X162096212Y-102628771D02*
X162143831Y-102724009D01*
X162143831Y-102724009D02*
X162143831Y-102819247D01*
X162143831Y-102819247D02*
X161667641Y-102914485D01*
X163858117Y-102295438D02*
X163762879Y-102247819D01*
X163762879Y-102247819D02*
X163620022Y-102247819D01*
X163620022Y-102247819D02*
X163477165Y-102295438D01*
X163477165Y-102295438D02*
X163381927Y-102390676D01*
X163381927Y-102390676D02*
X163334308Y-102485914D01*
X163334308Y-102485914D02*
X163286689Y-102676390D01*
X163286689Y-102676390D02*
X163286689Y-102819247D01*
X163286689Y-102819247D02*
X163334308Y-103009723D01*
X163334308Y-103009723D02*
X163381927Y-103104961D01*
X163381927Y-103104961D02*
X163477165Y-103200200D01*
X163477165Y-103200200D02*
X163620022Y-103247819D01*
X163620022Y-103247819D02*
X163715260Y-103247819D01*
X163715260Y-103247819D02*
X163858117Y-103200200D01*
X163858117Y-103200200D02*
X163905736Y-103152580D01*
X163905736Y-103152580D02*
X163905736Y-102819247D01*
X163905736Y-102819247D02*
X163715260Y-102819247D01*
X164334308Y-103247819D02*
X164334308Y-102581152D01*
X164334308Y-102771628D02*
X164381927Y-102676390D01*
X164381927Y-102676390D02*
X164429546Y-102628771D01*
X164429546Y-102628771D02*
X164524784Y-102581152D01*
X164524784Y-102581152D02*
X164620022Y-102581152D01*
X165334308Y-103200200D02*
X165239070Y-103247819D01*
X165239070Y-103247819D02*
X165048594Y-103247819D01*
X165048594Y-103247819D02*
X164953356Y-103200200D01*
X164953356Y-103200200D02*
X164905737Y-103104961D01*
X164905737Y-103104961D02*
X164905737Y-102724009D01*
X164905737Y-102724009D02*
X164953356Y-102628771D01*
X164953356Y-102628771D02*
X165048594Y-102581152D01*
X165048594Y-102581152D02*
X165239070Y-102581152D01*
X165239070Y-102581152D02*
X165334308Y-102628771D01*
X165334308Y-102628771D02*
X165381927Y-102724009D01*
X165381927Y-102724009D02*
X165381927Y-102819247D01*
X165381927Y-102819247D02*
X164905737Y-102914485D01*
X166191451Y-103200200D02*
X166096213Y-103247819D01*
X166096213Y-103247819D02*
X165905737Y-103247819D01*
X165905737Y-103247819D02*
X165810499Y-103200200D01*
X165810499Y-103200200D02*
X165762880Y-103104961D01*
X165762880Y-103104961D02*
X165762880Y-102724009D01*
X165762880Y-102724009D02*
X165810499Y-102628771D01*
X165810499Y-102628771D02*
X165905737Y-102581152D01*
X165905737Y-102581152D02*
X166096213Y-102581152D01*
X166096213Y-102581152D02*
X166191451Y-102628771D01*
X166191451Y-102628771D02*
X166239070Y-102724009D01*
X166239070Y-102724009D02*
X166239070Y-102819247D01*
X166239070Y-102819247D02*
X165762880Y-102914485D01*
X166667642Y-102581152D02*
X166667642Y-103247819D01*
X166667642Y-102676390D02*
X166715261Y-102628771D01*
X166715261Y-102628771D02*
X166810499Y-102581152D01*
X166810499Y-102581152D02*
X166953356Y-102581152D01*
X166953356Y-102581152D02*
X167048594Y-102628771D01*
X167048594Y-102628771D02*
X167096213Y-102724009D01*
X167096213Y-102724009D02*
X167096213Y-103247819D01*
X167477166Y-102581152D02*
X167667642Y-103247819D01*
X167667642Y-103247819D02*
X167858118Y-102771628D01*
X167858118Y-102771628D02*
X168048594Y-103247819D01*
X168048594Y-103247819D02*
X168239070Y-102581152D01*
X168762880Y-103247819D02*
X168667642Y-103200200D01*
X168667642Y-103200200D02*
X168620023Y-103152580D01*
X168620023Y-103152580D02*
X168572404Y-103057342D01*
X168572404Y-103057342D02*
X168572404Y-102771628D01*
X168572404Y-102771628D02*
X168620023Y-102676390D01*
X168620023Y-102676390D02*
X168667642Y-102628771D01*
X168667642Y-102628771D02*
X168762880Y-102581152D01*
X168762880Y-102581152D02*
X168905737Y-102581152D01*
X168905737Y-102581152D02*
X169000975Y-102628771D01*
X169000975Y-102628771D02*
X169048594Y-102676390D01*
X169048594Y-102676390D02*
X169096213Y-102771628D01*
X169096213Y-102771628D02*
X169096213Y-103057342D01*
X169096213Y-103057342D02*
X169048594Y-103152580D01*
X169048594Y-103152580D02*
X169000975Y-103200200D01*
X169000975Y-103200200D02*
X168905737Y-103247819D01*
X168905737Y-103247819D02*
X168762880Y-103247819D01*
X169667642Y-103247819D02*
X169572404Y-103200200D01*
X169572404Y-103200200D02*
X169524785Y-103152580D01*
X169524785Y-103152580D02*
X169477166Y-103057342D01*
X169477166Y-103057342D02*
X169477166Y-102771628D01*
X169477166Y-102771628D02*
X169524785Y-102676390D01*
X169524785Y-102676390D02*
X169572404Y-102628771D01*
X169572404Y-102628771D02*
X169667642Y-102581152D01*
X169667642Y-102581152D02*
X169810499Y-102581152D01*
X169810499Y-102581152D02*
X169905737Y-102628771D01*
X169905737Y-102628771D02*
X169953356Y-102676390D01*
X169953356Y-102676390D02*
X170000975Y-102771628D01*
X170000975Y-102771628D02*
X170000975Y-103057342D01*
X170000975Y-103057342D02*
X169953356Y-103152580D01*
X169953356Y-103152580D02*
X169905737Y-103200200D01*
X169905737Y-103200200D02*
X169810499Y-103247819D01*
X169810499Y-103247819D02*
X169667642Y-103247819D01*
X170858118Y-103247819D02*
X170858118Y-102247819D01*
X170858118Y-103200200D02*
X170762880Y-103247819D01*
X170762880Y-103247819D02*
X170572404Y-103247819D01*
X170572404Y-103247819D02*
X170477166Y-103200200D01*
X170477166Y-103200200D02*
X170429547Y-103152580D01*
X170429547Y-103152580D02*
X170381928Y-103057342D01*
X170381928Y-103057342D02*
X170381928Y-102771628D01*
X170381928Y-102771628D02*
X170429547Y-102676390D01*
X170429547Y-102676390D02*
X170477166Y-102628771D01*
X170477166Y-102628771D02*
X170572404Y-102581152D01*
X170572404Y-102581152D02*
X170762880Y-102581152D01*
X170762880Y-102581152D02*
X170858118Y-102628771D01*
X171381928Y-103200200D02*
X171381928Y-103247819D01*
X171381928Y-103247819D02*
X171334309Y-103343057D01*
X171334309Y-103343057D02*
X171286690Y-103390676D01*
X172572404Y-103247819D02*
X172572404Y-102247819D01*
X172572404Y-102247819D02*
X172810499Y-102247819D01*
X172810499Y-102247819D02*
X172953356Y-102295438D01*
X172953356Y-102295438D02*
X173048594Y-102390676D01*
X173048594Y-102390676D02*
X173096213Y-102485914D01*
X173096213Y-102485914D02*
X173143832Y-102676390D01*
X173143832Y-102676390D02*
X173143832Y-102819247D01*
X173143832Y-102819247D02*
X173096213Y-103009723D01*
X173096213Y-103009723D02*
X173048594Y-103104961D01*
X173048594Y-103104961D02*
X172953356Y-103200200D01*
X172953356Y-103200200D02*
X172810499Y-103247819D01*
X172810499Y-103247819D02*
X172572404Y-103247819D01*
X173953356Y-103200200D02*
X173858118Y-103247819D01*
X173858118Y-103247819D02*
X173667642Y-103247819D01*
X173667642Y-103247819D02*
X173572404Y-103200200D01*
X173572404Y-103200200D02*
X173524785Y-103104961D01*
X173524785Y-103104961D02*
X173524785Y-102724009D01*
X173524785Y-102724009D02*
X173572404Y-102628771D01*
X173572404Y-102628771D02*
X173667642Y-102581152D01*
X173667642Y-102581152D02*
X173858118Y-102581152D01*
X173858118Y-102581152D02*
X173953356Y-102628771D01*
X173953356Y-102628771D02*
X174000975Y-102724009D01*
X174000975Y-102724009D02*
X174000975Y-102819247D01*
X174000975Y-102819247D02*
X173524785Y-102914485D01*
X174381928Y-103200200D02*
X174477166Y-103247819D01*
X174477166Y-103247819D02*
X174667642Y-103247819D01*
X174667642Y-103247819D02*
X174762880Y-103200200D01*
X174762880Y-103200200D02*
X174810499Y-103104961D01*
X174810499Y-103104961D02*
X174810499Y-103057342D01*
X174810499Y-103057342D02*
X174762880Y-102962104D01*
X174762880Y-102962104D02*
X174667642Y-102914485D01*
X174667642Y-102914485D02*
X174524785Y-102914485D01*
X174524785Y-102914485D02*
X174429547Y-102866866D01*
X174429547Y-102866866D02*
X174381928Y-102771628D01*
X174381928Y-102771628D02*
X174381928Y-102724009D01*
X174381928Y-102724009D02*
X174429547Y-102628771D01*
X174429547Y-102628771D02*
X174524785Y-102581152D01*
X174524785Y-102581152D02*
X174667642Y-102581152D01*
X174667642Y-102581152D02*
X174762880Y-102628771D01*
X175239071Y-103247819D02*
X175239071Y-102581152D01*
X175239071Y-102247819D02*
X175191452Y-102295438D01*
X175191452Y-102295438D02*
X175239071Y-102343057D01*
X175239071Y-102343057D02*
X175286690Y-102295438D01*
X175286690Y-102295438D02*
X175239071Y-102247819D01*
X175239071Y-102247819D02*
X175239071Y-102343057D01*
X176143832Y-102581152D02*
X176143832Y-103390676D01*
X176143832Y-103390676D02*
X176096213Y-103485914D01*
X176096213Y-103485914D02*
X176048594Y-103533533D01*
X176048594Y-103533533D02*
X175953356Y-103581152D01*
X175953356Y-103581152D02*
X175810499Y-103581152D01*
X175810499Y-103581152D02*
X175715261Y-103533533D01*
X176143832Y-103200200D02*
X176048594Y-103247819D01*
X176048594Y-103247819D02*
X175858118Y-103247819D01*
X175858118Y-103247819D02*
X175762880Y-103200200D01*
X175762880Y-103200200D02*
X175715261Y-103152580D01*
X175715261Y-103152580D02*
X175667642Y-103057342D01*
X175667642Y-103057342D02*
X175667642Y-102771628D01*
X175667642Y-102771628D02*
X175715261Y-102676390D01*
X175715261Y-102676390D02*
X175762880Y-102628771D01*
X175762880Y-102628771D02*
X175858118Y-102581152D01*
X175858118Y-102581152D02*
X176048594Y-102581152D01*
X176048594Y-102581152D02*
X176143832Y-102628771D01*
X176620023Y-102581152D02*
X176620023Y-103247819D01*
X176620023Y-102676390D02*
X176667642Y-102628771D01*
X176667642Y-102628771D02*
X176762880Y-102581152D01*
X176762880Y-102581152D02*
X176905737Y-102581152D01*
X176905737Y-102581152D02*
X177000975Y-102628771D01*
X177000975Y-102628771D02*
X177048594Y-102724009D01*
X177048594Y-102724009D02*
X177048594Y-103247819D01*
X177905737Y-103200200D02*
X177810499Y-103247819D01*
X177810499Y-103247819D02*
X177620023Y-103247819D01*
X177620023Y-103247819D02*
X177524785Y-103200200D01*
X177524785Y-103200200D02*
X177477166Y-103104961D01*
X177477166Y-103104961D02*
X177477166Y-102724009D01*
X177477166Y-102724009D02*
X177524785Y-102628771D01*
X177524785Y-102628771D02*
X177620023Y-102581152D01*
X177620023Y-102581152D02*
X177810499Y-102581152D01*
X177810499Y-102581152D02*
X177905737Y-102628771D01*
X177905737Y-102628771D02*
X177953356Y-102724009D01*
X177953356Y-102724009D02*
X177953356Y-102819247D01*
X177953356Y-102819247D02*
X177477166Y-102914485D01*
X178810499Y-103247819D02*
X178810499Y-102247819D01*
X178810499Y-103200200D02*
X178715261Y-103247819D01*
X178715261Y-103247819D02*
X178524785Y-103247819D01*
X178524785Y-103247819D02*
X178429547Y-103200200D01*
X178429547Y-103200200D02*
X178381928Y-103152580D01*
X178381928Y-103152580D02*
X178334309Y-103057342D01*
X178334309Y-103057342D02*
X178334309Y-102771628D01*
X178334309Y-102771628D02*
X178381928Y-102676390D01*
X178381928Y-102676390D02*
X178429547Y-102628771D01*
X178429547Y-102628771D02*
X178524785Y-102581152D01*
X178524785Y-102581152D02*
X178715261Y-102581152D01*
X178715261Y-102581152D02*
X178810499Y-102628771D01*
X180048595Y-103247819D02*
X180048595Y-102247819D01*
X180048595Y-102628771D02*
X180143833Y-102581152D01*
X180143833Y-102581152D02*
X180334309Y-102581152D01*
X180334309Y-102581152D02*
X180429547Y-102628771D01*
X180429547Y-102628771D02*
X180477166Y-102676390D01*
X180477166Y-102676390D02*
X180524785Y-102771628D01*
X180524785Y-102771628D02*
X180524785Y-103057342D01*
X180524785Y-103057342D02*
X180477166Y-103152580D01*
X180477166Y-103152580D02*
X180429547Y-103200200D01*
X180429547Y-103200200D02*
X180334309Y-103247819D01*
X180334309Y-103247819D02*
X180143833Y-103247819D01*
X180143833Y-103247819D02*
X180048595Y-103200200D01*
X180858119Y-102581152D02*
X181096214Y-103247819D01*
X181334309Y-102581152D02*
X181096214Y-103247819D01*
X181096214Y-103247819D02*
X181000976Y-103485914D01*
X181000976Y-103485914D02*
X180953357Y-103533533D01*
X180953357Y-103533533D02*
X180858119Y-103581152D01*
X182477167Y-103247819D02*
X182477167Y-102247819D01*
X182477167Y-102247819D02*
X183048595Y-103247819D01*
X183048595Y-103247819D02*
X183048595Y-102247819D01*
X183953357Y-103247819D02*
X183953357Y-102724009D01*
X183953357Y-102724009D02*
X183905738Y-102628771D01*
X183905738Y-102628771D02*
X183810500Y-102581152D01*
X183810500Y-102581152D02*
X183620024Y-102581152D01*
X183620024Y-102581152D02*
X183524786Y-102628771D01*
X183953357Y-103200200D02*
X183858119Y-103247819D01*
X183858119Y-103247819D02*
X183620024Y-103247819D01*
X183620024Y-103247819D02*
X183524786Y-103200200D01*
X183524786Y-103200200D02*
X183477167Y-103104961D01*
X183477167Y-103104961D02*
X183477167Y-103009723D01*
X183477167Y-103009723D02*
X183524786Y-102914485D01*
X183524786Y-102914485D02*
X183620024Y-102866866D01*
X183620024Y-102866866D02*
X183858119Y-102866866D01*
X183858119Y-102866866D02*
X183953357Y-102819247D01*
X184286691Y-102581152D02*
X184667643Y-102581152D01*
X184429548Y-102247819D02*
X184429548Y-103104961D01*
X184429548Y-103104961D02*
X184477167Y-103200200D01*
X184477167Y-103200200D02*
X184572405Y-103247819D01*
X184572405Y-103247819D02*
X184667643Y-103247819D01*
X185381929Y-103200200D02*
X185286691Y-103247819D01*
X185286691Y-103247819D02*
X185096215Y-103247819D01*
X185096215Y-103247819D02*
X185000977Y-103200200D01*
X185000977Y-103200200D02*
X184953358Y-103104961D01*
X184953358Y-103104961D02*
X184953358Y-102724009D01*
X184953358Y-102724009D02*
X185000977Y-102628771D01*
X185000977Y-102628771D02*
X185096215Y-102581152D01*
X185096215Y-102581152D02*
X185286691Y-102581152D01*
X185286691Y-102581152D02*
X185381929Y-102628771D01*
X185381929Y-102628771D02*
X185429548Y-102724009D01*
X185429548Y-102724009D02*
X185429548Y-102819247D01*
X185429548Y-102819247D02*
X184953358Y-102914485D01*
X187191453Y-103247819D02*
X186858120Y-102771628D01*
X186620025Y-103247819D02*
X186620025Y-102247819D01*
X186620025Y-102247819D02*
X187000977Y-102247819D01*
X187000977Y-102247819D02*
X187096215Y-102295438D01*
X187096215Y-102295438D02*
X187143834Y-102343057D01*
X187143834Y-102343057D02*
X187191453Y-102438295D01*
X187191453Y-102438295D02*
X187191453Y-102581152D01*
X187191453Y-102581152D02*
X187143834Y-102676390D01*
X187143834Y-102676390D02*
X187096215Y-102724009D01*
X187096215Y-102724009D02*
X187000977Y-102771628D01*
X187000977Y-102771628D02*
X186620025Y-102771628D01*
X187762882Y-103247819D02*
X187667644Y-103200200D01*
X187667644Y-103200200D02*
X187620025Y-103152580D01*
X187620025Y-103152580D02*
X187572406Y-103057342D01*
X187572406Y-103057342D02*
X187572406Y-102771628D01*
X187572406Y-102771628D02*
X187620025Y-102676390D01*
X187620025Y-102676390D02*
X187667644Y-102628771D01*
X187667644Y-102628771D02*
X187762882Y-102581152D01*
X187762882Y-102581152D02*
X187905739Y-102581152D01*
X187905739Y-102581152D02*
X188000977Y-102628771D01*
X188000977Y-102628771D02*
X188048596Y-102676390D01*
X188048596Y-102676390D02*
X188096215Y-102771628D01*
X188096215Y-102771628D02*
X188096215Y-103057342D01*
X188096215Y-103057342D02*
X188048596Y-103152580D01*
X188048596Y-103152580D02*
X188000977Y-103200200D01*
X188000977Y-103200200D02*
X187905739Y-103247819D01*
X187905739Y-103247819D02*
X187762882Y-103247819D01*
X188524787Y-103247819D02*
X188524787Y-102247819D01*
X188524787Y-102628771D02*
X188620025Y-102581152D01*
X188620025Y-102581152D02*
X188810501Y-102581152D01*
X188810501Y-102581152D02*
X188905739Y-102628771D01*
X188905739Y-102628771D02*
X188953358Y-102676390D01*
X188953358Y-102676390D02*
X189000977Y-102771628D01*
X189000977Y-102771628D02*
X189000977Y-103057342D01*
X189000977Y-103057342D02*
X188953358Y-103152580D01*
X188953358Y-103152580D02*
X188905739Y-103200200D01*
X188905739Y-103200200D02*
X188810501Y-103247819D01*
X188810501Y-103247819D02*
X188620025Y-103247819D01*
X188620025Y-103247819D02*
X188524787Y-103200200D01*
X189429549Y-103247819D02*
X189429549Y-102581152D01*
X189429549Y-102247819D02*
X189381930Y-102295438D01*
X189381930Y-102295438D02*
X189429549Y-102343057D01*
X189429549Y-102343057D02*
X189477168Y-102295438D01*
X189477168Y-102295438D02*
X189429549Y-102247819D01*
X189429549Y-102247819D02*
X189429549Y-102343057D01*
X189905739Y-102581152D02*
X189905739Y-103247819D01*
X189905739Y-102676390D02*
X189953358Y-102628771D01*
X189953358Y-102628771D02*
X190048596Y-102581152D01*
X190048596Y-102581152D02*
X190191453Y-102581152D01*
X190191453Y-102581152D02*
X190286691Y-102628771D01*
X190286691Y-102628771D02*
X190334310Y-102724009D01*
X190334310Y-102724009D02*
X190334310Y-103247819D01*
X190762882Y-103200200D02*
X190858120Y-103247819D01*
X190858120Y-103247819D02*
X191048596Y-103247819D01*
X191048596Y-103247819D02*
X191143834Y-103200200D01*
X191143834Y-103200200D02*
X191191453Y-103104961D01*
X191191453Y-103104961D02*
X191191453Y-103057342D01*
X191191453Y-103057342D02*
X191143834Y-102962104D01*
X191143834Y-102962104D02*
X191048596Y-102914485D01*
X191048596Y-102914485D02*
X190905739Y-102914485D01*
X190905739Y-102914485D02*
X190810501Y-102866866D01*
X190810501Y-102866866D02*
X190762882Y-102771628D01*
X190762882Y-102771628D02*
X190762882Y-102724009D01*
X190762882Y-102724009D02*
X190810501Y-102628771D01*
X190810501Y-102628771D02*
X190905739Y-102581152D01*
X190905739Y-102581152D02*
X191048596Y-102581152D01*
X191048596Y-102581152D02*
X191143834Y-102628771D01*
X191762882Y-103247819D02*
X191667644Y-103200200D01*
X191667644Y-103200200D02*
X191620025Y-103152580D01*
X191620025Y-103152580D02*
X191572406Y-103057342D01*
X191572406Y-103057342D02*
X191572406Y-102771628D01*
X191572406Y-102771628D02*
X191620025Y-102676390D01*
X191620025Y-102676390D02*
X191667644Y-102628771D01*
X191667644Y-102628771D02*
X191762882Y-102581152D01*
X191762882Y-102581152D02*
X191905739Y-102581152D01*
X191905739Y-102581152D02*
X192000977Y-102628771D01*
X192000977Y-102628771D02*
X192048596Y-102676390D01*
X192048596Y-102676390D02*
X192096215Y-102771628D01*
X192096215Y-102771628D02*
X192096215Y-103057342D01*
X192096215Y-103057342D02*
X192048596Y-103152580D01*
X192048596Y-103152580D02*
X192000977Y-103200200D01*
X192000977Y-103200200D02*
X191905739Y-103247819D01*
X191905739Y-103247819D02*
X191762882Y-103247819D01*
X192524787Y-102581152D02*
X192524787Y-103247819D01*
X192524787Y-102676390D02*
X192572406Y-102628771D01*
X192572406Y-102628771D02*
X192667644Y-102581152D01*
X192667644Y-102581152D02*
X192810501Y-102581152D01*
X192810501Y-102581152D02*
X192905739Y-102628771D01*
X192905739Y-102628771D02*
X192953358Y-102724009D01*
X192953358Y-102724009D02*
X192953358Y-103247819D01*
X192614779Y-73402866D02*
X193376684Y-73402866D01*
X192995731Y-73783819D02*
X192995731Y-73021914D01*
X140036779Y-74418866D02*
X140798684Y-74418866D01*
X140417731Y-74799819D02*
X140417731Y-74037914D01*
X135464779Y-66290866D02*
X136226684Y-66290866D01*
X135845731Y-66671819D02*
X135845731Y-65909914D01*
X101012666Y-75781819D02*
X101012666Y-76496104D01*
X101012666Y-76496104D02*
X100965047Y-76638961D01*
X100965047Y-76638961D02*
X100869809Y-76734200D01*
X100869809Y-76734200D02*
X100726952Y-76781819D01*
X100726952Y-76781819D02*
X100631714Y-76781819D01*
X102012666Y-76781819D02*
X101441238Y-76781819D01*
X101726952Y-76781819D02*
X101726952Y-75781819D01*
X101726952Y-75781819D02*
X101631714Y-75924676D01*
X101631714Y-75924676D02*
X101536476Y-76019914D01*
X101536476Y-76019914D02*
X101441238Y-76067533D01*
X167814666Y-82766819D02*
X167814666Y-83481104D01*
X167814666Y-83481104D02*
X167767047Y-83623961D01*
X167767047Y-83623961D02*
X167671809Y-83719200D01*
X167671809Y-83719200D02*
X167528952Y-83766819D01*
X167528952Y-83766819D02*
X167433714Y-83766819D01*
X168338476Y-83766819D02*
X168528952Y-83766819D01*
X168528952Y-83766819D02*
X168624190Y-83719200D01*
X168624190Y-83719200D02*
X168671809Y-83671580D01*
X168671809Y-83671580D02*
X168767047Y-83528723D01*
X168767047Y-83528723D02*
X168814666Y-83338247D01*
X168814666Y-83338247D02*
X168814666Y-82957295D01*
X168814666Y-82957295D02*
X168767047Y-82862057D01*
X168767047Y-82862057D02*
X168719428Y-82814438D01*
X168719428Y-82814438D02*
X168624190Y-82766819D01*
X168624190Y-82766819D02*
X168433714Y-82766819D01*
X168433714Y-82766819D02*
X168338476Y-82814438D01*
X168338476Y-82814438D02*
X168290857Y-82862057D01*
X168290857Y-82862057D02*
X168243238Y-82957295D01*
X168243238Y-82957295D02*
X168243238Y-83195390D01*
X168243238Y-83195390D02*
X168290857Y-83290628D01*
X168290857Y-83290628D02*
X168338476Y-83338247D01*
X168338476Y-83338247D02*
X168433714Y-83385866D01*
X168433714Y-83385866D02*
X168624190Y-83385866D01*
X168624190Y-83385866D02*
X168719428Y-83338247D01*
X168719428Y-83338247D02*
X168767047Y-83290628D01*
X168767047Y-83290628D02*
X168814666Y-83195390D01*
X123337333Y-83092276D02*
X123032571Y-83092276D01*
X123032571Y-83092276D02*
X123032571Y-82452276D01*
X123520190Y-82513228D02*
X123550666Y-82482752D01*
X123550666Y-82482752D02*
X123611619Y-82452276D01*
X123611619Y-82452276D02*
X123764000Y-82452276D01*
X123764000Y-82452276D02*
X123824952Y-82482752D01*
X123824952Y-82482752D02*
X123855428Y-82513228D01*
X123855428Y-82513228D02*
X123885905Y-82574180D01*
X123885905Y-82574180D02*
X123885905Y-82635133D01*
X123885905Y-82635133D02*
X123855428Y-82726561D01*
X123855428Y-82726561D02*
X123489714Y-83092276D01*
X123489714Y-83092276D02*
X123885905Y-83092276D01*
X100409476Y-95720819D02*
X100409476Y-96435104D01*
X100409476Y-96435104D02*
X100361857Y-96577961D01*
X100361857Y-96577961D02*
X100266619Y-96673200D01*
X100266619Y-96673200D02*
X100123762Y-96720819D01*
X100123762Y-96720819D02*
X100028524Y-96720819D01*
X101409476Y-96720819D02*
X100838048Y-96720819D01*
X101123762Y-96720819D02*
X101123762Y-95720819D01*
X101123762Y-95720819D02*
X101028524Y-95863676D01*
X101028524Y-95863676D02*
X100933286Y-95958914D01*
X100933286Y-95958914D02*
X100838048Y-96006533D01*
X101980905Y-96149390D02*
X101885667Y-96101771D01*
X101885667Y-96101771D02*
X101838048Y-96054152D01*
X101838048Y-96054152D02*
X101790429Y-95958914D01*
X101790429Y-95958914D02*
X101790429Y-95911295D01*
X101790429Y-95911295D02*
X101838048Y-95816057D01*
X101838048Y-95816057D02*
X101885667Y-95768438D01*
X101885667Y-95768438D02*
X101980905Y-95720819D01*
X101980905Y-95720819D02*
X102171381Y-95720819D01*
X102171381Y-95720819D02*
X102266619Y-95768438D01*
X102266619Y-95768438D02*
X102314238Y-95816057D01*
X102314238Y-95816057D02*
X102361857Y-95911295D01*
X102361857Y-95911295D02*
X102361857Y-95958914D01*
X102361857Y-95958914D02*
X102314238Y-96054152D01*
X102314238Y-96054152D02*
X102266619Y-96101771D01*
X102266619Y-96101771D02*
X102171381Y-96149390D01*
X102171381Y-96149390D02*
X101980905Y-96149390D01*
X101980905Y-96149390D02*
X101885667Y-96197009D01*
X101885667Y-96197009D02*
X101838048Y-96244628D01*
X101838048Y-96244628D02*
X101790429Y-96339866D01*
X101790429Y-96339866D02*
X101790429Y-96530342D01*
X101790429Y-96530342D02*
X101838048Y-96625580D01*
X101838048Y-96625580D02*
X101885667Y-96673200D01*
X101885667Y-96673200D02*
X101980905Y-96720819D01*
X101980905Y-96720819D02*
X102171381Y-96720819D01*
X102171381Y-96720819D02*
X102266619Y-96673200D01*
X102266619Y-96673200D02*
X102314238Y-96625580D01*
X102314238Y-96625580D02*
X102361857Y-96530342D01*
X102361857Y-96530342D02*
X102361857Y-96339866D01*
X102361857Y-96339866D02*
X102314238Y-96244628D01*
X102314238Y-96244628D02*
X102266619Y-96197009D01*
X102266619Y-96197009D02*
X102171381Y-96149390D01*
X111855475Y-101070580D02*
X111807856Y-101118200D01*
X111807856Y-101118200D02*
X111664999Y-101165819D01*
X111664999Y-101165819D02*
X111569761Y-101165819D01*
X111569761Y-101165819D02*
X111426904Y-101118200D01*
X111426904Y-101118200D02*
X111331666Y-101022961D01*
X111331666Y-101022961D02*
X111284047Y-100927723D01*
X111284047Y-100927723D02*
X111236428Y-100737247D01*
X111236428Y-100737247D02*
X111236428Y-100594390D01*
X111236428Y-100594390D02*
X111284047Y-100403914D01*
X111284047Y-100403914D02*
X111331666Y-100308676D01*
X111331666Y-100308676D02*
X111426904Y-100213438D01*
X111426904Y-100213438D02*
X111569761Y-100165819D01*
X111569761Y-100165819D02*
X111664999Y-100165819D01*
X111664999Y-100165819D02*
X111807856Y-100213438D01*
X111807856Y-100213438D02*
X111855475Y-100261057D01*
X112284047Y-101165819D02*
X112284047Y-100165819D01*
X112284047Y-100546771D02*
X112379285Y-100499152D01*
X112379285Y-100499152D02*
X112569761Y-100499152D01*
X112569761Y-100499152D02*
X112664999Y-100546771D01*
X112664999Y-100546771D02*
X112712618Y-100594390D01*
X112712618Y-100594390D02*
X112760237Y-100689628D01*
X112760237Y-100689628D02*
X112760237Y-100975342D01*
X112760237Y-100975342D02*
X112712618Y-101070580D01*
X112712618Y-101070580D02*
X112664999Y-101118200D01*
X112664999Y-101118200D02*
X112569761Y-101165819D01*
X112569761Y-101165819D02*
X112379285Y-101165819D01*
X112379285Y-101165819D02*
X112284047Y-101118200D01*
X113331666Y-101165819D02*
X113236428Y-101118200D01*
X113236428Y-101118200D02*
X113188809Y-101070580D01*
X113188809Y-101070580D02*
X113141190Y-100975342D01*
X113141190Y-100975342D02*
X113141190Y-100689628D01*
X113141190Y-100689628D02*
X113188809Y-100594390D01*
X113188809Y-100594390D02*
X113236428Y-100546771D01*
X113236428Y-100546771D02*
X113331666Y-100499152D01*
X113331666Y-100499152D02*
X113474523Y-100499152D01*
X113474523Y-100499152D02*
X113569761Y-100546771D01*
X113569761Y-100546771D02*
X113617380Y-100594390D01*
X113617380Y-100594390D02*
X113664999Y-100689628D01*
X113664999Y-100689628D02*
X113664999Y-100975342D01*
X113664999Y-100975342D02*
X113617380Y-101070580D01*
X113617380Y-101070580D02*
X113569761Y-101118200D01*
X113569761Y-101118200D02*
X113474523Y-101165819D01*
X113474523Y-101165819D02*
X113331666Y-101165819D01*
X114236428Y-101165819D02*
X114141190Y-101118200D01*
X114141190Y-101118200D02*
X114093571Y-101070580D01*
X114093571Y-101070580D02*
X114045952Y-100975342D01*
X114045952Y-100975342D02*
X114045952Y-100689628D01*
X114045952Y-100689628D02*
X114093571Y-100594390D01*
X114093571Y-100594390D02*
X114141190Y-100546771D01*
X114141190Y-100546771D02*
X114236428Y-100499152D01*
X114236428Y-100499152D02*
X114379285Y-100499152D01*
X114379285Y-100499152D02*
X114474523Y-100546771D01*
X114474523Y-100546771D02*
X114522142Y-100594390D01*
X114522142Y-100594390D02*
X114569761Y-100689628D01*
X114569761Y-100689628D02*
X114569761Y-100975342D01*
X114569761Y-100975342D02*
X114522142Y-101070580D01*
X114522142Y-101070580D02*
X114474523Y-101118200D01*
X114474523Y-101118200D02*
X114379285Y-101165819D01*
X114379285Y-101165819D02*
X114236428Y-101165819D01*
X114855476Y-100499152D02*
X115236428Y-100499152D01*
X114998333Y-100165819D02*
X114998333Y-101022961D01*
X114998333Y-101022961D02*
X115045952Y-101118200D01*
X115045952Y-101118200D02*
X115141190Y-101165819D01*
X115141190Y-101165819D02*
X115236428Y-101165819D01*
X115522143Y-100261057D02*
X115569762Y-100213438D01*
X115569762Y-100213438D02*
X115665000Y-100165819D01*
X115665000Y-100165819D02*
X115903095Y-100165819D01*
X115903095Y-100165819D02*
X115998333Y-100213438D01*
X115998333Y-100213438D02*
X116045952Y-100261057D01*
X116045952Y-100261057D02*
X116093571Y-100356295D01*
X116093571Y-100356295D02*
X116093571Y-100451533D01*
X116093571Y-100451533D02*
X116045952Y-100594390D01*
X116045952Y-100594390D02*
X115474524Y-101165819D01*
X115474524Y-101165819D02*
X116093571Y-101165819D01*
X127938233Y-79099580D02*
X127890614Y-79147200D01*
X127890614Y-79147200D02*
X127747757Y-79194819D01*
X127747757Y-79194819D02*
X127652519Y-79194819D01*
X127652519Y-79194819D02*
X127509662Y-79147200D01*
X127509662Y-79147200D02*
X127414424Y-79051961D01*
X127414424Y-79051961D02*
X127366805Y-78956723D01*
X127366805Y-78956723D02*
X127319186Y-78766247D01*
X127319186Y-78766247D02*
X127319186Y-78623390D01*
X127319186Y-78623390D02*
X127366805Y-78432914D01*
X127366805Y-78432914D02*
X127414424Y-78337676D01*
X127414424Y-78337676D02*
X127509662Y-78242438D01*
X127509662Y-78242438D02*
X127652519Y-78194819D01*
X127652519Y-78194819D02*
X127747757Y-78194819D01*
X127747757Y-78194819D02*
X127890614Y-78242438D01*
X127890614Y-78242438D02*
X127938233Y-78290057D01*
X128319186Y-78290057D02*
X128366805Y-78242438D01*
X128366805Y-78242438D02*
X128462043Y-78194819D01*
X128462043Y-78194819D02*
X128700138Y-78194819D01*
X128700138Y-78194819D02*
X128795376Y-78242438D01*
X128795376Y-78242438D02*
X128842995Y-78290057D01*
X128842995Y-78290057D02*
X128890614Y-78385295D01*
X128890614Y-78385295D02*
X128890614Y-78480533D01*
X128890614Y-78480533D02*
X128842995Y-78623390D01*
X128842995Y-78623390D02*
X128271567Y-79194819D01*
X128271567Y-79194819D02*
X128890614Y-79194819D01*
X112434856Y-85290819D02*
X112101523Y-84814628D01*
X111863428Y-85290819D02*
X111863428Y-84290819D01*
X111863428Y-84290819D02*
X112244380Y-84290819D01*
X112244380Y-84290819D02*
X112339618Y-84338438D01*
X112339618Y-84338438D02*
X112387237Y-84386057D01*
X112387237Y-84386057D02*
X112434856Y-84481295D01*
X112434856Y-84481295D02*
X112434856Y-84624152D01*
X112434856Y-84624152D02*
X112387237Y-84719390D01*
X112387237Y-84719390D02*
X112339618Y-84767009D01*
X112339618Y-84767009D02*
X112244380Y-84814628D01*
X112244380Y-84814628D02*
X111863428Y-84814628D01*
X112720571Y-84624152D02*
X113101523Y-84624152D01*
X112863428Y-85290819D02*
X112863428Y-84433676D01*
X112863428Y-84433676D02*
X112911047Y-84338438D01*
X112911047Y-84338438D02*
X113006285Y-84290819D01*
X113006285Y-84290819D02*
X113101523Y-84290819D01*
X113434857Y-85290819D02*
X113434857Y-84290819D01*
X113434857Y-84671771D02*
X113530095Y-84624152D01*
X113530095Y-84624152D02*
X113720571Y-84624152D01*
X113720571Y-84624152D02*
X113815809Y-84671771D01*
X113815809Y-84671771D02*
X113863428Y-84719390D01*
X113863428Y-84719390D02*
X113911047Y-84814628D01*
X113911047Y-84814628D02*
X113911047Y-85100342D01*
X113911047Y-85100342D02*
X113863428Y-85195580D01*
X113863428Y-85195580D02*
X113815809Y-85243200D01*
X113815809Y-85243200D02*
X113720571Y-85290819D01*
X113720571Y-85290819D02*
X113530095Y-85290819D01*
X113530095Y-85290819D02*
X113434857Y-85243200D01*
X114339619Y-85290819D02*
X114339619Y-84290819D01*
X114339619Y-84671771D02*
X114434857Y-84624152D01*
X114434857Y-84624152D02*
X114625333Y-84624152D01*
X114625333Y-84624152D02*
X114720571Y-84671771D01*
X114720571Y-84671771D02*
X114768190Y-84719390D01*
X114768190Y-84719390D02*
X114815809Y-84814628D01*
X114815809Y-84814628D02*
X114815809Y-85100342D01*
X114815809Y-85100342D02*
X114768190Y-85195580D01*
X114768190Y-85195580D02*
X114720571Y-85243200D01*
X114720571Y-85243200D02*
X114625333Y-85290819D01*
X114625333Y-85290819D02*
X114434857Y-85290819D01*
X114434857Y-85290819D02*
X114339619Y-85243200D01*
X115196762Y-84386057D02*
X115244381Y-84338438D01*
X115244381Y-84338438D02*
X115339619Y-84290819D01*
X115339619Y-84290819D02*
X115577714Y-84290819D01*
X115577714Y-84290819D02*
X115672952Y-84338438D01*
X115672952Y-84338438D02*
X115720571Y-84386057D01*
X115720571Y-84386057D02*
X115768190Y-84481295D01*
X115768190Y-84481295D02*
X115768190Y-84576533D01*
X115768190Y-84576533D02*
X115720571Y-84719390D01*
X115720571Y-84719390D02*
X115149143Y-85290819D01*
X115149143Y-85290819D02*
X115768190Y-85290819D01*
X111926856Y-67764819D02*
X111593523Y-67288628D01*
X111355428Y-67764819D02*
X111355428Y-66764819D01*
X111355428Y-66764819D02*
X111736380Y-66764819D01*
X111736380Y-66764819D02*
X111831618Y-66812438D01*
X111831618Y-66812438D02*
X111879237Y-66860057D01*
X111879237Y-66860057D02*
X111926856Y-66955295D01*
X111926856Y-66955295D02*
X111926856Y-67098152D01*
X111926856Y-67098152D02*
X111879237Y-67193390D01*
X111879237Y-67193390D02*
X111831618Y-67241009D01*
X111831618Y-67241009D02*
X111736380Y-67288628D01*
X111736380Y-67288628D02*
X111355428Y-67288628D01*
X112212571Y-67098152D02*
X112593523Y-67098152D01*
X112355428Y-67764819D02*
X112355428Y-66907676D01*
X112355428Y-66907676D02*
X112403047Y-66812438D01*
X112403047Y-66812438D02*
X112498285Y-66764819D01*
X112498285Y-66764819D02*
X112593523Y-66764819D01*
X112926857Y-67764819D02*
X112926857Y-66764819D01*
X112926857Y-67145771D02*
X113022095Y-67098152D01*
X113022095Y-67098152D02*
X113212571Y-67098152D01*
X113212571Y-67098152D02*
X113307809Y-67145771D01*
X113307809Y-67145771D02*
X113355428Y-67193390D01*
X113355428Y-67193390D02*
X113403047Y-67288628D01*
X113403047Y-67288628D02*
X113403047Y-67574342D01*
X113403047Y-67574342D02*
X113355428Y-67669580D01*
X113355428Y-67669580D02*
X113307809Y-67717200D01*
X113307809Y-67717200D02*
X113212571Y-67764819D01*
X113212571Y-67764819D02*
X113022095Y-67764819D01*
X113022095Y-67764819D02*
X112926857Y-67717200D01*
X113831619Y-67764819D02*
X113831619Y-66764819D01*
X113831619Y-67145771D02*
X113926857Y-67098152D01*
X113926857Y-67098152D02*
X114117333Y-67098152D01*
X114117333Y-67098152D02*
X114212571Y-67145771D01*
X114212571Y-67145771D02*
X114260190Y-67193390D01*
X114260190Y-67193390D02*
X114307809Y-67288628D01*
X114307809Y-67288628D02*
X114307809Y-67574342D01*
X114307809Y-67574342D02*
X114260190Y-67669580D01*
X114260190Y-67669580D02*
X114212571Y-67717200D01*
X114212571Y-67717200D02*
X114117333Y-67764819D01*
X114117333Y-67764819D02*
X113926857Y-67764819D01*
X113926857Y-67764819D02*
X113831619Y-67717200D01*
X115260190Y-67764819D02*
X114688762Y-67764819D01*
X114974476Y-67764819D02*
X114974476Y-66764819D01*
X114974476Y-66764819D02*
X114879238Y-66907676D01*
X114879238Y-66907676D02*
X114784000Y-67002914D01*
X114784000Y-67002914D02*
X114688762Y-67050533D01*
X190896666Y-94979819D02*
X190896666Y-95694104D01*
X190896666Y-95694104D02*
X190849047Y-95836961D01*
X190849047Y-95836961D02*
X190753809Y-95932200D01*
X190753809Y-95932200D02*
X190610952Y-95979819D01*
X190610952Y-95979819D02*
X190515714Y-95979819D01*
X191515714Y-95408390D02*
X191420476Y-95360771D01*
X191420476Y-95360771D02*
X191372857Y-95313152D01*
X191372857Y-95313152D02*
X191325238Y-95217914D01*
X191325238Y-95217914D02*
X191325238Y-95170295D01*
X191325238Y-95170295D02*
X191372857Y-95075057D01*
X191372857Y-95075057D02*
X191420476Y-95027438D01*
X191420476Y-95027438D02*
X191515714Y-94979819D01*
X191515714Y-94979819D02*
X191706190Y-94979819D01*
X191706190Y-94979819D02*
X191801428Y-95027438D01*
X191801428Y-95027438D02*
X191849047Y-95075057D01*
X191849047Y-95075057D02*
X191896666Y-95170295D01*
X191896666Y-95170295D02*
X191896666Y-95217914D01*
X191896666Y-95217914D02*
X191849047Y-95313152D01*
X191849047Y-95313152D02*
X191801428Y-95360771D01*
X191801428Y-95360771D02*
X191706190Y-95408390D01*
X191706190Y-95408390D02*
X191515714Y-95408390D01*
X191515714Y-95408390D02*
X191420476Y-95456009D01*
X191420476Y-95456009D02*
X191372857Y-95503628D01*
X191372857Y-95503628D02*
X191325238Y-95598866D01*
X191325238Y-95598866D02*
X191325238Y-95789342D01*
X191325238Y-95789342D02*
X191372857Y-95884580D01*
X191372857Y-95884580D02*
X191420476Y-95932200D01*
X191420476Y-95932200D02*
X191515714Y-95979819D01*
X191515714Y-95979819D02*
X191706190Y-95979819D01*
X191706190Y-95979819D02*
X191801428Y-95932200D01*
X191801428Y-95932200D02*
X191849047Y-95884580D01*
X191849047Y-95884580D02*
X191896666Y-95789342D01*
X191896666Y-95789342D02*
X191896666Y-95598866D01*
X191896666Y-95598866D02*
X191849047Y-95503628D01*
X191849047Y-95503628D02*
X191801428Y-95456009D01*
X191801428Y-95456009D02*
X191706190Y-95408390D01*
X171180476Y-65854819D02*
X171180476Y-66569104D01*
X171180476Y-66569104D02*
X171132857Y-66711961D01*
X171132857Y-66711961D02*
X171037619Y-66807200D01*
X171037619Y-66807200D02*
X170894762Y-66854819D01*
X170894762Y-66854819D02*
X170799524Y-66854819D01*
X172180476Y-66854819D02*
X171609048Y-66854819D01*
X171894762Y-66854819D02*
X171894762Y-65854819D01*
X171894762Y-65854819D02*
X171799524Y-65997676D01*
X171799524Y-65997676D02*
X171704286Y-66092914D01*
X171704286Y-66092914D02*
X171609048Y-66140533D01*
X172561429Y-65950057D02*
X172609048Y-65902438D01*
X172609048Y-65902438D02*
X172704286Y-65854819D01*
X172704286Y-65854819D02*
X172942381Y-65854819D01*
X172942381Y-65854819D02*
X173037619Y-65902438D01*
X173037619Y-65902438D02*
X173085238Y-65950057D01*
X173085238Y-65950057D02*
X173132857Y-66045295D01*
X173132857Y-66045295D02*
X173132857Y-66140533D01*
X173132857Y-66140533D02*
X173085238Y-66283390D01*
X173085238Y-66283390D02*
X172513810Y-66854819D01*
X172513810Y-66854819D02*
X173132857Y-66854819D01*
X173823333Y-73268819D02*
X173490000Y-72792628D01*
X173251905Y-73268819D02*
X173251905Y-72268819D01*
X173251905Y-72268819D02*
X173632857Y-72268819D01*
X173632857Y-72268819D02*
X173728095Y-72316438D01*
X173728095Y-72316438D02*
X173775714Y-72364057D01*
X173775714Y-72364057D02*
X173823333Y-72459295D01*
X173823333Y-72459295D02*
X173823333Y-72602152D01*
X173823333Y-72602152D02*
X173775714Y-72697390D01*
X173775714Y-72697390D02*
X173728095Y-72745009D01*
X173728095Y-72745009D02*
X173632857Y-72792628D01*
X173632857Y-72792628D02*
X173251905Y-72792628D01*
X174156667Y-72268819D02*
X174775714Y-72268819D01*
X174775714Y-72268819D02*
X174442381Y-72649771D01*
X174442381Y-72649771D02*
X174585238Y-72649771D01*
X174585238Y-72649771D02*
X174680476Y-72697390D01*
X174680476Y-72697390D02*
X174728095Y-72745009D01*
X174728095Y-72745009D02*
X174775714Y-72840247D01*
X174775714Y-72840247D02*
X174775714Y-73078342D01*
X174775714Y-73078342D02*
X174728095Y-73173580D01*
X174728095Y-73173580D02*
X174680476Y-73221200D01*
X174680476Y-73221200D02*
X174585238Y-73268819D01*
X174585238Y-73268819D02*
X174299524Y-73268819D01*
X174299524Y-73268819D02*
X174204286Y-73221200D01*
X174204286Y-73221200D02*
X174156667Y-73173580D01*
X108616857Y-98149580D02*
X108569238Y-98197200D01*
X108569238Y-98197200D02*
X108426381Y-98244819D01*
X108426381Y-98244819D02*
X108331143Y-98244819D01*
X108331143Y-98244819D02*
X108188286Y-98197200D01*
X108188286Y-98197200D02*
X108093048Y-98101961D01*
X108093048Y-98101961D02*
X108045429Y-98006723D01*
X108045429Y-98006723D02*
X107997810Y-97816247D01*
X107997810Y-97816247D02*
X107997810Y-97673390D01*
X107997810Y-97673390D02*
X108045429Y-97482914D01*
X108045429Y-97482914D02*
X108093048Y-97387676D01*
X108093048Y-97387676D02*
X108188286Y-97292438D01*
X108188286Y-97292438D02*
X108331143Y-97244819D01*
X108331143Y-97244819D02*
X108426381Y-97244819D01*
X108426381Y-97244819D02*
X108569238Y-97292438D01*
X108569238Y-97292438D02*
X108616857Y-97340057D01*
X109045429Y-98244819D02*
X109045429Y-97578152D01*
X109045429Y-97244819D02*
X108997810Y-97292438D01*
X108997810Y-97292438D02*
X109045429Y-97340057D01*
X109045429Y-97340057D02*
X109093048Y-97292438D01*
X109093048Y-97292438D02*
X109045429Y-97244819D01*
X109045429Y-97244819D02*
X109045429Y-97340057D01*
X109521619Y-97578152D02*
X109521619Y-98244819D01*
X109521619Y-97673390D02*
X109569238Y-97625771D01*
X109569238Y-97625771D02*
X109664476Y-97578152D01*
X109664476Y-97578152D02*
X109807333Y-97578152D01*
X109807333Y-97578152D02*
X109902571Y-97625771D01*
X109902571Y-97625771D02*
X109950190Y-97721009D01*
X109950190Y-97721009D02*
X109950190Y-98244819D01*
X110378762Y-97340057D02*
X110426381Y-97292438D01*
X110426381Y-97292438D02*
X110521619Y-97244819D01*
X110521619Y-97244819D02*
X110759714Y-97244819D01*
X110759714Y-97244819D02*
X110854952Y-97292438D01*
X110854952Y-97292438D02*
X110902571Y-97340057D01*
X110902571Y-97340057D02*
X110950190Y-97435295D01*
X110950190Y-97435295D02*
X110950190Y-97530533D01*
X110950190Y-97530533D02*
X110902571Y-97673390D01*
X110902571Y-97673390D02*
X110331143Y-98244819D01*
X110331143Y-98244819D02*
X110950190Y-98244819D01*
X136967933Y-79169419D02*
X136634600Y-78693228D01*
X136396505Y-79169419D02*
X136396505Y-78169419D01*
X136396505Y-78169419D02*
X136777457Y-78169419D01*
X136777457Y-78169419D02*
X136872695Y-78217038D01*
X136872695Y-78217038D02*
X136920314Y-78264657D01*
X136920314Y-78264657D02*
X136967933Y-78359895D01*
X136967933Y-78359895D02*
X136967933Y-78502752D01*
X136967933Y-78502752D02*
X136920314Y-78597990D01*
X136920314Y-78597990D02*
X136872695Y-78645609D01*
X136872695Y-78645609D02*
X136777457Y-78693228D01*
X136777457Y-78693228D02*
X136396505Y-78693228D01*
X137348886Y-78264657D02*
X137396505Y-78217038D01*
X137396505Y-78217038D02*
X137491743Y-78169419D01*
X137491743Y-78169419D02*
X137729838Y-78169419D01*
X137729838Y-78169419D02*
X137825076Y-78217038D01*
X137825076Y-78217038D02*
X137872695Y-78264657D01*
X137872695Y-78264657D02*
X137920314Y-78359895D01*
X137920314Y-78359895D02*
X137920314Y-78455133D01*
X137920314Y-78455133D02*
X137872695Y-78597990D01*
X137872695Y-78597990D02*
X137301267Y-79169419D01*
X137301267Y-79169419D02*
X137920314Y-79169419D01*
X123206094Y-76305580D02*
X123158475Y-76353200D01*
X123158475Y-76353200D02*
X123015618Y-76400819D01*
X123015618Y-76400819D02*
X122920380Y-76400819D01*
X122920380Y-76400819D02*
X122777523Y-76353200D01*
X122777523Y-76353200D02*
X122682285Y-76257961D01*
X122682285Y-76257961D02*
X122634666Y-76162723D01*
X122634666Y-76162723D02*
X122587047Y-75972247D01*
X122587047Y-75972247D02*
X122587047Y-75829390D01*
X122587047Y-75829390D02*
X122634666Y-75638914D01*
X122634666Y-75638914D02*
X122682285Y-75543676D01*
X122682285Y-75543676D02*
X122777523Y-75448438D01*
X122777523Y-75448438D02*
X122920380Y-75400819D01*
X122920380Y-75400819D02*
X123015618Y-75400819D01*
X123015618Y-75400819D02*
X123158475Y-75448438D01*
X123158475Y-75448438D02*
X123206094Y-75496057D01*
X123777523Y-76400819D02*
X123682285Y-76353200D01*
X123682285Y-76353200D02*
X123634666Y-76305580D01*
X123634666Y-76305580D02*
X123587047Y-76210342D01*
X123587047Y-76210342D02*
X123587047Y-75924628D01*
X123587047Y-75924628D02*
X123634666Y-75829390D01*
X123634666Y-75829390D02*
X123682285Y-75781771D01*
X123682285Y-75781771D02*
X123777523Y-75734152D01*
X123777523Y-75734152D02*
X123920380Y-75734152D01*
X123920380Y-75734152D02*
X124015618Y-75781771D01*
X124015618Y-75781771D02*
X124063237Y-75829390D01*
X124063237Y-75829390D02*
X124110856Y-75924628D01*
X124110856Y-75924628D02*
X124110856Y-76210342D01*
X124110856Y-76210342D02*
X124063237Y-76305580D01*
X124063237Y-76305580D02*
X124015618Y-76353200D01*
X124015618Y-76353200D02*
X123920380Y-76400819D01*
X123920380Y-76400819D02*
X123777523Y-76400819D01*
X124967999Y-75734152D02*
X124967999Y-76400819D01*
X124539428Y-75734152D02*
X124539428Y-76257961D01*
X124539428Y-76257961D02*
X124587047Y-76353200D01*
X124587047Y-76353200D02*
X124682285Y-76400819D01*
X124682285Y-76400819D02*
X124825142Y-76400819D01*
X124825142Y-76400819D02*
X124920380Y-76353200D01*
X124920380Y-76353200D02*
X124967999Y-76305580D01*
X125301333Y-75734152D02*
X125682285Y-75734152D01*
X125444190Y-75400819D02*
X125444190Y-76257961D01*
X125444190Y-76257961D02*
X125491809Y-76353200D01*
X125491809Y-76353200D02*
X125587047Y-76400819D01*
X125587047Y-76400819D02*
X125682285Y-76400819D01*
X125920381Y-76400819D02*
X126444190Y-75734152D01*
X125920381Y-75734152D02*
X126444190Y-76400819D01*
X127348952Y-76400819D02*
X126777524Y-76400819D01*
X127063238Y-76400819D02*
X127063238Y-75400819D01*
X127063238Y-75400819D02*
X126968000Y-75543676D01*
X126968000Y-75543676D02*
X126872762Y-75638914D01*
X126872762Y-75638914D02*
X126777524Y-75686533D01*
X152796666Y-94979819D02*
X152796666Y-95694104D01*
X152796666Y-95694104D02*
X152749047Y-95836961D01*
X152749047Y-95836961D02*
X152653809Y-95932200D01*
X152653809Y-95932200D02*
X152510952Y-95979819D01*
X152510952Y-95979819D02*
X152415714Y-95979819D01*
X153701428Y-95313152D02*
X153701428Y-95979819D01*
X153463333Y-94932200D02*
X153225238Y-95646485D01*
X153225238Y-95646485D02*
X153844285Y-95646485D01*
X163740180Y-88773095D02*
X162930657Y-88773095D01*
X162930657Y-88773095D02*
X162835419Y-88820714D01*
X162835419Y-88820714D02*
X162787800Y-88868333D01*
X162787800Y-88868333D02*
X162740180Y-88963571D01*
X162740180Y-88963571D02*
X162740180Y-89154047D01*
X162740180Y-89154047D02*
X162787800Y-89249285D01*
X162787800Y-89249285D02*
X162835419Y-89296904D01*
X162835419Y-89296904D02*
X162930657Y-89344523D01*
X162930657Y-89344523D02*
X163740180Y-89344523D01*
X162740180Y-90344523D02*
X162740180Y-89773095D01*
X162740180Y-90058809D02*
X163740180Y-90058809D01*
X163740180Y-90058809D02*
X163597323Y-89963571D01*
X163597323Y-89963571D02*
X163502085Y-89868333D01*
X163502085Y-89868333D02*
X163454466Y-89773095D01*
X165784880Y-89535000D02*
X165546785Y-89535000D01*
X165642023Y-89296905D02*
X165546785Y-89535000D01*
X165546785Y-89535000D02*
X165642023Y-89773095D01*
X165356309Y-89392143D02*
X165546785Y-89535000D01*
X165546785Y-89535000D02*
X165356309Y-89677857D01*
X164694519Y-85724999D02*
X164932614Y-85724999D01*
X164837376Y-85963094D02*
X164932614Y-85724999D01*
X164932614Y-85724999D02*
X164837376Y-85486904D01*
X165123090Y-85867856D02*
X164932614Y-85724999D01*
X164932614Y-85724999D02*
X165123090Y-85582142D01*
X114927237Y-86465580D02*
X114879618Y-86513200D01*
X114879618Y-86513200D02*
X114736761Y-86560819D01*
X114736761Y-86560819D02*
X114641523Y-86560819D01*
X114641523Y-86560819D02*
X114498666Y-86513200D01*
X114498666Y-86513200D02*
X114403428Y-86417961D01*
X114403428Y-86417961D02*
X114355809Y-86322723D01*
X114355809Y-86322723D02*
X114308190Y-86132247D01*
X114308190Y-86132247D02*
X114308190Y-85989390D01*
X114308190Y-85989390D02*
X114355809Y-85798914D01*
X114355809Y-85798914D02*
X114403428Y-85703676D01*
X114403428Y-85703676D02*
X114498666Y-85608438D01*
X114498666Y-85608438D02*
X114641523Y-85560819D01*
X114641523Y-85560819D02*
X114736761Y-85560819D01*
X114736761Y-85560819D02*
X114879618Y-85608438D01*
X114879618Y-85608438D02*
X114927237Y-85656057D01*
X115260571Y-85894152D02*
X115498666Y-86560819D01*
X115498666Y-86560819D02*
X115736761Y-85894152D01*
X116546285Y-86513200D02*
X116451047Y-86560819D01*
X116451047Y-86560819D02*
X116260571Y-86560819D01*
X116260571Y-86560819D02*
X116165333Y-86513200D01*
X116165333Y-86513200D02*
X116117714Y-86465580D01*
X116117714Y-86465580D02*
X116070095Y-86370342D01*
X116070095Y-86370342D02*
X116070095Y-86084628D01*
X116070095Y-86084628D02*
X116117714Y-85989390D01*
X116117714Y-85989390D02*
X116165333Y-85941771D01*
X116165333Y-85941771D02*
X116260571Y-85894152D01*
X116260571Y-85894152D02*
X116451047Y-85894152D01*
X116451047Y-85894152D02*
X116546285Y-85941771D01*
X117403428Y-86513200D02*
X117308190Y-86560819D01*
X117308190Y-86560819D02*
X117117714Y-86560819D01*
X117117714Y-86560819D02*
X117022476Y-86513200D01*
X117022476Y-86513200D02*
X116974857Y-86465580D01*
X116974857Y-86465580D02*
X116927238Y-86370342D01*
X116927238Y-86370342D02*
X116927238Y-86084628D01*
X116927238Y-86084628D02*
X116974857Y-85989390D01*
X116974857Y-85989390D02*
X117022476Y-85941771D01*
X117022476Y-85941771D02*
X117117714Y-85894152D01*
X117117714Y-85894152D02*
X117308190Y-85894152D01*
X117308190Y-85894152D02*
X117403428Y-85941771D01*
X117784381Y-85656057D02*
X117832000Y-85608438D01*
X117832000Y-85608438D02*
X117927238Y-85560819D01*
X117927238Y-85560819D02*
X118165333Y-85560819D01*
X118165333Y-85560819D02*
X118260571Y-85608438D01*
X118260571Y-85608438D02*
X118308190Y-85656057D01*
X118308190Y-85656057D02*
X118355809Y-85751295D01*
X118355809Y-85751295D02*
X118355809Y-85846533D01*
X118355809Y-85846533D02*
X118308190Y-85989390D01*
X118308190Y-85989390D02*
X117736762Y-86560819D01*
X117736762Y-86560819D02*
X118355809Y-86560819D01*
X218725905Y-84290819D02*
X218725905Y-85100342D01*
X218725905Y-85100342D02*
X218773524Y-85195580D01*
X218773524Y-85195580D02*
X218821143Y-85243200D01*
X218821143Y-85243200D02*
X218916381Y-85290819D01*
X218916381Y-85290819D02*
X219106857Y-85290819D01*
X219106857Y-85290819D02*
X219202095Y-85243200D01*
X219202095Y-85243200D02*
X219249714Y-85195580D01*
X219249714Y-85195580D02*
X219297333Y-85100342D01*
X219297333Y-85100342D02*
X219297333Y-84290819D01*
X220297333Y-85290819D02*
X219725905Y-85290819D01*
X220011619Y-85290819D02*
X220011619Y-84290819D01*
X220011619Y-84290819D02*
X219916381Y-84433676D01*
X219916381Y-84433676D02*
X219821143Y-84528914D01*
X219821143Y-84528914D02*
X219725905Y-84576533D01*
X220916381Y-84290819D02*
X221011619Y-84290819D01*
X221011619Y-84290819D02*
X221106857Y-84338438D01*
X221106857Y-84338438D02*
X221154476Y-84386057D01*
X221154476Y-84386057D02*
X221202095Y-84481295D01*
X221202095Y-84481295D02*
X221249714Y-84671771D01*
X221249714Y-84671771D02*
X221249714Y-84909866D01*
X221249714Y-84909866D02*
X221202095Y-85100342D01*
X221202095Y-85100342D02*
X221154476Y-85195580D01*
X221154476Y-85195580D02*
X221106857Y-85243200D01*
X221106857Y-85243200D02*
X221011619Y-85290819D01*
X221011619Y-85290819D02*
X220916381Y-85290819D01*
X220916381Y-85290819D02*
X220821143Y-85243200D01*
X220821143Y-85243200D02*
X220773524Y-85195580D01*
X220773524Y-85195580D02*
X220725905Y-85100342D01*
X220725905Y-85100342D02*
X220678286Y-84909866D01*
X220678286Y-84909866D02*
X220678286Y-84671771D01*
X220678286Y-84671771D02*
X220725905Y-84481295D01*
X220725905Y-84481295D02*
X220773524Y-84386057D01*
X220773524Y-84386057D02*
X220821143Y-84338438D01*
X220821143Y-84338438D02*
X220916381Y-84290819D01*
X223774000Y-93320519D02*
X223774000Y-93558614D01*
X223535905Y-93463376D02*
X223774000Y-93558614D01*
X223774000Y-93558614D02*
X224012095Y-93463376D01*
X223631143Y-93749090D02*
X223774000Y-93558614D01*
X223774000Y-93558614D02*
X223916857Y-93749090D01*
X223773999Y-94410880D02*
X223773999Y-94172785D01*
X224012094Y-94268023D02*
X223773999Y-94172785D01*
X223773999Y-94172785D02*
X223535904Y-94268023D01*
X223916856Y-93982309D02*
X223773999Y-94172785D01*
X223773999Y-94172785D02*
X223631142Y-93982309D01*
X104402095Y-97641580D02*
X104354476Y-97689200D01*
X104354476Y-97689200D02*
X104211619Y-97736819D01*
X104211619Y-97736819D02*
X104116381Y-97736819D01*
X104116381Y-97736819D02*
X103973524Y-97689200D01*
X103973524Y-97689200D02*
X103878286Y-97593961D01*
X103878286Y-97593961D02*
X103830667Y-97498723D01*
X103830667Y-97498723D02*
X103783048Y-97308247D01*
X103783048Y-97308247D02*
X103783048Y-97165390D01*
X103783048Y-97165390D02*
X103830667Y-96974914D01*
X103830667Y-96974914D02*
X103878286Y-96879676D01*
X103878286Y-96879676D02*
X103973524Y-96784438D01*
X103973524Y-96784438D02*
X104116381Y-96736819D01*
X104116381Y-96736819D02*
X104211619Y-96736819D01*
X104211619Y-96736819D02*
X104354476Y-96784438D01*
X104354476Y-96784438D02*
X104402095Y-96832057D01*
X104830667Y-97736819D02*
X104830667Y-97070152D01*
X104830667Y-96736819D02*
X104783048Y-96784438D01*
X104783048Y-96784438D02*
X104830667Y-96832057D01*
X104830667Y-96832057D02*
X104878286Y-96784438D01*
X104878286Y-96784438D02*
X104830667Y-96736819D01*
X104830667Y-96736819D02*
X104830667Y-96832057D01*
X105306857Y-97070152D02*
X105306857Y-97736819D01*
X105306857Y-97165390D02*
X105354476Y-97117771D01*
X105354476Y-97117771D02*
X105449714Y-97070152D01*
X105449714Y-97070152D02*
X105592571Y-97070152D01*
X105592571Y-97070152D02*
X105687809Y-97117771D01*
X105687809Y-97117771D02*
X105735428Y-97213009D01*
X105735428Y-97213009D02*
X105735428Y-97736819D01*
X106116381Y-97736819D02*
X106640190Y-97070152D01*
X106116381Y-97070152D02*
X106640190Y-97736819D01*
X106973524Y-96832057D02*
X107021143Y-96784438D01*
X107021143Y-96784438D02*
X107116381Y-96736819D01*
X107116381Y-96736819D02*
X107354476Y-96736819D01*
X107354476Y-96736819D02*
X107449714Y-96784438D01*
X107449714Y-96784438D02*
X107497333Y-96832057D01*
X107497333Y-96832057D02*
X107544952Y-96927295D01*
X107544952Y-96927295D02*
X107544952Y-97022533D01*
X107544952Y-97022533D02*
X107497333Y-97165390D01*
X107497333Y-97165390D02*
X106925905Y-97736819D01*
X106925905Y-97736819D02*
X107544952Y-97736819D01*
X131190666Y-75980009D02*
X130857333Y-75980009D01*
X130857333Y-76503819D02*
X130857333Y-75503819D01*
X130857333Y-75503819D02*
X131333523Y-75503819D01*
X131666857Y-75599057D02*
X131714476Y-75551438D01*
X131714476Y-75551438D02*
X131809714Y-75503819D01*
X131809714Y-75503819D02*
X132047809Y-75503819D01*
X132047809Y-75503819D02*
X132143047Y-75551438D01*
X132143047Y-75551438D02*
X132190666Y-75599057D01*
X132190666Y-75599057D02*
X132238285Y-75694295D01*
X132238285Y-75694295D02*
X132238285Y-75789533D01*
X132238285Y-75789533D02*
X132190666Y-75932390D01*
X132190666Y-75932390D02*
X131619238Y-76503819D01*
X131619238Y-76503819D02*
X132238285Y-76503819D01*
X119800856Y-88116580D02*
X119753237Y-88164200D01*
X119753237Y-88164200D02*
X119610380Y-88211819D01*
X119610380Y-88211819D02*
X119515142Y-88211819D01*
X119515142Y-88211819D02*
X119372285Y-88164200D01*
X119372285Y-88164200D02*
X119277047Y-88068961D01*
X119277047Y-88068961D02*
X119229428Y-87973723D01*
X119229428Y-87973723D02*
X119181809Y-87783247D01*
X119181809Y-87783247D02*
X119181809Y-87640390D01*
X119181809Y-87640390D02*
X119229428Y-87449914D01*
X119229428Y-87449914D02*
X119277047Y-87354676D01*
X119277047Y-87354676D02*
X119372285Y-87259438D01*
X119372285Y-87259438D02*
X119515142Y-87211819D01*
X119515142Y-87211819D02*
X119610380Y-87211819D01*
X119610380Y-87211819D02*
X119753237Y-87259438D01*
X119753237Y-87259438D02*
X119800856Y-87307057D01*
X120372285Y-88211819D02*
X120277047Y-88164200D01*
X120277047Y-88164200D02*
X120229428Y-88116580D01*
X120229428Y-88116580D02*
X120181809Y-88021342D01*
X120181809Y-88021342D02*
X120181809Y-87735628D01*
X120181809Y-87735628D02*
X120229428Y-87640390D01*
X120229428Y-87640390D02*
X120277047Y-87592771D01*
X120277047Y-87592771D02*
X120372285Y-87545152D01*
X120372285Y-87545152D02*
X120515142Y-87545152D01*
X120515142Y-87545152D02*
X120610380Y-87592771D01*
X120610380Y-87592771D02*
X120657999Y-87640390D01*
X120657999Y-87640390D02*
X120705618Y-87735628D01*
X120705618Y-87735628D02*
X120705618Y-88021342D01*
X120705618Y-88021342D02*
X120657999Y-88116580D01*
X120657999Y-88116580D02*
X120610380Y-88164200D01*
X120610380Y-88164200D02*
X120515142Y-88211819D01*
X120515142Y-88211819D02*
X120372285Y-88211819D01*
X121562761Y-87545152D02*
X121562761Y-88211819D01*
X121134190Y-87545152D02*
X121134190Y-88068961D01*
X121134190Y-88068961D02*
X121181809Y-88164200D01*
X121181809Y-88164200D02*
X121277047Y-88211819D01*
X121277047Y-88211819D02*
X121419904Y-88211819D01*
X121419904Y-88211819D02*
X121515142Y-88164200D01*
X121515142Y-88164200D02*
X121562761Y-88116580D01*
X121896095Y-87545152D02*
X122277047Y-87545152D01*
X122038952Y-87211819D02*
X122038952Y-88068961D01*
X122038952Y-88068961D02*
X122086571Y-88164200D01*
X122086571Y-88164200D02*
X122181809Y-88211819D01*
X122181809Y-88211819D02*
X122277047Y-88211819D01*
X122562762Y-87307057D02*
X122610381Y-87259438D01*
X122610381Y-87259438D02*
X122705619Y-87211819D01*
X122705619Y-87211819D02*
X122943714Y-87211819D01*
X122943714Y-87211819D02*
X123038952Y-87259438D01*
X123038952Y-87259438D02*
X123086571Y-87307057D01*
X123086571Y-87307057D02*
X123134190Y-87402295D01*
X123134190Y-87402295D02*
X123134190Y-87497533D01*
X123134190Y-87497533D02*
X123086571Y-87640390D01*
X123086571Y-87640390D02*
X122515143Y-88211819D01*
X122515143Y-88211819D02*
X123134190Y-88211819D01*
X133183333Y-76654819D02*
X132850000Y-76178628D01*
X132611905Y-76654819D02*
X132611905Y-75654819D01*
X132611905Y-75654819D02*
X132992857Y-75654819D01*
X132992857Y-75654819D02*
X133088095Y-75702438D01*
X133088095Y-75702438D02*
X133135714Y-75750057D01*
X133135714Y-75750057D02*
X133183333Y-75845295D01*
X133183333Y-75845295D02*
X133183333Y-75988152D01*
X133183333Y-75988152D02*
X133135714Y-76083390D01*
X133135714Y-76083390D02*
X133088095Y-76131009D01*
X133088095Y-76131009D02*
X132992857Y-76178628D01*
X132992857Y-76178628D02*
X132611905Y-76178628D01*
X134135714Y-76654819D02*
X133564286Y-76654819D01*
X133850000Y-76654819D02*
X133850000Y-75654819D01*
X133850000Y-75654819D02*
X133754762Y-75797676D01*
X133754762Y-75797676D02*
X133659524Y-75892914D01*
X133659524Y-75892914D02*
X133564286Y-75940533D01*
X190230476Y-65854819D02*
X190230476Y-66569104D01*
X190230476Y-66569104D02*
X190182857Y-66711961D01*
X190182857Y-66711961D02*
X190087619Y-66807200D01*
X190087619Y-66807200D02*
X189944762Y-66854819D01*
X189944762Y-66854819D02*
X189849524Y-66854819D01*
X191230476Y-66854819D02*
X190659048Y-66854819D01*
X190944762Y-66854819D02*
X190944762Y-65854819D01*
X190944762Y-65854819D02*
X190849524Y-65997676D01*
X190849524Y-65997676D02*
X190754286Y-66092914D01*
X190754286Y-66092914D02*
X190659048Y-66140533D01*
X191849524Y-65854819D02*
X191944762Y-65854819D01*
X191944762Y-65854819D02*
X192040000Y-65902438D01*
X192040000Y-65902438D02*
X192087619Y-65950057D01*
X192087619Y-65950057D02*
X192135238Y-66045295D01*
X192135238Y-66045295D02*
X192182857Y-66235771D01*
X192182857Y-66235771D02*
X192182857Y-66473866D01*
X192182857Y-66473866D02*
X192135238Y-66664342D01*
X192135238Y-66664342D02*
X192087619Y-66759580D01*
X192087619Y-66759580D02*
X192040000Y-66807200D01*
X192040000Y-66807200D02*
X191944762Y-66854819D01*
X191944762Y-66854819D02*
X191849524Y-66854819D01*
X191849524Y-66854819D02*
X191754286Y-66807200D01*
X191754286Y-66807200D02*
X191706667Y-66759580D01*
X191706667Y-66759580D02*
X191659048Y-66664342D01*
X191659048Y-66664342D02*
X191611429Y-66473866D01*
X191611429Y-66473866D02*
X191611429Y-66235771D01*
X191611429Y-66235771D02*
X191659048Y-66045295D01*
X191659048Y-66045295D02*
X191706667Y-65950057D01*
X191706667Y-65950057D02*
X191754286Y-65902438D01*
X191754286Y-65902438D02*
X191849524Y-65854819D01*
X127262095Y-94196819D02*
X127833523Y-94196819D01*
X127547809Y-95196819D02*
X127547809Y-94196819D01*
X128166857Y-95196819D02*
X128166857Y-94196819D01*
X128166857Y-94196819D02*
X128547809Y-94196819D01*
X128547809Y-94196819D02*
X128643047Y-94244438D01*
X128643047Y-94244438D02*
X128690666Y-94292057D01*
X128690666Y-94292057D02*
X128738285Y-94387295D01*
X128738285Y-94387295D02*
X128738285Y-94530152D01*
X128738285Y-94530152D02*
X128690666Y-94625390D01*
X128690666Y-94625390D02*
X128643047Y-94673009D01*
X128643047Y-94673009D02*
X128547809Y-94720628D01*
X128547809Y-94720628D02*
X128166857Y-94720628D01*
X129119238Y-94292057D02*
X129166857Y-94244438D01*
X129166857Y-94244438D02*
X129262095Y-94196819D01*
X129262095Y-94196819D02*
X129500190Y-94196819D01*
X129500190Y-94196819D02*
X129595428Y-94244438D01*
X129595428Y-94244438D02*
X129643047Y-94292057D01*
X129643047Y-94292057D02*
X129690666Y-94387295D01*
X129690666Y-94387295D02*
X129690666Y-94482533D01*
X129690666Y-94482533D02*
X129643047Y-94625390D01*
X129643047Y-94625390D02*
X129071619Y-95196819D01*
X129071619Y-95196819D02*
X129690666Y-95196819D01*
X138438095Y-75019819D02*
X139009523Y-75019819D01*
X138723809Y-76019819D02*
X138723809Y-75019819D01*
X139342857Y-76019819D02*
X139342857Y-75019819D01*
X139342857Y-75019819D02*
X139723809Y-75019819D01*
X139723809Y-75019819D02*
X139819047Y-75067438D01*
X139819047Y-75067438D02*
X139866666Y-75115057D01*
X139866666Y-75115057D02*
X139914285Y-75210295D01*
X139914285Y-75210295D02*
X139914285Y-75353152D01*
X139914285Y-75353152D02*
X139866666Y-75448390D01*
X139866666Y-75448390D02*
X139819047Y-75496009D01*
X139819047Y-75496009D02*
X139723809Y-75543628D01*
X139723809Y-75543628D02*
X139342857Y-75543628D01*
X140866666Y-76019819D02*
X140295238Y-76019819D01*
X140580952Y-76019819D02*
X140580952Y-75019819D01*
X140580952Y-75019819D02*
X140485714Y-75162676D01*
X140485714Y-75162676D02*
X140390476Y-75257914D01*
X140390476Y-75257914D02*
X140295238Y-75305533D01*
D12*
X134454318Y-86304362D02*
X133184318Y-86304362D01*
X134333365Y-84973885D02*
X134393842Y-85034361D01*
X134393842Y-85034361D02*
X134454318Y-85215790D01*
X134454318Y-85215790D02*
X134454318Y-85336742D01*
X134454318Y-85336742D02*
X134393842Y-85518171D01*
X134393842Y-85518171D02*
X134272889Y-85639123D01*
X134272889Y-85639123D02*
X134151937Y-85699600D01*
X134151937Y-85699600D02*
X133910032Y-85760076D01*
X133910032Y-85760076D02*
X133728603Y-85760076D01*
X133728603Y-85760076D02*
X133486699Y-85699600D01*
X133486699Y-85699600D02*
X133365746Y-85639123D01*
X133365746Y-85639123D02*
X133244794Y-85518171D01*
X133244794Y-85518171D02*
X133184318Y-85336742D01*
X133184318Y-85336742D02*
X133184318Y-85215790D01*
X133184318Y-85215790D02*
X133244794Y-85034361D01*
X133244794Y-85034361D02*
X133305270Y-84973885D01*
X134454318Y-83764361D02*
X134454318Y-84490076D01*
X134454318Y-84127219D02*
X133184318Y-84127219D01*
X133184318Y-84127219D02*
X133365746Y-84248171D01*
X133365746Y-84248171D02*
X133486699Y-84369123D01*
X133486699Y-84369123D02*
X133547175Y-84490076D01*
D10*
X171846666Y-94979819D02*
X171846666Y-95694104D01*
X171846666Y-95694104D02*
X171799047Y-95836961D01*
X171799047Y-95836961D02*
X171703809Y-95932200D01*
X171703809Y-95932200D02*
X171560952Y-95979819D01*
X171560952Y-95979819D02*
X171465714Y-95979819D01*
X172751428Y-94979819D02*
X172560952Y-94979819D01*
X172560952Y-94979819D02*
X172465714Y-95027438D01*
X172465714Y-95027438D02*
X172418095Y-95075057D01*
X172418095Y-95075057D02*
X172322857Y-95217914D01*
X172322857Y-95217914D02*
X172275238Y-95408390D01*
X172275238Y-95408390D02*
X172275238Y-95789342D01*
X172275238Y-95789342D02*
X172322857Y-95884580D01*
X172322857Y-95884580D02*
X172370476Y-95932200D01*
X172370476Y-95932200D02*
X172465714Y-95979819D01*
X172465714Y-95979819D02*
X172656190Y-95979819D01*
X172656190Y-95979819D02*
X172751428Y-95932200D01*
X172751428Y-95932200D02*
X172799047Y-95884580D01*
X172799047Y-95884580D02*
X172846666Y-95789342D01*
X172846666Y-95789342D02*
X172846666Y-95551247D01*
X172846666Y-95551247D02*
X172799047Y-95456009D01*
X172799047Y-95456009D02*
X172751428Y-95408390D01*
X172751428Y-95408390D02*
X172656190Y-95360771D01*
X172656190Y-95360771D02*
X172465714Y-95360771D01*
X172465714Y-95360771D02*
X172370476Y-95408390D01*
X172370476Y-95408390D02*
X172322857Y-95456009D01*
X172322857Y-95456009D02*
X172275238Y-95551247D01*
X167338476Y-73622819D02*
X167338476Y-74337104D01*
X167338476Y-74337104D02*
X167290857Y-74479961D01*
X167290857Y-74479961D02*
X167195619Y-74575200D01*
X167195619Y-74575200D02*
X167052762Y-74622819D01*
X167052762Y-74622819D02*
X166957524Y-74622819D01*
X168338476Y-74622819D02*
X167767048Y-74622819D01*
X168052762Y-74622819D02*
X168052762Y-73622819D01*
X168052762Y-73622819D02*
X167957524Y-73765676D01*
X167957524Y-73765676D02*
X167862286Y-73860914D01*
X167862286Y-73860914D02*
X167767048Y-73908533D01*
X168671810Y-73622819D02*
X169338476Y-73622819D01*
X169338476Y-73622819D02*
X168909905Y-74622819D01*
X132675333Y-91291580D02*
X132627714Y-91339200D01*
X132627714Y-91339200D02*
X132484857Y-91386819D01*
X132484857Y-91386819D02*
X132389619Y-91386819D01*
X132389619Y-91386819D02*
X132246762Y-91339200D01*
X132246762Y-91339200D02*
X132151524Y-91243961D01*
X132151524Y-91243961D02*
X132103905Y-91148723D01*
X132103905Y-91148723D02*
X132056286Y-90958247D01*
X132056286Y-90958247D02*
X132056286Y-90815390D01*
X132056286Y-90815390D02*
X132103905Y-90624914D01*
X132103905Y-90624914D02*
X132151524Y-90529676D01*
X132151524Y-90529676D02*
X132246762Y-90434438D01*
X132246762Y-90434438D02*
X132389619Y-90386819D01*
X132389619Y-90386819D02*
X132484857Y-90386819D01*
X132484857Y-90386819D02*
X132627714Y-90434438D01*
X132627714Y-90434438D02*
X132675333Y-90482057D01*
X133627714Y-91386819D02*
X133056286Y-91386819D01*
X133342000Y-91386819D02*
X133342000Y-90386819D01*
X133342000Y-90386819D02*
X133246762Y-90529676D01*
X133246762Y-90529676D02*
X133151524Y-90624914D01*
X133151524Y-90624914D02*
X133056286Y-90672533D01*
X107131857Y-80877580D02*
X107084238Y-80925200D01*
X107084238Y-80925200D02*
X106941381Y-80972819D01*
X106941381Y-80972819D02*
X106846143Y-80972819D01*
X106846143Y-80972819D02*
X106703286Y-80925200D01*
X106703286Y-80925200D02*
X106608048Y-80829961D01*
X106608048Y-80829961D02*
X106560429Y-80734723D01*
X106560429Y-80734723D02*
X106512810Y-80544247D01*
X106512810Y-80544247D02*
X106512810Y-80401390D01*
X106512810Y-80401390D02*
X106560429Y-80210914D01*
X106560429Y-80210914D02*
X106608048Y-80115676D01*
X106608048Y-80115676D02*
X106703286Y-80020438D01*
X106703286Y-80020438D02*
X106846143Y-79972819D01*
X106846143Y-79972819D02*
X106941381Y-79972819D01*
X106941381Y-79972819D02*
X107084238Y-80020438D01*
X107084238Y-80020438D02*
X107131857Y-80068057D01*
X107560429Y-80972819D02*
X107560429Y-80306152D01*
X107560429Y-79972819D02*
X107512810Y-80020438D01*
X107512810Y-80020438D02*
X107560429Y-80068057D01*
X107560429Y-80068057D02*
X107608048Y-80020438D01*
X107608048Y-80020438D02*
X107560429Y-79972819D01*
X107560429Y-79972819D02*
X107560429Y-80068057D01*
X108036619Y-80306152D02*
X108036619Y-80972819D01*
X108036619Y-80401390D02*
X108084238Y-80353771D01*
X108084238Y-80353771D02*
X108179476Y-80306152D01*
X108179476Y-80306152D02*
X108322333Y-80306152D01*
X108322333Y-80306152D02*
X108417571Y-80353771D01*
X108417571Y-80353771D02*
X108465190Y-80449009D01*
X108465190Y-80449009D02*
X108465190Y-80972819D01*
X109465190Y-80972819D02*
X108893762Y-80972819D01*
X109179476Y-80972819D02*
X109179476Y-79972819D01*
X109179476Y-79972819D02*
X109084238Y-80115676D01*
X109084238Y-80115676D02*
X108989000Y-80210914D01*
X108989000Y-80210914D02*
X108893762Y-80258533D01*
X146139819Y-80136904D02*
X146949342Y-80136904D01*
X146949342Y-80136904D02*
X147044580Y-80089285D01*
X147044580Y-80089285D02*
X147092200Y-80041666D01*
X147092200Y-80041666D02*
X147139819Y-79946428D01*
X147139819Y-79946428D02*
X147139819Y-79755952D01*
X147139819Y-79755952D02*
X147092200Y-79660714D01*
X147092200Y-79660714D02*
X147044580Y-79613095D01*
X147044580Y-79613095D02*
X146949342Y-79565476D01*
X146949342Y-79565476D02*
X146139819Y-79565476D01*
X146235057Y-79136904D02*
X146187438Y-79089285D01*
X146187438Y-79089285D02*
X146139819Y-78994047D01*
X146139819Y-78994047D02*
X146139819Y-78755952D01*
X146139819Y-78755952D02*
X146187438Y-78660714D01*
X146187438Y-78660714D02*
X146235057Y-78613095D01*
X146235057Y-78613095D02*
X146330295Y-78565476D01*
X146330295Y-78565476D02*
X146425533Y-78565476D01*
X146425533Y-78565476D02*
X146568390Y-78613095D01*
X146568390Y-78613095D02*
X147139819Y-79184523D01*
X147139819Y-79184523D02*
X147139819Y-78565476D01*
X144095119Y-79374999D02*
X144333214Y-79374999D01*
X144237976Y-79613094D02*
X144333214Y-79374999D01*
X144333214Y-79374999D02*
X144237976Y-79136904D01*
X144523690Y-79517856D02*
X144333214Y-79374999D01*
X144333214Y-79374999D02*
X144523690Y-79232142D01*
X144095119Y-79374999D02*
X144333214Y-79374999D01*
X144237976Y-79613094D02*
X144333214Y-79374999D01*
X144333214Y-79374999D02*
X144237976Y-79136904D01*
X144523690Y-79517856D02*
X144333214Y-79374999D01*
X144333214Y-79374999D02*
X144523690Y-79232142D01*
X107973904Y-67923580D02*
X107926285Y-67971200D01*
X107926285Y-67971200D02*
X107783428Y-68018819D01*
X107783428Y-68018819D02*
X107688190Y-68018819D01*
X107688190Y-68018819D02*
X107545333Y-67971200D01*
X107545333Y-67971200D02*
X107450095Y-67875961D01*
X107450095Y-67875961D02*
X107402476Y-67780723D01*
X107402476Y-67780723D02*
X107354857Y-67590247D01*
X107354857Y-67590247D02*
X107354857Y-67447390D01*
X107354857Y-67447390D02*
X107402476Y-67256914D01*
X107402476Y-67256914D02*
X107450095Y-67161676D01*
X107450095Y-67161676D02*
X107545333Y-67066438D01*
X107545333Y-67066438D02*
X107688190Y-67018819D01*
X107688190Y-67018819D02*
X107783428Y-67018819D01*
X107783428Y-67018819D02*
X107926285Y-67066438D01*
X107926285Y-67066438D02*
X107973904Y-67114057D01*
X108259619Y-67352152D02*
X108640571Y-67352152D01*
X108402476Y-68018819D02*
X108402476Y-67161676D01*
X108402476Y-67161676D02*
X108450095Y-67066438D01*
X108450095Y-67066438D02*
X108545333Y-67018819D01*
X108545333Y-67018819D02*
X108640571Y-67018819D01*
X108831048Y-67352152D02*
X109212000Y-67352152D01*
X108973905Y-68018819D02*
X108973905Y-67161676D01*
X108973905Y-67161676D02*
X109021524Y-67066438D01*
X109021524Y-67066438D02*
X109116762Y-67018819D01*
X109116762Y-67018819D02*
X109212000Y-67018819D01*
X110069143Y-68018819D02*
X109497715Y-68018819D01*
X109783429Y-68018819D02*
X109783429Y-67018819D01*
X109783429Y-67018819D02*
X109688191Y-67161676D01*
X109688191Y-67161676D02*
X109592953Y-67256914D01*
X109592953Y-67256914D02*
X109497715Y-67304533D01*
X108481904Y-85703580D02*
X108434285Y-85751200D01*
X108434285Y-85751200D02*
X108291428Y-85798819D01*
X108291428Y-85798819D02*
X108196190Y-85798819D01*
X108196190Y-85798819D02*
X108053333Y-85751200D01*
X108053333Y-85751200D02*
X107958095Y-85655961D01*
X107958095Y-85655961D02*
X107910476Y-85560723D01*
X107910476Y-85560723D02*
X107862857Y-85370247D01*
X107862857Y-85370247D02*
X107862857Y-85227390D01*
X107862857Y-85227390D02*
X107910476Y-85036914D01*
X107910476Y-85036914D02*
X107958095Y-84941676D01*
X107958095Y-84941676D02*
X108053333Y-84846438D01*
X108053333Y-84846438D02*
X108196190Y-84798819D01*
X108196190Y-84798819D02*
X108291428Y-84798819D01*
X108291428Y-84798819D02*
X108434285Y-84846438D01*
X108434285Y-84846438D02*
X108481904Y-84894057D01*
X108767619Y-85132152D02*
X109148571Y-85132152D01*
X108910476Y-85798819D02*
X108910476Y-84941676D01*
X108910476Y-84941676D02*
X108958095Y-84846438D01*
X108958095Y-84846438D02*
X109053333Y-84798819D01*
X109053333Y-84798819D02*
X109148571Y-84798819D01*
X109339048Y-85132152D02*
X109720000Y-85132152D01*
X109481905Y-85798819D02*
X109481905Y-84941676D01*
X109481905Y-84941676D02*
X109529524Y-84846438D01*
X109529524Y-84846438D02*
X109624762Y-84798819D01*
X109624762Y-84798819D02*
X109720000Y-84798819D01*
X110005715Y-84894057D02*
X110053334Y-84846438D01*
X110053334Y-84846438D02*
X110148572Y-84798819D01*
X110148572Y-84798819D02*
X110386667Y-84798819D01*
X110386667Y-84798819D02*
X110481905Y-84846438D01*
X110481905Y-84846438D02*
X110529524Y-84894057D01*
X110529524Y-84894057D02*
X110577143Y-84989295D01*
X110577143Y-84989295D02*
X110577143Y-85084533D01*
X110577143Y-85084533D02*
X110529524Y-85227390D01*
X110529524Y-85227390D02*
X109958096Y-85798819D01*
X109958096Y-85798819D02*
X110577143Y-85798819D01*
X111728475Y-83671580D02*
X111680856Y-83719200D01*
X111680856Y-83719200D02*
X111537999Y-83766819D01*
X111537999Y-83766819D02*
X111442761Y-83766819D01*
X111442761Y-83766819D02*
X111299904Y-83719200D01*
X111299904Y-83719200D02*
X111204666Y-83623961D01*
X111204666Y-83623961D02*
X111157047Y-83528723D01*
X111157047Y-83528723D02*
X111109428Y-83338247D01*
X111109428Y-83338247D02*
X111109428Y-83195390D01*
X111109428Y-83195390D02*
X111157047Y-83004914D01*
X111157047Y-83004914D02*
X111204666Y-82909676D01*
X111204666Y-82909676D02*
X111299904Y-82814438D01*
X111299904Y-82814438D02*
X111442761Y-82766819D01*
X111442761Y-82766819D02*
X111537999Y-82766819D01*
X111537999Y-82766819D02*
X111680856Y-82814438D01*
X111680856Y-82814438D02*
X111728475Y-82862057D01*
X112157047Y-83766819D02*
X112157047Y-82766819D01*
X112157047Y-83147771D02*
X112252285Y-83100152D01*
X112252285Y-83100152D02*
X112442761Y-83100152D01*
X112442761Y-83100152D02*
X112537999Y-83147771D01*
X112537999Y-83147771D02*
X112585618Y-83195390D01*
X112585618Y-83195390D02*
X112633237Y-83290628D01*
X112633237Y-83290628D02*
X112633237Y-83576342D01*
X112633237Y-83576342D02*
X112585618Y-83671580D01*
X112585618Y-83671580D02*
X112537999Y-83719200D01*
X112537999Y-83719200D02*
X112442761Y-83766819D01*
X112442761Y-83766819D02*
X112252285Y-83766819D01*
X112252285Y-83766819D02*
X112157047Y-83719200D01*
X113204666Y-83766819D02*
X113109428Y-83719200D01*
X113109428Y-83719200D02*
X113061809Y-83671580D01*
X113061809Y-83671580D02*
X113014190Y-83576342D01*
X113014190Y-83576342D02*
X113014190Y-83290628D01*
X113014190Y-83290628D02*
X113061809Y-83195390D01*
X113061809Y-83195390D02*
X113109428Y-83147771D01*
X113109428Y-83147771D02*
X113204666Y-83100152D01*
X113204666Y-83100152D02*
X113347523Y-83100152D01*
X113347523Y-83100152D02*
X113442761Y-83147771D01*
X113442761Y-83147771D02*
X113490380Y-83195390D01*
X113490380Y-83195390D02*
X113537999Y-83290628D01*
X113537999Y-83290628D02*
X113537999Y-83576342D01*
X113537999Y-83576342D02*
X113490380Y-83671580D01*
X113490380Y-83671580D02*
X113442761Y-83719200D01*
X113442761Y-83719200D02*
X113347523Y-83766819D01*
X113347523Y-83766819D02*
X113204666Y-83766819D01*
X114109428Y-83766819D02*
X114014190Y-83719200D01*
X114014190Y-83719200D02*
X113966571Y-83671580D01*
X113966571Y-83671580D02*
X113918952Y-83576342D01*
X113918952Y-83576342D02*
X113918952Y-83290628D01*
X113918952Y-83290628D02*
X113966571Y-83195390D01*
X113966571Y-83195390D02*
X114014190Y-83147771D01*
X114014190Y-83147771D02*
X114109428Y-83100152D01*
X114109428Y-83100152D02*
X114252285Y-83100152D01*
X114252285Y-83100152D02*
X114347523Y-83147771D01*
X114347523Y-83147771D02*
X114395142Y-83195390D01*
X114395142Y-83195390D02*
X114442761Y-83290628D01*
X114442761Y-83290628D02*
X114442761Y-83576342D01*
X114442761Y-83576342D02*
X114395142Y-83671580D01*
X114395142Y-83671580D02*
X114347523Y-83719200D01*
X114347523Y-83719200D02*
X114252285Y-83766819D01*
X114252285Y-83766819D02*
X114109428Y-83766819D01*
X114728476Y-83100152D02*
X115109428Y-83100152D01*
X114871333Y-82766819D02*
X114871333Y-83623961D01*
X114871333Y-83623961D02*
X114918952Y-83719200D01*
X114918952Y-83719200D02*
X115014190Y-83766819D01*
X115014190Y-83766819D02*
X115109428Y-83766819D01*
X115966571Y-83766819D02*
X115395143Y-83766819D01*
X115680857Y-83766819D02*
X115680857Y-82766819D01*
X115680857Y-82766819D02*
X115585619Y-82909676D01*
X115585619Y-82909676D02*
X115490381Y-83004914D01*
X115490381Y-83004914D02*
X115395143Y-83052533D01*
X113657237Y-69193580D02*
X113609618Y-69241200D01*
X113609618Y-69241200D02*
X113466761Y-69288819D01*
X113466761Y-69288819D02*
X113371523Y-69288819D01*
X113371523Y-69288819D02*
X113228666Y-69241200D01*
X113228666Y-69241200D02*
X113133428Y-69145961D01*
X113133428Y-69145961D02*
X113085809Y-69050723D01*
X113085809Y-69050723D02*
X113038190Y-68860247D01*
X113038190Y-68860247D02*
X113038190Y-68717390D01*
X113038190Y-68717390D02*
X113085809Y-68526914D01*
X113085809Y-68526914D02*
X113133428Y-68431676D01*
X113133428Y-68431676D02*
X113228666Y-68336438D01*
X113228666Y-68336438D02*
X113371523Y-68288819D01*
X113371523Y-68288819D02*
X113466761Y-68288819D01*
X113466761Y-68288819D02*
X113609618Y-68336438D01*
X113609618Y-68336438D02*
X113657237Y-68384057D01*
X113990571Y-68622152D02*
X114228666Y-69288819D01*
X114228666Y-69288819D02*
X114466761Y-68622152D01*
X115276285Y-69241200D02*
X115181047Y-69288819D01*
X115181047Y-69288819D02*
X114990571Y-69288819D01*
X114990571Y-69288819D02*
X114895333Y-69241200D01*
X114895333Y-69241200D02*
X114847714Y-69193580D01*
X114847714Y-69193580D02*
X114800095Y-69098342D01*
X114800095Y-69098342D02*
X114800095Y-68812628D01*
X114800095Y-68812628D02*
X114847714Y-68717390D01*
X114847714Y-68717390D02*
X114895333Y-68669771D01*
X114895333Y-68669771D02*
X114990571Y-68622152D01*
X114990571Y-68622152D02*
X115181047Y-68622152D01*
X115181047Y-68622152D02*
X115276285Y-68669771D01*
X116133428Y-69241200D02*
X116038190Y-69288819D01*
X116038190Y-69288819D02*
X115847714Y-69288819D01*
X115847714Y-69288819D02*
X115752476Y-69241200D01*
X115752476Y-69241200D02*
X115704857Y-69193580D01*
X115704857Y-69193580D02*
X115657238Y-69098342D01*
X115657238Y-69098342D02*
X115657238Y-68812628D01*
X115657238Y-68812628D02*
X115704857Y-68717390D01*
X115704857Y-68717390D02*
X115752476Y-68669771D01*
X115752476Y-68669771D02*
X115847714Y-68622152D01*
X115847714Y-68622152D02*
X116038190Y-68622152D01*
X116038190Y-68622152D02*
X116133428Y-68669771D01*
X117085809Y-69288819D02*
X116514381Y-69288819D01*
X116800095Y-69288819D02*
X116800095Y-68288819D01*
X116800095Y-68288819D02*
X116704857Y-68431676D01*
X116704857Y-68431676D02*
X116609619Y-68526914D01*
X116609619Y-68526914D02*
X116514381Y-68574533D01*
X134127666Y-94979819D02*
X134127666Y-95694104D01*
X134127666Y-95694104D02*
X134080047Y-95836961D01*
X134080047Y-95836961D02*
X133984809Y-95932200D01*
X133984809Y-95932200D02*
X133841952Y-95979819D01*
X133841952Y-95979819D02*
X133746714Y-95979819D01*
X134556238Y-95075057D02*
X134603857Y-95027438D01*
X134603857Y-95027438D02*
X134699095Y-94979819D01*
X134699095Y-94979819D02*
X134937190Y-94979819D01*
X134937190Y-94979819D02*
X135032428Y-95027438D01*
X135032428Y-95027438D02*
X135080047Y-95075057D01*
X135080047Y-95075057D02*
X135127666Y-95170295D01*
X135127666Y-95170295D02*
X135127666Y-95265533D01*
X135127666Y-95265533D02*
X135080047Y-95408390D01*
X135080047Y-95408390D02*
X134508619Y-95979819D01*
X134508619Y-95979819D02*
X135127666Y-95979819D01*
X116022571Y-93926819D02*
X115689238Y-93450628D01*
X115451143Y-93926819D02*
X115451143Y-92926819D01*
X115451143Y-92926819D02*
X115832095Y-92926819D01*
X115832095Y-92926819D02*
X115927333Y-92974438D01*
X115927333Y-92974438D02*
X115974952Y-93022057D01*
X115974952Y-93022057D02*
X116022571Y-93117295D01*
X116022571Y-93117295D02*
X116022571Y-93260152D01*
X116022571Y-93260152D02*
X115974952Y-93355390D01*
X115974952Y-93355390D02*
X115927333Y-93403009D01*
X115927333Y-93403009D02*
X115832095Y-93450628D01*
X115832095Y-93450628D02*
X115451143Y-93450628D01*
X116451143Y-93260152D02*
X116451143Y-94260152D01*
X116451143Y-93307771D02*
X116546381Y-93260152D01*
X116546381Y-93260152D02*
X116736857Y-93260152D01*
X116736857Y-93260152D02*
X116832095Y-93307771D01*
X116832095Y-93307771D02*
X116879714Y-93355390D01*
X116879714Y-93355390D02*
X116927333Y-93450628D01*
X116927333Y-93450628D02*
X116927333Y-93736342D01*
X116927333Y-93736342D02*
X116879714Y-93831580D01*
X116879714Y-93831580D02*
X116832095Y-93879200D01*
X116832095Y-93879200D02*
X116736857Y-93926819D01*
X116736857Y-93926819D02*
X116546381Y-93926819D01*
X116546381Y-93926819D02*
X116451143Y-93879200D01*
X117784476Y-93260152D02*
X117784476Y-94069676D01*
X117784476Y-94069676D02*
X117736857Y-94164914D01*
X117736857Y-94164914D02*
X117689238Y-94212533D01*
X117689238Y-94212533D02*
X117594000Y-94260152D01*
X117594000Y-94260152D02*
X117451143Y-94260152D01*
X117451143Y-94260152D02*
X117355905Y-94212533D01*
X117784476Y-93879200D02*
X117689238Y-93926819D01*
X117689238Y-93926819D02*
X117498762Y-93926819D01*
X117498762Y-93926819D02*
X117403524Y-93879200D01*
X117403524Y-93879200D02*
X117355905Y-93831580D01*
X117355905Y-93831580D02*
X117308286Y-93736342D01*
X117308286Y-93736342D02*
X117308286Y-93450628D01*
X117308286Y-93450628D02*
X117355905Y-93355390D01*
X117355905Y-93355390D02*
X117403524Y-93307771D01*
X117403524Y-93307771D02*
X117498762Y-93260152D01*
X117498762Y-93260152D02*
X117689238Y-93260152D01*
X117689238Y-93260152D02*
X117784476Y-93307771D01*
X118213048Y-93022057D02*
X118260667Y-92974438D01*
X118260667Y-92974438D02*
X118355905Y-92926819D01*
X118355905Y-92926819D02*
X118594000Y-92926819D01*
X118594000Y-92926819D02*
X118689238Y-92974438D01*
X118689238Y-92974438D02*
X118736857Y-93022057D01*
X118736857Y-93022057D02*
X118784476Y-93117295D01*
X118784476Y-93117295D02*
X118784476Y-93212533D01*
X118784476Y-93212533D02*
X118736857Y-93355390D01*
X118736857Y-93355390D02*
X118165429Y-93926819D01*
X118165429Y-93926819D02*
X118784476Y-93926819D01*
X125230095Y-65748819D02*
X125801523Y-65748819D01*
X125515809Y-66748819D02*
X125515809Y-65748819D01*
X126134857Y-66748819D02*
X126134857Y-65748819D01*
X126134857Y-65748819D02*
X126515809Y-65748819D01*
X126515809Y-65748819D02*
X126611047Y-65796438D01*
X126611047Y-65796438D02*
X126658666Y-65844057D01*
X126658666Y-65844057D02*
X126706285Y-65939295D01*
X126706285Y-65939295D02*
X126706285Y-66082152D01*
X126706285Y-66082152D02*
X126658666Y-66177390D01*
X126658666Y-66177390D02*
X126611047Y-66225009D01*
X126611047Y-66225009D02*
X126515809Y-66272628D01*
X126515809Y-66272628D02*
X126134857Y-66272628D01*
X127039619Y-65748819D02*
X127658666Y-65748819D01*
X127658666Y-65748819D02*
X127325333Y-66129771D01*
X127325333Y-66129771D02*
X127468190Y-66129771D01*
X127468190Y-66129771D02*
X127563428Y-66177390D01*
X127563428Y-66177390D02*
X127611047Y-66225009D01*
X127611047Y-66225009D02*
X127658666Y-66320247D01*
X127658666Y-66320247D02*
X127658666Y-66558342D01*
X127658666Y-66558342D02*
X127611047Y-66653580D01*
X127611047Y-66653580D02*
X127563428Y-66701200D01*
X127563428Y-66701200D02*
X127468190Y-66748819D01*
X127468190Y-66748819D02*
X127182476Y-66748819D01*
X127182476Y-66748819D02*
X127087238Y-66701200D01*
X127087238Y-66701200D02*
X127039619Y-66653580D01*
X203708095Y-78829819D02*
X203708095Y-79639342D01*
X203708095Y-79639342D02*
X203755714Y-79734580D01*
X203755714Y-79734580D02*
X203803333Y-79782200D01*
X203803333Y-79782200D02*
X203898571Y-79829819D01*
X203898571Y-79829819D02*
X204089047Y-79829819D01*
X204089047Y-79829819D02*
X204184285Y-79782200D01*
X204184285Y-79782200D02*
X204231904Y-79734580D01*
X204231904Y-79734580D02*
X204279523Y-79639342D01*
X204279523Y-79639342D02*
X204279523Y-78829819D01*
X204898571Y-79258390D02*
X204803333Y-79210771D01*
X204803333Y-79210771D02*
X204755714Y-79163152D01*
X204755714Y-79163152D02*
X204708095Y-79067914D01*
X204708095Y-79067914D02*
X204708095Y-79020295D01*
X204708095Y-79020295D02*
X204755714Y-78925057D01*
X204755714Y-78925057D02*
X204803333Y-78877438D01*
X204803333Y-78877438D02*
X204898571Y-78829819D01*
X204898571Y-78829819D02*
X205089047Y-78829819D01*
X205089047Y-78829819D02*
X205184285Y-78877438D01*
X205184285Y-78877438D02*
X205231904Y-78925057D01*
X205231904Y-78925057D02*
X205279523Y-79020295D01*
X205279523Y-79020295D02*
X205279523Y-79067914D01*
X205279523Y-79067914D02*
X205231904Y-79163152D01*
X205231904Y-79163152D02*
X205184285Y-79210771D01*
X205184285Y-79210771D02*
X205089047Y-79258390D01*
X205089047Y-79258390D02*
X204898571Y-79258390D01*
X204898571Y-79258390D02*
X204803333Y-79306009D01*
X204803333Y-79306009D02*
X204755714Y-79353628D01*
X204755714Y-79353628D02*
X204708095Y-79448866D01*
X204708095Y-79448866D02*
X204708095Y-79639342D01*
X204708095Y-79639342D02*
X204755714Y-79734580D01*
X204755714Y-79734580D02*
X204803333Y-79782200D01*
X204803333Y-79782200D02*
X204898571Y-79829819D01*
X204898571Y-79829819D02*
X205089047Y-79829819D01*
X205089047Y-79829819D02*
X205184285Y-79782200D01*
X205184285Y-79782200D02*
X205231904Y-79734580D01*
X205231904Y-79734580D02*
X205279523Y-79639342D01*
X205279523Y-79639342D02*
X205279523Y-79448866D01*
X205279523Y-79448866D02*
X205231904Y-79353628D01*
X205231904Y-79353628D02*
X205184285Y-79306009D01*
X205184285Y-79306009D02*
X205089047Y-79258390D01*
X214044880Y-75565000D02*
X213806785Y-75565000D01*
X213902023Y-75326905D02*
X213806785Y-75565000D01*
X213806785Y-75565000D02*
X213902023Y-75803095D01*
X213616309Y-75422143D02*
X213806785Y-75565000D01*
X213806785Y-75565000D02*
X213616309Y-75707857D01*
X212954519Y-75564999D02*
X213192614Y-75564999D01*
X213097376Y-75803094D02*
X213192614Y-75564999D01*
X213192614Y-75564999D02*
X213097376Y-75326904D01*
X213383090Y-75707856D02*
X213192614Y-75564999D01*
X213192614Y-75564999D02*
X213383090Y-75422142D01*
X152130476Y-65854819D02*
X152130476Y-66569104D01*
X152130476Y-66569104D02*
X152082857Y-66711961D01*
X152082857Y-66711961D02*
X151987619Y-66807200D01*
X151987619Y-66807200D02*
X151844762Y-66854819D01*
X151844762Y-66854819D02*
X151749524Y-66854819D01*
X153130476Y-66854819D02*
X152559048Y-66854819D01*
X152844762Y-66854819D02*
X152844762Y-65854819D01*
X152844762Y-65854819D02*
X152749524Y-65997676D01*
X152749524Y-65997676D02*
X152654286Y-66092914D01*
X152654286Y-66092914D02*
X152559048Y-66140533D01*
X153987619Y-66188152D02*
X153987619Y-66854819D01*
X153749524Y-65807200D02*
X153511429Y-66521485D01*
X153511429Y-66521485D02*
X154130476Y-66521485D01*
X126508094Y-90783580D02*
X126460475Y-90831200D01*
X126460475Y-90831200D02*
X126317618Y-90878819D01*
X126317618Y-90878819D02*
X126222380Y-90878819D01*
X126222380Y-90878819D02*
X126079523Y-90831200D01*
X126079523Y-90831200D02*
X125984285Y-90735961D01*
X125984285Y-90735961D02*
X125936666Y-90640723D01*
X125936666Y-90640723D02*
X125889047Y-90450247D01*
X125889047Y-90450247D02*
X125889047Y-90307390D01*
X125889047Y-90307390D02*
X125936666Y-90116914D01*
X125936666Y-90116914D02*
X125984285Y-90021676D01*
X125984285Y-90021676D02*
X126079523Y-89926438D01*
X126079523Y-89926438D02*
X126222380Y-89878819D01*
X126222380Y-89878819D02*
X126317618Y-89878819D01*
X126317618Y-89878819D02*
X126460475Y-89926438D01*
X126460475Y-89926438D02*
X126508094Y-89974057D01*
X127079523Y-90878819D02*
X126984285Y-90831200D01*
X126984285Y-90831200D02*
X126936666Y-90783580D01*
X126936666Y-90783580D02*
X126889047Y-90688342D01*
X126889047Y-90688342D02*
X126889047Y-90402628D01*
X126889047Y-90402628D02*
X126936666Y-90307390D01*
X126936666Y-90307390D02*
X126984285Y-90259771D01*
X126984285Y-90259771D02*
X127079523Y-90212152D01*
X127079523Y-90212152D02*
X127222380Y-90212152D01*
X127222380Y-90212152D02*
X127317618Y-90259771D01*
X127317618Y-90259771D02*
X127365237Y-90307390D01*
X127365237Y-90307390D02*
X127412856Y-90402628D01*
X127412856Y-90402628D02*
X127412856Y-90688342D01*
X127412856Y-90688342D02*
X127365237Y-90783580D01*
X127365237Y-90783580D02*
X127317618Y-90831200D01*
X127317618Y-90831200D02*
X127222380Y-90878819D01*
X127222380Y-90878819D02*
X127079523Y-90878819D01*
X128269999Y-90212152D02*
X128269999Y-90878819D01*
X127841428Y-90212152D02*
X127841428Y-90735961D01*
X127841428Y-90735961D02*
X127889047Y-90831200D01*
X127889047Y-90831200D02*
X127984285Y-90878819D01*
X127984285Y-90878819D02*
X128127142Y-90878819D01*
X128127142Y-90878819D02*
X128222380Y-90831200D01*
X128222380Y-90831200D02*
X128269999Y-90783580D01*
X128603333Y-90212152D02*
X128984285Y-90212152D01*
X128746190Y-89878819D02*
X128746190Y-90735961D01*
X128746190Y-90735961D02*
X128793809Y-90831200D01*
X128793809Y-90831200D02*
X128889047Y-90878819D01*
X128889047Y-90878819D02*
X128984285Y-90878819D01*
X129222381Y-90878819D02*
X129746190Y-90212152D01*
X129222381Y-90212152D02*
X129746190Y-90878819D01*
X130079524Y-89974057D02*
X130127143Y-89926438D01*
X130127143Y-89926438D02*
X130222381Y-89878819D01*
X130222381Y-89878819D02*
X130460476Y-89878819D01*
X130460476Y-89878819D02*
X130555714Y-89926438D01*
X130555714Y-89926438D02*
X130603333Y-89974057D01*
X130603333Y-89974057D02*
X130650952Y-90069295D01*
X130650952Y-90069295D02*
X130650952Y-90164533D01*
X130650952Y-90164533D02*
X130603333Y-90307390D01*
X130603333Y-90307390D02*
X130031905Y-90878819D01*
X130031905Y-90878819D02*
X130650952Y-90878819D01*
X229108095Y-84290819D02*
X229108095Y-85100342D01*
X229108095Y-85100342D02*
X229155714Y-85195580D01*
X229155714Y-85195580D02*
X229203333Y-85243200D01*
X229203333Y-85243200D02*
X229298571Y-85290819D01*
X229298571Y-85290819D02*
X229489047Y-85290819D01*
X229489047Y-85290819D02*
X229584285Y-85243200D01*
X229584285Y-85243200D02*
X229631904Y-85195580D01*
X229631904Y-85195580D02*
X229679523Y-85100342D01*
X229679523Y-85100342D02*
X229679523Y-84290819D01*
X230060476Y-84290819D02*
X230727142Y-84290819D01*
X230727142Y-84290819D02*
X230298571Y-85290819D01*
X233679999Y-94410880D02*
X233679999Y-94172785D01*
X233918094Y-94268023D02*
X233679999Y-94172785D01*
X233679999Y-94172785D02*
X233441904Y-94268023D01*
X233822856Y-93982309D02*
X233679999Y-94172785D01*
X233679999Y-94172785D02*
X233537142Y-93982309D01*
X233680000Y-93320519D02*
X233680000Y-93558614D01*
X233441905Y-93463376D02*
X233680000Y-93558614D01*
X233680000Y-93558614D02*
X233918095Y-93463376D01*
X233537143Y-93749090D02*
X233680000Y-93558614D01*
X233680000Y-93558614D02*
X233822857Y-93749090D01*
X115006571Y-75892819D02*
X114673238Y-75416628D01*
X114435143Y-75892819D02*
X114435143Y-74892819D01*
X114435143Y-74892819D02*
X114816095Y-74892819D01*
X114816095Y-74892819D02*
X114911333Y-74940438D01*
X114911333Y-74940438D02*
X114958952Y-74988057D01*
X114958952Y-74988057D02*
X115006571Y-75083295D01*
X115006571Y-75083295D02*
X115006571Y-75226152D01*
X115006571Y-75226152D02*
X114958952Y-75321390D01*
X114958952Y-75321390D02*
X114911333Y-75369009D01*
X114911333Y-75369009D02*
X114816095Y-75416628D01*
X114816095Y-75416628D02*
X114435143Y-75416628D01*
X115435143Y-75226152D02*
X115435143Y-76226152D01*
X115435143Y-75273771D02*
X115530381Y-75226152D01*
X115530381Y-75226152D02*
X115720857Y-75226152D01*
X115720857Y-75226152D02*
X115816095Y-75273771D01*
X115816095Y-75273771D02*
X115863714Y-75321390D01*
X115863714Y-75321390D02*
X115911333Y-75416628D01*
X115911333Y-75416628D02*
X115911333Y-75702342D01*
X115911333Y-75702342D02*
X115863714Y-75797580D01*
X115863714Y-75797580D02*
X115816095Y-75845200D01*
X115816095Y-75845200D02*
X115720857Y-75892819D01*
X115720857Y-75892819D02*
X115530381Y-75892819D01*
X115530381Y-75892819D02*
X115435143Y-75845200D01*
X116768476Y-75226152D02*
X116768476Y-76035676D01*
X116768476Y-76035676D02*
X116720857Y-76130914D01*
X116720857Y-76130914D02*
X116673238Y-76178533D01*
X116673238Y-76178533D02*
X116578000Y-76226152D01*
X116578000Y-76226152D02*
X116435143Y-76226152D01*
X116435143Y-76226152D02*
X116339905Y-76178533D01*
X116768476Y-75845200D02*
X116673238Y-75892819D01*
X116673238Y-75892819D02*
X116482762Y-75892819D01*
X116482762Y-75892819D02*
X116387524Y-75845200D01*
X116387524Y-75845200D02*
X116339905Y-75797580D01*
X116339905Y-75797580D02*
X116292286Y-75702342D01*
X116292286Y-75702342D02*
X116292286Y-75416628D01*
X116292286Y-75416628D02*
X116339905Y-75321390D01*
X116339905Y-75321390D02*
X116387524Y-75273771D01*
X116387524Y-75273771D02*
X116482762Y-75226152D01*
X116482762Y-75226152D02*
X116673238Y-75226152D01*
X116673238Y-75226152D02*
X116768476Y-75273771D01*
X117768476Y-75892819D02*
X117197048Y-75892819D01*
X117482762Y-75892819D02*
X117482762Y-74892819D01*
X117482762Y-74892819D02*
X117387524Y-75035676D01*
X117387524Y-75035676D02*
X117292286Y-75130914D01*
X117292286Y-75130914D02*
X117197048Y-75178533D01*
X181371666Y-94979819D02*
X181371666Y-95694104D01*
X181371666Y-95694104D02*
X181324047Y-95836961D01*
X181324047Y-95836961D02*
X181228809Y-95932200D01*
X181228809Y-95932200D02*
X181085952Y-95979819D01*
X181085952Y-95979819D02*
X180990714Y-95979819D01*
X181752619Y-94979819D02*
X182419285Y-94979819D01*
X182419285Y-94979819D02*
X181990714Y-95979819D01*
X110236095Y-75908819D02*
X110236095Y-76718342D01*
X110236095Y-76718342D02*
X110283714Y-76813580D01*
X110283714Y-76813580D02*
X110331333Y-76861200D01*
X110331333Y-76861200D02*
X110426571Y-76908819D01*
X110426571Y-76908819D02*
X110617047Y-76908819D01*
X110617047Y-76908819D02*
X110712285Y-76861200D01*
X110712285Y-76861200D02*
X110759904Y-76813580D01*
X110759904Y-76813580D02*
X110807523Y-76718342D01*
X110807523Y-76718342D02*
X110807523Y-75908819D01*
X111759904Y-75908819D02*
X111283714Y-75908819D01*
X111283714Y-75908819D02*
X111236095Y-76385009D01*
X111236095Y-76385009D02*
X111283714Y-76337390D01*
X111283714Y-76337390D02*
X111378952Y-76289771D01*
X111378952Y-76289771D02*
X111617047Y-76289771D01*
X111617047Y-76289771D02*
X111712285Y-76337390D01*
X111712285Y-76337390D02*
X111759904Y-76385009D01*
X111759904Y-76385009D02*
X111807523Y-76480247D01*
X111807523Y-76480247D02*
X111807523Y-76718342D01*
X111807523Y-76718342D02*
X111759904Y-76813580D01*
X111759904Y-76813580D02*
X111712285Y-76861200D01*
X111712285Y-76861200D02*
X111617047Y-76908819D01*
X111617047Y-76908819D02*
X111378952Y-76908819D01*
X111378952Y-76908819D02*
X111283714Y-76861200D01*
X111283714Y-76861200D02*
X111236095Y-76813580D01*
X103132095Y-80115580D02*
X103084476Y-80163200D01*
X103084476Y-80163200D02*
X102941619Y-80210819D01*
X102941619Y-80210819D02*
X102846381Y-80210819D01*
X102846381Y-80210819D02*
X102703524Y-80163200D01*
X102703524Y-80163200D02*
X102608286Y-80067961D01*
X102608286Y-80067961D02*
X102560667Y-79972723D01*
X102560667Y-79972723D02*
X102513048Y-79782247D01*
X102513048Y-79782247D02*
X102513048Y-79639390D01*
X102513048Y-79639390D02*
X102560667Y-79448914D01*
X102560667Y-79448914D02*
X102608286Y-79353676D01*
X102608286Y-79353676D02*
X102703524Y-79258438D01*
X102703524Y-79258438D02*
X102846381Y-79210819D01*
X102846381Y-79210819D02*
X102941619Y-79210819D01*
X102941619Y-79210819D02*
X103084476Y-79258438D01*
X103084476Y-79258438D02*
X103132095Y-79306057D01*
X103560667Y-80210819D02*
X103560667Y-79544152D01*
X103560667Y-79210819D02*
X103513048Y-79258438D01*
X103513048Y-79258438D02*
X103560667Y-79306057D01*
X103560667Y-79306057D02*
X103608286Y-79258438D01*
X103608286Y-79258438D02*
X103560667Y-79210819D01*
X103560667Y-79210819D02*
X103560667Y-79306057D01*
X104036857Y-79544152D02*
X104036857Y-80210819D01*
X104036857Y-79639390D02*
X104084476Y-79591771D01*
X104084476Y-79591771D02*
X104179714Y-79544152D01*
X104179714Y-79544152D02*
X104322571Y-79544152D01*
X104322571Y-79544152D02*
X104417809Y-79591771D01*
X104417809Y-79591771D02*
X104465428Y-79687009D01*
X104465428Y-79687009D02*
X104465428Y-80210819D01*
X104846381Y-80210819D02*
X105370190Y-79544152D01*
X104846381Y-79544152D02*
X105370190Y-80210819D01*
X106274952Y-80210819D02*
X105703524Y-80210819D01*
X105989238Y-80210819D02*
X105989238Y-79210819D01*
X105989238Y-79210819D02*
X105894000Y-79353676D01*
X105894000Y-79353676D02*
X105798762Y-79448914D01*
X105798762Y-79448914D02*
X105703524Y-79496533D01*
X111077523Y-86560819D02*
X110744190Y-86084628D01*
X110506095Y-86560819D02*
X110506095Y-85560819D01*
X110506095Y-85560819D02*
X110887047Y-85560819D01*
X110887047Y-85560819D02*
X110982285Y-85608438D01*
X110982285Y-85608438D02*
X111029904Y-85656057D01*
X111029904Y-85656057D02*
X111077523Y-85751295D01*
X111077523Y-85751295D02*
X111077523Y-85894152D01*
X111077523Y-85894152D02*
X111029904Y-85989390D01*
X111029904Y-85989390D02*
X110982285Y-86037009D01*
X110982285Y-86037009D02*
X110887047Y-86084628D01*
X110887047Y-86084628D02*
X110506095Y-86084628D01*
X111363238Y-85894152D02*
X111744190Y-85894152D01*
X111506095Y-86560819D02*
X111506095Y-85703676D01*
X111506095Y-85703676D02*
X111553714Y-85608438D01*
X111553714Y-85608438D02*
X111648952Y-85560819D01*
X111648952Y-85560819D02*
X111744190Y-85560819D01*
X112077524Y-86560819D02*
X112077524Y-85560819D01*
X112077524Y-85941771D02*
X112172762Y-85894152D01*
X112172762Y-85894152D02*
X112363238Y-85894152D01*
X112363238Y-85894152D02*
X112458476Y-85941771D01*
X112458476Y-85941771D02*
X112506095Y-85989390D01*
X112506095Y-85989390D02*
X112553714Y-86084628D01*
X112553714Y-86084628D02*
X112553714Y-86370342D01*
X112553714Y-86370342D02*
X112506095Y-86465580D01*
X112506095Y-86465580D02*
X112458476Y-86513200D01*
X112458476Y-86513200D02*
X112363238Y-86560819D01*
X112363238Y-86560819D02*
X112172762Y-86560819D01*
X112172762Y-86560819D02*
X112077524Y-86513200D01*
X112839429Y-85894152D02*
X113220381Y-85894152D01*
X112982286Y-85560819D02*
X112982286Y-86417961D01*
X112982286Y-86417961D02*
X113029905Y-86513200D01*
X113029905Y-86513200D02*
X113125143Y-86560819D01*
X113125143Y-86560819D02*
X113220381Y-86560819D01*
X113506096Y-85656057D02*
X113553715Y-85608438D01*
X113553715Y-85608438D02*
X113648953Y-85560819D01*
X113648953Y-85560819D02*
X113887048Y-85560819D01*
X113887048Y-85560819D02*
X113982286Y-85608438D01*
X113982286Y-85608438D02*
X114029905Y-85656057D01*
X114029905Y-85656057D02*
X114077524Y-85751295D01*
X114077524Y-85751295D02*
X114077524Y-85846533D01*
X114077524Y-85846533D02*
X114029905Y-85989390D01*
X114029905Y-85989390D02*
X113458477Y-86560819D01*
X113458477Y-86560819D02*
X114077524Y-86560819D01*
X192024095Y-75654819D02*
X192024095Y-76464342D01*
X192024095Y-76464342D02*
X192071714Y-76559580D01*
X192071714Y-76559580D02*
X192119333Y-76607200D01*
X192119333Y-76607200D02*
X192214571Y-76654819D01*
X192214571Y-76654819D02*
X192405047Y-76654819D01*
X192405047Y-76654819D02*
X192500285Y-76607200D01*
X192500285Y-76607200D02*
X192547904Y-76559580D01*
X192547904Y-76559580D02*
X192595523Y-76464342D01*
X192595523Y-76464342D02*
X192595523Y-75654819D01*
X192976476Y-75654819D02*
X193595523Y-75654819D01*
X193595523Y-75654819D02*
X193262190Y-76035771D01*
X193262190Y-76035771D02*
X193405047Y-76035771D01*
X193405047Y-76035771D02*
X193500285Y-76083390D01*
X193500285Y-76083390D02*
X193547904Y-76131009D01*
X193547904Y-76131009D02*
X193595523Y-76226247D01*
X193595523Y-76226247D02*
X193595523Y-76464342D01*
X193595523Y-76464342D02*
X193547904Y-76559580D01*
X193547904Y-76559580D02*
X193500285Y-76607200D01*
X193500285Y-76607200D02*
X193405047Y-76654819D01*
X193405047Y-76654819D02*
X193119333Y-76654819D01*
X193119333Y-76654819D02*
X193024095Y-76607200D01*
X193024095Y-76607200D02*
X192976476Y-76559580D01*
X161655476Y-65854819D02*
X161655476Y-66569104D01*
X161655476Y-66569104D02*
X161607857Y-66711961D01*
X161607857Y-66711961D02*
X161512619Y-66807200D01*
X161512619Y-66807200D02*
X161369762Y-66854819D01*
X161369762Y-66854819D02*
X161274524Y-66854819D01*
X162655476Y-66854819D02*
X162084048Y-66854819D01*
X162369762Y-66854819D02*
X162369762Y-65854819D01*
X162369762Y-65854819D02*
X162274524Y-65997676D01*
X162274524Y-65997676D02*
X162179286Y-66092914D01*
X162179286Y-66092914D02*
X162084048Y-66140533D01*
X162988810Y-65854819D02*
X163607857Y-65854819D01*
X163607857Y-65854819D02*
X163274524Y-66235771D01*
X163274524Y-66235771D02*
X163417381Y-66235771D01*
X163417381Y-66235771D02*
X163512619Y-66283390D01*
X163512619Y-66283390D02*
X163560238Y-66331009D01*
X163560238Y-66331009D02*
X163607857Y-66426247D01*
X163607857Y-66426247D02*
X163607857Y-66664342D01*
X163607857Y-66664342D02*
X163560238Y-66759580D01*
X163560238Y-66759580D02*
X163512619Y-66807200D01*
X163512619Y-66807200D02*
X163417381Y-66854819D01*
X163417381Y-66854819D02*
X163131667Y-66854819D01*
X163131667Y-66854819D02*
X163036429Y-66807200D01*
X163036429Y-66807200D02*
X162988810Y-66759580D01*
X110490095Y-93434819D02*
X110490095Y-94244342D01*
X110490095Y-94244342D02*
X110537714Y-94339580D01*
X110537714Y-94339580D02*
X110585333Y-94387200D01*
X110585333Y-94387200D02*
X110680571Y-94434819D01*
X110680571Y-94434819D02*
X110871047Y-94434819D01*
X110871047Y-94434819D02*
X110966285Y-94387200D01*
X110966285Y-94387200D02*
X111013904Y-94339580D01*
X111013904Y-94339580D02*
X111061523Y-94244342D01*
X111061523Y-94244342D02*
X111061523Y-93434819D01*
X111966285Y-93768152D02*
X111966285Y-94434819D01*
X111728190Y-93387200D02*
X111490095Y-94101485D01*
X111490095Y-94101485D02*
X112109142Y-94101485D01*
X109807523Y-69288819D02*
X109474190Y-68812628D01*
X109236095Y-69288819D02*
X109236095Y-68288819D01*
X109236095Y-68288819D02*
X109617047Y-68288819D01*
X109617047Y-68288819D02*
X109712285Y-68336438D01*
X109712285Y-68336438D02*
X109759904Y-68384057D01*
X109759904Y-68384057D02*
X109807523Y-68479295D01*
X109807523Y-68479295D02*
X109807523Y-68622152D01*
X109807523Y-68622152D02*
X109759904Y-68717390D01*
X109759904Y-68717390D02*
X109712285Y-68765009D01*
X109712285Y-68765009D02*
X109617047Y-68812628D01*
X109617047Y-68812628D02*
X109236095Y-68812628D01*
X110093238Y-68622152D02*
X110474190Y-68622152D01*
X110236095Y-69288819D02*
X110236095Y-68431676D01*
X110236095Y-68431676D02*
X110283714Y-68336438D01*
X110283714Y-68336438D02*
X110378952Y-68288819D01*
X110378952Y-68288819D02*
X110474190Y-68288819D01*
X110807524Y-69288819D02*
X110807524Y-68288819D01*
X110807524Y-68669771D02*
X110902762Y-68622152D01*
X110902762Y-68622152D02*
X111093238Y-68622152D01*
X111093238Y-68622152D02*
X111188476Y-68669771D01*
X111188476Y-68669771D02*
X111236095Y-68717390D01*
X111236095Y-68717390D02*
X111283714Y-68812628D01*
X111283714Y-68812628D02*
X111283714Y-69098342D01*
X111283714Y-69098342D02*
X111236095Y-69193580D01*
X111236095Y-69193580D02*
X111188476Y-69241200D01*
X111188476Y-69241200D02*
X111093238Y-69288819D01*
X111093238Y-69288819D02*
X110902762Y-69288819D01*
X110902762Y-69288819D02*
X110807524Y-69241200D01*
X111569429Y-68622152D02*
X111950381Y-68622152D01*
X111712286Y-68288819D02*
X111712286Y-69145961D01*
X111712286Y-69145961D02*
X111759905Y-69241200D01*
X111759905Y-69241200D02*
X111855143Y-69288819D01*
X111855143Y-69288819D02*
X111950381Y-69288819D01*
X112807524Y-69288819D02*
X112236096Y-69288819D01*
X112521810Y-69288819D02*
X112521810Y-68288819D01*
X112521810Y-68288819D02*
X112426572Y-68431676D01*
X112426572Y-68431676D02*
X112331334Y-68526914D01*
X112331334Y-68526914D02*
X112236096Y-68574533D01*
X142605476Y-65854819D02*
X142605476Y-66569104D01*
X142605476Y-66569104D02*
X142557857Y-66711961D01*
X142557857Y-66711961D02*
X142462619Y-66807200D01*
X142462619Y-66807200D02*
X142319762Y-66854819D01*
X142319762Y-66854819D02*
X142224524Y-66854819D01*
X143605476Y-66854819D02*
X143034048Y-66854819D01*
X143319762Y-66854819D02*
X143319762Y-65854819D01*
X143319762Y-65854819D02*
X143224524Y-65997676D01*
X143224524Y-65997676D02*
X143129286Y-66092914D01*
X143129286Y-66092914D02*
X143034048Y-66140533D01*
X144510238Y-65854819D02*
X144034048Y-65854819D01*
X144034048Y-65854819D02*
X143986429Y-66331009D01*
X143986429Y-66331009D02*
X144034048Y-66283390D01*
X144034048Y-66283390D02*
X144129286Y-66235771D01*
X144129286Y-66235771D02*
X144367381Y-66235771D01*
X144367381Y-66235771D02*
X144462619Y-66283390D01*
X144462619Y-66283390D02*
X144510238Y-66331009D01*
X144510238Y-66331009D02*
X144557857Y-66426247D01*
X144557857Y-66426247D02*
X144557857Y-66664342D01*
X144557857Y-66664342D02*
X144510238Y-66759580D01*
X144510238Y-66759580D02*
X144462619Y-66807200D01*
X144462619Y-66807200D02*
X144367381Y-66854819D01*
X144367381Y-66854819D02*
X144129286Y-66854819D01*
X144129286Y-66854819D02*
X144034048Y-66807200D01*
X144034048Y-66807200D02*
X143986429Y-66759580D01*
X123591333Y-101380276D02*
X123286571Y-101380276D01*
X123286571Y-101380276D02*
X123286571Y-100740276D01*
X124139905Y-101380276D02*
X123774190Y-101380276D01*
X123957047Y-101380276D02*
X123957047Y-100740276D01*
X123957047Y-100740276D02*
X123896095Y-100831704D01*
X123896095Y-100831704D02*
X123835143Y-100892657D01*
X123835143Y-100892657D02*
X123774190Y-100923133D01*
X130590009Y-99187333D02*
X130590009Y-99520666D01*
X131113819Y-99520666D02*
X130113819Y-99520666D01*
X130113819Y-99520666D02*
X130113819Y-99044476D01*
X131113819Y-98139714D02*
X131113819Y-98711142D01*
X131113819Y-98425428D02*
X130113819Y-98425428D01*
X130113819Y-98425428D02*
X130256676Y-98520666D01*
X130256676Y-98520666D02*
X130351914Y-98615904D01*
X130351914Y-98615904D02*
X130399533Y-98711142D01*
X140803333Y-95609580D02*
X140755714Y-95657200D01*
X140755714Y-95657200D02*
X140612857Y-95704819D01*
X140612857Y-95704819D02*
X140517619Y-95704819D01*
X140517619Y-95704819D02*
X140374762Y-95657200D01*
X140374762Y-95657200D02*
X140279524Y-95561961D01*
X140279524Y-95561961D02*
X140231905Y-95466723D01*
X140231905Y-95466723D02*
X140184286Y-95276247D01*
X140184286Y-95276247D02*
X140184286Y-95133390D01*
X140184286Y-95133390D02*
X140231905Y-94942914D01*
X140231905Y-94942914D02*
X140279524Y-94847676D01*
X140279524Y-94847676D02*
X140374762Y-94752438D01*
X140374762Y-94752438D02*
X140517619Y-94704819D01*
X140517619Y-94704819D02*
X140612857Y-94704819D01*
X140612857Y-94704819D02*
X140755714Y-94752438D01*
X140755714Y-94752438D02*
X140803333Y-94800057D01*
X141136667Y-94704819D02*
X141755714Y-94704819D01*
X141755714Y-94704819D02*
X141422381Y-95085771D01*
X141422381Y-95085771D02*
X141565238Y-95085771D01*
X141565238Y-95085771D02*
X141660476Y-95133390D01*
X141660476Y-95133390D02*
X141708095Y-95181009D01*
X141708095Y-95181009D02*
X141755714Y-95276247D01*
X141755714Y-95276247D02*
X141755714Y-95514342D01*
X141755714Y-95514342D02*
X141708095Y-95609580D01*
X141708095Y-95609580D02*
X141660476Y-95657200D01*
X141660476Y-95657200D02*
X141565238Y-95704819D01*
X141565238Y-95704819D02*
X141279524Y-95704819D01*
X141279524Y-95704819D02*
X141184286Y-95657200D01*
X141184286Y-95657200D02*
X141136667Y-95609580D01*
X132890476Y-65854819D02*
X132890476Y-66569104D01*
X132890476Y-66569104D02*
X132842857Y-66711961D01*
X132842857Y-66711961D02*
X132747619Y-66807200D01*
X132747619Y-66807200D02*
X132604762Y-66854819D01*
X132604762Y-66854819D02*
X132509524Y-66854819D01*
X133890476Y-66854819D02*
X133319048Y-66854819D01*
X133604762Y-66854819D02*
X133604762Y-65854819D01*
X133604762Y-65854819D02*
X133509524Y-65997676D01*
X133509524Y-65997676D02*
X133414286Y-66092914D01*
X133414286Y-66092914D02*
X133319048Y-66140533D01*
X134747619Y-65854819D02*
X134557143Y-65854819D01*
X134557143Y-65854819D02*
X134461905Y-65902438D01*
X134461905Y-65902438D02*
X134414286Y-65950057D01*
X134414286Y-65950057D02*
X134319048Y-66092914D01*
X134319048Y-66092914D02*
X134271429Y-66283390D01*
X134271429Y-66283390D02*
X134271429Y-66664342D01*
X134271429Y-66664342D02*
X134319048Y-66759580D01*
X134319048Y-66759580D02*
X134366667Y-66807200D01*
X134366667Y-66807200D02*
X134461905Y-66854819D01*
X134461905Y-66854819D02*
X134652381Y-66854819D01*
X134652381Y-66854819D02*
X134747619Y-66807200D01*
X134747619Y-66807200D02*
X134795238Y-66759580D01*
X134795238Y-66759580D02*
X134842857Y-66664342D01*
X134842857Y-66664342D02*
X134842857Y-66426247D01*
X134842857Y-66426247D02*
X134795238Y-66331009D01*
X134795238Y-66331009D02*
X134747619Y-66283390D01*
X134747619Y-66283390D02*
X134652381Y-66235771D01*
X134652381Y-66235771D02*
X134461905Y-66235771D01*
X134461905Y-66235771D02*
X134366667Y-66283390D01*
X134366667Y-66283390D02*
X134319048Y-66331009D01*
X134319048Y-66331009D02*
X134271429Y-66426247D01*
X203708095Y-90259819D02*
X203708095Y-91069342D01*
X203708095Y-91069342D02*
X203755714Y-91164580D01*
X203755714Y-91164580D02*
X203803333Y-91212200D01*
X203803333Y-91212200D02*
X203898571Y-91259819D01*
X203898571Y-91259819D02*
X204089047Y-91259819D01*
X204089047Y-91259819D02*
X204184285Y-91212200D01*
X204184285Y-91212200D02*
X204231904Y-91164580D01*
X204231904Y-91164580D02*
X204279523Y-91069342D01*
X204279523Y-91069342D02*
X204279523Y-90259819D01*
X205184285Y-90259819D02*
X204993809Y-90259819D01*
X204993809Y-90259819D02*
X204898571Y-90307438D01*
X204898571Y-90307438D02*
X204850952Y-90355057D01*
X204850952Y-90355057D02*
X204755714Y-90497914D01*
X204755714Y-90497914D02*
X204708095Y-90688390D01*
X204708095Y-90688390D02*
X204708095Y-91069342D01*
X204708095Y-91069342D02*
X204755714Y-91164580D01*
X204755714Y-91164580D02*
X204803333Y-91212200D01*
X204803333Y-91212200D02*
X204898571Y-91259819D01*
X204898571Y-91259819D02*
X205089047Y-91259819D01*
X205089047Y-91259819D02*
X205184285Y-91212200D01*
X205184285Y-91212200D02*
X205231904Y-91164580D01*
X205231904Y-91164580D02*
X205279523Y-91069342D01*
X205279523Y-91069342D02*
X205279523Y-90831247D01*
X205279523Y-90831247D02*
X205231904Y-90736009D01*
X205231904Y-90736009D02*
X205184285Y-90688390D01*
X205184285Y-90688390D02*
X205089047Y-90640771D01*
X205089047Y-90640771D02*
X204898571Y-90640771D01*
X204898571Y-90640771D02*
X204803333Y-90688390D01*
X204803333Y-90688390D02*
X204755714Y-90736009D01*
X204755714Y-90736009D02*
X204708095Y-90831247D01*
X214044880Y-86995000D02*
X213806785Y-86995000D01*
X213902023Y-86756905D02*
X213806785Y-86995000D01*
X213806785Y-86995000D02*
X213902023Y-87233095D01*
X213616309Y-86852143D02*
X213806785Y-86995000D01*
X213806785Y-86995000D02*
X213616309Y-87137857D01*
X212954519Y-86994999D02*
X213192614Y-86994999D01*
X213097376Y-87233094D02*
X213192614Y-86994999D01*
X213192614Y-86994999D02*
X213097376Y-86756904D01*
X213383090Y-87137856D02*
X213192614Y-86994999D01*
X213192614Y-86994999D02*
X213383090Y-86852142D01*
X118784856Y-75543580D02*
X118737237Y-75591200D01*
X118737237Y-75591200D02*
X118594380Y-75638819D01*
X118594380Y-75638819D02*
X118499142Y-75638819D01*
X118499142Y-75638819D02*
X118356285Y-75591200D01*
X118356285Y-75591200D02*
X118261047Y-75495961D01*
X118261047Y-75495961D02*
X118213428Y-75400723D01*
X118213428Y-75400723D02*
X118165809Y-75210247D01*
X118165809Y-75210247D02*
X118165809Y-75067390D01*
X118165809Y-75067390D02*
X118213428Y-74876914D01*
X118213428Y-74876914D02*
X118261047Y-74781676D01*
X118261047Y-74781676D02*
X118356285Y-74686438D01*
X118356285Y-74686438D02*
X118499142Y-74638819D01*
X118499142Y-74638819D02*
X118594380Y-74638819D01*
X118594380Y-74638819D02*
X118737237Y-74686438D01*
X118737237Y-74686438D02*
X118784856Y-74734057D01*
X119356285Y-75638819D02*
X119261047Y-75591200D01*
X119261047Y-75591200D02*
X119213428Y-75543580D01*
X119213428Y-75543580D02*
X119165809Y-75448342D01*
X119165809Y-75448342D02*
X119165809Y-75162628D01*
X119165809Y-75162628D02*
X119213428Y-75067390D01*
X119213428Y-75067390D02*
X119261047Y-75019771D01*
X119261047Y-75019771D02*
X119356285Y-74972152D01*
X119356285Y-74972152D02*
X119499142Y-74972152D01*
X119499142Y-74972152D02*
X119594380Y-75019771D01*
X119594380Y-75019771D02*
X119641999Y-75067390D01*
X119641999Y-75067390D02*
X119689618Y-75162628D01*
X119689618Y-75162628D02*
X119689618Y-75448342D01*
X119689618Y-75448342D02*
X119641999Y-75543580D01*
X119641999Y-75543580D02*
X119594380Y-75591200D01*
X119594380Y-75591200D02*
X119499142Y-75638819D01*
X119499142Y-75638819D02*
X119356285Y-75638819D01*
X120546761Y-74972152D02*
X120546761Y-75638819D01*
X120118190Y-74972152D02*
X120118190Y-75495961D01*
X120118190Y-75495961D02*
X120165809Y-75591200D01*
X120165809Y-75591200D02*
X120261047Y-75638819D01*
X120261047Y-75638819D02*
X120403904Y-75638819D01*
X120403904Y-75638819D02*
X120499142Y-75591200D01*
X120499142Y-75591200D02*
X120546761Y-75543580D01*
X120880095Y-74972152D02*
X121261047Y-74972152D01*
X121022952Y-74638819D02*
X121022952Y-75495961D01*
X121022952Y-75495961D02*
X121070571Y-75591200D01*
X121070571Y-75591200D02*
X121165809Y-75638819D01*
X121165809Y-75638819D02*
X121261047Y-75638819D01*
X122118190Y-75638819D02*
X121546762Y-75638819D01*
X121832476Y-75638819D02*
X121832476Y-74638819D01*
X121832476Y-74638819D02*
X121737238Y-74781676D01*
X121737238Y-74781676D02*
X121642000Y-74876914D01*
X121642000Y-74876914D02*
X121546762Y-74924533D01*
X143366666Y-94979819D02*
X143366666Y-95694104D01*
X143366666Y-95694104D02*
X143319047Y-95836961D01*
X143319047Y-95836961D02*
X143223809Y-95932200D01*
X143223809Y-95932200D02*
X143080952Y-95979819D01*
X143080952Y-95979819D02*
X142985714Y-95979819D01*
X143747619Y-94979819D02*
X144366666Y-94979819D01*
X144366666Y-94979819D02*
X144033333Y-95360771D01*
X144033333Y-95360771D02*
X144176190Y-95360771D01*
X144176190Y-95360771D02*
X144271428Y-95408390D01*
X144271428Y-95408390D02*
X144319047Y-95456009D01*
X144319047Y-95456009D02*
X144366666Y-95551247D01*
X144366666Y-95551247D02*
X144366666Y-95789342D01*
X144366666Y-95789342D02*
X144319047Y-95884580D01*
X144319047Y-95884580D02*
X144271428Y-95932200D01*
X144271428Y-95932200D02*
X144176190Y-95979819D01*
X144176190Y-95979819D02*
X143890476Y-95979819D01*
X143890476Y-95979819D02*
X143795238Y-95932200D01*
X143795238Y-95932200D02*
X143747619Y-95884580D01*
X180705476Y-65854819D02*
X180705476Y-66569104D01*
X180705476Y-66569104D02*
X180657857Y-66711961D01*
X180657857Y-66711961D02*
X180562619Y-66807200D01*
X180562619Y-66807200D02*
X180419762Y-66854819D01*
X180419762Y-66854819D02*
X180324524Y-66854819D01*
X181705476Y-66854819D02*
X181134048Y-66854819D01*
X181419762Y-66854819D02*
X181419762Y-65854819D01*
X181419762Y-65854819D02*
X181324524Y-65997676D01*
X181324524Y-65997676D02*
X181229286Y-66092914D01*
X181229286Y-66092914D02*
X181134048Y-66140533D01*
X182657857Y-66854819D02*
X182086429Y-66854819D01*
X182372143Y-66854819D02*
X182372143Y-65854819D01*
X182372143Y-65854819D02*
X182276905Y-65997676D01*
X182276905Y-65997676D02*
X182181667Y-66092914D01*
X182181667Y-66092914D02*
X182086429Y-66140533D01*
X162321666Y-94979819D02*
X162321666Y-95694104D01*
X162321666Y-95694104D02*
X162274047Y-95836961D01*
X162274047Y-95836961D02*
X162178809Y-95932200D01*
X162178809Y-95932200D02*
X162035952Y-95979819D01*
X162035952Y-95979819D02*
X161940714Y-95979819D01*
X163274047Y-94979819D02*
X162797857Y-94979819D01*
X162797857Y-94979819D02*
X162750238Y-95456009D01*
X162750238Y-95456009D02*
X162797857Y-95408390D01*
X162797857Y-95408390D02*
X162893095Y-95360771D01*
X162893095Y-95360771D02*
X163131190Y-95360771D01*
X163131190Y-95360771D02*
X163226428Y-95408390D01*
X163226428Y-95408390D02*
X163274047Y-95456009D01*
X163274047Y-95456009D02*
X163321666Y-95551247D01*
X163321666Y-95551247D02*
X163321666Y-95789342D01*
X163321666Y-95789342D02*
X163274047Y-95884580D01*
X163274047Y-95884580D02*
X163226428Y-95932200D01*
X163226428Y-95932200D02*
X163131190Y-95979819D01*
X163131190Y-95979819D02*
X162893095Y-95979819D01*
X162893095Y-95979819D02*
X162797857Y-95932200D01*
X162797857Y-95932200D02*
X162750238Y-95884580D01*
D13*
X96030000Y-85469000D02*
X99550000Y-85469000D01*
X93855000Y-82289000D02*
X93855000Y-80779000D01*
X101725000Y-82289000D02*
X101725000Y-80779000D01*
X96030000Y-77599000D02*
X99550000Y-77599000D01*
D14*
X165530000Y-94816000D02*
X166780000Y-94816000D01*
X165830000Y-94516000D02*
X170550000Y-94516000D01*
X167140000Y-94516000D02*
X167140000Y-93906000D01*
X168440000Y-94516000D02*
X168440000Y-93906000D01*
X170550000Y-94516000D02*
X170550000Y-84396000D01*
X166440000Y-93906000D02*
X169940000Y-93906000D01*
X169940000Y-93906000D02*
X169940000Y-85006000D01*
X165530000Y-93566000D02*
X165530000Y-94816000D01*
X165630000Y-93056000D02*
X165830000Y-93056000D01*
X165630000Y-92756000D02*
X165630000Y-93056000D01*
X165730000Y-92756000D02*
X165730000Y-93056000D01*
X165830000Y-92756000D02*
X165630000Y-92756000D01*
X165830000Y-91956000D02*
X166440000Y-91956000D01*
X166440000Y-91956000D02*
X166440000Y-93906000D01*
X169440000Y-91556000D02*
X169440000Y-91356000D01*
X169940000Y-91556000D02*
X169440000Y-91556000D01*
X169940000Y-91456000D02*
X169440000Y-91456000D01*
X169440000Y-91356000D02*
X169940000Y-91356000D01*
X169440000Y-89556000D02*
X169440000Y-89356000D01*
X169940000Y-89556000D02*
X169440000Y-89556000D01*
X169940000Y-89456000D02*
X169440000Y-89456000D01*
X169440000Y-89356000D02*
X169940000Y-89356000D01*
X169440000Y-87556000D02*
X169440000Y-87356000D01*
X169940000Y-87556000D02*
X169440000Y-87556000D01*
X169940000Y-87456000D02*
X169440000Y-87456000D01*
X169440000Y-87356000D02*
X169940000Y-87356000D01*
X166440000Y-86956000D02*
X165830000Y-86956000D01*
X166440000Y-85006000D02*
X166440000Y-86956000D01*
X169940000Y-85006000D02*
X166440000Y-85006000D01*
X165830000Y-84396000D02*
X165830000Y-94516000D01*
X167140000Y-84396000D02*
X167140000Y-85006000D01*
X168440000Y-84396000D02*
X168440000Y-85006000D01*
X170550000Y-84396000D02*
X165830000Y-84396000D01*
D13*
X116419000Y-77010000D02*
X116419000Y-77140000D01*
X116419000Y-77010000D02*
X122419000Y-77010000D01*
X116419000Y-83010000D02*
X116419000Y-82880000D01*
X116419000Y-83010000D02*
X122419000Y-83010000D01*
X122419000Y-77010000D02*
X122419000Y-77140000D01*
X122419000Y-83010000D02*
X122419000Y-82880000D01*
X96030000Y-94867000D02*
X99550000Y-94867000D01*
X93855000Y-91687000D02*
X93855000Y-90177000D01*
X101725000Y-91687000D02*
X101725000Y-90177000D01*
X96030000Y-86997000D02*
X99550000Y-86997000D01*
D15*
X112801400Y-99783900D02*
X113644836Y-99783900D01*
X114701164Y-99783900D02*
X115544600Y-99783900D01*
X112801400Y-95542100D02*
X112801400Y-99783900D01*
X112801400Y-95542100D02*
X113644836Y-95542100D01*
X114701164Y-95542100D02*
X115544600Y-95542100D01*
X115544600Y-95542100D02*
X115544600Y-99783900D01*
X125882400Y-78740000D02*
G75*
G03*
X125730000Y-78740000I-76200J0D01*
G01*
X125730000Y-78740000D02*
G75*
G03*
X125882400Y-78740000I76200J0D01*
G01*
X114236500Y-89671950D02*
X114236500Y-89398050D01*
X113093500Y-89398050D02*
X113093500Y-89671950D01*
X113640500Y-72526950D02*
X113640500Y-72253050D01*
X112497500Y-72253050D02*
X112497500Y-72526950D01*
D14*
X186870000Y-96315000D02*
X186870000Y-97565000D01*
X187170000Y-96615000D02*
X187170000Y-101335000D01*
X187170000Y-97925000D02*
X187780000Y-97925000D01*
X187170000Y-99225000D02*
X187780000Y-99225000D01*
X187170000Y-101335000D02*
X195290000Y-101335000D01*
X187780000Y-97225000D02*
X187780000Y-100725000D01*
X187780000Y-100725000D02*
X194680000Y-100725000D01*
X188120000Y-96315000D02*
X186870000Y-96315000D01*
X188630000Y-96415000D02*
X188630000Y-96615000D01*
X188930000Y-96415000D02*
X188630000Y-96415000D01*
X188930000Y-96515000D02*
X188630000Y-96515000D01*
X188930000Y-96615000D02*
X188930000Y-96415000D01*
X189730000Y-96615000D02*
X189730000Y-97225000D01*
X189730000Y-97225000D02*
X187780000Y-97225000D01*
X190130000Y-100225000D02*
X190330000Y-100225000D01*
X190130000Y-100725000D02*
X190130000Y-100225000D01*
X190230000Y-100725000D02*
X190230000Y-100225000D01*
X190330000Y-100225000D02*
X190330000Y-100725000D01*
X192130000Y-100225000D02*
X192330000Y-100225000D01*
X192130000Y-100725000D02*
X192130000Y-100225000D01*
X192230000Y-100725000D02*
X192230000Y-100225000D01*
X192330000Y-100225000D02*
X192330000Y-100725000D01*
X192730000Y-97225000D02*
X192730000Y-96615000D01*
X194680000Y-97225000D02*
X192730000Y-97225000D01*
X194680000Y-100725000D02*
X194680000Y-97225000D01*
X195290000Y-96615000D02*
X187170000Y-96615000D01*
X195290000Y-97925000D02*
X194680000Y-97925000D01*
X195290000Y-99225000D02*
X194680000Y-99225000D01*
X195290000Y-101335000D02*
X195290000Y-96615000D01*
X167630000Y-67190000D02*
X167630000Y-68440000D01*
X167930000Y-67490000D02*
X167930000Y-72210000D01*
X167930000Y-68800000D02*
X168540000Y-68800000D01*
X167930000Y-70100000D02*
X168540000Y-70100000D01*
X167930000Y-72210000D02*
X176050000Y-72210000D01*
X168540000Y-68100000D02*
X168540000Y-71600000D01*
X168540000Y-71600000D02*
X175440000Y-71600000D01*
X168880000Y-67190000D02*
X167630000Y-67190000D01*
X169390000Y-67290000D02*
X169390000Y-67490000D01*
X169690000Y-67290000D02*
X169390000Y-67290000D01*
X169690000Y-67390000D02*
X169390000Y-67390000D01*
X169690000Y-67490000D02*
X169690000Y-67290000D01*
X170490000Y-67490000D02*
X170490000Y-68100000D01*
X170490000Y-68100000D02*
X168540000Y-68100000D01*
X170890000Y-71100000D02*
X171090000Y-71100000D01*
X170890000Y-71600000D02*
X170890000Y-71100000D01*
X170990000Y-71600000D02*
X170990000Y-71100000D01*
X171090000Y-71100000D02*
X171090000Y-71600000D01*
X172890000Y-71100000D02*
X173090000Y-71100000D01*
X172890000Y-71600000D02*
X172890000Y-71100000D01*
X172990000Y-71600000D02*
X172990000Y-71100000D01*
X173090000Y-71100000D02*
X173090000Y-71600000D01*
X173490000Y-68100000D02*
X173490000Y-67490000D01*
X175440000Y-68100000D02*
X173490000Y-68100000D01*
X175440000Y-71600000D02*
X175440000Y-68100000D01*
X176050000Y-67490000D02*
X167930000Y-67490000D01*
X176050000Y-68800000D02*
X175440000Y-68800000D01*
X176050000Y-70100000D02*
X175440000Y-70100000D01*
X176050000Y-72210000D02*
X176050000Y-67490000D01*
X174090000Y-75184000D02*
X174160000Y-75184000D01*
X174090000Y-75184000D02*
G75*
G03*
X171350000Y-75184000I-1370000J0D01*
G01*
X171350000Y-75184000D02*
G75*
G03*
X174090000Y-75184000I1370000J0D01*
G01*
D15*
X110121700Y-95298050D02*
X110121700Y-92915950D01*
X108064300Y-92915950D02*
X108064300Y-95298050D01*
X109169200Y-97002600D02*
G75*
G03*
X109016800Y-97002600I-76200J0D01*
G01*
X109016800Y-97002600D02*
G75*
G03*
X109169200Y-97002600I76200J0D01*
G01*
X122492400Y-74510900D02*
X123335836Y-74510900D01*
X124392164Y-74510900D02*
X125235600Y-74510900D01*
X122492400Y-70269100D02*
X122492400Y-74510900D01*
X122492400Y-70269100D02*
X123335836Y-70269100D01*
X124392164Y-70269100D02*
X125235600Y-70269100D01*
X125235600Y-70269100D02*
X125235600Y-74510900D01*
D14*
X148770000Y-96315000D02*
X148770000Y-97565000D01*
X149070000Y-96615000D02*
X149070000Y-101335000D01*
X149070000Y-97925000D02*
X149680000Y-97925000D01*
X149070000Y-99225000D02*
X149680000Y-99225000D01*
X149070000Y-101335000D02*
X157190000Y-101335000D01*
X149680000Y-97225000D02*
X149680000Y-100725000D01*
X149680000Y-100725000D02*
X156580000Y-100725000D01*
X150020000Y-96315000D02*
X148770000Y-96315000D01*
X150530000Y-96415000D02*
X150530000Y-96615000D01*
X150830000Y-96415000D02*
X150530000Y-96415000D01*
X150830000Y-96515000D02*
X150530000Y-96515000D01*
X150830000Y-96615000D02*
X150830000Y-96415000D01*
X151630000Y-96615000D02*
X151630000Y-97225000D01*
X151630000Y-97225000D02*
X149680000Y-97225000D01*
X152030000Y-100225000D02*
X152230000Y-100225000D01*
X152030000Y-100725000D02*
X152030000Y-100225000D01*
X152130000Y-100725000D02*
X152130000Y-100225000D01*
X152230000Y-100225000D02*
X152230000Y-100725000D01*
X154030000Y-100225000D02*
X154230000Y-100225000D01*
X154030000Y-100725000D02*
X154030000Y-100225000D01*
X154130000Y-100725000D02*
X154130000Y-100225000D01*
X154230000Y-100225000D02*
X154230000Y-100725000D01*
X154630000Y-97225000D02*
X154630000Y-96615000D01*
X156580000Y-97225000D02*
X154630000Y-97225000D01*
X156580000Y-100725000D02*
X156580000Y-97225000D01*
X157190000Y-96615000D02*
X149070000Y-96615000D01*
X157190000Y-97925000D02*
X156580000Y-97925000D01*
X157190000Y-99225000D02*
X156580000Y-99225000D01*
X157190000Y-101335000D02*
X157190000Y-96615000D01*
D15*
X162849560Y-86233000D02*
X162128569Y-86233000D01*
X160451431Y-86233000D02*
X159588569Y-86233000D01*
X157911431Y-86233000D02*
X157048569Y-86233000D01*
X155371431Y-86233000D02*
X154508569Y-86233000D01*
X152831431Y-86233000D02*
X151968569Y-86233000D01*
X150291431Y-86233000D02*
X149428569Y-86233000D01*
X147751431Y-86233000D02*
X146888569Y-86233000D01*
X145097500Y-86233000D02*
X145097500Y-92837000D01*
X164782500Y-92837000D02*
X164782500Y-86506165D01*
X162128569Y-92837000D02*
X162991431Y-92837000D01*
X159588569Y-92837000D02*
X160451431Y-92837000D01*
X157048569Y-92837000D02*
X157911431Y-92837000D01*
X154508569Y-92837000D02*
X155371431Y-92837000D01*
X151968569Y-92837000D02*
X152831431Y-92837000D01*
X149428569Y-92837000D02*
X150291431Y-92837000D01*
X146888569Y-92837000D02*
X147751431Y-92837000D01*
X164782500Y-89230200D02*
G75*
G03*
X164782500Y-89839800I0J-304800D01*
G01*
X115265200Y-92379800D02*
G75*
G03*
X115112800Y-92379800I-76200J0D01*
G01*
X115112800Y-92379800D02*
G75*
G03*
X115265200Y-92379800I76200J0D01*
G01*
X223266000Y-94678500D02*
X223266000Y-93436440D01*
X223266000Y-91475560D02*
X223266000Y-90754569D01*
X223266000Y-89077431D02*
X223266000Y-88214569D01*
X223266000Y-86537431D02*
X223266000Y-85674569D01*
X223266000Y-83997431D02*
X223266000Y-83134569D01*
X223266000Y-81457431D02*
X223266000Y-80594569D01*
X223266000Y-78917431D02*
X223266000Y-78054569D01*
X223266000Y-76377431D02*
X223266000Y-74993500D01*
X223266000Y-74993500D02*
X216662000Y-74993500D01*
X216662000Y-94678500D02*
X223266000Y-94678500D01*
X216662000Y-93294569D02*
X216662000Y-94678500D01*
X216662000Y-90754569D02*
X216662000Y-91617431D01*
X216662000Y-88214569D02*
X216662000Y-89077431D01*
X216662000Y-85674569D02*
X216662000Y-86537431D01*
X216662000Y-83134569D02*
X216662000Y-83997431D01*
X216662000Y-80594569D02*
X216662000Y-81457431D01*
X216662000Y-78054569D02*
X216662000Y-78917431D01*
X216662000Y-74993500D02*
X216662000Y-76377431D01*
X220268800Y-94678500D02*
G75*
G03*
X219659200Y-94678500I-304800J0D01*
G01*
X104673400Y-96227900D02*
X105516836Y-96227900D01*
X106573164Y-96227900D02*
X107416600Y-96227900D01*
X104673400Y-91986100D02*
X104673400Y-96227900D01*
X104673400Y-91986100D02*
X105516836Y-91986100D01*
X106573164Y-91986100D02*
X107416600Y-91986100D01*
X107416600Y-91986100D02*
X107416600Y-96227900D01*
D13*
X132139000Y-74704000D02*
X131259000Y-74704000D01*
X131259000Y-73124000D02*
X132139000Y-73124000D01*
D15*
X121234200Y-92341700D02*
G75*
G03*
X121081800Y-92341700I-76200J0D01*
G01*
X121081800Y-92341700D02*
G75*
G03*
X121234200Y-92341700I76200J0D01*
G01*
D14*
X132789600Y-78714600D02*
X132859600Y-78714600D01*
X132789600Y-78714600D02*
G75*
G03*
X130049600Y-78714600I-1370000J0D01*
G01*
X130049600Y-78714600D02*
G75*
G03*
X132789600Y-78714600I1370000J0D01*
G01*
X186680000Y-67190000D02*
X186680000Y-68440000D01*
X186980000Y-67490000D02*
X186980000Y-72210000D01*
X186980000Y-68800000D02*
X187590000Y-68800000D01*
X186980000Y-70100000D02*
X187590000Y-70100000D01*
X186980000Y-72210000D02*
X195100000Y-72210000D01*
X187590000Y-68100000D02*
X187590000Y-71600000D01*
X187590000Y-71600000D02*
X194490000Y-71600000D01*
X187930000Y-67190000D02*
X186680000Y-67190000D01*
X188440000Y-67290000D02*
X188440000Y-67490000D01*
X188740000Y-67290000D02*
X188440000Y-67290000D01*
X188740000Y-67390000D02*
X188440000Y-67390000D01*
X188740000Y-67490000D02*
X188740000Y-67290000D01*
X189540000Y-67490000D02*
X189540000Y-68100000D01*
X189540000Y-68100000D02*
X187590000Y-68100000D01*
X189940000Y-71100000D02*
X190140000Y-71100000D01*
X189940000Y-71600000D02*
X189940000Y-71100000D01*
X190040000Y-71600000D02*
X190040000Y-71100000D01*
X190140000Y-71100000D02*
X190140000Y-71600000D01*
X191940000Y-71100000D02*
X192140000Y-71100000D01*
X191940000Y-71600000D02*
X191940000Y-71100000D01*
X192040000Y-71600000D02*
X192040000Y-71100000D01*
X192140000Y-71100000D02*
X192140000Y-71600000D01*
X192540000Y-68100000D02*
X192540000Y-67490000D01*
X194490000Y-68100000D02*
X192540000Y-68100000D01*
X194490000Y-71600000D02*
X194490000Y-68100000D01*
X195100000Y-67490000D02*
X186980000Y-67490000D01*
X195100000Y-68800000D02*
X194490000Y-68800000D01*
X195100000Y-70100000D02*
X194490000Y-70100000D01*
X195100000Y-72210000D02*
X195100000Y-67490000D01*
X123849000Y-101195000D02*
X126849000Y-101195000D01*
X123849000Y-101195000D02*
X123849000Y-93095000D01*
X126849000Y-93095000D02*
X126849000Y-101195000D01*
X126849000Y-93095000D02*
X123849000Y-93095000D01*
X144375000Y-74700000D02*
X141375000Y-74700000D01*
X144375000Y-74700000D02*
X144375000Y-82800000D01*
X141375000Y-82800000D02*
X141375000Y-74700000D01*
X141375000Y-82800000D02*
X144375000Y-82800000D01*
D16*
X140161000Y-87364600D02*
X140161000Y-87364600D01*
X140261000Y-87364600D02*
X140261000Y-87364600D01*
X140261000Y-87364600D02*
G75*
G03*
X140161000Y-87364600I-50000J0D01*
G01*
X140161000Y-87364600D02*
G75*
G03*
X140261000Y-87364600I50000J0D01*
G01*
D14*
X167820000Y-96315000D02*
X167820000Y-97565000D01*
X168120000Y-96615000D02*
X168120000Y-101335000D01*
X168120000Y-97925000D02*
X168730000Y-97925000D01*
X168120000Y-99225000D02*
X168730000Y-99225000D01*
X168120000Y-101335000D02*
X176240000Y-101335000D01*
X168730000Y-97225000D02*
X168730000Y-100725000D01*
X168730000Y-100725000D02*
X175630000Y-100725000D01*
X169070000Y-96315000D02*
X167820000Y-96315000D01*
X169580000Y-96415000D02*
X169580000Y-96615000D01*
X169880000Y-96415000D02*
X169580000Y-96415000D01*
X169880000Y-96515000D02*
X169580000Y-96515000D01*
X169880000Y-96615000D02*
X169880000Y-96415000D01*
X170680000Y-96615000D02*
X170680000Y-97225000D01*
X170680000Y-97225000D02*
X168730000Y-97225000D01*
X171080000Y-100225000D02*
X171280000Y-100225000D01*
X171080000Y-100725000D02*
X171080000Y-100225000D01*
X171180000Y-100725000D02*
X171180000Y-100225000D01*
X171280000Y-100225000D02*
X171280000Y-100725000D01*
X173080000Y-100225000D02*
X173280000Y-100225000D01*
X173080000Y-100725000D02*
X173080000Y-100225000D01*
X173180000Y-100725000D02*
X173180000Y-100225000D01*
X173280000Y-100225000D02*
X173280000Y-100725000D01*
X173680000Y-97225000D02*
X173680000Y-96615000D01*
X175630000Y-97225000D02*
X173680000Y-97225000D01*
X175630000Y-100725000D02*
X175630000Y-97225000D01*
X176240000Y-96615000D02*
X168120000Y-96615000D01*
X176240000Y-97925000D02*
X175630000Y-97925000D01*
X176240000Y-99225000D02*
X175630000Y-99225000D01*
X176240000Y-101335000D02*
X176240000Y-96615000D01*
X170808000Y-75396000D02*
X169558000Y-75396000D01*
X170508000Y-75696000D02*
X165788000Y-75696000D01*
X169198000Y-75696000D02*
X169198000Y-76306000D01*
X167898000Y-75696000D02*
X167898000Y-76306000D01*
X165788000Y-75696000D02*
X165788000Y-81816000D01*
X169898000Y-76306000D02*
X166398000Y-76306000D01*
X166398000Y-76306000D02*
X166398000Y-81206000D01*
X170808000Y-76646000D02*
X170808000Y-75396000D01*
X170708000Y-77156000D02*
X170508000Y-77156000D01*
X170708000Y-77456000D02*
X170708000Y-77156000D01*
X170608000Y-77456000D02*
X170608000Y-77156000D01*
X170508000Y-77456000D02*
X170708000Y-77456000D01*
X170508000Y-78256000D02*
X169898000Y-78256000D01*
X169898000Y-78256000D02*
X169898000Y-76306000D01*
X166898000Y-78656000D02*
X166898000Y-78856000D01*
X166398000Y-78656000D02*
X166898000Y-78656000D01*
X166398000Y-78756000D02*
X166898000Y-78756000D01*
X166898000Y-78856000D02*
X166398000Y-78856000D01*
X169898000Y-79256000D02*
X170508000Y-79256000D01*
X169898000Y-81206000D02*
X169898000Y-79256000D01*
X166398000Y-81206000D02*
X169898000Y-81206000D01*
X170508000Y-81816000D02*
X170508000Y-75696000D01*
X169198000Y-81816000D02*
X169198000Y-81206000D01*
X167898000Y-81816000D02*
X167898000Y-81206000D01*
X165788000Y-81816000D02*
X170508000Y-81816000D01*
X134490000Y-89719000D02*
X134490000Y-90385000D01*
X134490000Y-89719000D02*
X139830000Y-89719000D01*
X134490000Y-92495000D02*
X134490000Y-93161000D01*
X134490000Y-93161000D02*
X139830000Y-93161000D01*
X139830000Y-89719000D02*
X139830000Y-90385000D01*
X139830000Y-92495000D02*
X139830000Y-93161000D01*
D15*
X109017700Y-78153050D02*
X109017700Y-75770950D01*
X106960300Y-75770950D02*
X106960300Y-78153050D01*
X108065200Y-79857600D02*
G75*
G03*
X107912800Y-79857600I-76200J0D01*
G01*
X107912800Y-79857600D02*
G75*
G03*
X108065200Y-79857600I76200J0D01*
G01*
X147030440Y-82677000D02*
X147751431Y-82677000D01*
X149428569Y-82677000D02*
X150291431Y-82677000D01*
X151968569Y-82677000D02*
X152831431Y-82677000D01*
X154508569Y-82677000D02*
X155371431Y-82677000D01*
X157048569Y-82677000D02*
X157911431Y-82677000D01*
X159588569Y-82677000D02*
X160451431Y-82677000D01*
X162128569Y-82677000D02*
X162991431Y-82677000D01*
X164782500Y-82677000D02*
X164782500Y-76073000D01*
X145097500Y-76073000D02*
X145097500Y-82403835D01*
X147751431Y-76073000D02*
X146888569Y-76073000D01*
X150291431Y-76073000D02*
X149428569Y-76073000D01*
X152831431Y-76073000D02*
X151968569Y-76073000D01*
X155371431Y-76073000D02*
X154508569Y-76073000D01*
X157911431Y-76073000D02*
X157048569Y-76073000D01*
X160451431Y-76073000D02*
X159588569Y-76073000D01*
X162991431Y-76073000D02*
X162128569Y-76073000D01*
X145097500Y-79679800D02*
G75*
G03*
X145097500Y-79070200I0J304800D01*
G01*
X109995600Y-71005700D02*
X109995600Y-72504300D01*
X107252400Y-71005700D02*
X107252400Y-72504300D01*
X109995600Y-71005700D02*
G75*
G03*
X108937575Y-69670426I-1371598J1D01*
G01*
X108310423Y-69670426D02*
G75*
G03*
X107252400Y-71005701I313578J-1335275D01*
G01*
X108937575Y-73839574D02*
G75*
G03*
X109995600Y-72504300I-313575J1335274D01*
G01*
X107252400Y-72504300D02*
G75*
G03*
X108310425Y-73839574I1371598J-1D01*
G01*
X111226600Y-88277700D02*
X111226600Y-89776300D01*
X108483400Y-88277700D02*
X108483400Y-89776300D01*
X111226600Y-88277700D02*
G75*
G03*
X110168575Y-86942426I-1371598J1D01*
G01*
X109541423Y-86942426D02*
G75*
G03*
X108483400Y-88277701I313578J-1335275D01*
G01*
X110168575Y-91111574D02*
G75*
G03*
X111226600Y-89776300I-313575J1335274D01*
G01*
X108483400Y-89776300D02*
G75*
G03*
X109541425Y-91111574I1371598J-1D01*
G01*
X112332400Y-82745900D02*
X113175836Y-82745900D01*
X114232164Y-82745900D02*
X115075600Y-82745900D01*
X112332400Y-78504100D02*
X112332400Y-82745900D01*
X112332400Y-78504100D02*
X113175836Y-78504100D01*
X114232164Y-78504100D02*
X115075600Y-78504100D01*
X115075600Y-78504100D02*
X115075600Y-82745900D01*
X115050200Y-74434700D02*
G75*
G03*
X114897800Y-74434700I-76200J0D01*
G01*
X114897800Y-74434700D02*
G75*
G03*
X115050200Y-74434700I76200J0D01*
G01*
D14*
X130101000Y-96315000D02*
X130101000Y-97565000D01*
X130401000Y-96615000D02*
X130401000Y-101335000D01*
X130401000Y-97925000D02*
X131011000Y-97925000D01*
X130401000Y-99225000D02*
X131011000Y-99225000D01*
X130401000Y-101335000D02*
X138521000Y-101335000D01*
X131011000Y-97225000D02*
X131011000Y-100725000D01*
X131011000Y-100725000D02*
X137911000Y-100725000D01*
X131351000Y-96315000D02*
X130101000Y-96315000D01*
X131861000Y-96415000D02*
X131861000Y-96615000D01*
X132161000Y-96415000D02*
X131861000Y-96415000D01*
X132161000Y-96515000D02*
X131861000Y-96515000D01*
X132161000Y-96615000D02*
X132161000Y-96415000D01*
X132961000Y-96615000D02*
X132961000Y-97225000D01*
X132961000Y-97225000D02*
X131011000Y-97225000D01*
X133361000Y-100225000D02*
X133561000Y-100225000D01*
X133361000Y-100725000D02*
X133361000Y-100225000D01*
X133461000Y-100725000D02*
X133461000Y-100225000D01*
X133561000Y-100225000D02*
X133561000Y-100725000D01*
X135361000Y-100225000D02*
X135561000Y-100225000D01*
X135361000Y-100725000D02*
X135361000Y-100225000D01*
X135461000Y-100725000D02*
X135461000Y-100225000D01*
X135561000Y-100225000D02*
X135561000Y-100725000D01*
X135961000Y-97225000D02*
X135961000Y-96615000D01*
X137911000Y-97225000D02*
X135961000Y-97225000D01*
X137911000Y-100725000D02*
X137911000Y-97225000D01*
X138521000Y-96615000D02*
X130401000Y-96615000D01*
X138521000Y-97925000D02*
X137911000Y-97925000D01*
X138521000Y-99225000D02*
X137911000Y-99225000D01*
X138521000Y-101335000D02*
X138521000Y-96615000D01*
X117729000Y-90397000D02*
X117729000Y-90467000D01*
X119099000Y-89027000D02*
G75*
G03*
X116359000Y-89027000I-1370000J0D01*
G01*
X116359000Y-89027000D02*
G75*
G03*
X119099000Y-89027000I1370000J0D01*
G01*
X125754000Y-75414000D02*
X128754000Y-75414000D01*
X125754000Y-75414000D02*
X125754000Y-67314000D01*
X128754000Y-67314000D02*
X128754000Y-75414000D01*
X128754000Y-67314000D02*
X125754000Y-67314000D01*
D15*
X214312500Y-76073000D02*
X213070440Y-76073000D01*
X211109560Y-76073000D02*
X210388569Y-76073000D01*
X208711431Y-76073000D02*
X207848569Y-76073000D01*
X206171431Y-76073000D02*
X205308569Y-76073000D01*
X203631431Y-76073000D02*
X202768569Y-76073000D01*
X201091431Y-76073000D02*
X200228569Y-76073000D01*
X198551431Y-76073000D02*
X197688569Y-76073000D01*
X196011431Y-76073000D02*
X194627500Y-76073000D01*
X194627500Y-76073000D02*
X194627500Y-82677000D01*
X214312500Y-82677000D02*
X214312500Y-76073000D01*
X212928569Y-82677000D02*
X214312500Y-82677000D01*
X210388569Y-82677000D02*
X211251431Y-82677000D01*
X207848569Y-82677000D02*
X208711431Y-82677000D01*
X205308569Y-82677000D02*
X206171431Y-82677000D01*
X202768569Y-82677000D02*
X203631431Y-82677000D01*
X200228569Y-82677000D02*
X201091431Y-82677000D01*
X197688569Y-82677000D02*
X198551431Y-82677000D01*
X194627500Y-82677000D02*
X196011431Y-82677000D01*
X214312500Y-79070200D02*
G75*
G03*
X214312500Y-79679800I0J-304800D01*
G01*
D14*
X148580000Y-67190000D02*
X148580000Y-68440000D01*
X148880000Y-67490000D02*
X148880000Y-72210000D01*
X148880000Y-68800000D02*
X149490000Y-68800000D01*
X148880000Y-70100000D02*
X149490000Y-70100000D01*
X148880000Y-72210000D02*
X157000000Y-72210000D01*
X149490000Y-68100000D02*
X149490000Y-71600000D01*
X149490000Y-71600000D02*
X156390000Y-71600000D01*
X149830000Y-67190000D02*
X148580000Y-67190000D01*
X150340000Y-67290000D02*
X150340000Y-67490000D01*
X150640000Y-67290000D02*
X150340000Y-67290000D01*
X150640000Y-67390000D02*
X150340000Y-67390000D01*
X150640000Y-67490000D02*
X150640000Y-67290000D01*
X151440000Y-67490000D02*
X151440000Y-68100000D01*
X151440000Y-68100000D02*
X149490000Y-68100000D01*
X151840000Y-71100000D02*
X152040000Y-71100000D01*
X151840000Y-71600000D02*
X151840000Y-71100000D01*
X151940000Y-71600000D02*
X151940000Y-71100000D01*
X152040000Y-71100000D02*
X152040000Y-71600000D01*
X153840000Y-71100000D02*
X154040000Y-71100000D01*
X153840000Y-71600000D02*
X153840000Y-71100000D01*
X153940000Y-71600000D02*
X153940000Y-71100000D01*
X154040000Y-71100000D02*
X154040000Y-71600000D01*
X154440000Y-68100000D02*
X154440000Y-67490000D01*
X156390000Y-68100000D02*
X154440000Y-68100000D01*
X156390000Y-71600000D02*
X156390000Y-68100000D01*
X157000000Y-67490000D02*
X148880000Y-67490000D01*
X157000000Y-68800000D02*
X156390000Y-68800000D01*
X157000000Y-70100000D02*
X156390000Y-70100000D01*
X157000000Y-72210000D02*
X157000000Y-67490000D01*
D15*
X122834400Y-92163900D02*
X123677836Y-92163900D01*
X124734164Y-92163900D02*
X125577600Y-92163900D01*
X122834400Y-87922100D02*
X122834400Y-92163900D01*
X122834400Y-87922100D02*
X123677836Y-87922100D01*
X124734164Y-87922100D02*
X125577600Y-87922100D01*
X125577600Y-87922100D02*
X125577600Y-92163900D01*
X233172000Y-94678500D02*
X233172000Y-93436440D01*
X233172000Y-91475560D02*
X233172000Y-90754569D01*
X233172000Y-89077431D02*
X233172000Y-88214569D01*
X233172000Y-86537431D02*
X233172000Y-85674569D01*
X233172000Y-83997431D02*
X233172000Y-83134569D01*
X233172000Y-81457431D02*
X233172000Y-80594569D01*
X233172000Y-78917431D02*
X233172000Y-78054569D01*
X233172000Y-76377431D02*
X233172000Y-74993500D01*
X233172000Y-74993500D02*
X226568000Y-74993500D01*
X226568000Y-94678500D02*
X233172000Y-94678500D01*
X226568000Y-93294569D02*
X226568000Y-94678500D01*
X226568000Y-90754569D02*
X226568000Y-91617431D01*
X226568000Y-88214569D02*
X226568000Y-89077431D01*
X226568000Y-85674569D02*
X226568000Y-86537431D01*
X226568000Y-83134569D02*
X226568000Y-83997431D01*
X226568000Y-80594569D02*
X226568000Y-81457431D01*
X226568000Y-78054569D02*
X226568000Y-78917431D01*
X226568000Y-74993500D02*
X226568000Y-76377431D01*
X230174800Y-94678500D02*
G75*
G03*
X229565200Y-94678500I-304800J0D01*
G01*
D14*
X117514000Y-72080000D02*
X117514000Y-72150000D01*
X118884000Y-70710000D02*
G75*
G03*
X116144000Y-70710000I-1370000J0D01*
G01*
X116144000Y-70710000D02*
G75*
G03*
X118884000Y-70710000I1370000J0D01*
G01*
X177345000Y-96315000D02*
X177345000Y-97565000D01*
X177645000Y-96615000D02*
X177645000Y-101335000D01*
X177645000Y-97925000D02*
X178255000Y-97925000D01*
X177645000Y-99225000D02*
X178255000Y-99225000D01*
X177645000Y-101335000D02*
X185765000Y-101335000D01*
X178255000Y-97225000D02*
X178255000Y-100725000D01*
X178255000Y-100725000D02*
X185155000Y-100725000D01*
X178595000Y-96315000D02*
X177345000Y-96315000D01*
X179105000Y-96415000D02*
X179105000Y-96615000D01*
X179405000Y-96415000D02*
X179105000Y-96415000D01*
X179405000Y-96515000D02*
X179105000Y-96515000D01*
X179405000Y-96615000D02*
X179405000Y-96415000D01*
X180205000Y-96615000D02*
X180205000Y-97225000D01*
X180205000Y-97225000D02*
X178255000Y-97225000D01*
X180605000Y-100225000D02*
X180805000Y-100225000D01*
X180605000Y-100725000D02*
X180605000Y-100225000D01*
X180705000Y-100725000D02*
X180705000Y-100225000D01*
X180805000Y-100225000D02*
X180805000Y-100725000D01*
X182605000Y-100225000D02*
X182805000Y-100225000D01*
X182605000Y-100725000D02*
X182605000Y-100225000D01*
X182705000Y-100725000D02*
X182705000Y-100225000D01*
X182805000Y-100225000D02*
X182805000Y-100725000D01*
X183205000Y-97225000D02*
X183205000Y-96615000D01*
X185155000Y-97225000D02*
X183205000Y-97225000D01*
X185155000Y-100725000D02*
X185155000Y-97225000D01*
X185765000Y-96615000D02*
X177645000Y-96615000D01*
X185765000Y-97925000D02*
X185155000Y-97925000D01*
X185765000Y-99225000D02*
X185155000Y-99225000D01*
X185765000Y-101335000D02*
X185765000Y-96615000D01*
D17*
X114129000Y-74609996D02*
X114129000Y-75209997D01*
X113929001Y-74609996D02*
X114129000Y-74609996D01*
X111929000Y-74609996D02*
X112128999Y-74609996D01*
X111929000Y-74609996D02*
X111929000Y-74809995D01*
X114129000Y-77010001D02*
X114129000Y-77210000D01*
X111929000Y-77010001D02*
X111929000Y-77210000D01*
X113929001Y-77210000D02*
X114129000Y-77210000D01*
X111929000Y-77210000D02*
X112128999Y-77210000D01*
D15*
X103442400Y-78955900D02*
X104285836Y-78955900D01*
X105342164Y-78955900D02*
X106185600Y-78955900D01*
X103442400Y-74714100D02*
X103442400Y-78955900D01*
X103442400Y-74714100D02*
X104285836Y-74714100D01*
X105342164Y-74714100D02*
X106185600Y-74714100D01*
X106185600Y-74714100D02*
X106185600Y-78955900D01*
D13*
X192341500Y-77229500D02*
X192341500Y-95009500D01*
X171386500Y-77229500D02*
X192341500Y-77229500D01*
X192341500Y-95009500D02*
X171386500Y-95009500D01*
X171386500Y-95009500D02*
X171386500Y-77229500D01*
D17*
X189647500Y-76619500D02*
G75*
G03*
X189447500Y-76619500I-100000J0D01*
G01*
X189447500Y-76619500D02*
G75*
G03*
X189647500Y-76619500I100000J0D01*
G01*
D14*
X158105000Y-67190000D02*
X158105000Y-68440000D01*
X158405000Y-67490000D02*
X158405000Y-72210000D01*
X158405000Y-68800000D02*
X159015000Y-68800000D01*
X158405000Y-70100000D02*
X159015000Y-70100000D01*
X158405000Y-72210000D02*
X166525000Y-72210000D01*
X159015000Y-68100000D02*
X159015000Y-71600000D01*
X159015000Y-71600000D02*
X165915000Y-71600000D01*
X159355000Y-67190000D02*
X158105000Y-67190000D01*
X159865000Y-67290000D02*
X159865000Y-67490000D01*
X160165000Y-67290000D02*
X159865000Y-67290000D01*
X160165000Y-67390000D02*
X159865000Y-67390000D01*
X160165000Y-67490000D02*
X160165000Y-67290000D01*
X160965000Y-67490000D02*
X160965000Y-68100000D01*
X160965000Y-68100000D02*
X159015000Y-68100000D01*
X161365000Y-71100000D02*
X161565000Y-71100000D01*
X161365000Y-71600000D02*
X161365000Y-71100000D01*
X161465000Y-71600000D02*
X161465000Y-71100000D01*
X161565000Y-71100000D02*
X161565000Y-71600000D01*
X163365000Y-71100000D02*
X163565000Y-71100000D01*
X163365000Y-71600000D02*
X163365000Y-71100000D01*
X163465000Y-71600000D02*
X163465000Y-71100000D01*
X163565000Y-71100000D02*
X163565000Y-71600000D01*
X163965000Y-68100000D02*
X163965000Y-67490000D01*
X165915000Y-68100000D02*
X163965000Y-68100000D01*
X165915000Y-71600000D02*
X165915000Y-68100000D01*
X166525000Y-67490000D02*
X158405000Y-67490000D01*
X166525000Y-68800000D02*
X165915000Y-68800000D01*
X166525000Y-70100000D02*
X165915000Y-70100000D01*
X166525000Y-72210000D02*
X166525000Y-67490000D01*
D17*
X114502999Y-92356999D02*
X114502999Y-92957000D01*
X114303000Y-92356999D02*
X114502999Y-92356999D01*
X112302999Y-92356999D02*
X112502998Y-92356999D01*
X112302999Y-92356999D02*
X112302999Y-92556998D01*
X114502999Y-94757004D02*
X114502999Y-94957003D01*
X112302999Y-94757004D02*
X112302999Y-94957003D01*
X114303000Y-94957003D02*
X114502999Y-94957003D01*
X112302999Y-94957003D02*
X112502998Y-94957003D01*
D14*
X139055000Y-67190000D02*
X139055000Y-68440000D01*
X139355000Y-67490000D02*
X139355000Y-72210000D01*
X139355000Y-68800000D02*
X139965000Y-68800000D01*
X139355000Y-70100000D02*
X139965000Y-70100000D01*
X139355000Y-72210000D02*
X147475000Y-72210000D01*
X139965000Y-68100000D02*
X139965000Y-71600000D01*
X139965000Y-71600000D02*
X146865000Y-71600000D01*
X140305000Y-67190000D02*
X139055000Y-67190000D01*
X140815000Y-67290000D02*
X140815000Y-67490000D01*
X141115000Y-67290000D02*
X140815000Y-67290000D01*
X141115000Y-67390000D02*
X140815000Y-67390000D01*
X141115000Y-67490000D02*
X141115000Y-67290000D01*
X141915000Y-67490000D02*
X141915000Y-68100000D01*
X141915000Y-68100000D02*
X139965000Y-68100000D01*
X142315000Y-71100000D02*
X142515000Y-71100000D01*
X142315000Y-71600000D02*
X142315000Y-71100000D01*
X142415000Y-71600000D02*
X142415000Y-71100000D01*
X142515000Y-71100000D02*
X142515000Y-71600000D01*
X144315000Y-71100000D02*
X144515000Y-71100000D01*
X144315000Y-71600000D02*
X144315000Y-71100000D01*
X144415000Y-71600000D02*
X144415000Y-71100000D01*
X144515000Y-71100000D02*
X144515000Y-71600000D01*
X144915000Y-68100000D02*
X144915000Y-67490000D01*
X146865000Y-68100000D02*
X144915000Y-68100000D01*
X146865000Y-71600000D02*
X146865000Y-68100000D01*
X147475000Y-67490000D02*
X139355000Y-67490000D01*
X147475000Y-68800000D02*
X146865000Y-68800000D01*
X147475000Y-70100000D02*
X146865000Y-70100000D01*
X147475000Y-72210000D02*
X147475000Y-67490000D01*
D13*
X116761000Y-95171000D02*
X116761000Y-95301000D01*
X116761000Y-95171000D02*
X122761000Y-95171000D01*
X116761000Y-101171000D02*
X116761000Y-101041000D01*
X116761000Y-101171000D02*
X122761000Y-101171000D01*
X122761000Y-95171000D02*
X122761000Y-95301000D01*
X122761000Y-101171000D02*
X122761000Y-101041000D01*
X129314000Y-98239000D02*
X129314000Y-99119000D01*
X127734000Y-99119000D02*
X127734000Y-98239000D01*
D15*
X141503400Y-94195900D02*
X142346836Y-94195900D01*
X143403164Y-94195900D02*
X144246600Y-94195900D01*
X141503400Y-89954100D02*
X141503400Y-94195900D01*
X141503400Y-89954100D02*
X142346836Y-89954100D01*
X143403164Y-89954100D02*
X144246600Y-89954100D01*
X144246600Y-89954100D02*
X144246600Y-94195900D01*
D14*
X129340000Y-67190000D02*
X129340000Y-68440000D01*
X129640000Y-67490000D02*
X129640000Y-72210000D01*
X129640000Y-68800000D02*
X130250000Y-68800000D01*
X129640000Y-70100000D02*
X130250000Y-70100000D01*
X129640000Y-72210000D02*
X137760000Y-72210000D01*
X130250000Y-68100000D02*
X130250000Y-71600000D01*
X130250000Y-71600000D02*
X137150000Y-71600000D01*
X130590000Y-67190000D02*
X129340000Y-67190000D01*
X131100000Y-67290000D02*
X131100000Y-67490000D01*
X131400000Y-67290000D02*
X131100000Y-67290000D01*
X131400000Y-67390000D02*
X131100000Y-67390000D01*
X131400000Y-67490000D02*
X131400000Y-67290000D01*
X132200000Y-67490000D02*
X132200000Y-68100000D01*
X132200000Y-68100000D02*
X130250000Y-68100000D01*
X132600000Y-71100000D02*
X132800000Y-71100000D01*
X132600000Y-71600000D02*
X132600000Y-71100000D01*
X132700000Y-71600000D02*
X132700000Y-71100000D01*
X132800000Y-71100000D02*
X132800000Y-71600000D01*
X134600000Y-71100000D02*
X134800000Y-71100000D01*
X134600000Y-71600000D02*
X134600000Y-71100000D01*
X134700000Y-71600000D02*
X134700000Y-71100000D01*
X134800000Y-71100000D02*
X134800000Y-71600000D01*
X135200000Y-68100000D02*
X135200000Y-67490000D01*
X137150000Y-68100000D02*
X135200000Y-68100000D01*
X137150000Y-71600000D02*
X137150000Y-68100000D01*
X137760000Y-67490000D02*
X129640000Y-67490000D01*
X137760000Y-68800000D02*
X137150000Y-68800000D01*
X137760000Y-70100000D02*
X137150000Y-70100000D01*
X137760000Y-72210000D02*
X137760000Y-67490000D01*
D15*
X214312500Y-87503000D02*
X213070440Y-87503000D01*
X211109560Y-87503000D02*
X210388569Y-87503000D01*
X208711431Y-87503000D02*
X207848569Y-87503000D01*
X206171431Y-87503000D02*
X205308569Y-87503000D01*
X203631431Y-87503000D02*
X202768569Y-87503000D01*
X201091431Y-87503000D02*
X200228569Y-87503000D01*
X198551431Y-87503000D02*
X197688569Y-87503000D01*
X196011431Y-87503000D02*
X194627500Y-87503000D01*
X194627500Y-87503000D02*
X194627500Y-94107000D01*
X214312500Y-94107000D02*
X214312500Y-87503000D01*
X212928569Y-94107000D02*
X214312500Y-94107000D01*
X210388569Y-94107000D02*
X211251431Y-94107000D01*
X207848569Y-94107000D02*
X208711431Y-94107000D01*
X205308569Y-94107000D02*
X206171431Y-94107000D01*
X202768569Y-94107000D02*
X203631431Y-94107000D01*
X200228569Y-94107000D02*
X201091431Y-94107000D01*
X197688569Y-94107000D02*
X198551431Y-94107000D01*
X194627500Y-94107000D02*
X196011431Y-94107000D01*
X214312500Y-90500200D02*
G75*
G03*
X214312500Y-91109800I0J-304800D01*
G01*
X120765200Y-74688700D02*
G75*
G03*
X120612800Y-74688700I-76200J0D01*
G01*
X120612800Y-74688700D02*
G75*
G03*
X120765200Y-74688700I76200J0D01*
G01*
D14*
X139340000Y-96315000D02*
X139340000Y-97565000D01*
X139640000Y-96615000D02*
X139640000Y-101335000D01*
X139640000Y-97925000D02*
X140250000Y-97925000D01*
X139640000Y-99225000D02*
X140250000Y-99225000D01*
X139640000Y-101335000D02*
X147760000Y-101335000D01*
X140250000Y-97225000D02*
X140250000Y-100725000D01*
X140250000Y-100725000D02*
X147150000Y-100725000D01*
X140590000Y-96315000D02*
X139340000Y-96315000D01*
X141100000Y-96415000D02*
X141100000Y-96615000D01*
X141400000Y-96415000D02*
X141100000Y-96415000D01*
X141400000Y-96515000D02*
X141100000Y-96515000D01*
X141400000Y-96615000D02*
X141400000Y-96415000D01*
X142200000Y-96615000D02*
X142200000Y-97225000D01*
X142200000Y-97225000D02*
X140250000Y-97225000D01*
X142600000Y-100225000D02*
X142800000Y-100225000D01*
X142600000Y-100725000D02*
X142600000Y-100225000D01*
X142700000Y-100725000D02*
X142700000Y-100225000D01*
X142800000Y-100225000D02*
X142800000Y-100725000D01*
X144600000Y-100225000D02*
X144800000Y-100225000D01*
X144600000Y-100725000D02*
X144600000Y-100225000D01*
X144700000Y-100725000D02*
X144700000Y-100225000D01*
X144800000Y-100225000D02*
X144800000Y-100725000D01*
X145200000Y-97225000D02*
X145200000Y-96615000D01*
X147150000Y-97225000D02*
X145200000Y-97225000D01*
X147150000Y-100725000D02*
X147150000Y-97225000D01*
X147760000Y-96615000D02*
X139640000Y-96615000D01*
X147760000Y-97925000D02*
X147150000Y-97925000D01*
X147760000Y-99225000D02*
X147150000Y-99225000D01*
X147760000Y-101335000D02*
X147760000Y-96615000D01*
X177155000Y-67190000D02*
X177155000Y-68440000D01*
X177455000Y-67490000D02*
X177455000Y-72210000D01*
X177455000Y-68800000D02*
X178065000Y-68800000D01*
X177455000Y-70100000D02*
X178065000Y-70100000D01*
X177455000Y-72210000D02*
X185575000Y-72210000D01*
X178065000Y-68100000D02*
X178065000Y-71600000D01*
X178065000Y-71600000D02*
X184965000Y-71600000D01*
X178405000Y-67190000D02*
X177155000Y-67190000D01*
X178915000Y-67290000D02*
X178915000Y-67490000D01*
X179215000Y-67290000D02*
X178915000Y-67290000D01*
X179215000Y-67390000D02*
X178915000Y-67390000D01*
X179215000Y-67490000D02*
X179215000Y-67290000D01*
X180015000Y-67490000D02*
X180015000Y-68100000D01*
X180015000Y-68100000D02*
X178065000Y-68100000D01*
X180415000Y-71100000D02*
X180615000Y-71100000D01*
X180415000Y-71600000D02*
X180415000Y-71100000D01*
X180515000Y-71600000D02*
X180515000Y-71100000D01*
X180615000Y-71100000D02*
X180615000Y-71600000D01*
X182415000Y-71100000D02*
X182615000Y-71100000D01*
X182415000Y-71600000D02*
X182415000Y-71100000D01*
X182515000Y-71600000D02*
X182515000Y-71100000D01*
X182615000Y-71100000D02*
X182615000Y-71600000D01*
X183015000Y-68100000D02*
X183015000Y-67490000D01*
X184965000Y-68100000D02*
X183015000Y-68100000D01*
X184965000Y-71600000D02*
X184965000Y-68100000D01*
X185575000Y-67490000D02*
X177455000Y-67490000D01*
X185575000Y-68800000D02*
X184965000Y-68800000D01*
X185575000Y-70100000D02*
X184965000Y-70100000D01*
X185575000Y-72210000D02*
X185575000Y-67490000D01*
X158295000Y-96315000D02*
X158295000Y-97565000D01*
X158595000Y-96615000D02*
X158595000Y-101335000D01*
X158595000Y-97925000D02*
X159205000Y-97925000D01*
X158595000Y-99225000D02*
X159205000Y-99225000D01*
X158595000Y-101335000D02*
X166715000Y-101335000D01*
X159205000Y-97225000D02*
X159205000Y-100725000D01*
X159205000Y-100725000D02*
X166105000Y-100725000D01*
X159545000Y-96315000D02*
X158295000Y-96315000D01*
X160055000Y-96415000D02*
X160055000Y-96615000D01*
X160355000Y-96415000D02*
X160055000Y-96415000D01*
X160355000Y-96515000D02*
X160055000Y-96515000D01*
X160355000Y-96615000D02*
X160355000Y-96415000D01*
X161155000Y-96615000D02*
X161155000Y-97225000D01*
X161155000Y-97225000D02*
X159205000Y-97225000D01*
X161555000Y-100225000D02*
X161755000Y-100225000D01*
X161555000Y-100725000D02*
X161555000Y-100225000D01*
X161655000Y-100725000D02*
X161655000Y-100225000D01*
X161755000Y-100225000D02*
X161755000Y-100725000D01*
X163555000Y-100225000D02*
X163755000Y-100225000D01*
X163555000Y-100725000D02*
X163555000Y-100225000D01*
X163655000Y-100725000D02*
X163655000Y-100225000D01*
X163755000Y-100225000D02*
X163755000Y-100725000D01*
X164155000Y-97225000D02*
X164155000Y-96615000D01*
X166105000Y-97225000D02*
X164155000Y-97225000D01*
X166105000Y-100725000D02*
X166105000Y-97225000D01*
X166715000Y-96615000D02*
X158595000Y-96615000D01*
X166715000Y-97925000D02*
X166105000Y-97925000D01*
X166715000Y-99225000D02*
X166105000Y-99225000D01*
X166715000Y-101335000D02*
X166715000Y-96615000D01*
%LPC*%
D18*
X101295000Y-84034000D03*
X101295000Y-79034000D03*
X94285000Y-79034000D03*
X94285000Y-84034000D03*
D19*
X167640000Y-92456000D03*
D20*
X167640000Y-90456000D03*
X167640000Y-88456000D03*
X167640000Y-86456000D03*
D21*
X117319000Y-80010000D03*
X121519000Y-80010000D03*
D18*
X101295000Y-93432000D03*
X101295000Y-88432000D03*
X94285000Y-88432000D03*
X94285000Y-93432000D03*
D22*
X114173000Y-98913000D03*
X114173000Y-96413000D03*
D23*
X127177800Y-78740000D03*
X129032000Y-78740000D03*
D24*
X113665000Y-90284300D03*
X113665000Y-88785700D03*
X113069000Y-73139300D03*
X113069000Y-71640700D03*
D25*
X189230000Y-98425000D03*
D26*
X191230000Y-98425000D03*
X193230000Y-98425000D03*
D25*
X169990000Y-69300000D03*
D26*
X171990000Y-69300000D03*
X173990000Y-69300000D03*
D27*
X172720000Y-75184000D03*
D28*
X175260000Y-75184000D03*
D29*
X109093000Y-95885000D03*
X109093000Y-92329000D03*
D30*
X136581801Y-78714600D03*
X137687399Y-78714600D03*
D22*
X123864000Y-73640000D03*
X123864000Y-71140000D03*
D25*
X151130000Y-98425000D03*
D26*
X153130000Y-98425000D03*
X155130000Y-98425000D03*
D31*
X231140000Y-69596000D03*
D32*
X163830000Y-85725000D03*
D33*
X161290000Y-85725000D03*
X158750000Y-85725000D03*
X156210000Y-85725000D03*
X153670000Y-85725000D03*
X151130000Y-85725000D03*
X148590000Y-85725000D03*
X146050000Y-85725000D03*
X146050000Y-93345000D03*
X148590000Y-93345000D03*
X151130000Y-93345000D03*
X153670000Y-93345000D03*
X156210000Y-93345000D03*
X158750000Y-93345000D03*
X161290000Y-93345000D03*
X163830000Y-93345000D03*
D34*
X115189000Y-91059000D03*
X115189000Y-89611200D03*
D32*
X223774000Y-92456000D03*
D33*
X223774000Y-89916000D03*
X223774000Y-87376000D03*
X223774000Y-84836000D03*
X223774000Y-82296000D03*
X223774000Y-79756000D03*
X223774000Y-77216000D03*
X216154000Y-77216000D03*
X216154000Y-79756000D03*
X216154000Y-82296000D03*
X216154000Y-84836000D03*
X216154000Y-87376000D03*
X216154000Y-89916000D03*
X216154000Y-92456000D03*
D22*
X106045000Y-95357000D03*
X106045000Y-92857000D03*
D35*
X133169000Y-73914000D03*
X130229000Y-73914000D03*
D36*
X121158000Y-90970100D03*
X121158000Y-89115900D03*
D27*
X131419600Y-78714600D03*
D28*
X133959600Y-78714600D03*
D25*
X189040000Y-69300000D03*
D26*
X191040000Y-69300000D03*
X193040000Y-69300000D03*
D37*
X125349000Y-99695000D03*
D38*
X125349000Y-94615000D03*
D39*
X142875000Y-76200000D03*
D38*
X142875000Y-81280000D03*
D31*
X96266000Y-99314000D03*
D40*
X138430000Y-87364600D03*
D41*
X131580000Y-85064600D03*
D40*
X138430000Y-82764600D03*
D25*
X170180000Y-98425000D03*
D26*
X172180000Y-98425000D03*
X174180000Y-98425000D03*
D42*
X168698000Y-77756000D03*
D20*
X168698000Y-79756000D03*
D27*
X134660000Y-91440000D03*
X139660000Y-91440000D03*
D29*
X107989000Y-78740000D03*
X107989000Y-75184000D03*
D32*
X146050000Y-83185000D03*
D33*
X148590000Y-83185000D03*
X151130000Y-83185000D03*
X153670000Y-83185000D03*
X156210000Y-83185000D03*
X158750000Y-83185000D03*
X161290000Y-83185000D03*
X163830000Y-83185000D03*
X163830000Y-75565000D03*
X161290000Y-75565000D03*
X158750000Y-75565000D03*
X156210000Y-75565000D03*
X153670000Y-75565000D03*
X151130000Y-75565000D03*
X148590000Y-75565000D03*
X146050000Y-75565000D03*
D43*
X108624000Y-70505000D03*
X108624000Y-73005000D03*
X109855000Y-87777000D03*
X109855000Y-90277000D03*
D22*
X113704000Y-81875000D03*
X113704000Y-79375000D03*
D31*
X231394000Y-99568000D03*
D34*
X114974000Y-73113900D03*
X114974000Y-71666100D03*
D25*
X132461000Y-98425000D03*
D26*
X134461000Y-98425000D03*
X136461000Y-98425000D03*
D27*
X117729000Y-89027000D03*
D28*
X117729000Y-91567000D03*
D37*
X127254000Y-73914000D03*
D38*
X127254000Y-68834000D03*
D32*
X212090000Y-75565000D03*
D33*
X209550000Y-75565000D03*
X207010000Y-75565000D03*
X204470000Y-75565000D03*
X201930000Y-75565000D03*
X199390000Y-75565000D03*
X196850000Y-75565000D03*
X196850000Y-83185000D03*
X199390000Y-83185000D03*
X201930000Y-83185000D03*
X204470000Y-83185000D03*
X207010000Y-83185000D03*
X209550000Y-83185000D03*
X212090000Y-83185000D03*
D25*
X150940000Y-69300000D03*
D26*
X152940000Y-69300000D03*
X154940000Y-69300000D03*
D22*
X124206000Y-91293000D03*
X124206000Y-88793000D03*
D32*
X233680000Y-92456000D03*
D33*
X233680000Y-89916000D03*
X233680000Y-87376000D03*
X233680000Y-84836000D03*
X233680000Y-82296000D03*
X233680000Y-79756000D03*
X233680000Y-77216000D03*
X226060000Y-77216000D03*
X226060000Y-79756000D03*
X226060000Y-82296000D03*
X226060000Y-84836000D03*
X226060000Y-87376000D03*
X226060000Y-89916000D03*
X226060000Y-92456000D03*
D27*
X117514000Y-70710000D03*
D28*
X117514000Y-73250000D03*
D25*
X179705000Y-98425000D03*
D26*
X181705000Y-98425000D03*
X183705000Y-98425000D03*
D44*
X113529002Y-74985001D03*
X113029003Y-74985001D03*
X112529001Y-74985001D03*
D45*
X112579001Y-75659998D03*
D44*
X112529001Y-76835000D03*
X113029003Y-76835000D03*
X113529002Y-76835000D03*
D46*
X113328999Y-76159998D03*
D47*
X113704000Y-75659998D03*
D22*
X104814000Y-78085000D03*
X104814000Y-75585000D03*
D48*
X112141000Y-88937402D03*
X112141000Y-90043000D03*
D49*
X189420500Y-78499500D03*
D50*
X186880500Y-78499500D03*
X184340500Y-78499500D03*
X181800500Y-78499500D03*
X179260500Y-78499500D03*
X176720500Y-78499500D03*
X174180500Y-78499500D03*
X174180500Y-93739500D03*
X176720500Y-93739500D03*
X179260500Y-93739500D03*
X181800500Y-93739500D03*
X184340500Y-93739500D03*
X186880500Y-93739500D03*
X189420500Y-93739500D03*
D31*
X96266000Y-69342000D03*
D25*
X160465000Y-69300000D03*
D26*
X162465000Y-69300000D03*
X164465000Y-69300000D03*
D44*
X113903001Y-92732004D03*
X113403002Y-92732004D03*
X112903000Y-92732004D03*
D45*
X112953000Y-93407001D03*
D44*
X112903000Y-94582003D03*
X113403002Y-94582003D03*
X113903001Y-94582003D03*
D46*
X113702998Y-93907001D03*
D47*
X114077999Y-93407001D03*
D48*
X111164000Y-71919402D03*
X111164000Y-73025000D03*
D25*
X141415000Y-69300000D03*
D26*
X143415000Y-69300000D03*
X145415000Y-69300000D03*
D21*
X117661000Y-98171000D03*
X121861000Y-98171000D03*
D51*
X128524000Y-97209000D03*
X128524000Y-100149000D03*
D22*
X142875000Y-93325000D03*
X142875000Y-90825000D03*
D25*
X131700000Y-69300000D03*
D26*
X133700000Y-69300000D03*
X135700000Y-69300000D03*
D32*
X212090000Y-86995000D03*
D33*
X209550000Y-86995000D03*
X207010000Y-86995000D03*
X204470000Y-86995000D03*
X201930000Y-86995000D03*
X199390000Y-86995000D03*
X196850000Y-86995000D03*
X196850000Y-94615000D03*
X199390000Y-94615000D03*
X201930000Y-94615000D03*
X204470000Y-94615000D03*
X207010000Y-94615000D03*
X209550000Y-94615000D03*
X212090000Y-94615000D03*
D36*
X120689000Y-73317100D03*
X120689000Y-71462900D03*
D25*
X141700000Y-98425000D03*
D26*
X143700000Y-98425000D03*
X145700000Y-98425000D03*
D25*
X179515000Y-69300000D03*
D26*
X181515000Y-69300000D03*
X183515000Y-69300000D03*
D25*
X160655000Y-98425000D03*
D26*
X162655000Y-98425000D03*
X164655000Y-98425000D03*
D22*
X142875000Y-85765000D03*
X142875000Y-88265000D03*
%LPD*%
M02*
