G04 #@! TF.GenerationSoftware,KiCad,Pcbnew,7.0.10*
G04 #@! TF.CreationDate,2025-02-28T21:12:07-05:00*
G04 #@! TF.ProjectId,SDP25_MainPCB_V2,53445032-355f-44d6-9169-6e5043425f56,2.1*
G04 #@! TF.SameCoordinates,Original*
G04 #@! TF.FileFunction,Soldermask,Top*
G04 #@! TF.FilePolarity,Negative*
%FSLAX46Y46*%
G04 Gerber Fmt 4.6, Leading zero omitted, Abs format (unit mm)*
G04 Created by KiCad (PCBNEW 7.0.10) date 2025-02-28 21:12:07*
%MOMM*%
%LPD*%
G01*
G04 APERTURE LIST*
G04 Aperture macros list*
%AMRoundRect*
0 Rectangle with rounded corners*
0 $1 Rounding radius*
0 $2 $3 $4 $5 $6 $7 $8 $9 X,Y pos of 4 corners*
0 Add a 4 corners polygon primitive as box body*
4,1,4,$2,$3,$4,$5,$6,$7,$8,$9,$2,$3,0*
0 Add four circle primitives for the rounded corners*
1,1,$1+$1,$2,$3*
1,1,$1+$1,$4,$5*
1,1,$1+$1,$6,$7*
1,1,$1+$1,$8,$9*
0 Add four rect primitives between the rounded corners*
20,1,$1+$1,$2,$3,$4,$5,0*
20,1,$1+$1,$4,$5,$6,$7,0*
20,1,$1+$1,$6,$7,$8,$9,0*
20,1,$1+$1,$8,$9,$2,$3,0*%
G04 Aperture macros list end*
%ADD10C,3.054000*%
%ADD11RoundRect,0.250000X0.625000X-0.350000X0.625000X0.350000X-0.625000X0.350000X-0.625000X-0.350000X0*%
%ADD12O,1.750000X1.200000*%
%ADD13RoundRect,0.102000X-0.950000X-2.550000X0.950000X-2.550000X0.950000X2.550000X-0.950000X2.550000X0*%
%ADD14C,1.371600*%
%ADD15R,1.066800X1.447800*%
%ADD16R,0.889000X0.609600*%
%ADD17RoundRect,0.250000X-0.350000X-0.625000X0.350000X-0.625000X0.350000X0.625000X-0.350000X0.625000X0*%
%ADD18O,1.200000X1.750000*%
%ADD19C,1.600000*%
%ADD20O,1.600000X1.600000*%
%ADD21R,1.803400X0.558800*%
%ADD22R,0.655599X0.499999*%
%ADD23C,7.000000*%
%ADD24R,1.295400X1.295400*%
%ADD25C,1.295400*%
%ADD26R,0.889000X0.965200*%
%ADD27RoundRect,0.102000X0.585000X0.900000X-0.585000X0.900000X-0.585000X-0.900000X0.585000X-0.900000X0*%
%ADD28R,1.447800X1.066800*%
%ADD29RoundRect,0.650000X0.650000X-0.650000X0.650000X0.650000X-0.650000X0.650000X-0.650000X-0.650000X0*%
%ADD30C,2.600000*%
%ADD31RoundRect,0.650000X-0.650000X0.650000X-0.650000X-0.650000X0.650000X-0.650000X0.650000X0.650000X0*%
%ADD32R,2.500000X1.500000*%
%ADD33R,7.000000X7.000000*%
%ADD34RoundRect,0.250000X-0.625000X0.350000X-0.625000X-0.350000X0.625000X-0.350000X0.625000X0.350000X0*%
%ADD35C,1.117600*%
%ADD36R,0.249999X0.549999*%
%ADD37R,1.000000X0.249999*%
%ADD38R,1.300000X0.249999*%
%ADD39R,0.549999X0.249999*%
%ADD40R,0.499999X0.655599*%
%ADD41RoundRect,0.102000X-0.679000X0.679000X-0.679000X-0.679000X0.679000X-0.679000X0.679000X0.679000X0*%
%ADD42C,1.562000*%
%ADD43RoundRect,0.102000X-0.900000X0.585000X-0.900000X-0.585000X0.900000X-0.585000X0.900000X0.585000X0*%
G04 APERTURE END LIST*
D10*
X101295000Y-84034000D03*
X101295000Y-79034000D03*
X94285000Y-79034000D03*
X94285000Y-84034000D03*
D11*
X167640000Y-92456000D03*
D12*
X167640000Y-90456000D03*
X167640000Y-88456000D03*
X167640000Y-86456000D03*
D13*
X117319000Y-80010000D03*
X121519000Y-80010000D03*
D10*
X101295000Y-93432000D03*
X101295000Y-88432000D03*
X94285000Y-88432000D03*
X94285000Y-93432000D03*
D14*
X114173000Y-98913000D03*
X114173000Y-96413000D03*
D15*
X127177800Y-78740000D03*
X129032000Y-78740000D03*
D16*
X113665000Y-90284300D03*
X113665000Y-88785700D03*
X113069000Y-73139300D03*
X113069000Y-71640700D03*
D17*
X189230000Y-98425000D03*
D18*
X191230000Y-98425000D03*
X193230000Y-98425000D03*
D17*
X169990000Y-69300000D03*
D18*
X171990000Y-69300000D03*
X173990000Y-69300000D03*
D19*
X172720000Y-75184000D03*
D20*
X175260000Y-75184000D03*
D21*
X109093000Y-95885000D03*
X109093000Y-92329000D03*
D22*
X136581801Y-78714600D03*
X137687399Y-78714600D03*
D14*
X123864000Y-73640000D03*
X123864000Y-71140000D03*
D17*
X151130000Y-98425000D03*
D18*
X153130000Y-98425000D03*
X155130000Y-98425000D03*
D23*
X231140000Y-69596000D03*
D24*
X163830000Y-85725000D03*
D25*
X161290000Y-85725000D03*
X158750000Y-85725000D03*
X156210000Y-85725000D03*
X153670000Y-85725000D03*
X151130000Y-85725000D03*
X148590000Y-85725000D03*
X146050000Y-85725000D03*
X146050000Y-93345000D03*
X148590000Y-93345000D03*
X151130000Y-93345000D03*
X153670000Y-93345000D03*
X156210000Y-93345000D03*
X158750000Y-93345000D03*
X161290000Y-93345000D03*
X163830000Y-93345000D03*
D26*
X115189000Y-91059000D03*
X115189000Y-89611200D03*
D24*
X223774000Y-92456000D03*
D25*
X223774000Y-89916000D03*
X223774000Y-87376000D03*
X223774000Y-84836000D03*
X223774000Y-82296000D03*
X223774000Y-79756000D03*
X223774000Y-77216000D03*
X216154000Y-77216000D03*
X216154000Y-79756000D03*
X216154000Y-82296000D03*
X216154000Y-84836000D03*
X216154000Y-87376000D03*
X216154000Y-89916000D03*
X216154000Y-92456000D03*
D14*
X106045000Y-95357000D03*
X106045000Y-92857000D03*
D27*
X133169000Y-73914000D03*
X130229000Y-73914000D03*
D28*
X121158000Y-90970100D03*
X121158000Y-89115900D03*
D19*
X131419600Y-78714600D03*
D20*
X133959600Y-78714600D03*
D17*
X189040000Y-69300000D03*
D18*
X191040000Y-69300000D03*
X193040000Y-69300000D03*
D29*
X125349000Y-99695000D03*
D30*
X125349000Y-94615000D03*
D31*
X142875000Y-76200000D03*
D30*
X142875000Y-81280000D03*
D23*
X96266000Y-99314000D03*
D32*
X138430000Y-87364600D03*
D33*
X131580000Y-85064600D03*
D32*
X138430000Y-82764600D03*
D17*
X170180000Y-98425000D03*
D18*
X172180000Y-98425000D03*
X174180000Y-98425000D03*
D34*
X168698000Y-77756000D03*
D12*
X168698000Y-79756000D03*
D19*
X134660000Y-91440000D03*
X139660000Y-91440000D03*
D21*
X107989000Y-78740000D03*
X107989000Y-75184000D03*
D24*
X146050000Y-83185000D03*
D25*
X148590000Y-83185000D03*
X151130000Y-83185000D03*
X153670000Y-83185000D03*
X156210000Y-83185000D03*
X158750000Y-83185000D03*
X161290000Y-83185000D03*
X163830000Y-83185000D03*
X163830000Y-75565000D03*
X161290000Y-75565000D03*
X158750000Y-75565000D03*
X156210000Y-75565000D03*
X153670000Y-75565000D03*
X151130000Y-75565000D03*
X148590000Y-75565000D03*
X146050000Y-75565000D03*
D35*
X108624000Y-70505000D03*
X108624000Y-73005000D03*
X109855000Y-87777000D03*
X109855000Y-90277000D03*
D14*
X113704000Y-81875000D03*
X113704000Y-79375000D03*
D23*
X231394000Y-99568000D03*
D26*
X114974000Y-73113900D03*
X114974000Y-71666100D03*
D17*
X132461000Y-98425000D03*
D18*
X134461000Y-98425000D03*
X136461000Y-98425000D03*
D19*
X117729000Y-89027000D03*
D20*
X117729000Y-91567000D03*
D29*
X127254000Y-73914000D03*
D30*
X127254000Y-68834000D03*
D24*
X212090000Y-75565000D03*
D25*
X209550000Y-75565000D03*
X207010000Y-75565000D03*
X204470000Y-75565000D03*
X201930000Y-75565000D03*
X199390000Y-75565000D03*
X196850000Y-75565000D03*
X196850000Y-83185000D03*
X199390000Y-83185000D03*
X201930000Y-83185000D03*
X204470000Y-83185000D03*
X207010000Y-83185000D03*
X209550000Y-83185000D03*
X212090000Y-83185000D03*
D17*
X150940000Y-69300000D03*
D18*
X152940000Y-69300000D03*
X154940000Y-69300000D03*
D14*
X124206000Y-91293000D03*
X124206000Y-88793000D03*
D24*
X233680000Y-92456000D03*
D25*
X233680000Y-89916000D03*
X233680000Y-87376000D03*
X233680000Y-84836000D03*
X233680000Y-82296000D03*
X233680000Y-79756000D03*
X233680000Y-77216000D03*
X226060000Y-77216000D03*
X226060000Y-79756000D03*
X226060000Y-82296000D03*
X226060000Y-84836000D03*
X226060000Y-87376000D03*
X226060000Y-89916000D03*
X226060000Y-92456000D03*
D19*
X117514000Y-70710000D03*
D20*
X117514000Y-73250000D03*
D17*
X179705000Y-98425000D03*
D18*
X181705000Y-98425000D03*
X183705000Y-98425000D03*
D36*
X113529002Y-74985001D03*
X113029003Y-74985001D03*
X112529001Y-74985001D03*
D37*
X112579001Y-75659998D03*
D36*
X112529001Y-76835000D03*
X113029003Y-76835000D03*
X113529002Y-76835000D03*
D38*
X113328999Y-76159998D03*
D39*
X113704000Y-75659998D03*
D14*
X104814000Y-78085000D03*
X104814000Y-75585000D03*
D40*
X112141000Y-88937402D03*
X112141000Y-90043000D03*
D41*
X189420500Y-78499500D03*
D42*
X186880500Y-78499500D03*
X184340500Y-78499500D03*
X181800500Y-78499500D03*
X179260500Y-78499500D03*
X176720500Y-78499500D03*
X174180500Y-78499500D03*
X174180500Y-93739500D03*
X176720500Y-93739500D03*
X179260500Y-93739500D03*
X181800500Y-93739500D03*
X184340500Y-93739500D03*
X186880500Y-93739500D03*
X189420500Y-93739500D03*
D23*
X96266000Y-69342000D03*
D17*
X160465000Y-69300000D03*
D18*
X162465000Y-69300000D03*
X164465000Y-69300000D03*
D36*
X113903001Y-92732004D03*
X113403002Y-92732004D03*
X112903000Y-92732004D03*
D37*
X112953000Y-93407001D03*
D36*
X112903000Y-94582003D03*
X113403002Y-94582003D03*
X113903001Y-94582003D03*
D38*
X113702998Y-93907001D03*
D39*
X114077999Y-93407001D03*
D40*
X111164000Y-71919402D03*
X111164000Y-73025000D03*
D17*
X141415000Y-69300000D03*
D18*
X143415000Y-69300000D03*
X145415000Y-69300000D03*
D13*
X117661000Y-98171000D03*
X121861000Y-98171000D03*
D43*
X128524000Y-97209000D03*
X128524000Y-100149000D03*
D14*
X142875000Y-93325000D03*
X142875000Y-90825000D03*
D17*
X131700000Y-69300000D03*
D18*
X133700000Y-69300000D03*
X135700000Y-69300000D03*
D24*
X212090000Y-86995000D03*
D25*
X209550000Y-86995000D03*
X207010000Y-86995000D03*
X204470000Y-86995000D03*
X201930000Y-86995000D03*
X199390000Y-86995000D03*
X196850000Y-86995000D03*
X196850000Y-94615000D03*
X199390000Y-94615000D03*
X201930000Y-94615000D03*
X204470000Y-94615000D03*
X207010000Y-94615000D03*
X209550000Y-94615000D03*
X212090000Y-94615000D03*
D28*
X120689000Y-73317100D03*
X120689000Y-71462900D03*
D17*
X141700000Y-98425000D03*
D18*
X143700000Y-98425000D03*
X145700000Y-98425000D03*
D17*
X179515000Y-69300000D03*
D18*
X181515000Y-69300000D03*
X183515000Y-69300000D03*
D17*
X160655000Y-98425000D03*
D18*
X162655000Y-98425000D03*
X164655000Y-98425000D03*
D14*
X142875000Y-85765000D03*
X142875000Y-88265000D03*
M02*
