M48
; DRILL file {KiCad 7.0.10} date Thu Oct 31 16:27:36 2024
; FORMAT={-:-/ absolute / metric / decimal}
; #@! TF.CreationDate,2024-10-31T16:27:36-04:00
; #@! TF.GenerationSoftware,Kicad,Pcbnew,7.0.10
; #@! TF.FileFunction,Plated,1,2,PTH
FMAT,2
METRIC
; #@! TA.AperFunction,Plated,PTH,ComponentDrill
T1C0.762
; #@! TA.AperFunction,Plated,PTH,ComponentDrill
T2C0.787
; #@! TA.AperFunction,Plated,PTH,ComponentDrill
T3C0.800
; #@! TA.AperFunction,Plated,PTH,ComponentDrill
T4C0.850
; #@! TA.AperFunction,Plated,PTH,ComponentDrill
T5C0.914
; #@! TA.AperFunction,Plated,PTH,ComponentDrill
T6C1.100
; #@! TA.AperFunction,Plated,PTH,ComponentDrill
T7C1.300
%
G90
G05
T1
X52.05Y-55.245
X52.07Y-52.705
T2
X83.185Y-50.165
X83.185Y-57.785
X83.185Y-60.96
X83.185Y-68.58
X85.725Y-50.165
X85.725Y-57.785
X85.725Y-60.96
X85.725Y-68.58
X88.265Y-50.165
X88.265Y-57.785
X88.265Y-60.96
X88.265Y-68.58
X90.805Y-50.165
X90.805Y-57.785
X90.805Y-60.96
X90.805Y-68.58
X93.345Y-50.165
X93.345Y-57.785
X93.345Y-60.96
X93.345Y-68.58
X95.885Y-50.165
X95.885Y-57.785
X95.885Y-60.96
X95.885Y-68.58
X98.425Y-50.165
X98.425Y-57.785
X98.425Y-60.96
X98.425Y-68.58
X100.965Y-50.165
X100.965Y-57.785
X100.965Y-60.96
X100.965Y-68.58
T3
X52.07Y-44.49
X52.07Y-49.49
X52.07Y-58.5
X52.07Y-63.5
X52.07Y-67.35
X52.07Y-72.35
X64.77Y-43.18
X64.77Y-45.72
X64.77Y-48.895
X64.77Y-57.785
X64.77Y-60.325
X64.77Y-63.5
X64.77Y-71.12
X64.77Y-73.66
X64.77Y-76.835
X67.31Y-48.895
X67.31Y-63.5
X67.31Y-76.835
X80.01Y-52.11
X80.01Y-57.11
X80.01Y-61.635
X80.01Y-66.635
T4
X107.378Y-52.07
X107.378Y-67.31
X109.918Y-52.07
X109.918Y-67.31
X112.459Y-52.07
X112.459Y-67.31
X114.998Y-52.07
X114.998Y-67.31
X117.538Y-52.07
X117.538Y-67.31
X120.078Y-52.07
X120.078Y-67.31
X122.618Y-52.07
X122.618Y-67.31
T5
X73.025Y-43.999
X73.025Y-47.504
X73.025Y-57.969
X73.025Y-61.474
X73.025Y-71.939
X73.025Y-75.444
T6
X80.605Y-73.665
X80.685Y-45.085
X83.105Y-73.665
X83.185Y-45.085
X85.605Y-73.665
X85.685Y-45.085
X91.4Y-73.665
X91.48Y-45.085
X93.9Y-73.665
X93.98Y-45.085
X96.4Y-73.665
X96.48Y-45.085
X102.195Y-73.665
X102.275Y-45.085
X104.695Y-73.665
X104.775Y-45.085
X107.195Y-73.665
X107.275Y-45.085
X113.07Y-45.085
X113.07Y-73.665
X115.57Y-45.085
X115.57Y-73.665
X118.07Y-45.085
X118.07Y-73.665
X123.865Y-45.085
X123.865Y-73.665
X126.365Y-45.085
X126.365Y-73.665
X128.865Y-45.085
X128.865Y-73.665
X128.9Y-64.54
X128.9Y-67.04
X128.905Y-51.515
X128.905Y-54.015
X128.905Y-56.515
X128.905Y-59.015
X134.66Y-45.085
X134.66Y-73.665
X135.25Y-62.27
X135.25Y-64.77
X135.25Y-67.27
X135.26Y-51.475
X135.26Y-53.975
X135.26Y-56.475
X137.16Y-45.085
X137.16Y-73.665
X139.66Y-45.085
X139.66Y-73.665
T7
X64.77Y-39.37
X64.77Y-53.34
X64.77Y-67.31
X69.85Y-39.37
X69.85Y-53.34
X69.85Y-67.31
M30
