%TF.GenerationSoftware,KiCad,Pcbnew,7.0.10*%
%TF.CreationDate,2024-10-31T16:27:38-04:00*%
%TF.ProjectId,SDP25_MainPCB,53445032-355f-44d6-9169-6e5043422e6b,rev?*%
%TF.SameCoordinates,Original*%
%TF.FileFunction,Drillmap*%
%TF.FilePolarity,Positive*%
%FSLAX45Y45*%
G04 Gerber Fmt 4.5, Leading zero omitted, Abs format (unit mm)*
G04 Created by KiCad (PCBNEW 7.0.10) date 2024-10-31 16:27:38*
%MOMM*%
%LPD*%
G01*
G04 APERTURE LIST*
%ADD10C,0.100000*%
%ADD11C,0.200000*%
%ADD12C,0.220000*%
G04 APERTURE END LIST*
D10*
X4826000Y-3683000D02*
X14351000Y-3683000D01*
X14351000Y-7937500D01*
X4826000Y-7937500D01*
X4826000Y-3683000D01*
D11*
D12*
X4970000Y-3827000D02*
X5190000Y-4047000D01*
X5190000Y-3827000D02*
X4970000Y-4047000D01*
X4970000Y-7573500D02*
X5190000Y-7793500D01*
X5190000Y-7573500D02*
X4970000Y-7793500D01*
X13987000Y-5732000D02*
X14207000Y-5952000D01*
X14207000Y-5732000D02*
X13987000Y-5952000D01*
D11*
X5081777Y-8253984D02*
X5081777Y-8053984D01*
X5081777Y-8053984D02*
X5129396Y-8053984D01*
X5129396Y-8053984D02*
X5157967Y-8063508D01*
X5157967Y-8063508D02*
X5177015Y-8082555D01*
X5177015Y-8082555D02*
X5186539Y-8101603D01*
X5186539Y-8101603D02*
X5196063Y-8139698D01*
X5196063Y-8139698D02*
X5196063Y-8168269D01*
X5196063Y-8168269D02*
X5186539Y-8206365D01*
X5186539Y-8206365D02*
X5177015Y-8225412D01*
X5177015Y-8225412D02*
X5157967Y-8244460D01*
X5157967Y-8244460D02*
X5129396Y-8253984D01*
X5129396Y-8253984D02*
X5081777Y-8253984D01*
X5281777Y-8253984D02*
X5281777Y-8120650D01*
X5281777Y-8158746D02*
X5291301Y-8139698D01*
X5291301Y-8139698D02*
X5300824Y-8130174D01*
X5300824Y-8130174D02*
X5319872Y-8120650D01*
X5319872Y-8120650D02*
X5338920Y-8120650D01*
X5405586Y-8253984D02*
X5405586Y-8120650D01*
X5405586Y-8053984D02*
X5396063Y-8063508D01*
X5396063Y-8063508D02*
X5405586Y-8073031D01*
X5405586Y-8073031D02*
X5415110Y-8063508D01*
X5415110Y-8063508D02*
X5405586Y-8053984D01*
X5405586Y-8053984D02*
X5405586Y-8073031D01*
X5529396Y-8253984D02*
X5510348Y-8244460D01*
X5510348Y-8244460D02*
X5500824Y-8225412D01*
X5500824Y-8225412D02*
X5500824Y-8053984D01*
X5634158Y-8253984D02*
X5615110Y-8244460D01*
X5615110Y-8244460D02*
X5605586Y-8225412D01*
X5605586Y-8225412D02*
X5605586Y-8053984D01*
X5862729Y-8253984D02*
X5862729Y-8053984D01*
X5862729Y-8053984D02*
X5929396Y-8196841D01*
X5929396Y-8196841D02*
X5996062Y-8053984D01*
X5996062Y-8053984D02*
X5996062Y-8253984D01*
X6177015Y-8253984D02*
X6177015Y-8149222D01*
X6177015Y-8149222D02*
X6167491Y-8130174D01*
X6167491Y-8130174D02*
X6148443Y-8120650D01*
X6148443Y-8120650D02*
X6110348Y-8120650D01*
X6110348Y-8120650D02*
X6091301Y-8130174D01*
X6177015Y-8244460D02*
X6157967Y-8253984D01*
X6157967Y-8253984D02*
X6110348Y-8253984D01*
X6110348Y-8253984D02*
X6091301Y-8244460D01*
X6091301Y-8244460D02*
X6081777Y-8225412D01*
X6081777Y-8225412D02*
X6081777Y-8206365D01*
X6081777Y-8206365D02*
X6091301Y-8187317D01*
X6091301Y-8187317D02*
X6110348Y-8177793D01*
X6110348Y-8177793D02*
X6157967Y-8177793D01*
X6157967Y-8177793D02*
X6177015Y-8168269D01*
X6272253Y-8120650D02*
X6272253Y-8320650D01*
X6272253Y-8130174D02*
X6291301Y-8120650D01*
X6291301Y-8120650D02*
X6329396Y-8120650D01*
X6329396Y-8120650D02*
X6348443Y-8130174D01*
X6348443Y-8130174D02*
X6357967Y-8139698D01*
X6357967Y-8139698D02*
X6367491Y-8158746D01*
X6367491Y-8158746D02*
X6367491Y-8215888D01*
X6367491Y-8215888D02*
X6357967Y-8234936D01*
X6357967Y-8234936D02*
X6348443Y-8244460D01*
X6348443Y-8244460D02*
X6329396Y-8253984D01*
X6329396Y-8253984D02*
X6291301Y-8253984D01*
X6291301Y-8253984D02*
X6272253Y-8244460D01*
X6453205Y-8234936D02*
X6462729Y-8244460D01*
X6462729Y-8244460D02*
X6453205Y-8253984D01*
X6453205Y-8253984D02*
X6443682Y-8244460D01*
X6443682Y-8244460D02*
X6453205Y-8234936D01*
X6453205Y-8234936D02*
X6453205Y-8253984D01*
X6453205Y-8130174D02*
X6462729Y-8139698D01*
X6462729Y-8139698D02*
X6453205Y-8149222D01*
X6453205Y-8149222D02*
X6443682Y-8139698D01*
X6443682Y-8139698D02*
X6453205Y-8130174D01*
X6453205Y-8130174D02*
X6453205Y-8149222D01*
X4621000Y-8482500D02*
X4821000Y-8682500D01*
X4821000Y-8482500D02*
X4621000Y-8682500D01*
X5072253Y-8493031D02*
X5081777Y-8483508D01*
X5081777Y-8483508D02*
X5100824Y-8473984D01*
X5100824Y-8473984D02*
X5148444Y-8473984D01*
X5148444Y-8473984D02*
X5167491Y-8483508D01*
X5167491Y-8483508D02*
X5177015Y-8493031D01*
X5177015Y-8493031D02*
X5186539Y-8512079D01*
X5186539Y-8512079D02*
X5186539Y-8531127D01*
X5186539Y-8531127D02*
X5177015Y-8559698D01*
X5177015Y-8559698D02*
X5062729Y-8673984D01*
X5062729Y-8673984D02*
X5186539Y-8673984D01*
X5272253Y-8654936D02*
X5281777Y-8664460D01*
X5281777Y-8664460D02*
X5272253Y-8673984D01*
X5272253Y-8673984D02*
X5262729Y-8664460D01*
X5262729Y-8664460D02*
X5272253Y-8654936D01*
X5272253Y-8654936D02*
X5272253Y-8673984D01*
X5357967Y-8493031D02*
X5367491Y-8483508D01*
X5367491Y-8483508D02*
X5386539Y-8473984D01*
X5386539Y-8473984D02*
X5434158Y-8473984D01*
X5434158Y-8473984D02*
X5453205Y-8483508D01*
X5453205Y-8483508D02*
X5462729Y-8493031D01*
X5462729Y-8493031D02*
X5472253Y-8512079D01*
X5472253Y-8512079D02*
X5472253Y-8531127D01*
X5472253Y-8531127D02*
X5462729Y-8559698D01*
X5462729Y-8559698D02*
X5348444Y-8673984D01*
X5348444Y-8673984D02*
X5472253Y-8673984D01*
X5596062Y-8473984D02*
X5615110Y-8473984D01*
X5615110Y-8473984D02*
X5634158Y-8483508D01*
X5634158Y-8483508D02*
X5643682Y-8493031D01*
X5643682Y-8493031D02*
X5653205Y-8512079D01*
X5653205Y-8512079D02*
X5662729Y-8550174D01*
X5662729Y-8550174D02*
X5662729Y-8597793D01*
X5662729Y-8597793D02*
X5653205Y-8635889D01*
X5653205Y-8635889D02*
X5643682Y-8654936D01*
X5643682Y-8654936D02*
X5634158Y-8664460D01*
X5634158Y-8664460D02*
X5615110Y-8673984D01*
X5615110Y-8673984D02*
X5596062Y-8673984D01*
X5596062Y-8673984D02*
X5577015Y-8664460D01*
X5577015Y-8664460D02*
X5567491Y-8654936D01*
X5567491Y-8654936D02*
X5557967Y-8635889D01*
X5557967Y-8635889D02*
X5548444Y-8597793D01*
X5548444Y-8597793D02*
X5548444Y-8550174D01*
X5548444Y-8550174D02*
X5557967Y-8512079D01*
X5557967Y-8512079D02*
X5567491Y-8493031D01*
X5567491Y-8493031D02*
X5577015Y-8483508D01*
X5577015Y-8483508D02*
X5596062Y-8473984D01*
X5786539Y-8473984D02*
X5805586Y-8473984D01*
X5805586Y-8473984D02*
X5824634Y-8483508D01*
X5824634Y-8483508D02*
X5834158Y-8493031D01*
X5834158Y-8493031D02*
X5843682Y-8512079D01*
X5843682Y-8512079D02*
X5853205Y-8550174D01*
X5853205Y-8550174D02*
X5853205Y-8597793D01*
X5853205Y-8597793D02*
X5843682Y-8635889D01*
X5843682Y-8635889D02*
X5834158Y-8654936D01*
X5834158Y-8654936D02*
X5824634Y-8664460D01*
X5824634Y-8664460D02*
X5805586Y-8673984D01*
X5805586Y-8673984D02*
X5786539Y-8673984D01*
X5786539Y-8673984D02*
X5767491Y-8664460D01*
X5767491Y-8664460D02*
X5757967Y-8654936D01*
X5757967Y-8654936D02*
X5748443Y-8635889D01*
X5748443Y-8635889D02*
X5738920Y-8597793D01*
X5738920Y-8597793D02*
X5738920Y-8550174D01*
X5738920Y-8550174D02*
X5748443Y-8512079D01*
X5748443Y-8512079D02*
X5757967Y-8493031D01*
X5757967Y-8493031D02*
X5767491Y-8483508D01*
X5767491Y-8483508D02*
X5786539Y-8473984D01*
X5938920Y-8673984D02*
X5938920Y-8540650D01*
X5938920Y-8559698D02*
X5948443Y-8550174D01*
X5948443Y-8550174D02*
X5967491Y-8540650D01*
X5967491Y-8540650D02*
X5996063Y-8540650D01*
X5996063Y-8540650D02*
X6015110Y-8550174D01*
X6015110Y-8550174D02*
X6024634Y-8569222D01*
X6024634Y-8569222D02*
X6024634Y-8673984D01*
X6024634Y-8569222D02*
X6034158Y-8550174D01*
X6034158Y-8550174D02*
X6053205Y-8540650D01*
X6053205Y-8540650D02*
X6081777Y-8540650D01*
X6081777Y-8540650D02*
X6100824Y-8550174D01*
X6100824Y-8550174D02*
X6110348Y-8569222D01*
X6110348Y-8569222D02*
X6110348Y-8673984D01*
X6205586Y-8673984D02*
X6205586Y-8540650D01*
X6205586Y-8559698D02*
X6215110Y-8550174D01*
X6215110Y-8550174D02*
X6234158Y-8540650D01*
X6234158Y-8540650D02*
X6262729Y-8540650D01*
X6262729Y-8540650D02*
X6281777Y-8550174D01*
X6281777Y-8550174D02*
X6291301Y-8569222D01*
X6291301Y-8569222D02*
X6291301Y-8673984D01*
X6291301Y-8569222D02*
X6300824Y-8550174D01*
X6300824Y-8550174D02*
X6319872Y-8540650D01*
X6319872Y-8540650D02*
X6348443Y-8540650D01*
X6348443Y-8540650D02*
X6367491Y-8550174D01*
X6367491Y-8550174D02*
X6377015Y-8569222D01*
X6377015Y-8569222D02*
X6377015Y-8673984D01*
X6767491Y-8464460D02*
X6596063Y-8721603D01*
X7024634Y-8473984D02*
X7043682Y-8473984D01*
X7043682Y-8473984D02*
X7062729Y-8483508D01*
X7062729Y-8483508D02*
X7072253Y-8493031D01*
X7072253Y-8493031D02*
X7081777Y-8512079D01*
X7081777Y-8512079D02*
X7091301Y-8550174D01*
X7091301Y-8550174D02*
X7091301Y-8597793D01*
X7091301Y-8597793D02*
X7081777Y-8635889D01*
X7081777Y-8635889D02*
X7072253Y-8654936D01*
X7072253Y-8654936D02*
X7062729Y-8664460D01*
X7062729Y-8664460D02*
X7043682Y-8673984D01*
X7043682Y-8673984D02*
X7024634Y-8673984D01*
X7024634Y-8673984D02*
X7005586Y-8664460D01*
X7005586Y-8664460D02*
X6996063Y-8654936D01*
X6996063Y-8654936D02*
X6986539Y-8635889D01*
X6986539Y-8635889D02*
X6977015Y-8597793D01*
X6977015Y-8597793D02*
X6977015Y-8550174D01*
X6977015Y-8550174D02*
X6986539Y-8512079D01*
X6986539Y-8512079D02*
X6996063Y-8493031D01*
X6996063Y-8493031D02*
X7005586Y-8483508D01*
X7005586Y-8483508D02*
X7024634Y-8473984D01*
X7177015Y-8654936D02*
X7186539Y-8664460D01*
X7186539Y-8664460D02*
X7177015Y-8673984D01*
X7177015Y-8673984D02*
X7167491Y-8664460D01*
X7167491Y-8664460D02*
X7177015Y-8654936D01*
X7177015Y-8654936D02*
X7177015Y-8673984D01*
X7310348Y-8473984D02*
X7329396Y-8473984D01*
X7329396Y-8473984D02*
X7348444Y-8483508D01*
X7348444Y-8483508D02*
X7357967Y-8493031D01*
X7357967Y-8493031D02*
X7367491Y-8512079D01*
X7367491Y-8512079D02*
X7377015Y-8550174D01*
X7377015Y-8550174D02*
X7377015Y-8597793D01*
X7377015Y-8597793D02*
X7367491Y-8635889D01*
X7367491Y-8635889D02*
X7357967Y-8654936D01*
X7357967Y-8654936D02*
X7348444Y-8664460D01*
X7348444Y-8664460D02*
X7329396Y-8673984D01*
X7329396Y-8673984D02*
X7310348Y-8673984D01*
X7310348Y-8673984D02*
X7291301Y-8664460D01*
X7291301Y-8664460D02*
X7281777Y-8654936D01*
X7281777Y-8654936D02*
X7272253Y-8635889D01*
X7272253Y-8635889D02*
X7262729Y-8597793D01*
X7262729Y-8597793D02*
X7262729Y-8550174D01*
X7262729Y-8550174D02*
X7272253Y-8512079D01*
X7272253Y-8512079D02*
X7281777Y-8493031D01*
X7281777Y-8493031D02*
X7291301Y-8483508D01*
X7291301Y-8483508D02*
X7310348Y-8473984D01*
X7491301Y-8559698D02*
X7472253Y-8550174D01*
X7472253Y-8550174D02*
X7462729Y-8540650D01*
X7462729Y-8540650D02*
X7453206Y-8521603D01*
X7453206Y-8521603D02*
X7453206Y-8512079D01*
X7453206Y-8512079D02*
X7462729Y-8493031D01*
X7462729Y-8493031D02*
X7472253Y-8483508D01*
X7472253Y-8483508D02*
X7491301Y-8473984D01*
X7491301Y-8473984D02*
X7529396Y-8473984D01*
X7529396Y-8473984D02*
X7548444Y-8483508D01*
X7548444Y-8483508D02*
X7557967Y-8493031D01*
X7557967Y-8493031D02*
X7567491Y-8512079D01*
X7567491Y-8512079D02*
X7567491Y-8521603D01*
X7567491Y-8521603D02*
X7557967Y-8540650D01*
X7557967Y-8540650D02*
X7548444Y-8550174D01*
X7548444Y-8550174D02*
X7529396Y-8559698D01*
X7529396Y-8559698D02*
X7491301Y-8559698D01*
X7491301Y-8559698D02*
X7472253Y-8569222D01*
X7472253Y-8569222D02*
X7462729Y-8578746D01*
X7462729Y-8578746D02*
X7453206Y-8597793D01*
X7453206Y-8597793D02*
X7453206Y-8635889D01*
X7453206Y-8635889D02*
X7462729Y-8654936D01*
X7462729Y-8654936D02*
X7472253Y-8664460D01*
X7472253Y-8664460D02*
X7491301Y-8673984D01*
X7491301Y-8673984D02*
X7529396Y-8673984D01*
X7529396Y-8673984D02*
X7548444Y-8664460D01*
X7548444Y-8664460D02*
X7557967Y-8654936D01*
X7557967Y-8654936D02*
X7567491Y-8635889D01*
X7567491Y-8635889D02*
X7567491Y-8597793D01*
X7567491Y-8597793D02*
X7557967Y-8578746D01*
X7557967Y-8578746D02*
X7548444Y-8569222D01*
X7548444Y-8569222D02*
X7529396Y-8559698D01*
X7738920Y-8473984D02*
X7700825Y-8473984D01*
X7700825Y-8473984D02*
X7681777Y-8483508D01*
X7681777Y-8483508D02*
X7672253Y-8493031D01*
X7672253Y-8493031D02*
X7653206Y-8521603D01*
X7653206Y-8521603D02*
X7643682Y-8559698D01*
X7643682Y-8559698D02*
X7643682Y-8635889D01*
X7643682Y-8635889D02*
X7653206Y-8654936D01*
X7653206Y-8654936D02*
X7662729Y-8664460D01*
X7662729Y-8664460D02*
X7681777Y-8673984D01*
X7681777Y-8673984D02*
X7719872Y-8673984D01*
X7719872Y-8673984D02*
X7738920Y-8664460D01*
X7738920Y-8664460D02*
X7748444Y-8654936D01*
X7748444Y-8654936D02*
X7757967Y-8635889D01*
X7757967Y-8635889D02*
X7757967Y-8588270D01*
X7757967Y-8588270D02*
X7748444Y-8569222D01*
X7748444Y-8569222D02*
X7738920Y-8559698D01*
X7738920Y-8559698D02*
X7719872Y-8550174D01*
X7719872Y-8550174D02*
X7681777Y-8550174D01*
X7681777Y-8550174D02*
X7662729Y-8559698D01*
X7662729Y-8559698D02*
X7653206Y-8569222D01*
X7653206Y-8569222D02*
X7643682Y-8588270D01*
X7929396Y-8473984D02*
X7891301Y-8473984D01*
X7891301Y-8473984D02*
X7872253Y-8483508D01*
X7872253Y-8483508D02*
X7862729Y-8493031D01*
X7862729Y-8493031D02*
X7843682Y-8521603D01*
X7843682Y-8521603D02*
X7834158Y-8559698D01*
X7834158Y-8559698D02*
X7834158Y-8635889D01*
X7834158Y-8635889D02*
X7843682Y-8654936D01*
X7843682Y-8654936D02*
X7853206Y-8664460D01*
X7853206Y-8664460D02*
X7872253Y-8673984D01*
X7872253Y-8673984D02*
X7910348Y-8673984D01*
X7910348Y-8673984D02*
X7929396Y-8664460D01*
X7929396Y-8664460D02*
X7938920Y-8654936D01*
X7938920Y-8654936D02*
X7948444Y-8635889D01*
X7948444Y-8635889D02*
X7948444Y-8588270D01*
X7948444Y-8588270D02*
X7938920Y-8569222D01*
X7938920Y-8569222D02*
X7929396Y-8559698D01*
X7929396Y-8559698D02*
X7910348Y-8550174D01*
X7910348Y-8550174D02*
X7872253Y-8550174D01*
X7872253Y-8550174D02*
X7853206Y-8559698D01*
X7853206Y-8559698D02*
X7843682Y-8569222D01*
X7843682Y-8569222D02*
X7834158Y-8588270D01*
X8024634Y-8473984D02*
X8024634Y-8512079D01*
X8100825Y-8473984D02*
X8100825Y-8512079D01*
X8396063Y-8750174D02*
X8386539Y-8740650D01*
X8386539Y-8740650D02*
X8367491Y-8712079D01*
X8367491Y-8712079D02*
X8357968Y-8693031D01*
X8357968Y-8693031D02*
X8348444Y-8664460D01*
X8348444Y-8664460D02*
X8338920Y-8616841D01*
X8338920Y-8616841D02*
X8338920Y-8578746D01*
X8338920Y-8578746D02*
X8348444Y-8531127D01*
X8348444Y-8531127D02*
X8357968Y-8502555D01*
X8357968Y-8502555D02*
X8367491Y-8483508D01*
X8367491Y-8483508D02*
X8386539Y-8454936D01*
X8386539Y-8454936D02*
X8396063Y-8445412D01*
X8453206Y-8473984D02*
X8577015Y-8473984D01*
X8577015Y-8473984D02*
X8510349Y-8550174D01*
X8510349Y-8550174D02*
X8538920Y-8550174D01*
X8538920Y-8550174D02*
X8557968Y-8559698D01*
X8557968Y-8559698D02*
X8567491Y-8569222D01*
X8567491Y-8569222D02*
X8577015Y-8588270D01*
X8577015Y-8588270D02*
X8577015Y-8635889D01*
X8577015Y-8635889D02*
X8567491Y-8654936D01*
X8567491Y-8654936D02*
X8557968Y-8664460D01*
X8557968Y-8664460D02*
X8538920Y-8673984D01*
X8538920Y-8673984D02*
X8481777Y-8673984D01*
X8481777Y-8673984D02*
X8462730Y-8664460D01*
X8462730Y-8664460D02*
X8453206Y-8654936D01*
X8815111Y-8673984D02*
X8815111Y-8473984D01*
X8900825Y-8673984D02*
X8900825Y-8569222D01*
X8900825Y-8569222D02*
X8891301Y-8550174D01*
X8891301Y-8550174D02*
X8872253Y-8540650D01*
X8872253Y-8540650D02*
X8843682Y-8540650D01*
X8843682Y-8540650D02*
X8824634Y-8550174D01*
X8824634Y-8550174D02*
X8815111Y-8559698D01*
X9024634Y-8673984D02*
X9005587Y-8664460D01*
X9005587Y-8664460D02*
X8996063Y-8654936D01*
X8996063Y-8654936D02*
X8986539Y-8635889D01*
X8986539Y-8635889D02*
X8986539Y-8578746D01*
X8986539Y-8578746D02*
X8996063Y-8559698D01*
X8996063Y-8559698D02*
X9005587Y-8550174D01*
X9005587Y-8550174D02*
X9024634Y-8540650D01*
X9024634Y-8540650D02*
X9053206Y-8540650D01*
X9053206Y-8540650D02*
X9072253Y-8550174D01*
X9072253Y-8550174D02*
X9081777Y-8559698D01*
X9081777Y-8559698D02*
X9091301Y-8578746D01*
X9091301Y-8578746D02*
X9091301Y-8635889D01*
X9091301Y-8635889D02*
X9081777Y-8654936D01*
X9081777Y-8654936D02*
X9072253Y-8664460D01*
X9072253Y-8664460D02*
X9053206Y-8673984D01*
X9053206Y-8673984D02*
X9024634Y-8673984D01*
X9205587Y-8673984D02*
X9186539Y-8664460D01*
X9186539Y-8664460D02*
X9177015Y-8645412D01*
X9177015Y-8645412D02*
X9177015Y-8473984D01*
X9357968Y-8664460D02*
X9338920Y-8673984D01*
X9338920Y-8673984D02*
X9300825Y-8673984D01*
X9300825Y-8673984D02*
X9281777Y-8664460D01*
X9281777Y-8664460D02*
X9272253Y-8645412D01*
X9272253Y-8645412D02*
X9272253Y-8569222D01*
X9272253Y-8569222D02*
X9281777Y-8550174D01*
X9281777Y-8550174D02*
X9300825Y-8540650D01*
X9300825Y-8540650D02*
X9338920Y-8540650D01*
X9338920Y-8540650D02*
X9357968Y-8550174D01*
X9357968Y-8550174D02*
X9367492Y-8569222D01*
X9367492Y-8569222D02*
X9367492Y-8588270D01*
X9367492Y-8588270D02*
X9272253Y-8607317D01*
X9443682Y-8664460D02*
X9462730Y-8673984D01*
X9462730Y-8673984D02*
X9500825Y-8673984D01*
X9500825Y-8673984D02*
X9519873Y-8664460D01*
X9519873Y-8664460D02*
X9529396Y-8645412D01*
X9529396Y-8645412D02*
X9529396Y-8635889D01*
X9529396Y-8635889D02*
X9519873Y-8616841D01*
X9519873Y-8616841D02*
X9500825Y-8607317D01*
X9500825Y-8607317D02*
X9472253Y-8607317D01*
X9472253Y-8607317D02*
X9453206Y-8597793D01*
X9453206Y-8597793D02*
X9443682Y-8578746D01*
X9443682Y-8578746D02*
X9443682Y-8569222D01*
X9443682Y-8569222D02*
X9453206Y-8550174D01*
X9453206Y-8550174D02*
X9472253Y-8540650D01*
X9472253Y-8540650D02*
X9500825Y-8540650D01*
X9500825Y-8540650D02*
X9519873Y-8550174D01*
X9596063Y-8750174D02*
X9605587Y-8740650D01*
X9605587Y-8740650D02*
X9624634Y-8712079D01*
X9624634Y-8712079D02*
X9634158Y-8693031D01*
X9634158Y-8693031D02*
X9643682Y-8664460D01*
X9643682Y-8664460D02*
X9653206Y-8616841D01*
X9653206Y-8616841D02*
X9653206Y-8578746D01*
X9653206Y-8578746D02*
X9643682Y-8531127D01*
X9643682Y-8531127D02*
X9634158Y-8502555D01*
X9634158Y-8502555D02*
X9624634Y-8483508D01*
X9624634Y-8483508D02*
X9605587Y-8454936D01*
X9605587Y-8454936D02*
X9596063Y-8445412D01*
X9957968Y-8750174D02*
X9948444Y-8740650D01*
X9948444Y-8740650D02*
X9929396Y-8712079D01*
X9929396Y-8712079D02*
X9919873Y-8693031D01*
X9919873Y-8693031D02*
X9910349Y-8664460D01*
X9910349Y-8664460D02*
X9900825Y-8616841D01*
X9900825Y-8616841D02*
X9900825Y-8578746D01*
X9900825Y-8578746D02*
X9910349Y-8531127D01*
X9910349Y-8531127D02*
X9919873Y-8502555D01*
X9919873Y-8502555D02*
X9929396Y-8483508D01*
X9929396Y-8483508D02*
X9948444Y-8454936D01*
X9948444Y-8454936D02*
X9957968Y-8445412D01*
X10034158Y-8540650D02*
X10034158Y-8673984D01*
X10034158Y-8559698D02*
X10043682Y-8550174D01*
X10043682Y-8550174D02*
X10062730Y-8540650D01*
X10062730Y-8540650D02*
X10091301Y-8540650D01*
X10091301Y-8540650D02*
X10110349Y-8550174D01*
X10110349Y-8550174D02*
X10119873Y-8569222D01*
X10119873Y-8569222D02*
X10119873Y-8673984D01*
X10243682Y-8673984D02*
X10224634Y-8664460D01*
X10224634Y-8664460D02*
X10215111Y-8654936D01*
X10215111Y-8654936D02*
X10205587Y-8635889D01*
X10205587Y-8635889D02*
X10205587Y-8578746D01*
X10205587Y-8578746D02*
X10215111Y-8559698D01*
X10215111Y-8559698D02*
X10224634Y-8550174D01*
X10224634Y-8550174D02*
X10243682Y-8540650D01*
X10243682Y-8540650D02*
X10272254Y-8540650D01*
X10272254Y-8540650D02*
X10291301Y-8550174D01*
X10291301Y-8550174D02*
X10300825Y-8559698D01*
X10300825Y-8559698D02*
X10310349Y-8578746D01*
X10310349Y-8578746D02*
X10310349Y-8635889D01*
X10310349Y-8635889D02*
X10300825Y-8654936D01*
X10300825Y-8654936D02*
X10291301Y-8664460D01*
X10291301Y-8664460D02*
X10272254Y-8673984D01*
X10272254Y-8673984D02*
X10243682Y-8673984D01*
X10367492Y-8540650D02*
X10443682Y-8540650D01*
X10396063Y-8473984D02*
X10396063Y-8645412D01*
X10396063Y-8645412D02*
X10405587Y-8664460D01*
X10405587Y-8664460D02*
X10424634Y-8673984D01*
X10424634Y-8673984D02*
X10443682Y-8673984D01*
X10662730Y-8540650D02*
X10662730Y-8740650D01*
X10662730Y-8550174D02*
X10681777Y-8540650D01*
X10681777Y-8540650D02*
X10719873Y-8540650D01*
X10719873Y-8540650D02*
X10738920Y-8550174D01*
X10738920Y-8550174D02*
X10748444Y-8559698D01*
X10748444Y-8559698D02*
X10757968Y-8578746D01*
X10757968Y-8578746D02*
X10757968Y-8635889D01*
X10757968Y-8635889D02*
X10748444Y-8654936D01*
X10748444Y-8654936D02*
X10738920Y-8664460D01*
X10738920Y-8664460D02*
X10719873Y-8673984D01*
X10719873Y-8673984D02*
X10681777Y-8673984D01*
X10681777Y-8673984D02*
X10662730Y-8664460D01*
X10872254Y-8673984D02*
X10853206Y-8664460D01*
X10853206Y-8664460D02*
X10843682Y-8645412D01*
X10843682Y-8645412D02*
X10843682Y-8473984D01*
X11034158Y-8673984D02*
X11034158Y-8569222D01*
X11034158Y-8569222D02*
X11024635Y-8550174D01*
X11024635Y-8550174D02*
X11005587Y-8540650D01*
X11005587Y-8540650D02*
X10967492Y-8540650D01*
X10967492Y-8540650D02*
X10948444Y-8550174D01*
X11034158Y-8664460D02*
X11015111Y-8673984D01*
X11015111Y-8673984D02*
X10967492Y-8673984D01*
X10967492Y-8673984D02*
X10948444Y-8664460D01*
X10948444Y-8664460D02*
X10938920Y-8645412D01*
X10938920Y-8645412D02*
X10938920Y-8626365D01*
X10938920Y-8626365D02*
X10948444Y-8607317D01*
X10948444Y-8607317D02*
X10967492Y-8597793D01*
X10967492Y-8597793D02*
X11015111Y-8597793D01*
X11015111Y-8597793D02*
X11034158Y-8588270D01*
X11100825Y-8540650D02*
X11177015Y-8540650D01*
X11129396Y-8473984D02*
X11129396Y-8645412D01*
X11129396Y-8645412D02*
X11138920Y-8664460D01*
X11138920Y-8664460D02*
X11157968Y-8673984D01*
X11157968Y-8673984D02*
X11177015Y-8673984D01*
X11319873Y-8664460D02*
X11300825Y-8673984D01*
X11300825Y-8673984D02*
X11262730Y-8673984D01*
X11262730Y-8673984D02*
X11243682Y-8664460D01*
X11243682Y-8664460D02*
X11234158Y-8645412D01*
X11234158Y-8645412D02*
X11234158Y-8569222D01*
X11234158Y-8569222D02*
X11243682Y-8550174D01*
X11243682Y-8550174D02*
X11262730Y-8540650D01*
X11262730Y-8540650D02*
X11300825Y-8540650D01*
X11300825Y-8540650D02*
X11319873Y-8550174D01*
X11319873Y-8550174D02*
X11329396Y-8569222D01*
X11329396Y-8569222D02*
X11329396Y-8588270D01*
X11329396Y-8588270D02*
X11234158Y-8607317D01*
X11500825Y-8673984D02*
X11500825Y-8473984D01*
X11500825Y-8664460D02*
X11481777Y-8673984D01*
X11481777Y-8673984D02*
X11443682Y-8673984D01*
X11443682Y-8673984D02*
X11424634Y-8664460D01*
X11424634Y-8664460D02*
X11415111Y-8654936D01*
X11415111Y-8654936D02*
X11405587Y-8635889D01*
X11405587Y-8635889D02*
X11405587Y-8578746D01*
X11405587Y-8578746D02*
X11415111Y-8559698D01*
X11415111Y-8559698D02*
X11424634Y-8550174D01*
X11424634Y-8550174D02*
X11443682Y-8540650D01*
X11443682Y-8540650D02*
X11481777Y-8540650D01*
X11481777Y-8540650D02*
X11500825Y-8550174D01*
X11577015Y-8750174D02*
X11586539Y-8740650D01*
X11586539Y-8740650D02*
X11605587Y-8712079D01*
X11605587Y-8712079D02*
X11615111Y-8693031D01*
X11615111Y-8693031D02*
X11624634Y-8664460D01*
X11624634Y-8664460D02*
X11634158Y-8616841D01*
X11634158Y-8616841D02*
X11634158Y-8578746D01*
X11634158Y-8578746D02*
X11624634Y-8531127D01*
X11624634Y-8531127D02*
X11615111Y-8502555D01*
X11615111Y-8502555D02*
X11605587Y-8483508D01*
X11605587Y-8483508D02*
X11586539Y-8454936D01*
X11586539Y-8454936D02*
X11577015Y-8445412D01*
M02*
