%TF.GenerationSoftware,KiCad,Pcbnew,7.0.10*%
%TF.CreationDate,2024-10-31T16:27:30-04:00*%
%TF.ProjectId,SDP25_MainPCB,53445032-355f-44d6-9169-6e5043422e6b,rev?*%
%TF.SameCoordinates,Original*%
%TF.FileFunction,Copper,L1,Top*%
%TF.FilePolarity,Positive*%
%FSLAX46Y46*%
G04 Gerber Fmt 4.6, Leading zero omitted, Abs format (unit mm)*
G04 Created by KiCad (PCBNEW 7.0.10) date 2024-10-31 16:27:30*
%MOMM*%
%LPD*%
G01*
G04 APERTURE LIST*
G04 Aperture macros list*
%AMRoundRect*
0 Rectangle with rounded corners*
0 $1 Rounding radius*
0 $2 $3 $4 $5 $6 $7 $8 $9 X,Y pos of 4 corners*
0 Add a 4 corners polygon primitive as box body*
4,1,4,$2,$3,$4,$5,$6,$7,$8,$9,$2,$3,0*
0 Add four circle primitives for the rounded corners*
1,1,$1+$1,$2,$3*
1,1,$1+$1,$4,$5*
1,1,$1+$1,$6,$7*
1,1,$1+$1,$8,$9*
0 Add four rect primitives between the rounded corners*
20,1,$1+$1,$2,$3,$4,$5,0*
20,1,$1+$1,$4,$5,$6,$7,0*
20,1,$1+$1,$6,$7,$8,$9,0*
20,1,$1+$1,$8,$9,$2,$3,0*%
G04 Aperture macros list end*
%TA.AperFunction,ComponentPad*%
%ADD10C,2.100000*%
%TD*%
%TA.AperFunction,ComponentPad*%
%ADD11C,1.600000*%
%TD*%
%TA.AperFunction,ComponentPad*%
%ADD12O,1.600000X1.600000*%
%TD*%
%TA.AperFunction,ComponentPad*%
%ADD13RoundRect,0.650000X-0.650000X-0.650000X0.650000X-0.650000X0.650000X0.650000X-0.650000X0.650000X0*%
%TD*%
%TA.AperFunction,ComponentPad*%
%ADD14C,2.600000*%
%TD*%
%TA.AperFunction,SMDPad,CuDef*%
%ADD15R,1.500000X2.500000*%
%TD*%
%TA.AperFunction,SMDPad,CuDef*%
%ADD16R,7.000000X7.000000*%
%TD*%
%TA.AperFunction,ComponentPad*%
%ADD17R,1.422400X1.422400*%
%TD*%
%TA.AperFunction,ComponentPad*%
%ADD18C,1.422400*%
%TD*%
%TA.AperFunction,ComponentPad*%
%ADD19R,1.295400X1.295400*%
%TD*%
%TA.AperFunction,ComponentPad*%
%ADD20C,1.295400*%
%TD*%
%TA.AperFunction,ComponentPad*%
%ADD21R,1.358000X1.358000*%
%TD*%
%TA.AperFunction,ComponentPad*%
%ADD22C,1.358000*%
%TD*%
%TA.AperFunction,ComponentPad*%
%ADD23C,1.524000*%
%TD*%
%TA.AperFunction,Conductor*%
%ADD24C,0.250000*%
%TD*%
G04 APERTURE END LIST*
D10*
%TO.P,J9,1*%
%TO.N,GND*%
X128905000Y-51515000D03*
%TO.P,J9,2*%
%TO.N,Net-(IC1-INPUT)*%
X128905000Y-54015000D03*
%TO.P,J9,3*%
%TO.N,Net-(U3-RX_D7)*%
X128905000Y-56515000D03*
%TO.P,J9,4*%
%TO.N,Net-(U3-TX_D6)*%
X128905000Y-59015000D03*
%TD*%
%TO.P,J15,1*%
%TO.N,GND*%
X134660000Y-73665000D03*
%TO.P,J15,2*%
%TO.N,Net-(U2-G)*%
X137160000Y-73665000D03*
%TO.P,J15,3*%
%TO.N,Net-(IC3-OUTPUT)*%
X139660000Y-73665000D03*
%TD*%
D11*
%TO.P,R2,1*%
%TO.N,Net-(IC2-OUTPUT)*%
X64770000Y-43180000D03*
D12*
%TO.P,R2,2*%
%TO.N,Net-(IC2-ADJ)*%
X64770000Y-45720000D03*
%TD*%
D11*
%TO.P,R3,1*%
%TO.N,Net-(IC3-ADJ)*%
X64770000Y-76835000D03*
D12*
%TO.P,R3,2*%
%TO.N,GND*%
X67310000Y-76835000D03*
%TD*%
D13*
%TO.P,TP1,1,1*%
%TO.N,Net-(IC1-OUTPUT)*%
X64770000Y-53340000D03*
D14*
%TO.P,TP1,2,2*%
%TO.N,GND*%
X69850000Y-53340000D03*
%TD*%
D15*
%TO.P,IC2,1,ADJ*%
%TO.N,Net-(IC2-ADJ)*%
X56120000Y-48760000D03*
D16*
%TO.P,IC2,2,OUTPUT*%
%TO.N,Net-(IC2-OUTPUT)*%
X58420000Y-41910000D03*
D15*
%TO.P,IC2,3,INPUT*%
%TO.N,Net-(IC1-INPUT)*%
X60720000Y-48760000D03*
%TD*%
D17*
%TO.P,C6,1*%
%TO.N,Net-(IC1-OUTPUT)*%
X73025000Y-57969150D03*
D18*
%TO.P,C6,2*%
%TO.N,GND*%
X73025000Y-61474350D03*
%TD*%
D11*
%TO.P,C3,1*%
%TO.N,GND*%
X80010000Y-66635000D03*
%TO.P,C3,2*%
%TO.N,Net-(IC1-OUTPUT)*%
X80010000Y-61635000D03*
%TD*%
D10*
%TO.P,J12,1*%
%TO.N,GND*%
X102195000Y-73665000D03*
%TO.P,J12,2*%
%TO.N,Net-(U2-C)*%
X104695000Y-73665000D03*
%TO.P,J12,3*%
%TO.N,Net-(IC3-OUTPUT)*%
X107195000Y-73665000D03*
%TD*%
D15*
%TO.P,IC3,1,ADJ*%
%TO.N,Net-(IC3-ADJ)*%
X56120000Y-76700000D03*
D16*
%TO.P,IC3,2,OUTPUT*%
%TO.N,Net-(IC3-OUTPUT)*%
X58420000Y-69850000D03*
D15*
%TO.P,IC3,3,INPUT*%
%TO.N,Net-(IC1-INPUT)*%
X60720000Y-76700000D03*
%TD*%
D11*
%TO.P,C7,1*%
%TO.N,Net-(IC1-INPUT)*%
X52070000Y-44490000D03*
%TO.P,C7,2*%
%TO.N,GND*%
X52070000Y-49490000D03*
%TD*%
%TO.P,C5,1*%
%TO.N,Net-(IC1-INPUT)*%
X52070000Y-58500000D03*
%TO.P,C5,2*%
%TO.N,GND*%
X52070000Y-63500000D03*
%TD*%
D10*
%TO.P,J2,1*%
%TO.N,GND*%
X135260000Y-56475000D03*
%TO.P,J2,2*%
%TO.N,Net-(U1-E)*%
X135260000Y-53975000D03*
%TO.P,J2,3*%
%TO.N,Net-(IC2-OUTPUT)*%
X135260000Y-51475000D03*
%TD*%
D11*
%TO.P,R6,1*%
%TO.N,Net-(IC1-OUTPUT)*%
X64770000Y-57785000D03*
D12*
%TO.P,R6,2*%
%TO.N,Net-(IC1-ADJ)*%
X64770000Y-60325000D03*
%TD*%
D10*
%TO.P,J10,1*%
%TO.N,GND*%
X80605000Y-73665000D03*
%TO.P,J10,2*%
%TO.N,Net-(U2-E)*%
X83105000Y-73665000D03*
%TO.P,J10,3*%
%TO.N,Net-(IC3-OUTPUT)*%
X85605000Y-73665000D03*
%TD*%
D13*
%TO.P,TP2,1,1*%
%TO.N,Net-(IC2-OUTPUT)*%
X64770000Y-39370000D03*
D14*
%TO.P,TP2,2,2*%
%TO.N,GND*%
X69850000Y-39370000D03*
%TD*%
D10*
%TO.P,J5,1*%
%TO.N,GND*%
X118070000Y-45085000D03*
%TO.P,J5,2*%
%TO.N,Net-(U1-B)*%
X115570000Y-45085000D03*
%TO.P,J5,3*%
%TO.N,Net-(IC2-OUTPUT)*%
X113070000Y-45085000D03*
%TD*%
D15*
%TO.P,IC1,1,ADJ*%
%TO.N,Net-(IC1-ADJ)*%
X56120000Y-62730000D03*
D16*
%TO.P,IC1,2,OUTPUT*%
%TO.N,Net-(IC1-OUTPUT)*%
X58420000Y-55880000D03*
D15*
%TO.P,IC1,3,INPUT*%
%TO.N,Net-(IC1-INPUT)*%
X60720000Y-62730000D03*
%TD*%
D13*
%TO.P,TP3,1,1*%
%TO.N,Net-(IC3-OUTPUT)*%
X64770000Y-67310000D03*
D14*
%TO.P,TP3,2,2*%
%TO.N,GND*%
X69850000Y-67310000D03*
%TD*%
D10*
%TO.P,J17,1*%
%TO.N,Net-(U3-VCC_3V3)*%
X128900000Y-64540000D03*
%TO.P,J17,2*%
%TO.N,Net-(U3-D4)*%
X128900000Y-67040000D03*
%TD*%
D19*
%TO.P,U1,1,D1*%
%TO.N,Net-(U1-D1)*%
X83185000Y-57785000D03*
D20*
%TO.P,U1,2,D2*%
%TO.N,Net-(U1-D2)*%
X85725000Y-57785000D03*
%TO.P,U1,3,\u002ALT*%
%TO.N,Net-(IC1-OUTPUT)*%
X88265000Y-57785000D03*
%TO.P,U1,4,\u002ABL*%
X90805000Y-57785000D03*
%TO.P,U1,5,\u002ALE*%
%TO.N,GND*%
X93345000Y-57785000D03*
%TO.P,U1,6,D3*%
%TO.N,Net-(U1-D3)*%
X95885000Y-57785000D03*
%TO.P,U1,7,D0*%
%TO.N,Net-(U1-D0)*%
X98425000Y-57785000D03*
%TO.P,U1,8,GND*%
%TO.N,GND*%
X100965000Y-57785000D03*
%TO.P,U1,9,E*%
%TO.N,Net-(U1-E)*%
X100965000Y-50165000D03*
%TO.P,U1,10,D*%
%TO.N,Net-(U1-D)*%
X98425000Y-50165000D03*
%TO.P,U1,11,C*%
%TO.N,Net-(U1-C)*%
X95885000Y-50165000D03*
%TO.P,U1,12,B*%
%TO.N,Net-(U1-B)*%
X93345000Y-50165000D03*
%TO.P,U1,13,A*%
%TO.N,Net-(U1-A)*%
X90805000Y-50165000D03*
%TO.P,U1,14,G*%
%TO.N,Net-(U1-G)*%
X88265000Y-50165000D03*
%TO.P,U1,15,F*%
%TO.N,Net-(U1-F)*%
X85725000Y-50165000D03*
%TO.P,U1,16,VCC*%
%TO.N,Net-(IC1-OUTPUT)*%
X83185000Y-50165000D03*
%TD*%
D10*
%TO.P,J13,1*%
%TO.N,GND*%
X113070000Y-73665000D03*
%TO.P,J13,2*%
%TO.N,Net-(U2-B)*%
X115570000Y-73665000D03*
%TO.P,J13,3*%
%TO.N,Net-(IC3-OUTPUT)*%
X118070000Y-73665000D03*
%TD*%
%TO.P,J16,1*%
%TO.N,GND*%
X135250000Y-62270000D03*
%TO.P,J16,2*%
%TO.N,Net-(U2-F)*%
X135250000Y-64770000D03*
%TO.P,J16,3*%
%TO.N,Net-(IC3-OUTPUT)*%
X135250000Y-67270000D03*
%TD*%
D19*
%TO.P,U2,1,D1*%
%TO.N,Net-(U2-D1)*%
X100965000Y-60960000D03*
D20*
%TO.P,U2,2,D2*%
%TO.N,Net-(U2-D2)*%
X98425000Y-60960000D03*
%TO.P,U2,3,\u002ALT*%
%TO.N,Net-(IC1-OUTPUT)*%
X95885000Y-60960000D03*
%TO.P,U2,4,\u002ABL*%
X93345000Y-60960000D03*
%TO.P,U2,5,\u002ALE*%
%TO.N,GND*%
X90805000Y-60960000D03*
%TO.P,U2,6,D3*%
%TO.N,Net-(U2-D3)*%
X88265000Y-60960000D03*
%TO.P,U2,7,D0*%
%TO.N,Net-(U2-D0)*%
X85725000Y-60960000D03*
%TO.P,U2,8,GND*%
%TO.N,GND*%
X83185000Y-60960000D03*
%TO.P,U2,9,E*%
%TO.N,Net-(U2-E)*%
X83185000Y-68580000D03*
%TO.P,U2,10,D*%
%TO.N,Net-(U2-D)*%
X85725000Y-68580000D03*
%TO.P,U2,11,C*%
%TO.N,Net-(U2-C)*%
X88265000Y-68580000D03*
%TO.P,U2,12,B*%
%TO.N,Net-(U2-B)*%
X90805000Y-68580000D03*
%TO.P,U2,13,A*%
%TO.N,Net-(U2-A)*%
X93345000Y-68580000D03*
%TO.P,U2,14,G*%
%TO.N,Net-(U2-G)*%
X95885000Y-68580000D03*
%TO.P,U2,15,F*%
%TO.N,Net-(U2-F)*%
X98425000Y-68580000D03*
%TO.P,U2,16,VCC*%
%TO.N,Net-(IC1-OUTPUT)*%
X100965000Y-68580000D03*
%TD*%
D17*
%TO.P,C1,1*%
%TO.N,Net-(IC2-OUTPUT)*%
X73025000Y-43999150D03*
D18*
%TO.P,C1,2*%
%TO.N,GND*%
X73025000Y-47504350D03*
%TD*%
D17*
%TO.P,C2,1*%
%TO.N,Net-(IC3-OUTPUT)*%
X73025000Y-71939150D03*
D18*
%TO.P,C2,2*%
%TO.N,GND*%
X73025000Y-75444350D03*
%TD*%
D10*
%TO.P,J4,1*%
%TO.N,GND*%
X128865000Y-45085000D03*
%TO.P,J4,2*%
%TO.N,Net-(U1-C)*%
X126365000Y-45085000D03*
%TO.P,J4,3*%
%TO.N,Net-(IC2-OUTPUT)*%
X123865000Y-45085000D03*
%TD*%
%TO.P,J11,1*%
%TO.N,GND*%
X91400000Y-73665000D03*
%TO.P,J11,2*%
%TO.N,Net-(U2-D)*%
X93900000Y-73665000D03*
%TO.P,J11,3*%
%TO.N,Net-(IC3-OUTPUT)*%
X96400000Y-73665000D03*
%TD*%
D11*
%TO.P,C8,1*%
%TO.N,Net-(IC1-INPUT)*%
X52070000Y-67350000D03*
%TO.P,C8,2*%
%TO.N,GND*%
X52070000Y-72350000D03*
%TD*%
D10*
%TO.P,J14,1*%
%TO.N,GND*%
X123865000Y-73665000D03*
%TO.P,J14,2*%
%TO.N,Net-(U2-A)*%
X126365000Y-73665000D03*
%TO.P,J14,3*%
%TO.N,Net-(IC3-OUTPUT)*%
X128865000Y-73665000D03*
%TD*%
%TO.P,J7,1*%
%TO.N,GND*%
X96480000Y-45085000D03*
%TO.P,J7,2*%
%TO.N,Net-(U1-G)*%
X93980000Y-45085000D03*
%TO.P,J7,3*%
%TO.N,Net-(IC2-OUTPUT)*%
X91480000Y-45085000D03*
%TD*%
%TO.P,J6,1*%
%TO.N,GND*%
X107275000Y-45085000D03*
%TO.P,J6,2*%
%TO.N,Net-(U1-A)*%
X104775000Y-45085000D03*
%TO.P,J6,3*%
%TO.N,Net-(IC2-OUTPUT)*%
X102275000Y-45085000D03*
%TD*%
D11*
%TO.P,C4,1*%
%TO.N,Net-(IC1-OUTPUT)*%
X80010000Y-52110000D03*
%TO.P,C4,2*%
%TO.N,GND*%
X80010000Y-57110000D03*
%TD*%
D21*
%TO.P,U3,1,D0*%
%TO.N,Net-(U2-D0)*%
X107378500Y-67310000D03*
D22*
%TO.P,U3,2,D1*%
%TO.N,Net-(U2-D3)*%
X109918500Y-67310000D03*
%TO.P,U3,3,D2*%
%TO.N,Net-(U2-D2)*%
X112458500Y-67310000D03*
%TO.P,U3,4,D3*%
%TO.N,Net-(U2-D1)*%
X114998500Y-67310000D03*
%TO.P,U3,5,D4*%
%TO.N,Net-(U3-D4)*%
X117538500Y-67310000D03*
%TO.P,U3,6,D5*%
%TO.N,Net-(U1-D0)*%
X120078500Y-67310000D03*
%TO.P,U3,7,TX_D6*%
%TO.N,Net-(U3-TX_D6)*%
X122618500Y-67310000D03*
%TO.P,U3,8,RX_D7*%
%TO.N,Net-(U3-RX_D7)*%
X122618500Y-52070000D03*
%TO.P,U3,9,D8*%
%TO.N,Net-(U1-D1)*%
X120078500Y-52070000D03*
%TO.P,U3,10,D9*%
%TO.N,Net-(U1-D2)*%
X117538500Y-52070000D03*
%TO.P,U3,11,D10*%
%TO.N,Net-(U1-D3)*%
X114998500Y-52070000D03*
%TO.P,U3,12,VCC_3V3*%
%TO.N,Net-(U3-VCC_3V3)*%
X112458500Y-52070000D03*
%TO.P,U3,13,GND*%
%TO.N,GND*%
X109918500Y-52070000D03*
%TO.P,U3,14,VUSB*%
%TO.N,Net-(IC1-OUTPUT)*%
X107378500Y-52070000D03*
%TD*%
D11*
%TO.P,R1,1*%
%TO.N,Net-(IC2-ADJ)*%
X64770000Y-48895000D03*
D12*
%TO.P,R1,2*%
%TO.N,GND*%
X67310000Y-48895000D03*
%TD*%
D11*
%TO.P,R5,1*%
%TO.N,Net-(IC1-ADJ)*%
X64770000Y-63500000D03*
D12*
%TO.P,R5,2*%
%TO.N,GND*%
X67310000Y-63500000D03*
%TD*%
D10*
%TO.P,J8,1*%
%TO.N,GND*%
X85685000Y-45085000D03*
%TO.P,J8,2*%
%TO.N,Net-(U1-F)*%
X83185000Y-45085000D03*
%TO.P,J8,3*%
%TO.N,Net-(IC2-OUTPUT)*%
X80685000Y-45085000D03*
%TD*%
%TO.P,J3,1*%
%TO.N,GND*%
X139660000Y-45085000D03*
%TO.P,J3,2*%
%TO.N,Net-(U1-D)*%
X137160000Y-45085000D03*
%TO.P,J3,3*%
%TO.N,Net-(IC2-OUTPUT)*%
X134660000Y-45085000D03*
%TD*%
D23*
%TO.P,J1,1*%
%TO.N,Net-(IC1-INPUT)*%
X52070000Y-52705000D03*
%TO.P,J1,2*%
%TO.N,GND*%
X52050000Y-55245000D03*
%TD*%
D11*
%TO.P,R4,1*%
%TO.N,Net-(IC3-OUTPUT)*%
X64770000Y-71120000D03*
D12*
%TO.P,R4,2*%
%TO.N,Net-(IC3-ADJ)*%
X64770000Y-73660000D03*
%TD*%
D24*
%TO.N,Net-(IC2-OUTPUT)*%
X92855000Y-43710000D02*
X100900000Y-43710000D01*
X123865000Y-45085000D02*
X125240000Y-43710000D01*
X58420000Y-41910000D02*
X63500000Y-41910000D01*
X79599150Y-43999150D02*
X80685000Y-45085000D01*
X140230000Y-43710000D02*
X141035000Y-44515000D01*
X73025000Y-43999150D02*
X79599150Y-43999150D01*
X80685000Y-45085000D02*
X82060000Y-43710000D01*
X100900000Y-43710000D02*
X102275000Y-45085000D01*
X125240000Y-43710000D02*
X133285000Y-43710000D01*
X122490000Y-43710000D02*
X123865000Y-45085000D01*
X63500000Y-41910000D02*
X64770000Y-43180000D01*
X113070000Y-45085000D02*
X114445000Y-43710000D01*
X90105000Y-43710000D02*
X91480000Y-45085000D01*
X141035000Y-44515000D02*
X141035000Y-45700000D01*
X82060000Y-43710000D02*
X90105000Y-43710000D01*
X141035000Y-45700000D02*
X135260000Y-51475000D01*
X64770000Y-43180000D02*
X64770000Y-39370000D01*
X91480000Y-45085000D02*
X92855000Y-43710000D01*
X114445000Y-43710000D02*
X122490000Y-43710000D01*
X64770000Y-43180000D02*
X72085200Y-43180000D01*
X134660000Y-45085000D02*
X136035000Y-43710000D01*
X133285000Y-43710000D02*
X134660000Y-45085000D01*
X111695000Y-43710000D02*
X113070000Y-45085000D01*
X103650000Y-43710000D02*
X111695000Y-43710000D01*
X102275000Y-45085000D02*
X103650000Y-43710000D01*
X72085200Y-43180000D02*
X73025000Y-44119800D01*
X136035000Y-43710000D02*
X140230000Y-43710000D01*
%TO.N,Net-(IC3-OUTPUT)*%
X76125850Y-75040000D02*
X84230000Y-75040000D01*
X128865000Y-73665000D02*
X130240000Y-75040000D01*
X116695000Y-75040000D02*
X118070000Y-73665000D01*
X138285000Y-75040000D02*
X139660000Y-73665000D01*
X105820000Y-75040000D02*
X107195000Y-73665000D01*
X108570000Y-75040000D02*
X116695000Y-75040000D01*
X85605000Y-73665000D02*
X86980000Y-75040000D01*
X95025000Y-75040000D02*
X96400000Y-73665000D01*
X73025000Y-71939150D02*
X76125850Y-75040000D01*
X64770000Y-71120000D02*
X72205850Y-71120000D01*
X72205850Y-71120000D02*
X73025000Y-71939150D01*
X96400000Y-73665000D02*
X97775000Y-75040000D01*
X63500000Y-69850000D02*
X64770000Y-71120000D01*
X139660000Y-73665000D02*
X139660000Y-71680000D01*
X139660000Y-71680000D02*
X135250000Y-67270000D01*
X58420000Y-69850000D02*
X63500000Y-69850000D01*
X127490000Y-75040000D02*
X128865000Y-73665000D01*
X64770000Y-71120000D02*
X64770000Y-67310000D01*
X97775000Y-75040000D02*
X105820000Y-75040000D01*
X118070000Y-73665000D02*
X119445000Y-75040000D01*
X86980000Y-75040000D02*
X95025000Y-75040000D01*
X84230000Y-75040000D02*
X85605000Y-73665000D01*
X130240000Y-75040000D02*
X138285000Y-75040000D01*
X119445000Y-75040000D02*
X127490000Y-75040000D01*
X107195000Y-73665000D02*
X108570000Y-75040000D01*
%TO.N,Net-(IC1-OUTPUT)*%
X83185000Y-50165000D02*
X85090000Y-52070000D01*
X81240000Y-52110000D02*
X83185000Y-50165000D01*
X60325000Y-57785000D02*
X58420000Y-55880000D01*
X80010000Y-61635000D02*
X85982300Y-67607300D01*
X73025000Y-57969150D02*
X74150850Y-57969150D01*
X64770000Y-53340000D02*
X64770000Y-57785000D01*
X72840850Y-57785000D02*
X73025000Y-57969150D01*
X82509600Y-59055000D02*
X86995000Y-59055000D01*
X88265000Y-57785000D02*
X90805000Y-57785000D01*
X74150850Y-57969150D02*
X80010000Y-52110000D01*
X85090000Y-52070000D02*
X107378500Y-52070000D01*
X73025000Y-57969150D02*
X76344150Y-57969150D01*
X76344150Y-57969150D02*
X80010000Y-61635000D01*
X86995000Y-59055000D02*
X88265000Y-57785000D01*
X92075000Y-59690000D02*
X93345000Y-60960000D01*
X64770000Y-57785000D02*
X72840850Y-57785000D01*
X80010000Y-61635000D02*
X81955000Y-59690000D01*
X107378500Y-52747106D02*
X107378500Y-52070000D01*
X57785000Y-55245000D02*
X58420000Y-55880000D01*
X64770000Y-57785000D02*
X60325000Y-57785000D01*
X99992300Y-67607300D02*
X100965000Y-68580000D01*
X93345000Y-60960000D02*
X95885000Y-60960000D01*
X81955000Y-59690000D02*
X92075000Y-59690000D01*
X81240000Y-57785400D02*
X82509600Y-59055000D01*
X80010000Y-52110000D02*
X81240000Y-52110000D01*
X81240000Y-52110000D02*
X81240000Y-57785400D01*
X85982300Y-67607300D02*
X99992300Y-67607300D01*
%TO.N,Net-(IC1-INPUT)*%
X132740000Y-57850000D02*
X137056531Y-57850000D01*
X71386098Y-40132000D02*
X71475000Y-40043098D01*
X137056531Y-57850000D02*
X141732000Y-53174531D01*
X137288396Y-40132000D02*
X71386098Y-40132000D01*
X53395000Y-44490000D02*
X52070000Y-44490000D01*
X70523098Y-37745000D02*
X54935000Y-37745000D01*
X52070000Y-52705000D02*
X53975000Y-50800000D01*
X53975000Y-50800000D02*
X54765000Y-50010000D01*
X59145000Y-47185000D02*
X60720000Y-48760000D01*
X128905000Y-54015000D02*
X132740000Y-57850000D01*
X52640000Y-59705000D02*
X53975000Y-59705000D01*
X141732000Y-44575604D02*
X137288396Y-40132000D01*
X53975000Y-65445000D02*
X52070000Y-67350000D01*
X60720000Y-47865000D02*
X60720000Y-48760000D01*
X54935000Y-37745000D02*
X53975000Y-38705000D01*
X52070000Y-44490000D02*
X54765000Y-47185000D01*
X53975000Y-59705000D02*
X53975000Y-65445000D01*
X51435000Y-58500000D02*
X52640000Y-59705000D01*
X71475000Y-38696902D02*
X70523098Y-37745000D01*
X54595000Y-69875000D02*
X54595000Y-73675000D01*
X53975000Y-50800000D02*
X53975000Y-59705000D01*
X54595000Y-73675000D02*
X57695000Y-73675000D01*
X53975000Y-43910000D02*
X53395000Y-44490000D01*
X57695000Y-73675000D02*
X60720000Y-76700000D01*
X54765000Y-47185000D02*
X59145000Y-47185000D01*
X52070000Y-67350000D02*
X54595000Y-69875000D01*
X141732000Y-53174531D02*
X141732000Y-44575604D01*
X57695000Y-59705000D02*
X60720000Y-62730000D01*
X53975000Y-38705000D02*
X53975000Y-43910000D01*
X53975000Y-59705000D02*
X57695000Y-59705000D01*
X54765000Y-50010000D02*
X54765000Y-47185000D01*
X71475000Y-40043098D02*
X71475000Y-38696902D01*
X60720000Y-62730000D02*
X60720000Y-63820000D01*
%TO.N,Net-(IC1-ADJ)*%
X57695000Y-64305000D02*
X56120000Y-62730000D01*
X63965000Y-64305000D02*
X57695000Y-64305000D01*
X64770000Y-63500000D02*
X63965000Y-64305000D01*
X64770000Y-60325000D02*
X64770000Y-63500000D01*
%TO.N,Net-(IC2-ADJ)*%
X56120000Y-48760000D02*
X57695000Y-50335000D01*
X64770000Y-45720000D02*
X64770000Y-48895000D01*
X63330000Y-50335000D02*
X64770000Y-48895000D01*
X57695000Y-50335000D02*
X63330000Y-50335000D01*
%TO.N,Net-(IC3-ADJ)*%
X64770000Y-76835000D02*
X63330000Y-78275000D01*
X64770000Y-73660000D02*
X64770000Y-76835000D01*
X57695000Y-78275000D02*
X56120000Y-76700000D01*
X63330000Y-78275000D02*
X57695000Y-78275000D01*
%TO.N,Net-(U1-E)*%
X129545000Y-48260000D02*
X102870000Y-48260000D01*
X100965000Y-50165000D02*
X102870000Y-48260000D01*
X135260000Y-53975000D02*
X129545000Y-48260000D01*
%TO.N,Net-(U1-D)*%
X134435000Y-47810000D02*
X137160000Y-45085000D01*
X100780000Y-47810000D02*
X134435000Y-47810000D01*
X98425000Y-50165000D02*
X100780000Y-47810000D01*
%TO.N,Net-(U1-C)*%
X124090000Y-47360000D02*
X126365000Y-45085000D01*
X98690000Y-47360000D02*
X124090000Y-47360000D01*
X95885000Y-50165000D02*
X98690000Y-47360000D01*
X126365000Y-45405986D02*
X126365000Y-45085000D01*
%TO.N,Net-(U1-B)*%
X96600000Y-46910000D02*
X113745000Y-46910000D01*
X113745000Y-46910000D02*
X115570000Y-45085000D01*
X115610000Y-45125000D02*
X115570000Y-45085000D01*
X93345000Y-50165000D02*
X96600000Y-46910000D01*
%TO.N,Net-(U1-A)*%
X90805000Y-50165000D02*
X94510000Y-46460000D01*
X94510000Y-46460000D02*
X103400000Y-46460000D01*
X103400000Y-46460000D02*
X104775000Y-45085000D01*
%TO.N,Net-(U1-G)*%
X88265000Y-50165000D02*
X88900000Y-50165000D01*
X88900000Y-50165000D02*
X93980000Y-45085000D01*
%TO.N,Net-(U1-F)*%
X83185000Y-47625000D02*
X83185000Y-45085000D01*
X85725000Y-50165000D02*
X83185000Y-47625000D01*
%TO.N,Net-(U3-RX_D7)*%
X122618500Y-52070000D02*
X127063500Y-56515000D01*
X127063500Y-56515000D02*
X128905000Y-56515000D01*
%TO.N,Net-(U3-TX_D6)*%
X129705000Y-68415000D02*
X123723500Y-68415000D01*
X130275000Y-67845000D02*
X129705000Y-68415000D01*
X130275000Y-60385000D02*
X130275000Y-67845000D01*
X123723500Y-68415000D02*
X122618500Y-67310000D01*
X128905000Y-59015000D02*
X130275000Y-60385000D01*
%TO.N,Net-(U2-E)*%
X83065000Y-73625000D02*
X83105000Y-73665000D01*
X83185000Y-73585000D02*
X83105000Y-73665000D01*
X83185000Y-68580000D02*
X83185000Y-73585000D01*
%TO.N,Net-(U2-D)*%
X89435000Y-72290000D02*
X92525000Y-72290000D01*
X92525000Y-72290000D02*
X93900000Y-73665000D01*
X85725000Y-68580000D02*
X89435000Y-72290000D01*
%TO.N,Net-(U2-C)*%
X102870000Y-71840000D02*
X104695000Y-73665000D01*
X91525000Y-71840000D02*
X102870000Y-71840000D01*
X88265000Y-68580000D02*
X91525000Y-71840000D01*
%TO.N,Net-(U2-B)*%
X93615000Y-71390000D02*
X113295000Y-71390000D01*
X90805000Y-68580000D02*
X93615000Y-71390000D01*
X113295000Y-71390000D02*
X115570000Y-73665000D01*
%TO.N,Net-(U2-A)*%
X123640000Y-70940000D02*
X126365000Y-73665000D01*
X93345000Y-68580000D02*
X95705000Y-70940000D01*
X95705000Y-70940000D02*
X123640000Y-70940000D01*
%TO.N,Net-(U2-G)*%
X95885000Y-68580000D02*
X97795000Y-70490000D01*
X133985000Y-70490000D02*
X137160000Y-73665000D01*
X97795000Y-70490000D02*
X133985000Y-70490000D01*
%TO.N,Net-(U2-F)*%
X129980000Y-70040000D02*
X99885000Y-70040000D01*
X135250000Y-64770000D02*
X129980000Y-70040000D01*
X98425000Y-68580000D02*
X99885000Y-70040000D01*
%TO.N,Net-(U3-VCC_3V3)*%
X112458500Y-52070000D02*
X113462500Y-51066000D01*
X128900000Y-64540000D02*
X128588629Y-64540000D01*
X115836000Y-51066000D02*
X116534500Y-51764500D01*
X116534500Y-51764500D02*
X116534500Y-52485871D01*
X128588629Y-64540000D02*
X116534500Y-52485871D01*
X113462500Y-51066000D02*
X115836000Y-51066000D01*
%TO.N,Net-(U3-D4)*%
X117538500Y-67310000D02*
X118110000Y-67310000D01*
X118542500Y-66306000D02*
X128166000Y-66306000D01*
X128166000Y-66306000D02*
X128900000Y-67040000D01*
X117538500Y-67310000D02*
X118542500Y-66306000D01*
%TO.N,Net-(U1-D1)*%
X107528371Y-53340000D02*
X108585000Y-52283371D01*
X87630000Y-53340000D02*
X107528371Y-53340000D01*
X83185000Y-57785000D02*
X87630000Y-53340000D01*
X117538500Y-49530000D02*
X120078500Y-52070000D01*
X108585000Y-52283371D02*
X108585000Y-51983629D01*
X111038629Y-49530000D02*
X117538500Y-49530000D01*
X108585000Y-51983629D02*
X111038629Y-49530000D01*
%TO.N,Net-(U1-D2)*%
X85725000Y-57785000D02*
X89720000Y-53790000D01*
X115633500Y-50165000D02*
X117538500Y-52070000D01*
X109734500Y-53790000D02*
X111454500Y-52070000D01*
X111454500Y-52070000D02*
X111454500Y-51654129D01*
X112943629Y-50165000D02*
X115633500Y-50165000D01*
X89720000Y-53790000D02*
X109734500Y-53790000D01*
X111454500Y-51654129D02*
X112943629Y-50165000D01*
%TO.N,Net-(U1-D3)*%
X95885000Y-57785000D02*
X99430000Y-54240000D01*
X99430000Y-54240000D02*
X112828500Y-54240000D01*
X112828500Y-54240000D02*
X114998500Y-52070000D01*
%TO.N,Net-(U1-D0)*%
X116534500Y-67004500D02*
X116534500Y-67725871D01*
X119074500Y-68314000D02*
X120078500Y-67310000D01*
X98425000Y-57785000D02*
X100627300Y-59987300D01*
X117122629Y-68314000D02*
X119074500Y-68314000D01*
X116534500Y-67725871D02*
X117122629Y-68314000D01*
X100627300Y-59987300D02*
X109517300Y-59987300D01*
X109517300Y-59987300D02*
X116534500Y-67004500D01*
%TO.N,Net-(U2-D1)*%
X100965000Y-62230000D02*
X104140000Y-65405000D01*
X113093500Y-65405000D02*
X114998500Y-67310000D01*
X100965000Y-60960000D02*
X100965000Y-62230000D01*
X104140000Y-65405000D02*
X113093500Y-65405000D01*
%TO.N,Net-(U2-D2)*%
X103321000Y-65856000D02*
X111004500Y-65856000D01*
X111004500Y-65856000D02*
X112458500Y-67310000D01*
X98425000Y-60960000D02*
X103321000Y-65856000D01*
%TO.N,Net-(U2-D3)*%
X108914500Y-66306000D02*
X109918500Y-67310000D01*
X88265000Y-60960000D02*
X93611000Y-66306000D01*
X109243350Y-67494150D02*
X109537500Y-67200000D01*
X93611000Y-66306000D02*
X108914500Y-66306000D01*
%TO.N,Net-(U2-D0)*%
X85725000Y-60960000D02*
X91922300Y-67157300D01*
X91922300Y-67157300D02*
X107225800Y-67157300D01*
X107225800Y-67157300D02*
X107378500Y-67310000D01*
%TD*%
M02*
