%TF.GenerationSoftware,KiCad,Pcbnew,7.0.10*%
%TF.CreationDate,2024-10-31T16:27:30-04:00*%
%TF.ProjectId,SDP25_MainPCB,53445032-355f-44d6-9169-6e5043422e6b,rev?*%
%TF.SameCoordinates,Original*%
%TF.FileFunction,Legend,Bot*%
%TF.FilePolarity,Positive*%
%FSLAX46Y46*%
G04 Gerber Fmt 4.6, Leading zero omitted, Abs format (unit mm)*
G04 Created by KiCad (PCBNEW 7.0.10) date 2024-10-31 16:27:30*
%MOMM*%
%LPD*%
G01*
G04 APERTURE LIST*
G04 Aperture macros list*
%AMRoundRect*
0 Rectangle with rounded corners*
0 $1 Rounding radius*
0 $2 $3 $4 $5 $6 $7 $8 $9 X,Y pos of 4 corners*
0 Add a 4 corners polygon primitive as box body*
4,1,4,$2,$3,$4,$5,$6,$7,$8,$9,$2,$3,0*
0 Add four circle primitives for the rounded corners*
1,1,$1+$1,$2,$3*
1,1,$1+$1,$4,$5*
1,1,$1+$1,$6,$7*
1,1,$1+$1,$8,$9*
0 Add four rect primitives between the rounded corners*
20,1,$1+$1,$2,$3,$4,$5,0*
20,1,$1+$1,$4,$5,$6,$7,0*
20,1,$1+$1,$6,$7,$8,$9,0*
20,1,$1+$1,$8,$9,$2,$3,0*%
G04 Aperture macros list end*
%ADD10C,2.100000*%
%ADD11C,1.600000*%
%ADD12O,1.600000X1.600000*%
%ADD13RoundRect,0.650000X-0.650000X-0.650000X0.650000X-0.650000X0.650000X0.650000X-0.650000X0.650000X0*%
%ADD14C,2.600000*%
%ADD15R,1.422400X1.422400*%
%ADD16C,1.422400*%
%ADD17C,2.200000*%
%ADD18R,1.295400X1.295400*%
%ADD19C,1.295400*%
%ADD20RoundRect,0.102000X0.679000X-0.679000X0.679000X0.679000X-0.679000X0.679000X-0.679000X-0.679000X0*%
%ADD21C,1.562000*%
%ADD22C,1.524000*%
G04 APERTURE END LIST*
%LPC*%
D10*
%TO.C,J9*%
X128905000Y-51515000D03*
X128905000Y-54015000D03*
X128905000Y-56515000D03*
X128905000Y-59015000D03*
%TD*%
%TO.C,J15*%
X134660000Y-73665000D03*
X137160000Y-73665000D03*
X139660000Y-73665000D03*
%TD*%
D11*
%TO.C,R2*%
X64770000Y-43180000D03*
D12*
X64770000Y-45720000D03*
%TD*%
D11*
%TO.C,R3*%
X64770000Y-76835000D03*
D12*
X67310000Y-76835000D03*
%TD*%
D13*
%TO.C,TP1*%
X64770000Y-53340000D03*
D14*
X69850000Y-53340000D03*
%TD*%
D15*
%TO.C,C6*%
X73025000Y-57969150D03*
D16*
X73025000Y-61474350D03*
%TD*%
D11*
%TO.C,C3*%
X80010000Y-66635000D03*
X80010000Y-61635000D03*
%TD*%
D10*
%TO.C,J12*%
X102195000Y-73665000D03*
X104695000Y-73665000D03*
X107195000Y-73665000D03*
%TD*%
D17*
%TO.C,REF\u002A\u002A*%
X50800000Y-39370000D03*
%TD*%
D11*
%TO.C,C7*%
X52070000Y-44490000D03*
X52070000Y-49490000D03*
%TD*%
%TO.C,C5*%
X52070000Y-58500000D03*
X52070000Y-63500000D03*
%TD*%
D10*
%TO.C,J2*%
X135260000Y-56475000D03*
X135260000Y-53975000D03*
X135260000Y-51475000D03*
%TD*%
D11*
%TO.C,R6*%
X64770000Y-57785000D03*
D12*
X64770000Y-60325000D03*
%TD*%
D10*
%TO.C,J10*%
X80605000Y-73665000D03*
X83105000Y-73665000D03*
X85605000Y-73665000D03*
%TD*%
D13*
%TO.C,TP2*%
X64770000Y-39370000D03*
D14*
X69850000Y-39370000D03*
%TD*%
D17*
%TO.C,REF\u002A\u002A*%
X50800000Y-76835000D03*
%TD*%
D10*
%TO.C,J5*%
X118070000Y-45085000D03*
X115570000Y-45085000D03*
X113070000Y-45085000D03*
%TD*%
D13*
%TO.C,TP3*%
X64770000Y-67310000D03*
D14*
X69850000Y-67310000D03*
%TD*%
D10*
%TO.C,J17*%
X128900000Y-64540000D03*
X128900000Y-67040000D03*
%TD*%
D18*
%TO.C,U1*%
X83185000Y-57785000D03*
D19*
X85725000Y-57785000D03*
X88265000Y-57785000D03*
X90805000Y-57785000D03*
X93345000Y-57785000D03*
X95885000Y-57785000D03*
X98425000Y-57785000D03*
X100965000Y-57785000D03*
X100965000Y-50165000D03*
X98425000Y-50165000D03*
X95885000Y-50165000D03*
X93345000Y-50165000D03*
X90805000Y-50165000D03*
X88265000Y-50165000D03*
X85725000Y-50165000D03*
X83185000Y-50165000D03*
%TD*%
D10*
%TO.C,J13*%
X113070000Y-73665000D03*
X115570000Y-73665000D03*
X118070000Y-73665000D03*
%TD*%
%TO.C,J16*%
X135250000Y-62270000D03*
X135250000Y-64770000D03*
X135250000Y-67270000D03*
%TD*%
D18*
%TO.C,U2*%
X100965000Y-60960000D03*
D19*
X98425000Y-60960000D03*
X95885000Y-60960000D03*
X93345000Y-60960000D03*
X90805000Y-60960000D03*
X88265000Y-60960000D03*
X85725000Y-60960000D03*
X83185000Y-60960000D03*
X83185000Y-68580000D03*
X85725000Y-68580000D03*
X88265000Y-68580000D03*
X90805000Y-68580000D03*
X93345000Y-68580000D03*
X95885000Y-68580000D03*
X98425000Y-68580000D03*
X100965000Y-68580000D03*
%TD*%
D15*
%TO.C,C1*%
X73025000Y-43999150D03*
D16*
X73025000Y-47504350D03*
%TD*%
D15*
%TO.C,C2*%
X73025000Y-71939150D03*
D16*
X73025000Y-75444350D03*
%TD*%
D10*
%TO.C,J4*%
X128865000Y-45085000D03*
X126365000Y-45085000D03*
X123865000Y-45085000D03*
%TD*%
D17*
%TO.C,REF\u002A\u002A*%
X140970000Y-58420000D03*
%TD*%
D10*
%TO.C,J11*%
X91400000Y-73665000D03*
X93900000Y-73665000D03*
X96400000Y-73665000D03*
%TD*%
D11*
%TO.C,C8*%
X52070000Y-67350000D03*
X52070000Y-72350000D03*
%TD*%
D10*
%TO.C,J14*%
X123865000Y-73665000D03*
X126365000Y-73665000D03*
X128865000Y-73665000D03*
%TD*%
%TO.C,J7*%
X96480000Y-45085000D03*
X93980000Y-45085000D03*
X91480000Y-45085000D03*
%TD*%
%TO.C,J6*%
X107275000Y-45085000D03*
X104775000Y-45085000D03*
X102275000Y-45085000D03*
%TD*%
D11*
%TO.C,C4*%
X80010000Y-52110000D03*
X80010000Y-57110000D03*
%TD*%
D20*
%TO.C,U3*%
X107378500Y-67310000D03*
D21*
X109918500Y-67310000D03*
X112458500Y-67310000D03*
X114998500Y-67310000D03*
X117538500Y-67310000D03*
X120078500Y-67310000D03*
X122618500Y-67310000D03*
X122618500Y-52070000D03*
X120078500Y-52070000D03*
X117538500Y-52070000D03*
X114998500Y-52070000D03*
X112458500Y-52070000D03*
X109918500Y-52070000D03*
X107378500Y-52070000D03*
%TD*%
D11*
%TO.C,R1*%
X64770000Y-48895000D03*
D12*
X67310000Y-48895000D03*
%TD*%
D11*
%TO.C,R5*%
X64770000Y-63500000D03*
D12*
X67310000Y-63500000D03*
%TD*%
D10*
%TO.C,J8*%
X85685000Y-45085000D03*
X83185000Y-45085000D03*
X80685000Y-45085000D03*
%TD*%
%TO.C,J3*%
X139660000Y-45085000D03*
X137160000Y-45085000D03*
X134660000Y-45085000D03*
%TD*%
D22*
%TO.C,J1*%
X52070000Y-52705000D03*
X52050000Y-55245000D03*
%TD*%
D11*
%TO.C,R4*%
X64770000Y-71120000D03*
D12*
X64770000Y-73660000D03*
%TD*%
%LPD*%
M02*
