%TF.GenerationSoftware,KiCad,Pcbnew,7.0.10*%
%TF.CreationDate,2024-11-20T16:46:35-05:00*%
%TF.ProjectId,SDP25_MainPCB_V2,53445032-355f-44d6-9169-6e5043425f56,2*%
%TF.SameCoordinates,Original*%
%TF.FileFunction,Legend,Top*%
%TF.FilePolarity,Positive*%
%FSLAX46Y46*%
G04 Gerber Fmt 4.6, Leading zero omitted, Abs format (unit mm)*
G04 Created by KiCad (PCBNEW 7.0.10) date 2024-11-20 16:46:35*
%MOMM*%
%LPD*%
G01*
G04 APERTURE LIST*
G04 Aperture macros list*
%AMRoundRect*
0 Rectangle with rounded corners*
0 $1 Rounding radius*
0 $2 $3 $4 $5 $6 $7 $8 $9 X,Y pos of 4 corners*
0 Add a 4 corners polygon primitive as box body*
4,1,4,$2,$3,$4,$5,$6,$7,$8,$9,$2,$3,0*
0 Add four circle primitives for the rounded corners*
1,1,$1+$1,$2,$3*
1,1,$1+$1,$4,$5*
1,1,$1+$1,$6,$7*
1,1,$1+$1,$8,$9*
0 Add four rect primitives between the rounded corners*
20,1,$1+$1,$2,$3,$4,$5,0*
20,1,$1+$1,$4,$5,$6,$7,0*
20,1,$1+$1,$6,$7,$8,$9,0*
20,1,$1+$1,$8,$9,$2,$3,0*%
G04 Aperture macros list end*
%ADD10C,0.150000*%
%ADD11C,0.254000*%
%ADD12C,0.127000*%
%ADD13C,0.152400*%
%ADD14C,0.100000*%
%ADD15C,0.120000*%
%ADD16C,0.200000*%
%ADD17C,8.000000*%
%ADD18RoundRect,0.102000X-0.950000X-2.550000X0.950000X-2.550000X0.950000X2.550000X-0.950000X2.550000X0*%
%ADD19C,1.371600*%
%ADD20R,1.447800X1.066800*%
%ADD21R,0.889000X0.609600*%
%ADD22C,2.020000*%
%ADD23RoundRect,0.250000X-0.350000X-0.625000X0.350000X-0.625000X0.350000X0.625000X-0.350000X0.625000X0*%
%ADD24O,1.200000X1.750000*%
%ADD25R,1.803400X0.558800*%
%ADD26C,1.600000*%
%ADD27O,1.600000X1.600000*%
%ADD28R,1.295400X1.295400*%
%ADD29C,1.295400*%
%ADD30R,0.889000X0.965200*%
%ADD31RoundRect,0.650000X0.650000X-0.650000X0.650000X0.650000X-0.650000X0.650000X-0.650000X-0.650000X0*%
%ADD32C,2.600000*%
%ADD33RoundRect,0.650000X-0.650000X0.650000X-0.650000X-0.650000X0.650000X-0.650000X0.650000X0.650000X0*%
%ADD34C,2.100000*%
%ADD35R,2.500000X1.500000*%
%ADD36R,7.000000X7.000000*%
%ADD37C,1.117600*%
%ADD38R,0.249999X0.549999*%
%ADD39R,1.000000X0.249999*%
%ADD40R,1.300000X0.249999*%
%ADD41R,0.549999X0.249999*%
%ADD42R,0.499999X0.655599*%
%ADD43RoundRect,0.102000X-0.679000X0.679000X-0.679000X-0.679000X0.679000X-0.679000X0.679000X0.679000X0*%
%ADD44C,1.562000*%
G04 APERTURE END LIST*
D10*
X136226779Y-102358866D02*
X136988684Y-102358866D01*
X136607731Y-102739819D02*
X136607731Y-101977914D01*
X193376779Y-102358866D02*
X194138684Y-102358866D01*
X193757731Y-102739819D02*
X193757731Y-101977914D01*
X193376779Y-66163866D02*
X194138684Y-66163866D01*
X193757731Y-66544819D02*
X193757731Y-65782914D01*
X127463779Y-102104866D02*
X128225684Y-102104866D01*
X127844731Y-102485819D02*
X127844731Y-101723914D01*
X127933220Y-76457133D02*
X127171316Y-76457133D01*
X127552268Y-76076180D02*
X127552268Y-76838085D01*
X132416779Y-92198866D02*
X133178684Y-92198866D01*
X132797731Y-92579819D02*
X132797731Y-91817914D01*
X140036779Y-74418866D02*
X140798684Y-74418866D01*
X140417731Y-74799819D02*
X140417731Y-74037914D01*
X136226779Y-66163866D02*
X136988684Y-66163866D01*
X136607731Y-66544819D02*
X136607731Y-65782914D01*
X119273333Y-80298276D02*
X118968571Y-80298276D01*
X118968571Y-80298276D02*
X118968571Y-79658276D01*
X119456190Y-79719228D02*
X119486666Y-79688752D01*
X119486666Y-79688752D02*
X119547619Y-79658276D01*
X119547619Y-79658276D02*
X119700000Y-79658276D01*
X119700000Y-79658276D02*
X119760952Y-79688752D01*
X119760952Y-79688752D02*
X119791428Y-79719228D01*
X119791428Y-79719228D02*
X119821905Y-79780180D01*
X119821905Y-79780180D02*
X119821905Y-79841133D01*
X119821905Y-79841133D02*
X119791428Y-79932561D01*
X119791428Y-79932561D02*
X119425714Y-80298276D01*
X119425714Y-80298276D02*
X119821905Y-80298276D01*
X111855475Y-101070580D02*
X111807856Y-101118200D01*
X111807856Y-101118200D02*
X111664999Y-101165819D01*
X111664999Y-101165819D02*
X111569761Y-101165819D01*
X111569761Y-101165819D02*
X111426904Y-101118200D01*
X111426904Y-101118200D02*
X111331666Y-101022961D01*
X111331666Y-101022961D02*
X111284047Y-100927723D01*
X111284047Y-100927723D02*
X111236428Y-100737247D01*
X111236428Y-100737247D02*
X111236428Y-100594390D01*
X111236428Y-100594390D02*
X111284047Y-100403914D01*
X111284047Y-100403914D02*
X111331666Y-100308676D01*
X111331666Y-100308676D02*
X111426904Y-100213438D01*
X111426904Y-100213438D02*
X111569761Y-100165819D01*
X111569761Y-100165819D02*
X111664999Y-100165819D01*
X111664999Y-100165819D02*
X111807856Y-100213438D01*
X111807856Y-100213438D02*
X111855475Y-100261057D01*
X112284047Y-101165819D02*
X112284047Y-100165819D01*
X112284047Y-100546771D02*
X112379285Y-100499152D01*
X112379285Y-100499152D02*
X112569761Y-100499152D01*
X112569761Y-100499152D02*
X112664999Y-100546771D01*
X112664999Y-100546771D02*
X112712618Y-100594390D01*
X112712618Y-100594390D02*
X112760237Y-100689628D01*
X112760237Y-100689628D02*
X112760237Y-100975342D01*
X112760237Y-100975342D02*
X112712618Y-101070580D01*
X112712618Y-101070580D02*
X112664999Y-101118200D01*
X112664999Y-101118200D02*
X112569761Y-101165819D01*
X112569761Y-101165819D02*
X112379285Y-101165819D01*
X112379285Y-101165819D02*
X112284047Y-101118200D01*
X113331666Y-101165819D02*
X113236428Y-101118200D01*
X113236428Y-101118200D02*
X113188809Y-101070580D01*
X113188809Y-101070580D02*
X113141190Y-100975342D01*
X113141190Y-100975342D02*
X113141190Y-100689628D01*
X113141190Y-100689628D02*
X113188809Y-100594390D01*
X113188809Y-100594390D02*
X113236428Y-100546771D01*
X113236428Y-100546771D02*
X113331666Y-100499152D01*
X113331666Y-100499152D02*
X113474523Y-100499152D01*
X113474523Y-100499152D02*
X113569761Y-100546771D01*
X113569761Y-100546771D02*
X113617380Y-100594390D01*
X113617380Y-100594390D02*
X113664999Y-100689628D01*
X113664999Y-100689628D02*
X113664999Y-100975342D01*
X113664999Y-100975342D02*
X113617380Y-101070580D01*
X113617380Y-101070580D02*
X113569761Y-101118200D01*
X113569761Y-101118200D02*
X113474523Y-101165819D01*
X113474523Y-101165819D02*
X113331666Y-101165819D01*
X114236428Y-101165819D02*
X114141190Y-101118200D01*
X114141190Y-101118200D02*
X114093571Y-101070580D01*
X114093571Y-101070580D02*
X114045952Y-100975342D01*
X114045952Y-100975342D02*
X114045952Y-100689628D01*
X114045952Y-100689628D02*
X114093571Y-100594390D01*
X114093571Y-100594390D02*
X114141190Y-100546771D01*
X114141190Y-100546771D02*
X114236428Y-100499152D01*
X114236428Y-100499152D02*
X114379285Y-100499152D01*
X114379285Y-100499152D02*
X114474523Y-100546771D01*
X114474523Y-100546771D02*
X114522142Y-100594390D01*
X114522142Y-100594390D02*
X114569761Y-100689628D01*
X114569761Y-100689628D02*
X114569761Y-100975342D01*
X114569761Y-100975342D02*
X114522142Y-101070580D01*
X114522142Y-101070580D02*
X114474523Y-101118200D01*
X114474523Y-101118200D02*
X114379285Y-101165819D01*
X114379285Y-101165819D02*
X114236428Y-101165819D01*
X114855476Y-100499152D02*
X115236428Y-100499152D01*
X114998333Y-100165819D02*
X114998333Y-101022961D01*
X114998333Y-101022961D02*
X115045952Y-101118200D01*
X115045952Y-101118200D02*
X115141190Y-101165819D01*
X115141190Y-101165819D02*
X115236428Y-101165819D01*
X115522143Y-100261057D02*
X115569762Y-100213438D01*
X115569762Y-100213438D02*
X115665000Y-100165819D01*
X115665000Y-100165819D02*
X115903095Y-100165819D01*
X115903095Y-100165819D02*
X115998333Y-100213438D01*
X115998333Y-100213438D02*
X116045952Y-100261057D01*
X116045952Y-100261057D02*
X116093571Y-100356295D01*
X116093571Y-100356295D02*
X116093571Y-100451533D01*
X116093571Y-100451533D02*
X116045952Y-100594390D01*
X116045952Y-100594390D02*
X115474524Y-101165819D01*
X115474524Y-101165819D02*
X116093571Y-101165819D01*
X127910419Y-78547933D02*
X127862800Y-78500314D01*
X127862800Y-78500314D02*
X127815180Y-78357457D01*
X127815180Y-78357457D02*
X127815180Y-78262219D01*
X127815180Y-78262219D02*
X127862800Y-78119362D01*
X127862800Y-78119362D02*
X127958038Y-78024124D01*
X127958038Y-78024124D02*
X128053276Y-77976505D01*
X128053276Y-77976505D02*
X128243752Y-77928886D01*
X128243752Y-77928886D02*
X128386609Y-77928886D01*
X128386609Y-77928886D02*
X128577085Y-77976505D01*
X128577085Y-77976505D02*
X128672323Y-78024124D01*
X128672323Y-78024124D02*
X128767561Y-78119362D01*
X128767561Y-78119362D02*
X128815180Y-78262219D01*
X128815180Y-78262219D02*
X128815180Y-78357457D01*
X128815180Y-78357457D02*
X128767561Y-78500314D01*
X128767561Y-78500314D02*
X128719942Y-78547933D01*
X128719942Y-78928886D02*
X128767561Y-78976505D01*
X128767561Y-78976505D02*
X128815180Y-79071743D01*
X128815180Y-79071743D02*
X128815180Y-79309838D01*
X128815180Y-79309838D02*
X128767561Y-79405076D01*
X128767561Y-79405076D02*
X128719942Y-79452695D01*
X128719942Y-79452695D02*
X128624704Y-79500314D01*
X128624704Y-79500314D02*
X128529466Y-79500314D01*
X128529466Y-79500314D02*
X128386609Y-79452695D01*
X128386609Y-79452695D02*
X127815180Y-78881267D01*
X127815180Y-78881267D02*
X127815180Y-79500314D01*
X114119819Y-90765143D02*
X113643628Y-91098476D01*
X114119819Y-91336571D02*
X113119819Y-91336571D01*
X113119819Y-91336571D02*
X113119819Y-90955619D01*
X113119819Y-90955619D02*
X113167438Y-90860381D01*
X113167438Y-90860381D02*
X113215057Y-90812762D01*
X113215057Y-90812762D02*
X113310295Y-90765143D01*
X113310295Y-90765143D02*
X113453152Y-90765143D01*
X113453152Y-90765143D02*
X113548390Y-90812762D01*
X113548390Y-90812762D02*
X113596009Y-90860381D01*
X113596009Y-90860381D02*
X113643628Y-90955619D01*
X113643628Y-90955619D02*
X113643628Y-91336571D01*
X113453152Y-90479428D02*
X113453152Y-90098476D01*
X114119819Y-90336571D02*
X113262676Y-90336571D01*
X113262676Y-90336571D02*
X113167438Y-90288952D01*
X113167438Y-90288952D02*
X113119819Y-90193714D01*
X113119819Y-90193714D02*
X113119819Y-90098476D01*
X114119819Y-89765142D02*
X113119819Y-89765142D01*
X113500771Y-89765142D02*
X113453152Y-89669904D01*
X113453152Y-89669904D02*
X113453152Y-89479428D01*
X113453152Y-89479428D02*
X113500771Y-89384190D01*
X113500771Y-89384190D02*
X113548390Y-89336571D01*
X113548390Y-89336571D02*
X113643628Y-89288952D01*
X113643628Y-89288952D02*
X113929342Y-89288952D01*
X113929342Y-89288952D02*
X114024580Y-89336571D01*
X114024580Y-89336571D02*
X114072200Y-89384190D01*
X114072200Y-89384190D02*
X114119819Y-89479428D01*
X114119819Y-89479428D02*
X114119819Y-89669904D01*
X114119819Y-89669904D02*
X114072200Y-89765142D01*
X114119819Y-88860380D02*
X113119819Y-88860380D01*
X113500771Y-88860380D02*
X113453152Y-88765142D01*
X113453152Y-88765142D02*
X113453152Y-88574666D01*
X113453152Y-88574666D02*
X113500771Y-88479428D01*
X113500771Y-88479428D02*
X113548390Y-88431809D01*
X113548390Y-88431809D02*
X113643628Y-88384190D01*
X113643628Y-88384190D02*
X113929342Y-88384190D01*
X113929342Y-88384190D02*
X114024580Y-88431809D01*
X114024580Y-88431809D02*
X114072200Y-88479428D01*
X114072200Y-88479428D02*
X114119819Y-88574666D01*
X114119819Y-88574666D02*
X114119819Y-88765142D01*
X114119819Y-88765142D02*
X114072200Y-88860380D01*
X113215057Y-88003237D02*
X113167438Y-87955618D01*
X113167438Y-87955618D02*
X113119819Y-87860380D01*
X113119819Y-87860380D02*
X113119819Y-87622285D01*
X113119819Y-87622285D02*
X113167438Y-87527047D01*
X113167438Y-87527047D02*
X113215057Y-87479428D01*
X113215057Y-87479428D02*
X113310295Y-87431809D01*
X113310295Y-87431809D02*
X113405533Y-87431809D01*
X113405533Y-87431809D02*
X113548390Y-87479428D01*
X113548390Y-87479428D02*
X114119819Y-88050856D01*
X114119819Y-88050856D02*
X114119819Y-87431809D01*
X97964666Y-77686819D02*
X97964666Y-78401104D01*
X97964666Y-78401104D02*
X97917047Y-78543961D01*
X97917047Y-78543961D02*
X97821809Y-78639200D01*
X97821809Y-78639200D02*
X97678952Y-78686819D01*
X97678952Y-78686819D02*
X97583714Y-78686819D01*
X98964666Y-78686819D02*
X98393238Y-78686819D01*
X98678952Y-78686819D02*
X98678952Y-77686819D01*
X98678952Y-77686819D02*
X98583714Y-77829676D01*
X98583714Y-77829676D02*
X98488476Y-77924914D01*
X98488476Y-77924914D02*
X98393238Y-77972533D01*
X113523819Y-73112143D02*
X113047628Y-73445476D01*
X113523819Y-73683571D02*
X112523819Y-73683571D01*
X112523819Y-73683571D02*
X112523819Y-73302619D01*
X112523819Y-73302619D02*
X112571438Y-73207381D01*
X112571438Y-73207381D02*
X112619057Y-73159762D01*
X112619057Y-73159762D02*
X112714295Y-73112143D01*
X112714295Y-73112143D02*
X112857152Y-73112143D01*
X112857152Y-73112143D02*
X112952390Y-73159762D01*
X112952390Y-73159762D02*
X113000009Y-73207381D01*
X113000009Y-73207381D02*
X113047628Y-73302619D01*
X113047628Y-73302619D02*
X113047628Y-73683571D01*
X112857152Y-72826428D02*
X112857152Y-72445476D01*
X113523819Y-72683571D02*
X112666676Y-72683571D01*
X112666676Y-72683571D02*
X112571438Y-72635952D01*
X112571438Y-72635952D02*
X112523819Y-72540714D01*
X112523819Y-72540714D02*
X112523819Y-72445476D01*
X113523819Y-72112142D02*
X112523819Y-72112142D01*
X112904771Y-72112142D02*
X112857152Y-72016904D01*
X112857152Y-72016904D02*
X112857152Y-71826428D01*
X112857152Y-71826428D02*
X112904771Y-71731190D01*
X112904771Y-71731190D02*
X112952390Y-71683571D01*
X112952390Y-71683571D02*
X113047628Y-71635952D01*
X113047628Y-71635952D02*
X113333342Y-71635952D01*
X113333342Y-71635952D02*
X113428580Y-71683571D01*
X113428580Y-71683571D02*
X113476200Y-71731190D01*
X113476200Y-71731190D02*
X113523819Y-71826428D01*
X113523819Y-71826428D02*
X113523819Y-72016904D01*
X113523819Y-72016904D02*
X113476200Y-72112142D01*
X113523819Y-71207380D02*
X112523819Y-71207380D01*
X112904771Y-71207380D02*
X112857152Y-71112142D01*
X112857152Y-71112142D02*
X112857152Y-70921666D01*
X112857152Y-70921666D02*
X112904771Y-70826428D01*
X112904771Y-70826428D02*
X112952390Y-70778809D01*
X112952390Y-70778809D02*
X113047628Y-70731190D01*
X113047628Y-70731190D02*
X113333342Y-70731190D01*
X113333342Y-70731190D02*
X113428580Y-70778809D01*
X113428580Y-70778809D02*
X113476200Y-70826428D01*
X113476200Y-70826428D02*
X113523819Y-70921666D01*
X113523819Y-70921666D02*
X113523819Y-71112142D01*
X113523819Y-71112142D02*
X113476200Y-71207380D01*
X113523819Y-69778809D02*
X113523819Y-70350237D01*
X113523819Y-70064523D02*
X112523819Y-70064523D01*
X112523819Y-70064523D02*
X112666676Y-70159761D01*
X112666676Y-70159761D02*
X112761914Y-70254999D01*
X112761914Y-70254999D02*
X112809533Y-70350237D01*
X190896666Y-94979819D02*
X190896666Y-95694104D01*
X190896666Y-95694104D02*
X190849047Y-95836961D01*
X190849047Y-95836961D02*
X190753809Y-95932200D01*
X190753809Y-95932200D02*
X190610952Y-95979819D01*
X190610952Y-95979819D02*
X190515714Y-95979819D01*
X191515714Y-95408390D02*
X191420476Y-95360771D01*
X191420476Y-95360771D02*
X191372857Y-95313152D01*
X191372857Y-95313152D02*
X191325238Y-95217914D01*
X191325238Y-95217914D02*
X191325238Y-95170295D01*
X191325238Y-95170295D02*
X191372857Y-95075057D01*
X191372857Y-95075057D02*
X191420476Y-95027438D01*
X191420476Y-95027438D02*
X191515714Y-94979819D01*
X191515714Y-94979819D02*
X191706190Y-94979819D01*
X191706190Y-94979819D02*
X191801428Y-95027438D01*
X191801428Y-95027438D02*
X191849047Y-95075057D01*
X191849047Y-95075057D02*
X191896666Y-95170295D01*
X191896666Y-95170295D02*
X191896666Y-95217914D01*
X191896666Y-95217914D02*
X191849047Y-95313152D01*
X191849047Y-95313152D02*
X191801428Y-95360771D01*
X191801428Y-95360771D02*
X191706190Y-95408390D01*
X191706190Y-95408390D02*
X191515714Y-95408390D01*
X191515714Y-95408390D02*
X191420476Y-95456009D01*
X191420476Y-95456009D02*
X191372857Y-95503628D01*
X191372857Y-95503628D02*
X191325238Y-95598866D01*
X191325238Y-95598866D02*
X191325238Y-95789342D01*
X191325238Y-95789342D02*
X191372857Y-95884580D01*
X191372857Y-95884580D02*
X191420476Y-95932200D01*
X191420476Y-95932200D02*
X191515714Y-95979819D01*
X191515714Y-95979819D02*
X191706190Y-95979819D01*
X191706190Y-95979819D02*
X191801428Y-95932200D01*
X191801428Y-95932200D02*
X191849047Y-95884580D01*
X191849047Y-95884580D02*
X191896666Y-95789342D01*
X191896666Y-95789342D02*
X191896666Y-95598866D01*
X191896666Y-95598866D02*
X191849047Y-95503628D01*
X191849047Y-95503628D02*
X191801428Y-95456009D01*
X191801428Y-95456009D02*
X191706190Y-95408390D01*
X171180476Y-65854819D02*
X171180476Y-66569104D01*
X171180476Y-66569104D02*
X171132857Y-66711961D01*
X171132857Y-66711961D02*
X171037619Y-66807200D01*
X171037619Y-66807200D02*
X170894762Y-66854819D01*
X170894762Y-66854819D02*
X170799524Y-66854819D01*
X172180476Y-66854819D02*
X171609048Y-66854819D01*
X171894762Y-66854819D02*
X171894762Y-65854819D01*
X171894762Y-65854819D02*
X171799524Y-65997676D01*
X171799524Y-65997676D02*
X171704286Y-66092914D01*
X171704286Y-66092914D02*
X171609048Y-66140533D01*
X172561429Y-65950057D02*
X172609048Y-65902438D01*
X172609048Y-65902438D02*
X172704286Y-65854819D01*
X172704286Y-65854819D02*
X172942381Y-65854819D01*
X172942381Y-65854819D02*
X173037619Y-65902438D01*
X173037619Y-65902438D02*
X173085238Y-65950057D01*
X173085238Y-65950057D02*
X173132857Y-66045295D01*
X173132857Y-66045295D02*
X173132857Y-66140533D01*
X173132857Y-66140533D02*
X173085238Y-66283390D01*
X173085238Y-66283390D02*
X172513810Y-66854819D01*
X172513810Y-66854819D02*
X173132857Y-66854819D01*
X109452580Y-95091142D02*
X109500200Y-95138761D01*
X109500200Y-95138761D02*
X109547819Y-95281618D01*
X109547819Y-95281618D02*
X109547819Y-95376856D01*
X109547819Y-95376856D02*
X109500200Y-95519713D01*
X109500200Y-95519713D02*
X109404961Y-95614951D01*
X109404961Y-95614951D02*
X109309723Y-95662570D01*
X109309723Y-95662570D02*
X109119247Y-95710189D01*
X109119247Y-95710189D02*
X108976390Y-95710189D01*
X108976390Y-95710189D02*
X108785914Y-95662570D01*
X108785914Y-95662570D02*
X108690676Y-95614951D01*
X108690676Y-95614951D02*
X108595438Y-95519713D01*
X108595438Y-95519713D02*
X108547819Y-95376856D01*
X108547819Y-95376856D02*
X108547819Y-95281618D01*
X108547819Y-95281618D02*
X108595438Y-95138761D01*
X108595438Y-95138761D02*
X108643057Y-95091142D01*
X109547819Y-94662570D02*
X108881152Y-94662570D01*
X108547819Y-94662570D02*
X108595438Y-94710189D01*
X108595438Y-94710189D02*
X108643057Y-94662570D01*
X108643057Y-94662570D02*
X108595438Y-94614951D01*
X108595438Y-94614951D02*
X108547819Y-94662570D01*
X108547819Y-94662570D02*
X108643057Y-94662570D01*
X108881152Y-94186380D02*
X109547819Y-94186380D01*
X108976390Y-94186380D02*
X108928771Y-94138761D01*
X108928771Y-94138761D02*
X108881152Y-94043523D01*
X108881152Y-94043523D02*
X108881152Y-93900666D01*
X108881152Y-93900666D02*
X108928771Y-93805428D01*
X108928771Y-93805428D02*
X109024009Y-93757809D01*
X109024009Y-93757809D02*
X109547819Y-93757809D01*
X108643057Y-93329237D02*
X108595438Y-93281618D01*
X108595438Y-93281618D02*
X108547819Y-93186380D01*
X108547819Y-93186380D02*
X108547819Y-92948285D01*
X108547819Y-92948285D02*
X108595438Y-92853047D01*
X108595438Y-92853047D02*
X108643057Y-92805428D01*
X108643057Y-92805428D02*
X108738295Y-92757809D01*
X108738295Y-92757809D02*
X108833533Y-92757809D01*
X108833533Y-92757809D02*
X108976390Y-92805428D01*
X108976390Y-92805428D02*
X109547819Y-93376856D01*
X109547819Y-93376856D02*
X109547819Y-92757809D01*
X136993333Y-76654819D02*
X136660000Y-76178628D01*
X136421905Y-76654819D02*
X136421905Y-75654819D01*
X136421905Y-75654819D02*
X136802857Y-75654819D01*
X136802857Y-75654819D02*
X136898095Y-75702438D01*
X136898095Y-75702438D02*
X136945714Y-75750057D01*
X136945714Y-75750057D02*
X136993333Y-75845295D01*
X136993333Y-75845295D02*
X136993333Y-75988152D01*
X136993333Y-75988152D02*
X136945714Y-76083390D01*
X136945714Y-76083390D02*
X136898095Y-76131009D01*
X136898095Y-76131009D02*
X136802857Y-76178628D01*
X136802857Y-76178628D02*
X136421905Y-76178628D01*
X137374286Y-75750057D02*
X137421905Y-75702438D01*
X137421905Y-75702438D02*
X137517143Y-75654819D01*
X137517143Y-75654819D02*
X137755238Y-75654819D01*
X137755238Y-75654819D02*
X137850476Y-75702438D01*
X137850476Y-75702438D02*
X137898095Y-75750057D01*
X137898095Y-75750057D02*
X137945714Y-75845295D01*
X137945714Y-75845295D02*
X137945714Y-75940533D01*
X137945714Y-75940533D02*
X137898095Y-76083390D01*
X137898095Y-76083390D02*
X137326667Y-76654819D01*
X137326667Y-76654819D02*
X137945714Y-76654819D01*
X124858580Y-74151905D02*
X124906200Y-74199524D01*
X124906200Y-74199524D02*
X124953819Y-74342381D01*
X124953819Y-74342381D02*
X124953819Y-74437619D01*
X124953819Y-74437619D02*
X124906200Y-74580476D01*
X124906200Y-74580476D02*
X124810961Y-74675714D01*
X124810961Y-74675714D02*
X124715723Y-74723333D01*
X124715723Y-74723333D02*
X124525247Y-74770952D01*
X124525247Y-74770952D02*
X124382390Y-74770952D01*
X124382390Y-74770952D02*
X124191914Y-74723333D01*
X124191914Y-74723333D02*
X124096676Y-74675714D01*
X124096676Y-74675714D02*
X124001438Y-74580476D01*
X124001438Y-74580476D02*
X123953819Y-74437619D01*
X123953819Y-74437619D02*
X123953819Y-74342381D01*
X123953819Y-74342381D02*
X124001438Y-74199524D01*
X124001438Y-74199524D02*
X124049057Y-74151905D01*
X124953819Y-73580476D02*
X124906200Y-73675714D01*
X124906200Y-73675714D02*
X124858580Y-73723333D01*
X124858580Y-73723333D02*
X124763342Y-73770952D01*
X124763342Y-73770952D02*
X124477628Y-73770952D01*
X124477628Y-73770952D02*
X124382390Y-73723333D01*
X124382390Y-73723333D02*
X124334771Y-73675714D01*
X124334771Y-73675714D02*
X124287152Y-73580476D01*
X124287152Y-73580476D02*
X124287152Y-73437619D01*
X124287152Y-73437619D02*
X124334771Y-73342381D01*
X124334771Y-73342381D02*
X124382390Y-73294762D01*
X124382390Y-73294762D02*
X124477628Y-73247143D01*
X124477628Y-73247143D02*
X124763342Y-73247143D01*
X124763342Y-73247143D02*
X124858580Y-73294762D01*
X124858580Y-73294762D02*
X124906200Y-73342381D01*
X124906200Y-73342381D02*
X124953819Y-73437619D01*
X124953819Y-73437619D02*
X124953819Y-73580476D01*
X124287152Y-72390000D02*
X124953819Y-72390000D01*
X124287152Y-72818571D02*
X124810961Y-72818571D01*
X124810961Y-72818571D02*
X124906200Y-72770952D01*
X124906200Y-72770952D02*
X124953819Y-72675714D01*
X124953819Y-72675714D02*
X124953819Y-72532857D01*
X124953819Y-72532857D02*
X124906200Y-72437619D01*
X124906200Y-72437619D02*
X124858580Y-72390000D01*
X124287152Y-72056666D02*
X124287152Y-71675714D01*
X123953819Y-71913809D02*
X124810961Y-71913809D01*
X124810961Y-71913809D02*
X124906200Y-71866190D01*
X124906200Y-71866190D02*
X124953819Y-71770952D01*
X124953819Y-71770952D02*
X124953819Y-71675714D01*
X124953819Y-71437618D02*
X124287152Y-70913809D01*
X124287152Y-71437618D02*
X124953819Y-70913809D01*
X124953819Y-70009047D02*
X124953819Y-70580475D01*
X124953819Y-70294761D02*
X123953819Y-70294761D01*
X123953819Y-70294761D02*
X124096676Y-70389999D01*
X124096676Y-70389999D02*
X124191914Y-70485237D01*
X124191914Y-70485237D02*
X124239533Y-70580475D01*
X152796666Y-94979819D02*
X152796666Y-95694104D01*
X152796666Y-95694104D02*
X152749047Y-95836961D01*
X152749047Y-95836961D02*
X152653809Y-95932200D01*
X152653809Y-95932200D02*
X152510952Y-95979819D01*
X152510952Y-95979819D02*
X152415714Y-95979819D01*
X153701428Y-95313152D02*
X153701428Y-95979819D01*
X153463333Y-94932200D02*
X153225238Y-95646485D01*
X153225238Y-95646485D02*
X153844285Y-95646485D01*
X163740180Y-88773095D02*
X162930657Y-88773095D01*
X162930657Y-88773095D02*
X162835419Y-88820714D01*
X162835419Y-88820714D02*
X162787800Y-88868333D01*
X162787800Y-88868333D02*
X162740180Y-88963571D01*
X162740180Y-88963571D02*
X162740180Y-89154047D01*
X162740180Y-89154047D02*
X162787800Y-89249285D01*
X162787800Y-89249285D02*
X162835419Y-89296904D01*
X162835419Y-89296904D02*
X162930657Y-89344523D01*
X162930657Y-89344523D02*
X163740180Y-89344523D01*
X162740180Y-90344523D02*
X162740180Y-89773095D01*
X162740180Y-90058809D02*
X163740180Y-90058809D01*
X163740180Y-90058809D02*
X163597323Y-89963571D01*
X163597323Y-89963571D02*
X163502085Y-89868333D01*
X163502085Y-89868333D02*
X163454466Y-89773095D01*
X165784880Y-89535000D02*
X165546785Y-89535000D01*
X165642023Y-89296905D02*
X165546785Y-89535000D01*
X165546785Y-89535000D02*
X165642023Y-89773095D01*
X165356309Y-89392143D02*
X165546785Y-89535000D01*
X165546785Y-89535000D02*
X165356309Y-89677857D01*
X164694519Y-85724999D02*
X164932614Y-85724999D01*
X164837376Y-85963094D02*
X164932614Y-85724999D01*
X164932614Y-85724999D02*
X164837376Y-85486904D01*
X165123090Y-85867856D02*
X164932614Y-85724999D01*
X164932614Y-85724999D02*
X165123090Y-85582142D01*
X115548580Y-91701762D02*
X115596200Y-91749381D01*
X115596200Y-91749381D02*
X115643819Y-91892238D01*
X115643819Y-91892238D02*
X115643819Y-91987476D01*
X115643819Y-91987476D02*
X115596200Y-92130333D01*
X115596200Y-92130333D02*
X115500961Y-92225571D01*
X115500961Y-92225571D02*
X115405723Y-92273190D01*
X115405723Y-92273190D02*
X115215247Y-92320809D01*
X115215247Y-92320809D02*
X115072390Y-92320809D01*
X115072390Y-92320809D02*
X114881914Y-92273190D01*
X114881914Y-92273190D02*
X114786676Y-92225571D01*
X114786676Y-92225571D02*
X114691438Y-92130333D01*
X114691438Y-92130333D02*
X114643819Y-91987476D01*
X114643819Y-91987476D02*
X114643819Y-91892238D01*
X114643819Y-91892238D02*
X114691438Y-91749381D01*
X114691438Y-91749381D02*
X114739057Y-91701762D01*
X114977152Y-91368428D02*
X115643819Y-91130333D01*
X115643819Y-91130333D02*
X114977152Y-90892238D01*
X115596200Y-90082714D02*
X115643819Y-90177952D01*
X115643819Y-90177952D02*
X115643819Y-90368428D01*
X115643819Y-90368428D02*
X115596200Y-90463666D01*
X115596200Y-90463666D02*
X115548580Y-90511285D01*
X115548580Y-90511285D02*
X115453342Y-90558904D01*
X115453342Y-90558904D02*
X115167628Y-90558904D01*
X115167628Y-90558904D02*
X115072390Y-90511285D01*
X115072390Y-90511285D02*
X115024771Y-90463666D01*
X115024771Y-90463666D02*
X114977152Y-90368428D01*
X114977152Y-90368428D02*
X114977152Y-90177952D01*
X114977152Y-90177952D02*
X115024771Y-90082714D01*
X115596200Y-89225571D02*
X115643819Y-89320809D01*
X115643819Y-89320809D02*
X115643819Y-89511285D01*
X115643819Y-89511285D02*
X115596200Y-89606523D01*
X115596200Y-89606523D02*
X115548580Y-89654142D01*
X115548580Y-89654142D02*
X115453342Y-89701761D01*
X115453342Y-89701761D02*
X115167628Y-89701761D01*
X115167628Y-89701761D02*
X115072390Y-89654142D01*
X115072390Y-89654142D02*
X115024771Y-89606523D01*
X115024771Y-89606523D02*
X114977152Y-89511285D01*
X114977152Y-89511285D02*
X114977152Y-89320809D01*
X114977152Y-89320809D02*
X115024771Y-89225571D01*
X114739057Y-88844618D02*
X114691438Y-88796999D01*
X114691438Y-88796999D02*
X114643819Y-88701761D01*
X114643819Y-88701761D02*
X114643819Y-88463666D01*
X114643819Y-88463666D02*
X114691438Y-88368428D01*
X114691438Y-88368428D02*
X114739057Y-88320809D01*
X114739057Y-88320809D02*
X114834295Y-88273190D01*
X114834295Y-88273190D02*
X114929533Y-88273190D01*
X114929533Y-88273190D02*
X115072390Y-88320809D01*
X115072390Y-88320809D02*
X115643819Y-88892237D01*
X115643819Y-88892237D02*
X115643819Y-88273190D01*
X107166580Y-95495904D02*
X107214200Y-95543523D01*
X107214200Y-95543523D02*
X107261819Y-95686380D01*
X107261819Y-95686380D02*
X107261819Y-95781618D01*
X107261819Y-95781618D02*
X107214200Y-95924475D01*
X107214200Y-95924475D02*
X107118961Y-96019713D01*
X107118961Y-96019713D02*
X107023723Y-96067332D01*
X107023723Y-96067332D02*
X106833247Y-96114951D01*
X106833247Y-96114951D02*
X106690390Y-96114951D01*
X106690390Y-96114951D02*
X106499914Y-96067332D01*
X106499914Y-96067332D02*
X106404676Y-96019713D01*
X106404676Y-96019713D02*
X106309438Y-95924475D01*
X106309438Y-95924475D02*
X106261819Y-95781618D01*
X106261819Y-95781618D02*
X106261819Y-95686380D01*
X106261819Y-95686380D02*
X106309438Y-95543523D01*
X106309438Y-95543523D02*
X106357057Y-95495904D01*
X107261819Y-95067332D02*
X106595152Y-95067332D01*
X106261819Y-95067332D02*
X106309438Y-95114951D01*
X106309438Y-95114951D02*
X106357057Y-95067332D01*
X106357057Y-95067332D02*
X106309438Y-95019713D01*
X106309438Y-95019713D02*
X106261819Y-95067332D01*
X106261819Y-95067332D02*
X106357057Y-95067332D01*
X106595152Y-94591142D02*
X107261819Y-94591142D01*
X106690390Y-94591142D02*
X106642771Y-94543523D01*
X106642771Y-94543523D02*
X106595152Y-94448285D01*
X106595152Y-94448285D02*
X106595152Y-94305428D01*
X106595152Y-94305428D02*
X106642771Y-94210190D01*
X106642771Y-94210190D02*
X106738009Y-94162571D01*
X106738009Y-94162571D02*
X107261819Y-94162571D01*
X107261819Y-93781618D02*
X106595152Y-93257809D01*
X106595152Y-93781618D02*
X107261819Y-93257809D01*
X106357057Y-92924475D02*
X106309438Y-92876856D01*
X106309438Y-92876856D02*
X106261819Y-92781618D01*
X106261819Y-92781618D02*
X106261819Y-92543523D01*
X106261819Y-92543523D02*
X106309438Y-92448285D01*
X106309438Y-92448285D02*
X106357057Y-92400666D01*
X106357057Y-92400666D02*
X106452295Y-92353047D01*
X106452295Y-92353047D02*
X106547533Y-92353047D01*
X106547533Y-92353047D02*
X106690390Y-92400666D01*
X106690390Y-92400666D02*
X107261819Y-92972094D01*
X107261819Y-92972094D02*
X107261819Y-92353047D01*
X121517580Y-91273143D02*
X121565200Y-91320762D01*
X121565200Y-91320762D02*
X121612819Y-91463619D01*
X121612819Y-91463619D02*
X121612819Y-91558857D01*
X121612819Y-91558857D02*
X121565200Y-91701714D01*
X121565200Y-91701714D02*
X121469961Y-91796952D01*
X121469961Y-91796952D02*
X121374723Y-91844571D01*
X121374723Y-91844571D02*
X121184247Y-91892190D01*
X121184247Y-91892190D02*
X121041390Y-91892190D01*
X121041390Y-91892190D02*
X120850914Y-91844571D01*
X120850914Y-91844571D02*
X120755676Y-91796952D01*
X120755676Y-91796952D02*
X120660438Y-91701714D01*
X120660438Y-91701714D02*
X120612819Y-91558857D01*
X120612819Y-91558857D02*
X120612819Y-91463619D01*
X120612819Y-91463619D02*
X120660438Y-91320762D01*
X120660438Y-91320762D02*
X120708057Y-91273143D01*
X121612819Y-90701714D02*
X121565200Y-90796952D01*
X121565200Y-90796952D02*
X121517580Y-90844571D01*
X121517580Y-90844571D02*
X121422342Y-90892190D01*
X121422342Y-90892190D02*
X121136628Y-90892190D01*
X121136628Y-90892190D02*
X121041390Y-90844571D01*
X121041390Y-90844571D02*
X120993771Y-90796952D01*
X120993771Y-90796952D02*
X120946152Y-90701714D01*
X120946152Y-90701714D02*
X120946152Y-90558857D01*
X120946152Y-90558857D02*
X120993771Y-90463619D01*
X120993771Y-90463619D02*
X121041390Y-90416000D01*
X121041390Y-90416000D02*
X121136628Y-90368381D01*
X121136628Y-90368381D02*
X121422342Y-90368381D01*
X121422342Y-90368381D02*
X121517580Y-90416000D01*
X121517580Y-90416000D02*
X121565200Y-90463619D01*
X121565200Y-90463619D02*
X121612819Y-90558857D01*
X121612819Y-90558857D02*
X121612819Y-90701714D01*
X120946152Y-89511238D02*
X121612819Y-89511238D01*
X120946152Y-89939809D02*
X121469961Y-89939809D01*
X121469961Y-89939809D02*
X121565200Y-89892190D01*
X121565200Y-89892190D02*
X121612819Y-89796952D01*
X121612819Y-89796952D02*
X121612819Y-89654095D01*
X121612819Y-89654095D02*
X121565200Y-89558857D01*
X121565200Y-89558857D02*
X121517580Y-89511238D01*
X120946152Y-89177904D02*
X120946152Y-88796952D01*
X120612819Y-89035047D02*
X121469961Y-89035047D01*
X121469961Y-89035047D02*
X121565200Y-88987428D01*
X121565200Y-88987428D02*
X121612819Y-88892190D01*
X121612819Y-88892190D02*
X121612819Y-88796952D01*
X120708057Y-88511237D02*
X120660438Y-88463618D01*
X120660438Y-88463618D02*
X120612819Y-88368380D01*
X120612819Y-88368380D02*
X120612819Y-88130285D01*
X120612819Y-88130285D02*
X120660438Y-88035047D01*
X120660438Y-88035047D02*
X120708057Y-87987428D01*
X120708057Y-87987428D02*
X120803295Y-87939809D01*
X120803295Y-87939809D02*
X120898533Y-87939809D01*
X120898533Y-87939809D02*
X121041390Y-87987428D01*
X121041390Y-87987428D02*
X121612819Y-88558856D01*
X121612819Y-88558856D02*
X121612819Y-87939809D01*
X133183333Y-76654819D02*
X132850000Y-76178628D01*
X132611905Y-76654819D02*
X132611905Y-75654819D01*
X132611905Y-75654819D02*
X132992857Y-75654819D01*
X132992857Y-75654819D02*
X133088095Y-75702438D01*
X133088095Y-75702438D02*
X133135714Y-75750057D01*
X133135714Y-75750057D02*
X133183333Y-75845295D01*
X133183333Y-75845295D02*
X133183333Y-75988152D01*
X133183333Y-75988152D02*
X133135714Y-76083390D01*
X133135714Y-76083390D02*
X133088095Y-76131009D01*
X133088095Y-76131009D02*
X132992857Y-76178628D01*
X132992857Y-76178628D02*
X132611905Y-76178628D01*
X134135714Y-76654819D02*
X133564286Y-76654819D01*
X133850000Y-76654819D02*
X133850000Y-75654819D01*
X133850000Y-75654819D02*
X133754762Y-75797676D01*
X133754762Y-75797676D02*
X133659524Y-75892914D01*
X133659524Y-75892914D02*
X133564286Y-75940533D01*
X190230476Y-65854819D02*
X190230476Y-66569104D01*
X190230476Y-66569104D02*
X190182857Y-66711961D01*
X190182857Y-66711961D02*
X190087619Y-66807200D01*
X190087619Y-66807200D02*
X189944762Y-66854819D01*
X189944762Y-66854819D02*
X189849524Y-66854819D01*
X191230476Y-66854819D02*
X190659048Y-66854819D01*
X190944762Y-66854819D02*
X190944762Y-65854819D01*
X190944762Y-65854819D02*
X190849524Y-65997676D01*
X190849524Y-65997676D02*
X190754286Y-66092914D01*
X190754286Y-66092914D02*
X190659048Y-66140533D01*
X191849524Y-65854819D02*
X191944762Y-65854819D01*
X191944762Y-65854819D02*
X192040000Y-65902438D01*
X192040000Y-65902438D02*
X192087619Y-65950057D01*
X192087619Y-65950057D02*
X192135238Y-66045295D01*
X192135238Y-66045295D02*
X192182857Y-66235771D01*
X192182857Y-66235771D02*
X192182857Y-66473866D01*
X192182857Y-66473866D02*
X192135238Y-66664342D01*
X192135238Y-66664342D02*
X192087619Y-66759580D01*
X192087619Y-66759580D02*
X192040000Y-66807200D01*
X192040000Y-66807200D02*
X191944762Y-66854819D01*
X191944762Y-66854819D02*
X191849524Y-66854819D01*
X191849524Y-66854819D02*
X191754286Y-66807200D01*
X191754286Y-66807200D02*
X191706667Y-66759580D01*
X191706667Y-66759580D02*
X191659048Y-66664342D01*
X191659048Y-66664342D02*
X191611429Y-66473866D01*
X191611429Y-66473866D02*
X191611429Y-66235771D01*
X191611429Y-66235771D02*
X191659048Y-66045295D01*
X191659048Y-66045295D02*
X191706667Y-65950057D01*
X191706667Y-65950057D02*
X191754286Y-65902438D01*
X191754286Y-65902438D02*
X191849524Y-65854819D01*
X129675095Y-93053819D02*
X130246523Y-93053819D01*
X129960809Y-94053819D02*
X129960809Y-93053819D01*
X130579857Y-94053819D02*
X130579857Y-93053819D01*
X130579857Y-93053819D02*
X130960809Y-93053819D01*
X130960809Y-93053819D02*
X131056047Y-93101438D01*
X131056047Y-93101438D02*
X131103666Y-93149057D01*
X131103666Y-93149057D02*
X131151285Y-93244295D01*
X131151285Y-93244295D02*
X131151285Y-93387152D01*
X131151285Y-93387152D02*
X131103666Y-93482390D01*
X131103666Y-93482390D02*
X131056047Y-93530009D01*
X131056047Y-93530009D02*
X130960809Y-93577628D01*
X130960809Y-93577628D02*
X130579857Y-93577628D01*
X131532238Y-93149057D02*
X131579857Y-93101438D01*
X131579857Y-93101438D02*
X131675095Y-93053819D01*
X131675095Y-93053819D02*
X131913190Y-93053819D01*
X131913190Y-93053819D02*
X132008428Y-93101438D01*
X132008428Y-93101438D02*
X132056047Y-93149057D01*
X132056047Y-93149057D02*
X132103666Y-93244295D01*
X132103666Y-93244295D02*
X132103666Y-93339533D01*
X132103666Y-93339533D02*
X132056047Y-93482390D01*
X132056047Y-93482390D02*
X131484619Y-94053819D01*
X131484619Y-94053819D02*
X132103666Y-94053819D01*
X138438095Y-75019819D02*
X139009523Y-75019819D01*
X138723809Y-76019819D02*
X138723809Y-75019819D01*
X139342857Y-76019819D02*
X139342857Y-75019819D01*
X139342857Y-75019819D02*
X139723809Y-75019819D01*
X139723809Y-75019819D02*
X139819047Y-75067438D01*
X139819047Y-75067438D02*
X139866666Y-75115057D01*
X139866666Y-75115057D02*
X139914285Y-75210295D01*
X139914285Y-75210295D02*
X139914285Y-75353152D01*
X139914285Y-75353152D02*
X139866666Y-75448390D01*
X139866666Y-75448390D02*
X139819047Y-75496009D01*
X139819047Y-75496009D02*
X139723809Y-75543628D01*
X139723809Y-75543628D02*
X139342857Y-75543628D01*
X140866666Y-76019819D02*
X140295238Y-76019819D01*
X140580952Y-76019819D02*
X140580952Y-75019819D01*
X140580952Y-75019819D02*
X140485714Y-75162676D01*
X140485714Y-75162676D02*
X140390476Y-75257914D01*
X140390476Y-75257914D02*
X140295238Y-75305533D01*
X163729819Y-84734523D02*
X164444104Y-84734523D01*
X164444104Y-84734523D02*
X164586961Y-84782142D01*
X164586961Y-84782142D02*
X164682200Y-84877380D01*
X164682200Y-84877380D02*
X164729819Y-85020237D01*
X164729819Y-85020237D02*
X164729819Y-85115475D01*
X164729819Y-83734523D02*
X164729819Y-84305951D01*
X164729819Y-84020237D02*
X163729819Y-84020237D01*
X163729819Y-84020237D02*
X163872676Y-84115475D01*
X163872676Y-84115475D02*
X163967914Y-84210713D01*
X163967914Y-84210713D02*
X164015533Y-84305951D01*
X163729819Y-83401189D02*
X163729819Y-82734523D01*
X163729819Y-82734523D02*
X164729819Y-83163094D01*
D11*
X134454318Y-86304362D02*
X133184318Y-86304362D01*
X134333365Y-84973885D02*
X134393842Y-85034361D01*
X134393842Y-85034361D02*
X134454318Y-85215790D01*
X134454318Y-85215790D02*
X134454318Y-85336742D01*
X134454318Y-85336742D02*
X134393842Y-85518171D01*
X134393842Y-85518171D02*
X134272889Y-85639123D01*
X134272889Y-85639123D02*
X134151937Y-85699600D01*
X134151937Y-85699600D02*
X133910032Y-85760076D01*
X133910032Y-85760076D02*
X133728603Y-85760076D01*
X133728603Y-85760076D02*
X133486699Y-85699600D01*
X133486699Y-85699600D02*
X133365746Y-85639123D01*
X133365746Y-85639123D02*
X133244794Y-85518171D01*
X133244794Y-85518171D02*
X133184318Y-85336742D01*
X133184318Y-85336742D02*
X133184318Y-85215790D01*
X133184318Y-85215790D02*
X133244794Y-85034361D01*
X133244794Y-85034361D02*
X133305270Y-84973885D01*
X134454318Y-83764361D02*
X134454318Y-84490076D01*
X134454318Y-84127219D02*
X133184318Y-84127219D01*
X133184318Y-84127219D02*
X133365746Y-84248171D01*
X133365746Y-84248171D02*
X133486699Y-84369123D01*
X133486699Y-84369123D02*
X133547175Y-84490076D01*
D10*
X171846666Y-94979819D02*
X171846666Y-95694104D01*
X171846666Y-95694104D02*
X171799047Y-95836961D01*
X171799047Y-95836961D02*
X171703809Y-95932200D01*
X171703809Y-95932200D02*
X171560952Y-95979819D01*
X171560952Y-95979819D02*
X171465714Y-95979819D01*
X172751428Y-94979819D02*
X172560952Y-94979819D01*
X172560952Y-94979819D02*
X172465714Y-95027438D01*
X172465714Y-95027438D02*
X172418095Y-95075057D01*
X172418095Y-95075057D02*
X172322857Y-95217914D01*
X172322857Y-95217914D02*
X172275238Y-95408390D01*
X172275238Y-95408390D02*
X172275238Y-95789342D01*
X172275238Y-95789342D02*
X172322857Y-95884580D01*
X172322857Y-95884580D02*
X172370476Y-95932200D01*
X172370476Y-95932200D02*
X172465714Y-95979819D01*
X172465714Y-95979819D02*
X172656190Y-95979819D01*
X172656190Y-95979819D02*
X172751428Y-95932200D01*
X172751428Y-95932200D02*
X172799047Y-95884580D01*
X172799047Y-95884580D02*
X172846666Y-95789342D01*
X172846666Y-95789342D02*
X172846666Y-95551247D01*
X172846666Y-95551247D02*
X172799047Y-95456009D01*
X172799047Y-95456009D02*
X172751428Y-95408390D01*
X172751428Y-95408390D02*
X172656190Y-95360771D01*
X172656190Y-95360771D02*
X172465714Y-95360771D01*
X172465714Y-95360771D02*
X172370476Y-95408390D01*
X172370476Y-95408390D02*
X172322857Y-95456009D01*
X172322857Y-95456009D02*
X172275238Y-95551247D01*
X131913333Y-91164580D02*
X131865714Y-91212200D01*
X131865714Y-91212200D02*
X131722857Y-91259819D01*
X131722857Y-91259819D02*
X131627619Y-91259819D01*
X131627619Y-91259819D02*
X131484762Y-91212200D01*
X131484762Y-91212200D02*
X131389524Y-91116961D01*
X131389524Y-91116961D02*
X131341905Y-91021723D01*
X131341905Y-91021723D02*
X131294286Y-90831247D01*
X131294286Y-90831247D02*
X131294286Y-90688390D01*
X131294286Y-90688390D02*
X131341905Y-90497914D01*
X131341905Y-90497914D02*
X131389524Y-90402676D01*
X131389524Y-90402676D02*
X131484762Y-90307438D01*
X131484762Y-90307438D02*
X131627619Y-90259819D01*
X131627619Y-90259819D02*
X131722857Y-90259819D01*
X131722857Y-90259819D02*
X131865714Y-90307438D01*
X131865714Y-90307438D02*
X131913333Y-90355057D01*
X132865714Y-91259819D02*
X132294286Y-91259819D01*
X132580000Y-91259819D02*
X132580000Y-90259819D01*
X132580000Y-90259819D02*
X132484762Y-90402676D01*
X132484762Y-90402676D02*
X132389524Y-90497914D01*
X132389524Y-90497914D02*
X132294286Y-90545533D01*
X108348580Y-77819142D02*
X108396200Y-77866761D01*
X108396200Y-77866761D02*
X108443819Y-78009618D01*
X108443819Y-78009618D02*
X108443819Y-78104856D01*
X108443819Y-78104856D02*
X108396200Y-78247713D01*
X108396200Y-78247713D02*
X108300961Y-78342951D01*
X108300961Y-78342951D02*
X108205723Y-78390570D01*
X108205723Y-78390570D02*
X108015247Y-78438189D01*
X108015247Y-78438189D02*
X107872390Y-78438189D01*
X107872390Y-78438189D02*
X107681914Y-78390570D01*
X107681914Y-78390570D02*
X107586676Y-78342951D01*
X107586676Y-78342951D02*
X107491438Y-78247713D01*
X107491438Y-78247713D02*
X107443819Y-78104856D01*
X107443819Y-78104856D02*
X107443819Y-78009618D01*
X107443819Y-78009618D02*
X107491438Y-77866761D01*
X107491438Y-77866761D02*
X107539057Y-77819142D01*
X108443819Y-77390570D02*
X107777152Y-77390570D01*
X107443819Y-77390570D02*
X107491438Y-77438189D01*
X107491438Y-77438189D02*
X107539057Y-77390570D01*
X107539057Y-77390570D02*
X107491438Y-77342951D01*
X107491438Y-77342951D02*
X107443819Y-77390570D01*
X107443819Y-77390570D02*
X107539057Y-77390570D01*
X107777152Y-76914380D02*
X108443819Y-76914380D01*
X107872390Y-76914380D02*
X107824771Y-76866761D01*
X107824771Y-76866761D02*
X107777152Y-76771523D01*
X107777152Y-76771523D02*
X107777152Y-76628666D01*
X107777152Y-76628666D02*
X107824771Y-76533428D01*
X107824771Y-76533428D02*
X107920009Y-76485809D01*
X107920009Y-76485809D02*
X108443819Y-76485809D01*
X108443819Y-75485809D02*
X108443819Y-76057237D01*
X108443819Y-75771523D02*
X107443819Y-75771523D01*
X107443819Y-75771523D02*
X107586676Y-75866761D01*
X107586676Y-75866761D02*
X107681914Y-75961999D01*
X107681914Y-75961999D02*
X107729533Y-76057237D01*
X146139819Y-80136904D02*
X146949342Y-80136904D01*
X146949342Y-80136904D02*
X147044580Y-80089285D01*
X147044580Y-80089285D02*
X147092200Y-80041666D01*
X147092200Y-80041666D02*
X147139819Y-79946428D01*
X147139819Y-79946428D02*
X147139819Y-79755952D01*
X147139819Y-79755952D02*
X147092200Y-79660714D01*
X147092200Y-79660714D02*
X147044580Y-79613095D01*
X147044580Y-79613095D02*
X146949342Y-79565476D01*
X146949342Y-79565476D02*
X146139819Y-79565476D01*
X146235057Y-79136904D02*
X146187438Y-79089285D01*
X146187438Y-79089285D02*
X146139819Y-78994047D01*
X146139819Y-78994047D02*
X146139819Y-78755952D01*
X146139819Y-78755952D02*
X146187438Y-78660714D01*
X146187438Y-78660714D02*
X146235057Y-78613095D01*
X146235057Y-78613095D02*
X146330295Y-78565476D01*
X146330295Y-78565476D02*
X146425533Y-78565476D01*
X146425533Y-78565476D02*
X146568390Y-78613095D01*
X146568390Y-78613095D02*
X147139819Y-79184523D01*
X147139819Y-79184523D02*
X147139819Y-78565476D01*
X144095119Y-79374999D02*
X144333214Y-79374999D01*
X144237976Y-79613094D02*
X144333214Y-79374999D01*
X144333214Y-79374999D02*
X144237976Y-79136904D01*
X144523690Y-79517856D02*
X144333214Y-79374999D01*
X144333214Y-79374999D02*
X144523690Y-79232142D01*
X144095119Y-79374999D02*
X144333214Y-79374999D01*
X144237976Y-79613094D02*
X144333214Y-79374999D01*
X144333214Y-79374999D02*
X144237976Y-79136904D01*
X144523690Y-79517856D02*
X144333214Y-79374999D01*
X144333214Y-79374999D02*
X144523690Y-79232142D01*
X109618580Y-72493095D02*
X109666200Y-72540714D01*
X109666200Y-72540714D02*
X109713819Y-72683571D01*
X109713819Y-72683571D02*
X109713819Y-72778809D01*
X109713819Y-72778809D02*
X109666200Y-72921666D01*
X109666200Y-72921666D02*
X109570961Y-73016904D01*
X109570961Y-73016904D02*
X109475723Y-73064523D01*
X109475723Y-73064523D02*
X109285247Y-73112142D01*
X109285247Y-73112142D02*
X109142390Y-73112142D01*
X109142390Y-73112142D02*
X108951914Y-73064523D01*
X108951914Y-73064523D02*
X108856676Y-73016904D01*
X108856676Y-73016904D02*
X108761438Y-72921666D01*
X108761438Y-72921666D02*
X108713819Y-72778809D01*
X108713819Y-72778809D02*
X108713819Y-72683571D01*
X108713819Y-72683571D02*
X108761438Y-72540714D01*
X108761438Y-72540714D02*
X108809057Y-72493095D01*
X109047152Y-72207380D02*
X109047152Y-71826428D01*
X109713819Y-72064523D02*
X108856676Y-72064523D01*
X108856676Y-72064523D02*
X108761438Y-72016904D01*
X108761438Y-72016904D02*
X108713819Y-71921666D01*
X108713819Y-71921666D02*
X108713819Y-71826428D01*
X109047152Y-71635951D02*
X109047152Y-71254999D01*
X109713819Y-71493094D02*
X108856676Y-71493094D01*
X108856676Y-71493094D02*
X108761438Y-71445475D01*
X108761438Y-71445475D02*
X108713819Y-71350237D01*
X108713819Y-71350237D02*
X108713819Y-71254999D01*
X109713819Y-70397856D02*
X109713819Y-70969284D01*
X109713819Y-70683570D02*
X108713819Y-70683570D01*
X108713819Y-70683570D02*
X108856676Y-70778808D01*
X108856676Y-70778808D02*
X108951914Y-70874046D01*
X108951914Y-70874046D02*
X108999533Y-70969284D01*
X97488476Y-84544819D02*
X97488476Y-85259104D01*
X97488476Y-85259104D02*
X97440857Y-85401961D01*
X97440857Y-85401961D02*
X97345619Y-85497200D01*
X97345619Y-85497200D02*
X97202762Y-85544819D01*
X97202762Y-85544819D02*
X97107524Y-85544819D01*
X98488476Y-85544819D02*
X97917048Y-85544819D01*
X98202762Y-85544819D02*
X98202762Y-84544819D01*
X98202762Y-84544819D02*
X98107524Y-84687676D01*
X98107524Y-84687676D02*
X98012286Y-84782914D01*
X98012286Y-84782914D02*
X97917048Y-84830533D01*
X99059905Y-84973390D02*
X98964667Y-84925771D01*
X98964667Y-84925771D02*
X98917048Y-84878152D01*
X98917048Y-84878152D02*
X98869429Y-84782914D01*
X98869429Y-84782914D02*
X98869429Y-84735295D01*
X98869429Y-84735295D02*
X98917048Y-84640057D01*
X98917048Y-84640057D02*
X98964667Y-84592438D01*
X98964667Y-84592438D02*
X99059905Y-84544819D01*
X99059905Y-84544819D02*
X99250381Y-84544819D01*
X99250381Y-84544819D02*
X99345619Y-84592438D01*
X99345619Y-84592438D02*
X99393238Y-84640057D01*
X99393238Y-84640057D02*
X99440857Y-84735295D01*
X99440857Y-84735295D02*
X99440857Y-84782914D01*
X99440857Y-84782914D02*
X99393238Y-84878152D01*
X99393238Y-84878152D02*
X99345619Y-84925771D01*
X99345619Y-84925771D02*
X99250381Y-84973390D01*
X99250381Y-84973390D02*
X99059905Y-84973390D01*
X99059905Y-84973390D02*
X98964667Y-85021009D01*
X98964667Y-85021009D02*
X98917048Y-85068628D01*
X98917048Y-85068628D02*
X98869429Y-85163866D01*
X98869429Y-85163866D02*
X98869429Y-85354342D01*
X98869429Y-85354342D02*
X98917048Y-85449580D01*
X98917048Y-85449580D02*
X98964667Y-85497200D01*
X98964667Y-85497200D02*
X99059905Y-85544819D01*
X99059905Y-85544819D02*
X99250381Y-85544819D01*
X99250381Y-85544819D02*
X99345619Y-85497200D01*
X99345619Y-85497200D02*
X99393238Y-85449580D01*
X99393238Y-85449580D02*
X99440857Y-85354342D01*
X99440857Y-85354342D02*
X99440857Y-85163866D01*
X99440857Y-85163866D02*
X99393238Y-85068628D01*
X99393238Y-85068628D02*
X99345619Y-85021009D01*
X99345619Y-85021009D02*
X99250381Y-84973390D01*
X109495419Y-88288904D02*
X109447800Y-88241285D01*
X109447800Y-88241285D02*
X109400180Y-88098428D01*
X109400180Y-88098428D02*
X109400180Y-88003190D01*
X109400180Y-88003190D02*
X109447800Y-87860333D01*
X109447800Y-87860333D02*
X109543038Y-87765095D01*
X109543038Y-87765095D02*
X109638276Y-87717476D01*
X109638276Y-87717476D02*
X109828752Y-87669857D01*
X109828752Y-87669857D02*
X109971609Y-87669857D01*
X109971609Y-87669857D02*
X110162085Y-87717476D01*
X110162085Y-87717476D02*
X110257323Y-87765095D01*
X110257323Y-87765095D02*
X110352561Y-87860333D01*
X110352561Y-87860333D02*
X110400180Y-88003190D01*
X110400180Y-88003190D02*
X110400180Y-88098428D01*
X110400180Y-88098428D02*
X110352561Y-88241285D01*
X110352561Y-88241285D02*
X110304942Y-88288904D01*
X110066847Y-88574619D02*
X110066847Y-88955571D01*
X109400180Y-88717476D02*
X110257323Y-88717476D01*
X110257323Y-88717476D02*
X110352561Y-88765095D01*
X110352561Y-88765095D02*
X110400180Y-88860333D01*
X110400180Y-88860333D02*
X110400180Y-88955571D01*
X110066847Y-89146048D02*
X110066847Y-89527000D01*
X109400180Y-89288905D02*
X110257323Y-89288905D01*
X110257323Y-89288905D02*
X110352561Y-89336524D01*
X110352561Y-89336524D02*
X110400180Y-89431762D01*
X110400180Y-89431762D02*
X110400180Y-89527000D01*
X110304942Y-89812715D02*
X110352561Y-89860334D01*
X110352561Y-89860334D02*
X110400180Y-89955572D01*
X110400180Y-89955572D02*
X110400180Y-90193667D01*
X110400180Y-90193667D02*
X110352561Y-90288905D01*
X110352561Y-90288905D02*
X110304942Y-90336524D01*
X110304942Y-90336524D02*
X110209704Y-90384143D01*
X110209704Y-90384143D02*
X110114466Y-90384143D01*
X110114466Y-90384143D02*
X109971609Y-90336524D01*
X109971609Y-90336524D02*
X109400180Y-89765096D01*
X109400180Y-89765096D02*
X109400180Y-90384143D01*
X114698580Y-82434524D02*
X114746200Y-82482143D01*
X114746200Y-82482143D02*
X114793819Y-82625000D01*
X114793819Y-82625000D02*
X114793819Y-82720238D01*
X114793819Y-82720238D02*
X114746200Y-82863095D01*
X114746200Y-82863095D02*
X114650961Y-82958333D01*
X114650961Y-82958333D02*
X114555723Y-83005952D01*
X114555723Y-83005952D02*
X114365247Y-83053571D01*
X114365247Y-83053571D02*
X114222390Y-83053571D01*
X114222390Y-83053571D02*
X114031914Y-83005952D01*
X114031914Y-83005952D02*
X113936676Y-82958333D01*
X113936676Y-82958333D02*
X113841438Y-82863095D01*
X113841438Y-82863095D02*
X113793819Y-82720238D01*
X113793819Y-82720238D02*
X113793819Y-82625000D01*
X113793819Y-82625000D02*
X113841438Y-82482143D01*
X113841438Y-82482143D02*
X113889057Y-82434524D01*
X114793819Y-82005952D02*
X113793819Y-82005952D01*
X114174771Y-82005952D02*
X114127152Y-81910714D01*
X114127152Y-81910714D02*
X114127152Y-81720238D01*
X114127152Y-81720238D02*
X114174771Y-81625000D01*
X114174771Y-81625000D02*
X114222390Y-81577381D01*
X114222390Y-81577381D02*
X114317628Y-81529762D01*
X114317628Y-81529762D02*
X114603342Y-81529762D01*
X114603342Y-81529762D02*
X114698580Y-81577381D01*
X114698580Y-81577381D02*
X114746200Y-81625000D01*
X114746200Y-81625000D02*
X114793819Y-81720238D01*
X114793819Y-81720238D02*
X114793819Y-81910714D01*
X114793819Y-81910714D02*
X114746200Y-82005952D01*
X114793819Y-80958333D02*
X114746200Y-81053571D01*
X114746200Y-81053571D02*
X114698580Y-81101190D01*
X114698580Y-81101190D02*
X114603342Y-81148809D01*
X114603342Y-81148809D02*
X114317628Y-81148809D01*
X114317628Y-81148809D02*
X114222390Y-81101190D01*
X114222390Y-81101190D02*
X114174771Y-81053571D01*
X114174771Y-81053571D02*
X114127152Y-80958333D01*
X114127152Y-80958333D02*
X114127152Y-80815476D01*
X114127152Y-80815476D02*
X114174771Y-80720238D01*
X114174771Y-80720238D02*
X114222390Y-80672619D01*
X114222390Y-80672619D02*
X114317628Y-80625000D01*
X114317628Y-80625000D02*
X114603342Y-80625000D01*
X114603342Y-80625000D02*
X114698580Y-80672619D01*
X114698580Y-80672619D02*
X114746200Y-80720238D01*
X114746200Y-80720238D02*
X114793819Y-80815476D01*
X114793819Y-80815476D02*
X114793819Y-80958333D01*
X114793819Y-80053571D02*
X114746200Y-80148809D01*
X114746200Y-80148809D02*
X114698580Y-80196428D01*
X114698580Y-80196428D02*
X114603342Y-80244047D01*
X114603342Y-80244047D02*
X114317628Y-80244047D01*
X114317628Y-80244047D02*
X114222390Y-80196428D01*
X114222390Y-80196428D02*
X114174771Y-80148809D01*
X114174771Y-80148809D02*
X114127152Y-80053571D01*
X114127152Y-80053571D02*
X114127152Y-79910714D01*
X114127152Y-79910714D02*
X114174771Y-79815476D01*
X114174771Y-79815476D02*
X114222390Y-79767857D01*
X114222390Y-79767857D02*
X114317628Y-79720238D01*
X114317628Y-79720238D02*
X114603342Y-79720238D01*
X114603342Y-79720238D02*
X114698580Y-79767857D01*
X114698580Y-79767857D02*
X114746200Y-79815476D01*
X114746200Y-79815476D02*
X114793819Y-79910714D01*
X114793819Y-79910714D02*
X114793819Y-80053571D01*
X114127152Y-79434523D02*
X114127152Y-79053571D01*
X113793819Y-79291666D02*
X114650961Y-79291666D01*
X114650961Y-79291666D02*
X114746200Y-79244047D01*
X114746200Y-79244047D02*
X114793819Y-79148809D01*
X114793819Y-79148809D02*
X114793819Y-79053571D01*
X114793819Y-78196428D02*
X114793819Y-78767856D01*
X114793819Y-78482142D02*
X113793819Y-78482142D01*
X113793819Y-78482142D02*
X113936676Y-78577380D01*
X113936676Y-78577380D02*
X114031914Y-78672618D01*
X114031914Y-78672618D02*
X114079533Y-78767856D01*
X115421580Y-73032762D02*
X115469200Y-73080381D01*
X115469200Y-73080381D02*
X115516819Y-73223238D01*
X115516819Y-73223238D02*
X115516819Y-73318476D01*
X115516819Y-73318476D02*
X115469200Y-73461333D01*
X115469200Y-73461333D02*
X115373961Y-73556571D01*
X115373961Y-73556571D02*
X115278723Y-73604190D01*
X115278723Y-73604190D02*
X115088247Y-73651809D01*
X115088247Y-73651809D02*
X114945390Y-73651809D01*
X114945390Y-73651809D02*
X114754914Y-73604190D01*
X114754914Y-73604190D02*
X114659676Y-73556571D01*
X114659676Y-73556571D02*
X114564438Y-73461333D01*
X114564438Y-73461333D02*
X114516819Y-73318476D01*
X114516819Y-73318476D02*
X114516819Y-73223238D01*
X114516819Y-73223238D02*
X114564438Y-73080381D01*
X114564438Y-73080381D02*
X114612057Y-73032762D01*
X114850152Y-72699428D02*
X115516819Y-72461333D01*
X115516819Y-72461333D02*
X114850152Y-72223238D01*
X115469200Y-71413714D02*
X115516819Y-71508952D01*
X115516819Y-71508952D02*
X115516819Y-71699428D01*
X115516819Y-71699428D02*
X115469200Y-71794666D01*
X115469200Y-71794666D02*
X115421580Y-71842285D01*
X115421580Y-71842285D02*
X115326342Y-71889904D01*
X115326342Y-71889904D02*
X115040628Y-71889904D01*
X115040628Y-71889904D02*
X114945390Y-71842285D01*
X114945390Y-71842285D02*
X114897771Y-71794666D01*
X114897771Y-71794666D02*
X114850152Y-71699428D01*
X114850152Y-71699428D02*
X114850152Y-71508952D01*
X114850152Y-71508952D02*
X114897771Y-71413714D01*
X115469200Y-70556571D02*
X115516819Y-70651809D01*
X115516819Y-70651809D02*
X115516819Y-70842285D01*
X115516819Y-70842285D02*
X115469200Y-70937523D01*
X115469200Y-70937523D02*
X115421580Y-70985142D01*
X115421580Y-70985142D02*
X115326342Y-71032761D01*
X115326342Y-71032761D02*
X115040628Y-71032761D01*
X115040628Y-71032761D02*
X114945390Y-70985142D01*
X114945390Y-70985142D02*
X114897771Y-70937523D01*
X114897771Y-70937523D02*
X114850152Y-70842285D01*
X114850152Y-70842285D02*
X114850152Y-70651809D01*
X114850152Y-70651809D02*
X114897771Y-70556571D01*
X115516819Y-69604190D02*
X115516819Y-70175618D01*
X115516819Y-69889904D02*
X114516819Y-69889904D01*
X114516819Y-69889904D02*
X114659676Y-69985142D01*
X114659676Y-69985142D02*
X114754914Y-70080380D01*
X114754914Y-70080380D02*
X114802533Y-70175618D01*
X133746666Y-94979819D02*
X133746666Y-95694104D01*
X133746666Y-95694104D02*
X133699047Y-95836961D01*
X133699047Y-95836961D02*
X133603809Y-95932200D01*
X133603809Y-95932200D02*
X133460952Y-95979819D01*
X133460952Y-95979819D02*
X133365714Y-95979819D01*
X134175238Y-95075057D02*
X134222857Y-95027438D01*
X134222857Y-95027438D02*
X134318095Y-94979819D01*
X134318095Y-94979819D02*
X134556190Y-94979819D01*
X134556190Y-94979819D02*
X134651428Y-95027438D01*
X134651428Y-95027438D02*
X134699047Y-95075057D01*
X134699047Y-95075057D02*
X134746666Y-95170295D01*
X134746666Y-95170295D02*
X134746666Y-95265533D01*
X134746666Y-95265533D02*
X134699047Y-95408390D01*
X134699047Y-95408390D02*
X134127619Y-95979819D01*
X134127619Y-95979819D02*
X134746666Y-95979819D01*
X118945819Y-91368428D02*
X118469628Y-91701761D01*
X118945819Y-91939856D02*
X117945819Y-91939856D01*
X117945819Y-91939856D02*
X117945819Y-91558904D01*
X117945819Y-91558904D02*
X117993438Y-91463666D01*
X117993438Y-91463666D02*
X118041057Y-91416047D01*
X118041057Y-91416047D02*
X118136295Y-91368428D01*
X118136295Y-91368428D02*
X118279152Y-91368428D01*
X118279152Y-91368428D02*
X118374390Y-91416047D01*
X118374390Y-91416047D02*
X118422009Y-91463666D01*
X118422009Y-91463666D02*
X118469628Y-91558904D01*
X118469628Y-91558904D02*
X118469628Y-91939856D01*
X118279152Y-90939856D02*
X119279152Y-90939856D01*
X118326771Y-90939856D02*
X118279152Y-90844618D01*
X118279152Y-90844618D02*
X118279152Y-90654142D01*
X118279152Y-90654142D02*
X118326771Y-90558904D01*
X118326771Y-90558904D02*
X118374390Y-90511285D01*
X118374390Y-90511285D02*
X118469628Y-90463666D01*
X118469628Y-90463666D02*
X118755342Y-90463666D01*
X118755342Y-90463666D02*
X118850580Y-90511285D01*
X118850580Y-90511285D02*
X118898200Y-90558904D01*
X118898200Y-90558904D02*
X118945819Y-90654142D01*
X118945819Y-90654142D02*
X118945819Y-90844618D01*
X118945819Y-90844618D02*
X118898200Y-90939856D01*
X118279152Y-89606523D02*
X119088676Y-89606523D01*
X119088676Y-89606523D02*
X119183914Y-89654142D01*
X119183914Y-89654142D02*
X119231533Y-89701761D01*
X119231533Y-89701761D02*
X119279152Y-89796999D01*
X119279152Y-89796999D02*
X119279152Y-89939856D01*
X119279152Y-89939856D02*
X119231533Y-90035094D01*
X118898200Y-89606523D02*
X118945819Y-89701761D01*
X118945819Y-89701761D02*
X118945819Y-89892237D01*
X118945819Y-89892237D02*
X118898200Y-89987475D01*
X118898200Y-89987475D02*
X118850580Y-90035094D01*
X118850580Y-90035094D02*
X118755342Y-90082713D01*
X118755342Y-90082713D02*
X118469628Y-90082713D01*
X118469628Y-90082713D02*
X118374390Y-90035094D01*
X118374390Y-90035094D02*
X118326771Y-89987475D01*
X118326771Y-89987475D02*
X118279152Y-89892237D01*
X118279152Y-89892237D02*
X118279152Y-89701761D01*
X118279152Y-89701761D02*
X118326771Y-89606523D01*
X118041057Y-89177951D02*
X117993438Y-89130332D01*
X117993438Y-89130332D02*
X117945819Y-89035094D01*
X117945819Y-89035094D02*
X117945819Y-88796999D01*
X117945819Y-88796999D02*
X117993438Y-88701761D01*
X117993438Y-88701761D02*
X118041057Y-88654142D01*
X118041057Y-88654142D02*
X118136295Y-88606523D01*
X118136295Y-88606523D02*
X118231533Y-88606523D01*
X118231533Y-88606523D02*
X118374390Y-88654142D01*
X118374390Y-88654142D02*
X118945819Y-89225570D01*
X118945819Y-89225570D02*
X118945819Y-88606523D01*
X125230095Y-65748819D02*
X125801523Y-65748819D01*
X125515809Y-66748819D02*
X125515809Y-65748819D01*
X126134857Y-66748819D02*
X126134857Y-65748819D01*
X126134857Y-65748819D02*
X126515809Y-65748819D01*
X126515809Y-65748819D02*
X126611047Y-65796438D01*
X126611047Y-65796438D02*
X126658666Y-65844057D01*
X126658666Y-65844057D02*
X126706285Y-65939295D01*
X126706285Y-65939295D02*
X126706285Y-66082152D01*
X126706285Y-66082152D02*
X126658666Y-66177390D01*
X126658666Y-66177390D02*
X126611047Y-66225009D01*
X126611047Y-66225009D02*
X126515809Y-66272628D01*
X126515809Y-66272628D02*
X126134857Y-66272628D01*
X127039619Y-65748819D02*
X127658666Y-65748819D01*
X127658666Y-65748819D02*
X127325333Y-66129771D01*
X127325333Y-66129771D02*
X127468190Y-66129771D01*
X127468190Y-66129771D02*
X127563428Y-66177390D01*
X127563428Y-66177390D02*
X127611047Y-66225009D01*
X127611047Y-66225009D02*
X127658666Y-66320247D01*
X127658666Y-66320247D02*
X127658666Y-66558342D01*
X127658666Y-66558342D02*
X127611047Y-66653580D01*
X127611047Y-66653580D02*
X127563428Y-66701200D01*
X127563428Y-66701200D02*
X127468190Y-66748819D01*
X127468190Y-66748819D02*
X127182476Y-66748819D01*
X127182476Y-66748819D02*
X127087238Y-66701200D01*
X127087238Y-66701200D02*
X127039619Y-66653580D01*
X152130476Y-65854819D02*
X152130476Y-66569104D01*
X152130476Y-66569104D02*
X152082857Y-66711961D01*
X152082857Y-66711961D02*
X151987619Y-66807200D01*
X151987619Y-66807200D02*
X151844762Y-66854819D01*
X151844762Y-66854819D02*
X151749524Y-66854819D01*
X153130476Y-66854819D02*
X152559048Y-66854819D01*
X152844762Y-66854819D02*
X152844762Y-65854819D01*
X152844762Y-65854819D02*
X152749524Y-65997676D01*
X152749524Y-65997676D02*
X152654286Y-66092914D01*
X152654286Y-66092914D02*
X152559048Y-66140533D01*
X153987619Y-66188152D02*
X153987619Y-66854819D01*
X153749524Y-65807200D02*
X153511429Y-66521485D01*
X153511429Y-66521485D02*
X154130476Y-66521485D01*
X125327580Y-91804905D02*
X125375200Y-91852524D01*
X125375200Y-91852524D02*
X125422819Y-91995381D01*
X125422819Y-91995381D02*
X125422819Y-92090619D01*
X125422819Y-92090619D02*
X125375200Y-92233476D01*
X125375200Y-92233476D02*
X125279961Y-92328714D01*
X125279961Y-92328714D02*
X125184723Y-92376333D01*
X125184723Y-92376333D02*
X124994247Y-92423952D01*
X124994247Y-92423952D02*
X124851390Y-92423952D01*
X124851390Y-92423952D02*
X124660914Y-92376333D01*
X124660914Y-92376333D02*
X124565676Y-92328714D01*
X124565676Y-92328714D02*
X124470438Y-92233476D01*
X124470438Y-92233476D02*
X124422819Y-92090619D01*
X124422819Y-92090619D02*
X124422819Y-91995381D01*
X124422819Y-91995381D02*
X124470438Y-91852524D01*
X124470438Y-91852524D02*
X124518057Y-91804905D01*
X125422819Y-91233476D02*
X125375200Y-91328714D01*
X125375200Y-91328714D02*
X125327580Y-91376333D01*
X125327580Y-91376333D02*
X125232342Y-91423952D01*
X125232342Y-91423952D02*
X124946628Y-91423952D01*
X124946628Y-91423952D02*
X124851390Y-91376333D01*
X124851390Y-91376333D02*
X124803771Y-91328714D01*
X124803771Y-91328714D02*
X124756152Y-91233476D01*
X124756152Y-91233476D02*
X124756152Y-91090619D01*
X124756152Y-91090619D02*
X124803771Y-90995381D01*
X124803771Y-90995381D02*
X124851390Y-90947762D01*
X124851390Y-90947762D02*
X124946628Y-90900143D01*
X124946628Y-90900143D02*
X125232342Y-90900143D01*
X125232342Y-90900143D02*
X125327580Y-90947762D01*
X125327580Y-90947762D02*
X125375200Y-90995381D01*
X125375200Y-90995381D02*
X125422819Y-91090619D01*
X125422819Y-91090619D02*
X125422819Y-91233476D01*
X124756152Y-90043000D02*
X125422819Y-90043000D01*
X124756152Y-90471571D02*
X125279961Y-90471571D01*
X125279961Y-90471571D02*
X125375200Y-90423952D01*
X125375200Y-90423952D02*
X125422819Y-90328714D01*
X125422819Y-90328714D02*
X125422819Y-90185857D01*
X125422819Y-90185857D02*
X125375200Y-90090619D01*
X125375200Y-90090619D02*
X125327580Y-90043000D01*
X124756152Y-89709666D02*
X124756152Y-89328714D01*
X124422819Y-89566809D02*
X125279961Y-89566809D01*
X125279961Y-89566809D02*
X125375200Y-89519190D01*
X125375200Y-89519190D02*
X125422819Y-89423952D01*
X125422819Y-89423952D02*
X125422819Y-89328714D01*
X125422819Y-89090618D02*
X124756152Y-88566809D01*
X124756152Y-89090618D02*
X125422819Y-88566809D01*
X124518057Y-88233475D02*
X124470438Y-88185856D01*
X124470438Y-88185856D02*
X124422819Y-88090618D01*
X124422819Y-88090618D02*
X124422819Y-87852523D01*
X124422819Y-87852523D02*
X124470438Y-87757285D01*
X124470438Y-87757285D02*
X124518057Y-87709666D01*
X124518057Y-87709666D02*
X124613295Y-87662047D01*
X124613295Y-87662047D02*
X124708533Y-87662047D01*
X124708533Y-87662047D02*
X124851390Y-87709666D01*
X124851390Y-87709666D02*
X125422819Y-88281094D01*
X125422819Y-88281094D02*
X125422819Y-87662047D01*
X118603819Y-73461428D02*
X118127628Y-73794761D01*
X118603819Y-74032856D02*
X117603819Y-74032856D01*
X117603819Y-74032856D02*
X117603819Y-73651904D01*
X117603819Y-73651904D02*
X117651438Y-73556666D01*
X117651438Y-73556666D02*
X117699057Y-73509047D01*
X117699057Y-73509047D02*
X117794295Y-73461428D01*
X117794295Y-73461428D02*
X117937152Y-73461428D01*
X117937152Y-73461428D02*
X118032390Y-73509047D01*
X118032390Y-73509047D02*
X118080009Y-73556666D01*
X118080009Y-73556666D02*
X118127628Y-73651904D01*
X118127628Y-73651904D02*
X118127628Y-74032856D01*
X117937152Y-73032856D02*
X118937152Y-73032856D01*
X117984771Y-73032856D02*
X117937152Y-72937618D01*
X117937152Y-72937618D02*
X117937152Y-72747142D01*
X117937152Y-72747142D02*
X117984771Y-72651904D01*
X117984771Y-72651904D02*
X118032390Y-72604285D01*
X118032390Y-72604285D02*
X118127628Y-72556666D01*
X118127628Y-72556666D02*
X118413342Y-72556666D01*
X118413342Y-72556666D02*
X118508580Y-72604285D01*
X118508580Y-72604285D02*
X118556200Y-72651904D01*
X118556200Y-72651904D02*
X118603819Y-72747142D01*
X118603819Y-72747142D02*
X118603819Y-72937618D01*
X118603819Y-72937618D02*
X118556200Y-73032856D01*
X117937152Y-71699523D02*
X118746676Y-71699523D01*
X118746676Y-71699523D02*
X118841914Y-71747142D01*
X118841914Y-71747142D02*
X118889533Y-71794761D01*
X118889533Y-71794761D02*
X118937152Y-71889999D01*
X118937152Y-71889999D02*
X118937152Y-72032856D01*
X118937152Y-72032856D02*
X118889533Y-72128094D01*
X118556200Y-71699523D02*
X118603819Y-71794761D01*
X118603819Y-71794761D02*
X118603819Y-71985237D01*
X118603819Y-71985237D02*
X118556200Y-72080475D01*
X118556200Y-72080475D02*
X118508580Y-72128094D01*
X118508580Y-72128094D02*
X118413342Y-72175713D01*
X118413342Y-72175713D02*
X118127628Y-72175713D01*
X118127628Y-72175713D02*
X118032390Y-72128094D01*
X118032390Y-72128094D02*
X117984771Y-72080475D01*
X117984771Y-72080475D02*
X117937152Y-71985237D01*
X117937152Y-71985237D02*
X117937152Y-71794761D01*
X117937152Y-71794761D02*
X117984771Y-71699523D01*
X118603819Y-70699523D02*
X118603819Y-71270951D01*
X118603819Y-70985237D02*
X117603819Y-70985237D01*
X117603819Y-70985237D02*
X117746676Y-71080475D01*
X117746676Y-71080475D02*
X117841914Y-71175713D01*
X117841914Y-71175713D02*
X117889533Y-71270951D01*
X181371666Y-94979819D02*
X181371666Y-95694104D01*
X181371666Y-95694104D02*
X181324047Y-95836961D01*
X181324047Y-95836961D02*
X181228809Y-95932200D01*
X181228809Y-95932200D02*
X181085952Y-95979819D01*
X181085952Y-95979819D02*
X180990714Y-95979819D01*
X181752619Y-94979819D02*
X182419285Y-94979819D01*
X182419285Y-94979819D02*
X181990714Y-95979819D01*
X113574180Y-75148093D02*
X112764657Y-75148093D01*
X112764657Y-75148093D02*
X112669419Y-75195712D01*
X112669419Y-75195712D02*
X112621800Y-75243331D01*
X112621800Y-75243331D02*
X112574180Y-75338569D01*
X112574180Y-75338569D02*
X112574180Y-75529045D01*
X112574180Y-75529045D02*
X112621800Y-75624283D01*
X112621800Y-75624283D02*
X112669419Y-75671902D01*
X112669419Y-75671902D02*
X112764657Y-75719521D01*
X112764657Y-75719521D02*
X113574180Y-75719521D01*
X113574180Y-76671902D02*
X113574180Y-76195712D01*
X113574180Y-76195712D02*
X113097990Y-76148093D01*
X113097990Y-76148093D02*
X113145609Y-76195712D01*
X113145609Y-76195712D02*
X113193228Y-76290950D01*
X113193228Y-76290950D02*
X113193228Y-76529045D01*
X113193228Y-76529045D02*
X113145609Y-76624283D01*
X113145609Y-76624283D02*
X113097990Y-76671902D01*
X113097990Y-76671902D02*
X113002752Y-76719521D01*
X113002752Y-76719521D02*
X112764657Y-76719521D01*
X112764657Y-76719521D02*
X112669419Y-76671902D01*
X112669419Y-76671902D02*
X112621800Y-76624283D01*
X112621800Y-76624283D02*
X112574180Y-76529045D01*
X112574180Y-76529045D02*
X112574180Y-76290950D01*
X112574180Y-76290950D02*
X112621800Y-76195712D01*
X112621800Y-76195712D02*
X112669419Y-76148093D01*
X105808580Y-78096904D02*
X105856200Y-78144523D01*
X105856200Y-78144523D02*
X105903819Y-78287380D01*
X105903819Y-78287380D02*
X105903819Y-78382618D01*
X105903819Y-78382618D02*
X105856200Y-78525475D01*
X105856200Y-78525475D02*
X105760961Y-78620713D01*
X105760961Y-78620713D02*
X105665723Y-78668332D01*
X105665723Y-78668332D02*
X105475247Y-78715951D01*
X105475247Y-78715951D02*
X105332390Y-78715951D01*
X105332390Y-78715951D02*
X105141914Y-78668332D01*
X105141914Y-78668332D02*
X105046676Y-78620713D01*
X105046676Y-78620713D02*
X104951438Y-78525475D01*
X104951438Y-78525475D02*
X104903819Y-78382618D01*
X104903819Y-78382618D02*
X104903819Y-78287380D01*
X104903819Y-78287380D02*
X104951438Y-78144523D01*
X104951438Y-78144523D02*
X104999057Y-78096904D01*
X105903819Y-77668332D02*
X105237152Y-77668332D01*
X104903819Y-77668332D02*
X104951438Y-77715951D01*
X104951438Y-77715951D02*
X104999057Y-77668332D01*
X104999057Y-77668332D02*
X104951438Y-77620713D01*
X104951438Y-77620713D02*
X104903819Y-77668332D01*
X104903819Y-77668332D02*
X104999057Y-77668332D01*
X105237152Y-77192142D02*
X105903819Y-77192142D01*
X105332390Y-77192142D02*
X105284771Y-77144523D01*
X105284771Y-77144523D02*
X105237152Y-77049285D01*
X105237152Y-77049285D02*
X105237152Y-76906428D01*
X105237152Y-76906428D02*
X105284771Y-76811190D01*
X105284771Y-76811190D02*
X105380009Y-76763571D01*
X105380009Y-76763571D02*
X105903819Y-76763571D01*
X105903819Y-76382618D02*
X105237152Y-75858809D01*
X105237152Y-76382618D02*
X105903819Y-75858809D01*
X105903819Y-74954047D02*
X105903819Y-75525475D01*
X105903819Y-75239761D02*
X104903819Y-75239761D01*
X104903819Y-75239761D02*
X105046676Y-75334999D01*
X105046676Y-75334999D02*
X105141914Y-75430237D01*
X105141914Y-75430237D02*
X105189533Y-75525475D01*
X112595819Y-90598476D02*
X112119628Y-90931809D01*
X112595819Y-91169904D02*
X111595819Y-91169904D01*
X111595819Y-91169904D02*
X111595819Y-90788952D01*
X111595819Y-90788952D02*
X111643438Y-90693714D01*
X111643438Y-90693714D02*
X111691057Y-90646095D01*
X111691057Y-90646095D02*
X111786295Y-90598476D01*
X111786295Y-90598476D02*
X111929152Y-90598476D01*
X111929152Y-90598476D02*
X112024390Y-90646095D01*
X112024390Y-90646095D02*
X112072009Y-90693714D01*
X112072009Y-90693714D02*
X112119628Y-90788952D01*
X112119628Y-90788952D02*
X112119628Y-91169904D01*
X111929152Y-90312761D02*
X111929152Y-89931809D01*
X112595819Y-90169904D02*
X111738676Y-90169904D01*
X111738676Y-90169904D02*
X111643438Y-90122285D01*
X111643438Y-90122285D02*
X111595819Y-90027047D01*
X111595819Y-90027047D02*
X111595819Y-89931809D01*
X112595819Y-89598475D02*
X111595819Y-89598475D01*
X111976771Y-89598475D02*
X111929152Y-89503237D01*
X111929152Y-89503237D02*
X111929152Y-89312761D01*
X111929152Y-89312761D02*
X111976771Y-89217523D01*
X111976771Y-89217523D02*
X112024390Y-89169904D01*
X112024390Y-89169904D02*
X112119628Y-89122285D01*
X112119628Y-89122285D02*
X112405342Y-89122285D01*
X112405342Y-89122285D02*
X112500580Y-89169904D01*
X112500580Y-89169904D02*
X112548200Y-89217523D01*
X112548200Y-89217523D02*
X112595819Y-89312761D01*
X112595819Y-89312761D02*
X112595819Y-89503237D01*
X112595819Y-89503237D02*
X112548200Y-89598475D01*
X111929152Y-88836570D02*
X111929152Y-88455618D01*
X111595819Y-88693713D02*
X112452961Y-88693713D01*
X112452961Y-88693713D02*
X112548200Y-88646094D01*
X112548200Y-88646094D02*
X112595819Y-88550856D01*
X112595819Y-88550856D02*
X112595819Y-88455618D01*
X111691057Y-88169903D02*
X111643438Y-88122284D01*
X111643438Y-88122284D02*
X111595819Y-88027046D01*
X111595819Y-88027046D02*
X111595819Y-87788951D01*
X111595819Y-87788951D02*
X111643438Y-87693713D01*
X111643438Y-87693713D02*
X111691057Y-87646094D01*
X111691057Y-87646094D02*
X111786295Y-87598475D01*
X111786295Y-87598475D02*
X111881533Y-87598475D01*
X111881533Y-87598475D02*
X112024390Y-87646094D01*
X112024390Y-87646094D02*
X112595819Y-88217522D01*
X112595819Y-88217522D02*
X112595819Y-87598475D01*
X195533319Y-79501904D02*
X196342842Y-79501904D01*
X196342842Y-79501904D02*
X196438080Y-79454285D01*
X196438080Y-79454285D02*
X196485700Y-79406666D01*
X196485700Y-79406666D02*
X196533319Y-79311428D01*
X196533319Y-79311428D02*
X196533319Y-79120952D01*
X196533319Y-79120952D02*
X196485700Y-79025714D01*
X196485700Y-79025714D02*
X196438080Y-78978095D01*
X196438080Y-78978095D02*
X196342842Y-78930476D01*
X196342842Y-78930476D02*
X195533319Y-78930476D01*
X195533319Y-78549523D02*
X195533319Y-77930476D01*
X195533319Y-77930476D02*
X195914271Y-78263809D01*
X195914271Y-78263809D02*
X195914271Y-78120952D01*
X195914271Y-78120952D02*
X195961890Y-78025714D01*
X195961890Y-78025714D02*
X196009509Y-77978095D01*
X196009509Y-77978095D02*
X196104747Y-77930476D01*
X196104747Y-77930476D02*
X196342842Y-77930476D01*
X196342842Y-77930476D02*
X196438080Y-77978095D01*
X196438080Y-77978095D02*
X196485700Y-78025714D01*
X196485700Y-78025714D02*
X196533319Y-78120952D01*
X196533319Y-78120952D02*
X196533319Y-78406666D01*
X196533319Y-78406666D02*
X196485700Y-78501904D01*
X196485700Y-78501904D02*
X196438080Y-78549523D01*
X161655476Y-65854819D02*
X161655476Y-66569104D01*
X161655476Y-66569104D02*
X161607857Y-66711961D01*
X161607857Y-66711961D02*
X161512619Y-66807200D01*
X161512619Y-66807200D02*
X161369762Y-66854819D01*
X161369762Y-66854819D02*
X161274524Y-66854819D01*
X162655476Y-66854819D02*
X162084048Y-66854819D01*
X162369762Y-66854819D02*
X162369762Y-65854819D01*
X162369762Y-65854819D02*
X162274524Y-65997676D01*
X162274524Y-65997676D02*
X162179286Y-66092914D01*
X162179286Y-66092914D02*
X162084048Y-66140533D01*
X162988810Y-65854819D02*
X163607857Y-65854819D01*
X163607857Y-65854819D02*
X163274524Y-66235771D01*
X163274524Y-66235771D02*
X163417381Y-66235771D01*
X163417381Y-66235771D02*
X163512619Y-66283390D01*
X163512619Y-66283390D02*
X163560238Y-66331009D01*
X163560238Y-66331009D02*
X163607857Y-66426247D01*
X163607857Y-66426247D02*
X163607857Y-66664342D01*
X163607857Y-66664342D02*
X163560238Y-66759580D01*
X163560238Y-66759580D02*
X163512619Y-66807200D01*
X163512619Y-66807200D02*
X163417381Y-66854819D01*
X163417381Y-66854819D02*
X163131667Y-66854819D01*
X163131667Y-66854819D02*
X163036429Y-66807200D01*
X163036429Y-66807200D02*
X162988810Y-66759580D01*
X113948179Y-92895096D02*
X113138656Y-92895096D01*
X113138656Y-92895096D02*
X113043418Y-92942715D01*
X113043418Y-92942715D02*
X112995799Y-92990334D01*
X112995799Y-92990334D02*
X112948179Y-93085572D01*
X112948179Y-93085572D02*
X112948179Y-93276048D01*
X112948179Y-93276048D02*
X112995799Y-93371286D01*
X112995799Y-93371286D02*
X113043418Y-93418905D01*
X113043418Y-93418905D02*
X113138656Y-93466524D01*
X113138656Y-93466524D02*
X113948179Y-93466524D01*
X113614846Y-94371286D02*
X112948179Y-94371286D01*
X113995799Y-94133191D02*
X113281513Y-93895096D01*
X113281513Y-93895096D02*
X113281513Y-94514143D01*
X111618819Y-72945476D02*
X111142628Y-73278809D01*
X111618819Y-73516904D02*
X110618819Y-73516904D01*
X110618819Y-73516904D02*
X110618819Y-73135952D01*
X110618819Y-73135952D02*
X110666438Y-73040714D01*
X110666438Y-73040714D02*
X110714057Y-72993095D01*
X110714057Y-72993095D02*
X110809295Y-72945476D01*
X110809295Y-72945476D02*
X110952152Y-72945476D01*
X110952152Y-72945476D02*
X111047390Y-72993095D01*
X111047390Y-72993095D02*
X111095009Y-73040714D01*
X111095009Y-73040714D02*
X111142628Y-73135952D01*
X111142628Y-73135952D02*
X111142628Y-73516904D01*
X110952152Y-72659761D02*
X110952152Y-72278809D01*
X111618819Y-72516904D02*
X110761676Y-72516904D01*
X110761676Y-72516904D02*
X110666438Y-72469285D01*
X110666438Y-72469285D02*
X110618819Y-72374047D01*
X110618819Y-72374047D02*
X110618819Y-72278809D01*
X111618819Y-71945475D02*
X110618819Y-71945475D01*
X110999771Y-71945475D02*
X110952152Y-71850237D01*
X110952152Y-71850237D02*
X110952152Y-71659761D01*
X110952152Y-71659761D02*
X110999771Y-71564523D01*
X110999771Y-71564523D02*
X111047390Y-71516904D01*
X111047390Y-71516904D02*
X111142628Y-71469285D01*
X111142628Y-71469285D02*
X111428342Y-71469285D01*
X111428342Y-71469285D02*
X111523580Y-71516904D01*
X111523580Y-71516904D02*
X111571200Y-71564523D01*
X111571200Y-71564523D02*
X111618819Y-71659761D01*
X111618819Y-71659761D02*
X111618819Y-71850237D01*
X111618819Y-71850237D02*
X111571200Y-71945475D01*
X110952152Y-71183570D02*
X110952152Y-70802618D01*
X110618819Y-71040713D02*
X111475961Y-71040713D01*
X111475961Y-71040713D02*
X111571200Y-70993094D01*
X111571200Y-70993094D02*
X111618819Y-70897856D01*
X111618819Y-70897856D02*
X111618819Y-70802618D01*
X111618819Y-69945475D02*
X111618819Y-70516903D01*
X111618819Y-70231189D02*
X110618819Y-70231189D01*
X110618819Y-70231189D02*
X110761676Y-70326427D01*
X110761676Y-70326427D02*
X110856914Y-70421665D01*
X110856914Y-70421665D02*
X110904533Y-70516903D01*
X142605476Y-65854819D02*
X142605476Y-66569104D01*
X142605476Y-66569104D02*
X142557857Y-66711961D01*
X142557857Y-66711961D02*
X142462619Y-66807200D01*
X142462619Y-66807200D02*
X142319762Y-66854819D01*
X142319762Y-66854819D02*
X142224524Y-66854819D01*
X143605476Y-66854819D02*
X143034048Y-66854819D01*
X143319762Y-66854819D02*
X143319762Y-65854819D01*
X143319762Y-65854819D02*
X143224524Y-65997676D01*
X143224524Y-65997676D02*
X143129286Y-66092914D01*
X143129286Y-66092914D02*
X143034048Y-66140533D01*
X144510238Y-65854819D02*
X144034048Y-65854819D01*
X144034048Y-65854819D02*
X143986429Y-66331009D01*
X143986429Y-66331009D02*
X144034048Y-66283390D01*
X144034048Y-66283390D02*
X144129286Y-66235771D01*
X144129286Y-66235771D02*
X144367381Y-66235771D01*
X144367381Y-66235771D02*
X144462619Y-66283390D01*
X144462619Y-66283390D02*
X144510238Y-66331009D01*
X144510238Y-66331009D02*
X144557857Y-66426247D01*
X144557857Y-66426247D02*
X144557857Y-66664342D01*
X144557857Y-66664342D02*
X144510238Y-66759580D01*
X144510238Y-66759580D02*
X144462619Y-66807200D01*
X144462619Y-66807200D02*
X144367381Y-66854819D01*
X144367381Y-66854819D02*
X144129286Y-66854819D01*
X144129286Y-66854819D02*
X144034048Y-66807200D01*
X144034048Y-66807200D02*
X143986429Y-66759580D01*
X143343333Y-84199580D02*
X143295714Y-84247200D01*
X143295714Y-84247200D02*
X143152857Y-84294819D01*
X143152857Y-84294819D02*
X143057619Y-84294819D01*
X143057619Y-84294819D02*
X142914762Y-84247200D01*
X142914762Y-84247200D02*
X142819524Y-84151961D01*
X142819524Y-84151961D02*
X142771905Y-84056723D01*
X142771905Y-84056723D02*
X142724286Y-83866247D01*
X142724286Y-83866247D02*
X142724286Y-83723390D01*
X142724286Y-83723390D02*
X142771905Y-83532914D01*
X142771905Y-83532914D02*
X142819524Y-83437676D01*
X142819524Y-83437676D02*
X142914762Y-83342438D01*
X142914762Y-83342438D02*
X143057619Y-83294819D01*
X143057619Y-83294819D02*
X143152857Y-83294819D01*
X143152857Y-83294819D02*
X143295714Y-83342438D01*
X143295714Y-83342438D02*
X143343333Y-83390057D01*
X144200476Y-83628152D02*
X144200476Y-84294819D01*
X143962381Y-83247200D02*
X143724286Y-83961485D01*
X143724286Y-83961485D02*
X144343333Y-83961485D01*
X118384333Y-94552876D02*
X118079571Y-94552876D01*
X118079571Y-94552876D02*
X118079571Y-93912876D01*
X118932905Y-94552876D02*
X118567190Y-94552876D01*
X118750047Y-94552876D02*
X118750047Y-93912876D01*
X118750047Y-93912876D02*
X118689095Y-94004304D01*
X118689095Y-94004304D02*
X118628143Y-94065257D01*
X118628143Y-94065257D02*
X118567190Y-94095733D01*
X140803333Y-95609580D02*
X140755714Y-95657200D01*
X140755714Y-95657200D02*
X140612857Y-95704819D01*
X140612857Y-95704819D02*
X140517619Y-95704819D01*
X140517619Y-95704819D02*
X140374762Y-95657200D01*
X140374762Y-95657200D02*
X140279524Y-95561961D01*
X140279524Y-95561961D02*
X140231905Y-95466723D01*
X140231905Y-95466723D02*
X140184286Y-95276247D01*
X140184286Y-95276247D02*
X140184286Y-95133390D01*
X140184286Y-95133390D02*
X140231905Y-94942914D01*
X140231905Y-94942914D02*
X140279524Y-94847676D01*
X140279524Y-94847676D02*
X140374762Y-94752438D01*
X140374762Y-94752438D02*
X140517619Y-94704819D01*
X140517619Y-94704819D02*
X140612857Y-94704819D01*
X140612857Y-94704819D02*
X140755714Y-94752438D01*
X140755714Y-94752438D02*
X140803333Y-94800057D01*
X141136667Y-94704819D02*
X141755714Y-94704819D01*
X141755714Y-94704819D02*
X141422381Y-95085771D01*
X141422381Y-95085771D02*
X141565238Y-95085771D01*
X141565238Y-95085771D02*
X141660476Y-95133390D01*
X141660476Y-95133390D02*
X141708095Y-95181009D01*
X141708095Y-95181009D02*
X141755714Y-95276247D01*
X141755714Y-95276247D02*
X141755714Y-95514342D01*
X141755714Y-95514342D02*
X141708095Y-95609580D01*
X141708095Y-95609580D02*
X141660476Y-95657200D01*
X141660476Y-95657200D02*
X141565238Y-95704819D01*
X141565238Y-95704819D02*
X141279524Y-95704819D01*
X141279524Y-95704819D02*
X141184286Y-95657200D01*
X141184286Y-95657200D02*
X141136667Y-95609580D01*
X132890476Y-65854819D02*
X132890476Y-66569104D01*
X132890476Y-66569104D02*
X132842857Y-66711961D01*
X132842857Y-66711961D02*
X132747619Y-66807200D01*
X132747619Y-66807200D02*
X132604762Y-66854819D01*
X132604762Y-66854819D02*
X132509524Y-66854819D01*
X133890476Y-66854819D02*
X133319048Y-66854819D01*
X133604762Y-66854819D02*
X133604762Y-65854819D01*
X133604762Y-65854819D02*
X133509524Y-65997676D01*
X133509524Y-65997676D02*
X133414286Y-66092914D01*
X133414286Y-66092914D02*
X133319048Y-66140533D01*
X134747619Y-65854819D02*
X134557143Y-65854819D01*
X134557143Y-65854819D02*
X134461905Y-65902438D01*
X134461905Y-65902438D02*
X134414286Y-65950057D01*
X134414286Y-65950057D02*
X134319048Y-66092914D01*
X134319048Y-66092914D02*
X134271429Y-66283390D01*
X134271429Y-66283390D02*
X134271429Y-66664342D01*
X134271429Y-66664342D02*
X134319048Y-66759580D01*
X134319048Y-66759580D02*
X134366667Y-66807200D01*
X134366667Y-66807200D02*
X134461905Y-66854819D01*
X134461905Y-66854819D02*
X134652381Y-66854819D01*
X134652381Y-66854819D02*
X134747619Y-66807200D01*
X134747619Y-66807200D02*
X134795238Y-66759580D01*
X134795238Y-66759580D02*
X134842857Y-66664342D01*
X134842857Y-66664342D02*
X134842857Y-66426247D01*
X134842857Y-66426247D02*
X134795238Y-66331009D01*
X134795238Y-66331009D02*
X134747619Y-66283390D01*
X134747619Y-66283390D02*
X134652381Y-66235771D01*
X134652381Y-66235771D02*
X134461905Y-66235771D01*
X134461905Y-66235771D02*
X134366667Y-66283390D01*
X134366667Y-66283390D02*
X134319048Y-66331009D01*
X134319048Y-66331009D02*
X134271429Y-66426247D01*
X121048580Y-73112143D02*
X121096200Y-73159762D01*
X121096200Y-73159762D02*
X121143819Y-73302619D01*
X121143819Y-73302619D02*
X121143819Y-73397857D01*
X121143819Y-73397857D02*
X121096200Y-73540714D01*
X121096200Y-73540714D02*
X121000961Y-73635952D01*
X121000961Y-73635952D02*
X120905723Y-73683571D01*
X120905723Y-73683571D02*
X120715247Y-73731190D01*
X120715247Y-73731190D02*
X120572390Y-73731190D01*
X120572390Y-73731190D02*
X120381914Y-73683571D01*
X120381914Y-73683571D02*
X120286676Y-73635952D01*
X120286676Y-73635952D02*
X120191438Y-73540714D01*
X120191438Y-73540714D02*
X120143819Y-73397857D01*
X120143819Y-73397857D02*
X120143819Y-73302619D01*
X120143819Y-73302619D02*
X120191438Y-73159762D01*
X120191438Y-73159762D02*
X120239057Y-73112143D01*
X121143819Y-72540714D02*
X121096200Y-72635952D01*
X121096200Y-72635952D02*
X121048580Y-72683571D01*
X121048580Y-72683571D02*
X120953342Y-72731190D01*
X120953342Y-72731190D02*
X120667628Y-72731190D01*
X120667628Y-72731190D02*
X120572390Y-72683571D01*
X120572390Y-72683571D02*
X120524771Y-72635952D01*
X120524771Y-72635952D02*
X120477152Y-72540714D01*
X120477152Y-72540714D02*
X120477152Y-72397857D01*
X120477152Y-72397857D02*
X120524771Y-72302619D01*
X120524771Y-72302619D02*
X120572390Y-72255000D01*
X120572390Y-72255000D02*
X120667628Y-72207381D01*
X120667628Y-72207381D02*
X120953342Y-72207381D01*
X120953342Y-72207381D02*
X121048580Y-72255000D01*
X121048580Y-72255000D02*
X121096200Y-72302619D01*
X121096200Y-72302619D02*
X121143819Y-72397857D01*
X121143819Y-72397857D02*
X121143819Y-72540714D01*
X120477152Y-71350238D02*
X121143819Y-71350238D01*
X120477152Y-71778809D02*
X121000961Y-71778809D01*
X121000961Y-71778809D02*
X121096200Y-71731190D01*
X121096200Y-71731190D02*
X121143819Y-71635952D01*
X121143819Y-71635952D02*
X121143819Y-71493095D01*
X121143819Y-71493095D02*
X121096200Y-71397857D01*
X121096200Y-71397857D02*
X121048580Y-71350238D01*
X120477152Y-71016904D02*
X120477152Y-70635952D01*
X120143819Y-70874047D02*
X121000961Y-70874047D01*
X121000961Y-70874047D02*
X121096200Y-70826428D01*
X121096200Y-70826428D02*
X121143819Y-70731190D01*
X121143819Y-70731190D02*
X121143819Y-70635952D01*
X121143819Y-69778809D02*
X121143819Y-70350237D01*
X121143819Y-70064523D02*
X120143819Y-70064523D01*
X120143819Y-70064523D02*
X120286676Y-70159761D01*
X120286676Y-70159761D02*
X120381914Y-70254999D01*
X120381914Y-70254999D02*
X120429533Y-70350237D01*
X143366666Y-94979819D02*
X143366666Y-95694104D01*
X143366666Y-95694104D02*
X143319047Y-95836961D01*
X143319047Y-95836961D02*
X143223809Y-95932200D01*
X143223809Y-95932200D02*
X143080952Y-95979819D01*
X143080952Y-95979819D02*
X142985714Y-95979819D01*
X143747619Y-94979819D02*
X144366666Y-94979819D01*
X144366666Y-94979819D02*
X144033333Y-95360771D01*
X144033333Y-95360771D02*
X144176190Y-95360771D01*
X144176190Y-95360771D02*
X144271428Y-95408390D01*
X144271428Y-95408390D02*
X144319047Y-95456009D01*
X144319047Y-95456009D02*
X144366666Y-95551247D01*
X144366666Y-95551247D02*
X144366666Y-95789342D01*
X144366666Y-95789342D02*
X144319047Y-95884580D01*
X144319047Y-95884580D02*
X144271428Y-95932200D01*
X144271428Y-95932200D02*
X144176190Y-95979819D01*
X144176190Y-95979819D02*
X143890476Y-95979819D01*
X143890476Y-95979819D02*
X143795238Y-95932200D01*
X143795238Y-95932200D02*
X143747619Y-95884580D01*
X180705476Y-65854819D02*
X180705476Y-66569104D01*
X180705476Y-66569104D02*
X180657857Y-66711961D01*
X180657857Y-66711961D02*
X180562619Y-66807200D01*
X180562619Y-66807200D02*
X180419762Y-66854819D01*
X180419762Y-66854819D02*
X180324524Y-66854819D01*
X181705476Y-66854819D02*
X181134048Y-66854819D01*
X181419762Y-66854819D02*
X181419762Y-65854819D01*
X181419762Y-65854819D02*
X181324524Y-65997676D01*
X181324524Y-65997676D02*
X181229286Y-66092914D01*
X181229286Y-66092914D02*
X181134048Y-66140533D01*
X182657857Y-66854819D02*
X182086429Y-66854819D01*
X182372143Y-66854819D02*
X182372143Y-65854819D01*
X182372143Y-65854819D02*
X182276905Y-65997676D01*
X182276905Y-65997676D02*
X182181667Y-66092914D01*
X182181667Y-66092914D02*
X182086429Y-66140533D01*
X162321666Y-94979819D02*
X162321666Y-95694104D01*
X162321666Y-95694104D02*
X162274047Y-95836961D01*
X162274047Y-95836961D02*
X162178809Y-95932200D01*
X162178809Y-95932200D02*
X162035952Y-95979819D01*
X162035952Y-95979819D02*
X161940714Y-95979819D01*
X163274047Y-94979819D02*
X162797857Y-94979819D01*
X162797857Y-94979819D02*
X162750238Y-95456009D01*
X162750238Y-95456009D02*
X162797857Y-95408390D01*
X162797857Y-95408390D02*
X162893095Y-95360771D01*
X162893095Y-95360771D02*
X163131190Y-95360771D01*
X163131190Y-95360771D02*
X163226428Y-95408390D01*
X163226428Y-95408390D02*
X163274047Y-95456009D01*
X163274047Y-95456009D02*
X163321666Y-95551247D01*
X163321666Y-95551247D02*
X163321666Y-95789342D01*
X163321666Y-95789342D02*
X163274047Y-95884580D01*
X163274047Y-95884580D02*
X163226428Y-95932200D01*
X163226428Y-95932200D02*
X163131190Y-95979819D01*
X163131190Y-95979819D02*
X162893095Y-95979819D01*
X162893095Y-95979819D02*
X162797857Y-95932200D01*
X162797857Y-95932200D02*
X162750238Y-95884580D01*
D12*
%TO.C,L2*%
X116419000Y-77010000D02*
X116419000Y-77140000D01*
X116419000Y-77010000D02*
X122419000Y-77010000D01*
X116419000Y-83010000D02*
X116419000Y-82880000D01*
X116419000Y-83010000D02*
X122419000Y-83010000D01*
X122419000Y-77010000D02*
X122419000Y-77140000D01*
X122419000Y-83010000D02*
X122419000Y-82880000D01*
D13*
%TO.C,Cboot2*%
X112801400Y-99783900D02*
X113644836Y-99783900D01*
X114701164Y-99783900D02*
X115544600Y-99783900D01*
X112801400Y-95542100D02*
X112801400Y-99783900D01*
X112801400Y-95542100D02*
X113644836Y-95542100D01*
X114701164Y-95542100D02*
X115544600Y-95542100D01*
X115544600Y-95542100D02*
X115544600Y-99783900D01*
%TO.C,C2*%
X128346200Y-76415900D02*
G75*
G03*
X128193800Y-76415900I-76200J0D01*
G01*
X128193800Y-76415900D02*
G75*
G03*
X128346200Y-76415900I76200J0D01*
G01*
%TO.C,Rfbb2*%
X114236500Y-89671950D02*
X114236500Y-89398050D01*
X113093500Y-89398050D02*
X113093500Y-89671950D01*
D14*
%TO.C,J1*%
X102138000Y-83818000D02*
X102138000Y-83318000D01*
X102138000Y-83818000D02*
X101638000Y-83818000D01*
X102138000Y-77218000D02*
X102138000Y-77718000D01*
X102138000Y-77218000D02*
X101638000Y-77218000D01*
X96998000Y-83798000D02*
X97498000Y-83798000D01*
X96998000Y-83798000D02*
X96998000Y-83298000D01*
X96988000Y-77228000D02*
X97488000Y-77228000D01*
X96988000Y-77228000D02*
X96988000Y-77728000D01*
D13*
%TO.C,Rfbb1*%
X113640500Y-72526950D02*
X113640500Y-72253050D01*
X112497500Y-72253050D02*
X112497500Y-72526950D01*
D15*
%TO.C,J8*%
X186870000Y-96315000D02*
X186870000Y-97565000D01*
X187170000Y-96615000D02*
X187170000Y-101335000D01*
X187170000Y-97925000D02*
X187780000Y-97925000D01*
X187170000Y-99225000D02*
X187780000Y-99225000D01*
X187170000Y-101335000D02*
X195290000Y-101335000D01*
X187780000Y-97225000D02*
X187780000Y-100725000D01*
X187780000Y-100725000D02*
X194680000Y-100725000D01*
X188120000Y-96315000D02*
X186870000Y-96315000D01*
X188630000Y-96415000D02*
X188630000Y-96615000D01*
X188930000Y-96415000D02*
X188630000Y-96415000D01*
X188930000Y-96515000D02*
X188630000Y-96515000D01*
X188930000Y-96615000D02*
X188930000Y-96415000D01*
X189730000Y-96615000D02*
X189730000Y-97225000D01*
X189730000Y-97225000D02*
X187780000Y-97225000D01*
X190130000Y-100225000D02*
X190330000Y-100225000D01*
X190130000Y-100725000D02*
X190130000Y-100225000D01*
X190230000Y-100725000D02*
X190230000Y-100225000D01*
X190330000Y-100225000D02*
X190330000Y-100725000D01*
X192130000Y-100225000D02*
X192330000Y-100225000D01*
X192130000Y-100725000D02*
X192130000Y-100225000D01*
X192230000Y-100725000D02*
X192230000Y-100225000D01*
X192330000Y-100225000D02*
X192330000Y-100725000D01*
X192730000Y-97225000D02*
X192730000Y-96615000D01*
X194680000Y-97225000D02*
X192730000Y-97225000D01*
X194680000Y-100725000D02*
X194680000Y-97225000D01*
X195290000Y-96615000D02*
X187170000Y-96615000D01*
X195290000Y-97925000D02*
X194680000Y-97925000D01*
X195290000Y-99225000D02*
X194680000Y-99225000D01*
X195290000Y-101335000D02*
X195290000Y-96615000D01*
%TO.C,J12*%
X167630000Y-67190000D02*
X167630000Y-68440000D01*
X167930000Y-67490000D02*
X167930000Y-72210000D01*
X167930000Y-68800000D02*
X168540000Y-68800000D01*
X167930000Y-70100000D02*
X168540000Y-70100000D01*
X167930000Y-72210000D02*
X176050000Y-72210000D01*
X168540000Y-68100000D02*
X168540000Y-71600000D01*
X168540000Y-71600000D02*
X175440000Y-71600000D01*
X168880000Y-67190000D02*
X167630000Y-67190000D01*
X169390000Y-67290000D02*
X169390000Y-67490000D01*
X169690000Y-67290000D02*
X169390000Y-67290000D01*
X169690000Y-67390000D02*
X169390000Y-67390000D01*
X169690000Y-67490000D02*
X169690000Y-67290000D01*
X170490000Y-67490000D02*
X170490000Y-68100000D01*
X170490000Y-68100000D02*
X168540000Y-68100000D01*
X170890000Y-71100000D02*
X171090000Y-71100000D01*
X170890000Y-71600000D02*
X170890000Y-71100000D01*
X170990000Y-71600000D02*
X170990000Y-71100000D01*
X171090000Y-71100000D02*
X171090000Y-71600000D01*
X172890000Y-71100000D02*
X173090000Y-71100000D01*
X172890000Y-71600000D02*
X172890000Y-71100000D01*
X172990000Y-71600000D02*
X172990000Y-71100000D01*
X173090000Y-71100000D02*
X173090000Y-71600000D01*
X173490000Y-68100000D02*
X173490000Y-67490000D01*
X175440000Y-68100000D02*
X173490000Y-68100000D01*
X175440000Y-71600000D02*
X175440000Y-68100000D01*
X176050000Y-67490000D02*
X167930000Y-67490000D01*
X176050000Y-68800000D02*
X175440000Y-68800000D01*
X176050000Y-70100000D02*
X175440000Y-70100000D01*
X176050000Y-72210000D02*
X176050000Y-67490000D01*
D13*
%TO.C,Cin2*%
X110121700Y-95298050D02*
X110121700Y-92915950D01*
X108064300Y-92915950D02*
X108064300Y-95298050D01*
X109169200Y-97002600D02*
G75*
G03*
X109016800Y-97002600I-76200J0D01*
G01*
X109016800Y-97002600D02*
G75*
G03*
X109169200Y-97002600I76200J0D01*
G01*
D15*
%TO.C,R2*%
X138504600Y-78714600D02*
X138574600Y-78714600D01*
X138504600Y-78714600D02*
G75*
G03*
X135764600Y-78714600I-1370000J0D01*
G01*
X135764600Y-78714600D02*
G75*
G03*
X138504600Y-78714600I1370000J0D01*
G01*
D13*
%TO.C,Coutx1*%
X122492400Y-74510900D02*
X123335836Y-74510900D01*
X124392164Y-74510900D02*
X125235600Y-74510900D01*
X122492400Y-70269100D02*
X122492400Y-74510900D01*
X122492400Y-70269100D02*
X123335836Y-70269100D01*
X124392164Y-70269100D02*
X125235600Y-70269100D01*
X125235600Y-70269100D02*
X125235600Y-74510900D01*
D15*
%TO.C,J4*%
X148770000Y-96315000D02*
X148770000Y-97565000D01*
X149070000Y-96615000D02*
X149070000Y-101335000D01*
X149070000Y-97925000D02*
X149680000Y-97925000D01*
X149070000Y-99225000D02*
X149680000Y-99225000D01*
X149070000Y-101335000D02*
X157190000Y-101335000D01*
X149680000Y-97225000D02*
X149680000Y-100725000D01*
X149680000Y-100725000D02*
X156580000Y-100725000D01*
X150020000Y-96315000D02*
X148770000Y-96315000D01*
X150530000Y-96415000D02*
X150530000Y-96615000D01*
X150830000Y-96415000D02*
X150530000Y-96415000D01*
X150830000Y-96515000D02*
X150530000Y-96515000D01*
X150830000Y-96615000D02*
X150830000Y-96415000D01*
X151630000Y-96615000D02*
X151630000Y-97225000D01*
X151630000Y-97225000D02*
X149680000Y-97225000D01*
X152030000Y-100225000D02*
X152230000Y-100225000D01*
X152030000Y-100725000D02*
X152030000Y-100225000D01*
X152130000Y-100725000D02*
X152130000Y-100225000D01*
X152230000Y-100225000D02*
X152230000Y-100725000D01*
X154030000Y-100225000D02*
X154230000Y-100225000D01*
X154030000Y-100725000D02*
X154030000Y-100225000D01*
X154130000Y-100725000D02*
X154130000Y-100225000D01*
X154230000Y-100225000D02*
X154230000Y-100725000D01*
X154630000Y-97225000D02*
X154630000Y-96615000D01*
X156580000Y-97225000D02*
X154630000Y-97225000D01*
X156580000Y-100725000D02*
X156580000Y-97225000D01*
X157190000Y-96615000D02*
X149070000Y-96615000D01*
X157190000Y-97925000D02*
X156580000Y-97925000D01*
X157190000Y-99225000D02*
X156580000Y-99225000D01*
X157190000Y-101335000D02*
X157190000Y-96615000D01*
D13*
%TO.C,U1*%
X162849560Y-86233000D02*
X162128569Y-86233000D01*
X160451431Y-86233000D02*
X159588569Y-86233000D01*
X157911431Y-86233000D02*
X157048569Y-86233000D01*
X155371431Y-86233000D02*
X154508569Y-86233000D01*
X152831431Y-86233000D02*
X151968569Y-86233000D01*
X150291431Y-86233000D02*
X149428569Y-86233000D01*
X147751431Y-86233000D02*
X146888569Y-86233000D01*
X145097500Y-86233000D02*
X145097500Y-92837000D01*
X164782500Y-92837000D02*
X164782500Y-86506165D01*
X162128569Y-92837000D02*
X162991431Y-92837000D01*
X159588569Y-92837000D02*
X160451431Y-92837000D01*
X157048569Y-92837000D02*
X157911431Y-92837000D01*
X154508569Y-92837000D02*
X155371431Y-92837000D01*
X151968569Y-92837000D02*
X152831431Y-92837000D01*
X149428569Y-92837000D02*
X150291431Y-92837000D01*
X146888569Y-92837000D02*
X147751431Y-92837000D01*
X164782500Y-89230200D02*
G75*
G03*
X164782500Y-89839800I0J-304800D01*
G01*
%TO.C,Cvcc2*%
X115265200Y-92379800D02*
G75*
G03*
X115112800Y-92379800I-76200J0D01*
G01*
X115112800Y-92379800D02*
G75*
G03*
X115265200Y-92379800I76200J0D01*
G01*
%TO.C,Cinx2*%
X104673400Y-96227900D02*
X105516836Y-96227900D01*
X106573164Y-96227900D02*
X107416600Y-96227900D01*
X104673400Y-91986100D02*
X104673400Y-96227900D01*
X104673400Y-91986100D02*
X105516836Y-91986100D01*
X106573164Y-91986100D02*
X107416600Y-91986100D01*
X107416600Y-91986100D02*
X107416600Y-96227900D01*
%TO.C,Cout2*%
X121234200Y-92341700D02*
G75*
G03*
X121081800Y-92341700I-76200J0D01*
G01*
X121081800Y-92341700D02*
G75*
G03*
X121234200Y-92341700I76200J0D01*
G01*
D15*
%TO.C,R1*%
X132789600Y-78714600D02*
X132859600Y-78714600D01*
X132789600Y-78714600D02*
G75*
G03*
X130049600Y-78714600I-1370000J0D01*
G01*
X130049600Y-78714600D02*
G75*
G03*
X132789600Y-78714600I1370000J0D01*
G01*
%TO.C,J10*%
X186680000Y-67190000D02*
X186680000Y-68440000D01*
X186980000Y-67490000D02*
X186980000Y-72210000D01*
X186980000Y-68800000D02*
X187590000Y-68800000D01*
X186980000Y-70100000D02*
X187590000Y-70100000D01*
X186980000Y-72210000D02*
X195100000Y-72210000D01*
X187590000Y-68100000D02*
X187590000Y-71600000D01*
X187590000Y-71600000D02*
X194490000Y-71600000D01*
X187930000Y-67190000D02*
X186680000Y-67190000D01*
X188440000Y-67290000D02*
X188440000Y-67490000D01*
X188740000Y-67290000D02*
X188440000Y-67290000D01*
X188740000Y-67390000D02*
X188440000Y-67390000D01*
X188740000Y-67490000D02*
X188740000Y-67290000D01*
X189540000Y-67490000D02*
X189540000Y-68100000D01*
X189540000Y-68100000D02*
X187590000Y-68100000D01*
X189940000Y-71100000D02*
X190140000Y-71100000D01*
X189940000Y-71600000D02*
X189940000Y-71100000D01*
X190040000Y-71600000D02*
X190040000Y-71100000D01*
X190140000Y-71100000D02*
X190140000Y-71600000D01*
X191940000Y-71100000D02*
X192140000Y-71100000D01*
X191940000Y-71600000D02*
X191940000Y-71100000D01*
X192040000Y-71600000D02*
X192040000Y-71100000D01*
X192140000Y-71100000D02*
X192140000Y-71600000D01*
X192540000Y-68100000D02*
X192540000Y-67490000D01*
X194490000Y-68100000D02*
X192540000Y-68100000D01*
X194490000Y-71600000D02*
X194490000Y-68100000D01*
X195100000Y-67490000D02*
X186980000Y-67490000D01*
X195100000Y-68800000D02*
X194490000Y-68800000D01*
X195100000Y-70100000D02*
X194490000Y-70100000D01*
X195100000Y-72210000D02*
X195100000Y-67490000D01*
%TO.C,TP2*%
X126135000Y-101195000D02*
X129135000Y-101195000D01*
X126135000Y-101195000D02*
X126135000Y-93095000D01*
X129135000Y-93095000D02*
X129135000Y-101195000D01*
X129135000Y-93095000D02*
X126135000Y-93095000D01*
%TO.C,TP1*%
X144375000Y-74700000D02*
X141375000Y-74700000D01*
X144375000Y-74700000D02*
X144375000Y-82800000D01*
X141375000Y-82800000D02*
X141375000Y-74700000D01*
X141375000Y-82800000D02*
X144375000Y-82800000D01*
D14*
%TO.C,J17*%
X165275000Y-88325000D02*
X165775000Y-88325000D01*
X165275000Y-88325000D02*
X165275000Y-87825000D01*
X171275000Y-88325000D02*
X170775000Y-88325000D01*
X171275000Y-88325000D02*
X171275000Y-87825000D01*
X165275000Y-80125000D02*
X165275000Y-80625000D01*
X165275000Y-80125000D02*
X165775000Y-80125000D01*
X171275000Y-80125000D02*
X171275000Y-80625000D01*
X171275000Y-80125000D02*
X170775000Y-80125000D01*
%TO.C,IC1*%
X140161000Y-87364600D02*
X140161000Y-87364600D01*
X140261000Y-87364600D02*
X140261000Y-87364600D01*
X140261000Y-87364600D02*
G75*
G03*
X140161000Y-87364600I-50000J0D01*
G01*
X140161000Y-87364600D02*
G75*
G03*
X140261000Y-87364600I50000J0D01*
G01*
D15*
%TO.C,J6*%
X167820000Y-96315000D02*
X167820000Y-97565000D01*
X168120000Y-96615000D02*
X168120000Y-101335000D01*
X168120000Y-97925000D02*
X168730000Y-97925000D01*
X168120000Y-99225000D02*
X168730000Y-99225000D01*
X168120000Y-101335000D02*
X176240000Y-101335000D01*
X168730000Y-97225000D02*
X168730000Y-100725000D01*
X168730000Y-100725000D02*
X175630000Y-100725000D01*
X169070000Y-96315000D02*
X167820000Y-96315000D01*
X169580000Y-96415000D02*
X169580000Y-96615000D01*
X169880000Y-96415000D02*
X169580000Y-96415000D01*
X169880000Y-96515000D02*
X169580000Y-96515000D01*
X169880000Y-96615000D02*
X169880000Y-96415000D01*
X170680000Y-96615000D02*
X170680000Y-97225000D01*
X170680000Y-97225000D02*
X168730000Y-97225000D01*
X171080000Y-100225000D02*
X171280000Y-100225000D01*
X171080000Y-100725000D02*
X171080000Y-100225000D01*
X171180000Y-100725000D02*
X171180000Y-100225000D01*
X171280000Y-100225000D02*
X171280000Y-100725000D01*
X173080000Y-100225000D02*
X173280000Y-100225000D01*
X173080000Y-100725000D02*
X173080000Y-100225000D01*
X173180000Y-100725000D02*
X173180000Y-100225000D01*
X173280000Y-100225000D02*
X173280000Y-100725000D01*
X173680000Y-97225000D02*
X173680000Y-96615000D01*
X175630000Y-97225000D02*
X173680000Y-97225000D01*
X175630000Y-100725000D02*
X175630000Y-97225000D01*
X176240000Y-96615000D02*
X168120000Y-96615000D01*
X176240000Y-97925000D02*
X175630000Y-97925000D01*
X176240000Y-99225000D02*
X175630000Y-99225000D01*
X176240000Y-101335000D02*
X176240000Y-96615000D01*
%TO.C,C1*%
X134490000Y-89719000D02*
X134490000Y-90385000D01*
X134490000Y-89719000D02*
X139830000Y-89719000D01*
X134490000Y-92495000D02*
X134490000Y-93161000D01*
X134490000Y-93161000D02*
X139830000Y-93161000D01*
X139830000Y-89719000D02*
X139830000Y-90385000D01*
X139830000Y-92495000D02*
X139830000Y-93161000D01*
D13*
%TO.C,Cin1*%
X109017700Y-78153050D02*
X109017700Y-75770950D01*
X106960300Y-75770950D02*
X106960300Y-78153050D01*
X108065200Y-79857600D02*
G75*
G03*
X107912800Y-79857600I-76200J0D01*
G01*
X107912800Y-79857600D02*
G75*
G03*
X108065200Y-79857600I76200J0D01*
G01*
%TO.C,U2*%
X147030440Y-82677000D02*
X147751431Y-82677000D01*
X149428569Y-82677000D02*
X150291431Y-82677000D01*
X151968569Y-82677000D02*
X152831431Y-82677000D01*
X154508569Y-82677000D02*
X155371431Y-82677000D01*
X157048569Y-82677000D02*
X157911431Y-82677000D01*
X159588569Y-82677000D02*
X160451431Y-82677000D01*
X162128569Y-82677000D02*
X162991431Y-82677000D01*
X164782500Y-82677000D02*
X164782500Y-76073000D01*
X145097500Y-76073000D02*
X145097500Y-82403835D01*
X147751431Y-76073000D02*
X146888569Y-76073000D01*
X150291431Y-76073000D02*
X149428569Y-76073000D01*
X152831431Y-76073000D02*
X151968569Y-76073000D01*
X155371431Y-76073000D02*
X154508569Y-76073000D01*
X157911431Y-76073000D02*
X157048569Y-76073000D01*
X160451431Y-76073000D02*
X159588569Y-76073000D01*
X162991431Y-76073000D02*
X162128569Y-76073000D01*
X145097500Y-79679800D02*
G75*
G03*
X145097500Y-79070200I0J304800D01*
G01*
%TO.C,Cff1*%
X109995600Y-71005700D02*
X109995600Y-72504300D01*
X107252400Y-71005700D02*
X107252400Y-72504300D01*
X109995600Y-71005700D02*
G75*
G03*
X108937575Y-69670426I-1371598J1D01*
G01*
X108310423Y-69670426D02*
G75*
G03*
X107252400Y-71005701I313578J-1335275D01*
G01*
X108937575Y-73839574D02*
G75*
G03*
X109995600Y-72504300I-313575J1335274D01*
G01*
X107252400Y-72504300D02*
G75*
G03*
X108310425Y-73839574I1371598J-1D01*
G01*
D14*
%TO.C,J18*%
X97003000Y-84076000D02*
X97003000Y-84576000D01*
X97003000Y-84076000D02*
X97503000Y-84076000D01*
X97003000Y-90676000D02*
X97003000Y-90176000D01*
X97003000Y-90676000D02*
X97503000Y-90676000D01*
X102143000Y-84096000D02*
X101643000Y-84096000D01*
X102143000Y-84096000D02*
X102143000Y-84596000D01*
X102153000Y-90666000D02*
X101653000Y-90666000D01*
X102153000Y-90666000D02*
X102153000Y-90166000D01*
D13*
%TO.C,Cff2*%
X111226600Y-88277700D02*
X111226600Y-89776300D01*
X108483400Y-88277700D02*
X108483400Y-89776300D01*
X111226600Y-88277700D02*
G75*
G03*
X110168575Y-86942426I-1371598J1D01*
G01*
X109541423Y-86942426D02*
G75*
G03*
X108483400Y-88277701I313578J-1335275D01*
G01*
X110168575Y-91111574D02*
G75*
G03*
X111226600Y-89776300I-313575J1335274D01*
G01*
X108483400Y-89776300D02*
G75*
G03*
X109541425Y-91111574I1371598J-1D01*
G01*
%TO.C,Cboot1*%
X112332400Y-82745900D02*
X113175836Y-82745900D01*
X114232164Y-82745900D02*
X115075600Y-82745900D01*
X112332400Y-78504100D02*
X112332400Y-82745900D01*
X112332400Y-78504100D02*
X113175836Y-78504100D01*
X114232164Y-78504100D02*
X115075600Y-78504100D01*
X115075600Y-78504100D02*
X115075600Y-82745900D01*
%TO.C,Cvcc1*%
X115050200Y-74434700D02*
G75*
G03*
X114897800Y-74434700I-76200J0D01*
G01*
X114897800Y-74434700D02*
G75*
G03*
X115050200Y-74434700I76200J0D01*
G01*
D15*
%TO.C,J2*%
X129720000Y-96315000D02*
X129720000Y-97565000D01*
X130020000Y-96615000D02*
X130020000Y-101335000D01*
X130020000Y-97925000D02*
X130630000Y-97925000D01*
X130020000Y-99225000D02*
X130630000Y-99225000D01*
X130020000Y-101335000D02*
X138140000Y-101335000D01*
X130630000Y-97225000D02*
X130630000Y-100725000D01*
X130630000Y-100725000D02*
X137530000Y-100725000D01*
X130970000Y-96315000D02*
X129720000Y-96315000D01*
X131480000Y-96415000D02*
X131480000Y-96615000D01*
X131780000Y-96415000D02*
X131480000Y-96415000D01*
X131780000Y-96515000D02*
X131480000Y-96515000D01*
X131780000Y-96615000D02*
X131780000Y-96415000D01*
X132580000Y-96615000D02*
X132580000Y-97225000D01*
X132580000Y-97225000D02*
X130630000Y-97225000D01*
X132980000Y-100225000D02*
X133180000Y-100225000D01*
X132980000Y-100725000D02*
X132980000Y-100225000D01*
X133080000Y-100725000D02*
X133080000Y-100225000D01*
X133180000Y-100225000D02*
X133180000Y-100725000D01*
X134980000Y-100225000D02*
X135180000Y-100225000D01*
X134980000Y-100725000D02*
X134980000Y-100225000D01*
X135080000Y-100725000D02*
X135080000Y-100225000D01*
X135180000Y-100225000D02*
X135180000Y-100725000D01*
X135580000Y-97225000D02*
X135580000Y-96615000D01*
X137530000Y-97225000D02*
X135580000Y-97225000D01*
X137530000Y-100725000D02*
X137530000Y-97225000D01*
X138140000Y-96615000D02*
X130020000Y-96615000D01*
X138140000Y-97925000D02*
X137530000Y-97925000D01*
X138140000Y-99225000D02*
X137530000Y-99225000D01*
X138140000Y-101335000D02*
X138140000Y-96615000D01*
%TO.C,Rpg2*%
X117729000Y-90397000D02*
X117729000Y-90467000D01*
X119099000Y-89027000D02*
G75*
G03*
X116359000Y-89027000I-1370000J0D01*
G01*
X116359000Y-89027000D02*
G75*
G03*
X119099000Y-89027000I1370000J0D01*
G01*
%TO.C,TP3*%
X125754000Y-75414000D02*
X128754000Y-75414000D01*
X125754000Y-75414000D02*
X125754000Y-67314000D01*
X128754000Y-67314000D02*
X128754000Y-75414000D01*
X128754000Y-67314000D02*
X125754000Y-67314000D01*
%TO.C,J14*%
X148580000Y-67190000D02*
X148580000Y-68440000D01*
X148880000Y-67490000D02*
X148880000Y-72210000D01*
X148880000Y-68800000D02*
X149490000Y-68800000D01*
X148880000Y-70100000D02*
X149490000Y-70100000D01*
X148880000Y-72210000D02*
X157000000Y-72210000D01*
X149490000Y-68100000D02*
X149490000Y-71600000D01*
X149490000Y-71600000D02*
X156390000Y-71600000D01*
X149830000Y-67190000D02*
X148580000Y-67190000D01*
X150340000Y-67290000D02*
X150340000Y-67490000D01*
X150640000Y-67290000D02*
X150340000Y-67290000D01*
X150640000Y-67390000D02*
X150340000Y-67390000D01*
X150640000Y-67490000D02*
X150640000Y-67290000D01*
X151440000Y-67490000D02*
X151440000Y-68100000D01*
X151440000Y-68100000D02*
X149490000Y-68100000D01*
X151840000Y-71100000D02*
X152040000Y-71100000D01*
X151840000Y-71600000D02*
X151840000Y-71100000D01*
X151940000Y-71600000D02*
X151940000Y-71100000D01*
X152040000Y-71100000D02*
X152040000Y-71600000D01*
X153840000Y-71100000D02*
X154040000Y-71100000D01*
X153840000Y-71600000D02*
X153840000Y-71100000D01*
X153940000Y-71600000D02*
X153940000Y-71100000D01*
X154040000Y-71100000D02*
X154040000Y-71600000D01*
X154440000Y-68100000D02*
X154440000Y-67490000D01*
X156390000Y-68100000D02*
X154440000Y-68100000D01*
X156390000Y-71600000D02*
X156390000Y-68100000D01*
X157000000Y-67490000D02*
X148880000Y-67490000D01*
X157000000Y-68800000D02*
X156390000Y-68800000D01*
X157000000Y-70100000D02*
X156390000Y-70100000D01*
X157000000Y-72210000D02*
X157000000Y-67490000D01*
D13*
%TO.C,Coutx2*%
X122834400Y-92163900D02*
X123677836Y-92163900D01*
X124734164Y-92163900D02*
X125577600Y-92163900D01*
X122834400Y-87922100D02*
X122834400Y-92163900D01*
X122834400Y-87922100D02*
X123677836Y-87922100D01*
X124734164Y-87922100D02*
X125577600Y-87922100D01*
X125577600Y-87922100D02*
X125577600Y-92163900D01*
D15*
%TO.C,Rpg1*%
X117514000Y-72080000D02*
X117514000Y-72150000D01*
X118884000Y-70710000D02*
G75*
G03*
X116144000Y-70710000I-1370000J0D01*
G01*
X116144000Y-70710000D02*
G75*
G03*
X118884000Y-70710000I1370000J0D01*
G01*
%TO.C,J7*%
X177345000Y-96315000D02*
X177345000Y-97565000D01*
X177645000Y-96615000D02*
X177645000Y-101335000D01*
X177645000Y-97925000D02*
X178255000Y-97925000D01*
X177645000Y-99225000D02*
X178255000Y-99225000D01*
X177645000Y-101335000D02*
X185765000Y-101335000D01*
X178255000Y-97225000D02*
X178255000Y-100725000D01*
X178255000Y-100725000D02*
X185155000Y-100725000D01*
X178595000Y-96315000D02*
X177345000Y-96315000D01*
X179105000Y-96415000D02*
X179105000Y-96615000D01*
X179405000Y-96415000D02*
X179105000Y-96415000D01*
X179405000Y-96515000D02*
X179105000Y-96515000D01*
X179405000Y-96615000D02*
X179405000Y-96415000D01*
X180205000Y-96615000D02*
X180205000Y-97225000D01*
X180205000Y-97225000D02*
X178255000Y-97225000D01*
X180605000Y-100225000D02*
X180805000Y-100225000D01*
X180605000Y-100725000D02*
X180605000Y-100225000D01*
X180705000Y-100725000D02*
X180705000Y-100225000D01*
X180805000Y-100225000D02*
X180805000Y-100725000D01*
X182605000Y-100225000D02*
X182805000Y-100225000D01*
X182605000Y-100725000D02*
X182605000Y-100225000D01*
X182705000Y-100725000D02*
X182705000Y-100225000D01*
X182805000Y-100225000D02*
X182805000Y-100725000D01*
X183205000Y-97225000D02*
X183205000Y-96615000D01*
X185155000Y-97225000D02*
X183205000Y-97225000D01*
X185155000Y-100725000D02*
X185155000Y-97225000D01*
X185765000Y-96615000D02*
X177645000Y-96615000D01*
X185765000Y-97925000D02*
X185155000Y-97925000D01*
X185765000Y-99225000D02*
X185155000Y-99225000D01*
X185765000Y-101335000D02*
X185765000Y-96615000D01*
D16*
%TO.C,U5*%
X114129000Y-74609996D02*
X114129000Y-75209997D01*
X113929001Y-74609996D02*
X114129000Y-74609996D01*
X111929000Y-74609996D02*
X112128999Y-74609996D01*
X111929000Y-74609996D02*
X111929000Y-74809995D01*
X114129000Y-77010001D02*
X114129000Y-77210000D01*
X111929000Y-77010001D02*
X111929000Y-77210000D01*
X113929001Y-77210000D02*
X114129000Y-77210000D01*
X111929000Y-77210000D02*
X112128999Y-77210000D01*
D13*
%TO.C,Cinx1*%
X103442400Y-78955900D02*
X104285836Y-78955900D01*
X105342164Y-78955900D02*
X106185600Y-78955900D01*
X103442400Y-74714100D02*
X103442400Y-78955900D01*
X103442400Y-74714100D02*
X104285836Y-74714100D01*
X105342164Y-74714100D02*
X106185600Y-74714100D01*
X106185600Y-74714100D02*
X106185600Y-78955900D01*
D12*
%TO.C,U3*%
X193421000Y-75565000D02*
X193421000Y-93345000D01*
X172466000Y-75565000D02*
X193421000Y-75565000D01*
X193421000Y-93345000D02*
X172466000Y-93345000D01*
X172466000Y-93345000D02*
X172466000Y-75565000D01*
D16*
X190727000Y-74955000D02*
G75*
G03*
X190527000Y-74955000I-100000J0D01*
G01*
X190527000Y-74955000D02*
G75*
G03*
X190727000Y-74955000I100000J0D01*
G01*
D15*
%TO.C,J13*%
X158105000Y-67190000D02*
X158105000Y-68440000D01*
X158405000Y-67490000D02*
X158405000Y-72210000D01*
X158405000Y-68800000D02*
X159015000Y-68800000D01*
X158405000Y-70100000D02*
X159015000Y-70100000D01*
X158405000Y-72210000D02*
X166525000Y-72210000D01*
X159015000Y-68100000D02*
X159015000Y-71600000D01*
X159015000Y-71600000D02*
X165915000Y-71600000D01*
X159355000Y-67190000D02*
X158105000Y-67190000D01*
X159865000Y-67290000D02*
X159865000Y-67490000D01*
X160165000Y-67290000D02*
X159865000Y-67290000D01*
X160165000Y-67390000D02*
X159865000Y-67390000D01*
X160165000Y-67490000D02*
X160165000Y-67290000D01*
X160965000Y-67490000D02*
X160965000Y-68100000D01*
X160965000Y-68100000D02*
X159015000Y-68100000D01*
X161365000Y-71100000D02*
X161565000Y-71100000D01*
X161365000Y-71600000D02*
X161365000Y-71100000D01*
X161465000Y-71600000D02*
X161465000Y-71100000D01*
X161565000Y-71100000D02*
X161565000Y-71600000D01*
X163365000Y-71100000D02*
X163565000Y-71100000D01*
X163365000Y-71600000D02*
X163365000Y-71100000D01*
X163465000Y-71600000D02*
X163465000Y-71100000D01*
X163565000Y-71100000D02*
X163565000Y-71600000D01*
X163965000Y-68100000D02*
X163965000Y-67490000D01*
X165915000Y-68100000D02*
X163965000Y-68100000D01*
X165915000Y-71600000D02*
X165915000Y-68100000D01*
X166525000Y-67490000D02*
X158405000Y-67490000D01*
X166525000Y-68800000D02*
X165915000Y-68800000D01*
X166525000Y-70100000D02*
X165915000Y-70100000D01*
X166525000Y-72210000D02*
X166525000Y-67490000D01*
D16*
%TO.C,U4*%
X114502999Y-92356999D02*
X114502999Y-92957000D01*
X114303000Y-92356999D02*
X114502999Y-92356999D01*
X112302999Y-92356999D02*
X112502998Y-92356999D01*
X112302999Y-92356999D02*
X112302999Y-92556998D01*
X114502999Y-94757004D02*
X114502999Y-94957003D01*
X112302999Y-94757004D02*
X112302999Y-94957003D01*
X114303000Y-94957003D02*
X114502999Y-94957003D01*
X112302999Y-94957003D02*
X112502998Y-94957003D01*
D15*
%TO.C,J15*%
X139055000Y-67190000D02*
X139055000Y-68440000D01*
X139355000Y-67490000D02*
X139355000Y-72210000D01*
X139355000Y-68800000D02*
X139965000Y-68800000D01*
X139355000Y-70100000D02*
X139965000Y-70100000D01*
X139355000Y-72210000D02*
X147475000Y-72210000D01*
X139965000Y-68100000D02*
X139965000Y-71600000D01*
X139965000Y-71600000D02*
X146865000Y-71600000D01*
X140305000Y-67190000D02*
X139055000Y-67190000D01*
X140815000Y-67290000D02*
X140815000Y-67490000D01*
X141115000Y-67290000D02*
X140815000Y-67290000D01*
X141115000Y-67390000D02*
X140815000Y-67390000D01*
X141115000Y-67490000D02*
X141115000Y-67290000D01*
X141915000Y-67490000D02*
X141915000Y-68100000D01*
X141915000Y-68100000D02*
X139965000Y-68100000D01*
X142315000Y-71100000D02*
X142515000Y-71100000D01*
X142315000Y-71600000D02*
X142315000Y-71100000D01*
X142415000Y-71600000D02*
X142415000Y-71100000D01*
X142515000Y-71100000D02*
X142515000Y-71600000D01*
X144315000Y-71100000D02*
X144515000Y-71100000D01*
X144315000Y-71600000D02*
X144315000Y-71100000D01*
X144415000Y-71600000D02*
X144415000Y-71100000D01*
X144515000Y-71100000D02*
X144515000Y-71600000D01*
X144915000Y-68100000D02*
X144915000Y-67490000D01*
X146865000Y-68100000D02*
X144915000Y-68100000D01*
X146865000Y-71600000D02*
X146865000Y-68100000D01*
X147475000Y-67490000D02*
X139355000Y-67490000D01*
X147475000Y-68800000D02*
X146865000Y-68800000D01*
X147475000Y-70100000D02*
X146865000Y-70100000D01*
X147475000Y-72210000D02*
X147475000Y-67490000D01*
D13*
%TO.C,C4*%
X144246600Y-84894100D02*
X143403164Y-84894100D01*
X142346836Y-84894100D02*
X141503400Y-84894100D01*
X144246600Y-89135900D02*
X144246600Y-84894100D01*
X144246600Y-89135900D02*
X143403164Y-89135900D01*
X142346836Y-89135900D02*
X141503400Y-89135900D01*
X141503400Y-89135900D02*
X141503400Y-84894100D01*
D12*
%TO.C,L1*%
X116761000Y-95171000D02*
X116761000Y-95301000D01*
X116761000Y-95171000D02*
X122761000Y-95171000D01*
X116761000Y-101171000D02*
X116761000Y-101041000D01*
X116761000Y-101171000D02*
X122761000Y-101171000D01*
X122761000Y-95171000D02*
X122761000Y-95301000D01*
X122761000Y-101171000D02*
X122761000Y-101041000D01*
D13*
%TO.C,C3*%
X141503400Y-94195900D02*
X142346836Y-94195900D01*
X143403164Y-94195900D02*
X144246600Y-94195900D01*
X141503400Y-89954100D02*
X141503400Y-94195900D01*
X141503400Y-89954100D02*
X142346836Y-89954100D01*
X143403164Y-89954100D02*
X144246600Y-89954100D01*
X144246600Y-89954100D02*
X144246600Y-94195900D01*
D15*
%TO.C,J16*%
X129340000Y-67190000D02*
X129340000Y-68440000D01*
X129640000Y-67490000D02*
X129640000Y-72210000D01*
X129640000Y-68800000D02*
X130250000Y-68800000D01*
X129640000Y-70100000D02*
X130250000Y-70100000D01*
X129640000Y-72210000D02*
X137760000Y-72210000D01*
X130250000Y-68100000D02*
X130250000Y-71600000D01*
X130250000Y-71600000D02*
X137150000Y-71600000D01*
X130590000Y-67190000D02*
X129340000Y-67190000D01*
X131100000Y-67290000D02*
X131100000Y-67490000D01*
X131400000Y-67290000D02*
X131100000Y-67290000D01*
X131400000Y-67390000D02*
X131100000Y-67390000D01*
X131400000Y-67490000D02*
X131400000Y-67290000D01*
X132200000Y-67490000D02*
X132200000Y-68100000D01*
X132200000Y-68100000D02*
X130250000Y-68100000D01*
X132600000Y-71100000D02*
X132800000Y-71100000D01*
X132600000Y-71600000D02*
X132600000Y-71100000D01*
X132700000Y-71600000D02*
X132700000Y-71100000D01*
X132800000Y-71100000D02*
X132800000Y-71600000D01*
X134600000Y-71100000D02*
X134800000Y-71100000D01*
X134600000Y-71600000D02*
X134600000Y-71100000D01*
X134700000Y-71600000D02*
X134700000Y-71100000D01*
X134800000Y-71100000D02*
X134800000Y-71600000D01*
X135200000Y-68100000D02*
X135200000Y-67490000D01*
X137150000Y-68100000D02*
X135200000Y-68100000D01*
X137150000Y-71600000D02*
X137150000Y-68100000D01*
X137760000Y-67490000D02*
X129640000Y-67490000D01*
X137760000Y-68800000D02*
X137150000Y-68800000D01*
X137760000Y-70100000D02*
X137150000Y-70100000D01*
X137760000Y-72210000D02*
X137760000Y-67490000D01*
D13*
%TO.C,Cout1*%
X120765200Y-74688700D02*
G75*
G03*
X120612800Y-74688700I-76200J0D01*
G01*
X120612800Y-74688700D02*
G75*
G03*
X120765200Y-74688700I76200J0D01*
G01*
D15*
%TO.C,J3*%
X139340000Y-96315000D02*
X139340000Y-97565000D01*
X139640000Y-96615000D02*
X139640000Y-101335000D01*
X139640000Y-97925000D02*
X140250000Y-97925000D01*
X139640000Y-99225000D02*
X140250000Y-99225000D01*
X139640000Y-101335000D02*
X147760000Y-101335000D01*
X140250000Y-97225000D02*
X140250000Y-100725000D01*
X140250000Y-100725000D02*
X147150000Y-100725000D01*
X140590000Y-96315000D02*
X139340000Y-96315000D01*
X141100000Y-96415000D02*
X141100000Y-96615000D01*
X141400000Y-96415000D02*
X141100000Y-96415000D01*
X141400000Y-96515000D02*
X141100000Y-96515000D01*
X141400000Y-96615000D02*
X141400000Y-96415000D01*
X142200000Y-96615000D02*
X142200000Y-97225000D01*
X142200000Y-97225000D02*
X140250000Y-97225000D01*
X142600000Y-100225000D02*
X142800000Y-100225000D01*
X142600000Y-100725000D02*
X142600000Y-100225000D01*
X142700000Y-100725000D02*
X142700000Y-100225000D01*
X142800000Y-100225000D02*
X142800000Y-100725000D01*
X144600000Y-100225000D02*
X144800000Y-100225000D01*
X144600000Y-100725000D02*
X144600000Y-100225000D01*
X144700000Y-100725000D02*
X144700000Y-100225000D01*
X144800000Y-100225000D02*
X144800000Y-100725000D01*
X145200000Y-97225000D02*
X145200000Y-96615000D01*
X147150000Y-97225000D02*
X145200000Y-97225000D01*
X147150000Y-100725000D02*
X147150000Y-97225000D01*
X147760000Y-96615000D02*
X139640000Y-96615000D01*
X147760000Y-97925000D02*
X147150000Y-97925000D01*
X147760000Y-99225000D02*
X147150000Y-99225000D01*
X147760000Y-101335000D02*
X147760000Y-96615000D01*
%TO.C,J11*%
X177155000Y-67190000D02*
X177155000Y-68440000D01*
X177455000Y-67490000D02*
X177455000Y-72210000D01*
X177455000Y-68800000D02*
X178065000Y-68800000D01*
X177455000Y-70100000D02*
X178065000Y-70100000D01*
X177455000Y-72210000D02*
X185575000Y-72210000D01*
X178065000Y-68100000D02*
X178065000Y-71600000D01*
X178065000Y-71600000D02*
X184965000Y-71600000D01*
X178405000Y-67190000D02*
X177155000Y-67190000D01*
X178915000Y-67290000D02*
X178915000Y-67490000D01*
X179215000Y-67290000D02*
X178915000Y-67290000D01*
X179215000Y-67390000D02*
X178915000Y-67390000D01*
X179215000Y-67490000D02*
X179215000Y-67290000D01*
X180015000Y-67490000D02*
X180015000Y-68100000D01*
X180015000Y-68100000D02*
X178065000Y-68100000D01*
X180415000Y-71100000D02*
X180615000Y-71100000D01*
X180415000Y-71600000D02*
X180415000Y-71100000D01*
X180515000Y-71600000D02*
X180515000Y-71100000D01*
X180615000Y-71100000D02*
X180615000Y-71600000D01*
X182415000Y-71100000D02*
X182615000Y-71100000D01*
X182415000Y-71600000D02*
X182415000Y-71100000D01*
X182515000Y-71600000D02*
X182515000Y-71100000D01*
X182615000Y-71100000D02*
X182615000Y-71600000D01*
X183015000Y-68100000D02*
X183015000Y-67490000D01*
X184965000Y-68100000D02*
X183015000Y-68100000D01*
X184965000Y-71600000D02*
X184965000Y-68100000D01*
X185575000Y-67490000D02*
X177455000Y-67490000D01*
X185575000Y-68800000D02*
X184965000Y-68800000D01*
X185575000Y-70100000D02*
X184965000Y-70100000D01*
X185575000Y-72210000D02*
X185575000Y-67490000D01*
%TO.C,J5*%
X158295000Y-96315000D02*
X158295000Y-97565000D01*
X158595000Y-96615000D02*
X158595000Y-101335000D01*
X158595000Y-97925000D02*
X159205000Y-97925000D01*
X158595000Y-99225000D02*
X159205000Y-99225000D01*
X158595000Y-101335000D02*
X166715000Y-101335000D01*
X159205000Y-97225000D02*
X159205000Y-100725000D01*
X159205000Y-100725000D02*
X166105000Y-100725000D01*
X159545000Y-96315000D02*
X158295000Y-96315000D01*
X160055000Y-96415000D02*
X160055000Y-96615000D01*
X160355000Y-96415000D02*
X160055000Y-96415000D01*
X160355000Y-96515000D02*
X160055000Y-96515000D01*
X160355000Y-96615000D02*
X160355000Y-96415000D01*
X161155000Y-96615000D02*
X161155000Y-97225000D01*
X161155000Y-97225000D02*
X159205000Y-97225000D01*
X161555000Y-100225000D02*
X161755000Y-100225000D01*
X161555000Y-100725000D02*
X161555000Y-100225000D01*
X161655000Y-100725000D02*
X161655000Y-100225000D01*
X161755000Y-100225000D02*
X161755000Y-100725000D01*
X163555000Y-100225000D02*
X163755000Y-100225000D01*
X163555000Y-100725000D02*
X163555000Y-100225000D01*
X163655000Y-100725000D02*
X163655000Y-100225000D01*
X163755000Y-100225000D02*
X163755000Y-100725000D01*
X164155000Y-97225000D02*
X164155000Y-96615000D01*
X166105000Y-97225000D02*
X164155000Y-97225000D01*
X166105000Y-100725000D02*
X166105000Y-97225000D01*
X166715000Y-96615000D02*
X158595000Y-96615000D01*
X166715000Y-97925000D02*
X166105000Y-97925000D01*
X166715000Y-99225000D02*
X166105000Y-99225000D01*
X166715000Y-101335000D02*
X166715000Y-96615000D01*
%TD*%
%LPC*%
D17*
%TO.C,REF\u002A\u002A*%
X200152000Y-99060000D03*
%TD*%
%TO.C,REF\u002A\u002A*%
X200152000Y-69850000D03*
%TD*%
%TO.C,REF\u002A\u002A*%
X99314000Y-69850000D03*
%TD*%
%TO.C,REF\u002A\u002A*%
X99314000Y-99060000D03*
%TD*%
D18*
%TO.C,L2*%
X117319000Y-80010000D03*
X121519000Y-80010000D03*
%TD*%
D19*
%TO.C,Cboot2*%
X114173000Y-98913000D03*
X114173000Y-96413000D03*
%TD*%
D20*
%TO.C,C2*%
X128270000Y-77787500D03*
X128270000Y-79641700D03*
%TD*%
D21*
%TO.C,Rfbb2*%
X113665000Y-90284300D03*
X113665000Y-88785700D03*
%TD*%
D22*
%TO.C,J1*%
X100838000Y-80518000D03*
X98298000Y-80518000D03*
%TD*%
D21*
%TO.C,Rfbb1*%
X113069000Y-73139300D03*
X113069000Y-71640700D03*
%TD*%
D23*
%TO.C,J8*%
X189230000Y-98425000D03*
D24*
X191230000Y-98425000D03*
X193230000Y-98425000D03*
%TD*%
D23*
%TO.C,J12*%
X169990000Y-69300000D03*
D24*
X171990000Y-69300000D03*
X173990000Y-69300000D03*
%TD*%
D25*
%TO.C,Cin2*%
X109093000Y-95885000D03*
X109093000Y-92329000D03*
%TD*%
D26*
%TO.C,R2*%
X137134600Y-78714600D03*
D27*
X139674600Y-78714600D03*
%TD*%
D19*
%TO.C,Coutx1*%
X123864000Y-73640000D03*
X123864000Y-71140000D03*
%TD*%
D23*
%TO.C,J4*%
X151130000Y-98425000D03*
D24*
X153130000Y-98425000D03*
X155130000Y-98425000D03*
%TD*%
D28*
%TO.C,U1*%
X163830000Y-85725000D03*
D29*
X161290000Y-85725000D03*
X158750000Y-85725000D03*
X156210000Y-85725000D03*
X153670000Y-85725000D03*
X151130000Y-85725000D03*
X148590000Y-85725000D03*
X146050000Y-85725000D03*
X146050000Y-93345000D03*
X148590000Y-93345000D03*
X151130000Y-93345000D03*
X153670000Y-93345000D03*
X156210000Y-93345000D03*
X158750000Y-93345000D03*
X161290000Y-93345000D03*
X163830000Y-93345000D03*
%TD*%
D30*
%TO.C,Cvcc2*%
X115189000Y-91059000D03*
X115189000Y-89611200D03*
%TD*%
D19*
%TO.C,Cinx2*%
X106045000Y-95357000D03*
X106045000Y-92857000D03*
%TD*%
D20*
%TO.C,Cout2*%
X121158000Y-90970100D03*
X121158000Y-89115900D03*
%TD*%
D26*
%TO.C,R1*%
X131419600Y-78714600D03*
D27*
X133959600Y-78714600D03*
%TD*%
D23*
%TO.C,J10*%
X189040000Y-69300000D03*
D24*
X191040000Y-69300000D03*
X193040000Y-69300000D03*
%TD*%
D31*
%TO.C,TP2*%
X127635000Y-99695000D03*
D32*
X127635000Y-94615000D03*
%TD*%
D33*
%TO.C,TP1*%
X142875000Y-76200000D03*
D32*
X142875000Y-81280000D03*
%TD*%
D34*
%TO.C,J17*%
X168275000Y-85725000D03*
X168275000Y-83225000D03*
%TD*%
D35*
%TO.C,IC1*%
X138430000Y-87364600D03*
D36*
X131580000Y-85064600D03*
D35*
X138430000Y-82764600D03*
%TD*%
D23*
%TO.C,J6*%
X170180000Y-98425000D03*
D24*
X172180000Y-98425000D03*
X174180000Y-98425000D03*
%TD*%
D26*
%TO.C,C1*%
X134660000Y-91440000D03*
X139660000Y-91440000D03*
%TD*%
D25*
%TO.C,Cin1*%
X107989000Y-78740000D03*
X107989000Y-75184000D03*
%TD*%
D28*
%TO.C,U2*%
X146050000Y-83185000D03*
D29*
X148590000Y-83185000D03*
X151130000Y-83185000D03*
X153670000Y-83185000D03*
X156210000Y-83185000D03*
X158750000Y-83185000D03*
X161290000Y-83185000D03*
X163830000Y-83185000D03*
X163830000Y-75565000D03*
X161290000Y-75565000D03*
X158750000Y-75565000D03*
X156210000Y-75565000D03*
X153670000Y-75565000D03*
X151130000Y-75565000D03*
X148590000Y-75565000D03*
X146050000Y-75565000D03*
%TD*%
D37*
%TO.C,Cff1*%
X108624000Y-70505000D03*
X108624000Y-73005000D03*
%TD*%
D22*
%TO.C,J18*%
X98303000Y-87376000D03*
X100843000Y-87376000D03*
%TD*%
D37*
%TO.C,Cff2*%
X109855000Y-87777000D03*
X109855000Y-90277000D03*
%TD*%
D19*
%TO.C,Cboot1*%
X113704000Y-81875000D03*
X113704000Y-79375000D03*
%TD*%
D30*
%TO.C,Cvcc1*%
X114974000Y-73113900D03*
X114974000Y-71666100D03*
%TD*%
D23*
%TO.C,J2*%
X132080000Y-98425000D03*
D24*
X134080000Y-98425000D03*
X136080000Y-98425000D03*
%TD*%
D26*
%TO.C,Rpg2*%
X117729000Y-89027000D03*
D27*
X117729000Y-91567000D03*
%TD*%
D31*
%TO.C,TP3*%
X127254000Y-73914000D03*
D32*
X127254000Y-68834000D03*
%TD*%
D23*
%TO.C,J14*%
X150940000Y-69300000D03*
D24*
X152940000Y-69300000D03*
X154940000Y-69300000D03*
%TD*%
D19*
%TO.C,Coutx2*%
X124206000Y-91293000D03*
X124206000Y-88793000D03*
%TD*%
D26*
%TO.C,Rpg1*%
X117514000Y-70710000D03*
D27*
X117514000Y-73250000D03*
%TD*%
D23*
%TO.C,J7*%
X179705000Y-98425000D03*
D24*
X181705000Y-98425000D03*
X183705000Y-98425000D03*
%TD*%
D38*
%TO.C,U5*%
X113529002Y-74985001D03*
X113029003Y-74985001D03*
X112529001Y-74985001D03*
D39*
X112579001Y-75659998D03*
D38*
X112529001Y-76835000D03*
X113029003Y-76835000D03*
X113529002Y-76835000D03*
D40*
X113328999Y-76159998D03*
D41*
X113704000Y-75659998D03*
%TD*%
D19*
%TO.C,Cinx1*%
X104814000Y-78085000D03*
X104814000Y-75585000D03*
%TD*%
D42*
%TO.C,Rfbt2*%
X112141000Y-88937402D03*
X112141000Y-90043000D03*
%TD*%
D43*
%TO.C,U3*%
X190500000Y-76835000D03*
D44*
X187960000Y-76835000D03*
X185420000Y-76835000D03*
X182880000Y-76835000D03*
X180340000Y-76835000D03*
X177800000Y-76835000D03*
X175260000Y-76835000D03*
X175260000Y-92075000D03*
X177800000Y-92075000D03*
X180340000Y-92075000D03*
X182880000Y-92075000D03*
X185420000Y-92075000D03*
X187960000Y-92075000D03*
X190500000Y-92075000D03*
%TD*%
D23*
%TO.C,J13*%
X160465000Y-69300000D03*
D24*
X162465000Y-69300000D03*
X164465000Y-69300000D03*
%TD*%
D38*
%TO.C,U4*%
X113903001Y-92732004D03*
X113403002Y-92732004D03*
X112903000Y-92732004D03*
D39*
X112953000Y-93407001D03*
D38*
X112903000Y-94582003D03*
X113403002Y-94582003D03*
X113903001Y-94582003D03*
D40*
X113702998Y-93907001D03*
D41*
X114077999Y-93407001D03*
%TD*%
D42*
%TO.C,Rfbt1*%
X111164000Y-71919402D03*
X111164000Y-73025000D03*
%TD*%
D23*
%TO.C,J15*%
X141415000Y-69300000D03*
D24*
X143415000Y-69300000D03*
X145415000Y-69300000D03*
%TD*%
D19*
%TO.C,C4*%
X142875000Y-85765000D03*
X142875000Y-88265000D03*
%TD*%
D18*
%TO.C,L1*%
X117661000Y-98171000D03*
X121861000Y-98171000D03*
%TD*%
D19*
%TO.C,C3*%
X142875000Y-93325000D03*
X142875000Y-90825000D03*
%TD*%
D23*
%TO.C,J16*%
X131700000Y-69300000D03*
D24*
X133700000Y-69300000D03*
X135700000Y-69300000D03*
%TD*%
D20*
%TO.C,Cout1*%
X120689000Y-73317100D03*
X120689000Y-71462900D03*
%TD*%
D23*
%TO.C,J3*%
X141700000Y-98425000D03*
D24*
X143700000Y-98425000D03*
X145700000Y-98425000D03*
%TD*%
D23*
%TO.C,J11*%
X179515000Y-69300000D03*
D24*
X181515000Y-69300000D03*
X183515000Y-69300000D03*
%TD*%
D23*
%TO.C,J5*%
X160655000Y-98425000D03*
D24*
X162655000Y-98425000D03*
X164655000Y-98425000D03*
%TD*%
%LPD*%
M02*
