%TF.GenerationSoftware,KiCad,Pcbnew,7.0.10*%
%TF.CreationDate,2024-11-20T16:46:35-05:00*%
%TF.ProjectId,SDP25_MainPCB_V2,53445032-355f-44d6-9169-6e5043425f56,2*%
%TF.SameCoordinates,Original*%
%TF.FileFunction,Copper,L1,Top*%
%TF.FilePolarity,Positive*%
%FSLAX46Y46*%
G04 Gerber Fmt 4.6, Leading zero omitted, Abs format (unit mm)*
G04 Created by KiCad (PCBNEW 7.0.10) date 2024-11-20 16:46:35*
%MOMM*%
%LPD*%
G01*
G04 APERTURE LIST*
G04 Aperture macros list*
%AMRoundRect*
0 Rectangle with rounded corners*
0 $1 Rounding radius*
0 $2 $3 $4 $5 $6 $7 $8 $9 X,Y pos of 4 corners*
0 Add a 4 corners polygon primitive as box body*
4,1,4,$2,$3,$4,$5,$6,$7,$8,$9,$2,$3,0*
0 Add four circle primitives for the rounded corners*
1,1,$1+$1,$2,$3*
1,1,$1+$1,$4,$5*
1,1,$1+$1,$6,$7*
1,1,$1+$1,$8,$9*
0 Add four rect primitives between the rounded corners*
20,1,$1+$1,$2,$3,$4,$5,0*
20,1,$1+$1,$4,$5,$6,$7,0*
20,1,$1+$1,$6,$7,$8,$9,0*
20,1,$1+$1,$8,$9,$2,$3,0*%
G04 Aperture macros list end*
%TA.AperFunction,ComponentPad*%
%ADD10C,8.000000*%
%TD*%
%TA.AperFunction,SMDPad,CuDef*%
%ADD11R,1.900000X5.100000*%
%TD*%
%TA.AperFunction,ComponentPad*%
%ADD12C,1.371600*%
%TD*%
%TA.AperFunction,SMDPad,CuDef*%
%ADD13R,1.447800X1.066800*%
%TD*%
%TA.AperFunction,SMDPad,CuDef*%
%ADD14R,0.889000X0.609600*%
%TD*%
%TA.AperFunction,ComponentPad*%
%ADD15C,2.020000*%
%TD*%
%TA.AperFunction,ComponentPad*%
%ADD16RoundRect,0.250000X-0.350000X-0.625000X0.350000X-0.625000X0.350000X0.625000X-0.350000X0.625000X0*%
%TD*%
%TA.AperFunction,ComponentPad*%
%ADD17O,1.200000X1.750000*%
%TD*%
%TA.AperFunction,SMDPad,CuDef*%
%ADD18R,1.803400X0.558800*%
%TD*%
%TA.AperFunction,ComponentPad*%
%ADD19C,1.600000*%
%TD*%
%TA.AperFunction,ComponentPad*%
%ADD20O,1.600000X1.600000*%
%TD*%
%TA.AperFunction,ComponentPad*%
%ADD21R,1.295400X1.295400*%
%TD*%
%TA.AperFunction,ComponentPad*%
%ADD22C,1.295400*%
%TD*%
%TA.AperFunction,SMDPad,CuDef*%
%ADD23R,0.889000X0.965200*%
%TD*%
%TA.AperFunction,ComponentPad*%
%ADD24RoundRect,0.650000X0.650000X-0.650000X0.650000X0.650000X-0.650000X0.650000X-0.650000X-0.650000X0*%
%TD*%
%TA.AperFunction,ComponentPad*%
%ADD25C,2.600000*%
%TD*%
%TA.AperFunction,ComponentPad*%
%ADD26RoundRect,0.650000X-0.650000X0.650000X-0.650000X-0.650000X0.650000X-0.650000X0.650000X0.650000X0*%
%TD*%
%TA.AperFunction,ComponentPad*%
%ADD27C,2.100000*%
%TD*%
%TA.AperFunction,SMDPad,CuDef*%
%ADD28R,2.500000X1.500000*%
%TD*%
%TA.AperFunction,SMDPad,CuDef*%
%ADD29R,7.000000X7.000000*%
%TD*%
%TA.AperFunction,ComponentPad*%
%ADD30C,1.117600*%
%TD*%
%TA.AperFunction,SMDPad,CuDef*%
%ADD31R,0.249999X0.549999*%
%TD*%
%TA.AperFunction,SMDPad,CuDef*%
%ADD32R,1.000000X0.249999*%
%TD*%
%TA.AperFunction,SMDPad,CuDef*%
%ADD33R,1.300000X0.249999*%
%TD*%
%TA.AperFunction,SMDPad,CuDef*%
%ADD34R,0.549999X0.249999*%
%TD*%
%TA.AperFunction,SMDPad,CuDef*%
%ADD35R,0.499999X0.655599*%
%TD*%
%TA.AperFunction,ComponentPad*%
%ADD36R,1.358000X1.358000*%
%TD*%
%TA.AperFunction,ComponentPad*%
%ADD37C,1.358000*%
%TD*%
%TA.AperFunction,ViaPad*%
%ADD38C,0.800000*%
%TD*%
%TA.AperFunction,Conductor*%
%ADD39C,0.250000*%
%TD*%
%TA.AperFunction,Conductor*%
%ADD40C,0.508000*%
%TD*%
G04 APERTURE END LIST*
D10*
%TO.P,REF\u002A\u002A,1*%
%TO.N,N/C*%
X200152000Y-99060000D03*
%TD*%
%TO.P,REF\u002A\u002A,1*%
%TO.N,N/C*%
X200152000Y-69850000D03*
%TD*%
%TO.P,REF\u002A\u002A,1*%
%TO.N,N/C*%
X99314000Y-69850000D03*
%TD*%
%TO.P,REF\u002A\u002A,1*%
%TO.N,N/C*%
X99314000Y-99060000D03*
%TD*%
D11*
%TO.P,L2,1*%
%TO.N,/SW1*%
X117319000Y-80010000D03*
%TO.P,L2,2*%
%TO.N,/Vout2*%
X121519000Y-80010000D03*
%TD*%
D12*
%TO.P,Cboot2,1*%
%TO.N,/SW2*%
X114173000Y-98913000D03*
%TO.P,Cboot2,2*%
%TO.N,Net-(U4-BST)*%
X114173000Y-96413000D03*
%TD*%
D13*
%TO.P,C2,1*%
%TO.N,/Vout3*%
X128270000Y-77787500D03*
%TO.P,C2,2*%
%TO.N,GND*%
X128270000Y-79641700D03*
%TD*%
D14*
%TO.P,Rfbb2,1*%
%TO.N,Net-(U4-FB)*%
X113665000Y-90284300D03*
%TO.P,Rfbb2,2*%
%TO.N,GND*%
X113665000Y-88785700D03*
%TD*%
D15*
%TO.P,J1,1*%
%TO.N,/Vin*%
X100838000Y-80518000D03*
%TO.P,J1,2*%
%TO.N,GND*%
X98298000Y-80518000D03*
%TD*%
D14*
%TO.P,Rfbb1,1*%
%TO.N,Net-(U5-FB)*%
X113069000Y-73139300D03*
%TO.P,Rfbb1,2*%
%TO.N,GND*%
X113069000Y-71640700D03*
%TD*%
D16*
%TO.P,J8,1*%
%TO.N,GND*%
X189230000Y-98425000D03*
D17*
%TO.P,J8,2*%
%TO.N,Net-(U1-F)*%
X191230000Y-98425000D03*
%TO.P,J8,3*%
%TO.N,/Vout1*%
X193230000Y-98425000D03*
%TD*%
D16*
%TO.P,J12,1*%
%TO.N,GND*%
X169990000Y-69300000D03*
D17*
%TO.P,J12,2*%
%TO.N,Net-(U2-C)*%
X171990000Y-69300000D03*
%TO.P,J12,3*%
%TO.N,/Vout2*%
X173990000Y-69300000D03*
%TD*%
D18*
%TO.P,Cin2,1*%
%TO.N,/Vin*%
X109093000Y-95885000D03*
%TO.P,Cin2,2*%
%TO.N,GND*%
X109093000Y-92329000D03*
%TD*%
D19*
%TO.P,R2,1*%
%TO.N,/Vout3*%
X137134600Y-78714600D03*
D20*
%TO.P,R2,2*%
%TO.N,Net-(IC1-ADJ)*%
X139674600Y-78714600D03*
%TD*%
D12*
%TO.P,Coutx1,1*%
%TO.N,/Vout2*%
X123864000Y-73640000D03*
%TO.P,Coutx1,2*%
%TO.N,GND*%
X123864000Y-71140000D03*
%TD*%
D16*
%TO.P,J4,1*%
%TO.N,GND*%
X151130000Y-98425000D03*
D17*
%TO.P,J4,2*%
%TO.N,Net-(U1-C)*%
X153130000Y-98425000D03*
%TO.P,J4,3*%
%TO.N,/Vout1*%
X155130000Y-98425000D03*
%TD*%
D21*
%TO.P,U1,1,D1*%
%TO.N,Net-(U1-D1)*%
X163830000Y-85725000D03*
D22*
%TO.P,U1,2,D2*%
%TO.N,Net-(U1-D2)*%
X161290000Y-85725000D03*
%TO.P,U1,3,\u002ALT*%
%TO.N,/Vout3*%
X158750000Y-85725000D03*
%TO.P,U1,4,\u002ABL*%
X156210000Y-85725000D03*
%TO.P,U1,5,\u002ALE*%
%TO.N,GND*%
X153670000Y-85725000D03*
%TO.P,U1,6,D3*%
%TO.N,Net-(U1-D3)*%
X151130000Y-85725000D03*
%TO.P,U1,7,D0*%
%TO.N,Net-(U1-D0)*%
X148590000Y-85725000D03*
%TO.P,U1,8,GND*%
%TO.N,GND*%
X146050000Y-85725000D03*
%TO.P,U1,9,E*%
%TO.N,Net-(U1-E)*%
X146050000Y-93345000D03*
%TO.P,U1,10,D*%
%TO.N,Net-(U1-D)*%
X148590000Y-93345000D03*
%TO.P,U1,11,C*%
%TO.N,Net-(U1-C)*%
X151130000Y-93345000D03*
%TO.P,U1,12,B*%
%TO.N,Net-(U1-B)*%
X153670000Y-93345000D03*
%TO.P,U1,13,A*%
%TO.N,Net-(U1-A)*%
X156210000Y-93345000D03*
%TO.P,U1,14,G*%
%TO.N,Net-(U1-G)*%
X158750000Y-93345000D03*
%TO.P,U1,15,F*%
%TO.N,Net-(U1-F)*%
X161290000Y-93345000D03*
%TO.P,U1,16,VCC*%
%TO.N,/Vout3*%
X163830000Y-93345000D03*
%TD*%
D23*
%TO.P,Cvcc2,1*%
%TO.N,Net-(U4-VCC)*%
X115189000Y-91059000D03*
%TO.P,Cvcc2,2*%
%TO.N,GND*%
X115189000Y-89611200D03*
%TD*%
D12*
%TO.P,Cinx2,1*%
%TO.N,/Vin*%
X106045000Y-95357000D03*
%TO.P,Cinx2,2*%
%TO.N,GND*%
X106045000Y-92857000D03*
%TD*%
D13*
%TO.P,Cout2,1*%
%TO.N,/Vout1*%
X121158000Y-90970100D03*
%TO.P,Cout2,2*%
%TO.N,GND*%
X121158000Y-89115900D03*
%TD*%
D19*
%TO.P,R1,1*%
%TO.N,Net-(IC1-ADJ)*%
X131419600Y-78714600D03*
D20*
%TO.P,R1,2*%
%TO.N,GND*%
X133959600Y-78714600D03*
%TD*%
D16*
%TO.P,J10,1*%
%TO.N,GND*%
X189040000Y-69300000D03*
D17*
%TO.P,J10,2*%
%TO.N,Net-(U2-E)*%
X191040000Y-69300000D03*
%TO.P,J10,3*%
%TO.N,/Vout2*%
X193040000Y-69300000D03*
%TD*%
D24*
%TO.P,TP2,1,1*%
%TO.N,/Vout1*%
X127635000Y-99695000D03*
D25*
%TO.P,TP2,2,2*%
%TO.N,GND*%
X127635000Y-94615000D03*
%TD*%
D26*
%TO.P,TP1,1,1*%
%TO.N,/Vout3*%
X142875000Y-76200000D03*
D25*
%TO.P,TP1,2,2*%
%TO.N,GND*%
X142875000Y-81280000D03*
%TD*%
D27*
%TO.P,J17,1*%
%TO.N,Net-(U3-VCC_3V3)*%
X168275000Y-85725000D03*
%TO.P,J17,2*%
%TO.N,Net-(U3-D4)*%
X168275000Y-83225000D03*
%TD*%
D28*
%TO.P,IC1,1,ADJ*%
%TO.N,Net-(IC1-ADJ)*%
X138430000Y-87364600D03*
D29*
%TO.P,IC1,2,OUTPUT*%
%TO.N,/Vout3*%
X131580000Y-85064600D03*
D28*
%TO.P,IC1,3,INPUT*%
%TO.N,/Vin*%
X138430000Y-82764600D03*
%TD*%
D16*
%TO.P,J6,1*%
%TO.N,GND*%
X170180000Y-98425000D03*
D17*
%TO.P,J6,2*%
%TO.N,Net-(U1-A)*%
X172180000Y-98425000D03*
%TO.P,J6,3*%
%TO.N,/Vout1*%
X174180000Y-98425000D03*
%TD*%
D19*
%TO.P,C1,1*%
%TO.N,/Vin*%
X134660000Y-91440000D03*
%TO.P,C1,2*%
%TO.N,GND*%
X139660000Y-91440000D03*
%TD*%
D18*
%TO.P,Cin1,1*%
%TO.N,/Vin*%
X107989000Y-78740000D03*
%TO.P,Cin1,2*%
%TO.N,GND*%
X107989000Y-75184000D03*
%TD*%
D21*
%TO.P,U2,1,D1*%
%TO.N,Net-(U2-D1)*%
X146050000Y-83185000D03*
D22*
%TO.P,U2,2,D2*%
%TO.N,Net-(U2-D2)*%
X148590000Y-83185000D03*
%TO.P,U2,3,\u002ALT*%
%TO.N,/Vout3*%
X151130000Y-83185000D03*
%TO.P,U2,4,\u002ABL*%
X153670000Y-83185000D03*
%TO.P,U2,5,\u002ALE*%
%TO.N,GND*%
X156210000Y-83185000D03*
%TO.P,U2,6,D3*%
%TO.N,Net-(U2-D3)*%
X158750000Y-83185000D03*
%TO.P,U2,7,D0*%
%TO.N,Net-(U2-D0)*%
X161290000Y-83185000D03*
%TO.P,U2,8,GND*%
%TO.N,GND*%
X163830000Y-83185000D03*
%TO.P,U2,9,E*%
%TO.N,Net-(U2-E)*%
X163830000Y-75565000D03*
%TO.P,U2,10,D*%
%TO.N,Net-(U2-D)*%
X161290000Y-75565000D03*
%TO.P,U2,11,C*%
%TO.N,Net-(U2-C)*%
X158750000Y-75565000D03*
%TO.P,U2,12,B*%
%TO.N,Net-(U2-B)*%
X156210000Y-75565000D03*
%TO.P,U2,13,A*%
%TO.N,Net-(U2-A)*%
X153670000Y-75565000D03*
%TO.P,U2,14,G*%
%TO.N,Net-(U2-G)*%
X151130000Y-75565000D03*
%TO.P,U2,15,F*%
%TO.N,Net-(U2-F)*%
X148590000Y-75565000D03*
%TO.P,U2,16,VCC*%
%TO.N,/Vout3*%
X146050000Y-75565000D03*
%TD*%
D30*
%TO.P,Cff1,1*%
%TO.N,/Vout2*%
X108624000Y-70505000D03*
%TO.P,Cff1,2*%
%TO.N,Net-(U5-FB)*%
X108624000Y-73005000D03*
%TD*%
D15*
%TO.P,J18,1*%
%TO.N,GND*%
X98303000Y-87376000D03*
%TO.P,J18,2*%
%TO.N,/Vin*%
X100843000Y-87376000D03*
%TD*%
D30*
%TO.P,Cff2,1*%
%TO.N,/Vout1*%
X109855000Y-87777000D03*
%TO.P,Cff2,2*%
%TO.N,Net-(U4-FB)*%
X109855000Y-90277000D03*
%TD*%
D12*
%TO.P,Cboot1,1*%
%TO.N,/SW1*%
X113704000Y-81875000D03*
%TO.P,Cboot1,2*%
%TO.N,Net-(U5-BST)*%
X113704000Y-79375000D03*
%TD*%
D23*
%TO.P,Cvcc1,1*%
%TO.N,Net-(U5-VCC)*%
X114974000Y-73113900D03*
%TO.P,Cvcc1,2*%
%TO.N,GND*%
X114974000Y-71666100D03*
%TD*%
D16*
%TO.P,J2,1*%
%TO.N,GND*%
X132080000Y-98425000D03*
D17*
%TO.P,J2,2*%
%TO.N,Net-(U1-E)*%
X134080000Y-98425000D03*
%TO.P,J2,3*%
%TO.N,/Vout1*%
X136080000Y-98425000D03*
%TD*%
D19*
%TO.P,Rpg2,1*%
%TO.N,Net-(U4-VCC)*%
X117729000Y-89027000D03*
D20*
%TO.P,Rpg2,2*%
%TO.N,Net-(U4-SS)*%
X117729000Y-91567000D03*
%TD*%
D24*
%TO.P,TP3,1,1*%
%TO.N,/Vout2*%
X127254000Y-73914000D03*
D25*
%TO.P,TP3,2,2*%
%TO.N,GND*%
X127254000Y-68834000D03*
%TD*%
D16*
%TO.P,J14,1*%
%TO.N,GND*%
X150940000Y-69300000D03*
D17*
%TO.P,J14,2*%
%TO.N,Net-(U2-A)*%
X152940000Y-69300000D03*
%TO.P,J14,3*%
%TO.N,/Vout2*%
X154940000Y-69300000D03*
%TD*%
D12*
%TO.P,Coutx2,1*%
%TO.N,/Vout1*%
X124206000Y-91293000D03*
%TO.P,Coutx2,2*%
%TO.N,GND*%
X124206000Y-88793000D03*
%TD*%
D19*
%TO.P,Rpg1,1*%
%TO.N,Net-(U5-VCC)*%
X117514000Y-70710000D03*
D20*
%TO.P,Rpg1,2*%
%TO.N,Net-(U5-SS)*%
X117514000Y-73250000D03*
%TD*%
D16*
%TO.P,J7,1*%
%TO.N,GND*%
X179705000Y-98425000D03*
D17*
%TO.P,J7,2*%
%TO.N,Net-(U1-G)*%
X181705000Y-98425000D03*
%TO.P,J7,3*%
%TO.N,/Vout1*%
X183705000Y-98425000D03*
%TD*%
D31*
%TO.P,U5,1,VCC*%
%TO.N,Net-(U5-VCC)*%
X113529002Y-74985001D03*
%TO.P,U5,2,FB*%
%TO.N,Net-(U5-FB)*%
X113029003Y-74985001D03*
%TO.P,U5,3,EN*%
%TO.N,Net-(U3-TX_D6)*%
X112529001Y-74985001D03*
D32*
%TO.P,U5,4,PGND*%
%TO.N,GND*%
X112579001Y-75659998D03*
D31*
%TO.P,U5,5,VIN*%
%TO.N,/Vin*%
X112529001Y-76835000D03*
%TO.P,U5,6,VIN*%
X113029003Y-76835000D03*
%TO.P,U5,7,BST*%
%TO.N,Net-(U5-BST)*%
X113529002Y-76835000D03*
D33*
%TO.P,U5,8,SW*%
%TO.N,/SW1*%
X113328999Y-76159998D03*
D34*
%TO.P,U5,9,SS*%
%TO.N,Net-(U5-SS)*%
X113704000Y-75659998D03*
%TD*%
D12*
%TO.P,Cinx1,1*%
%TO.N,/Vin*%
X104814000Y-78085000D03*
%TO.P,Cinx1,2*%
%TO.N,GND*%
X104814000Y-75585000D03*
%TD*%
D35*
%TO.P,Rfbt2,1*%
%TO.N,/Vout1*%
X112141000Y-88937402D03*
%TO.P,Rfbt2,2*%
%TO.N,Net-(U4-FB)*%
X112141000Y-90043000D03*
%TD*%
D36*
%TO.P,U3,1,D0*%
%TO.N,Net-(U2-D0)*%
X190500000Y-76835000D03*
D37*
%TO.P,U3,2,D1*%
%TO.N,Net-(U2-D3)*%
X187960000Y-76835000D03*
%TO.P,U3,3,D2*%
%TO.N,Net-(U2-D2)*%
X185420000Y-76835000D03*
%TO.P,U3,4,D3*%
%TO.N,Net-(U2-D1)*%
X182880000Y-76835000D03*
%TO.P,U3,5,D4*%
%TO.N,Net-(U3-D4)*%
X180340000Y-76835000D03*
%TO.P,U3,6,D5*%
%TO.N,Net-(U1-D0)*%
X177800000Y-76835000D03*
%TO.P,U3,7,TX_D6*%
%TO.N,Net-(U3-TX_D6)*%
X175260000Y-76835000D03*
%TO.P,U3,8,RX_D7*%
%TO.N,GND*%
X175260000Y-92075000D03*
%TO.P,U3,9,D8*%
%TO.N,Net-(U1-D1)*%
X177800000Y-92075000D03*
%TO.P,U3,10,D9*%
%TO.N,Net-(U1-D2)*%
X180340000Y-92075000D03*
%TO.P,U3,11,D10*%
%TO.N,Net-(U1-D3)*%
X182880000Y-92075000D03*
%TO.P,U3,12,VCC_3V3*%
%TO.N,Net-(U3-VCC_3V3)*%
X185420000Y-92075000D03*
%TO.P,U3,13,GND*%
%TO.N,GND*%
X187960000Y-92075000D03*
%TO.P,U3,14,VUSB*%
%TO.N,/Vout3*%
X190500000Y-92075000D03*
%TD*%
D16*
%TO.P,J13,1*%
%TO.N,GND*%
X160465000Y-69300000D03*
D17*
%TO.P,J13,2*%
%TO.N,Net-(U2-B)*%
X162465000Y-69300000D03*
%TO.P,J13,3*%
%TO.N,/Vout2*%
X164465000Y-69300000D03*
%TD*%
D31*
%TO.P,U4,1,VCC*%
%TO.N,Net-(U4-VCC)*%
X113903001Y-92732004D03*
%TO.P,U4,2,FB*%
%TO.N,Net-(U4-FB)*%
X113403002Y-92732004D03*
%TO.P,U4,3,EN*%
%TO.N,Net-(U3-TX_D6)*%
X112903000Y-92732004D03*
D32*
%TO.P,U4,4,PGND*%
%TO.N,GND*%
X112953000Y-93407001D03*
D31*
%TO.P,U4,5,VIN*%
%TO.N,/Vin*%
X112903000Y-94582003D03*
%TO.P,U4,6,VIN*%
X113403002Y-94582003D03*
%TO.P,U4,7,BST*%
%TO.N,Net-(U4-BST)*%
X113903001Y-94582003D03*
D33*
%TO.P,U4,8,SW*%
%TO.N,/SW2*%
X113702998Y-93907001D03*
D34*
%TO.P,U4,9,SS*%
%TO.N,Net-(U4-SS)*%
X114077999Y-93407001D03*
%TD*%
D35*
%TO.P,Rfbt1,1*%
%TO.N,/Vout2*%
X111164000Y-71919402D03*
%TO.P,Rfbt1,2*%
%TO.N,Net-(U5-FB)*%
X111164000Y-73025000D03*
%TD*%
D16*
%TO.P,J15,1*%
%TO.N,GND*%
X141415000Y-69300000D03*
D17*
%TO.P,J15,2*%
%TO.N,Net-(U2-G)*%
X143415000Y-69300000D03*
%TO.P,J15,3*%
%TO.N,/Vout2*%
X145415000Y-69300000D03*
%TD*%
D12*
%TO.P,C4,1*%
%TO.N,/Vout3*%
X142875000Y-85765000D03*
%TO.P,C4,2*%
%TO.N,GND*%
X142875000Y-88265000D03*
%TD*%
D11*
%TO.P,L1,1*%
%TO.N,/SW2*%
X117661000Y-98171000D03*
%TO.P,L1,2*%
%TO.N,/Vout1*%
X121861000Y-98171000D03*
%TD*%
D12*
%TO.P,C3,1*%
%TO.N,GND*%
X142875000Y-93325000D03*
%TO.P,C3,2*%
%TO.N,/Vout3*%
X142875000Y-90825000D03*
%TD*%
D16*
%TO.P,J16,1*%
%TO.N,GND*%
X131700000Y-69300000D03*
D17*
%TO.P,J16,2*%
%TO.N,Net-(U2-F)*%
X133700000Y-69300000D03*
%TO.P,J16,3*%
%TO.N,/Vout2*%
X135700000Y-69300000D03*
%TD*%
D13*
%TO.P,Cout1,1*%
%TO.N,/Vout2*%
X120689000Y-73317100D03*
%TO.P,Cout1,2*%
%TO.N,GND*%
X120689000Y-71462900D03*
%TD*%
D16*
%TO.P,J3,1*%
%TO.N,GND*%
X141700000Y-98425000D03*
D17*
%TO.P,J3,2*%
%TO.N,Net-(U1-D)*%
X143700000Y-98425000D03*
%TO.P,J3,3*%
%TO.N,/Vout1*%
X145700000Y-98425000D03*
%TD*%
D16*
%TO.P,J11,1*%
%TO.N,GND*%
X179515000Y-69300000D03*
D17*
%TO.P,J11,2*%
%TO.N,Net-(U2-D)*%
X181515000Y-69300000D03*
%TO.P,J11,3*%
%TO.N,/Vout2*%
X183515000Y-69300000D03*
%TD*%
D16*
%TO.P,J5,1*%
%TO.N,GND*%
X160655000Y-98425000D03*
D17*
%TO.P,J5,2*%
%TO.N,Net-(U1-B)*%
X162655000Y-98425000D03*
%TO.P,J5,3*%
%TO.N,/Vout1*%
X164655000Y-98425000D03*
%TD*%
D38*
%TO.N,/Vout3*%
X127254000Y-87630000D03*
X127254000Y-86614000D03*
X127254000Y-85598000D03*
X127254000Y-84582000D03*
X127254000Y-83566000D03*
X127254000Y-82550000D03*
%TO.N,GND*%
X122174000Y-67056000D03*
X113030000Y-70358000D03*
X105410000Y-71374000D03*
X124714000Y-67056000D03*
X123825000Y-85598000D03*
X119634000Y-69469000D03*
X118745000Y-85598000D03*
X106680000Y-72644000D03*
X106045000Y-84455000D03*
X104775000Y-88265000D03*
X118618000Y-68199000D03*
X104140000Y-71374000D03*
X125095000Y-85598000D03*
X104140000Y-70104000D03*
X121285000Y-86868000D03*
X122174000Y-69469000D03*
X105410000Y-68834000D03*
X107315000Y-88265000D03*
X105410000Y-67564000D03*
X104775000Y-86995000D03*
X123825000Y-86868000D03*
X104775000Y-85725000D03*
X106680000Y-68834000D03*
X121285000Y-85598000D03*
X114808000Y-70358000D03*
X104140000Y-68834000D03*
X106680000Y-73914000D03*
X107315000Y-89535000D03*
X120015000Y-85598000D03*
X124714000Y-68199000D03*
X106680000Y-67564000D03*
X120904000Y-67056000D03*
X104140000Y-72644000D03*
X122555000Y-85598000D03*
X122555000Y-84455000D03*
X118745000Y-86868000D03*
X106680000Y-71374000D03*
X122555000Y-86868000D03*
X118618000Y-67056000D03*
X104775000Y-90805000D03*
X105410000Y-73914000D03*
X123444000Y-68199000D03*
X107315000Y-84455000D03*
X124714000Y-69469000D03*
X107315000Y-85725000D03*
X106680000Y-70104000D03*
X106045000Y-90805000D03*
X119634000Y-68199000D03*
X123444000Y-69469000D03*
X125095000Y-86868000D03*
X121285000Y-84455000D03*
X104140000Y-73914000D03*
X106045000Y-85725000D03*
X104140000Y-67564000D03*
X120015000Y-84455000D03*
X105410000Y-70104000D03*
X118745000Y-84455000D03*
X117602000Y-67056000D03*
X107315000Y-90805000D03*
X115189000Y-86995000D03*
X106045000Y-89535000D03*
X119634000Y-67056000D03*
X105410000Y-72644000D03*
X120904000Y-69469000D03*
X113665000Y-86995000D03*
X107315000Y-86995000D03*
X104775000Y-89535000D03*
X104775000Y-84455000D03*
X106045000Y-86995000D03*
X123444000Y-67056000D03*
X120904000Y-68199000D03*
X122174000Y-68199000D03*
X123825000Y-84455000D03*
X120015000Y-86868000D03*
X106045000Y-88265000D03*
X125095000Y-84455000D03*
%TO.N,/Vout2*%
X111252000Y-70866000D03*
X108712000Y-68834000D03*
X120650000Y-75946000D03*
X120650000Y-74930000D03*
%TO.N,Net-(U3-TX_D6)*%
X112014000Y-74168000D03*
X111760000Y-91821000D03*
%TO.N,/Vout1*%
X112141000Y-87757000D03*
X109855000Y-86360000D03*
X121920000Y-93980000D03*
X121920000Y-93091000D03*
%TD*%
D39*
%TO.N,/Vout3*%
X129014600Y-87630000D02*
X131580000Y-85064600D01*
X127254000Y-87630000D02*
X129014600Y-87630000D01*
X127254000Y-86614000D02*
X130030600Y-86614000D01*
X130030600Y-86614000D02*
X131580000Y-85064600D01*
X130792600Y-85852000D02*
X131580000Y-85064600D01*
X127508000Y-85852000D02*
X130792600Y-85852000D01*
X127254000Y-85598000D02*
X127508000Y-85852000D01*
X127736600Y-85064600D02*
X131580000Y-85064600D01*
X127254000Y-84582000D02*
X127736600Y-85064600D01*
X130843400Y-84328000D02*
X131580000Y-85064600D01*
X130081400Y-83566000D02*
X127254000Y-83566000D01*
X131580000Y-85064600D02*
X130081400Y-83566000D01*
X129065400Y-82550000D02*
X127254000Y-82550000D01*
X131580000Y-85064600D02*
X129065400Y-82550000D01*
D40*
%TO.N,/Vin*%
X138430000Y-82764600D02*
X135890000Y-85304600D01*
X135890000Y-90210000D02*
X134660000Y-91440000D01*
X135890000Y-85304600D02*
X135890000Y-90210000D01*
D39*
%TO.N,GND*%
X114974000Y-70524000D02*
X114808000Y-70358000D01*
X113665000Y-88785700D02*
X113665000Y-86995000D01*
X113069000Y-70397000D02*
X113030000Y-70358000D01*
X132834600Y-79839600D02*
X133959600Y-78714600D01*
X128270000Y-79641700D02*
X128467900Y-79839600D01*
X114974000Y-71666100D02*
X114974000Y-70524000D01*
X115189000Y-89611200D02*
X115189000Y-86995000D01*
X113069000Y-71640700D02*
X113069000Y-70397000D01*
X128467900Y-79839600D02*
X132834600Y-79839600D01*
%TO.N,/Vout3*%
X127221100Y-77862500D02*
X127221100Y-80705700D01*
X137134600Y-78714600D02*
X130784600Y-85064600D01*
X142875000Y-76200000D02*
X143510000Y-76835000D01*
X127221100Y-80705700D02*
X131580000Y-85064600D01*
X127296100Y-77787500D02*
X127221100Y-77862500D01*
X128270000Y-77787500D02*
X129857500Y-76200000D01*
X129857500Y-76200000D02*
X142875000Y-76200000D01*
X128270000Y-77787500D02*
X127296100Y-77787500D01*
%TO.N,Net-(U5-BST)*%
X113704000Y-79375000D02*
X113704000Y-77009998D01*
X113704000Y-77009998D02*
X113529002Y-76835000D01*
%TO.N,Net-(U4-BST)*%
X113907002Y-94582003D02*
X113907002Y-96147002D01*
X113907002Y-96147002D02*
X114173000Y-96413000D01*
%TO.N,Net-(U5-FB)*%
X113029003Y-74985001D02*
X113029003Y-73179297D01*
X111164000Y-73025000D02*
X112954700Y-73025000D01*
X111144000Y-73005000D02*
X111164000Y-73025000D01*
X108624000Y-73005000D02*
X111144000Y-73005000D01*
X113029003Y-73179297D02*
X113069000Y-73139300D01*
X112954700Y-73025000D02*
X113069000Y-73139300D01*
%TO.N,/Vout2*%
X111164000Y-70954000D02*
X111252000Y-70866000D01*
X111164000Y-71919402D02*
X111164000Y-70954000D01*
X108624000Y-68922000D02*
X108712000Y-68834000D01*
X108624000Y-70505000D02*
X108624000Y-68922000D01*
%TO.N,Net-(U4-FB)*%
X113407003Y-92732004D02*
X113407003Y-90542297D01*
X113407003Y-90542297D02*
X113665000Y-90284300D01*
X112382300Y-90284300D02*
X112141000Y-90043000D01*
X109855000Y-90277000D02*
X111907000Y-90277000D01*
X113665000Y-90284300D02*
X112382300Y-90284300D01*
X112141000Y-90043000D02*
X112391003Y-90293003D01*
X111907000Y-90277000D02*
X112141000Y-90043000D01*
%TO.N,Net-(U5-VCC)*%
X114974000Y-73540003D02*
X113529002Y-74985001D01*
X114974000Y-73113900D02*
X114974000Y-73540003D01*
X115110100Y-73113900D02*
X117514000Y-70710000D01*
X114974000Y-73113900D02*
X115110100Y-73113900D01*
%TO.N,Net-(U4-VCC)*%
X115189000Y-91059000D02*
X115697000Y-91059000D01*
X115189000Y-91059000D02*
X115189000Y-91450006D01*
X115697000Y-91059000D02*
X117729000Y-89027000D01*
X115189000Y-91450006D02*
X113907002Y-92732004D01*
%TO.N,Net-(IC1-ADJ)*%
X140208000Y-84791200D02*
X140208000Y-79248000D01*
X137634600Y-87364600D02*
X140208000Y-84791200D01*
X138549600Y-77589600D02*
X139674600Y-78714600D01*
X131419600Y-78714600D02*
X132544600Y-77589600D01*
X132544600Y-77589600D02*
X138549600Y-77589600D01*
X140208000Y-79248000D02*
X139674600Y-78714600D01*
%TO.N,Net-(U1-E)*%
X135280000Y-97225000D02*
X134080000Y-98425000D01*
X146050000Y-93345000D02*
X142170000Y-97225000D01*
X142170000Y-97225000D02*
X135280000Y-97225000D01*
%TO.N,Net-(U1-D)*%
X143700000Y-98235000D02*
X148590000Y-93345000D01*
X143700000Y-98425000D02*
X143700000Y-98235000D01*
%TO.N,Net-(U1-C)*%
X153130000Y-95345000D02*
X151130000Y-93345000D01*
X153130000Y-98425000D02*
X153130000Y-95345000D01*
%TO.N,Net-(U1-B)*%
X156845000Y-96520000D02*
X160750000Y-96520000D01*
X162655000Y-98330000D02*
X162655000Y-98425000D01*
X153670000Y-93345000D02*
X156845000Y-96520000D01*
X160750000Y-96520000D02*
X162655000Y-98425000D01*
%TO.N,Net-(U1-A)*%
X158750000Y-95885000D02*
X169640000Y-95885000D01*
X156210000Y-93345000D02*
X158750000Y-95885000D01*
X169640000Y-95885000D02*
X172180000Y-98425000D01*
%TO.N,Net-(U1-G)*%
X178530000Y-95250000D02*
X181705000Y-98425000D01*
X160655000Y-95250000D02*
X178530000Y-95250000D01*
X158750000Y-93345000D02*
X160655000Y-95250000D01*
%TO.N,Net-(U1-F)*%
X162560000Y-94615000D02*
X187420000Y-94615000D01*
X187420000Y-94615000D02*
X191230000Y-98425000D01*
X161290000Y-93345000D02*
X162560000Y-94615000D01*
%TO.N,Net-(U2-E)*%
X186680000Y-73660000D02*
X191040000Y-69300000D01*
X165735000Y-73660000D02*
X186680000Y-73660000D01*
X163830000Y-75565000D02*
X165735000Y-73660000D01*
%TO.N,Net-(U2-D)*%
X161290000Y-75565000D02*
X163830000Y-73025000D01*
X177790000Y-73025000D02*
X181515000Y-69300000D01*
X163830000Y-73025000D02*
X177790000Y-73025000D01*
%TO.N,Net-(U2-C)*%
X158750000Y-75565000D02*
X161925000Y-72390000D01*
X168900000Y-72390000D02*
X171990000Y-69300000D01*
X161925000Y-72390000D02*
X168900000Y-72390000D01*
%TO.N,Net-(U2-B)*%
X162465000Y-69310000D02*
X162465000Y-69300000D01*
X156210000Y-75565000D02*
X162465000Y-69310000D01*
%TO.N,Net-(U2-A)*%
X152940000Y-74835000D02*
X153670000Y-75565000D01*
X152940000Y-69300000D02*
X152940000Y-74835000D01*
%TO.N,Net-(U2-G)*%
X143415000Y-69300000D02*
X144615000Y-70500000D01*
X146065000Y-70500000D02*
X151130000Y-75565000D01*
X144615000Y-70500000D02*
X146065000Y-70500000D01*
%TO.N,Net-(U2-F)*%
X133700000Y-69300000D02*
X137425000Y-73025000D01*
X137425000Y-73025000D02*
X146050000Y-73025000D01*
X146050000Y-73025000D02*
X148590000Y-75565000D01*
%TO.N,Net-(U3-D4)*%
X180911500Y-76898500D02*
X180911500Y-76835000D01*
%TO.N,Net-(U5-SS)*%
X113704000Y-75659998D02*
X115104002Y-75659998D01*
X115104002Y-75659998D02*
X117514000Y-73250000D01*
%TO.N,Net-(U4-SS)*%
X115443000Y-92075000D02*
X117221000Y-92075000D01*
X114082000Y-93407001D02*
X114110999Y-93407001D01*
X114110999Y-93407001D02*
X115443000Y-92075000D01*
X117221000Y-92075000D02*
X117729000Y-91567000D01*
%TO.N,Net-(U1-D1)*%
X163830000Y-85725000D02*
X168910000Y-90805000D01*
X177101500Y-90805000D02*
X178371500Y-92075000D01*
X168910000Y-90805000D02*
X177101500Y-90805000D01*
%TO.N,Net-(U1-D2)*%
X176466500Y-87630000D02*
X167680400Y-87630000D01*
X162262700Y-84752300D02*
X161290000Y-85725000D01*
X167680400Y-87630000D02*
X164802700Y-84752300D01*
X164802700Y-84752300D02*
X162262700Y-84752300D01*
X180911500Y-92075000D02*
X176466500Y-87630000D01*
%TO.N,Net-(U1-D3)*%
X154940000Y-89535000D02*
X151130000Y-85725000D01*
X182447500Y-93079000D02*
X164939606Y-93079000D01*
X161395606Y-89535000D02*
X154940000Y-89535000D01*
X164939606Y-93079000D02*
X161395606Y-89535000D01*
X183451500Y-92075000D02*
X182447500Y-93079000D01*
%TO.N,Net-(U1-D0)*%
X164088306Y-84302300D02*
X167745606Y-80645000D01*
X162050604Y-84328000D02*
X162076304Y-84302300D01*
X148590000Y-85725000D02*
X149987000Y-84328000D01*
X192405000Y-77509500D02*
X192405000Y-75565000D01*
X149987000Y-84328000D02*
X162050604Y-84328000D01*
X179641500Y-75565000D02*
X178371500Y-76835000D01*
X162076304Y-84302300D02*
X164088306Y-84302300D01*
X192405000Y-75565000D02*
X179641500Y-75565000D01*
X167745606Y-80645000D02*
X189269500Y-80645000D01*
X189269500Y-80645000D02*
X192405000Y-77509500D01*
%TO.N,Net-(U2-D1)*%
X151130000Y-78105000D02*
X146050000Y-83185000D01*
X182181500Y-78105000D02*
X151130000Y-78105000D01*
X183451500Y-76835000D02*
X182181500Y-78105000D01*
%TO.N,Net-(U2-D2)*%
X184086500Y-78740000D02*
X153035000Y-78740000D01*
X185991500Y-76835000D02*
X184086500Y-78740000D01*
X153035000Y-78740000D02*
X148590000Y-83185000D01*
%TO.N,Net-(U2-D3)*%
X188531500Y-76835000D02*
X185991500Y-79375000D01*
X185991500Y-79375000D02*
X162560000Y-79375000D01*
X162560000Y-79375000D02*
X158750000Y-83185000D01*
%TO.N,Net-(U2-D0)*%
X191071500Y-76835000D02*
X187896500Y-80010000D01*
X164465000Y-80010000D02*
X161290000Y-83185000D01*
X187896500Y-80010000D02*
X164465000Y-80010000D01*
%TO.N,Net-(U3-TX_D6)*%
X112529001Y-74985001D02*
X112529001Y-74683001D01*
X111995997Y-91821000D02*
X112907001Y-92732004D01*
X112529001Y-74683001D02*
X112014000Y-74168000D01*
X111760000Y-91821000D02*
X111995997Y-91821000D01*
%TO.N,/Vout1*%
X109855000Y-87777000D02*
X109855000Y-86360000D01*
X112141000Y-88937402D02*
X112141000Y-87757000D01*
%TD*%
%TA.AperFunction,Conductor*%
%TO.N,GND*%
G36*
X128721039Y-66567685D02*
G01*
X128766794Y-66620489D01*
X128778000Y-66672000D01*
X128778000Y-67623535D01*
X128758315Y-67690574D01*
X128705511Y-67736329D01*
X128705156Y-67736395D01*
X127856546Y-68585004D01*
X127846812Y-68555044D01*
X127758814Y-68416381D01*
X127639097Y-68303960D01*
X127504489Y-68229958D01*
X128339150Y-67395296D01*
X128156517Y-67270779D01*
X128156516Y-67270778D01*
X127913460Y-67153730D01*
X127913462Y-67153730D01*
X127655662Y-67074209D01*
X127655656Y-67074207D01*
X127388898Y-67034000D01*
X127119101Y-67034000D01*
X126852343Y-67074207D01*
X126852337Y-67074209D01*
X126594538Y-67153730D01*
X126351485Y-67270778D01*
X126351476Y-67270783D01*
X126168848Y-67395296D01*
X127006465Y-68232913D01*
X126938371Y-68259874D01*
X126805508Y-68356405D01*
X126700825Y-68482945D01*
X126652368Y-68585921D01*
X125816295Y-67749848D01*
X125762600Y-67817180D01*
X125627709Y-68050818D01*
X125529148Y-68301947D01*
X125529142Y-68301966D01*
X125469113Y-68564971D01*
X125469113Y-68564973D01*
X125448953Y-68833995D01*
X125448953Y-68834004D01*
X125469113Y-69103026D01*
X125469113Y-69103028D01*
X125529142Y-69366033D01*
X125529148Y-69366052D01*
X125627709Y-69617181D01*
X125627708Y-69617181D01*
X125762602Y-69850822D01*
X125816294Y-69918151D01*
X125816295Y-69918151D01*
X126651452Y-69082993D01*
X126661188Y-69112956D01*
X126749186Y-69251619D01*
X126868903Y-69364040D01*
X127003510Y-69438041D01*
X126168848Y-70272702D01*
X126351483Y-70397220D01*
X126351485Y-70397221D01*
X126594539Y-70514269D01*
X126594537Y-70514269D01*
X126852337Y-70593790D01*
X126852343Y-70593792D01*
X127119101Y-70633999D01*
X127119110Y-70634000D01*
X127388890Y-70634000D01*
X127388898Y-70633999D01*
X127655656Y-70593792D01*
X127655662Y-70593790D01*
X127913461Y-70514269D01*
X128156521Y-70397218D01*
X128339150Y-70272702D01*
X127501534Y-69435086D01*
X127569629Y-69408126D01*
X127702492Y-69311595D01*
X127807175Y-69185055D01*
X127855631Y-69082079D01*
X128708584Y-69935032D01*
X128715078Y-69936549D01*
X128763725Y-69986701D01*
X128778000Y-70044463D01*
X128778000Y-72260500D01*
X128758315Y-72327539D01*
X128705511Y-72373294D01*
X128654000Y-72384500D01*
X128132706Y-72384500D01*
X128100613Y-72380275D01*
X128046272Y-72365714D01*
X127979731Y-72360478D01*
X127967303Y-72359500D01*
X127967301Y-72359500D01*
X126540707Y-72359500D01*
X126540688Y-72359501D01*
X126461727Y-72365714D01*
X126407387Y-72380275D01*
X126375294Y-72384500D01*
X124542400Y-72384500D01*
X124475361Y-72364815D01*
X124429606Y-72312011D01*
X124419662Y-72242853D01*
X124448687Y-72179297D01*
X124477122Y-72155073D01*
X124507012Y-72136565D01*
X123936237Y-71565789D01*
X123992713Y-71557277D01*
X124109989Y-71500799D01*
X124205408Y-71412264D01*
X124270491Y-71299536D01*
X124290300Y-71212747D01*
X124862722Y-71785168D01*
X124862723Y-71785168D01*
X124876505Y-71766920D01*
X124876507Y-71766915D01*
X124974461Y-71570198D01*
X125034603Y-71358819D01*
X125054880Y-71140000D01*
X125054880Y-71139999D01*
X125034603Y-70921180D01*
X124974461Y-70709799D01*
X124974460Y-70709798D01*
X124876511Y-70513088D01*
X124876506Y-70513081D01*
X124862722Y-70494829D01*
X124291471Y-71066081D01*
X124289729Y-71042830D01*
X124242173Y-70921662D01*
X124161016Y-70819893D01*
X124053467Y-70746568D01*
X123939143Y-70711303D01*
X124507012Y-70143433D01*
X124507011Y-70143432D01*
X124394824Y-70073970D01*
X124394818Y-70073967D01*
X124189898Y-69994581D01*
X123973879Y-69954200D01*
X123754121Y-69954200D01*
X123538102Y-69994581D01*
X123538101Y-69994581D01*
X123333182Y-70073966D01*
X123220986Y-70143433D01*
X123791764Y-70714210D01*
X123735287Y-70722723D01*
X123618011Y-70779201D01*
X123522592Y-70867736D01*
X123457509Y-70980464D01*
X123437699Y-71067252D01*
X122865276Y-70494829D01*
X122851497Y-70513075D01*
X122851489Y-70513088D01*
X122753538Y-70709801D01*
X122693396Y-70921180D01*
X122673120Y-71139999D01*
X122673120Y-71140000D01*
X122693396Y-71358819D01*
X122753538Y-71570200D01*
X122753539Y-71570201D01*
X122851487Y-71766908D01*
X122851494Y-71766920D01*
X122865275Y-71785168D01*
X123436528Y-71213917D01*
X123438271Y-71237170D01*
X123485827Y-71358338D01*
X123566984Y-71460107D01*
X123674533Y-71533432D01*
X123788856Y-71568696D01*
X123220986Y-72136565D01*
X123220987Y-72136566D01*
X123250877Y-72155073D01*
X123297513Y-72207101D01*
X123308617Y-72276082D01*
X123280664Y-72340117D01*
X123222529Y-72378873D01*
X123185600Y-72384500D01*
X121980351Y-72384500D01*
X121913312Y-72364815D01*
X121867557Y-72312011D01*
X121857613Y-72242853D01*
X121864169Y-72217167D01*
X121906496Y-72103679D01*
X121906498Y-72103672D01*
X121912899Y-72044144D01*
X121912900Y-72044127D01*
X121912900Y-71712900D01*
X119465100Y-71712900D01*
X119465100Y-72044144D01*
X119471501Y-72103672D01*
X119471503Y-72103679D01*
X119513831Y-72217167D01*
X119518815Y-72286859D01*
X119485330Y-72348182D01*
X119424006Y-72381666D01*
X119397649Y-72384500D01*
X119249992Y-72384500D01*
X119205459Y-72389289D01*
X119192203Y-72390000D01*
X118171767Y-72390000D01*
X118108310Y-72371366D01*
X118108055Y-72371844D01*
X118105763Y-72370618D01*
X118104728Y-72370315D01*
X118102876Y-72369102D01*
X118102679Y-72368970D01*
X117919496Y-72271056D01*
X117720716Y-72210757D01*
X117514000Y-72190398D01*
X117307283Y-72210757D01*
X117108503Y-72271056D01*
X116925320Y-72368970D01*
X116925124Y-72369102D01*
X116925005Y-72369139D01*
X116919945Y-72371844D01*
X116919432Y-72370884D01*
X116858447Y-72389980D01*
X116856233Y-72390000D01*
X116670055Y-72390000D01*
X116603016Y-72370315D01*
X116557261Y-72317511D01*
X116547317Y-72248353D01*
X116576342Y-72184797D01*
X116582374Y-72178319D01*
X116767349Y-71993344D01*
X117027751Y-71732941D01*
X117089072Y-71699458D01*
X117151422Y-71701962D01*
X117307282Y-71749242D01*
X117514000Y-71769602D01*
X117720718Y-71749242D01*
X117919492Y-71688945D01*
X117943449Y-71676140D01*
X118102677Y-71591030D01*
X118102675Y-71591030D01*
X118102683Y-71591027D01*
X118263252Y-71459252D01*
X118395027Y-71298683D01*
X118440879Y-71212900D01*
X119465100Y-71212900D01*
X120439000Y-71212900D01*
X120439000Y-70429500D01*
X120939000Y-70429500D01*
X120939000Y-71212900D01*
X121912900Y-71212900D01*
X121912900Y-70881672D01*
X121912899Y-70881655D01*
X121906498Y-70822127D01*
X121906496Y-70822120D01*
X121856254Y-70687413D01*
X121856250Y-70687406D01*
X121770090Y-70572312D01*
X121770087Y-70572309D01*
X121654993Y-70486149D01*
X121654986Y-70486145D01*
X121520279Y-70435903D01*
X121520272Y-70435901D01*
X121460744Y-70429500D01*
X120939000Y-70429500D01*
X120439000Y-70429500D01*
X119917255Y-70429500D01*
X119857727Y-70435901D01*
X119857720Y-70435903D01*
X119723013Y-70486145D01*
X119723006Y-70486149D01*
X119607912Y-70572309D01*
X119607909Y-70572312D01*
X119521749Y-70687406D01*
X119521745Y-70687413D01*
X119471503Y-70822120D01*
X119471501Y-70822127D01*
X119465100Y-70881655D01*
X119465100Y-71212900D01*
X118440879Y-71212900D01*
X118477234Y-71144886D01*
X118492943Y-71115496D01*
X118492943Y-71115495D01*
X118492945Y-71115492D01*
X118553242Y-70916718D01*
X118573602Y-70710000D01*
X118553242Y-70503282D01*
X118492945Y-70304508D01*
X118492943Y-70304505D01*
X118492943Y-70304503D01*
X118395030Y-70121322D01*
X118395028Y-70121320D01*
X118395027Y-70121317D01*
X118331266Y-70043624D01*
X118263252Y-69960747D01*
X118102684Y-69828974D01*
X118102677Y-69828969D01*
X117919496Y-69731056D01*
X117720716Y-69670757D01*
X117514000Y-69650398D01*
X117307283Y-69670757D01*
X117108503Y-69731056D01*
X116925322Y-69828969D01*
X116925315Y-69828974D01*
X116764747Y-69960747D01*
X116632974Y-70121315D01*
X116632969Y-70121322D01*
X116535056Y-70304503D01*
X116474757Y-70503283D01*
X116454398Y-70710000D01*
X116474757Y-70916716D01*
X116482247Y-70941406D01*
X116522036Y-71072573D01*
X116522659Y-71142439D01*
X116491056Y-71196248D01*
X116130181Y-71557124D01*
X116068858Y-71590609D01*
X115999167Y-71585625D01*
X115943233Y-71543754D01*
X115918816Y-71478289D01*
X115918500Y-71469443D01*
X115918500Y-71135672D01*
X115918499Y-71135655D01*
X115912098Y-71076127D01*
X115912096Y-71076120D01*
X115861854Y-70941413D01*
X115861850Y-70941406D01*
X115775690Y-70826312D01*
X115775687Y-70826309D01*
X115660593Y-70740149D01*
X115660586Y-70740145D01*
X115525879Y-70689903D01*
X115525872Y-70689901D01*
X115466344Y-70683500D01*
X115224000Y-70683500D01*
X115224000Y-71792100D01*
X115204315Y-71859139D01*
X115151511Y-71904894D01*
X115100000Y-71916100D01*
X114063262Y-71916100D01*
X113996223Y-71896415D01*
X113989131Y-71890700D01*
X112124500Y-71890700D01*
X112124500Y-71993344D01*
X112130901Y-72052872D01*
X112130903Y-72052879D01*
X112181145Y-72187586D01*
X112181148Y-72187592D01*
X112184217Y-72191691D01*
X112208633Y-72257155D01*
X112193780Y-72325428D01*
X112144375Y-72374833D01*
X112084949Y-72390000D01*
X111792500Y-72390000D01*
X111725461Y-72370315D01*
X111679706Y-72317511D01*
X111668500Y-72266000D01*
X111668499Y-71566538D01*
X111668499Y-71566536D01*
X111653734Y-71492301D01*
X111653733Y-71492299D01*
X111651351Y-71480323D01*
X111653262Y-71479942D01*
X111647419Y-71425637D01*
X111664903Y-71390700D01*
X112124500Y-71390700D01*
X112819000Y-71390700D01*
X113319000Y-71390700D01*
X113979738Y-71390700D01*
X114046777Y-71410385D01*
X114053869Y-71416100D01*
X114724000Y-71416100D01*
X114724000Y-70683500D01*
X114481655Y-70683500D01*
X114422127Y-70689901D01*
X114422120Y-70689903D01*
X114287413Y-70740145D01*
X114287406Y-70740149D01*
X114172312Y-70826309D01*
X114172309Y-70826312D01*
X114086149Y-70941406D01*
X114086143Y-70941417D01*
X114084566Y-70945646D01*
X114042691Y-71001577D01*
X113977225Y-71025990D01*
X113908953Y-71011133D01*
X113877802Y-70984139D01*
X113876960Y-70984982D01*
X113870687Y-70978709D01*
X113755593Y-70892549D01*
X113755586Y-70892545D01*
X113620879Y-70842303D01*
X113620872Y-70842301D01*
X113561344Y-70835900D01*
X113319000Y-70835900D01*
X113319000Y-71390700D01*
X112819000Y-71390700D01*
X112819000Y-70835900D01*
X112576655Y-70835900D01*
X112517127Y-70842301D01*
X112517120Y-70842303D01*
X112382413Y-70892545D01*
X112382406Y-70892549D01*
X112267312Y-70978709D01*
X112267309Y-70978712D01*
X112181149Y-71093806D01*
X112181145Y-71093813D01*
X112130903Y-71228520D01*
X112130901Y-71228527D01*
X112124500Y-71288055D01*
X112124500Y-71390700D01*
X111664903Y-71390700D01*
X111678688Y-71363155D01*
X111687206Y-71354843D01*
X111745498Y-71303201D01*
X111835787Y-71172395D01*
X111892149Y-71023782D01*
X111911307Y-70866000D01*
X111908429Y-70842301D01*
X111892149Y-70708218D01*
X111884148Y-70687121D01*
X111835787Y-70559605D01*
X111745498Y-70428799D01*
X111745495Y-70428796D01*
X111745493Y-70428794D01*
X111626530Y-70323401D01*
X111485791Y-70249536D01*
X111331472Y-70211500D01*
X111331471Y-70211500D01*
X111172529Y-70211500D01*
X111172528Y-70211500D01*
X111018208Y-70249536D01*
X110877469Y-70323401D01*
X110758506Y-70428794D01*
X110758500Y-70428801D01*
X110668214Y-70559602D01*
X110611850Y-70708218D01*
X110592693Y-70865999D01*
X110592693Y-70866000D01*
X110611850Y-71023781D01*
X110643551Y-71107367D01*
X110657780Y-71144887D01*
X110668214Y-71172397D01*
X110732063Y-71264897D01*
X110753946Y-71331251D01*
X110736481Y-71398903D01*
X110733115Y-71404228D01*
X110674266Y-71492301D01*
X110674264Y-71492305D01*
X110659500Y-71566530D01*
X110659500Y-71566533D01*
X110659501Y-72266000D01*
X110639817Y-72333039D01*
X110587013Y-72378794D01*
X110535501Y-72390000D01*
X110108999Y-72390000D01*
X110133745Y-72415983D01*
X110165725Y-72478104D01*
X110159043Y-72547654D01*
X110115820Y-72602550D01*
X110049779Y-72625363D01*
X110043952Y-72625500D01*
X109414602Y-72625500D01*
X109347563Y-72605815D01*
X109309608Y-72567472D01*
X109287319Y-72531999D01*
X109263887Y-72494707D01*
X109134293Y-72365113D01*
X108979110Y-72267606D01*
X108979109Y-72267605D01*
X108979108Y-72267605D01*
X108979106Y-72267604D01*
X108806115Y-72207072D01*
X108624004Y-72186554D01*
X108623996Y-72186554D01*
X108441884Y-72207072D01*
X108268893Y-72267604D01*
X108268891Y-72267605D01*
X108113706Y-72365113D01*
X107984113Y-72494706D01*
X107886605Y-72649891D01*
X107886604Y-72649893D01*
X107826072Y-72822884D01*
X107805554Y-73004996D01*
X107805554Y-73005003D01*
X107826072Y-73187115D01*
X107886604Y-73360106D01*
X107886605Y-73360108D01*
X107886606Y-73360110D01*
X107984113Y-73515293D01*
X108113707Y-73644887D01*
X108268890Y-73742394D01*
X108441879Y-73802926D01*
X108441882Y-73802926D01*
X108441884Y-73802927D01*
X108623996Y-73823446D01*
X108624000Y-73823446D01*
X108624004Y-73823446D01*
X108806115Y-73802927D01*
X108806116Y-73802926D01*
X108806121Y-73802926D01*
X108979110Y-73742394D01*
X109134293Y-73644887D01*
X109263887Y-73515293D01*
X109309608Y-73442528D01*
X109361943Y-73396237D01*
X109414602Y-73384500D01*
X110563411Y-73384500D01*
X110630450Y-73404185D01*
X110664750Y-73443770D01*
X110667481Y-73441946D01*
X110730515Y-73536284D01*
X110741167Y-73543401D01*
X110814699Y-73592534D01*
X110814702Y-73592534D01*
X110814703Y-73592535D01*
X110839666Y-73597500D01*
X110888933Y-73607300D01*
X111215190Y-73607299D01*
X111282228Y-73626983D01*
X111304981Y-73645780D01*
X111399264Y-73744777D01*
X111431243Y-73806896D01*
X111425412Y-73874263D01*
X111412064Y-73909458D01*
X111373850Y-74010218D01*
X111354693Y-74167999D01*
X111354693Y-74168000D01*
X111373850Y-74325781D01*
X111406171Y-74411003D01*
X111430213Y-74474395D01*
X111520502Y-74605201D01*
X111520504Y-74605203D01*
X111520506Y-74605205D01*
X111639469Y-74710598D01*
X111639471Y-74710599D01*
X111780207Y-74784463D01*
X111831964Y-74797220D01*
X111934528Y-74822500D01*
X112025501Y-74822500D01*
X112092540Y-74842185D01*
X112138295Y-74894989D01*
X112149501Y-74946500D01*
X112149501Y-75285064D01*
X112164267Y-75359302D01*
X112220516Y-75443485D01*
X112254235Y-75466015D01*
X112304700Y-75499735D01*
X112304703Y-75499735D01*
X112304704Y-75499736D01*
X112329667Y-75504701D01*
X112378934Y-75514501D01*
X112679067Y-75514500D01*
X112753302Y-75499735D01*
X112753303Y-75499733D01*
X112754811Y-75499434D01*
X112803192Y-75499435D01*
X112838728Y-75506503D01*
X112878936Y-75514501D01*
X113050500Y-75514500D01*
X113117539Y-75534184D01*
X113163294Y-75586988D01*
X113174500Y-75638500D01*
X113174500Y-75656498D01*
X113154815Y-75723537D01*
X113102011Y-75769292D01*
X113050500Y-75780498D01*
X112653935Y-75780498D01*
X112579697Y-75795264D01*
X112495514Y-75851513D01*
X112439265Y-75935697D01*
X112439263Y-75935701D01*
X112424499Y-76009926D01*
X112424499Y-76133152D01*
X112404814Y-76200191D01*
X112352010Y-76245946D01*
X112308482Y-76256895D01*
X109337644Y-76448563D01*
X109332881Y-76448778D01*
X108967120Y-76458278D01*
X108899592Y-76440341D01*
X108852481Y-76388743D01*
X108839900Y-76334320D01*
X108839900Y-76085387D01*
X108859585Y-76018348D01*
X108912389Y-75972593D01*
X108950644Y-75962098D01*
X108998072Y-75956998D01*
X108998079Y-75956996D01*
X109132786Y-75906754D01*
X109132793Y-75906750D01*
X109247887Y-75820590D01*
X109247890Y-75820587D01*
X109334050Y-75705493D01*
X109334054Y-75705486D01*
X109384296Y-75570779D01*
X109384298Y-75570772D01*
X109390699Y-75511244D01*
X109390700Y-75511227D01*
X109390700Y-75434000D01*
X106587300Y-75434000D01*
X106587300Y-75511244D01*
X106593701Y-75570772D01*
X106593703Y-75570779D01*
X106643945Y-75705486D01*
X106643949Y-75705493D01*
X106730109Y-75820587D01*
X106730112Y-75820590D01*
X106845206Y-75906750D01*
X106845213Y-75906754D01*
X106979920Y-75956996D01*
X106979927Y-75956998D01*
X107027356Y-75962098D01*
X107091907Y-75988836D01*
X107131755Y-76046229D01*
X107138100Y-76085387D01*
X107138100Y-76385589D01*
X107118415Y-76452628D01*
X107065611Y-76498383D01*
X107008479Y-76509462D01*
X107004145Y-76509265D01*
X107004143Y-76509265D01*
X107004140Y-76509265D01*
X107004139Y-76509265D01*
X105831166Y-76539731D01*
X105763638Y-76521794D01*
X105716527Y-76470196D01*
X105704791Y-76401319D01*
X105728993Y-76341045D01*
X105826506Y-76211919D01*
X105924461Y-76015198D01*
X105984603Y-75803819D01*
X106004880Y-75585000D01*
X106004880Y-75584999D01*
X105984603Y-75366180D01*
X105924461Y-75154799D01*
X105924460Y-75154798D01*
X105826511Y-74958088D01*
X105826506Y-74958081D01*
X105812722Y-74939829D01*
X105241471Y-75511080D01*
X105239729Y-75487830D01*
X105192173Y-75366662D01*
X105111016Y-75264893D01*
X105003467Y-75191568D01*
X104889143Y-75156303D01*
X105111446Y-74934000D01*
X106587300Y-74934000D01*
X107739000Y-74934000D01*
X107739000Y-74404600D01*
X108239000Y-74404600D01*
X108239000Y-74934000D01*
X109390700Y-74934000D01*
X109390700Y-74856772D01*
X109390699Y-74856755D01*
X109384298Y-74797227D01*
X109384296Y-74797220D01*
X109334054Y-74662513D01*
X109334050Y-74662506D01*
X109247890Y-74547412D01*
X109247887Y-74547409D01*
X109132793Y-74461249D01*
X109132786Y-74461245D01*
X108998079Y-74411003D01*
X108998072Y-74411001D01*
X108938544Y-74404600D01*
X108239000Y-74404600D01*
X107739000Y-74404600D01*
X107039455Y-74404600D01*
X106979927Y-74411001D01*
X106979920Y-74411003D01*
X106845213Y-74461245D01*
X106845206Y-74461249D01*
X106730112Y-74547409D01*
X106730109Y-74547412D01*
X106643949Y-74662506D01*
X106643945Y-74662513D01*
X106593703Y-74797220D01*
X106593701Y-74797227D01*
X106587300Y-74856755D01*
X106587300Y-74934000D01*
X105111446Y-74934000D01*
X105457012Y-74588433D01*
X105457011Y-74588432D01*
X105344824Y-74518970D01*
X105344818Y-74518967D01*
X105139898Y-74439581D01*
X104923879Y-74399200D01*
X104704121Y-74399200D01*
X104488102Y-74439581D01*
X104488101Y-74439581D01*
X104283182Y-74518966D01*
X104170986Y-74588433D01*
X104741764Y-75159210D01*
X104685287Y-75167723D01*
X104568011Y-75224201D01*
X104472592Y-75312736D01*
X104407509Y-75425464D01*
X104387699Y-75512252D01*
X103815276Y-74939829D01*
X103801497Y-74958075D01*
X103801489Y-74958088D01*
X103703538Y-75154801D01*
X103643396Y-75366180D01*
X103623120Y-75584999D01*
X103623120Y-75585000D01*
X103643396Y-75803819D01*
X103703538Y-76015200D01*
X103703539Y-76015201D01*
X103801487Y-76211908D01*
X103801494Y-76211920D01*
X103815275Y-76230168D01*
X104386528Y-75658917D01*
X104388271Y-75682170D01*
X104435827Y-75803338D01*
X104516984Y-75905107D01*
X104624533Y-75978432D01*
X104738856Y-76013696D01*
X104204657Y-76547895D01*
X104144030Y-76581000D01*
X102486000Y-76581000D01*
X102418961Y-76561315D01*
X102373206Y-76508511D01*
X102362000Y-76457000D01*
X102362000Y-72875218D01*
X102381685Y-72808179D01*
X102394754Y-72791561D01*
X102394685Y-72791501D01*
X102395954Y-72790035D01*
X102396273Y-72789631D01*
X102396601Y-72789285D01*
X102396618Y-72789270D01*
X102662055Y-72482939D01*
X102897171Y-72152764D01*
X103099838Y-71801735D01*
X103207251Y-71566535D01*
X103268216Y-71433041D01*
X103268223Y-71433023D01*
X103400787Y-71050002D01*
X103400787Y-71049999D01*
X103400791Y-71049990D01*
X103496352Y-70656082D01*
X103518074Y-70505003D01*
X107805554Y-70505003D01*
X107826072Y-70687115D01*
X107826073Y-70687120D01*
X107826074Y-70687121D01*
X107829575Y-70697126D01*
X107886604Y-70860106D01*
X107886605Y-70860108D01*
X107886606Y-70860110D01*
X107984113Y-71015293D01*
X108113707Y-71144887D01*
X108268890Y-71242394D01*
X108441879Y-71302926D01*
X108441882Y-71302926D01*
X108441884Y-71302927D01*
X108623996Y-71323446D01*
X108624000Y-71323446D01*
X108624004Y-71323446D01*
X108806115Y-71302927D01*
X108806116Y-71302926D01*
X108806121Y-71302926D01*
X108979110Y-71242394D01*
X109134293Y-71144887D01*
X109263887Y-71015293D01*
X109361394Y-70860110D01*
X109421926Y-70687121D01*
X109425423Y-70656083D01*
X109442446Y-70505003D01*
X109442446Y-70504996D01*
X109421927Y-70322884D01*
X109421926Y-70322882D01*
X109421926Y-70322879D01*
X109361394Y-70149890D01*
X109263887Y-69994707D01*
X109134293Y-69865113D01*
X109076770Y-69828969D01*
X109061528Y-69819392D01*
X109015237Y-69767057D01*
X109003500Y-69714398D01*
X109003500Y-69495136D01*
X109023185Y-69428097D01*
X109069875Y-69385339D01*
X109086529Y-69376599D01*
X109205498Y-69271201D01*
X109295787Y-69140395D01*
X109352149Y-68991782D01*
X109371307Y-68834000D01*
X109371306Y-68833995D01*
X109352149Y-68676218D01*
X109347060Y-68662799D01*
X109295787Y-68527605D01*
X109205498Y-68396799D01*
X109205495Y-68396796D01*
X109205493Y-68396794D01*
X109086530Y-68291401D01*
X108945791Y-68217536D01*
X108791472Y-68179500D01*
X108791471Y-68179500D01*
X108632529Y-68179500D01*
X108632528Y-68179500D01*
X108478208Y-68217536D01*
X108337469Y-68291401D01*
X108218506Y-68396794D01*
X108218500Y-68396801D01*
X108128214Y-68527602D01*
X108071850Y-68676218D01*
X108052693Y-68833999D01*
X108052693Y-68834000D01*
X108071850Y-68991781D01*
X108128214Y-69140397D01*
X108222550Y-69277065D01*
X108244433Y-69343419D01*
X108244500Y-69347505D01*
X108244500Y-69714398D01*
X108224815Y-69781437D01*
X108186472Y-69819392D01*
X108113706Y-69865113D01*
X107984113Y-69994706D01*
X107886605Y-70149891D01*
X107886604Y-70149893D01*
X107826072Y-70322884D01*
X107805554Y-70504996D01*
X107805554Y-70505003D01*
X103518074Y-70505003D01*
X103554037Y-70254874D01*
X103573324Y-69850000D01*
X103554037Y-69445126D01*
X103496352Y-69043918D01*
X103400791Y-68650010D01*
X103400787Y-68649997D01*
X103268223Y-68266976D01*
X103268216Y-68266958D01*
X103099841Y-67898272D01*
X103099838Y-67898265D01*
X103053023Y-67817180D01*
X102941222Y-67623535D01*
X102897171Y-67547236D01*
X102897167Y-67547230D01*
X102897161Y-67547221D01*
X102662055Y-67217061D01*
X102607178Y-67153730D01*
X102396618Y-66910730D01*
X102396614Y-66910726D01*
X102396607Y-66910718D01*
X102396239Y-66910332D01*
X102396189Y-66910236D01*
X102394685Y-66908500D01*
X102395106Y-66908134D01*
X102364236Y-66848223D01*
X102362000Y-66824781D01*
X102362000Y-66672000D01*
X102381685Y-66604961D01*
X102434489Y-66559206D01*
X102486000Y-66548000D01*
X128654000Y-66548000D01*
X128721039Y-66567685D01*
G37*
%TD.AperFunction*%
%TD*%
%TA.AperFunction,Conductor*%
%TO.N,/Vout1*%
G36*
X120427939Y-90316685D02*
G01*
X120473694Y-90369489D01*
X120475141Y-90376141D01*
X120484900Y-90385900D01*
X121831100Y-90385900D01*
X121845691Y-90371308D01*
X121850785Y-90353961D01*
X121903589Y-90308206D01*
X121955100Y-90297000D01*
X126368000Y-90297000D01*
X126435039Y-90316685D01*
X126480794Y-90369489D01*
X126492000Y-90421000D01*
X126492000Y-93513961D01*
X126472315Y-93581000D01*
X126462291Y-93594492D01*
X126373494Y-93698460D01*
X126373492Y-93698464D01*
X126245646Y-93907089D01*
X126245644Y-93907092D01*
X126152011Y-94133144D01*
X126152011Y-94133146D01*
X126094891Y-94371067D01*
X126075693Y-94615000D01*
X126094891Y-94858932D01*
X126152011Y-95096853D01*
X126152011Y-95096855D01*
X126245644Y-95322907D01*
X126245646Y-95322910D01*
X126373490Y-95531532D01*
X126373491Y-95531535D01*
X126373494Y-95531538D01*
X126462290Y-95635506D01*
X126490861Y-95699266D01*
X126492000Y-95716036D01*
X126492000Y-96266000D01*
X142292944Y-96266000D01*
X142359983Y-96285685D01*
X142405738Y-96338489D01*
X142415682Y-96407647D01*
X142386657Y-96471203D01*
X142380625Y-96477681D01*
X142049125Y-96809181D01*
X141987802Y-96842666D01*
X141961444Y-96845500D01*
X135332215Y-96845500D01*
X135306770Y-96842861D01*
X135295901Y-96840582D01*
X135295898Y-96840582D01*
X135264082Y-96844548D01*
X135248744Y-96845500D01*
X135248557Y-96845500D01*
X135227808Y-96848962D01*
X135222739Y-96849701D01*
X135170213Y-96856248D01*
X135162594Y-96858516D01*
X135155076Y-96861098D01*
X135108541Y-96886280D01*
X135103991Y-96888622D01*
X135056431Y-96911874D01*
X135049976Y-96916482D01*
X135043684Y-96921379D01*
X135007845Y-96960310D01*
X135004299Y-96964005D01*
X134608354Y-97359950D01*
X134547031Y-97393435D01*
X134477339Y-97388451D01*
X134474776Y-97387462D01*
X134309955Y-97321792D01*
X134309952Y-97321791D01*
X134309951Y-97321791D01*
X134126535Y-97291722D01*
X134126532Y-97291722D01*
X133940942Y-97301784D01*
X133940937Y-97301784D01*
X133761856Y-97351505D01*
X133761848Y-97351509D01*
X133597636Y-97438569D01*
X133455979Y-97558894D01*
X133343497Y-97706862D01*
X133343496Y-97706863D01*
X133265456Y-97875543D01*
X133265453Y-97875551D01*
X133225500Y-98057066D01*
X133225500Y-98746333D01*
X133240556Y-98884773D01*
X133240557Y-98884776D01*
X133299906Y-99060916D01*
X133395728Y-99220172D01*
X133395729Y-99220173D01*
X133523546Y-99355109D01*
X133636995Y-99432028D01*
X133677385Y-99459413D01*
X133677386Y-99459413D01*
X133677387Y-99459414D01*
X133677389Y-99459415D01*
X133850044Y-99528208D01*
X133850048Y-99528208D01*
X133850049Y-99528209D01*
X134033465Y-99558278D01*
X134219058Y-99548216D01*
X134219062Y-99548215D01*
X134398143Y-99498494D01*
X134398145Y-99498492D01*
X134398148Y-99498492D01*
X134562362Y-99411431D01*
X134704021Y-99291105D01*
X134816502Y-99143139D01*
X134894545Y-98974452D01*
X134934500Y-98792933D01*
X134934500Y-98158556D01*
X134954185Y-98091517D01*
X134970819Y-98070875D01*
X135400875Y-97640819D01*
X135462198Y-97607334D01*
X135488556Y-97604500D01*
X140723284Y-97604500D01*
X140790323Y-97624185D01*
X140836078Y-97676989D01*
X140846574Y-97741755D01*
X140845500Y-97751744D01*
X140845500Y-99098251D01*
X140845501Y-99098257D01*
X140851960Y-99158344D01*
X140902655Y-99294261D01*
X140902656Y-99294264D01*
X140902658Y-99294267D01*
X140931747Y-99333126D01*
X140989595Y-99410404D01*
X141047443Y-99453707D01*
X141105733Y-99497342D01*
X141241658Y-99548040D01*
X141301745Y-99554500D01*
X142098254Y-99554499D01*
X142158342Y-99548040D01*
X142294267Y-99497342D01*
X142410404Y-99410404D01*
X142497342Y-99294267D01*
X142548040Y-99158342D01*
X142550800Y-99132664D01*
X142554499Y-99098271D01*
X142554499Y-99098264D01*
X142554500Y-99098255D01*
X142554499Y-97751746D01*
X142548040Y-97691658D01*
X142522874Y-97624185D01*
X142494243Y-97547424D01*
X142496336Y-97546643D01*
X142484104Y-97490426D01*
X142508518Y-97424960D01*
X142520101Y-97411591D01*
X143629374Y-96302319D01*
X143690697Y-96268834D01*
X143717055Y-96266000D01*
X144832943Y-96266000D01*
X144899982Y-96285685D01*
X144945737Y-96338489D01*
X144955681Y-96407647D01*
X144926656Y-96471203D01*
X144920624Y-96477681D01*
X144092487Y-97305817D01*
X144031164Y-97339302D01*
X143961472Y-97334318D01*
X143958948Y-97333344D01*
X143929951Y-97321791D01*
X143746535Y-97291722D01*
X143746532Y-97291722D01*
X143560942Y-97301784D01*
X143560937Y-97301784D01*
X143381856Y-97351505D01*
X143381848Y-97351509D01*
X143217636Y-97438569D01*
X143075979Y-97558894D01*
X142963497Y-97706862D01*
X142963496Y-97706863D01*
X142885456Y-97875543D01*
X142885453Y-97875551D01*
X142845500Y-98057066D01*
X142845500Y-98746333D01*
X142860556Y-98884773D01*
X142860557Y-98884776D01*
X142919906Y-99060916D01*
X143015728Y-99220172D01*
X143015729Y-99220173D01*
X143143546Y-99355109D01*
X143256995Y-99432028D01*
X143297385Y-99459413D01*
X143297386Y-99459413D01*
X143297387Y-99459414D01*
X143297389Y-99459415D01*
X143470044Y-99528208D01*
X143470048Y-99528208D01*
X143470049Y-99528209D01*
X143653465Y-99558278D01*
X143839058Y-99548216D01*
X143839062Y-99548215D01*
X144018143Y-99498494D01*
X144018145Y-99498492D01*
X144018148Y-99498492D01*
X144182362Y-99411431D01*
X144324021Y-99291105D01*
X144436502Y-99143139D01*
X144457269Y-99098251D01*
X150275500Y-99098251D01*
X150275501Y-99098257D01*
X150281960Y-99158344D01*
X150332655Y-99294261D01*
X150332656Y-99294264D01*
X150332658Y-99294267D01*
X150361747Y-99333126D01*
X150419595Y-99410404D01*
X150477443Y-99453707D01*
X150535733Y-99497342D01*
X150671658Y-99548040D01*
X150731745Y-99554500D01*
X151528254Y-99554499D01*
X151588342Y-99548040D01*
X151724267Y-99497342D01*
X151840404Y-99410404D01*
X151927342Y-99294267D01*
X151978040Y-99158342D01*
X151980800Y-99132664D01*
X151984499Y-99098271D01*
X151984499Y-99098264D01*
X151984500Y-99098255D01*
X151984499Y-97751746D01*
X151978040Y-97691658D01*
X151952874Y-97624185D01*
X151927344Y-97555738D01*
X151927343Y-97555737D01*
X151927342Y-97555733D01*
X151868381Y-97476969D01*
X151840404Y-97439595D01*
X151751612Y-97373128D01*
X151724267Y-97352658D01*
X151588342Y-97301960D01*
X151588338Y-97301959D01*
X151528263Y-97295500D01*
X150731748Y-97295500D01*
X150731742Y-97295501D01*
X150671655Y-97301960D01*
X150535738Y-97352655D01*
X150535730Y-97352660D01*
X150419595Y-97439595D01*
X150338878Y-97547424D01*
X150332658Y-97555733D01*
X150281960Y-97691658D01*
X150281959Y-97691662D01*
X150275500Y-97751728D01*
X150275500Y-99098251D01*
X144457269Y-99098251D01*
X144514545Y-98974452D01*
X144554500Y-98792933D01*
X144554500Y-98103668D01*
X144542633Y-97994555D01*
X144554954Y-97925780D01*
X144578222Y-97893470D01*
X146169374Y-96302319D01*
X146230697Y-96268834D01*
X146257055Y-96266000D01*
X152626500Y-96266000D01*
X152693539Y-96285685D01*
X152739294Y-96338489D01*
X152750500Y-96390000D01*
X152750500Y-97309426D01*
X152730815Y-97376465D01*
X152684584Y-97418981D01*
X152647638Y-97438569D01*
X152505979Y-97558894D01*
X152393497Y-97706862D01*
X152393496Y-97706863D01*
X152315456Y-97875543D01*
X152315453Y-97875551D01*
X152275500Y-98057066D01*
X152275500Y-98746333D01*
X152290556Y-98884773D01*
X152290557Y-98884776D01*
X152349906Y-99060916D01*
X152445728Y-99220172D01*
X152445729Y-99220173D01*
X152573546Y-99355109D01*
X152686995Y-99432028D01*
X152727385Y-99459413D01*
X152727386Y-99459413D01*
X152727387Y-99459414D01*
X152727389Y-99459415D01*
X152900044Y-99528208D01*
X152900048Y-99528208D01*
X152900049Y-99528209D01*
X153083465Y-99558278D01*
X153269058Y-99548216D01*
X153269062Y-99548215D01*
X153448143Y-99498494D01*
X153448145Y-99498492D01*
X153448148Y-99498492D01*
X153612362Y-99411431D01*
X153754021Y-99291105D01*
X153866502Y-99143139D01*
X153944545Y-98974452D01*
X153984500Y-98792933D01*
X153984500Y-98103668D01*
X153969443Y-97965225D01*
X153910096Y-97789089D01*
X153910093Y-97789085D01*
X153910093Y-97789083D01*
X153868536Y-97720016D01*
X153814273Y-97629829D01*
X153747080Y-97558894D01*
X153686453Y-97494890D01*
X153686451Y-97494888D01*
X153563913Y-97411806D01*
X153519472Y-97357892D01*
X153509500Y-97309173D01*
X153509500Y-96390000D01*
X153529185Y-96322961D01*
X153581989Y-96277206D01*
X153633500Y-96266000D01*
X156002943Y-96266000D01*
X156069982Y-96285685D01*
X156090624Y-96302319D01*
X156539730Y-96751425D01*
X156555854Y-96771280D01*
X156561932Y-96780582D01*
X156561936Y-96780585D01*
X156587234Y-96800276D01*
X156598753Y-96810448D01*
X156598886Y-96810581D01*
X156616046Y-96822832D01*
X156620107Y-96825861D01*
X156661881Y-96858375D01*
X156661884Y-96858377D01*
X156668853Y-96862148D01*
X156676018Y-96865651D01*
X156676021Y-96865653D01*
X156726757Y-96880757D01*
X156731590Y-96882305D01*
X156781673Y-96899500D01*
X156781676Y-96899500D01*
X156789481Y-96900803D01*
X156797407Y-96901791D01*
X156797410Y-96901792D01*
X156797412Y-96901791D01*
X156797413Y-96901792D01*
X156850262Y-96899606D01*
X156855387Y-96899500D01*
X160541444Y-96899500D01*
X160608483Y-96919185D01*
X160629125Y-96935819D01*
X160777125Y-97083819D01*
X160810610Y-97145142D01*
X160805626Y-97214834D01*
X160763754Y-97270767D01*
X160698290Y-97295184D01*
X160689444Y-97295500D01*
X160256748Y-97295500D01*
X160256742Y-97295501D01*
X160196655Y-97301960D01*
X160060738Y-97352655D01*
X160060730Y-97352660D01*
X159944595Y-97439595D01*
X159863878Y-97547424D01*
X159857658Y-97555733D01*
X159806960Y-97691658D01*
X159806959Y-97691662D01*
X159800500Y-97751728D01*
X159800500Y-99098251D01*
X159800501Y-99098257D01*
X159806960Y-99158344D01*
X159857655Y-99294261D01*
X159857656Y-99294264D01*
X159857658Y-99294267D01*
X159886747Y-99333126D01*
X159944595Y-99410404D01*
X160002443Y-99453707D01*
X160060733Y-99497342D01*
X160196658Y-99548040D01*
X160256745Y-99554500D01*
X161053254Y-99554499D01*
X161113342Y-99548040D01*
X161249267Y-99497342D01*
X161365404Y-99410404D01*
X161452342Y-99294267D01*
X161503040Y-99158342D01*
X161505800Y-99132664D01*
X161509499Y-99098271D01*
X161509499Y-99098264D01*
X161509500Y-99098255D01*
X161509499Y-98115554D01*
X161529183Y-98048516D01*
X161581987Y-98002761D01*
X161651146Y-97992817D01*
X161714702Y-98021842D01*
X161721180Y-98027874D01*
X161764181Y-98070875D01*
X161797666Y-98132198D01*
X161800500Y-98158556D01*
X161800500Y-98746333D01*
X161815556Y-98884773D01*
X161815557Y-98884776D01*
X161874906Y-99060916D01*
X161970728Y-99220172D01*
X161970729Y-99220173D01*
X162098546Y-99355109D01*
X162211995Y-99432028D01*
X162252385Y-99459413D01*
X162252386Y-99459413D01*
X162252387Y-99459414D01*
X162252389Y-99459415D01*
X162425044Y-99528208D01*
X162425048Y-99528208D01*
X162425049Y-99528209D01*
X162608465Y-99558278D01*
X162794058Y-99548216D01*
X162794062Y-99548215D01*
X162973143Y-99498494D01*
X162973145Y-99498492D01*
X162973148Y-99498492D01*
X163137362Y-99411431D01*
X163279021Y-99291105D01*
X163391502Y-99143139D01*
X163469545Y-98974452D01*
X163509500Y-98792933D01*
X163509500Y-98103668D01*
X163494443Y-97965225D01*
X163435096Y-97789089D01*
X163435093Y-97789085D01*
X163435093Y-97789083D01*
X163393536Y-97720016D01*
X163339273Y-97629829D01*
X163272080Y-97558894D01*
X163211453Y-97494890D01*
X163057612Y-97390585D01*
X163057610Y-97390584D01*
X162884955Y-97321791D01*
X162763985Y-97301960D01*
X162701535Y-97291722D01*
X162701532Y-97291722D01*
X162515942Y-97301784D01*
X162515937Y-97301784D01*
X162336854Y-97351506D01*
X162336851Y-97351508D01*
X162274922Y-97384340D01*
X162206471Y-97398350D01*
X162141312Y-97373128D01*
X162129159Y-97362465D01*
X161244375Y-96477681D01*
X161210890Y-96416358D01*
X161215874Y-96346666D01*
X161257746Y-96290733D01*
X161323210Y-96266316D01*
X161332056Y-96266000D01*
X169432944Y-96266000D01*
X169499983Y-96285685D01*
X169520625Y-96302319D01*
X170302125Y-97083819D01*
X170335610Y-97145142D01*
X170330626Y-97214834D01*
X170288754Y-97270767D01*
X170223290Y-97295184D01*
X170214444Y-97295500D01*
X169781748Y-97295500D01*
X169781742Y-97295501D01*
X169721655Y-97301960D01*
X169585738Y-97352655D01*
X169585730Y-97352660D01*
X169469595Y-97439595D01*
X169388878Y-97547424D01*
X169382658Y-97555733D01*
X169331960Y-97691658D01*
X169331959Y-97691662D01*
X169325500Y-97751728D01*
X169325500Y-99098251D01*
X169325501Y-99098257D01*
X169331960Y-99158344D01*
X169382655Y-99294261D01*
X169382656Y-99294264D01*
X169382658Y-99294267D01*
X169411747Y-99333126D01*
X169469595Y-99410404D01*
X169527443Y-99453707D01*
X169585733Y-99497342D01*
X169721658Y-99548040D01*
X169781745Y-99554500D01*
X170578254Y-99554499D01*
X170638342Y-99548040D01*
X170774267Y-99497342D01*
X170890404Y-99410404D01*
X170977342Y-99294267D01*
X171028040Y-99158342D01*
X171030800Y-99132664D01*
X171034499Y-99098271D01*
X171034499Y-99098264D01*
X171034500Y-99098255D01*
X171034499Y-98115554D01*
X171054183Y-98048516D01*
X171106987Y-98002761D01*
X171176146Y-97992817D01*
X171239702Y-98021842D01*
X171246180Y-98027874D01*
X171289181Y-98070875D01*
X171322666Y-98132198D01*
X171325500Y-98158556D01*
X171325500Y-98746333D01*
X171340556Y-98884773D01*
X171340557Y-98884776D01*
X171399906Y-99060916D01*
X171495728Y-99220172D01*
X171495729Y-99220173D01*
X171623546Y-99355109D01*
X171736995Y-99432028D01*
X171777385Y-99459413D01*
X171777386Y-99459413D01*
X171777387Y-99459414D01*
X171777389Y-99459415D01*
X171950044Y-99528208D01*
X171950048Y-99528208D01*
X171950049Y-99528209D01*
X172133465Y-99558278D01*
X172319058Y-99548216D01*
X172319062Y-99548215D01*
X172498143Y-99498494D01*
X172498145Y-99498492D01*
X172498148Y-99498492D01*
X172662362Y-99411431D01*
X172804021Y-99291105D01*
X172916502Y-99143139D01*
X172994545Y-98974452D01*
X173034500Y-98792933D01*
X173034500Y-98103668D01*
X173019443Y-97965225D01*
X172960096Y-97789089D01*
X172960093Y-97789085D01*
X172960093Y-97789083D01*
X172918536Y-97720016D01*
X172864273Y-97629829D01*
X172797080Y-97558894D01*
X172736453Y-97494890D01*
X172582612Y-97390585D01*
X172582610Y-97390584D01*
X172409955Y-97321791D01*
X172288985Y-97301960D01*
X172226535Y-97291722D01*
X172226532Y-97291722D01*
X172040942Y-97301784D01*
X172040937Y-97301784D01*
X171861854Y-97351506D01*
X171861851Y-97351508D01*
X171799922Y-97384340D01*
X171731471Y-97398350D01*
X171666312Y-97373128D01*
X171654159Y-97362465D01*
X170769375Y-96477681D01*
X170735890Y-96416358D01*
X170740874Y-96346666D01*
X170782746Y-96290733D01*
X170848210Y-96266316D01*
X170857056Y-96266000D01*
X178957944Y-96266000D01*
X179024983Y-96285685D01*
X179045622Y-96302317D01*
X179494730Y-96751425D01*
X179827124Y-97083819D01*
X179860609Y-97145142D01*
X179855625Y-97214834D01*
X179813753Y-97270767D01*
X179748289Y-97295184D01*
X179739443Y-97295500D01*
X179306748Y-97295500D01*
X179306742Y-97295501D01*
X179246655Y-97301960D01*
X179110738Y-97352655D01*
X179110730Y-97352660D01*
X178994595Y-97439595D01*
X178913878Y-97547424D01*
X178907658Y-97555733D01*
X178856960Y-97691658D01*
X178856959Y-97691662D01*
X178850500Y-97751728D01*
X178850500Y-99098251D01*
X178850501Y-99098257D01*
X178856960Y-99158344D01*
X178907655Y-99294261D01*
X178907656Y-99294264D01*
X178907658Y-99294267D01*
X178936747Y-99333126D01*
X178994595Y-99410404D01*
X179052443Y-99453707D01*
X179110733Y-99497342D01*
X179246658Y-99548040D01*
X179306745Y-99554500D01*
X180103254Y-99554499D01*
X180163342Y-99548040D01*
X180299267Y-99497342D01*
X180415404Y-99410404D01*
X180502342Y-99294267D01*
X180553040Y-99158342D01*
X180555800Y-99132664D01*
X180559499Y-99098271D01*
X180559499Y-99098264D01*
X180559500Y-99098255D01*
X180559499Y-98115554D01*
X180579183Y-98048516D01*
X180631987Y-98002761D01*
X180701146Y-97992817D01*
X180764702Y-98021842D01*
X180771180Y-98027874D01*
X180814181Y-98070875D01*
X180847666Y-98132198D01*
X180850500Y-98158556D01*
X180850500Y-98746333D01*
X180865556Y-98884773D01*
X180865557Y-98884776D01*
X180924906Y-99060916D01*
X181020728Y-99220172D01*
X181020729Y-99220173D01*
X181148546Y-99355109D01*
X181261995Y-99432028D01*
X181302385Y-99459413D01*
X181302386Y-99459413D01*
X181302387Y-99459414D01*
X181302389Y-99459415D01*
X181475044Y-99528208D01*
X181475048Y-99528208D01*
X181475049Y-99528209D01*
X181658465Y-99558278D01*
X181844058Y-99548216D01*
X181844062Y-99548215D01*
X182023143Y-99498494D01*
X182023145Y-99498492D01*
X182023148Y-99498492D01*
X182187362Y-99411431D01*
X182329021Y-99291105D01*
X182441502Y-99143139D01*
X182519545Y-98974452D01*
X182559500Y-98792933D01*
X182559500Y-98103668D01*
X182544443Y-97965225D01*
X182485096Y-97789089D01*
X182485093Y-97789085D01*
X182485093Y-97789083D01*
X182443536Y-97720016D01*
X182389273Y-97629829D01*
X182322080Y-97558894D01*
X182261453Y-97494890D01*
X182107612Y-97390585D01*
X182107610Y-97390584D01*
X181934955Y-97321791D01*
X181813985Y-97301960D01*
X181751535Y-97291722D01*
X181751532Y-97291722D01*
X181565942Y-97301784D01*
X181565937Y-97301784D01*
X181386854Y-97351506D01*
X181386851Y-97351508D01*
X181324922Y-97384340D01*
X181256471Y-97398350D01*
X181191312Y-97373128D01*
X181179159Y-97362465D01*
X180294375Y-96477681D01*
X180260890Y-96416358D01*
X180265874Y-96346666D01*
X180307746Y-96290733D01*
X180373210Y-96266316D01*
X180382056Y-96266000D01*
X188482944Y-96266000D01*
X188549983Y-96285685D01*
X188570625Y-96302319D01*
X189352125Y-97083819D01*
X189385610Y-97145142D01*
X189380626Y-97214834D01*
X189338754Y-97270767D01*
X189273290Y-97295184D01*
X189264444Y-97295500D01*
X188831748Y-97295500D01*
X188831742Y-97295501D01*
X188771655Y-97301960D01*
X188635738Y-97352655D01*
X188635730Y-97352660D01*
X188519595Y-97439595D01*
X188438878Y-97547424D01*
X188432658Y-97555733D01*
X188381960Y-97691658D01*
X188381959Y-97691662D01*
X188375500Y-97751728D01*
X188375500Y-99098251D01*
X188375501Y-99098257D01*
X188381960Y-99158344D01*
X188432655Y-99294261D01*
X188432656Y-99294264D01*
X188432658Y-99294267D01*
X188461747Y-99333126D01*
X188519595Y-99410404D01*
X188577443Y-99453707D01*
X188635733Y-99497342D01*
X188771658Y-99548040D01*
X188831745Y-99554500D01*
X189628254Y-99554499D01*
X189688342Y-99548040D01*
X189824267Y-99497342D01*
X189940404Y-99410404D01*
X190027342Y-99294267D01*
X190078040Y-99158342D01*
X190080800Y-99132664D01*
X190084499Y-99098271D01*
X190084499Y-99098264D01*
X190084500Y-99098255D01*
X190084499Y-98115554D01*
X190104183Y-98048516D01*
X190156987Y-98002761D01*
X190226146Y-97992817D01*
X190289702Y-98021842D01*
X190296180Y-98027874D01*
X190339181Y-98070875D01*
X190372666Y-98132198D01*
X190375500Y-98158556D01*
X190375500Y-98746333D01*
X190390556Y-98884773D01*
X190390557Y-98884776D01*
X190449906Y-99060916D01*
X190545728Y-99220172D01*
X190545729Y-99220173D01*
X190673546Y-99355109D01*
X190786995Y-99432028D01*
X190827385Y-99459413D01*
X190827386Y-99459413D01*
X190827387Y-99459414D01*
X190827389Y-99459415D01*
X191000044Y-99528208D01*
X191000048Y-99528208D01*
X191000049Y-99528209D01*
X191183465Y-99558278D01*
X191369058Y-99548216D01*
X191369062Y-99548215D01*
X191548143Y-99498494D01*
X191548145Y-99498492D01*
X191548148Y-99498492D01*
X191712362Y-99411431D01*
X191854021Y-99291105D01*
X191966502Y-99143139D01*
X192044545Y-98974452D01*
X192084500Y-98792933D01*
X192084500Y-98103668D01*
X192069443Y-97965225D01*
X192010096Y-97789089D01*
X192010093Y-97789085D01*
X192010093Y-97789083D01*
X191968536Y-97720016D01*
X191914273Y-97629829D01*
X191847080Y-97558894D01*
X191786453Y-97494890D01*
X191632612Y-97390585D01*
X191632610Y-97390584D01*
X191459955Y-97321791D01*
X191338985Y-97301960D01*
X191276535Y-97291722D01*
X191276532Y-97291722D01*
X191090942Y-97301784D01*
X191090937Y-97301784D01*
X190911854Y-97351506D01*
X190911851Y-97351508D01*
X190849922Y-97384340D01*
X190781471Y-97398350D01*
X190716312Y-97373128D01*
X190704159Y-97362465D01*
X189819375Y-96477681D01*
X189785890Y-96416358D01*
X189790874Y-96346666D01*
X189832746Y-96290733D01*
X189898210Y-96266316D01*
X189907056Y-96266000D01*
X195710000Y-96266000D01*
X195777039Y-96285685D01*
X195822794Y-96338489D01*
X195834000Y-96390000D01*
X195834000Y-101476000D01*
X195814315Y-101543039D01*
X195761511Y-101588794D01*
X195710000Y-101600000D01*
X120264614Y-101600000D01*
X120197575Y-101580315D01*
X120151820Y-101527511D01*
X120140622Y-101477393D01*
X120140606Y-101476000D01*
X120113890Y-99098251D01*
X131225500Y-99098251D01*
X131225501Y-99098257D01*
X131231960Y-99158344D01*
X131282655Y-99294261D01*
X131282656Y-99294264D01*
X131282658Y-99294267D01*
X131311747Y-99333126D01*
X131369595Y-99410404D01*
X131427443Y-99453707D01*
X131485733Y-99497342D01*
X131621658Y-99548040D01*
X131681745Y-99554500D01*
X132478254Y-99554499D01*
X132538342Y-99548040D01*
X132674267Y-99497342D01*
X132790404Y-99410404D01*
X132877342Y-99294267D01*
X132928040Y-99158342D01*
X132930800Y-99132664D01*
X132934499Y-99098271D01*
X132934499Y-99098264D01*
X132934500Y-99098255D01*
X132934499Y-97751746D01*
X132928040Y-97691658D01*
X132902874Y-97624185D01*
X132877344Y-97555738D01*
X132877343Y-97555737D01*
X132877342Y-97555733D01*
X132818381Y-97476969D01*
X132790404Y-97439595D01*
X132701612Y-97373128D01*
X132674267Y-97352658D01*
X132538342Y-97301960D01*
X132538338Y-97301959D01*
X132478263Y-97295500D01*
X131681748Y-97295500D01*
X131681742Y-97295501D01*
X131621655Y-97301960D01*
X131485738Y-97352655D01*
X131485730Y-97352660D01*
X131369595Y-97439595D01*
X131288878Y-97547424D01*
X131282658Y-97555733D01*
X131231960Y-97691658D01*
X131231959Y-97691662D01*
X131225500Y-97751728D01*
X131225500Y-99098251D01*
X120113890Y-99098251D01*
X120016409Y-90422393D01*
X120035339Y-90355137D01*
X120087626Y-90308791D01*
X120140401Y-90297000D01*
X120360900Y-90297000D01*
X120427939Y-90316685D01*
G37*
%TD.AperFunction*%
%TD*%
%TA.AperFunction,Conductor*%
%TO.N,/Vin*%
G36*
X103378000Y-84156377D02*
G01*
X103376738Y-84174023D01*
X103372500Y-84203498D01*
X103372500Y-93856007D01*
X103377289Y-93900541D01*
X103378000Y-93913797D01*
X103378000Y-94234000D01*
X103708878Y-94234000D01*
X103726523Y-94235261D01*
X103756000Y-94239500D01*
X103756001Y-94239500D01*
X105276799Y-94239500D01*
X105343838Y-94259185D01*
X105389593Y-94311989D01*
X105396345Y-94354792D01*
X105972764Y-94931210D01*
X105916287Y-94939723D01*
X105799011Y-94996201D01*
X105703592Y-95084736D01*
X105638509Y-95197464D01*
X105618699Y-95284252D01*
X105046276Y-94711829D01*
X105032497Y-94730075D01*
X105032489Y-94730088D01*
X104934538Y-94926801D01*
X104874396Y-95138180D01*
X104854120Y-95356999D01*
X104854120Y-95357000D01*
X104874396Y-95575819D01*
X104934538Y-95787200D01*
X104934539Y-95787201D01*
X105032487Y-95983908D01*
X105032494Y-95983920D01*
X105046275Y-96002168D01*
X105617528Y-95430917D01*
X105619271Y-95454170D01*
X105666827Y-95575338D01*
X105747984Y-95677107D01*
X105855533Y-95750432D01*
X105969856Y-95785696D01*
X105401986Y-96353565D01*
X105401987Y-96353566D01*
X105514175Y-96423030D01*
X105514181Y-96423032D01*
X105719101Y-96502418D01*
X105935121Y-96542800D01*
X106154879Y-96542800D01*
X106370897Y-96502418D01*
X106370898Y-96502418D01*
X106575820Y-96423032D01*
X106575821Y-96423031D01*
X106688012Y-96353565D01*
X106469447Y-96135000D01*
X107691300Y-96135000D01*
X107691300Y-96212244D01*
X107697701Y-96271772D01*
X107697703Y-96271779D01*
X107747945Y-96406486D01*
X107747949Y-96406493D01*
X107834109Y-96521587D01*
X107834112Y-96521590D01*
X107949206Y-96607750D01*
X107949213Y-96607754D01*
X108083920Y-96657996D01*
X108083927Y-96657998D01*
X108143455Y-96664399D01*
X108143472Y-96664400D01*
X108843000Y-96664400D01*
X108843000Y-96135000D01*
X109343000Y-96135000D01*
X109343000Y-96664400D01*
X110042528Y-96664400D01*
X110042544Y-96664399D01*
X110102072Y-96657998D01*
X110102079Y-96657996D01*
X110236786Y-96607754D01*
X110236793Y-96607750D01*
X110351887Y-96521590D01*
X110351890Y-96521587D01*
X110438050Y-96406493D01*
X110438054Y-96406486D01*
X110488296Y-96271779D01*
X110488298Y-96271772D01*
X110494699Y-96212244D01*
X110494700Y-96212227D01*
X110494700Y-96135000D01*
X109343000Y-96135000D01*
X108843000Y-96135000D01*
X107691300Y-96135000D01*
X106469447Y-96135000D01*
X106117237Y-95782789D01*
X106173713Y-95774277D01*
X106290989Y-95717799D01*
X106386408Y-95629264D01*
X106451491Y-95516536D01*
X106471300Y-95429747D01*
X107043722Y-96002168D01*
X107043723Y-96002168D01*
X107057505Y-95983920D01*
X107057507Y-95983915D01*
X107155461Y-95787198D01*
X107215603Y-95575819D01*
X107235880Y-95357000D01*
X107235880Y-95356999D01*
X107215603Y-95138180D01*
X107155461Y-94926799D01*
X107155460Y-94926798D01*
X107057511Y-94730088D01*
X107057506Y-94730081D01*
X107043722Y-94711829D01*
X106472471Y-95283081D01*
X106470729Y-95259830D01*
X106423173Y-95138662D01*
X106342016Y-95036893D01*
X106234467Y-94963568D01*
X106120143Y-94928303D01*
X106694043Y-94354403D01*
X106701854Y-94308928D01*
X106749033Y-94257393D01*
X106813200Y-94239500D01*
X108118100Y-94239500D01*
X108185139Y-94259185D01*
X108230894Y-94311989D01*
X108242100Y-94363500D01*
X108242100Y-94983612D01*
X108222415Y-95050651D01*
X108169611Y-95096406D01*
X108131358Y-95106901D01*
X108083926Y-95112001D01*
X108083920Y-95112003D01*
X107949213Y-95162245D01*
X107949206Y-95162249D01*
X107834112Y-95248409D01*
X107834109Y-95248412D01*
X107747949Y-95363506D01*
X107747945Y-95363513D01*
X107697703Y-95498220D01*
X107697701Y-95498227D01*
X107691300Y-95557755D01*
X107691300Y-95635000D01*
X110494700Y-95635000D01*
X110494700Y-95557772D01*
X110494699Y-95557755D01*
X110488298Y-95498227D01*
X110488296Y-95498220D01*
X110438054Y-95363513D01*
X110438050Y-95363506D01*
X110351890Y-95248412D01*
X110351887Y-95248409D01*
X110236793Y-95162249D01*
X110236786Y-95162245D01*
X110102079Y-95112003D01*
X110102073Y-95112001D01*
X110054642Y-95106901D01*
X109990091Y-95080161D01*
X109950245Y-95022768D01*
X109943900Y-94983612D01*
X109943900Y-94363500D01*
X109963585Y-94296461D01*
X110016389Y-94250706D01*
X110067900Y-94239500D01*
X112674489Y-94239500D01*
X112674498Y-94239500D01*
X112719039Y-94234710D01*
X112732295Y-94234000D01*
X112859608Y-94234000D01*
X112926647Y-94253685D01*
X112928498Y-94254898D01*
X112953693Y-94271733D01*
X112953695Y-94271733D01*
X112953697Y-94271735D01*
X112969122Y-94274803D01*
X112996294Y-94285784D01*
X112997090Y-94284042D01*
X113005157Y-94287725D01*
X113005162Y-94287729D01*
X113102312Y-94316257D01*
X113148706Y-94320409D01*
X113171901Y-94322486D01*
X113171902Y-94322486D01*
X113171902Y-94322485D01*
X113171903Y-94322486D01*
X113245659Y-94318534D01*
X113266511Y-94314385D01*
X113290703Y-94312003D01*
X113399501Y-94312003D01*
X113466540Y-94331688D01*
X113512295Y-94384492D01*
X113523501Y-94436003D01*
X113523501Y-94728002D01*
X113503816Y-94795041D01*
X113451012Y-94840796D01*
X113399501Y-94852002D01*
X113290705Y-94852002D01*
X113266516Y-94849620D01*
X113227813Y-94841922D01*
X113177188Y-94836936D01*
X113128816Y-94836936D01*
X113128815Y-94836936D01*
X113125509Y-94837261D01*
X113078191Y-94841920D01*
X113078184Y-94841921D01*
X113033522Y-94850804D01*
X113022593Y-94852475D01*
X112971836Y-94857932D01*
X112920322Y-94869139D01*
X112920321Y-94869140D01*
X112893547Y-94876485D01*
X112893541Y-94876487D01*
X112893539Y-94876488D01*
X112849545Y-94901539D01*
X112805551Y-94926591D01*
X112752751Y-94972342D01*
X112720630Y-95005631D01*
X112673695Y-95095354D01*
X112654439Y-95160935D01*
X112616664Y-95219713D01*
X112553109Y-95248738D01*
X112535462Y-95250000D01*
X112522000Y-95250000D01*
X112522000Y-101476000D01*
X112502315Y-101543039D01*
X112449511Y-101588794D01*
X112398000Y-101600000D01*
X102968763Y-101600000D01*
X102901724Y-101580315D01*
X102855969Y-101527511D01*
X102846025Y-101458353D01*
X102867756Y-101404073D01*
X102897161Y-101362778D01*
X102897167Y-101362769D01*
X102897171Y-101362764D01*
X103099838Y-101011735D01*
X103217123Y-100754917D01*
X103268216Y-100643041D01*
X103268223Y-100643023D01*
X103400787Y-100260002D01*
X103400787Y-100259999D01*
X103400791Y-100259990D01*
X103496352Y-99866082D01*
X103554037Y-99464874D01*
X103573324Y-99060000D01*
X103554037Y-98655126D01*
X103496352Y-98253918D01*
X103400791Y-97860010D01*
X103400787Y-97859997D01*
X103268223Y-97476976D01*
X103268216Y-97476958D01*
X103099841Y-97108272D01*
X103099838Y-97108265D01*
X102897171Y-96757236D01*
X102897167Y-96757230D01*
X102897161Y-96757221D01*
X102662055Y-96427061D01*
X102644227Y-96406486D01*
X102396618Y-96120730D01*
X102103264Y-95841018D01*
X101784650Y-95590457D01*
X101784644Y-95590452D01*
X101467226Y-95386461D01*
X101443662Y-95371317D01*
X101083387Y-95185583D01*
X101083385Y-95185582D01*
X101083377Y-95185578D01*
X100707089Y-95034935D01*
X100707077Y-95034931D01*
X100318179Y-94920741D01*
X100318162Y-94920737D01*
X99920167Y-94844029D01*
X99920158Y-94844028D01*
X99680213Y-94821116D01*
X99615348Y-94795148D01*
X99574820Y-94738234D01*
X99568000Y-94697678D01*
X99568000Y-88348808D01*
X99587685Y-88281769D01*
X99604319Y-88261127D01*
X100351866Y-87513579D01*
X100374318Y-87590040D01*
X100453605Y-87713413D01*
X100564438Y-87809451D01*
X100697839Y-87870373D01*
X100701634Y-87870918D01*
X99964145Y-88608406D01*
X100155355Y-88725580D01*
X100155358Y-88725582D01*
X100374944Y-88816537D01*
X100606057Y-88872021D01*
X100606056Y-88872021D01*
X100843000Y-88890668D01*
X101079943Y-88872021D01*
X101311055Y-88816537D01*
X101530641Y-88725582D01*
X101530644Y-88725580D01*
X101721853Y-88608406D01*
X100984366Y-87870918D01*
X100988161Y-87870373D01*
X101121562Y-87809451D01*
X101232395Y-87713413D01*
X101311682Y-87590040D01*
X101334133Y-87513580D01*
X102075406Y-88254853D01*
X102192580Y-88063644D01*
X102192582Y-88063641D01*
X102283537Y-87844055D01*
X102339021Y-87612943D01*
X102357668Y-87376000D01*
X102339021Y-87139056D01*
X102283537Y-86907944D01*
X102192582Y-86688358D01*
X102192580Y-86688355D01*
X102075406Y-86497145D01*
X101334132Y-87238418D01*
X101311682Y-87161960D01*
X101232395Y-87038587D01*
X101121562Y-86942549D01*
X100988161Y-86881627D01*
X100984365Y-86881081D01*
X101721853Y-86143592D01*
X101530644Y-86026419D01*
X101530641Y-86026417D01*
X101311055Y-85935462D01*
X101079942Y-85879978D01*
X101079943Y-85879978D01*
X100843000Y-85861331D01*
X100606056Y-85879978D01*
X100374944Y-85935462D01*
X100155366Y-86026414D01*
X100155357Y-86026419D01*
X99964145Y-86143592D01*
X100701635Y-86881081D01*
X100697839Y-86881627D01*
X100564438Y-86942549D01*
X100453605Y-87038587D01*
X100374318Y-87161960D01*
X100351866Y-87238419D01*
X99604319Y-86490872D01*
X99570834Y-86429549D01*
X99568000Y-86403191D01*
X99568000Y-83820000D01*
X103378000Y-83820000D01*
X103378000Y-84156377D01*
G37*
%TD.AperFunction*%
%TD*%
%TA.AperFunction,Conductor*%
%TO.N,/Vout2*%
G36*
X195523039Y-67075685D02*
G01*
X195568794Y-67128489D01*
X195580000Y-67180000D01*
X195580000Y-72520000D01*
X195560315Y-72587039D01*
X195507511Y-72632794D01*
X195456000Y-72644000D01*
X188532055Y-72644000D01*
X188465016Y-72624315D01*
X188419261Y-72571511D01*
X188409317Y-72502353D01*
X188438342Y-72438797D01*
X188444374Y-72432319D01*
X189352132Y-71524561D01*
X190511646Y-70365046D01*
X190572967Y-70331563D01*
X190642659Y-70336547D01*
X190645223Y-70337536D01*
X190732571Y-70372339D01*
X190810049Y-70403209D01*
X190993465Y-70433278D01*
X191179058Y-70423216D01*
X191179062Y-70423215D01*
X191358143Y-70373494D01*
X191358145Y-70373492D01*
X191358148Y-70373492D01*
X191522362Y-70286431D01*
X191664021Y-70166105D01*
X191776502Y-70018139D01*
X191854545Y-69849452D01*
X191894500Y-69667933D01*
X191894500Y-68978668D01*
X191879443Y-68840225D01*
X191820096Y-68664089D01*
X191820093Y-68664085D01*
X191820093Y-68664083D01*
X191775561Y-68590071D01*
X191724273Y-68504829D01*
X191657080Y-68433894D01*
X191596453Y-68369890D01*
X191442612Y-68265585D01*
X191442610Y-68265584D01*
X191269955Y-68196791D01*
X191148985Y-68176960D01*
X191086535Y-68166722D01*
X191086532Y-68166722D01*
X190900942Y-68176784D01*
X190900937Y-68176784D01*
X190721856Y-68226505D01*
X190721848Y-68226509D01*
X190557636Y-68313569D01*
X190415979Y-68433894D01*
X190303497Y-68581862D01*
X190303496Y-68581863D01*
X190225456Y-68750543D01*
X190225453Y-68750551D01*
X190185500Y-68932066D01*
X190185500Y-69566443D01*
X190165815Y-69633482D01*
X190149181Y-69654124D01*
X190106180Y-69697125D01*
X190044857Y-69730610D01*
X189975165Y-69725626D01*
X189919232Y-69683754D01*
X189894815Y-69618290D01*
X189894499Y-69609444D01*
X189894499Y-68626748D01*
X189894499Y-68626745D01*
X189888040Y-68566658D01*
X189864978Y-68504826D01*
X189837344Y-68430738D01*
X189837343Y-68430737D01*
X189837342Y-68430733D01*
X189778515Y-68352148D01*
X189750404Y-68314595D01*
X189673126Y-68256747D01*
X189634267Y-68227658D01*
X189498342Y-68176960D01*
X189498338Y-68176959D01*
X189438263Y-68170500D01*
X188641748Y-68170500D01*
X188641742Y-68170501D01*
X188581655Y-68176960D01*
X188445738Y-68227655D01*
X188445730Y-68227660D01*
X188329595Y-68314595D01*
X188242660Y-68430730D01*
X188242658Y-68430733D01*
X188191960Y-68566658D01*
X188191959Y-68566662D01*
X188185500Y-68626728D01*
X188185500Y-69973251D01*
X188185501Y-69973257D01*
X188191960Y-70033344D01*
X188242655Y-70169261D01*
X188242656Y-70169264D01*
X188242658Y-70169267D01*
X188261268Y-70194127D01*
X188329595Y-70285404D01*
X188357132Y-70306017D01*
X188445733Y-70372342D01*
X188581658Y-70423040D01*
X188641745Y-70429500D01*
X189074444Y-70429499D01*
X189141482Y-70449183D01*
X189187237Y-70501987D01*
X189197181Y-70571146D01*
X189168156Y-70634702D01*
X189162124Y-70641180D01*
X187195625Y-72607681D01*
X187134302Y-72641166D01*
X187107944Y-72644000D01*
X179007056Y-72644000D01*
X178940017Y-72624315D01*
X178894262Y-72571511D01*
X178884318Y-72502353D01*
X178913343Y-72438797D01*
X178919375Y-72432319D01*
X179392885Y-71958809D01*
X180986646Y-70365046D01*
X181047967Y-70331563D01*
X181117659Y-70336547D01*
X181120223Y-70337536D01*
X181207571Y-70372339D01*
X181285049Y-70403209D01*
X181468465Y-70433278D01*
X181654058Y-70423216D01*
X181654062Y-70423215D01*
X181833143Y-70373494D01*
X181833145Y-70373492D01*
X181833148Y-70373492D01*
X181997362Y-70286431D01*
X182139021Y-70166105D01*
X182251502Y-70018139D01*
X182329545Y-69849452D01*
X182369500Y-69667933D01*
X182369500Y-68978668D01*
X182354443Y-68840225D01*
X182295096Y-68664089D01*
X182295093Y-68664085D01*
X182295093Y-68664083D01*
X182250561Y-68590071D01*
X182199273Y-68504829D01*
X182132080Y-68433894D01*
X182071453Y-68369890D01*
X181917612Y-68265585D01*
X181917610Y-68265584D01*
X181744955Y-68196791D01*
X181623985Y-68176960D01*
X181561535Y-68166722D01*
X181561532Y-68166722D01*
X181375942Y-68176784D01*
X181375937Y-68176784D01*
X181196856Y-68226505D01*
X181196848Y-68226509D01*
X181032636Y-68313569D01*
X180890979Y-68433894D01*
X180778497Y-68581862D01*
X180778496Y-68581863D01*
X180700456Y-68750543D01*
X180700453Y-68750551D01*
X180660500Y-68932066D01*
X180660500Y-69566443D01*
X180640815Y-69633482D01*
X180624181Y-69654124D01*
X180581180Y-69697125D01*
X180519857Y-69730610D01*
X180450165Y-69725626D01*
X180394232Y-69683754D01*
X180369815Y-69618290D01*
X180369499Y-69609444D01*
X180369499Y-68626748D01*
X180369499Y-68626745D01*
X180363040Y-68566658D01*
X180339978Y-68504826D01*
X180312344Y-68430738D01*
X180312343Y-68430737D01*
X180312342Y-68430733D01*
X180253515Y-68352148D01*
X180225404Y-68314595D01*
X180148126Y-68256747D01*
X180109267Y-68227658D01*
X179973342Y-68176960D01*
X179973338Y-68176959D01*
X179913263Y-68170500D01*
X179116748Y-68170500D01*
X179116742Y-68170501D01*
X179056655Y-68176960D01*
X178920738Y-68227655D01*
X178920730Y-68227660D01*
X178804595Y-68314595D01*
X178717660Y-68430730D01*
X178717658Y-68430733D01*
X178666960Y-68566658D01*
X178666959Y-68566662D01*
X178660500Y-68626728D01*
X178660500Y-69973251D01*
X178660501Y-69973257D01*
X178666960Y-70033344D01*
X178717655Y-70169261D01*
X178717656Y-70169264D01*
X178717658Y-70169267D01*
X178736268Y-70194127D01*
X178804595Y-70285404D01*
X178832132Y-70306017D01*
X178920733Y-70372342D01*
X179056658Y-70423040D01*
X179116745Y-70429500D01*
X179549444Y-70429499D01*
X179616482Y-70449183D01*
X179662237Y-70501987D01*
X179672181Y-70571146D01*
X179643156Y-70634702D01*
X179637124Y-70641180D01*
X177670625Y-72607681D01*
X177609302Y-72641166D01*
X177582944Y-72644000D01*
X169482056Y-72644000D01*
X169415017Y-72624315D01*
X169369262Y-72571511D01*
X169359318Y-72502353D01*
X169388343Y-72438797D01*
X169394375Y-72432319D01*
X169867885Y-71958809D01*
X171461646Y-70365046D01*
X171522967Y-70331563D01*
X171592659Y-70336547D01*
X171595223Y-70337536D01*
X171682571Y-70372339D01*
X171760049Y-70403209D01*
X171943465Y-70433278D01*
X172129058Y-70423216D01*
X172129062Y-70423215D01*
X172308143Y-70373494D01*
X172308145Y-70373492D01*
X172308148Y-70373492D01*
X172472362Y-70286431D01*
X172614021Y-70166105D01*
X172726502Y-70018139D01*
X172804545Y-69849452D01*
X172844500Y-69667933D01*
X172844500Y-68978668D01*
X172829443Y-68840225D01*
X172770096Y-68664089D01*
X172770093Y-68664085D01*
X172770093Y-68664083D01*
X172725561Y-68590071D01*
X172674273Y-68504829D01*
X172607080Y-68433894D01*
X172546453Y-68369890D01*
X172392612Y-68265585D01*
X172392610Y-68265584D01*
X172219955Y-68196791D01*
X172098985Y-68176960D01*
X172036535Y-68166722D01*
X172036532Y-68166722D01*
X171850942Y-68176784D01*
X171850937Y-68176784D01*
X171671856Y-68226505D01*
X171671848Y-68226509D01*
X171507636Y-68313569D01*
X171365979Y-68433894D01*
X171253497Y-68581862D01*
X171253496Y-68581863D01*
X171175456Y-68750543D01*
X171175453Y-68750551D01*
X171135500Y-68932066D01*
X171135500Y-69566443D01*
X171115815Y-69633482D01*
X171099181Y-69654124D01*
X171056180Y-69697125D01*
X170994857Y-69730610D01*
X170925165Y-69725626D01*
X170869232Y-69683754D01*
X170844815Y-69618290D01*
X170844499Y-69609444D01*
X170844499Y-68626748D01*
X170844499Y-68626745D01*
X170838040Y-68566658D01*
X170814978Y-68504826D01*
X170787344Y-68430738D01*
X170787343Y-68430737D01*
X170787342Y-68430733D01*
X170728515Y-68352148D01*
X170700404Y-68314595D01*
X170623126Y-68256747D01*
X170584267Y-68227658D01*
X170448342Y-68176960D01*
X170448338Y-68176959D01*
X170388263Y-68170500D01*
X169591748Y-68170500D01*
X169591742Y-68170501D01*
X169531655Y-68176960D01*
X169395738Y-68227655D01*
X169395730Y-68227660D01*
X169279595Y-68314595D01*
X169192660Y-68430730D01*
X169192658Y-68430733D01*
X169141960Y-68566658D01*
X169141959Y-68566662D01*
X169135500Y-68626728D01*
X169135500Y-69973251D01*
X169135501Y-69973257D01*
X169141960Y-70033344D01*
X169192655Y-70169261D01*
X169192656Y-70169264D01*
X169192658Y-70169267D01*
X169211268Y-70194127D01*
X169279595Y-70285404D01*
X169307132Y-70306017D01*
X169395733Y-70372342D01*
X169531658Y-70423040D01*
X169591745Y-70429500D01*
X170024444Y-70429499D01*
X170091482Y-70449183D01*
X170137237Y-70501987D01*
X170147181Y-70571146D01*
X170118156Y-70634702D01*
X170112124Y-70641180D01*
X168779125Y-71974181D01*
X168717802Y-72007666D01*
X168691444Y-72010500D01*
X161977220Y-72010500D01*
X161951775Y-72007861D01*
X161940901Y-72005581D01*
X161940898Y-72005581D01*
X161909076Y-72009548D01*
X161893738Y-72010500D01*
X161893557Y-72010500D01*
X161880877Y-72012615D01*
X161872824Y-72013959D01*
X161867762Y-72014696D01*
X161815217Y-72021247D01*
X161807601Y-72023514D01*
X161800076Y-72026098D01*
X161753541Y-72051280D01*
X161748991Y-72053622D01*
X161701431Y-72076874D01*
X161694976Y-72081482D01*
X161688684Y-72086379D01*
X161652845Y-72125310D01*
X161649299Y-72129005D01*
X161170624Y-72607681D01*
X161109301Y-72641166D01*
X161082943Y-72644000D01*
X159967055Y-72644000D01*
X159900016Y-72624315D01*
X159854261Y-72571511D01*
X159844317Y-72502353D01*
X159873342Y-72438797D01*
X159879374Y-72432319D01*
X160787132Y-71524561D01*
X161943797Y-70367895D01*
X162005118Y-70334412D01*
X162074810Y-70339396D01*
X162077358Y-70340379D01*
X162235049Y-70403209D01*
X162418465Y-70433278D01*
X162604058Y-70423216D01*
X162604062Y-70423215D01*
X162783143Y-70373494D01*
X162783145Y-70373492D01*
X162783148Y-70373492D01*
X162947362Y-70286431D01*
X163089021Y-70166105D01*
X163201502Y-70018139D01*
X163279545Y-69849452D01*
X163319500Y-69667933D01*
X163319500Y-68978668D01*
X163304443Y-68840225D01*
X163245096Y-68664089D01*
X163245093Y-68664085D01*
X163245093Y-68664083D01*
X163200561Y-68590071D01*
X163149273Y-68504829D01*
X163082080Y-68433894D01*
X163021453Y-68369890D01*
X162867612Y-68265585D01*
X162867610Y-68265584D01*
X162694955Y-68196791D01*
X162573985Y-68176960D01*
X162511535Y-68166722D01*
X162511532Y-68166722D01*
X162325942Y-68176784D01*
X162325937Y-68176784D01*
X162146856Y-68226505D01*
X162146848Y-68226509D01*
X161982636Y-68313569D01*
X161840979Y-68433894D01*
X161728497Y-68581862D01*
X161728496Y-68581863D01*
X161650456Y-68750543D01*
X161650453Y-68750551D01*
X161610500Y-68932066D01*
X161610500Y-69576443D01*
X161590815Y-69643482D01*
X161574181Y-69664124D01*
X161531180Y-69707125D01*
X161469857Y-69740610D01*
X161400165Y-69735626D01*
X161344232Y-69693754D01*
X161319815Y-69628290D01*
X161319499Y-69619444D01*
X161319499Y-68626748D01*
X161319499Y-68626745D01*
X161313040Y-68566658D01*
X161289978Y-68504826D01*
X161262344Y-68430738D01*
X161262343Y-68430737D01*
X161262342Y-68430733D01*
X161203515Y-68352148D01*
X161175404Y-68314595D01*
X161098126Y-68256747D01*
X161059267Y-68227658D01*
X160923342Y-68176960D01*
X160923338Y-68176959D01*
X160863263Y-68170500D01*
X160066748Y-68170500D01*
X160066742Y-68170501D01*
X160006655Y-68176960D01*
X159870738Y-68227655D01*
X159870730Y-68227660D01*
X159754595Y-68314595D01*
X159667660Y-68430730D01*
X159667658Y-68430733D01*
X159616960Y-68566658D01*
X159616959Y-68566662D01*
X159610500Y-68626728D01*
X159610500Y-69973251D01*
X159610501Y-69973257D01*
X159616960Y-70033344D01*
X159667655Y-70169261D01*
X159667656Y-70169264D01*
X159667658Y-70169267D01*
X159686268Y-70194127D01*
X159754595Y-70285404D01*
X159782132Y-70306017D01*
X159870733Y-70372342D01*
X160006658Y-70423040D01*
X160066745Y-70429500D01*
X160509444Y-70429499D01*
X160576482Y-70449183D01*
X160622237Y-70501987D01*
X160632181Y-70571146D01*
X160603156Y-70634702D01*
X160597124Y-70641180D01*
X158630624Y-72607681D01*
X158569301Y-72641166D01*
X158542943Y-72644000D01*
X153443500Y-72644000D01*
X153376461Y-72624315D01*
X153330706Y-72571511D01*
X153319500Y-72520000D01*
X153319500Y-70415573D01*
X153339185Y-70348534D01*
X153385416Y-70306018D01*
X153422362Y-70286431D01*
X153564021Y-70166105D01*
X153676502Y-70018139D01*
X153754545Y-69849452D01*
X153794500Y-69667933D01*
X153794500Y-68978668D01*
X153779443Y-68840225D01*
X153720096Y-68664089D01*
X153720093Y-68664085D01*
X153720093Y-68664083D01*
X153675561Y-68590071D01*
X153624273Y-68504829D01*
X153557080Y-68433894D01*
X153496453Y-68369890D01*
X153342612Y-68265585D01*
X153342610Y-68265584D01*
X153169955Y-68196791D01*
X153048985Y-68176960D01*
X152986535Y-68166722D01*
X152986532Y-68166722D01*
X152800942Y-68176784D01*
X152800937Y-68176784D01*
X152621856Y-68226505D01*
X152621848Y-68226509D01*
X152457636Y-68313569D01*
X152315979Y-68433894D01*
X152203497Y-68581862D01*
X152203496Y-68581863D01*
X152125456Y-68750543D01*
X152125453Y-68750551D01*
X152085500Y-68932066D01*
X152085500Y-69621333D01*
X152100556Y-69759773D01*
X152100557Y-69759776D01*
X152159906Y-69935916D01*
X152255728Y-70095172D01*
X152255729Y-70095173D01*
X152383544Y-70230107D01*
X152410991Y-70248716D01*
X152506087Y-70313193D01*
X152550528Y-70367106D01*
X152560500Y-70415826D01*
X152560500Y-72520000D01*
X152540815Y-72587039D01*
X152488011Y-72632794D01*
X152436500Y-72644000D01*
X148797056Y-72644000D01*
X148730017Y-72624315D01*
X148709375Y-72607681D01*
X146370271Y-70268577D01*
X146354143Y-70248716D01*
X146348070Y-70239421D01*
X146348068Y-70239418D01*
X146322755Y-70219716D01*
X146311245Y-70209551D01*
X146311114Y-70209420D01*
X146293984Y-70197189D01*
X146289879Y-70194127D01*
X146248123Y-70161628D01*
X146248122Y-70161627D01*
X146248119Y-70161625D01*
X146248114Y-70161623D01*
X146241127Y-70157841D01*
X146233979Y-70154347D01*
X146183266Y-70139249D01*
X146178385Y-70137685D01*
X146128326Y-70120499D01*
X146120516Y-70119196D01*
X146112586Y-70118207D01*
X146059738Y-70120394D01*
X146054613Y-70120500D01*
X144823556Y-70120500D01*
X144756517Y-70100815D01*
X144735875Y-70084181D01*
X144624945Y-69973251D01*
X150085500Y-69973251D01*
X150085501Y-69973257D01*
X150091960Y-70033344D01*
X150142655Y-70169261D01*
X150142656Y-70169264D01*
X150142658Y-70169267D01*
X150161268Y-70194127D01*
X150229595Y-70285404D01*
X150257132Y-70306017D01*
X150345733Y-70372342D01*
X150481658Y-70423040D01*
X150541745Y-70429500D01*
X151338254Y-70429499D01*
X151398342Y-70423040D01*
X151534267Y-70372342D01*
X151650404Y-70285404D01*
X151737342Y-70169267D01*
X151788040Y-70033342D01*
X151790800Y-70007664D01*
X151794499Y-69973271D01*
X151794499Y-69973264D01*
X151794500Y-69973255D01*
X151794499Y-68626746D01*
X151788040Y-68566658D01*
X151764978Y-68504826D01*
X151737344Y-68430738D01*
X151737343Y-68430737D01*
X151737342Y-68430733D01*
X151678515Y-68352148D01*
X151650404Y-68314595D01*
X151573126Y-68256747D01*
X151534267Y-68227658D01*
X151398342Y-68176960D01*
X151398338Y-68176959D01*
X151338263Y-68170500D01*
X150541748Y-68170500D01*
X150541742Y-68170501D01*
X150481655Y-68176960D01*
X150345738Y-68227655D01*
X150345730Y-68227660D01*
X150229595Y-68314595D01*
X150142660Y-68430730D01*
X150142658Y-68430733D01*
X150091960Y-68566658D01*
X150091959Y-68566662D01*
X150085500Y-68626728D01*
X150085500Y-69973251D01*
X144624945Y-69973251D01*
X144305819Y-69654125D01*
X144272334Y-69592802D01*
X144269500Y-69566444D01*
X144269500Y-68978672D01*
X144269500Y-68978668D01*
X144254443Y-68840225D01*
X144195096Y-68664089D01*
X144195093Y-68664085D01*
X144195093Y-68664083D01*
X144150561Y-68590071D01*
X144099273Y-68504829D01*
X144032080Y-68433894D01*
X143971453Y-68369890D01*
X143817612Y-68265585D01*
X143817610Y-68265584D01*
X143644955Y-68196791D01*
X143523985Y-68176960D01*
X143461535Y-68166722D01*
X143461532Y-68166722D01*
X143275942Y-68176784D01*
X143275937Y-68176784D01*
X143096856Y-68226505D01*
X143096848Y-68226509D01*
X142932636Y-68313569D01*
X142790979Y-68433894D01*
X142678497Y-68581862D01*
X142678496Y-68581863D01*
X142600456Y-68750543D01*
X142600453Y-68750551D01*
X142560500Y-68932066D01*
X142560500Y-69621333D01*
X142575556Y-69759773D01*
X142575557Y-69759776D01*
X142634906Y-69935916D01*
X142730728Y-70095172D01*
X142730729Y-70095173D01*
X142858546Y-70230109D01*
X142958287Y-70297734D01*
X143012385Y-70334413D01*
X143012386Y-70334413D01*
X143012387Y-70334414D01*
X143012389Y-70334415D01*
X143185044Y-70403208D01*
X143185048Y-70403208D01*
X143185049Y-70403209D01*
X143368465Y-70433278D01*
X143554058Y-70423216D01*
X143554696Y-70423039D01*
X143733137Y-70373495D01*
X143733136Y-70373495D01*
X143733148Y-70373492D01*
X143795077Y-70340658D01*
X143863524Y-70326648D01*
X143928683Y-70351868D01*
X143940839Y-70362533D01*
X144309728Y-70731422D01*
X144325852Y-70751277D01*
X144331932Y-70760582D01*
X144357238Y-70780278D01*
X144368757Y-70790451D01*
X144368886Y-70790580D01*
X144386016Y-70802811D01*
X144390124Y-70805874D01*
X144421376Y-70830199D01*
X144431881Y-70838375D01*
X144431882Y-70838375D01*
X144438874Y-70842159D01*
X144446017Y-70845651D01*
X144446020Y-70845653D01*
X144496784Y-70860766D01*
X144501607Y-70862312D01*
X144509766Y-70865113D01*
X144551670Y-70879500D01*
X144559486Y-70880804D01*
X144567406Y-70881791D01*
X144567409Y-70881792D01*
X144567411Y-70881791D01*
X144567412Y-70881792D01*
X144620261Y-70879606D01*
X144625386Y-70879500D01*
X145856444Y-70879500D01*
X145923483Y-70899185D01*
X145944125Y-70915819D01*
X147460625Y-72432319D01*
X147494110Y-72493642D01*
X147489126Y-72563334D01*
X147447254Y-72619267D01*
X147381790Y-72643684D01*
X147372944Y-72644000D01*
X146111643Y-72644000D01*
X146098370Y-72643175D01*
X146081763Y-72643862D01*
X146081003Y-72643894D01*
X146075879Y-72644000D01*
X138137089Y-72644000D01*
X138123138Y-72645500D01*
X137633556Y-72645500D01*
X137566517Y-72625815D01*
X137545875Y-72609181D01*
X134909945Y-69973251D01*
X140560500Y-69973251D01*
X140560501Y-69973257D01*
X140566960Y-70033344D01*
X140617655Y-70169261D01*
X140617656Y-70169264D01*
X140617658Y-70169267D01*
X140636268Y-70194127D01*
X140704595Y-70285404D01*
X140732132Y-70306017D01*
X140820733Y-70372342D01*
X140956658Y-70423040D01*
X141016745Y-70429500D01*
X141813254Y-70429499D01*
X141873342Y-70423040D01*
X142009267Y-70372342D01*
X142125404Y-70285404D01*
X142212342Y-70169267D01*
X142263040Y-70033342D01*
X142265800Y-70007664D01*
X142269499Y-69973271D01*
X142269499Y-69973264D01*
X142269500Y-69973255D01*
X142269499Y-68626746D01*
X142263040Y-68566658D01*
X142239978Y-68504826D01*
X142212344Y-68430738D01*
X142212343Y-68430737D01*
X142212342Y-68430733D01*
X142153515Y-68352148D01*
X142125404Y-68314595D01*
X142048126Y-68256747D01*
X142009267Y-68227658D01*
X141873342Y-68176960D01*
X141873338Y-68176959D01*
X141813263Y-68170500D01*
X141016748Y-68170500D01*
X141016742Y-68170501D01*
X140956655Y-68176960D01*
X140820738Y-68227655D01*
X140820730Y-68227660D01*
X140704595Y-68314595D01*
X140617660Y-68430730D01*
X140617658Y-68430733D01*
X140566960Y-68566658D01*
X140566959Y-68566662D01*
X140560500Y-68626728D01*
X140560500Y-69973251D01*
X134909945Y-69973251D01*
X134590819Y-69654125D01*
X134557334Y-69592802D01*
X134554500Y-69566444D01*
X134554500Y-68978672D01*
X134554500Y-68978668D01*
X134539443Y-68840225D01*
X134480096Y-68664089D01*
X134480093Y-68664085D01*
X134480093Y-68664083D01*
X134435561Y-68590071D01*
X134384273Y-68504829D01*
X134317080Y-68433894D01*
X134256453Y-68369890D01*
X134102612Y-68265585D01*
X134102610Y-68265584D01*
X133929955Y-68196791D01*
X133808985Y-68176960D01*
X133746535Y-68166722D01*
X133746532Y-68166722D01*
X133560942Y-68176784D01*
X133560937Y-68176784D01*
X133381856Y-68226505D01*
X133381848Y-68226509D01*
X133217636Y-68313569D01*
X133075979Y-68433894D01*
X132963497Y-68581862D01*
X132963496Y-68581863D01*
X132885456Y-68750543D01*
X132885453Y-68750551D01*
X132845500Y-68932066D01*
X132845500Y-69621333D01*
X132860556Y-69759773D01*
X132860557Y-69759776D01*
X132919906Y-69935916D01*
X133015728Y-70095172D01*
X133015729Y-70095173D01*
X133143546Y-70230109D01*
X133243287Y-70297734D01*
X133297385Y-70334413D01*
X133297386Y-70334413D01*
X133297387Y-70334414D01*
X133297389Y-70334415D01*
X133470044Y-70403208D01*
X133470048Y-70403208D01*
X133470049Y-70403209D01*
X133653465Y-70433278D01*
X133839058Y-70423216D01*
X133839696Y-70423039D01*
X134018137Y-70373495D01*
X134018136Y-70373495D01*
X134018148Y-70373492D01*
X134080077Y-70340658D01*
X134148524Y-70326648D01*
X134213683Y-70351868D01*
X134225839Y-70362533D01*
X137119728Y-73256422D01*
X137135852Y-73276277D01*
X137141932Y-73285582D01*
X137141935Y-73285584D01*
X137167235Y-73305276D01*
X137178758Y-73315452D01*
X137178887Y-73315581D01*
X137178890Y-73315583D01*
X137178892Y-73315585D01*
X137196005Y-73327804D01*
X137200111Y-73330865D01*
X137241881Y-73363375D01*
X137241883Y-73363375D01*
X137248877Y-73367160D01*
X137256018Y-73370651D01*
X137256021Y-73370653D01*
X137306757Y-73385757D01*
X137311590Y-73387305D01*
X137361673Y-73404500D01*
X137361676Y-73404500D01*
X137369482Y-73405803D01*
X137377407Y-73406791D01*
X137377410Y-73406792D01*
X137377412Y-73406791D01*
X137377413Y-73406792D01*
X137420640Y-73405004D01*
X137430273Y-73404605D01*
X137435396Y-73404500D01*
X138052000Y-73404500D01*
X138119039Y-73424185D01*
X138164794Y-73476989D01*
X138176000Y-73528500D01*
X138176000Y-75696500D01*
X138156315Y-75763539D01*
X138103511Y-75809294D01*
X138052000Y-75820500D01*
X129909720Y-75820500D01*
X129884275Y-75817861D01*
X129873401Y-75815581D01*
X129873398Y-75815581D01*
X129841576Y-75819548D01*
X129826238Y-75820500D01*
X129826057Y-75820500D01*
X129813377Y-75822615D01*
X129805324Y-75823959D01*
X129800262Y-75824696D01*
X129747717Y-75831247D01*
X129740101Y-75833514D01*
X129732576Y-75836098D01*
X129686041Y-75861280D01*
X129681491Y-75863622D01*
X129633931Y-75886874D01*
X129627476Y-75891482D01*
X129621183Y-75896380D01*
X129612344Y-75905983D01*
X129552457Y-75941974D01*
X129521115Y-75946000D01*
X126492000Y-75946000D01*
X126492000Y-83696000D01*
X126472315Y-83763039D01*
X126419511Y-83808794D01*
X126368000Y-83820000D01*
X125268643Y-83820000D01*
X125238968Y-83816397D01*
X125174471Y-83800500D01*
X125015529Y-83800500D01*
X124951032Y-83816397D01*
X124921357Y-83820000D01*
X123998643Y-83820000D01*
X123968968Y-83816397D01*
X123904471Y-83800500D01*
X123745529Y-83800500D01*
X123681032Y-83816397D01*
X123651357Y-83820000D01*
X122728643Y-83820000D01*
X122698968Y-83816397D01*
X122634471Y-83800500D01*
X122475529Y-83800500D01*
X122411032Y-83816397D01*
X122381357Y-83820000D01*
X121458643Y-83820000D01*
X121428968Y-83816397D01*
X121364471Y-83800500D01*
X121205529Y-83800500D01*
X121141032Y-83816397D01*
X121111357Y-83820000D01*
X120188643Y-83820000D01*
X120158968Y-83816397D01*
X120094471Y-83800500D01*
X119935529Y-83800500D01*
X119871032Y-83816397D01*
X119841357Y-83820000D01*
X119250000Y-83820000D01*
X119182961Y-83800315D01*
X119137206Y-83747511D01*
X119126000Y-83696000D01*
X119126000Y-72768000D01*
X119145685Y-72700961D01*
X119198489Y-72655206D01*
X119250000Y-72644000D01*
X119891900Y-72644000D01*
X119958939Y-72663685D01*
X120004694Y-72716489D01*
X120006141Y-72723141D01*
X120015900Y-72732900D01*
X121362100Y-72732900D01*
X121376691Y-72718308D01*
X121381785Y-72700961D01*
X121434589Y-72655206D01*
X121486100Y-72644000D01*
X129286000Y-72644000D01*
X129286000Y-69973251D01*
X130845500Y-69973251D01*
X130845501Y-69973257D01*
X130851960Y-70033344D01*
X130902655Y-70169261D01*
X130902656Y-70169264D01*
X130902658Y-70169267D01*
X130921268Y-70194127D01*
X130989595Y-70285404D01*
X131017132Y-70306017D01*
X131105733Y-70372342D01*
X131241658Y-70423040D01*
X131301745Y-70429500D01*
X132098254Y-70429499D01*
X132158342Y-70423040D01*
X132294267Y-70372342D01*
X132410404Y-70285404D01*
X132497342Y-70169267D01*
X132548040Y-70033342D01*
X132550800Y-70007664D01*
X132554499Y-69973271D01*
X132554499Y-69973264D01*
X132554500Y-69973255D01*
X132554499Y-68626746D01*
X132548040Y-68566658D01*
X132524978Y-68504826D01*
X132497344Y-68430738D01*
X132497343Y-68430737D01*
X132497342Y-68430733D01*
X132438515Y-68352148D01*
X132410404Y-68314595D01*
X132333126Y-68256747D01*
X132294267Y-68227658D01*
X132158342Y-68176960D01*
X132158338Y-68176959D01*
X132098263Y-68170500D01*
X131301748Y-68170500D01*
X131301742Y-68170501D01*
X131241655Y-68176960D01*
X131105738Y-68227655D01*
X131105730Y-68227660D01*
X130989595Y-68314595D01*
X130902660Y-68430730D01*
X130902658Y-68430733D01*
X130851960Y-68566658D01*
X130851959Y-68566662D01*
X130845500Y-68626728D01*
X130845500Y-69973251D01*
X129286000Y-69973251D01*
X129286000Y-67180000D01*
X129305685Y-67112961D01*
X129358489Y-67067206D01*
X129410000Y-67056000D01*
X195456000Y-67056000D01*
X195523039Y-67075685D01*
G37*
%TD.AperFunction*%
%TD*%
%TA.AperFunction,Conductor*%
%TO.N,/SW1*%
G36*
X118809539Y-75965685D02*
G01*
X118855294Y-76018489D01*
X118866500Y-76070000D01*
X118866500Y-77051268D01*
X118846815Y-77118307D01*
X118794011Y-77164062D01*
X118724853Y-77174006D01*
X118661297Y-77144981D01*
X118643234Y-77125580D01*
X118626187Y-77102809D01*
X118511093Y-77016649D01*
X118511086Y-77016645D01*
X118376379Y-76966403D01*
X118376372Y-76966401D01*
X118316844Y-76960000D01*
X117569000Y-76960000D01*
X117569000Y-83060000D01*
X118316828Y-83060000D01*
X118316844Y-83059999D01*
X118376372Y-83053598D01*
X118376379Y-83053596D01*
X118511086Y-83003354D01*
X118511093Y-83003350D01*
X118626186Y-82917191D01*
X118643233Y-82894420D01*
X118699167Y-82852549D01*
X118768858Y-82847565D01*
X118830181Y-82881050D01*
X118863666Y-82942373D01*
X118866500Y-82968731D01*
X118866500Y-83676500D01*
X118846815Y-83743539D01*
X118794011Y-83789294D01*
X118742500Y-83800500D01*
X118665529Y-83800500D01*
X118601032Y-83816397D01*
X118571357Y-83820000D01*
X112397500Y-83820000D01*
X112330461Y-83800315D01*
X112284706Y-83747511D01*
X112273500Y-83696000D01*
X112273500Y-81971167D01*
X112293185Y-81904128D01*
X112326495Y-81875264D01*
X112323228Y-81873390D01*
X112469805Y-81873390D01*
X112478703Y-81877454D01*
X112516477Y-81936232D01*
X112520971Y-81959726D01*
X112533396Y-82093819D01*
X112593538Y-82305200D01*
X112593539Y-82305201D01*
X112691487Y-82501908D01*
X112691494Y-82501920D01*
X112705275Y-82520168D01*
X113276528Y-81948917D01*
X113278271Y-81972170D01*
X113325827Y-82093338D01*
X113406984Y-82195107D01*
X113514533Y-82268432D01*
X113628856Y-82303696D01*
X113060986Y-82871565D01*
X113060987Y-82871566D01*
X113173175Y-82941030D01*
X113173181Y-82941032D01*
X113378101Y-83020418D01*
X113594121Y-83060800D01*
X113813879Y-83060800D01*
X114029897Y-83020418D01*
X114029898Y-83020418D01*
X114234820Y-82941032D01*
X114234821Y-82941031D01*
X114347012Y-82871565D01*
X113776237Y-82300789D01*
X113832713Y-82292277D01*
X113949989Y-82235799D01*
X114045408Y-82147264D01*
X114110491Y-82034536D01*
X114130300Y-81947747D01*
X114702722Y-82520168D01*
X114702723Y-82520168D01*
X114716505Y-82501920D01*
X114716507Y-82501915D01*
X114814461Y-82305198D01*
X114874603Y-82093819D01*
X114894880Y-81875000D01*
X114894880Y-81874999D01*
X114874603Y-81656180D01*
X114814461Y-81444799D01*
X114814460Y-81444798D01*
X114716511Y-81248088D01*
X114716506Y-81248081D01*
X114702722Y-81229829D01*
X114131471Y-81801081D01*
X114129729Y-81777830D01*
X114082173Y-81656662D01*
X114001016Y-81554893D01*
X113893467Y-81481568D01*
X113779143Y-81446303D01*
X114347012Y-80878433D01*
X114347011Y-80878432D01*
X114234824Y-80808970D01*
X114234818Y-80808967D01*
X114029898Y-80729581D01*
X113813879Y-80689200D01*
X113594121Y-80689200D01*
X113378102Y-80729581D01*
X113378101Y-80729581D01*
X113173182Y-80808966D01*
X113060986Y-80878433D01*
X113631764Y-81449210D01*
X113575287Y-81457723D01*
X113458011Y-81514201D01*
X113362592Y-81602736D01*
X113297509Y-81715464D01*
X113277699Y-81802252D01*
X112705276Y-81229829D01*
X112691497Y-81248075D01*
X112691489Y-81248088D01*
X112593538Y-81444801D01*
X112533396Y-81656180D01*
X112520971Y-81790273D01*
X112495185Y-81855211D01*
X112469805Y-81873390D01*
X112323228Y-81873390D01*
X112307997Y-81864653D01*
X112275807Y-81802640D01*
X112273500Y-81778832D01*
X112273500Y-79678331D01*
X112293185Y-79611292D01*
X112299613Y-79602211D01*
X112536642Y-79297460D01*
X112593338Y-79256629D01*
X112663109Y-79252931D01*
X112723805Y-79287541D01*
X112756153Y-79349471D01*
X112758521Y-79373590D01*
X112758521Y-79374997D01*
X112779182Y-79571578D01*
X112779183Y-79571580D01*
X112840262Y-79759562D01*
X112939089Y-79930737D01*
X112939091Y-79930739D01*
X113071351Y-80077628D01*
X113231260Y-80193809D01*
X113411831Y-80274204D01*
X113605171Y-80315300D01*
X113802829Y-80315300D01*
X113996169Y-80274204D01*
X114028072Y-80260000D01*
X115869000Y-80260000D01*
X115869000Y-82607844D01*
X115875401Y-82667372D01*
X115875403Y-82667379D01*
X115925645Y-82802086D01*
X115925649Y-82802093D01*
X116011809Y-82917187D01*
X116011812Y-82917190D01*
X116126906Y-83003350D01*
X116126913Y-83003354D01*
X116261620Y-83053596D01*
X116261627Y-83053598D01*
X116321155Y-83059999D01*
X116321172Y-83060000D01*
X117069000Y-83060000D01*
X117069000Y-80260000D01*
X115869000Y-80260000D01*
X114028072Y-80260000D01*
X114176740Y-80193809D01*
X114336649Y-80077628D01*
X114468909Y-79930739D01*
X114567485Y-79760000D01*
X115869000Y-79760000D01*
X117069000Y-79760000D01*
X117069000Y-76960000D01*
X116321155Y-76960000D01*
X116261627Y-76966401D01*
X116261620Y-76966403D01*
X116126913Y-77016645D01*
X116126906Y-77016649D01*
X116011812Y-77102809D01*
X116011809Y-77102812D01*
X115925649Y-77217906D01*
X115925645Y-77217913D01*
X115875403Y-77352620D01*
X115875401Y-77352627D01*
X115869000Y-77412155D01*
X115869000Y-79760000D01*
X114567485Y-79760000D01*
X114567738Y-79759561D01*
X114628818Y-79571576D01*
X114649479Y-79375000D01*
X114628818Y-79178424D01*
X114567738Y-78990439D01*
X114468909Y-78819261D01*
X114336649Y-78672372D01*
X114176740Y-78556191D01*
X114176739Y-78556190D01*
X114176737Y-78556189D01*
X114157062Y-78547429D01*
X114103826Y-78502178D01*
X114083506Y-78435328D01*
X114083500Y-78434151D01*
X114083500Y-77062218D01*
X114086139Y-77036773D01*
X114087956Y-77028104D01*
X114088419Y-77025898D01*
X114084452Y-76994074D01*
X114083500Y-76978736D01*
X114083500Y-76978557D01*
X114081472Y-76966403D01*
X114080034Y-76957787D01*
X114079299Y-76952739D01*
X114077511Y-76938395D01*
X114072752Y-76900216D01*
X114072751Y-76900214D01*
X114072751Y-76900212D01*
X114070489Y-76892616D01*
X114067900Y-76885072D01*
X114067900Y-76885071D01*
X114042699Y-76838505D01*
X114040375Y-76833988D01*
X114017125Y-76786427D01*
X114012541Y-76780007D01*
X114007621Y-76773685D01*
X114007619Y-76773682D01*
X114002402Y-76768879D01*
X113998016Y-76764841D01*
X113962026Y-76704953D01*
X113958000Y-76673612D01*
X113958000Y-76454000D01*
X113955539Y-76454000D01*
X113888500Y-76434315D01*
X113852437Y-76398891D01*
X113837486Y-76376515D01*
X113779001Y-76337437D01*
X113753303Y-76320266D01*
X113753301Y-76320265D01*
X113753298Y-76320264D01*
X113679071Y-76305500D01*
X113378936Y-76305500D01*
X113303192Y-76320566D01*
X113254813Y-76320566D01*
X113221337Y-76313907D01*
X113179070Y-76305500D01*
X113179069Y-76305500D01*
X113167496Y-76305500D01*
X113132562Y-76300477D01*
X113111944Y-76294423D01*
X113098614Y-76290509D01*
X113098602Y-76290506D01*
X113068890Y-76286235D01*
X113005334Y-76257211D01*
X112967559Y-76198433D01*
X112967558Y-76128564D01*
X113005332Y-76069785D01*
X113068887Y-76040759D01*
X113086535Y-76039497D01*
X113104067Y-76039497D01*
X113178302Y-76024732D01*
X113185105Y-76020185D01*
X113251782Y-75999305D01*
X113319162Y-76017787D01*
X113322889Y-76020182D01*
X113329697Y-76024731D01*
X113329698Y-76024731D01*
X113329699Y-76024732D01*
X113329701Y-76024732D01*
X113329703Y-76024733D01*
X113349899Y-76028750D01*
X113403933Y-76039498D01*
X113626230Y-76039497D01*
X113626238Y-76039498D01*
X113640673Y-76039498D01*
X115051782Y-76039498D01*
X115077227Y-76042137D01*
X115081122Y-76042953D01*
X115088102Y-76044417D01*
X115119926Y-76040450D01*
X115135264Y-76039498D01*
X115135442Y-76039498D01*
X115135445Y-76039498D01*
X115156207Y-76036032D01*
X115161224Y-76035301D01*
X115213785Y-76028750D01*
X115221393Y-76026484D01*
X115228925Y-76023898D01*
X115228929Y-76023898D01*
X115275483Y-75998703D01*
X115279968Y-75996394D01*
X115327570Y-75973124D01*
X115327572Y-75973122D01*
X115333225Y-75969086D01*
X115399222Y-75946148D01*
X115405283Y-75946000D01*
X118742500Y-75946000D01*
X118809539Y-75965685D01*
G37*
%TD.AperFunction*%
%TD*%
%TA.AperFunction,Conductor*%
%TO.N,GND*%
G36*
X119035321Y-84010317D02*
G01*
X119109849Y-84049303D01*
X119109850Y-84049303D01*
X119109850Y-84049304D01*
X119154326Y-84062363D01*
X119176888Y-84068988D01*
X119176892Y-84068988D01*
X119176894Y-84068989D01*
X119188707Y-84070687D01*
X119250000Y-84079500D01*
X119250001Y-84079500D01*
X119841344Y-84079500D01*
X119841357Y-84079500D01*
X119872635Y-84077608D01*
X119902310Y-84074005D01*
X119933134Y-84068356D01*
X119947430Y-84064832D01*
X119952419Y-84063603D01*
X119982093Y-84060000D01*
X120047907Y-84060000D01*
X120077581Y-84063603D01*
X120084090Y-84065207D01*
X120096866Y-84068356D01*
X120127690Y-84074005D01*
X120151430Y-84076887D01*
X120157364Y-84077608D01*
X120162151Y-84077897D01*
X120188643Y-84079500D01*
X120188656Y-84079500D01*
X121111344Y-84079500D01*
X121111357Y-84079500D01*
X121142635Y-84077608D01*
X121172310Y-84074005D01*
X121203134Y-84068356D01*
X121217430Y-84064832D01*
X121222419Y-84063603D01*
X121252093Y-84060000D01*
X121317907Y-84060000D01*
X121347581Y-84063603D01*
X121354090Y-84065207D01*
X121366866Y-84068356D01*
X121397690Y-84074005D01*
X121421430Y-84076887D01*
X121427364Y-84077608D01*
X121432151Y-84077897D01*
X121458643Y-84079500D01*
X121458656Y-84079500D01*
X122381344Y-84079500D01*
X122381357Y-84079500D01*
X122412635Y-84077608D01*
X122442310Y-84074005D01*
X122473134Y-84068356D01*
X122487430Y-84064832D01*
X122492419Y-84063603D01*
X122522093Y-84060000D01*
X122587907Y-84060000D01*
X122617581Y-84063603D01*
X122624090Y-84065207D01*
X122636866Y-84068356D01*
X122667690Y-84074005D01*
X122691430Y-84076887D01*
X122697364Y-84077608D01*
X122702151Y-84077897D01*
X122728643Y-84079500D01*
X122728656Y-84079500D01*
X123651344Y-84079500D01*
X123651357Y-84079500D01*
X123682635Y-84077608D01*
X123712310Y-84074005D01*
X123743134Y-84068356D01*
X123757430Y-84064832D01*
X123762419Y-84063603D01*
X123792093Y-84060000D01*
X123857907Y-84060000D01*
X123887581Y-84063603D01*
X123894090Y-84065207D01*
X123906866Y-84068356D01*
X123937690Y-84074005D01*
X123961430Y-84076887D01*
X123967364Y-84077608D01*
X123972151Y-84077897D01*
X123998643Y-84079500D01*
X123998656Y-84079500D01*
X124921344Y-84079500D01*
X124921357Y-84079500D01*
X124952635Y-84077608D01*
X124982310Y-84074005D01*
X125013134Y-84068356D01*
X125027430Y-84064832D01*
X125032419Y-84063603D01*
X125062093Y-84060000D01*
X125127907Y-84060000D01*
X125157581Y-84063603D01*
X125164090Y-84065207D01*
X125176866Y-84068356D01*
X125207690Y-84074005D01*
X125231430Y-84076887D01*
X125237364Y-84077608D01*
X125242151Y-84077897D01*
X125268643Y-84079500D01*
X125268656Y-84079500D01*
X126368000Y-84079500D01*
X126435039Y-84099185D01*
X126480794Y-84151989D01*
X126492000Y-84203500D01*
X126492000Y-89913500D01*
X126472315Y-89980539D01*
X126419511Y-90026294D01*
X126368000Y-90037500D01*
X124884400Y-90037500D01*
X124817361Y-90017815D01*
X124771606Y-89965011D01*
X124761662Y-89895853D01*
X124790687Y-89832297D01*
X124819122Y-89808073D01*
X124849012Y-89789565D01*
X124278237Y-89218789D01*
X124334713Y-89210277D01*
X124451989Y-89153799D01*
X124547408Y-89065264D01*
X124612491Y-88952536D01*
X124632300Y-88865747D01*
X125204722Y-89438168D01*
X125204723Y-89438168D01*
X125218505Y-89419920D01*
X125218507Y-89419915D01*
X125316461Y-89223198D01*
X125376603Y-89011819D01*
X125396880Y-88793000D01*
X125396880Y-88792999D01*
X125376603Y-88574180D01*
X125316461Y-88362799D01*
X125316460Y-88362798D01*
X125218511Y-88166088D01*
X125218506Y-88166081D01*
X125204722Y-88147829D01*
X124633471Y-88719081D01*
X124631729Y-88695830D01*
X124584173Y-88574662D01*
X124503016Y-88472893D01*
X124395467Y-88399568D01*
X124281143Y-88364303D01*
X124849012Y-87796433D01*
X124849011Y-87796432D01*
X124736824Y-87726970D01*
X124736818Y-87726967D01*
X124531898Y-87647581D01*
X124315879Y-87607200D01*
X124096121Y-87607200D01*
X123880102Y-87647581D01*
X123880101Y-87647581D01*
X123675182Y-87726966D01*
X123562986Y-87796433D01*
X124133764Y-88367210D01*
X124077287Y-88375723D01*
X123960011Y-88432201D01*
X123864592Y-88520736D01*
X123799509Y-88633464D01*
X123779699Y-88720252D01*
X123207276Y-88147829D01*
X123193497Y-88166075D01*
X123193489Y-88166088D01*
X123095538Y-88362801D01*
X123035396Y-88574180D01*
X123015120Y-88792999D01*
X123015120Y-88793000D01*
X123035396Y-89011819D01*
X123095538Y-89223200D01*
X123095539Y-89223201D01*
X123193487Y-89419908D01*
X123193494Y-89419920D01*
X123207275Y-89438168D01*
X123778528Y-88866917D01*
X123780271Y-88890170D01*
X123827827Y-89011338D01*
X123908984Y-89113107D01*
X124016533Y-89186432D01*
X124130856Y-89221696D01*
X123562986Y-89789565D01*
X123562987Y-89789566D01*
X123592877Y-89808073D01*
X123639513Y-89860101D01*
X123650617Y-89929082D01*
X123622664Y-89993117D01*
X123564529Y-90031873D01*
X123527600Y-90037500D01*
X122449351Y-90037500D01*
X122382312Y-90017815D01*
X122336557Y-89965011D01*
X122326613Y-89895853D01*
X122333169Y-89870167D01*
X122375496Y-89756679D01*
X122375498Y-89756672D01*
X122381899Y-89697144D01*
X122381900Y-89697127D01*
X122381900Y-89365900D01*
X119934100Y-89365900D01*
X119934100Y-89697144D01*
X119940501Y-89756672D01*
X119940503Y-89756679D01*
X119990745Y-89891385D01*
X120000801Y-89904818D01*
X120025219Y-89970282D01*
X120010368Y-90038556D01*
X119964104Y-90086188D01*
X119915497Y-90114595D01*
X119915496Y-90114596D01*
X119888193Y-90138796D01*
X119824970Y-90168532D01*
X119805945Y-90170000D01*
X118322603Y-90170000D01*
X118255564Y-90150315D01*
X118209809Y-90097511D01*
X118199865Y-90028353D01*
X118228890Y-89964797D01*
X118264150Y-89936642D01*
X118317677Y-89908031D01*
X118317679Y-89908028D01*
X118317683Y-89908027D01*
X118478252Y-89776252D01*
X118610027Y-89615683D01*
X118683047Y-89479072D01*
X118707943Y-89432496D01*
X118707943Y-89432495D01*
X118707945Y-89432492D01*
X118768242Y-89233718D01*
X118788602Y-89027000D01*
X118772735Y-88865900D01*
X119934100Y-88865900D01*
X120908000Y-88865900D01*
X120908000Y-88082500D01*
X121408000Y-88082500D01*
X121408000Y-88865900D01*
X122381900Y-88865900D01*
X122381900Y-88534672D01*
X122381899Y-88534655D01*
X122375498Y-88475127D01*
X122375496Y-88475120D01*
X122325254Y-88340413D01*
X122325250Y-88340406D01*
X122239090Y-88225312D01*
X122239087Y-88225309D01*
X122123993Y-88139149D01*
X122123986Y-88139145D01*
X121989279Y-88088903D01*
X121989272Y-88088901D01*
X121929744Y-88082500D01*
X121408000Y-88082500D01*
X120908000Y-88082500D01*
X120386255Y-88082500D01*
X120326727Y-88088901D01*
X120326720Y-88088903D01*
X120192013Y-88139145D01*
X120192006Y-88139149D01*
X120076912Y-88225309D01*
X120076909Y-88225312D01*
X119990749Y-88340406D01*
X119990745Y-88340413D01*
X119940503Y-88475120D01*
X119940501Y-88475127D01*
X119934100Y-88534655D01*
X119934100Y-88865900D01*
X118772735Y-88865900D01*
X118768242Y-88820282D01*
X118707945Y-88621508D01*
X118707943Y-88621505D01*
X118707943Y-88621503D01*
X118610030Y-88438322D01*
X118610028Y-88438320D01*
X118610027Y-88438317D01*
X118558658Y-88375723D01*
X118478252Y-88277747D01*
X118342099Y-88166011D01*
X118317683Y-88145973D01*
X118317681Y-88145972D01*
X118317677Y-88145969D01*
X118134496Y-88048056D01*
X117935716Y-87987757D01*
X117729000Y-87967398D01*
X117522283Y-87987757D01*
X117323503Y-88048056D01*
X117140322Y-88145969D01*
X117140315Y-88145974D01*
X116979747Y-88277747D01*
X116847974Y-88438315D01*
X116847969Y-88438322D01*
X116750056Y-88621503D01*
X116689757Y-88820283D01*
X116669398Y-89027000D01*
X116689757Y-89233716D01*
X116689758Y-89233718D01*
X116737036Y-89389573D01*
X116737659Y-89459439D01*
X116706056Y-89513248D01*
X116333483Y-89885821D01*
X116272160Y-89919306D01*
X116202468Y-89914322D01*
X116158121Y-89885821D01*
X116133500Y-89861200D01*
X115063000Y-89861200D01*
X114995961Y-89841515D01*
X114950206Y-89788711D01*
X114939000Y-89737200D01*
X114939000Y-88628600D01*
X115439000Y-88628600D01*
X115439000Y-89361200D01*
X116133500Y-89361200D01*
X116133500Y-89080772D01*
X116133499Y-89080755D01*
X116127098Y-89021227D01*
X116127096Y-89021220D01*
X116076854Y-88886513D01*
X116076850Y-88886506D01*
X115990690Y-88771412D01*
X115990687Y-88771409D01*
X115875593Y-88685249D01*
X115875586Y-88685245D01*
X115740879Y-88635003D01*
X115740872Y-88635001D01*
X115681344Y-88628600D01*
X115439000Y-88628600D01*
X114939000Y-88628600D01*
X114733500Y-88628600D01*
X114666461Y-88608915D01*
X114620706Y-88556111D01*
X114609500Y-88504600D01*
X114609500Y-88433072D01*
X114609499Y-88433055D01*
X114603098Y-88373527D01*
X114603096Y-88373520D01*
X114552854Y-88238813D01*
X114552850Y-88238806D01*
X114466690Y-88123712D01*
X114466687Y-88123709D01*
X114351593Y-88037549D01*
X114351586Y-88037545D01*
X114216879Y-87987303D01*
X114216872Y-87987301D01*
X114157344Y-87980900D01*
X113915000Y-87980900D01*
X113915000Y-88911700D01*
X113895315Y-88978739D01*
X113842511Y-89024494D01*
X113791000Y-89035700D01*
X113539000Y-89035700D01*
X113471961Y-89016015D01*
X113426206Y-88963211D01*
X113415000Y-88911700D01*
X113415000Y-87980900D01*
X113172655Y-87980900D01*
X113113127Y-87987301D01*
X113113120Y-87987303D01*
X112978413Y-88037545D01*
X112978405Y-88037550D01*
X112977139Y-88038498D01*
X112975658Y-88039050D01*
X112970628Y-88041797D01*
X112970232Y-88041073D01*
X112911673Y-88062912D01*
X112843401Y-88048056D01*
X112793999Y-87998648D01*
X112779150Y-87930374D01*
X112780434Y-87922251D01*
X112780245Y-87922228D01*
X112800307Y-87757000D01*
X112800307Y-87756999D01*
X112781149Y-87599218D01*
X112779503Y-87594879D01*
X112724787Y-87450605D01*
X112634498Y-87319799D01*
X112634495Y-87319796D01*
X112634493Y-87319794D01*
X112515530Y-87214401D01*
X112374791Y-87140536D01*
X112220472Y-87102500D01*
X112220471Y-87102500D01*
X112061529Y-87102500D01*
X112061528Y-87102500D01*
X111907208Y-87140536D01*
X111766469Y-87214401D01*
X111647506Y-87319794D01*
X111647500Y-87319801D01*
X111557214Y-87450602D01*
X111500850Y-87599218D01*
X111481693Y-87756999D01*
X111481693Y-87757000D01*
X111500850Y-87914781D01*
X111557214Y-88063397D01*
X111614213Y-88145974D01*
X111647502Y-88194201D01*
X111647504Y-88194203D01*
X111647506Y-88194205D01*
X111703697Y-88243986D01*
X111740824Y-88303175D01*
X111740056Y-88373041D01*
X111714279Y-88415949D01*
X111714301Y-88415964D01*
X111714000Y-88416413D01*
X111709156Y-88424478D01*
X111707516Y-88426117D01*
X111651265Y-88510301D01*
X111651264Y-88510305D01*
X111636500Y-88584530D01*
X111636500Y-89290265D01*
X111651266Y-89364503D01*
X111655940Y-89375786D01*
X111654701Y-89376298D01*
X111671658Y-89430459D01*
X111653171Y-89497838D01*
X111601190Y-89544526D01*
X111532219Y-89555700D01*
X111531073Y-89555550D01*
X111413077Y-89539605D01*
X111379000Y-89535000D01*
X111378999Y-89535000D01*
X111453610Y-89728987D01*
X111459303Y-89798624D01*
X111426444Y-89860285D01*
X111365465Y-89894392D01*
X111337875Y-89897500D01*
X110645602Y-89897500D01*
X110578563Y-89877815D01*
X110540608Y-89839472D01*
X110520879Y-89808073D01*
X110494887Y-89766707D01*
X110365293Y-89637113D01*
X110210110Y-89539606D01*
X110210109Y-89539605D01*
X110210108Y-89539605D01*
X110210106Y-89539604D01*
X110037115Y-89479072D01*
X109855004Y-89458554D01*
X109854996Y-89458554D01*
X109672884Y-89479072D01*
X109499893Y-89539604D01*
X109499891Y-89539605D01*
X109344706Y-89637113D01*
X109215113Y-89766706D01*
X109117605Y-89921891D01*
X109117604Y-89921893D01*
X109057072Y-90094884D01*
X109036554Y-90276996D01*
X109036554Y-90277003D01*
X109057072Y-90459115D01*
X109117604Y-90632106D01*
X109117605Y-90632108D01*
X109117606Y-90632110D01*
X109215113Y-90787293D01*
X109344707Y-90916887D01*
X109499890Y-91014394D01*
X109672879Y-91074926D01*
X109672882Y-91074926D01*
X109672884Y-91074927D01*
X109854996Y-91095446D01*
X109855000Y-91095446D01*
X109855004Y-91095446D01*
X110037115Y-91074927D01*
X110037116Y-91074926D01*
X110037121Y-91074926D01*
X110210110Y-91014394D01*
X110365293Y-90916887D01*
X110494887Y-90787293D01*
X110540608Y-90714528D01*
X110592943Y-90668237D01*
X110645602Y-90656500D01*
X111725183Y-90656500D01*
X111792222Y-90676185D01*
X111837977Y-90728989D01*
X111840918Y-90735987D01*
X111941687Y-90997987D01*
X111947380Y-91067624D01*
X111914521Y-91129285D01*
X111853541Y-91163392D01*
X111825952Y-91166500D01*
X111680528Y-91166500D01*
X111526208Y-91204536D01*
X111385469Y-91278401D01*
X111266506Y-91383794D01*
X111266500Y-91383801D01*
X111176214Y-91514602D01*
X111119850Y-91663218D01*
X111100693Y-91820999D01*
X111100693Y-91821000D01*
X111119850Y-91978781D01*
X111128570Y-92001772D01*
X111176213Y-92127395D01*
X111266502Y-92258201D01*
X111266504Y-92258203D01*
X111266506Y-92258205D01*
X111385469Y-92363598D01*
X111385471Y-92363599D01*
X111526207Y-92437463D01*
X111540797Y-92441059D01*
X111680528Y-92475500D01*
X111680529Y-92475500D01*
X111839470Y-92475500D01*
X111839471Y-92475500D01*
X111991654Y-92437990D01*
X112061455Y-92441059D01*
X112109009Y-92470706D01*
X112487181Y-92848878D01*
X112520666Y-92910201D01*
X112523500Y-92936558D01*
X112523500Y-93032067D01*
X112538266Y-93106305D01*
X112594515Y-93190488D01*
X112624545Y-93210553D01*
X112678699Y-93246738D01*
X112678702Y-93246738D01*
X112678703Y-93246739D01*
X112697270Y-93250432D01*
X112752933Y-93261504D01*
X113053066Y-93261503D01*
X113127301Y-93246738D01*
X113127302Y-93246736D01*
X113128810Y-93246437D01*
X113177191Y-93246438D01*
X113212727Y-93253506D01*
X113252935Y-93261504D01*
X113413118Y-93261503D01*
X113480157Y-93281187D01*
X113525912Y-93333991D01*
X113537116Y-93386151D01*
X113537022Y-93404149D01*
X113516988Y-93471084D01*
X113463946Y-93516563D01*
X113413024Y-93527501D01*
X113027934Y-93527501D01*
X112953696Y-93542267D01*
X112869513Y-93598516D01*
X112813264Y-93682700D01*
X112813262Y-93682704D01*
X112798498Y-93756929D01*
X112798498Y-93856000D01*
X112778813Y-93923039D01*
X112726009Y-93968794D01*
X112674498Y-93980000D01*
X110067900Y-93980000D01*
X110000861Y-93960315D01*
X109955106Y-93907511D01*
X109943900Y-93856000D01*
X109943900Y-93230387D01*
X109963585Y-93163348D01*
X110016389Y-93117593D01*
X110054644Y-93107098D01*
X110102072Y-93101998D01*
X110102079Y-93101996D01*
X110236786Y-93051754D01*
X110236793Y-93051750D01*
X110351887Y-92965590D01*
X110351890Y-92965587D01*
X110438050Y-92850493D01*
X110438054Y-92850486D01*
X110488296Y-92715779D01*
X110488298Y-92715772D01*
X110494699Y-92656244D01*
X110494700Y-92656227D01*
X110494700Y-92579000D01*
X107691300Y-92579000D01*
X107691300Y-92656244D01*
X107697701Y-92715772D01*
X107697703Y-92715779D01*
X107747945Y-92850486D01*
X107747949Y-92850493D01*
X107834109Y-92965587D01*
X107834112Y-92965590D01*
X107949206Y-93051750D01*
X107949213Y-93051754D01*
X108083920Y-93101996D01*
X108083927Y-93101998D01*
X108131356Y-93107098D01*
X108195907Y-93133836D01*
X108235755Y-93191229D01*
X108242100Y-93230387D01*
X108242100Y-93856000D01*
X108222415Y-93923039D01*
X108169611Y-93968794D01*
X108118100Y-93980000D01*
X106812562Y-93980000D01*
X106745523Y-93960315D01*
X106699768Y-93907511D01*
X106691865Y-93857418D01*
X106117237Y-93282789D01*
X106173713Y-93274277D01*
X106290989Y-93217799D01*
X106386408Y-93129264D01*
X106451491Y-93016536D01*
X106471300Y-92929747D01*
X107043722Y-93502168D01*
X107043723Y-93502168D01*
X107057505Y-93483920D01*
X107057507Y-93483915D01*
X107155461Y-93287198D01*
X107215603Y-93075819D01*
X107235880Y-92857000D01*
X107235880Y-92856999D01*
X107215603Y-92638180D01*
X107155461Y-92426799D01*
X107155460Y-92426798D01*
X107057511Y-92230088D01*
X107057506Y-92230081D01*
X107043722Y-92211829D01*
X106472471Y-92783081D01*
X106470729Y-92759830D01*
X106423173Y-92638662D01*
X106342016Y-92536893D01*
X106234467Y-92463568D01*
X106120143Y-92428303D01*
X106469445Y-92079000D01*
X107691300Y-92079000D01*
X108843000Y-92079000D01*
X108843000Y-91549600D01*
X109343000Y-91549600D01*
X109343000Y-92079000D01*
X110494700Y-92079000D01*
X110494700Y-92001772D01*
X110494699Y-92001755D01*
X110488298Y-91942227D01*
X110488296Y-91942220D01*
X110438054Y-91807513D01*
X110438050Y-91807506D01*
X110351890Y-91692412D01*
X110351887Y-91692409D01*
X110236793Y-91606249D01*
X110236786Y-91606245D01*
X110102079Y-91556003D01*
X110102072Y-91556001D01*
X110042544Y-91549600D01*
X109343000Y-91549600D01*
X108843000Y-91549600D01*
X108143455Y-91549600D01*
X108083927Y-91556001D01*
X108083920Y-91556003D01*
X107949213Y-91606245D01*
X107949206Y-91606249D01*
X107834112Y-91692409D01*
X107834109Y-91692412D01*
X107747949Y-91807506D01*
X107747945Y-91807513D01*
X107697703Y-91942220D01*
X107697701Y-91942227D01*
X107691300Y-92001755D01*
X107691300Y-92079000D01*
X106469445Y-92079000D01*
X106688012Y-91860433D01*
X106688011Y-91860432D01*
X106575824Y-91790970D01*
X106575818Y-91790967D01*
X106370898Y-91711581D01*
X106154879Y-91671200D01*
X105935121Y-91671200D01*
X105719102Y-91711581D01*
X105719101Y-91711581D01*
X105514182Y-91790966D01*
X105401986Y-91860433D01*
X105972764Y-92431210D01*
X105916287Y-92439723D01*
X105799011Y-92496201D01*
X105703592Y-92584736D01*
X105638509Y-92697464D01*
X105618699Y-92784252D01*
X105046276Y-92211829D01*
X105032497Y-92230075D01*
X105032489Y-92230088D01*
X104934538Y-92426801D01*
X104874396Y-92638180D01*
X104854120Y-92856999D01*
X104854120Y-92857000D01*
X104874396Y-93075819D01*
X104934538Y-93287200D01*
X104934539Y-93287201D01*
X105032487Y-93483908D01*
X105032494Y-93483920D01*
X105046275Y-93502168D01*
X105617528Y-92930917D01*
X105619271Y-92954170D01*
X105666827Y-93075338D01*
X105747984Y-93177107D01*
X105855533Y-93250432D01*
X105969856Y-93285696D01*
X105397867Y-93857684D01*
X105388783Y-93910572D01*
X105341603Y-93962107D01*
X105277437Y-93980000D01*
X103756000Y-93980000D01*
X103688961Y-93960315D01*
X103643206Y-93907511D01*
X103632000Y-93856000D01*
X103632000Y-87777003D01*
X109036554Y-87777003D01*
X109057072Y-87959115D01*
X109117604Y-88132106D01*
X109117605Y-88132108D01*
X109117606Y-88132110D01*
X109215113Y-88287293D01*
X109344707Y-88416887D01*
X109499890Y-88514394D01*
X109672879Y-88574926D01*
X109672882Y-88574926D01*
X109672884Y-88574927D01*
X109854996Y-88595446D01*
X109855000Y-88595446D01*
X109855004Y-88595446D01*
X110037115Y-88574927D01*
X110037116Y-88574926D01*
X110037121Y-88574926D01*
X110210110Y-88514394D01*
X110365293Y-88416887D01*
X110494887Y-88287293D01*
X110592394Y-88132110D01*
X110652926Y-87959121D01*
X110656165Y-87930374D01*
X110673446Y-87777003D01*
X110673446Y-87776996D01*
X110652927Y-87594884D01*
X110652926Y-87594882D01*
X110652926Y-87594879D01*
X110592394Y-87421890D01*
X110494887Y-87266707D01*
X110365293Y-87137113D01*
X110292528Y-87091392D01*
X110246237Y-87039057D01*
X110234500Y-86986398D01*
X110234500Y-86954002D01*
X110254185Y-86886963D01*
X110276273Y-86861187D01*
X110348493Y-86797205D01*
X110348498Y-86797201D01*
X110438787Y-86666395D01*
X110495149Y-86517782D01*
X110514307Y-86360000D01*
X110495149Y-86202218D01*
X110438787Y-86053605D01*
X110348498Y-85922799D01*
X110348495Y-85922796D01*
X110348493Y-85922794D01*
X110229530Y-85817401D01*
X110088791Y-85743536D01*
X109934472Y-85705500D01*
X109934471Y-85705500D01*
X109775529Y-85705500D01*
X109775528Y-85705500D01*
X109621208Y-85743536D01*
X109480469Y-85817401D01*
X109361506Y-85922794D01*
X109361500Y-85922801D01*
X109271214Y-86053602D01*
X109214850Y-86202218D01*
X109195693Y-86359999D01*
X109195693Y-86360000D01*
X109214850Y-86517781D01*
X109271214Y-86666397D01*
X109347343Y-86776689D01*
X109361502Y-86797201D01*
X109361504Y-86797203D01*
X109361506Y-86797205D01*
X109433727Y-86861187D01*
X109470854Y-86920376D01*
X109475500Y-86954002D01*
X109475500Y-86986398D01*
X109455815Y-87053437D01*
X109417472Y-87091392D01*
X109344706Y-87137113D01*
X109215113Y-87266706D01*
X109117605Y-87421891D01*
X109117604Y-87421893D01*
X109057072Y-87594884D01*
X109036554Y-87776996D01*
X109036554Y-87777003D01*
X103632000Y-87777003D01*
X103632000Y-84203500D01*
X103651685Y-84136461D01*
X103704489Y-84090706D01*
X103756000Y-84079500D01*
X104601344Y-84079500D01*
X104601357Y-84079500D01*
X104632635Y-84077608D01*
X104662310Y-84074005D01*
X104693134Y-84068356D01*
X104707430Y-84064832D01*
X104712419Y-84063603D01*
X104742093Y-84060000D01*
X104807907Y-84060000D01*
X104837581Y-84063603D01*
X104844090Y-84065207D01*
X104856866Y-84068356D01*
X104887690Y-84074005D01*
X104911430Y-84076887D01*
X104917364Y-84077608D01*
X104922151Y-84077897D01*
X104948643Y-84079500D01*
X104948656Y-84079500D01*
X105871344Y-84079500D01*
X105871357Y-84079500D01*
X105902635Y-84077608D01*
X105932310Y-84074005D01*
X105963134Y-84068356D01*
X105977430Y-84064832D01*
X105982419Y-84063603D01*
X106012093Y-84060000D01*
X106077907Y-84060000D01*
X106107581Y-84063603D01*
X106114090Y-84065207D01*
X106126866Y-84068356D01*
X106157690Y-84074005D01*
X106181430Y-84076887D01*
X106187364Y-84077608D01*
X106192151Y-84077897D01*
X106218643Y-84079500D01*
X106218656Y-84079500D01*
X107141344Y-84079500D01*
X107141357Y-84079500D01*
X107172635Y-84077608D01*
X107202310Y-84074005D01*
X107233134Y-84068356D01*
X107247430Y-84064832D01*
X107252419Y-84063603D01*
X107282093Y-84060000D01*
X107347907Y-84060000D01*
X107377581Y-84063603D01*
X107384090Y-84065207D01*
X107396866Y-84068356D01*
X107427690Y-84074005D01*
X107451430Y-84076887D01*
X107457364Y-84077608D01*
X107462151Y-84077897D01*
X107488643Y-84079500D01*
X107488656Y-84079500D01*
X111889991Y-84079500D01*
X111890000Y-84079500D01*
X111945163Y-84073569D01*
X111996674Y-84062363D01*
X112023461Y-84055014D01*
X112033489Y-84049304D01*
X112057707Y-84035513D01*
X112081834Y-84021773D01*
X112149831Y-84005706D01*
X112200668Y-84019652D01*
X112245038Y-84042863D01*
X112257351Y-84049304D01*
X112257350Y-84049304D01*
X112301826Y-84062363D01*
X112324388Y-84068988D01*
X112324392Y-84068988D01*
X112324394Y-84068989D01*
X112336207Y-84070687D01*
X112397500Y-84079500D01*
X112397501Y-84079500D01*
X118571344Y-84079500D01*
X118571357Y-84079500D01*
X118602635Y-84077608D01*
X118632310Y-84074005D01*
X118663134Y-84068356D01*
X118677430Y-84064832D01*
X118682419Y-84063603D01*
X118712093Y-84060000D01*
X118742491Y-84060000D01*
X118742500Y-84060000D01*
X118797663Y-84054069D01*
X118849174Y-84042863D01*
X118875961Y-84035514D01*
X118916485Y-84012437D01*
X118984482Y-83996370D01*
X119035321Y-84010317D01*
G37*
%TD.AperFunction*%
%TD*%
%TA.AperFunction,Conductor*%
%TO.N,/Vin*%
G36*
X112571409Y-76519698D02*
G01*
X112579575Y-76524681D01*
X112579699Y-76524733D01*
X112629073Y-76534553D01*
X112653932Y-76539498D01*
X113025502Y-76539497D01*
X113092541Y-76559181D01*
X113138296Y-76611985D01*
X113149502Y-76663497D01*
X113149502Y-76782779D01*
X113146863Y-76808226D01*
X113144582Y-76819100D01*
X113148550Y-76850926D01*
X113149502Y-76866264D01*
X113149502Y-77135063D01*
X113164268Y-77209301D01*
X113190693Y-77248849D01*
X113211570Y-77315527D01*
X113211162Y-77328036D01*
X113166475Y-77864297D01*
X113141291Y-77929471D01*
X113084870Y-77970682D01*
X113042903Y-77978000D01*
X112014000Y-77978000D01*
X112014000Y-83696000D01*
X111994315Y-83763039D01*
X111941511Y-83808794D01*
X111890000Y-83820000D01*
X107488643Y-83820000D01*
X107458968Y-83816397D01*
X107394471Y-83800500D01*
X107235529Y-83800500D01*
X107171032Y-83816397D01*
X107141357Y-83820000D01*
X106218643Y-83820000D01*
X106188968Y-83816397D01*
X106124471Y-83800500D01*
X105965529Y-83800500D01*
X105901032Y-83816397D01*
X105871357Y-83820000D01*
X104948643Y-83820000D01*
X104918968Y-83816397D01*
X104854471Y-83800500D01*
X104695529Y-83800500D01*
X104631032Y-83816397D01*
X104601357Y-83820000D01*
X99568000Y-83820000D01*
X99568000Y-81485807D01*
X99587685Y-81418768D01*
X99604319Y-81398126D01*
X100346866Y-80655579D01*
X100369318Y-80732040D01*
X100448605Y-80855413D01*
X100559438Y-80951451D01*
X100692839Y-81012373D01*
X100696634Y-81012918D01*
X99959145Y-81750406D01*
X100150355Y-81867580D01*
X100150358Y-81867582D01*
X100369944Y-81958537D01*
X100601057Y-82014021D01*
X100601056Y-82014021D01*
X100838000Y-82032668D01*
X101074943Y-82014021D01*
X101306055Y-81958537D01*
X101525641Y-81867582D01*
X101525644Y-81867580D01*
X101716853Y-81750406D01*
X100979366Y-81012918D01*
X100983161Y-81012373D01*
X101116562Y-80951451D01*
X101227395Y-80855413D01*
X101306682Y-80732040D01*
X101329133Y-80655580D01*
X102070406Y-81396853D01*
X102187580Y-81205644D01*
X102187582Y-81205641D01*
X102278537Y-80986055D01*
X102334021Y-80754943D01*
X102352668Y-80518000D01*
X102334021Y-80281056D01*
X102278537Y-80049944D01*
X102187582Y-79830358D01*
X102187580Y-79830355D01*
X102070406Y-79639145D01*
X101329132Y-80380418D01*
X101306682Y-80303960D01*
X101227395Y-80180587D01*
X101116562Y-80084549D01*
X100983161Y-80023627D01*
X100979365Y-80023081D01*
X101716853Y-79285592D01*
X101525644Y-79168419D01*
X101525641Y-79168417D01*
X101306055Y-79077462D01*
X101074942Y-79021978D01*
X101074943Y-79021978D01*
X100838000Y-79003331D01*
X100601056Y-79021978D01*
X100369944Y-79077462D01*
X100150366Y-79168414D01*
X100150357Y-79168419D01*
X99959145Y-79285592D01*
X100696635Y-80023081D01*
X100692839Y-80023627D01*
X100559438Y-80084549D01*
X100448605Y-80180587D01*
X100369318Y-80303960D01*
X100346866Y-80380419D01*
X99604319Y-79637872D01*
X99570834Y-79576549D01*
X99568000Y-79550191D01*
X99568000Y-77082820D01*
X99587685Y-77015781D01*
X99640489Y-76970026D01*
X99688775Y-76958862D01*
X104127486Y-76843571D01*
X104195012Y-76861508D01*
X104242123Y-76913106D01*
X104253859Y-76981983D01*
X104226494Y-77046271D01*
X104195982Y-77072956D01*
X104170987Y-77088432D01*
X104170986Y-77088433D01*
X104741764Y-77659210D01*
X104685287Y-77667723D01*
X104568011Y-77724201D01*
X104472592Y-77812736D01*
X104407509Y-77925464D01*
X104387699Y-78012252D01*
X103815276Y-77439829D01*
X103801497Y-77458075D01*
X103801489Y-77458088D01*
X103703538Y-77654801D01*
X103643396Y-77866180D01*
X103623120Y-78084999D01*
X103623120Y-78085000D01*
X103643396Y-78303819D01*
X103703538Y-78515200D01*
X103703539Y-78515201D01*
X103801487Y-78711908D01*
X103801494Y-78711920D01*
X103815275Y-78730168D01*
X104386528Y-78158917D01*
X104388271Y-78182170D01*
X104435827Y-78303338D01*
X104516984Y-78405107D01*
X104624533Y-78478432D01*
X104738856Y-78513696D01*
X104170986Y-79081565D01*
X104170987Y-79081566D01*
X104283175Y-79151030D01*
X104283181Y-79151032D01*
X104488101Y-79230418D01*
X104704121Y-79270800D01*
X104923879Y-79270800D01*
X105139897Y-79230418D01*
X105139898Y-79230418D01*
X105344820Y-79151032D01*
X105344821Y-79151031D01*
X105457012Y-79081565D01*
X105365447Y-78990000D01*
X106587300Y-78990000D01*
X106587300Y-79067244D01*
X106593701Y-79126772D01*
X106593703Y-79126779D01*
X106643945Y-79261486D01*
X106643949Y-79261493D01*
X106730109Y-79376587D01*
X106730112Y-79376590D01*
X106845206Y-79462750D01*
X106845213Y-79462754D01*
X106979920Y-79512996D01*
X106979927Y-79512998D01*
X107039455Y-79519399D01*
X107039472Y-79519400D01*
X107739000Y-79519400D01*
X107739000Y-78990000D01*
X108239000Y-78990000D01*
X108239000Y-79519400D01*
X108938528Y-79519400D01*
X108938544Y-79519399D01*
X108998072Y-79512998D01*
X108998079Y-79512996D01*
X109132786Y-79462754D01*
X109132793Y-79462750D01*
X109247887Y-79376590D01*
X109247890Y-79376587D01*
X109334050Y-79261493D01*
X109334054Y-79261486D01*
X109384296Y-79126779D01*
X109384298Y-79126772D01*
X109390699Y-79067244D01*
X109390700Y-79067227D01*
X109390700Y-78990000D01*
X108239000Y-78990000D01*
X107739000Y-78990000D01*
X106587300Y-78990000D01*
X105365447Y-78990000D01*
X104886237Y-78510789D01*
X104942713Y-78502277D01*
X105059989Y-78445799D01*
X105155408Y-78357264D01*
X105220491Y-78244536D01*
X105240300Y-78157747D01*
X105812722Y-78730168D01*
X105812723Y-78730168D01*
X105826505Y-78711920D01*
X105826507Y-78711915D01*
X105924461Y-78515198D01*
X105984603Y-78303819D01*
X106004880Y-78085000D01*
X106004880Y-78084999D01*
X105984603Y-77866180D01*
X105924461Y-77654799D01*
X105924460Y-77654798D01*
X105826511Y-77458088D01*
X105826506Y-77458081D01*
X105812722Y-77439829D01*
X105241471Y-78011081D01*
X105239729Y-77987830D01*
X105192173Y-77866662D01*
X105111016Y-77764893D01*
X105003467Y-77691568D01*
X104889143Y-77656303D01*
X105457012Y-77088433D01*
X105457011Y-77088432D01*
X105376997Y-77038890D01*
X105330361Y-76986863D01*
X105319257Y-76917881D01*
X105347210Y-76853847D01*
X105405344Y-76815090D01*
X105439053Y-76809505D01*
X107010881Y-76768678D01*
X107078408Y-76786615D01*
X107125519Y-76838213D01*
X107138100Y-76892636D01*
X107138100Y-77838612D01*
X107118415Y-77905651D01*
X107065611Y-77951406D01*
X107027358Y-77961901D01*
X106979926Y-77967001D01*
X106979920Y-77967003D01*
X106845213Y-78017245D01*
X106845206Y-78017249D01*
X106730112Y-78103409D01*
X106730109Y-78103412D01*
X106643949Y-78218506D01*
X106643945Y-78218513D01*
X106593703Y-78353220D01*
X106593701Y-78353227D01*
X106587300Y-78412755D01*
X106587300Y-78490000D01*
X109390700Y-78490000D01*
X109390700Y-78412772D01*
X109390699Y-78412755D01*
X109384298Y-78353227D01*
X109384296Y-78353220D01*
X109334054Y-78218513D01*
X109334050Y-78218506D01*
X109247890Y-78103412D01*
X109247887Y-78103409D01*
X109132793Y-78017249D01*
X109132786Y-78017245D01*
X108998079Y-77967003D01*
X108998073Y-77967001D01*
X108950642Y-77961901D01*
X108886091Y-77935161D01*
X108846245Y-77877768D01*
X108839900Y-77838612D01*
X108839900Y-76841991D01*
X108859585Y-76774952D01*
X108912389Y-76729197D01*
X108960674Y-76718034D01*
X109347000Y-76708000D01*
X112503247Y-76504371D01*
X112571409Y-76519698D01*
G37*
%TD.AperFunction*%
%TD*%
%TA.AperFunction,Conductor*%
%TO.N,/SW2*%
G36*
X119324992Y-93618685D02*
G01*
X119370747Y-93671489D01*
X119381937Y-93721032D01*
X119500984Y-101221000D01*
X119505001Y-101474032D01*
X119486383Y-101541375D01*
X119434312Y-101587963D01*
X119381017Y-101600000D01*
X113154000Y-101600000D01*
X113086961Y-101580315D01*
X113041206Y-101527511D01*
X113030000Y-101476000D01*
X113030000Y-99681060D01*
X113049685Y-99614021D01*
X113102489Y-99568266D01*
X113162585Y-99557358D01*
X113174275Y-99558169D01*
X113745528Y-98986917D01*
X113747271Y-99010170D01*
X113794827Y-99131338D01*
X113875984Y-99233107D01*
X113983533Y-99306432D01*
X114097856Y-99341696D01*
X113529986Y-99909565D01*
X113529987Y-99909566D01*
X113642175Y-99979030D01*
X113642181Y-99979032D01*
X113847101Y-100058418D01*
X114063121Y-100098800D01*
X114282879Y-100098800D01*
X114498897Y-100058418D01*
X114498898Y-100058418D01*
X114703820Y-99979032D01*
X114703821Y-99979031D01*
X114816012Y-99909565D01*
X114245237Y-99338789D01*
X114301713Y-99330277D01*
X114418989Y-99273799D01*
X114514408Y-99185264D01*
X114579491Y-99072536D01*
X114599300Y-98985747D01*
X115171722Y-99558168D01*
X115171723Y-99558168D01*
X115185505Y-99539920D01*
X115185507Y-99539915D01*
X115283461Y-99343198D01*
X115343603Y-99131819D01*
X115363880Y-98913000D01*
X115363880Y-98912999D01*
X115343603Y-98694180D01*
X115283461Y-98482799D01*
X115283460Y-98482798D01*
X115252689Y-98421000D01*
X116211000Y-98421000D01*
X116211000Y-100768844D01*
X116217401Y-100828372D01*
X116217403Y-100828379D01*
X116267645Y-100963086D01*
X116267649Y-100963093D01*
X116353809Y-101078187D01*
X116353812Y-101078190D01*
X116468906Y-101164350D01*
X116468913Y-101164354D01*
X116603620Y-101214596D01*
X116603627Y-101214598D01*
X116663155Y-101220999D01*
X116663172Y-101221000D01*
X117411000Y-101221000D01*
X117411000Y-98421000D01*
X117911000Y-98421000D01*
X117911000Y-101221000D01*
X118658828Y-101221000D01*
X118658844Y-101220999D01*
X118718372Y-101214598D01*
X118718379Y-101214596D01*
X118853086Y-101164354D01*
X118853093Y-101164350D01*
X118968187Y-101078190D01*
X118968190Y-101078187D01*
X119054350Y-100963093D01*
X119054354Y-100963086D01*
X119104596Y-100828379D01*
X119104598Y-100828372D01*
X119110999Y-100768844D01*
X119111000Y-100768827D01*
X119111000Y-98421000D01*
X117911000Y-98421000D01*
X117411000Y-98421000D01*
X116211000Y-98421000D01*
X115252689Y-98421000D01*
X115185511Y-98286088D01*
X115185506Y-98286081D01*
X115171722Y-98267829D01*
X114600471Y-98839081D01*
X114598729Y-98815830D01*
X114551173Y-98694662D01*
X114470016Y-98592893D01*
X114362467Y-98519568D01*
X114248143Y-98484303D01*
X114811445Y-97921000D01*
X116211000Y-97921000D01*
X117411000Y-97921000D01*
X117411000Y-95121000D01*
X117911000Y-95121000D01*
X117911000Y-97921000D01*
X119111000Y-97921000D01*
X119111000Y-95573172D01*
X119110999Y-95573155D01*
X119104598Y-95513627D01*
X119104596Y-95513620D01*
X119054354Y-95378913D01*
X119054350Y-95378906D01*
X118968190Y-95263812D01*
X118968187Y-95263809D01*
X118853093Y-95177649D01*
X118853086Y-95177645D01*
X118718379Y-95127403D01*
X118718372Y-95127401D01*
X118658844Y-95121000D01*
X117911000Y-95121000D01*
X117411000Y-95121000D01*
X116663155Y-95121000D01*
X116603627Y-95127401D01*
X116603620Y-95127403D01*
X116468913Y-95177645D01*
X116468906Y-95177649D01*
X116353812Y-95263809D01*
X116353809Y-95263812D01*
X116267649Y-95378906D01*
X116267645Y-95378913D01*
X116217403Y-95513620D01*
X116217401Y-95513627D01*
X116211000Y-95573155D01*
X116211000Y-97921000D01*
X114811445Y-97921000D01*
X114816012Y-97916433D01*
X114816011Y-97916432D01*
X114703824Y-97846970D01*
X114703818Y-97846967D01*
X114498898Y-97767581D01*
X114282879Y-97727200D01*
X114063121Y-97727200D01*
X113847102Y-97767581D01*
X113847101Y-97767581D01*
X113642182Y-97846966D01*
X113529986Y-97916433D01*
X114100764Y-98487210D01*
X114044287Y-98495723D01*
X113927011Y-98552201D01*
X113831592Y-98640736D01*
X113766509Y-98753464D01*
X113746699Y-98840252D01*
X113174275Y-98267828D01*
X113162585Y-98268640D01*
X113094344Y-98253645D01*
X113045043Y-98204135D01*
X113030000Y-98144938D01*
X113030000Y-96720986D01*
X113049685Y-96653947D01*
X113102489Y-96608192D01*
X113171647Y-96598248D01*
X113235203Y-96627273D01*
X113271931Y-96682668D01*
X113309262Y-96797562D01*
X113408089Y-96968737D01*
X113532770Y-97107208D01*
X113540351Y-97115628D01*
X113700260Y-97231809D01*
X113880831Y-97312204D01*
X114074171Y-97353300D01*
X114271829Y-97353300D01*
X114465169Y-97312204D01*
X114645740Y-97231809D01*
X114805649Y-97115628D01*
X114937909Y-96968739D01*
X115036738Y-96797561D01*
X115097818Y-96609576D01*
X115118479Y-96413000D01*
X115097818Y-96216424D01*
X115036738Y-96028439D01*
X114937909Y-95857261D01*
X114805649Y-95710372D01*
X114645740Y-95594191D01*
X114465169Y-95513796D01*
X114465167Y-95513795D01*
X114384720Y-95496695D01*
X114323238Y-95463502D01*
X114289462Y-95402338D01*
X114286502Y-95375405D01*
X114286502Y-94550563D01*
X114286501Y-94550553D01*
X114284192Y-94536718D01*
X114282500Y-94516304D01*
X114282500Y-94281939D01*
X114282500Y-94281937D01*
X114267735Y-94207702D01*
X114239143Y-94164911D01*
X114211485Y-94123518D01*
X114161020Y-94089799D01*
X114127302Y-94067269D01*
X114127300Y-94067268D01*
X114127297Y-94067267D01*
X114053070Y-94052503D01*
X113752935Y-94052503D01*
X113677191Y-94067569D01*
X113628812Y-94067569D01*
X113607326Y-94063295D01*
X113553069Y-94052503D01*
X113553067Y-94052503D01*
X113252936Y-94052503D01*
X113252934Y-94052504D01*
X113195038Y-94064019D01*
X113125447Y-94057790D01*
X113070270Y-94014925D01*
X113047028Y-93949035D01*
X113048111Y-93924760D01*
X113052627Y-93893351D01*
X113081653Y-93829797D01*
X113140432Y-93792023D01*
X113175365Y-93787001D01*
X113413015Y-93787001D01*
X113413024Y-93787001D01*
X113413032Y-93787000D01*
X113416301Y-93786827D01*
X113416306Y-93786923D01*
X113424307Y-93786500D01*
X113478064Y-93786500D01*
X113478066Y-93786500D01*
X113552301Y-93771735D01*
X113559104Y-93767188D01*
X113625781Y-93746308D01*
X113693161Y-93764790D01*
X113696888Y-93767185D01*
X113703696Y-93771734D01*
X113703697Y-93771734D01*
X113703698Y-93771735D01*
X113703700Y-93771735D01*
X113703702Y-93771736D01*
X113728665Y-93776701D01*
X113777932Y-93786501D01*
X114004230Y-93786500D01*
X114004238Y-93786501D01*
X114018673Y-93786501D01*
X114058779Y-93786501D01*
X114084224Y-93789140D01*
X114088119Y-93789956D01*
X114095099Y-93791420D01*
X114126923Y-93787453D01*
X114142261Y-93786501D01*
X114152432Y-93786501D01*
X114152444Y-93786500D01*
X114378063Y-93786500D01*
X114378065Y-93786500D01*
X114452300Y-93771735D01*
X114536483Y-93715485D01*
X114577494Y-93654108D01*
X114631104Y-93609304D01*
X114680595Y-93599000D01*
X119257953Y-93599000D01*
X119324992Y-93618685D01*
G37*
%TD.AperFunction*%
%TD*%
M02*
