%TF.GenerationSoftware,KiCad,Pcbnew,7.0.10*%
%TF.CreationDate,2024-11-20T16:47:17-05:00*%
%TF.ProjectId,SDP25_MainPCB_V2,53445032-355f-44d6-9169-6e5043425f56,2*%
%TF.SameCoordinates,Original*%
%TF.FileFunction,Drillmap*%
%TF.FilePolarity,Positive*%
%FSLAX45Y45*%
G04 Gerber Fmt 4.5, Leading zero omitted, Abs format (unit mm)*
G04 Created by KiCad (PCBNEW 7.0.10) date 2024-11-20 16:47:17*
%MOMM*%
%LPD*%
G01*
G04 APERTURE LIST*
%ADD10C,0.100000*%
%ADD11C,0.200000*%
G04 APERTURE END LIST*
D10*
X9474200Y-6527800D02*
X20472400Y-6527800D01*
X20472400Y-10363200D01*
X9474200Y-10363200D01*
X9474200Y-6527800D01*
D11*
X9729977Y-10679684D02*
X9729977Y-10479684D01*
X9729977Y-10479684D02*
X9777596Y-10479684D01*
X9777596Y-10479684D02*
X9806167Y-10489208D01*
X9806167Y-10489208D02*
X9825215Y-10508255D01*
X9825215Y-10508255D02*
X9834739Y-10527303D01*
X9834739Y-10527303D02*
X9844263Y-10565398D01*
X9844263Y-10565398D02*
X9844263Y-10593970D01*
X9844263Y-10593970D02*
X9834739Y-10632065D01*
X9834739Y-10632065D02*
X9825215Y-10651112D01*
X9825215Y-10651112D02*
X9806167Y-10670160D01*
X9806167Y-10670160D02*
X9777596Y-10679684D01*
X9777596Y-10679684D02*
X9729977Y-10679684D01*
X9929977Y-10679684D02*
X9929977Y-10546350D01*
X9929977Y-10584446D02*
X9939501Y-10565398D01*
X9939501Y-10565398D02*
X9949024Y-10555874D01*
X9949024Y-10555874D02*
X9968072Y-10546350D01*
X9968072Y-10546350D02*
X9987120Y-10546350D01*
X10053786Y-10679684D02*
X10053786Y-10546350D01*
X10053786Y-10479684D02*
X10044263Y-10489208D01*
X10044263Y-10489208D02*
X10053786Y-10498731D01*
X10053786Y-10498731D02*
X10063310Y-10489208D01*
X10063310Y-10489208D02*
X10053786Y-10479684D01*
X10053786Y-10479684D02*
X10053786Y-10498731D01*
X10177596Y-10679684D02*
X10158548Y-10670160D01*
X10158548Y-10670160D02*
X10149024Y-10651112D01*
X10149024Y-10651112D02*
X10149024Y-10479684D01*
X10282358Y-10679684D02*
X10263310Y-10670160D01*
X10263310Y-10670160D02*
X10253786Y-10651112D01*
X10253786Y-10651112D02*
X10253786Y-10479684D01*
X10510929Y-10679684D02*
X10510929Y-10479684D01*
X10510929Y-10479684D02*
X10577596Y-10622541D01*
X10577596Y-10622541D02*
X10644263Y-10479684D01*
X10644263Y-10479684D02*
X10644263Y-10679684D01*
X10825215Y-10679684D02*
X10825215Y-10574922D01*
X10825215Y-10574922D02*
X10815691Y-10555874D01*
X10815691Y-10555874D02*
X10796644Y-10546350D01*
X10796644Y-10546350D02*
X10758548Y-10546350D01*
X10758548Y-10546350D02*
X10739501Y-10555874D01*
X10825215Y-10670160D02*
X10806167Y-10679684D01*
X10806167Y-10679684D02*
X10758548Y-10679684D01*
X10758548Y-10679684D02*
X10739501Y-10670160D01*
X10739501Y-10670160D02*
X10729977Y-10651112D01*
X10729977Y-10651112D02*
X10729977Y-10632065D01*
X10729977Y-10632065D02*
X10739501Y-10613017D01*
X10739501Y-10613017D02*
X10758548Y-10603493D01*
X10758548Y-10603493D02*
X10806167Y-10603493D01*
X10806167Y-10603493D02*
X10825215Y-10593970D01*
X10920453Y-10546350D02*
X10920453Y-10746350D01*
X10920453Y-10555874D02*
X10939501Y-10546350D01*
X10939501Y-10546350D02*
X10977596Y-10546350D01*
X10977596Y-10546350D02*
X10996644Y-10555874D01*
X10996644Y-10555874D02*
X11006167Y-10565398D01*
X11006167Y-10565398D02*
X11015691Y-10584446D01*
X11015691Y-10584446D02*
X11015691Y-10641589D01*
X11015691Y-10641589D02*
X11006167Y-10660636D01*
X11006167Y-10660636D02*
X10996644Y-10670160D01*
X10996644Y-10670160D02*
X10977596Y-10679684D01*
X10977596Y-10679684D02*
X10939501Y-10679684D01*
X10939501Y-10679684D02*
X10920453Y-10670160D01*
X11101405Y-10660636D02*
X11110929Y-10670160D01*
X11110929Y-10670160D02*
X11101405Y-10679684D01*
X11101405Y-10679684D02*
X11091882Y-10670160D01*
X11091882Y-10670160D02*
X11101405Y-10660636D01*
X11101405Y-10660636D02*
X11101405Y-10679684D01*
X11101405Y-10555874D02*
X11110929Y-10565398D01*
X11110929Y-10565398D02*
X11101405Y-10574922D01*
X11101405Y-10574922D02*
X11091882Y-10565398D01*
X11091882Y-10565398D02*
X11101405Y-10555874D01*
X11101405Y-10555874D02*
X11101405Y-10574922D01*
M02*
