%TF.GenerationSoftware,KiCad,Pcbnew,7.0.10*%
%TF.CreationDate,2024-10-31T16:24:40-04:00*%
%TF.ProjectId,segment,7365676d-656e-4742-9e6b-696361645f70,rev?*%
%TF.SameCoordinates,Original*%
%TF.FileFunction,Drillmap*%
%TF.FilePolarity,Positive*%
%FSLAX45Y45*%
G04 Gerber Fmt 4.5, Leading zero omitted, Abs format (unit mm)*
G04 Created by KiCad (PCBNEW 7.0.10) date 2024-10-31 16:24:40*
%MOMM*%
%LPD*%
G01*
G04 APERTURE LIST*
%ADD10C,0.100000*%
%ADD11C,0.200000*%
%ADD12C,0.220000*%
G04 APERTURE END LIST*
D10*
X19177000Y-9969500D02*
X19177000Y-10604500D01*
X17526000Y-11938000D01*
X7366000Y-11943000D01*
X5715000Y-10604500D01*
X5715000Y-9969500D01*
X7366000Y-8636000D01*
X17526000Y-8636000D01*
X19177000Y-9969500D01*
D11*
D12*
X7383000Y-10177000D02*
X7603000Y-10397000D01*
X7603000Y-10177000D02*
X7383000Y-10397000D01*
X16908000Y-10177000D02*
X17128000Y-10397000D01*
X17128000Y-10177000D02*
X16908000Y-10397000D01*
D11*
X5970777Y-12259484D02*
X5970777Y-12059484D01*
X5970777Y-12059484D02*
X6018396Y-12059484D01*
X6018396Y-12059484D02*
X6046967Y-12069008D01*
X6046967Y-12069008D02*
X6066015Y-12088055D01*
X6066015Y-12088055D02*
X6075539Y-12107103D01*
X6075539Y-12107103D02*
X6085062Y-12145198D01*
X6085062Y-12145198D02*
X6085062Y-12173769D01*
X6085062Y-12173769D02*
X6075539Y-12211865D01*
X6075539Y-12211865D02*
X6066015Y-12230912D01*
X6066015Y-12230912D02*
X6046967Y-12249960D01*
X6046967Y-12249960D02*
X6018396Y-12259484D01*
X6018396Y-12259484D02*
X5970777Y-12259484D01*
X6170777Y-12259484D02*
X6170777Y-12126150D01*
X6170777Y-12164246D02*
X6180301Y-12145198D01*
X6180301Y-12145198D02*
X6189824Y-12135674D01*
X6189824Y-12135674D02*
X6208872Y-12126150D01*
X6208872Y-12126150D02*
X6227920Y-12126150D01*
X6294586Y-12259484D02*
X6294586Y-12126150D01*
X6294586Y-12059484D02*
X6285062Y-12069008D01*
X6285062Y-12069008D02*
X6294586Y-12078531D01*
X6294586Y-12078531D02*
X6304110Y-12069008D01*
X6304110Y-12069008D02*
X6294586Y-12059484D01*
X6294586Y-12059484D02*
X6294586Y-12078531D01*
X6418396Y-12259484D02*
X6399348Y-12249960D01*
X6399348Y-12249960D02*
X6389824Y-12230912D01*
X6389824Y-12230912D02*
X6389824Y-12059484D01*
X6523158Y-12259484D02*
X6504110Y-12249960D01*
X6504110Y-12249960D02*
X6494586Y-12230912D01*
X6494586Y-12230912D02*
X6494586Y-12059484D01*
X6751729Y-12259484D02*
X6751729Y-12059484D01*
X6751729Y-12059484D02*
X6818396Y-12202341D01*
X6818396Y-12202341D02*
X6885062Y-12059484D01*
X6885062Y-12059484D02*
X6885062Y-12259484D01*
X7066015Y-12259484D02*
X7066015Y-12154722D01*
X7066015Y-12154722D02*
X7056491Y-12135674D01*
X7056491Y-12135674D02*
X7037443Y-12126150D01*
X7037443Y-12126150D02*
X6999348Y-12126150D01*
X6999348Y-12126150D02*
X6980301Y-12135674D01*
X7066015Y-12249960D02*
X7046967Y-12259484D01*
X7046967Y-12259484D02*
X6999348Y-12259484D01*
X6999348Y-12259484D02*
X6980301Y-12249960D01*
X6980301Y-12249960D02*
X6970777Y-12230912D01*
X6970777Y-12230912D02*
X6970777Y-12211865D01*
X6970777Y-12211865D02*
X6980301Y-12192817D01*
X6980301Y-12192817D02*
X6999348Y-12183293D01*
X6999348Y-12183293D02*
X7046967Y-12183293D01*
X7046967Y-12183293D02*
X7066015Y-12173769D01*
X7161253Y-12126150D02*
X7161253Y-12326150D01*
X7161253Y-12135674D02*
X7180301Y-12126150D01*
X7180301Y-12126150D02*
X7218396Y-12126150D01*
X7218396Y-12126150D02*
X7237443Y-12135674D01*
X7237443Y-12135674D02*
X7246967Y-12145198D01*
X7246967Y-12145198D02*
X7256491Y-12164246D01*
X7256491Y-12164246D02*
X7256491Y-12221388D01*
X7256491Y-12221388D02*
X7246967Y-12240436D01*
X7246967Y-12240436D02*
X7237443Y-12249960D01*
X7237443Y-12249960D02*
X7218396Y-12259484D01*
X7218396Y-12259484D02*
X7180301Y-12259484D01*
X7180301Y-12259484D02*
X7161253Y-12249960D01*
X7342205Y-12240436D02*
X7351729Y-12249960D01*
X7351729Y-12249960D02*
X7342205Y-12259484D01*
X7342205Y-12259484D02*
X7332682Y-12249960D01*
X7332682Y-12249960D02*
X7342205Y-12240436D01*
X7342205Y-12240436D02*
X7342205Y-12259484D01*
X7342205Y-12135674D02*
X7351729Y-12145198D01*
X7351729Y-12145198D02*
X7342205Y-12154722D01*
X7342205Y-12154722D02*
X7332682Y-12145198D01*
X7332682Y-12145198D02*
X7342205Y-12135674D01*
X7342205Y-12135674D02*
X7342205Y-12154722D01*
X5510000Y-12488000D02*
X5710000Y-12688000D01*
X5710000Y-12488000D02*
X5510000Y-12688000D01*
X5961253Y-12498531D02*
X5970777Y-12489008D01*
X5970777Y-12489008D02*
X5989824Y-12479484D01*
X5989824Y-12479484D02*
X6037443Y-12479484D01*
X6037443Y-12479484D02*
X6056491Y-12489008D01*
X6056491Y-12489008D02*
X6066015Y-12498531D01*
X6066015Y-12498531D02*
X6075539Y-12517579D01*
X6075539Y-12517579D02*
X6075539Y-12536627D01*
X6075539Y-12536627D02*
X6066015Y-12565198D01*
X6066015Y-12565198D02*
X5951729Y-12679484D01*
X5951729Y-12679484D02*
X6075539Y-12679484D01*
X6161253Y-12660436D02*
X6170777Y-12669960D01*
X6170777Y-12669960D02*
X6161253Y-12679484D01*
X6161253Y-12679484D02*
X6151729Y-12669960D01*
X6151729Y-12669960D02*
X6161253Y-12660436D01*
X6161253Y-12660436D02*
X6161253Y-12679484D01*
X6246967Y-12498531D02*
X6256491Y-12489008D01*
X6256491Y-12489008D02*
X6275539Y-12479484D01*
X6275539Y-12479484D02*
X6323158Y-12479484D01*
X6323158Y-12479484D02*
X6342205Y-12489008D01*
X6342205Y-12489008D02*
X6351729Y-12498531D01*
X6351729Y-12498531D02*
X6361253Y-12517579D01*
X6361253Y-12517579D02*
X6361253Y-12536627D01*
X6361253Y-12536627D02*
X6351729Y-12565198D01*
X6351729Y-12565198D02*
X6237443Y-12679484D01*
X6237443Y-12679484D02*
X6361253Y-12679484D01*
X6485062Y-12479484D02*
X6504110Y-12479484D01*
X6504110Y-12479484D02*
X6523158Y-12489008D01*
X6523158Y-12489008D02*
X6532682Y-12498531D01*
X6532682Y-12498531D02*
X6542205Y-12517579D01*
X6542205Y-12517579D02*
X6551729Y-12555674D01*
X6551729Y-12555674D02*
X6551729Y-12603293D01*
X6551729Y-12603293D02*
X6542205Y-12641388D01*
X6542205Y-12641388D02*
X6532682Y-12660436D01*
X6532682Y-12660436D02*
X6523158Y-12669960D01*
X6523158Y-12669960D02*
X6504110Y-12679484D01*
X6504110Y-12679484D02*
X6485062Y-12679484D01*
X6485062Y-12679484D02*
X6466015Y-12669960D01*
X6466015Y-12669960D02*
X6456491Y-12660436D01*
X6456491Y-12660436D02*
X6446967Y-12641388D01*
X6446967Y-12641388D02*
X6437443Y-12603293D01*
X6437443Y-12603293D02*
X6437443Y-12555674D01*
X6437443Y-12555674D02*
X6446967Y-12517579D01*
X6446967Y-12517579D02*
X6456491Y-12498531D01*
X6456491Y-12498531D02*
X6466015Y-12489008D01*
X6466015Y-12489008D02*
X6485062Y-12479484D01*
X6675539Y-12479484D02*
X6694586Y-12479484D01*
X6694586Y-12479484D02*
X6713634Y-12489008D01*
X6713634Y-12489008D02*
X6723158Y-12498531D01*
X6723158Y-12498531D02*
X6732682Y-12517579D01*
X6732682Y-12517579D02*
X6742205Y-12555674D01*
X6742205Y-12555674D02*
X6742205Y-12603293D01*
X6742205Y-12603293D02*
X6732682Y-12641388D01*
X6732682Y-12641388D02*
X6723158Y-12660436D01*
X6723158Y-12660436D02*
X6713634Y-12669960D01*
X6713634Y-12669960D02*
X6694586Y-12679484D01*
X6694586Y-12679484D02*
X6675539Y-12679484D01*
X6675539Y-12679484D02*
X6656491Y-12669960D01*
X6656491Y-12669960D02*
X6646967Y-12660436D01*
X6646967Y-12660436D02*
X6637443Y-12641388D01*
X6637443Y-12641388D02*
X6627920Y-12603293D01*
X6627920Y-12603293D02*
X6627920Y-12555674D01*
X6627920Y-12555674D02*
X6637443Y-12517579D01*
X6637443Y-12517579D02*
X6646967Y-12498531D01*
X6646967Y-12498531D02*
X6656491Y-12489008D01*
X6656491Y-12489008D02*
X6675539Y-12479484D01*
X6827920Y-12679484D02*
X6827920Y-12546150D01*
X6827920Y-12565198D02*
X6837443Y-12555674D01*
X6837443Y-12555674D02*
X6856491Y-12546150D01*
X6856491Y-12546150D02*
X6885063Y-12546150D01*
X6885063Y-12546150D02*
X6904110Y-12555674D01*
X6904110Y-12555674D02*
X6913634Y-12574722D01*
X6913634Y-12574722D02*
X6913634Y-12679484D01*
X6913634Y-12574722D02*
X6923158Y-12555674D01*
X6923158Y-12555674D02*
X6942205Y-12546150D01*
X6942205Y-12546150D02*
X6970777Y-12546150D01*
X6970777Y-12546150D02*
X6989824Y-12555674D01*
X6989824Y-12555674D02*
X6999348Y-12574722D01*
X6999348Y-12574722D02*
X6999348Y-12679484D01*
X7094586Y-12679484D02*
X7094586Y-12546150D01*
X7094586Y-12565198D02*
X7104110Y-12555674D01*
X7104110Y-12555674D02*
X7123158Y-12546150D01*
X7123158Y-12546150D02*
X7151729Y-12546150D01*
X7151729Y-12546150D02*
X7170777Y-12555674D01*
X7170777Y-12555674D02*
X7180301Y-12574722D01*
X7180301Y-12574722D02*
X7180301Y-12679484D01*
X7180301Y-12574722D02*
X7189824Y-12555674D01*
X7189824Y-12555674D02*
X7208872Y-12546150D01*
X7208872Y-12546150D02*
X7237443Y-12546150D01*
X7237443Y-12546150D02*
X7256491Y-12555674D01*
X7256491Y-12555674D02*
X7266015Y-12574722D01*
X7266015Y-12574722D02*
X7266015Y-12679484D01*
X7656491Y-12469960D02*
X7485063Y-12727103D01*
X7913634Y-12479484D02*
X7932682Y-12479484D01*
X7932682Y-12479484D02*
X7951729Y-12489008D01*
X7951729Y-12489008D02*
X7961253Y-12498531D01*
X7961253Y-12498531D02*
X7970777Y-12517579D01*
X7970777Y-12517579D02*
X7980301Y-12555674D01*
X7980301Y-12555674D02*
X7980301Y-12603293D01*
X7980301Y-12603293D02*
X7970777Y-12641388D01*
X7970777Y-12641388D02*
X7961253Y-12660436D01*
X7961253Y-12660436D02*
X7951729Y-12669960D01*
X7951729Y-12669960D02*
X7932682Y-12679484D01*
X7932682Y-12679484D02*
X7913634Y-12679484D01*
X7913634Y-12679484D02*
X7894586Y-12669960D01*
X7894586Y-12669960D02*
X7885063Y-12660436D01*
X7885063Y-12660436D02*
X7875539Y-12641388D01*
X7875539Y-12641388D02*
X7866015Y-12603293D01*
X7866015Y-12603293D02*
X7866015Y-12555674D01*
X7866015Y-12555674D02*
X7875539Y-12517579D01*
X7875539Y-12517579D02*
X7885063Y-12498531D01*
X7885063Y-12498531D02*
X7894586Y-12489008D01*
X7894586Y-12489008D02*
X7913634Y-12479484D01*
X8066015Y-12660436D02*
X8075539Y-12669960D01*
X8075539Y-12669960D02*
X8066015Y-12679484D01*
X8066015Y-12679484D02*
X8056491Y-12669960D01*
X8056491Y-12669960D02*
X8066015Y-12660436D01*
X8066015Y-12660436D02*
X8066015Y-12679484D01*
X8199348Y-12479484D02*
X8218396Y-12479484D01*
X8218396Y-12479484D02*
X8237444Y-12489008D01*
X8237444Y-12489008D02*
X8246967Y-12498531D01*
X8246967Y-12498531D02*
X8256491Y-12517579D01*
X8256491Y-12517579D02*
X8266015Y-12555674D01*
X8266015Y-12555674D02*
X8266015Y-12603293D01*
X8266015Y-12603293D02*
X8256491Y-12641388D01*
X8256491Y-12641388D02*
X8246967Y-12660436D01*
X8246967Y-12660436D02*
X8237444Y-12669960D01*
X8237444Y-12669960D02*
X8218396Y-12679484D01*
X8218396Y-12679484D02*
X8199348Y-12679484D01*
X8199348Y-12679484D02*
X8180301Y-12669960D01*
X8180301Y-12669960D02*
X8170777Y-12660436D01*
X8170777Y-12660436D02*
X8161253Y-12641388D01*
X8161253Y-12641388D02*
X8151729Y-12603293D01*
X8151729Y-12603293D02*
X8151729Y-12555674D01*
X8151729Y-12555674D02*
X8161253Y-12517579D01*
X8161253Y-12517579D02*
X8170777Y-12498531D01*
X8170777Y-12498531D02*
X8180301Y-12489008D01*
X8180301Y-12489008D02*
X8199348Y-12479484D01*
X8380301Y-12565198D02*
X8361253Y-12555674D01*
X8361253Y-12555674D02*
X8351729Y-12546150D01*
X8351729Y-12546150D02*
X8342206Y-12527103D01*
X8342206Y-12527103D02*
X8342206Y-12517579D01*
X8342206Y-12517579D02*
X8351729Y-12498531D01*
X8351729Y-12498531D02*
X8361253Y-12489008D01*
X8361253Y-12489008D02*
X8380301Y-12479484D01*
X8380301Y-12479484D02*
X8418396Y-12479484D01*
X8418396Y-12479484D02*
X8437444Y-12489008D01*
X8437444Y-12489008D02*
X8446968Y-12498531D01*
X8446968Y-12498531D02*
X8456491Y-12517579D01*
X8456491Y-12517579D02*
X8456491Y-12527103D01*
X8456491Y-12527103D02*
X8446968Y-12546150D01*
X8446968Y-12546150D02*
X8437444Y-12555674D01*
X8437444Y-12555674D02*
X8418396Y-12565198D01*
X8418396Y-12565198D02*
X8380301Y-12565198D01*
X8380301Y-12565198D02*
X8361253Y-12574722D01*
X8361253Y-12574722D02*
X8351729Y-12584246D01*
X8351729Y-12584246D02*
X8342206Y-12603293D01*
X8342206Y-12603293D02*
X8342206Y-12641388D01*
X8342206Y-12641388D02*
X8351729Y-12660436D01*
X8351729Y-12660436D02*
X8361253Y-12669960D01*
X8361253Y-12669960D02*
X8380301Y-12679484D01*
X8380301Y-12679484D02*
X8418396Y-12679484D01*
X8418396Y-12679484D02*
X8437444Y-12669960D01*
X8437444Y-12669960D02*
X8446968Y-12660436D01*
X8446968Y-12660436D02*
X8456491Y-12641388D01*
X8456491Y-12641388D02*
X8456491Y-12603293D01*
X8456491Y-12603293D02*
X8446968Y-12584246D01*
X8446968Y-12584246D02*
X8437444Y-12574722D01*
X8437444Y-12574722D02*
X8418396Y-12565198D01*
X8627920Y-12479484D02*
X8589825Y-12479484D01*
X8589825Y-12479484D02*
X8570777Y-12489008D01*
X8570777Y-12489008D02*
X8561253Y-12498531D01*
X8561253Y-12498531D02*
X8542206Y-12527103D01*
X8542206Y-12527103D02*
X8532682Y-12565198D01*
X8532682Y-12565198D02*
X8532682Y-12641388D01*
X8532682Y-12641388D02*
X8542206Y-12660436D01*
X8542206Y-12660436D02*
X8551729Y-12669960D01*
X8551729Y-12669960D02*
X8570777Y-12679484D01*
X8570777Y-12679484D02*
X8608872Y-12679484D01*
X8608872Y-12679484D02*
X8627920Y-12669960D01*
X8627920Y-12669960D02*
X8637444Y-12660436D01*
X8637444Y-12660436D02*
X8646968Y-12641388D01*
X8646968Y-12641388D02*
X8646968Y-12593769D01*
X8646968Y-12593769D02*
X8637444Y-12574722D01*
X8637444Y-12574722D02*
X8627920Y-12565198D01*
X8627920Y-12565198D02*
X8608872Y-12555674D01*
X8608872Y-12555674D02*
X8570777Y-12555674D01*
X8570777Y-12555674D02*
X8551729Y-12565198D01*
X8551729Y-12565198D02*
X8542206Y-12574722D01*
X8542206Y-12574722D02*
X8532682Y-12593769D01*
X8818396Y-12479484D02*
X8780301Y-12479484D01*
X8780301Y-12479484D02*
X8761253Y-12489008D01*
X8761253Y-12489008D02*
X8751729Y-12498531D01*
X8751729Y-12498531D02*
X8732682Y-12527103D01*
X8732682Y-12527103D02*
X8723158Y-12565198D01*
X8723158Y-12565198D02*
X8723158Y-12641388D01*
X8723158Y-12641388D02*
X8732682Y-12660436D01*
X8732682Y-12660436D02*
X8742206Y-12669960D01*
X8742206Y-12669960D02*
X8761253Y-12679484D01*
X8761253Y-12679484D02*
X8799349Y-12679484D01*
X8799349Y-12679484D02*
X8818396Y-12669960D01*
X8818396Y-12669960D02*
X8827920Y-12660436D01*
X8827920Y-12660436D02*
X8837444Y-12641388D01*
X8837444Y-12641388D02*
X8837444Y-12593769D01*
X8837444Y-12593769D02*
X8827920Y-12574722D01*
X8827920Y-12574722D02*
X8818396Y-12565198D01*
X8818396Y-12565198D02*
X8799349Y-12555674D01*
X8799349Y-12555674D02*
X8761253Y-12555674D01*
X8761253Y-12555674D02*
X8742206Y-12565198D01*
X8742206Y-12565198D02*
X8732682Y-12574722D01*
X8732682Y-12574722D02*
X8723158Y-12593769D01*
X8913634Y-12479484D02*
X8913634Y-12517579D01*
X8989825Y-12479484D02*
X8989825Y-12517579D01*
X9285063Y-12755674D02*
X9275539Y-12746150D01*
X9275539Y-12746150D02*
X9256491Y-12717579D01*
X9256491Y-12717579D02*
X9246968Y-12698531D01*
X9246968Y-12698531D02*
X9237444Y-12669960D01*
X9237444Y-12669960D02*
X9227920Y-12622341D01*
X9227920Y-12622341D02*
X9227920Y-12584246D01*
X9227920Y-12584246D02*
X9237444Y-12536627D01*
X9237444Y-12536627D02*
X9246968Y-12508055D01*
X9246968Y-12508055D02*
X9256491Y-12489008D01*
X9256491Y-12489008D02*
X9275539Y-12460436D01*
X9275539Y-12460436D02*
X9285063Y-12450912D01*
X9351730Y-12498531D02*
X9361253Y-12489008D01*
X9361253Y-12489008D02*
X9380301Y-12479484D01*
X9380301Y-12479484D02*
X9427920Y-12479484D01*
X9427920Y-12479484D02*
X9446968Y-12489008D01*
X9446968Y-12489008D02*
X9456491Y-12498531D01*
X9456491Y-12498531D02*
X9466015Y-12517579D01*
X9466015Y-12517579D02*
X9466015Y-12536627D01*
X9466015Y-12536627D02*
X9456491Y-12565198D01*
X9456491Y-12565198D02*
X9342206Y-12679484D01*
X9342206Y-12679484D02*
X9466015Y-12679484D01*
X9704111Y-12679484D02*
X9704111Y-12479484D01*
X9789825Y-12679484D02*
X9789825Y-12574722D01*
X9789825Y-12574722D02*
X9780301Y-12555674D01*
X9780301Y-12555674D02*
X9761253Y-12546150D01*
X9761253Y-12546150D02*
X9732682Y-12546150D01*
X9732682Y-12546150D02*
X9713634Y-12555674D01*
X9713634Y-12555674D02*
X9704111Y-12565198D01*
X9913634Y-12679484D02*
X9894587Y-12669960D01*
X9894587Y-12669960D02*
X9885063Y-12660436D01*
X9885063Y-12660436D02*
X9875539Y-12641388D01*
X9875539Y-12641388D02*
X9875539Y-12584246D01*
X9875539Y-12584246D02*
X9885063Y-12565198D01*
X9885063Y-12565198D02*
X9894587Y-12555674D01*
X9894587Y-12555674D02*
X9913634Y-12546150D01*
X9913634Y-12546150D02*
X9942206Y-12546150D01*
X9942206Y-12546150D02*
X9961253Y-12555674D01*
X9961253Y-12555674D02*
X9970777Y-12565198D01*
X9970777Y-12565198D02*
X9980301Y-12584246D01*
X9980301Y-12584246D02*
X9980301Y-12641388D01*
X9980301Y-12641388D02*
X9970777Y-12660436D01*
X9970777Y-12660436D02*
X9961253Y-12669960D01*
X9961253Y-12669960D02*
X9942206Y-12679484D01*
X9942206Y-12679484D02*
X9913634Y-12679484D01*
X10094587Y-12679484D02*
X10075539Y-12669960D01*
X10075539Y-12669960D02*
X10066015Y-12650912D01*
X10066015Y-12650912D02*
X10066015Y-12479484D01*
X10246968Y-12669960D02*
X10227920Y-12679484D01*
X10227920Y-12679484D02*
X10189825Y-12679484D01*
X10189825Y-12679484D02*
X10170777Y-12669960D01*
X10170777Y-12669960D02*
X10161253Y-12650912D01*
X10161253Y-12650912D02*
X10161253Y-12574722D01*
X10161253Y-12574722D02*
X10170777Y-12555674D01*
X10170777Y-12555674D02*
X10189825Y-12546150D01*
X10189825Y-12546150D02*
X10227920Y-12546150D01*
X10227920Y-12546150D02*
X10246968Y-12555674D01*
X10246968Y-12555674D02*
X10256492Y-12574722D01*
X10256492Y-12574722D02*
X10256492Y-12593769D01*
X10256492Y-12593769D02*
X10161253Y-12612817D01*
X10332682Y-12669960D02*
X10351730Y-12679484D01*
X10351730Y-12679484D02*
X10389825Y-12679484D01*
X10389825Y-12679484D02*
X10408873Y-12669960D01*
X10408873Y-12669960D02*
X10418396Y-12650912D01*
X10418396Y-12650912D02*
X10418396Y-12641388D01*
X10418396Y-12641388D02*
X10408873Y-12622341D01*
X10408873Y-12622341D02*
X10389825Y-12612817D01*
X10389825Y-12612817D02*
X10361253Y-12612817D01*
X10361253Y-12612817D02*
X10342206Y-12603293D01*
X10342206Y-12603293D02*
X10332682Y-12584246D01*
X10332682Y-12584246D02*
X10332682Y-12574722D01*
X10332682Y-12574722D02*
X10342206Y-12555674D01*
X10342206Y-12555674D02*
X10361253Y-12546150D01*
X10361253Y-12546150D02*
X10389825Y-12546150D01*
X10389825Y-12546150D02*
X10408873Y-12555674D01*
X10485063Y-12755674D02*
X10494587Y-12746150D01*
X10494587Y-12746150D02*
X10513634Y-12717579D01*
X10513634Y-12717579D02*
X10523158Y-12698531D01*
X10523158Y-12698531D02*
X10532682Y-12669960D01*
X10532682Y-12669960D02*
X10542206Y-12622341D01*
X10542206Y-12622341D02*
X10542206Y-12584246D01*
X10542206Y-12584246D02*
X10532682Y-12536627D01*
X10532682Y-12536627D02*
X10523158Y-12508055D01*
X10523158Y-12508055D02*
X10513634Y-12489008D01*
X10513634Y-12489008D02*
X10494587Y-12460436D01*
X10494587Y-12460436D02*
X10485063Y-12450912D01*
X10846968Y-12755674D02*
X10837444Y-12746150D01*
X10837444Y-12746150D02*
X10818396Y-12717579D01*
X10818396Y-12717579D02*
X10808873Y-12698531D01*
X10808873Y-12698531D02*
X10799349Y-12669960D01*
X10799349Y-12669960D02*
X10789825Y-12622341D01*
X10789825Y-12622341D02*
X10789825Y-12584246D01*
X10789825Y-12584246D02*
X10799349Y-12536627D01*
X10799349Y-12536627D02*
X10808873Y-12508055D01*
X10808873Y-12508055D02*
X10818396Y-12489008D01*
X10818396Y-12489008D02*
X10837444Y-12460436D01*
X10837444Y-12460436D02*
X10846968Y-12450912D01*
X10923158Y-12546150D02*
X10923158Y-12679484D01*
X10923158Y-12565198D02*
X10932682Y-12555674D01*
X10932682Y-12555674D02*
X10951730Y-12546150D01*
X10951730Y-12546150D02*
X10980301Y-12546150D01*
X10980301Y-12546150D02*
X10999349Y-12555674D01*
X10999349Y-12555674D02*
X11008873Y-12574722D01*
X11008873Y-12574722D02*
X11008873Y-12679484D01*
X11132682Y-12679484D02*
X11113634Y-12669960D01*
X11113634Y-12669960D02*
X11104111Y-12660436D01*
X11104111Y-12660436D02*
X11094587Y-12641388D01*
X11094587Y-12641388D02*
X11094587Y-12584246D01*
X11094587Y-12584246D02*
X11104111Y-12565198D01*
X11104111Y-12565198D02*
X11113634Y-12555674D01*
X11113634Y-12555674D02*
X11132682Y-12546150D01*
X11132682Y-12546150D02*
X11161254Y-12546150D01*
X11161254Y-12546150D02*
X11180301Y-12555674D01*
X11180301Y-12555674D02*
X11189825Y-12565198D01*
X11189825Y-12565198D02*
X11199349Y-12584246D01*
X11199349Y-12584246D02*
X11199349Y-12641388D01*
X11199349Y-12641388D02*
X11189825Y-12660436D01*
X11189825Y-12660436D02*
X11180301Y-12669960D01*
X11180301Y-12669960D02*
X11161254Y-12679484D01*
X11161254Y-12679484D02*
X11132682Y-12679484D01*
X11256492Y-12546150D02*
X11332682Y-12546150D01*
X11285063Y-12479484D02*
X11285063Y-12650912D01*
X11285063Y-12650912D02*
X11294587Y-12669960D01*
X11294587Y-12669960D02*
X11313634Y-12679484D01*
X11313634Y-12679484D02*
X11332682Y-12679484D01*
X11551730Y-12546150D02*
X11551730Y-12746150D01*
X11551730Y-12555674D02*
X11570777Y-12546150D01*
X11570777Y-12546150D02*
X11608873Y-12546150D01*
X11608873Y-12546150D02*
X11627920Y-12555674D01*
X11627920Y-12555674D02*
X11637444Y-12565198D01*
X11637444Y-12565198D02*
X11646968Y-12584246D01*
X11646968Y-12584246D02*
X11646968Y-12641388D01*
X11646968Y-12641388D02*
X11637444Y-12660436D01*
X11637444Y-12660436D02*
X11627920Y-12669960D01*
X11627920Y-12669960D02*
X11608873Y-12679484D01*
X11608873Y-12679484D02*
X11570777Y-12679484D01*
X11570777Y-12679484D02*
X11551730Y-12669960D01*
X11761253Y-12679484D02*
X11742206Y-12669960D01*
X11742206Y-12669960D02*
X11732682Y-12650912D01*
X11732682Y-12650912D02*
X11732682Y-12479484D01*
X11923158Y-12679484D02*
X11923158Y-12574722D01*
X11923158Y-12574722D02*
X11913634Y-12555674D01*
X11913634Y-12555674D02*
X11894587Y-12546150D01*
X11894587Y-12546150D02*
X11856492Y-12546150D01*
X11856492Y-12546150D02*
X11837444Y-12555674D01*
X11923158Y-12669960D02*
X11904111Y-12679484D01*
X11904111Y-12679484D02*
X11856492Y-12679484D01*
X11856492Y-12679484D02*
X11837444Y-12669960D01*
X11837444Y-12669960D02*
X11827920Y-12650912D01*
X11827920Y-12650912D02*
X11827920Y-12631865D01*
X11827920Y-12631865D02*
X11837444Y-12612817D01*
X11837444Y-12612817D02*
X11856492Y-12603293D01*
X11856492Y-12603293D02*
X11904111Y-12603293D01*
X11904111Y-12603293D02*
X11923158Y-12593769D01*
X11989825Y-12546150D02*
X12066015Y-12546150D01*
X12018396Y-12479484D02*
X12018396Y-12650912D01*
X12018396Y-12650912D02*
X12027920Y-12669960D01*
X12027920Y-12669960D02*
X12046968Y-12679484D01*
X12046968Y-12679484D02*
X12066015Y-12679484D01*
X12208873Y-12669960D02*
X12189825Y-12679484D01*
X12189825Y-12679484D02*
X12151730Y-12679484D01*
X12151730Y-12679484D02*
X12132682Y-12669960D01*
X12132682Y-12669960D02*
X12123158Y-12650912D01*
X12123158Y-12650912D02*
X12123158Y-12574722D01*
X12123158Y-12574722D02*
X12132682Y-12555674D01*
X12132682Y-12555674D02*
X12151730Y-12546150D01*
X12151730Y-12546150D02*
X12189825Y-12546150D01*
X12189825Y-12546150D02*
X12208873Y-12555674D01*
X12208873Y-12555674D02*
X12218396Y-12574722D01*
X12218396Y-12574722D02*
X12218396Y-12593769D01*
X12218396Y-12593769D02*
X12123158Y-12612817D01*
X12389825Y-12679484D02*
X12389825Y-12479484D01*
X12389825Y-12669960D02*
X12370777Y-12679484D01*
X12370777Y-12679484D02*
X12332682Y-12679484D01*
X12332682Y-12679484D02*
X12313634Y-12669960D01*
X12313634Y-12669960D02*
X12304111Y-12660436D01*
X12304111Y-12660436D02*
X12294587Y-12641388D01*
X12294587Y-12641388D02*
X12294587Y-12584246D01*
X12294587Y-12584246D02*
X12304111Y-12565198D01*
X12304111Y-12565198D02*
X12313634Y-12555674D01*
X12313634Y-12555674D02*
X12332682Y-12546150D01*
X12332682Y-12546150D02*
X12370777Y-12546150D01*
X12370777Y-12546150D02*
X12389825Y-12555674D01*
X12466015Y-12755674D02*
X12475539Y-12746150D01*
X12475539Y-12746150D02*
X12494587Y-12717579D01*
X12494587Y-12717579D02*
X12504111Y-12698531D01*
X12504111Y-12698531D02*
X12513634Y-12669960D01*
X12513634Y-12669960D02*
X12523158Y-12622341D01*
X12523158Y-12622341D02*
X12523158Y-12584246D01*
X12523158Y-12584246D02*
X12513634Y-12536627D01*
X12513634Y-12536627D02*
X12504111Y-12508055D01*
X12504111Y-12508055D02*
X12494587Y-12489008D01*
X12494587Y-12489008D02*
X12475539Y-12460436D01*
X12475539Y-12460436D02*
X12466015Y-12450912D01*
M02*
