%TF.GenerationSoftware,KiCad,Pcbnew,7.0.10*%
%TF.CreationDate,2024-10-31T16:23:13-04:00*%
%TF.ProjectId,segment,7365676d-656e-4742-9e6b-696361645f70,rev?*%
%TF.SameCoordinates,Original*%
%TF.FileFunction,Legend,Top*%
%TF.FilePolarity,Positive*%
%FSLAX46Y46*%
G04 Gerber Fmt 4.6, Leading zero omitted, Abs format (unit mm)*
G04 Created by KiCad (PCBNEW 7.0.10) date 2024-10-31 16:23:13*
%MOMM*%
%LPD*%
G01*
G04 APERTURE LIST*
G04 Aperture macros list*
%AMRoundRect*
0 Rectangle with rounded corners*
0 $1 Rounding radius*
0 $2 $3 $4 $5 $6 $7 $8 $9 X,Y pos of 4 corners*
0 Add a 4 corners polygon primitive as box body*
4,1,4,$2,$3,$4,$5,$6,$7,$8,$9,$2,$3,0*
0 Add four circle primitives for the rounded corners*
1,1,$1+$1,$2,$3*
1,1,$1+$1,$4,$5*
1,1,$1+$1,$6,$7*
1,1,$1+$1,$8,$9*
0 Add four rect primitives between the rounded corners*
20,1,$1+$1,$2,$3,$4,$5,0*
20,1,$1+$1,$4,$5,$6,$7,0*
20,1,$1+$1,$6,$7,$8,$9,0*
20,1,$1+$1,$8,$9,$2,$3,0*%
G04 Aperture macros list end*
%ADD10C,0.150000*%
%ADD11C,0.120000*%
%ADD12R,1.800000X1.800000*%
%ADD13C,1.800000*%
%ADD14C,2.200000*%
%ADD15C,2.100000*%
%ADD16RoundRect,0.102000X-1.005000X1.005000X-1.005000X-1.005000X1.005000X-1.005000X1.005000X1.005000X0*%
%ADD17C,2.214000*%
G04 APERTURE END LIST*
D10*
X61414819Y-107423094D02*
X60414819Y-107423094D01*
X60414819Y-107423094D02*
X60414819Y-107184999D01*
X60414819Y-107184999D02*
X60462438Y-107042142D01*
X60462438Y-107042142D02*
X60557676Y-106946904D01*
X60557676Y-106946904D02*
X60652914Y-106899285D01*
X60652914Y-106899285D02*
X60843390Y-106851666D01*
X60843390Y-106851666D02*
X60986247Y-106851666D01*
X60986247Y-106851666D02*
X61176723Y-106899285D01*
X61176723Y-106899285D02*
X61271961Y-106946904D01*
X61271961Y-106946904D02*
X61367200Y-107042142D01*
X61367200Y-107042142D02*
X61414819Y-107184999D01*
X61414819Y-107184999D02*
X61414819Y-107423094D01*
X61414819Y-105899285D02*
X61414819Y-106470713D01*
X61414819Y-106184999D02*
X60414819Y-106184999D01*
X60414819Y-106184999D02*
X60557676Y-106280237D01*
X60557676Y-106280237D02*
X60652914Y-106375475D01*
X60652914Y-106375475D02*
X60700533Y-106470713D01*
X184454819Y-104084285D02*
X183454819Y-104084285D01*
X183454819Y-104084285D02*
X183454819Y-103846190D01*
X183454819Y-103846190D02*
X183502438Y-103703333D01*
X183502438Y-103703333D02*
X183597676Y-103608095D01*
X183597676Y-103608095D02*
X183692914Y-103560476D01*
X183692914Y-103560476D02*
X183883390Y-103512857D01*
X183883390Y-103512857D02*
X184026247Y-103512857D01*
X184026247Y-103512857D02*
X184216723Y-103560476D01*
X184216723Y-103560476D02*
X184311961Y-103608095D01*
X184311961Y-103608095D02*
X184407200Y-103703333D01*
X184407200Y-103703333D02*
X184454819Y-103846190D01*
X184454819Y-103846190D02*
X184454819Y-104084285D01*
X184454819Y-102560476D02*
X184454819Y-103131904D01*
X184454819Y-102846190D02*
X183454819Y-102846190D01*
X183454819Y-102846190D02*
X183597676Y-102941428D01*
X183597676Y-102941428D02*
X183692914Y-103036666D01*
X183692914Y-103036666D02*
X183740533Y-103131904D01*
X183454819Y-102227142D02*
X183454819Y-101608095D01*
X183454819Y-101608095D02*
X183835771Y-101941428D01*
X183835771Y-101941428D02*
X183835771Y-101798571D01*
X183835771Y-101798571D02*
X183883390Y-101703333D01*
X183883390Y-101703333D02*
X183931009Y-101655714D01*
X183931009Y-101655714D02*
X184026247Y-101608095D01*
X184026247Y-101608095D02*
X184264342Y-101608095D01*
X184264342Y-101608095D02*
X184359580Y-101655714D01*
X184359580Y-101655714D02*
X184407200Y-101703333D01*
X184407200Y-101703333D02*
X184454819Y-101798571D01*
X184454819Y-101798571D02*
X184454819Y-102084285D01*
X184454819Y-102084285D02*
X184407200Y-102179523D01*
X184407200Y-102179523D02*
X184359580Y-102227142D01*
X168579819Y-91384285D02*
X167579819Y-91384285D01*
X167579819Y-91384285D02*
X167579819Y-91146190D01*
X167579819Y-91146190D02*
X167627438Y-91003333D01*
X167627438Y-91003333D02*
X167722676Y-90908095D01*
X167722676Y-90908095D02*
X167817914Y-90860476D01*
X167817914Y-90860476D02*
X168008390Y-90812857D01*
X168008390Y-90812857D02*
X168151247Y-90812857D01*
X168151247Y-90812857D02*
X168341723Y-90860476D01*
X168341723Y-90860476D02*
X168436961Y-90908095D01*
X168436961Y-90908095D02*
X168532200Y-91003333D01*
X168532200Y-91003333D02*
X168579819Y-91146190D01*
X168579819Y-91146190D02*
X168579819Y-91384285D01*
X168579819Y-89860476D02*
X168579819Y-90431904D01*
X168579819Y-90146190D02*
X167579819Y-90146190D01*
X167579819Y-90146190D02*
X167722676Y-90241428D01*
X167722676Y-90241428D02*
X167817914Y-90336666D01*
X167817914Y-90336666D02*
X167865533Y-90431904D01*
X167675057Y-89479523D02*
X167627438Y-89431904D01*
X167627438Y-89431904D02*
X167579819Y-89336666D01*
X167579819Y-89336666D02*
X167579819Y-89098571D01*
X167579819Y-89098571D02*
X167627438Y-89003333D01*
X167627438Y-89003333D02*
X167675057Y-88955714D01*
X167675057Y-88955714D02*
X167770295Y-88908095D01*
X167770295Y-88908095D02*
X167865533Y-88908095D01*
X167865533Y-88908095D02*
X168008390Y-88955714D01*
X168008390Y-88955714D02*
X168579819Y-89527142D01*
X168579819Y-89527142D02*
X168579819Y-88908095D01*
X152704819Y-104084285D02*
X151704819Y-104084285D01*
X151704819Y-104084285D02*
X151704819Y-103846190D01*
X151704819Y-103846190D02*
X151752438Y-103703333D01*
X151752438Y-103703333D02*
X151847676Y-103608095D01*
X151847676Y-103608095D02*
X151942914Y-103560476D01*
X151942914Y-103560476D02*
X152133390Y-103512857D01*
X152133390Y-103512857D02*
X152276247Y-103512857D01*
X152276247Y-103512857D02*
X152466723Y-103560476D01*
X152466723Y-103560476D02*
X152561961Y-103608095D01*
X152561961Y-103608095D02*
X152657200Y-103703333D01*
X152657200Y-103703333D02*
X152704819Y-103846190D01*
X152704819Y-103846190D02*
X152704819Y-104084285D01*
X152704819Y-102560476D02*
X152704819Y-103131904D01*
X152704819Y-102846190D02*
X151704819Y-102846190D01*
X151704819Y-102846190D02*
X151847676Y-102941428D01*
X151847676Y-102941428D02*
X151942914Y-103036666D01*
X151942914Y-103036666D02*
X151990533Y-103131904D01*
X152704819Y-101608095D02*
X152704819Y-102179523D01*
X152704819Y-101893809D02*
X151704819Y-101893809D01*
X151704819Y-101893809D02*
X151847676Y-101989047D01*
X151847676Y-101989047D02*
X151942914Y-102084285D01*
X151942914Y-102084285D02*
X151990533Y-102179523D01*
X73329819Y-90908094D02*
X72329819Y-90908094D01*
X72329819Y-90908094D02*
X72329819Y-90669999D01*
X72329819Y-90669999D02*
X72377438Y-90527142D01*
X72377438Y-90527142D02*
X72472676Y-90431904D01*
X72472676Y-90431904D02*
X72567914Y-90384285D01*
X72567914Y-90384285D02*
X72758390Y-90336666D01*
X72758390Y-90336666D02*
X72901247Y-90336666D01*
X72901247Y-90336666D02*
X73091723Y-90384285D01*
X73091723Y-90384285D02*
X73186961Y-90431904D01*
X73186961Y-90431904D02*
X73282200Y-90527142D01*
X73282200Y-90527142D02*
X73329819Y-90669999D01*
X73329819Y-90669999D02*
X73329819Y-90908094D01*
X72329819Y-90003332D02*
X72329819Y-89384285D01*
X72329819Y-89384285D02*
X72710771Y-89717618D01*
X72710771Y-89717618D02*
X72710771Y-89574761D01*
X72710771Y-89574761D02*
X72758390Y-89479523D01*
X72758390Y-89479523D02*
X72806009Y-89431904D01*
X72806009Y-89431904D02*
X72901247Y-89384285D01*
X72901247Y-89384285D02*
X73139342Y-89384285D01*
X73139342Y-89384285D02*
X73234580Y-89431904D01*
X73234580Y-89431904D02*
X73282200Y-89479523D01*
X73282200Y-89479523D02*
X73329819Y-89574761D01*
X73329819Y-89574761D02*
X73329819Y-89860475D01*
X73329819Y-89860475D02*
X73282200Y-89955713D01*
X73282200Y-89955713D02*
X73234580Y-90003332D01*
X136829819Y-116308094D02*
X135829819Y-116308094D01*
X135829819Y-116308094D02*
X135829819Y-116069999D01*
X135829819Y-116069999D02*
X135877438Y-115927142D01*
X135877438Y-115927142D02*
X135972676Y-115831904D01*
X135972676Y-115831904D02*
X136067914Y-115784285D01*
X136067914Y-115784285D02*
X136258390Y-115736666D01*
X136258390Y-115736666D02*
X136401247Y-115736666D01*
X136401247Y-115736666D02*
X136591723Y-115784285D01*
X136591723Y-115784285D02*
X136686961Y-115831904D01*
X136686961Y-115831904D02*
X136782200Y-115927142D01*
X136782200Y-115927142D02*
X136829819Y-116069999D01*
X136829819Y-116069999D02*
X136829819Y-116308094D01*
X135829819Y-115403332D02*
X135829819Y-114736666D01*
X135829819Y-114736666D02*
X136829819Y-115165237D01*
X89204819Y-103608094D02*
X88204819Y-103608094D01*
X88204819Y-103608094D02*
X88204819Y-103369999D01*
X88204819Y-103369999D02*
X88252438Y-103227142D01*
X88252438Y-103227142D02*
X88347676Y-103131904D01*
X88347676Y-103131904D02*
X88442914Y-103084285D01*
X88442914Y-103084285D02*
X88633390Y-103036666D01*
X88633390Y-103036666D02*
X88776247Y-103036666D01*
X88776247Y-103036666D02*
X88966723Y-103084285D01*
X88966723Y-103084285D02*
X89061961Y-103131904D01*
X89061961Y-103131904D02*
X89157200Y-103227142D01*
X89157200Y-103227142D02*
X89204819Y-103369999D01*
X89204819Y-103369999D02*
X89204819Y-103608094D01*
X88204819Y-102131904D02*
X88204819Y-102608094D01*
X88204819Y-102608094D02*
X88681009Y-102655713D01*
X88681009Y-102655713D02*
X88633390Y-102608094D01*
X88633390Y-102608094D02*
X88585771Y-102512856D01*
X88585771Y-102512856D02*
X88585771Y-102274761D01*
X88585771Y-102274761D02*
X88633390Y-102179523D01*
X88633390Y-102179523D02*
X88681009Y-102131904D01*
X88681009Y-102131904D02*
X88776247Y-102084285D01*
X88776247Y-102084285D02*
X89014342Y-102084285D01*
X89014342Y-102084285D02*
X89109580Y-102131904D01*
X89109580Y-102131904D02*
X89157200Y-102179523D01*
X89157200Y-102179523D02*
X89204819Y-102274761D01*
X89204819Y-102274761D02*
X89204819Y-102512856D01*
X89204819Y-102512856D02*
X89157200Y-102608094D01*
X89157200Y-102608094D02*
X89109580Y-102655713D01*
X136829819Y-90908094D02*
X135829819Y-90908094D01*
X135829819Y-90908094D02*
X135829819Y-90669999D01*
X135829819Y-90669999D02*
X135877438Y-90527142D01*
X135877438Y-90527142D02*
X135972676Y-90431904D01*
X135972676Y-90431904D02*
X136067914Y-90384285D01*
X136067914Y-90384285D02*
X136258390Y-90336666D01*
X136258390Y-90336666D02*
X136401247Y-90336666D01*
X136401247Y-90336666D02*
X136591723Y-90384285D01*
X136591723Y-90384285D02*
X136686961Y-90431904D01*
X136686961Y-90431904D02*
X136782200Y-90527142D01*
X136782200Y-90527142D02*
X136829819Y-90669999D01*
X136829819Y-90669999D02*
X136829819Y-90908094D01*
X136829819Y-89860475D02*
X136829819Y-89669999D01*
X136829819Y-89669999D02*
X136782200Y-89574761D01*
X136782200Y-89574761D02*
X136734580Y-89527142D01*
X136734580Y-89527142D02*
X136591723Y-89431904D01*
X136591723Y-89431904D02*
X136401247Y-89384285D01*
X136401247Y-89384285D02*
X136020295Y-89384285D01*
X136020295Y-89384285D02*
X135925057Y-89431904D01*
X135925057Y-89431904D02*
X135877438Y-89479523D01*
X135877438Y-89479523D02*
X135829819Y-89574761D01*
X135829819Y-89574761D02*
X135829819Y-89765237D01*
X135829819Y-89765237D02*
X135877438Y-89860475D01*
X135877438Y-89860475D02*
X135925057Y-89908094D01*
X135925057Y-89908094D02*
X136020295Y-89955713D01*
X136020295Y-89955713D02*
X136258390Y-89955713D01*
X136258390Y-89955713D02*
X136353628Y-89908094D01*
X136353628Y-89908094D02*
X136401247Y-89860475D01*
X136401247Y-89860475D02*
X136448866Y-89765237D01*
X136448866Y-89765237D02*
X136448866Y-89574761D01*
X136448866Y-89574761D02*
X136401247Y-89479523D01*
X136401247Y-89479523D02*
X136353628Y-89431904D01*
X136353628Y-89431904D02*
X136258390Y-89384285D01*
X73329819Y-116308094D02*
X72329819Y-116308094D01*
X72329819Y-116308094D02*
X72329819Y-116069999D01*
X72329819Y-116069999D02*
X72377438Y-115927142D01*
X72377438Y-115927142D02*
X72472676Y-115831904D01*
X72472676Y-115831904D02*
X72567914Y-115784285D01*
X72567914Y-115784285D02*
X72758390Y-115736666D01*
X72758390Y-115736666D02*
X72901247Y-115736666D01*
X72901247Y-115736666D02*
X73091723Y-115784285D01*
X73091723Y-115784285D02*
X73186961Y-115831904D01*
X73186961Y-115831904D02*
X73282200Y-115927142D01*
X73282200Y-115927142D02*
X73329819Y-116069999D01*
X73329819Y-116069999D02*
X73329819Y-116308094D01*
X72663152Y-114879523D02*
X73329819Y-114879523D01*
X72282200Y-115117618D02*
X72996485Y-115355713D01*
X72996485Y-115355713D02*
X72996485Y-114736666D01*
X105079819Y-90908094D02*
X104079819Y-90908094D01*
X104079819Y-90908094D02*
X104079819Y-90669999D01*
X104079819Y-90669999D02*
X104127438Y-90527142D01*
X104127438Y-90527142D02*
X104222676Y-90431904D01*
X104222676Y-90431904D02*
X104317914Y-90384285D01*
X104317914Y-90384285D02*
X104508390Y-90336666D01*
X104508390Y-90336666D02*
X104651247Y-90336666D01*
X104651247Y-90336666D02*
X104841723Y-90384285D01*
X104841723Y-90384285D02*
X104936961Y-90431904D01*
X104936961Y-90431904D02*
X105032200Y-90527142D01*
X105032200Y-90527142D02*
X105079819Y-90669999D01*
X105079819Y-90669999D02*
X105079819Y-90908094D01*
X104079819Y-89479523D02*
X104079819Y-89669999D01*
X104079819Y-89669999D02*
X104127438Y-89765237D01*
X104127438Y-89765237D02*
X104175057Y-89812856D01*
X104175057Y-89812856D02*
X104317914Y-89908094D01*
X104317914Y-89908094D02*
X104508390Y-89955713D01*
X104508390Y-89955713D02*
X104889342Y-89955713D01*
X104889342Y-89955713D02*
X104984580Y-89908094D01*
X104984580Y-89908094D02*
X105032200Y-89860475D01*
X105032200Y-89860475D02*
X105079819Y-89765237D01*
X105079819Y-89765237D02*
X105079819Y-89574761D01*
X105079819Y-89574761D02*
X105032200Y-89479523D01*
X105032200Y-89479523D02*
X104984580Y-89431904D01*
X104984580Y-89431904D02*
X104889342Y-89384285D01*
X104889342Y-89384285D02*
X104651247Y-89384285D01*
X104651247Y-89384285D02*
X104556009Y-89431904D01*
X104556009Y-89431904D02*
X104508390Y-89479523D01*
X104508390Y-89479523D02*
X104460771Y-89574761D01*
X104460771Y-89574761D02*
X104460771Y-89765237D01*
X104460771Y-89765237D02*
X104508390Y-89860475D01*
X104508390Y-89860475D02*
X104556009Y-89908094D01*
X104556009Y-89908094D02*
X104651247Y-89955713D01*
X168579819Y-116784285D02*
X167579819Y-116784285D01*
X167579819Y-116784285D02*
X167579819Y-116546190D01*
X167579819Y-116546190D02*
X167627438Y-116403333D01*
X167627438Y-116403333D02*
X167722676Y-116308095D01*
X167722676Y-116308095D02*
X167817914Y-116260476D01*
X167817914Y-116260476D02*
X168008390Y-116212857D01*
X168008390Y-116212857D02*
X168151247Y-116212857D01*
X168151247Y-116212857D02*
X168341723Y-116260476D01*
X168341723Y-116260476D02*
X168436961Y-116308095D01*
X168436961Y-116308095D02*
X168532200Y-116403333D01*
X168532200Y-116403333D02*
X168579819Y-116546190D01*
X168579819Y-116546190D02*
X168579819Y-116784285D01*
X168579819Y-115260476D02*
X168579819Y-115831904D01*
X168579819Y-115546190D02*
X167579819Y-115546190D01*
X167579819Y-115546190D02*
X167722676Y-115641428D01*
X167722676Y-115641428D02*
X167817914Y-115736666D01*
X167817914Y-115736666D02*
X167865533Y-115831904D01*
X167579819Y-114641428D02*
X167579819Y-114546190D01*
X167579819Y-114546190D02*
X167627438Y-114450952D01*
X167627438Y-114450952D02*
X167675057Y-114403333D01*
X167675057Y-114403333D02*
X167770295Y-114355714D01*
X167770295Y-114355714D02*
X167960771Y-114308095D01*
X167960771Y-114308095D02*
X168198866Y-114308095D01*
X168198866Y-114308095D02*
X168389342Y-114355714D01*
X168389342Y-114355714D02*
X168484580Y-114403333D01*
X168484580Y-114403333D02*
X168532200Y-114450952D01*
X168532200Y-114450952D02*
X168579819Y-114546190D01*
X168579819Y-114546190D02*
X168579819Y-114641428D01*
X168579819Y-114641428D02*
X168532200Y-114736666D01*
X168532200Y-114736666D02*
X168484580Y-114784285D01*
X168484580Y-114784285D02*
X168389342Y-114831904D01*
X168389342Y-114831904D02*
X168198866Y-114879523D01*
X168198866Y-114879523D02*
X167960771Y-114879523D01*
X167960771Y-114879523D02*
X167770295Y-114831904D01*
X167770295Y-114831904D02*
X167675057Y-114784285D01*
X167675057Y-114784285D02*
X167627438Y-114736666D01*
X167627438Y-114736666D02*
X167579819Y-114641428D01*
X105079819Y-116308094D02*
X104079819Y-116308094D01*
X104079819Y-116308094D02*
X104079819Y-116069999D01*
X104079819Y-116069999D02*
X104127438Y-115927142D01*
X104127438Y-115927142D02*
X104222676Y-115831904D01*
X104222676Y-115831904D02*
X104317914Y-115784285D01*
X104317914Y-115784285D02*
X104508390Y-115736666D01*
X104508390Y-115736666D02*
X104651247Y-115736666D01*
X104651247Y-115736666D02*
X104841723Y-115784285D01*
X104841723Y-115784285D02*
X104936961Y-115831904D01*
X104936961Y-115831904D02*
X105032200Y-115927142D01*
X105032200Y-115927142D02*
X105079819Y-116069999D01*
X105079819Y-116069999D02*
X105079819Y-116308094D01*
X104175057Y-115355713D02*
X104127438Y-115308094D01*
X104127438Y-115308094D02*
X104079819Y-115212856D01*
X104079819Y-115212856D02*
X104079819Y-114974761D01*
X104079819Y-114974761D02*
X104127438Y-114879523D01*
X104127438Y-114879523D02*
X104175057Y-114831904D01*
X104175057Y-114831904D02*
X104270295Y-114784285D01*
X104270295Y-114784285D02*
X104365533Y-114784285D01*
X104365533Y-114784285D02*
X104508390Y-114831904D01*
X104508390Y-114831904D02*
X105079819Y-115403332D01*
X105079819Y-115403332D02*
X105079819Y-114784285D01*
X120954819Y-103608094D02*
X119954819Y-103608094D01*
X119954819Y-103608094D02*
X119954819Y-103369999D01*
X119954819Y-103369999D02*
X120002438Y-103227142D01*
X120002438Y-103227142D02*
X120097676Y-103131904D01*
X120097676Y-103131904D02*
X120192914Y-103084285D01*
X120192914Y-103084285D02*
X120383390Y-103036666D01*
X120383390Y-103036666D02*
X120526247Y-103036666D01*
X120526247Y-103036666D02*
X120716723Y-103084285D01*
X120716723Y-103084285D02*
X120811961Y-103131904D01*
X120811961Y-103131904D02*
X120907200Y-103227142D01*
X120907200Y-103227142D02*
X120954819Y-103369999D01*
X120954819Y-103369999D02*
X120954819Y-103608094D01*
X120383390Y-102465237D02*
X120335771Y-102560475D01*
X120335771Y-102560475D02*
X120288152Y-102608094D01*
X120288152Y-102608094D02*
X120192914Y-102655713D01*
X120192914Y-102655713D02*
X120145295Y-102655713D01*
X120145295Y-102655713D02*
X120050057Y-102608094D01*
X120050057Y-102608094D02*
X120002438Y-102560475D01*
X120002438Y-102560475D02*
X119954819Y-102465237D01*
X119954819Y-102465237D02*
X119954819Y-102274761D01*
X119954819Y-102274761D02*
X120002438Y-102179523D01*
X120002438Y-102179523D02*
X120050057Y-102131904D01*
X120050057Y-102131904D02*
X120145295Y-102084285D01*
X120145295Y-102084285D02*
X120192914Y-102084285D01*
X120192914Y-102084285D02*
X120288152Y-102131904D01*
X120288152Y-102131904D02*
X120335771Y-102179523D01*
X120335771Y-102179523D02*
X120383390Y-102274761D01*
X120383390Y-102274761D02*
X120383390Y-102465237D01*
X120383390Y-102465237D02*
X120431009Y-102560475D01*
X120431009Y-102560475D02*
X120478628Y-102608094D01*
X120478628Y-102608094D02*
X120573866Y-102655713D01*
X120573866Y-102655713D02*
X120764342Y-102655713D01*
X120764342Y-102655713D02*
X120859580Y-102608094D01*
X120859580Y-102608094D02*
X120907200Y-102560475D01*
X120907200Y-102560475D02*
X120954819Y-102465237D01*
X120954819Y-102465237D02*
X120954819Y-102274761D01*
X120954819Y-102274761D02*
X120907200Y-102179523D01*
X120907200Y-102179523D02*
X120859580Y-102131904D01*
X120859580Y-102131904D02*
X120764342Y-102084285D01*
X120764342Y-102084285D02*
X120573866Y-102084285D01*
X120573866Y-102084285D02*
X120478628Y-102131904D01*
X120478628Y-102131904D02*
X120431009Y-102179523D01*
X120431009Y-102179523D02*
X120383390Y-102274761D01*
D11*
%TO.C,D1*%
X59415000Y-105430000D02*
X62505000Y-105430000D01*
X60960462Y-99880001D02*
G75*
G03*
X59415170Y-105429999I-462J-2989999D01*
G01*
X62504830Y-105430000D02*
G75*
G03*
X60959538Y-99880000I-1544830J2560000D01*
G01*
X63460000Y-102870000D02*
G75*
G03*
X58460000Y-102870000I-2500000J0D01*
G01*
X58460000Y-102870000D02*
G75*
G03*
X63460000Y-102870000I2500000J0D01*
G01*
%TO.C,D13*%
X186415000Y-105430000D02*
X189505000Y-105430000D01*
X187960462Y-99880001D02*
G75*
G03*
X186415170Y-105429999I-462J-2989999D01*
G01*
X189504830Y-105430000D02*
G75*
G03*
X187959538Y-99880000I-1544830J2560000D01*
G01*
X190460000Y-102870000D02*
G75*
G03*
X185460000Y-102870000I-2500000J0D01*
G01*
X185460000Y-102870000D02*
G75*
G03*
X190460000Y-102870000I2500000J0D01*
G01*
%TO.C,D12*%
X170540000Y-92730000D02*
X173630000Y-92730000D01*
X172085462Y-87180001D02*
G75*
G03*
X170540170Y-92729999I-462J-2989999D01*
G01*
X173629830Y-92730000D02*
G75*
G03*
X172084538Y-87180000I-1544830J2560000D01*
G01*
X174585000Y-90170000D02*
G75*
G03*
X169585000Y-90170000I-2500000J0D01*
G01*
X169585000Y-90170000D02*
G75*
G03*
X174585000Y-90170000I2500000J0D01*
G01*
%TO.C,D11*%
X154665000Y-105430000D02*
X157755000Y-105430000D01*
X156210462Y-99880001D02*
G75*
G03*
X154665170Y-105429999I-462J-2989999D01*
G01*
X157754830Y-105430000D02*
G75*
G03*
X156209538Y-99880000I-1544830J2560000D01*
G01*
X158710000Y-102870000D02*
G75*
G03*
X153710000Y-102870000I-2500000J0D01*
G01*
X153710000Y-102870000D02*
G75*
G03*
X158710000Y-102870000I2500000J0D01*
G01*
%TO.C,D3*%
X75290000Y-92730000D02*
X78380000Y-92730000D01*
X76835462Y-87180001D02*
G75*
G03*
X75290170Y-92729999I-462J-2989999D01*
G01*
X78379830Y-92730000D02*
G75*
G03*
X76834538Y-87180000I-1544830J2560000D01*
G01*
X79335000Y-90170000D02*
G75*
G03*
X74335000Y-90170000I-2500000J0D01*
G01*
X74335000Y-90170000D02*
G75*
G03*
X79335000Y-90170000I2500000J0D01*
G01*
%TO.C,D7*%
X138790000Y-118130000D02*
X141880000Y-118130000D01*
X140335462Y-112580001D02*
G75*
G03*
X138790170Y-118129999I-462J-2989999D01*
G01*
X141879830Y-118130000D02*
G75*
G03*
X140334538Y-112580000I-1544830J2560000D01*
G01*
X142835000Y-115570000D02*
G75*
G03*
X137835000Y-115570000I-2500000J0D01*
G01*
X137835000Y-115570000D02*
G75*
G03*
X142835000Y-115570000I2500000J0D01*
G01*
%TO.C,D5*%
X91165000Y-105430000D02*
X94255000Y-105430000D01*
X92710462Y-99880001D02*
G75*
G03*
X91165170Y-105429999I-462J-2989999D01*
G01*
X94254830Y-105430000D02*
G75*
G03*
X92709538Y-99880000I-1544830J2560000D01*
G01*
X95210000Y-102870000D02*
G75*
G03*
X90210000Y-102870000I-2500000J0D01*
G01*
X90210000Y-102870000D02*
G75*
G03*
X95210000Y-102870000I2500000J0D01*
G01*
%TO.C,D9*%
X138790000Y-92730000D02*
X141880000Y-92730000D01*
X140335462Y-87180001D02*
G75*
G03*
X138790170Y-92729999I-462J-2989999D01*
G01*
X141879830Y-92730000D02*
G75*
G03*
X140334538Y-87180000I-1544830J2560000D01*
G01*
X142835000Y-90170000D02*
G75*
G03*
X137835000Y-90170000I-2500000J0D01*
G01*
X137835000Y-90170000D02*
G75*
G03*
X142835000Y-90170000I2500000J0D01*
G01*
%TO.C,D4*%
X75290000Y-118130000D02*
X78380000Y-118130000D01*
X76835462Y-112580001D02*
G75*
G03*
X75290170Y-118129999I-462J-2989999D01*
G01*
X78379830Y-118130000D02*
G75*
G03*
X76834538Y-112580000I-1544830J2560000D01*
G01*
X79335000Y-115570000D02*
G75*
G03*
X74335000Y-115570000I-2500000J0D01*
G01*
X74335000Y-115570000D02*
G75*
G03*
X79335000Y-115570000I2500000J0D01*
G01*
%TO.C,D6*%
X107040000Y-92730000D02*
X110130000Y-92730000D01*
X108585462Y-87180001D02*
G75*
G03*
X107040170Y-92729999I-462J-2989999D01*
G01*
X110129830Y-92730000D02*
G75*
G03*
X108584538Y-87180000I-1544830J2560000D01*
G01*
X111085000Y-90170000D02*
G75*
G03*
X106085000Y-90170000I-2500000J0D01*
G01*
X106085000Y-90170000D02*
G75*
G03*
X111085000Y-90170000I2500000J0D01*
G01*
%TO.C,D10*%
X170540000Y-118130000D02*
X173630000Y-118130000D01*
X172085462Y-112580001D02*
G75*
G03*
X170540170Y-118129999I-462J-2989999D01*
G01*
X173629830Y-118130000D02*
G75*
G03*
X172084538Y-112580000I-1544830J2560000D01*
G01*
X174585000Y-115570000D02*
G75*
G03*
X169585000Y-115570000I-2500000J0D01*
G01*
X169585000Y-115570000D02*
G75*
G03*
X174585000Y-115570000I2500000J0D01*
G01*
%TO.C,D2*%
X107040000Y-118130000D02*
X110130000Y-118130000D01*
X108585462Y-112580001D02*
G75*
G03*
X107040170Y-118129999I-462J-2989999D01*
G01*
X110129830Y-118130000D02*
G75*
G03*
X108584538Y-112580000I-1544830J2560000D01*
G01*
X111085000Y-115570000D02*
G75*
G03*
X106085000Y-115570000I-2500000J0D01*
G01*
X106085000Y-115570000D02*
G75*
G03*
X111085000Y-115570000I2500000J0D01*
G01*
%TO.C,D8*%
X122915000Y-105430000D02*
X126005000Y-105430000D01*
X124460462Y-99880001D02*
G75*
G03*
X122915170Y-105429999I-462J-2989999D01*
G01*
X126004830Y-105430000D02*
G75*
G03*
X124459538Y-99880000I-1544830J2560000D01*
G01*
X126960000Y-102870000D02*
G75*
G03*
X121960000Y-102870000I-2500000J0D01*
G01*
X121960000Y-102870000D02*
G75*
G03*
X126960000Y-102870000I2500000J0D01*
G01*
%TD*%
%LPC*%
D12*
%TO.C,D1*%
X60960000Y-104140000D03*
D13*
X60960000Y-101600000D03*
%TD*%
D14*
%TO.C,REF\u002A\u002A*%
X170180000Y-102870000D03*
%TD*%
D12*
%TO.C,D13*%
X187960000Y-104140000D03*
D13*
X187960000Y-101600000D03*
%TD*%
D12*
%TO.C,D12*%
X172085000Y-91440000D03*
D13*
X172085000Y-88900000D03*
%TD*%
D12*
%TO.C,D11*%
X156210000Y-104140000D03*
D13*
X156210000Y-101600000D03*
%TD*%
D12*
%TO.C,D3*%
X76835000Y-91440000D03*
D13*
X76835000Y-88900000D03*
%TD*%
D12*
%TO.C,D7*%
X140335000Y-116840000D03*
D13*
X140335000Y-114300000D03*
%TD*%
D12*
%TO.C,D5*%
X92710000Y-104140000D03*
D13*
X92710000Y-101600000D03*
%TD*%
D12*
%TO.C,D9*%
X140335000Y-91440000D03*
D13*
X140335000Y-88900000D03*
%TD*%
D12*
%TO.C,D4*%
X76835000Y-116840000D03*
D13*
X76835000Y-114300000D03*
%TD*%
D14*
%TO.C,REF\u002A\u002A*%
X74930000Y-102870000D03*
%TD*%
D12*
%TO.C,D6*%
X108585000Y-91440000D03*
D13*
X108585000Y-88900000D03*
%TD*%
D12*
%TO.C,D10*%
X172085000Y-116840000D03*
D13*
X172085000Y-114300000D03*
%TD*%
D12*
%TO.C,D2*%
X108585000Y-116840000D03*
D13*
X108585000Y-114300000D03*
%TD*%
D12*
%TO.C,D8*%
X124460000Y-104140000D03*
D13*
X124460000Y-101600000D03*
%TD*%
D15*
%TO.C,J1*%
X183515000Y-95885000D03*
X180975000Y-95885000D03*
X178435000Y-95885000D03*
%TD*%
D16*
%TO.C,Q1*%
X178174500Y-101600000D03*
D17*
X178174500Y-104140000D03*
X178174500Y-106680000D03*
%TD*%
%LPD*%
M02*
