%TF.GenerationSoftware,KiCad,Pcbnew,7.0.10*%
%TF.CreationDate,2024-10-31T16:24:40-04:00*%
%TF.ProjectId,segment,7365676d-656e-4742-9e6b-696361645f70,rev?*%
%TF.SameCoordinates,Original*%
%TF.FileFunction,Drillmap*%
%TF.FilePolarity,Positive*%
%FSLAX45Y45*%
G04 Gerber Fmt 4.5, Leading zero omitted, Abs format (unit mm)*
G04 Created by KiCad (PCBNEW 7.0.10) date 2024-10-31 16:24:40*
%MOMM*%
%LPD*%
G01*
G04 APERTURE LIST*
%ADD10C,0.100000*%
%ADD11C,0.200000*%
%ADD12C,0.110000*%
%ADD13C,0.134000*%
G04 APERTURE END LIST*
D10*
X19177000Y-9969500D02*
X19177000Y-10604500D01*
X17526000Y-11938000D01*
X7366000Y-11943000D01*
X5715000Y-10604500D01*
X5715000Y-9969500D01*
X7366000Y-8636000D01*
X17526000Y-8636000D01*
X19177000Y-9969500D01*
D11*
D10*
X6051000Y-10115000D02*
X6141000Y-10205000D01*
X6141000Y-10115000D02*
X6051000Y-10205000D01*
X6051000Y-10369000D02*
X6141000Y-10459000D01*
X6141000Y-10369000D02*
X6051000Y-10459000D01*
X7638500Y-8845000D02*
X7728500Y-8935000D01*
X7728500Y-8845000D02*
X7638500Y-8935000D01*
X7638500Y-9099000D02*
X7728500Y-9189000D01*
X7728500Y-9099000D02*
X7638500Y-9189000D01*
X7638500Y-11385000D02*
X7728500Y-11475000D01*
X7728500Y-11385000D02*
X7638500Y-11475000D01*
X7638500Y-11639000D02*
X7728500Y-11729000D01*
X7728500Y-11639000D02*
X7638500Y-11729000D01*
X9226000Y-10115000D02*
X9316000Y-10205000D01*
X9316000Y-10115000D02*
X9226000Y-10205000D01*
X9226000Y-10369000D02*
X9316000Y-10459000D01*
X9316000Y-10369000D02*
X9226000Y-10459000D01*
X10813500Y-8845000D02*
X10903500Y-8935000D01*
X10903500Y-8845000D02*
X10813500Y-8935000D01*
X10813500Y-9099000D02*
X10903500Y-9189000D01*
X10903500Y-9099000D02*
X10813500Y-9189000D01*
X10813500Y-11385000D02*
X10903500Y-11475000D01*
X10903500Y-11385000D02*
X10813500Y-11475000D01*
X10813500Y-11639000D02*
X10903500Y-11729000D01*
X10903500Y-11639000D02*
X10813500Y-11729000D01*
X12401000Y-10115000D02*
X12491000Y-10205000D01*
X12491000Y-10115000D02*
X12401000Y-10205000D01*
X12401000Y-10369000D02*
X12491000Y-10459000D01*
X12491000Y-10369000D02*
X12401000Y-10459000D01*
X13988500Y-8845000D02*
X14078500Y-8935000D01*
X14078500Y-8845000D02*
X13988500Y-8935000D01*
X13988500Y-9099000D02*
X14078500Y-9189000D01*
X14078500Y-9099000D02*
X13988500Y-9189000D01*
X13988500Y-11385000D02*
X14078500Y-11475000D01*
X14078500Y-11385000D02*
X13988500Y-11475000D01*
X13988500Y-11639000D02*
X14078500Y-11729000D01*
X14078500Y-11639000D02*
X13988500Y-11729000D01*
X15576000Y-10115000D02*
X15666000Y-10205000D01*
X15666000Y-10115000D02*
X15576000Y-10205000D01*
X15576000Y-10369000D02*
X15666000Y-10459000D01*
X15666000Y-10369000D02*
X15576000Y-10459000D01*
X17163500Y-8845000D02*
X17253500Y-8935000D01*
X17253500Y-8845000D02*
X17163500Y-8935000D01*
X17163500Y-9099000D02*
X17253500Y-9189000D01*
X17253500Y-9099000D02*
X17163500Y-9189000D01*
X17163500Y-11385000D02*
X17253500Y-11475000D01*
X17253500Y-11385000D02*
X17163500Y-11475000D01*
X17163500Y-11639000D02*
X17253500Y-11729000D01*
X17253500Y-11639000D02*
X17163500Y-11729000D01*
X18751000Y-10115000D02*
X18841000Y-10205000D01*
X18841000Y-10115000D02*
X18751000Y-10205000D01*
X18751000Y-10369000D02*
X18841000Y-10459000D01*
X18841000Y-10369000D02*
X18751000Y-10459000D01*
D12*
X17898500Y-9588500D02*
G75*
G03*
X17788500Y-9588500I-55000J0D01*
G01*
X17788500Y-9588500D02*
G75*
G03*
X17898500Y-9588500I55000J0D01*
G01*
X18152500Y-9588500D02*
G75*
G03*
X18042500Y-9588500I-55000J0D01*
G01*
X18042500Y-9588500D02*
G75*
G03*
X18152500Y-9588500I55000J0D01*
G01*
X18406500Y-9588500D02*
G75*
G03*
X18296500Y-9588500I-55000J0D01*
G01*
X18296500Y-9588500D02*
G75*
G03*
X18406500Y-9588500I55000J0D01*
G01*
D13*
X17817450Y-10093000D02*
X17817450Y-10227000D01*
X17750450Y-10160000D02*
X17884450Y-10160000D01*
X17817450Y-10347000D02*
X17817450Y-10481000D01*
X17750450Y-10414000D02*
X17884450Y-10414000D01*
X17817450Y-10601000D02*
X17817450Y-10735000D01*
X17750450Y-10668000D02*
X17884450Y-10668000D01*
D11*
X5970777Y-12259484D02*
X5970777Y-12059484D01*
X5970777Y-12059484D02*
X6018396Y-12059484D01*
X6018396Y-12059484D02*
X6046967Y-12069008D01*
X6046967Y-12069008D02*
X6066015Y-12088055D01*
X6066015Y-12088055D02*
X6075539Y-12107103D01*
X6075539Y-12107103D02*
X6085062Y-12145198D01*
X6085062Y-12145198D02*
X6085062Y-12173769D01*
X6085062Y-12173769D02*
X6075539Y-12211865D01*
X6075539Y-12211865D02*
X6066015Y-12230912D01*
X6066015Y-12230912D02*
X6046967Y-12249960D01*
X6046967Y-12249960D02*
X6018396Y-12259484D01*
X6018396Y-12259484D02*
X5970777Y-12259484D01*
X6170777Y-12259484D02*
X6170777Y-12126150D01*
X6170777Y-12164246D02*
X6180301Y-12145198D01*
X6180301Y-12145198D02*
X6189824Y-12135674D01*
X6189824Y-12135674D02*
X6208872Y-12126150D01*
X6208872Y-12126150D02*
X6227920Y-12126150D01*
X6294586Y-12259484D02*
X6294586Y-12126150D01*
X6294586Y-12059484D02*
X6285062Y-12069008D01*
X6285062Y-12069008D02*
X6294586Y-12078531D01*
X6294586Y-12078531D02*
X6304110Y-12069008D01*
X6304110Y-12069008D02*
X6294586Y-12059484D01*
X6294586Y-12059484D02*
X6294586Y-12078531D01*
X6418396Y-12259484D02*
X6399348Y-12249960D01*
X6399348Y-12249960D02*
X6389824Y-12230912D01*
X6389824Y-12230912D02*
X6389824Y-12059484D01*
X6523158Y-12259484D02*
X6504110Y-12249960D01*
X6504110Y-12249960D02*
X6494586Y-12230912D01*
X6494586Y-12230912D02*
X6494586Y-12059484D01*
X6751729Y-12259484D02*
X6751729Y-12059484D01*
X6751729Y-12059484D02*
X6818396Y-12202341D01*
X6818396Y-12202341D02*
X6885062Y-12059484D01*
X6885062Y-12059484D02*
X6885062Y-12259484D01*
X7066015Y-12259484D02*
X7066015Y-12154722D01*
X7066015Y-12154722D02*
X7056491Y-12135674D01*
X7056491Y-12135674D02*
X7037443Y-12126150D01*
X7037443Y-12126150D02*
X6999348Y-12126150D01*
X6999348Y-12126150D02*
X6980301Y-12135674D01*
X7066015Y-12249960D02*
X7046967Y-12259484D01*
X7046967Y-12259484D02*
X6999348Y-12259484D01*
X6999348Y-12259484D02*
X6980301Y-12249960D01*
X6980301Y-12249960D02*
X6970777Y-12230912D01*
X6970777Y-12230912D02*
X6970777Y-12211865D01*
X6970777Y-12211865D02*
X6980301Y-12192817D01*
X6980301Y-12192817D02*
X6999348Y-12183293D01*
X6999348Y-12183293D02*
X7046967Y-12183293D01*
X7046967Y-12183293D02*
X7066015Y-12173769D01*
X7161253Y-12126150D02*
X7161253Y-12326150D01*
X7161253Y-12135674D02*
X7180301Y-12126150D01*
X7180301Y-12126150D02*
X7218396Y-12126150D01*
X7218396Y-12126150D02*
X7237443Y-12135674D01*
X7237443Y-12135674D02*
X7246967Y-12145198D01*
X7246967Y-12145198D02*
X7256491Y-12164246D01*
X7256491Y-12164246D02*
X7256491Y-12221388D01*
X7256491Y-12221388D02*
X7246967Y-12240436D01*
X7246967Y-12240436D02*
X7237443Y-12249960D01*
X7237443Y-12249960D02*
X7218396Y-12259484D01*
X7218396Y-12259484D02*
X7180301Y-12259484D01*
X7180301Y-12259484D02*
X7161253Y-12249960D01*
X7342205Y-12240436D02*
X7351729Y-12249960D01*
X7351729Y-12249960D02*
X7342205Y-12259484D01*
X7342205Y-12259484D02*
X7332682Y-12249960D01*
X7332682Y-12249960D02*
X7342205Y-12240436D01*
X7342205Y-12240436D02*
X7342205Y-12259484D01*
X7342205Y-12135674D02*
X7351729Y-12145198D01*
X7351729Y-12145198D02*
X7342205Y-12154722D01*
X7342205Y-12154722D02*
X7332682Y-12145198D01*
X7332682Y-12145198D02*
X7342205Y-12135674D01*
X7342205Y-12135674D02*
X7342205Y-12154722D01*
D10*
X5620000Y-12543000D02*
X5710000Y-12633000D01*
X5710000Y-12543000D02*
X5620000Y-12633000D01*
D11*
X6008872Y-12479484D02*
X6027920Y-12479484D01*
X6027920Y-12479484D02*
X6046967Y-12489008D01*
X6046967Y-12489008D02*
X6056491Y-12498531D01*
X6056491Y-12498531D02*
X6066015Y-12517579D01*
X6066015Y-12517579D02*
X6075539Y-12555674D01*
X6075539Y-12555674D02*
X6075539Y-12603293D01*
X6075539Y-12603293D02*
X6066015Y-12641388D01*
X6066015Y-12641388D02*
X6056491Y-12660436D01*
X6056491Y-12660436D02*
X6046967Y-12669960D01*
X6046967Y-12669960D02*
X6027920Y-12679484D01*
X6027920Y-12679484D02*
X6008872Y-12679484D01*
X6008872Y-12679484D02*
X5989824Y-12669960D01*
X5989824Y-12669960D02*
X5980301Y-12660436D01*
X5980301Y-12660436D02*
X5970777Y-12641388D01*
X5970777Y-12641388D02*
X5961253Y-12603293D01*
X5961253Y-12603293D02*
X5961253Y-12555674D01*
X5961253Y-12555674D02*
X5970777Y-12517579D01*
X5970777Y-12517579D02*
X5980301Y-12498531D01*
X5980301Y-12498531D02*
X5989824Y-12489008D01*
X5989824Y-12489008D02*
X6008872Y-12479484D01*
X6161253Y-12660436D02*
X6170777Y-12669960D01*
X6170777Y-12669960D02*
X6161253Y-12679484D01*
X6161253Y-12679484D02*
X6151729Y-12669960D01*
X6151729Y-12669960D02*
X6161253Y-12660436D01*
X6161253Y-12660436D02*
X6161253Y-12679484D01*
X6266015Y-12679484D02*
X6304110Y-12679484D01*
X6304110Y-12679484D02*
X6323158Y-12669960D01*
X6323158Y-12669960D02*
X6332682Y-12660436D01*
X6332682Y-12660436D02*
X6351729Y-12631865D01*
X6351729Y-12631865D02*
X6361253Y-12593769D01*
X6361253Y-12593769D02*
X6361253Y-12517579D01*
X6361253Y-12517579D02*
X6351729Y-12498531D01*
X6351729Y-12498531D02*
X6342205Y-12489008D01*
X6342205Y-12489008D02*
X6323158Y-12479484D01*
X6323158Y-12479484D02*
X6285062Y-12479484D01*
X6285062Y-12479484D02*
X6266015Y-12489008D01*
X6266015Y-12489008D02*
X6256491Y-12498531D01*
X6256491Y-12498531D02*
X6246967Y-12517579D01*
X6246967Y-12517579D02*
X6246967Y-12565198D01*
X6246967Y-12565198D02*
X6256491Y-12584246D01*
X6256491Y-12584246D02*
X6266015Y-12593769D01*
X6266015Y-12593769D02*
X6285062Y-12603293D01*
X6285062Y-12603293D02*
X6323158Y-12603293D01*
X6323158Y-12603293D02*
X6342205Y-12593769D01*
X6342205Y-12593769D02*
X6351729Y-12584246D01*
X6351729Y-12584246D02*
X6361253Y-12565198D01*
X6485062Y-12479484D02*
X6504110Y-12479484D01*
X6504110Y-12479484D02*
X6523158Y-12489008D01*
X6523158Y-12489008D02*
X6532682Y-12498531D01*
X6532682Y-12498531D02*
X6542205Y-12517579D01*
X6542205Y-12517579D02*
X6551729Y-12555674D01*
X6551729Y-12555674D02*
X6551729Y-12603293D01*
X6551729Y-12603293D02*
X6542205Y-12641388D01*
X6542205Y-12641388D02*
X6532682Y-12660436D01*
X6532682Y-12660436D02*
X6523158Y-12669960D01*
X6523158Y-12669960D02*
X6504110Y-12679484D01*
X6504110Y-12679484D02*
X6485062Y-12679484D01*
X6485062Y-12679484D02*
X6466015Y-12669960D01*
X6466015Y-12669960D02*
X6456491Y-12660436D01*
X6456491Y-12660436D02*
X6446967Y-12641388D01*
X6446967Y-12641388D02*
X6437443Y-12603293D01*
X6437443Y-12603293D02*
X6437443Y-12555674D01*
X6437443Y-12555674D02*
X6446967Y-12517579D01*
X6446967Y-12517579D02*
X6456491Y-12498531D01*
X6456491Y-12498531D02*
X6466015Y-12489008D01*
X6466015Y-12489008D02*
X6485062Y-12479484D01*
X6675539Y-12479484D02*
X6694586Y-12479484D01*
X6694586Y-12479484D02*
X6713634Y-12489008D01*
X6713634Y-12489008D02*
X6723158Y-12498531D01*
X6723158Y-12498531D02*
X6732682Y-12517579D01*
X6732682Y-12517579D02*
X6742205Y-12555674D01*
X6742205Y-12555674D02*
X6742205Y-12603293D01*
X6742205Y-12603293D02*
X6732682Y-12641388D01*
X6732682Y-12641388D02*
X6723158Y-12660436D01*
X6723158Y-12660436D02*
X6713634Y-12669960D01*
X6713634Y-12669960D02*
X6694586Y-12679484D01*
X6694586Y-12679484D02*
X6675539Y-12679484D01*
X6675539Y-12679484D02*
X6656491Y-12669960D01*
X6656491Y-12669960D02*
X6646967Y-12660436D01*
X6646967Y-12660436D02*
X6637443Y-12641388D01*
X6637443Y-12641388D02*
X6627920Y-12603293D01*
X6627920Y-12603293D02*
X6627920Y-12555674D01*
X6627920Y-12555674D02*
X6637443Y-12517579D01*
X6637443Y-12517579D02*
X6646967Y-12498531D01*
X6646967Y-12498531D02*
X6656491Y-12489008D01*
X6656491Y-12489008D02*
X6675539Y-12479484D01*
X6827920Y-12679484D02*
X6827920Y-12546150D01*
X6827920Y-12565198D02*
X6837443Y-12555674D01*
X6837443Y-12555674D02*
X6856491Y-12546150D01*
X6856491Y-12546150D02*
X6885063Y-12546150D01*
X6885063Y-12546150D02*
X6904110Y-12555674D01*
X6904110Y-12555674D02*
X6913634Y-12574722D01*
X6913634Y-12574722D02*
X6913634Y-12679484D01*
X6913634Y-12574722D02*
X6923158Y-12555674D01*
X6923158Y-12555674D02*
X6942205Y-12546150D01*
X6942205Y-12546150D02*
X6970777Y-12546150D01*
X6970777Y-12546150D02*
X6989824Y-12555674D01*
X6989824Y-12555674D02*
X6999348Y-12574722D01*
X6999348Y-12574722D02*
X6999348Y-12679484D01*
X7094586Y-12679484D02*
X7094586Y-12546150D01*
X7094586Y-12565198D02*
X7104110Y-12555674D01*
X7104110Y-12555674D02*
X7123158Y-12546150D01*
X7123158Y-12546150D02*
X7151729Y-12546150D01*
X7151729Y-12546150D02*
X7170777Y-12555674D01*
X7170777Y-12555674D02*
X7180301Y-12574722D01*
X7180301Y-12574722D02*
X7180301Y-12679484D01*
X7180301Y-12574722D02*
X7189824Y-12555674D01*
X7189824Y-12555674D02*
X7208872Y-12546150D01*
X7208872Y-12546150D02*
X7237443Y-12546150D01*
X7237443Y-12546150D02*
X7256491Y-12555674D01*
X7256491Y-12555674D02*
X7266015Y-12574722D01*
X7266015Y-12574722D02*
X7266015Y-12679484D01*
X7656491Y-12469960D02*
X7485063Y-12727103D01*
X7913634Y-12479484D02*
X7932682Y-12479484D01*
X7932682Y-12479484D02*
X7951729Y-12489008D01*
X7951729Y-12489008D02*
X7961253Y-12498531D01*
X7961253Y-12498531D02*
X7970777Y-12517579D01*
X7970777Y-12517579D02*
X7980301Y-12555674D01*
X7980301Y-12555674D02*
X7980301Y-12603293D01*
X7980301Y-12603293D02*
X7970777Y-12641388D01*
X7970777Y-12641388D02*
X7961253Y-12660436D01*
X7961253Y-12660436D02*
X7951729Y-12669960D01*
X7951729Y-12669960D02*
X7932682Y-12679484D01*
X7932682Y-12679484D02*
X7913634Y-12679484D01*
X7913634Y-12679484D02*
X7894586Y-12669960D01*
X7894586Y-12669960D02*
X7885063Y-12660436D01*
X7885063Y-12660436D02*
X7875539Y-12641388D01*
X7875539Y-12641388D02*
X7866015Y-12603293D01*
X7866015Y-12603293D02*
X7866015Y-12555674D01*
X7866015Y-12555674D02*
X7875539Y-12517579D01*
X7875539Y-12517579D02*
X7885063Y-12498531D01*
X7885063Y-12498531D02*
X7894586Y-12489008D01*
X7894586Y-12489008D02*
X7913634Y-12479484D01*
X8066015Y-12660436D02*
X8075539Y-12669960D01*
X8075539Y-12669960D02*
X8066015Y-12679484D01*
X8066015Y-12679484D02*
X8056491Y-12669960D01*
X8056491Y-12669960D02*
X8066015Y-12660436D01*
X8066015Y-12660436D02*
X8066015Y-12679484D01*
X8199348Y-12479484D02*
X8218396Y-12479484D01*
X8218396Y-12479484D02*
X8237444Y-12489008D01*
X8237444Y-12489008D02*
X8246967Y-12498531D01*
X8246967Y-12498531D02*
X8256491Y-12517579D01*
X8256491Y-12517579D02*
X8266015Y-12555674D01*
X8266015Y-12555674D02*
X8266015Y-12603293D01*
X8266015Y-12603293D02*
X8256491Y-12641388D01*
X8256491Y-12641388D02*
X8246967Y-12660436D01*
X8246967Y-12660436D02*
X8237444Y-12669960D01*
X8237444Y-12669960D02*
X8218396Y-12679484D01*
X8218396Y-12679484D02*
X8199348Y-12679484D01*
X8199348Y-12679484D02*
X8180301Y-12669960D01*
X8180301Y-12669960D02*
X8170777Y-12660436D01*
X8170777Y-12660436D02*
X8161253Y-12641388D01*
X8161253Y-12641388D02*
X8151729Y-12603293D01*
X8151729Y-12603293D02*
X8151729Y-12555674D01*
X8151729Y-12555674D02*
X8161253Y-12517579D01*
X8161253Y-12517579D02*
X8170777Y-12498531D01*
X8170777Y-12498531D02*
X8180301Y-12489008D01*
X8180301Y-12489008D02*
X8199348Y-12479484D01*
X8332682Y-12479484D02*
X8456491Y-12479484D01*
X8456491Y-12479484D02*
X8389825Y-12555674D01*
X8389825Y-12555674D02*
X8418396Y-12555674D01*
X8418396Y-12555674D02*
X8437444Y-12565198D01*
X8437444Y-12565198D02*
X8446968Y-12574722D01*
X8446968Y-12574722D02*
X8456491Y-12593769D01*
X8456491Y-12593769D02*
X8456491Y-12641388D01*
X8456491Y-12641388D02*
X8446968Y-12660436D01*
X8446968Y-12660436D02*
X8437444Y-12669960D01*
X8437444Y-12669960D02*
X8418396Y-12679484D01*
X8418396Y-12679484D02*
X8361253Y-12679484D01*
X8361253Y-12679484D02*
X8342206Y-12669960D01*
X8342206Y-12669960D02*
X8332682Y-12660436D01*
X8637444Y-12479484D02*
X8542206Y-12479484D01*
X8542206Y-12479484D02*
X8532682Y-12574722D01*
X8532682Y-12574722D02*
X8542206Y-12565198D01*
X8542206Y-12565198D02*
X8561253Y-12555674D01*
X8561253Y-12555674D02*
X8608872Y-12555674D01*
X8608872Y-12555674D02*
X8627920Y-12565198D01*
X8627920Y-12565198D02*
X8637444Y-12574722D01*
X8637444Y-12574722D02*
X8646968Y-12593769D01*
X8646968Y-12593769D02*
X8646968Y-12641388D01*
X8646968Y-12641388D02*
X8637444Y-12660436D01*
X8637444Y-12660436D02*
X8627920Y-12669960D01*
X8627920Y-12669960D02*
X8608872Y-12679484D01*
X8608872Y-12679484D02*
X8561253Y-12679484D01*
X8561253Y-12679484D02*
X8542206Y-12669960D01*
X8542206Y-12669960D02*
X8532682Y-12660436D01*
X8818396Y-12546150D02*
X8818396Y-12679484D01*
X8770777Y-12469960D02*
X8723158Y-12612817D01*
X8723158Y-12612817D02*
X8846968Y-12612817D01*
X8913634Y-12479484D02*
X8913634Y-12517579D01*
X8989825Y-12479484D02*
X8989825Y-12517579D01*
X9285063Y-12755674D02*
X9275539Y-12746150D01*
X9275539Y-12746150D02*
X9256491Y-12717579D01*
X9256491Y-12717579D02*
X9246968Y-12698531D01*
X9246968Y-12698531D02*
X9237444Y-12669960D01*
X9237444Y-12669960D02*
X9227920Y-12622341D01*
X9227920Y-12622341D02*
X9227920Y-12584246D01*
X9227920Y-12584246D02*
X9237444Y-12536627D01*
X9237444Y-12536627D02*
X9246968Y-12508055D01*
X9246968Y-12508055D02*
X9256491Y-12489008D01*
X9256491Y-12489008D02*
X9275539Y-12460436D01*
X9275539Y-12460436D02*
X9285063Y-12450912D01*
X9351730Y-12498531D02*
X9361253Y-12489008D01*
X9361253Y-12489008D02*
X9380301Y-12479484D01*
X9380301Y-12479484D02*
X9427920Y-12479484D01*
X9427920Y-12479484D02*
X9446968Y-12489008D01*
X9446968Y-12489008D02*
X9456491Y-12498531D01*
X9456491Y-12498531D02*
X9466015Y-12517579D01*
X9466015Y-12517579D02*
X9466015Y-12536627D01*
X9466015Y-12536627D02*
X9456491Y-12565198D01*
X9456491Y-12565198D02*
X9342206Y-12679484D01*
X9342206Y-12679484D02*
X9466015Y-12679484D01*
X9637444Y-12479484D02*
X9599349Y-12479484D01*
X9599349Y-12479484D02*
X9580301Y-12489008D01*
X9580301Y-12489008D02*
X9570777Y-12498531D01*
X9570777Y-12498531D02*
X9551730Y-12527103D01*
X9551730Y-12527103D02*
X9542206Y-12565198D01*
X9542206Y-12565198D02*
X9542206Y-12641388D01*
X9542206Y-12641388D02*
X9551730Y-12660436D01*
X9551730Y-12660436D02*
X9561253Y-12669960D01*
X9561253Y-12669960D02*
X9580301Y-12679484D01*
X9580301Y-12679484D02*
X9618396Y-12679484D01*
X9618396Y-12679484D02*
X9637444Y-12669960D01*
X9637444Y-12669960D02*
X9646968Y-12660436D01*
X9646968Y-12660436D02*
X9656491Y-12641388D01*
X9656491Y-12641388D02*
X9656491Y-12593769D01*
X9656491Y-12593769D02*
X9646968Y-12574722D01*
X9646968Y-12574722D02*
X9637444Y-12565198D01*
X9637444Y-12565198D02*
X9618396Y-12555674D01*
X9618396Y-12555674D02*
X9580301Y-12555674D01*
X9580301Y-12555674D02*
X9561253Y-12565198D01*
X9561253Y-12565198D02*
X9551730Y-12574722D01*
X9551730Y-12574722D02*
X9542206Y-12593769D01*
X9894587Y-12679484D02*
X9894587Y-12479484D01*
X9980301Y-12679484D02*
X9980301Y-12574722D01*
X9980301Y-12574722D02*
X9970777Y-12555674D01*
X9970777Y-12555674D02*
X9951730Y-12546150D01*
X9951730Y-12546150D02*
X9923158Y-12546150D01*
X9923158Y-12546150D02*
X9904111Y-12555674D01*
X9904111Y-12555674D02*
X9894587Y-12565198D01*
X10104111Y-12679484D02*
X10085063Y-12669960D01*
X10085063Y-12669960D02*
X10075539Y-12660436D01*
X10075539Y-12660436D02*
X10066015Y-12641388D01*
X10066015Y-12641388D02*
X10066015Y-12584246D01*
X10066015Y-12584246D02*
X10075539Y-12565198D01*
X10075539Y-12565198D02*
X10085063Y-12555674D01*
X10085063Y-12555674D02*
X10104111Y-12546150D01*
X10104111Y-12546150D02*
X10132682Y-12546150D01*
X10132682Y-12546150D02*
X10151730Y-12555674D01*
X10151730Y-12555674D02*
X10161253Y-12565198D01*
X10161253Y-12565198D02*
X10170777Y-12584246D01*
X10170777Y-12584246D02*
X10170777Y-12641388D01*
X10170777Y-12641388D02*
X10161253Y-12660436D01*
X10161253Y-12660436D02*
X10151730Y-12669960D01*
X10151730Y-12669960D02*
X10132682Y-12679484D01*
X10132682Y-12679484D02*
X10104111Y-12679484D01*
X10285063Y-12679484D02*
X10266015Y-12669960D01*
X10266015Y-12669960D02*
X10256492Y-12650912D01*
X10256492Y-12650912D02*
X10256492Y-12479484D01*
X10437444Y-12669960D02*
X10418396Y-12679484D01*
X10418396Y-12679484D02*
X10380301Y-12679484D01*
X10380301Y-12679484D02*
X10361253Y-12669960D01*
X10361253Y-12669960D02*
X10351730Y-12650912D01*
X10351730Y-12650912D02*
X10351730Y-12574722D01*
X10351730Y-12574722D02*
X10361253Y-12555674D01*
X10361253Y-12555674D02*
X10380301Y-12546150D01*
X10380301Y-12546150D02*
X10418396Y-12546150D01*
X10418396Y-12546150D02*
X10437444Y-12555674D01*
X10437444Y-12555674D02*
X10446968Y-12574722D01*
X10446968Y-12574722D02*
X10446968Y-12593769D01*
X10446968Y-12593769D02*
X10351730Y-12612817D01*
X10523158Y-12669960D02*
X10542206Y-12679484D01*
X10542206Y-12679484D02*
X10580301Y-12679484D01*
X10580301Y-12679484D02*
X10599349Y-12669960D01*
X10599349Y-12669960D02*
X10608873Y-12650912D01*
X10608873Y-12650912D02*
X10608873Y-12641388D01*
X10608873Y-12641388D02*
X10599349Y-12622341D01*
X10599349Y-12622341D02*
X10580301Y-12612817D01*
X10580301Y-12612817D02*
X10551730Y-12612817D01*
X10551730Y-12612817D02*
X10532682Y-12603293D01*
X10532682Y-12603293D02*
X10523158Y-12584246D01*
X10523158Y-12584246D02*
X10523158Y-12574722D01*
X10523158Y-12574722D02*
X10532682Y-12555674D01*
X10532682Y-12555674D02*
X10551730Y-12546150D01*
X10551730Y-12546150D02*
X10580301Y-12546150D01*
X10580301Y-12546150D02*
X10599349Y-12555674D01*
X10675539Y-12755674D02*
X10685063Y-12746150D01*
X10685063Y-12746150D02*
X10704111Y-12717579D01*
X10704111Y-12717579D02*
X10713634Y-12698531D01*
X10713634Y-12698531D02*
X10723158Y-12669960D01*
X10723158Y-12669960D02*
X10732682Y-12622341D01*
X10732682Y-12622341D02*
X10732682Y-12584246D01*
X10732682Y-12584246D02*
X10723158Y-12536627D01*
X10723158Y-12536627D02*
X10713634Y-12508055D01*
X10713634Y-12508055D02*
X10704111Y-12489008D01*
X10704111Y-12489008D02*
X10685063Y-12460436D01*
X10685063Y-12460436D02*
X10675539Y-12450912D01*
D12*
X5710000Y-12852000D02*
G75*
G03*
X5600000Y-12852000I-55000J0D01*
G01*
X5600000Y-12852000D02*
G75*
G03*
X5710000Y-12852000I55000J0D01*
G01*
D11*
X6075539Y-12943484D02*
X5961253Y-12943484D01*
X6018396Y-12943484D02*
X6018396Y-12743484D01*
X6018396Y-12743484D02*
X5999348Y-12772055D01*
X5999348Y-12772055D02*
X5980301Y-12791103D01*
X5980301Y-12791103D02*
X5961253Y-12800627D01*
X6161253Y-12924436D02*
X6170777Y-12933960D01*
X6170777Y-12933960D02*
X6161253Y-12943484D01*
X6161253Y-12943484D02*
X6151729Y-12933960D01*
X6151729Y-12933960D02*
X6161253Y-12924436D01*
X6161253Y-12924436D02*
X6161253Y-12943484D01*
X6361253Y-12943484D02*
X6246967Y-12943484D01*
X6304110Y-12943484D02*
X6304110Y-12743484D01*
X6304110Y-12743484D02*
X6285062Y-12772055D01*
X6285062Y-12772055D02*
X6266015Y-12791103D01*
X6266015Y-12791103D02*
X6246967Y-12800627D01*
X6485062Y-12743484D02*
X6504110Y-12743484D01*
X6504110Y-12743484D02*
X6523158Y-12753008D01*
X6523158Y-12753008D02*
X6532682Y-12762531D01*
X6532682Y-12762531D02*
X6542205Y-12781579D01*
X6542205Y-12781579D02*
X6551729Y-12819674D01*
X6551729Y-12819674D02*
X6551729Y-12867293D01*
X6551729Y-12867293D02*
X6542205Y-12905388D01*
X6542205Y-12905388D02*
X6532682Y-12924436D01*
X6532682Y-12924436D02*
X6523158Y-12933960D01*
X6523158Y-12933960D02*
X6504110Y-12943484D01*
X6504110Y-12943484D02*
X6485062Y-12943484D01*
X6485062Y-12943484D02*
X6466015Y-12933960D01*
X6466015Y-12933960D02*
X6456491Y-12924436D01*
X6456491Y-12924436D02*
X6446967Y-12905388D01*
X6446967Y-12905388D02*
X6437443Y-12867293D01*
X6437443Y-12867293D02*
X6437443Y-12819674D01*
X6437443Y-12819674D02*
X6446967Y-12781579D01*
X6446967Y-12781579D02*
X6456491Y-12762531D01*
X6456491Y-12762531D02*
X6466015Y-12753008D01*
X6466015Y-12753008D02*
X6485062Y-12743484D01*
X6675539Y-12743484D02*
X6694586Y-12743484D01*
X6694586Y-12743484D02*
X6713634Y-12753008D01*
X6713634Y-12753008D02*
X6723158Y-12762531D01*
X6723158Y-12762531D02*
X6732682Y-12781579D01*
X6732682Y-12781579D02*
X6742205Y-12819674D01*
X6742205Y-12819674D02*
X6742205Y-12867293D01*
X6742205Y-12867293D02*
X6732682Y-12905388D01*
X6732682Y-12905388D02*
X6723158Y-12924436D01*
X6723158Y-12924436D02*
X6713634Y-12933960D01*
X6713634Y-12933960D02*
X6694586Y-12943484D01*
X6694586Y-12943484D02*
X6675539Y-12943484D01*
X6675539Y-12943484D02*
X6656491Y-12933960D01*
X6656491Y-12933960D02*
X6646967Y-12924436D01*
X6646967Y-12924436D02*
X6637443Y-12905388D01*
X6637443Y-12905388D02*
X6627920Y-12867293D01*
X6627920Y-12867293D02*
X6627920Y-12819674D01*
X6627920Y-12819674D02*
X6637443Y-12781579D01*
X6637443Y-12781579D02*
X6646967Y-12762531D01*
X6646967Y-12762531D02*
X6656491Y-12753008D01*
X6656491Y-12753008D02*
X6675539Y-12743484D01*
X6827920Y-12943484D02*
X6827920Y-12810150D01*
X6827920Y-12829198D02*
X6837443Y-12819674D01*
X6837443Y-12819674D02*
X6856491Y-12810150D01*
X6856491Y-12810150D02*
X6885063Y-12810150D01*
X6885063Y-12810150D02*
X6904110Y-12819674D01*
X6904110Y-12819674D02*
X6913634Y-12838722D01*
X6913634Y-12838722D02*
X6913634Y-12943484D01*
X6913634Y-12838722D02*
X6923158Y-12819674D01*
X6923158Y-12819674D02*
X6942205Y-12810150D01*
X6942205Y-12810150D02*
X6970777Y-12810150D01*
X6970777Y-12810150D02*
X6989824Y-12819674D01*
X6989824Y-12819674D02*
X6999348Y-12838722D01*
X6999348Y-12838722D02*
X6999348Y-12943484D01*
X7094586Y-12943484D02*
X7094586Y-12810150D01*
X7094586Y-12829198D02*
X7104110Y-12819674D01*
X7104110Y-12819674D02*
X7123158Y-12810150D01*
X7123158Y-12810150D02*
X7151729Y-12810150D01*
X7151729Y-12810150D02*
X7170777Y-12819674D01*
X7170777Y-12819674D02*
X7180301Y-12838722D01*
X7180301Y-12838722D02*
X7180301Y-12943484D01*
X7180301Y-12838722D02*
X7189824Y-12819674D01*
X7189824Y-12819674D02*
X7208872Y-12810150D01*
X7208872Y-12810150D02*
X7237443Y-12810150D01*
X7237443Y-12810150D02*
X7256491Y-12819674D01*
X7256491Y-12819674D02*
X7266015Y-12838722D01*
X7266015Y-12838722D02*
X7266015Y-12943484D01*
X7656491Y-12733960D02*
X7485063Y-12991103D01*
X7913634Y-12743484D02*
X7932682Y-12743484D01*
X7932682Y-12743484D02*
X7951729Y-12753008D01*
X7951729Y-12753008D02*
X7961253Y-12762531D01*
X7961253Y-12762531D02*
X7970777Y-12781579D01*
X7970777Y-12781579D02*
X7980301Y-12819674D01*
X7980301Y-12819674D02*
X7980301Y-12867293D01*
X7980301Y-12867293D02*
X7970777Y-12905388D01*
X7970777Y-12905388D02*
X7961253Y-12924436D01*
X7961253Y-12924436D02*
X7951729Y-12933960D01*
X7951729Y-12933960D02*
X7932682Y-12943484D01*
X7932682Y-12943484D02*
X7913634Y-12943484D01*
X7913634Y-12943484D02*
X7894586Y-12933960D01*
X7894586Y-12933960D02*
X7885063Y-12924436D01*
X7885063Y-12924436D02*
X7875539Y-12905388D01*
X7875539Y-12905388D02*
X7866015Y-12867293D01*
X7866015Y-12867293D02*
X7866015Y-12819674D01*
X7866015Y-12819674D02*
X7875539Y-12781579D01*
X7875539Y-12781579D02*
X7885063Y-12762531D01*
X7885063Y-12762531D02*
X7894586Y-12753008D01*
X7894586Y-12753008D02*
X7913634Y-12743484D01*
X8066015Y-12924436D02*
X8075539Y-12933960D01*
X8075539Y-12933960D02*
X8066015Y-12943484D01*
X8066015Y-12943484D02*
X8056491Y-12933960D01*
X8056491Y-12933960D02*
X8066015Y-12924436D01*
X8066015Y-12924436D02*
X8066015Y-12943484D01*
X8199348Y-12743484D02*
X8218396Y-12743484D01*
X8218396Y-12743484D02*
X8237444Y-12753008D01*
X8237444Y-12753008D02*
X8246967Y-12762531D01*
X8246967Y-12762531D02*
X8256491Y-12781579D01*
X8256491Y-12781579D02*
X8266015Y-12819674D01*
X8266015Y-12819674D02*
X8266015Y-12867293D01*
X8266015Y-12867293D02*
X8256491Y-12905388D01*
X8256491Y-12905388D02*
X8246967Y-12924436D01*
X8246967Y-12924436D02*
X8237444Y-12933960D01*
X8237444Y-12933960D02*
X8218396Y-12943484D01*
X8218396Y-12943484D02*
X8199348Y-12943484D01*
X8199348Y-12943484D02*
X8180301Y-12933960D01*
X8180301Y-12933960D02*
X8170777Y-12924436D01*
X8170777Y-12924436D02*
X8161253Y-12905388D01*
X8161253Y-12905388D02*
X8151729Y-12867293D01*
X8151729Y-12867293D02*
X8151729Y-12819674D01*
X8151729Y-12819674D02*
X8161253Y-12781579D01*
X8161253Y-12781579D02*
X8170777Y-12762531D01*
X8170777Y-12762531D02*
X8180301Y-12753008D01*
X8180301Y-12753008D02*
X8199348Y-12743484D01*
X8437444Y-12810150D02*
X8437444Y-12943484D01*
X8389825Y-12733960D02*
X8342206Y-12876817D01*
X8342206Y-12876817D02*
X8466015Y-12876817D01*
X8523158Y-12743484D02*
X8646968Y-12743484D01*
X8646968Y-12743484D02*
X8580301Y-12819674D01*
X8580301Y-12819674D02*
X8608872Y-12819674D01*
X8608872Y-12819674D02*
X8627920Y-12829198D01*
X8627920Y-12829198D02*
X8637444Y-12838722D01*
X8637444Y-12838722D02*
X8646968Y-12857769D01*
X8646968Y-12857769D02*
X8646968Y-12905388D01*
X8646968Y-12905388D02*
X8637444Y-12924436D01*
X8637444Y-12924436D02*
X8627920Y-12933960D01*
X8627920Y-12933960D02*
X8608872Y-12943484D01*
X8608872Y-12943484D02*
X8551729Y-12943484D01*
X8551729Y-12943484D02*
X8532682Y-12933960D01*
X8532682Y-12933960D02*
X8523158Y-12924436D01*
X8713634Y-12743484D02*
X8837444Y-12743484D01*
X8837444Y-12743484D02*
X8770777Y-12819674D01*
X8770777Y-12819674D02*
X8799349Y-12819674D01*
X8799349Y-12819674D02*
X8818396Y-12829198D01*
X8818396Y-12829198D02*
X8827920Y-12838722D01*
X8827920Y-12838722D02*
X8837444Y-12857769D01*
X8837444Y-12857769D02*
X8837444Y-12905388D01*
X8837444Y-12905388D02*
X8827920Y-12924436D01*
X8827920Y-12924436D02*
X8818396Y-12933960D01*
X8818396Y-12933960D02*
X8799349Y-12943484D01*
X8799349Y-12943484D02*
X8742206Y-12943484D01*
X8742206Y-12943484D02*
X8723158Y-12933960D01*
X8723158Y-12933960D02*
X8713634Y-12924436D01*
X8913634Y-12743484D02*
X8913634Y-12781579D01*
X8989825Y-12743484D02*
X8989825Y-12781579D01*
X9285063Y-13019674D02*
X9275539Y-13010150D01*
X9275539Y-13010150D02*
X9256491Y-12981579D01*
X9256491Y-12981579D02*
X9246968Y-12962531D01*
X9246968Y-12962531D02*
X9237444Y-12933960D01*
X9237444Y-12933960D02*
X9227920Y-12886341D01*
X9227920Y-12886341D02*
X9227920Y-12848246D01*
X9227920Y-12848246D02*
X9237444Y-12800627D01*
X9237444Y-12800627D02*
X9246968Y-12772055D01*
X9246968Y-12772055D02*
X9256491Y-12753008D01*
X9256491Y-12753008D02*
X9275539Y-12724436D01*
X9275539Y-12724436D02*
X9285063Y-12714912D01*
X9342206Y-12743484D02*
X9466015Y-12743484D01*
X9466015Y-12743484D02*
X9399349Y-12819674D01*
X9399349Y-12819674D02*
X9427920Y-12819674D01*
X9427920Y-12819674D02*
X9446968Y-12829198D01*
X9446968Y-12829198D02*
X9456491Y-12838722D01*
X9456491Y-12838722D02*
X9466015Y-12857769D01*
X9466015Y-12857769D02*
X9466015Y-12905388D01*
X9466015Y-12905388D02*
X9456491Y-12924436D01*
X9456491Y-12924436D02*
X9446968Y-12933960D01*
X9446968Y-12933960D02*
X9427920Y-12943484D01*
X9427920Y-12943484D02*
X9370777Y-12943484D01*
X9370777Y-12943484D02*
X9351730Y-12933960D01*
X9351730Y-12933960D02*
X9342206Y-12924436D01*
X9704111Y-12943484D02*
X9704111Y-12743484D01*
X9789825Y-12943484D02*
X9789825Y-12838722D01*
X9789825Y-12838722D02*
X9780301Y-12819674D01*
X9780301Y-12819674D02*
X9761253Y-12810150D01*
X9761253Y-12810150D02*
X9732682Y-12810150D01*
X9732682Y-12810150D02*
X9713634Y-12819674D01*
X9713634Y-12819674D02*
X9704111Y-12829198D01*
X9913634Y-12943484D02*
X9894587Y-12933960D01*
X9894587Y-12933960D02*
X9885063Y-12924436D01*
X9885063Y-12924436D02*
X9875539Y-12905388D01*
X9875539Y-12905388D02*
X9875539Y-12848246D01*
X9875539Y-12848246D02*
X9885063Y-12829198D01*
X9885063Y-12829198D02*
X9894587Y-12819674D01*
X9894587Y-12819674D02*
X9913634Y-12810150D01*
X9913634Y-12810150D02*
X9942206Y-12810150D01*
X9942206Y-12810150D02*
X9961253Y-12819674D01*
X9961253Y-12819674D02*
X9970777Y-12829198D01*
X9970777Y-12829198D02*
X9980301Y-12848246D01*
X9980301Y-12848246D02*
X9980301Y-12905388D01*
X9980301Y-12905388D02*
X9970777Y-12924436D01*
X9970777Y-12924436D02*
X9961253Y-12933960D01*
X9961253Y-12933960D02*
X9942206Y-12943484D01*
X9942206Y-12943484D02*
X9913634Y-12943484D01*
X10094587Y-12943484D02*
X10075539Y-12933960D01*
X10075539Y-12933960D02*
X10066015Y-12914912D01*
X10066015Y-12914912D02*
X10066015Y-12743484D01*
X10246968Y-12933960D02*
X10227920Y-12943484D01*
X10227920Y-12943484D02*
X10189825Y-12943484D01*
X10189825Y-12943484D02*
X10170777Y-12933960D01*
X10170777Y-12933960D02*
X10161253Y-12914912D01*
X10161253Y-12914912D02*
X10161253Y-12838722D01*
X10161253Y-12838722D02*
X10170777Y-12819674D01*
X10170777Y-12819674D02*
X10189825Y-12810150D01*
X10189825Y-12810150D02*
X10227920Y-12810150D01*
X10227920Y-12810150D02*
X10246968Y-12819674D01*
X10246968Y-12819674D02*
X10256492Y-12838722D01*
X10256492Y-12838722D02*
X10256492Y-12857769D01*
X10256492Y-12857769D02*
X10161253Y-12876817D01*
X10332682Y-12933960D02*
X10351730Y-12943484D01*
X10351730Y-12943484D02*
X10389825Y-12943484D01*
X10389825Y-12943484D02*
X10408873Y-12933960D01*
X10408873Y-12933960D02*
X10418396Y-12914912D01*
X10418396Y-12914912D02*
X10418396Y-12905388D01*
X10418396Y-12905388D02*
X10408873Y-12886341D01*
X10408873Y-12886341D02*
X10389825Y-12876817D01*
X10389825Y-12876817D02*
X10361253Y-12876817D01*
X10361253Y-12876817D02*
X10342206Y-12867293D01*
X10342206Y-12867293D02*
X10332682Y-12848246D01*
X10332682Y-12848246D02*
X10332682Y-12838722D01*
X10332682Y-12838722D02*
X10342206Y-12819674D01*
X10342206Y-12819674D02*
X10361253Y-12810150D01*
X10361253Y-12810150D02*
X10389825Y-12810150D01*
X10389825Y-12810150D02*
X10408873Y-12819674D01*
X10485063Y-13019674D02*
X10494587Y-13010150D01*
X10494587Y-13010150D02*
X10513634Y-12981579D01*
X10513634Y-12981579D02*
X10523158Y-12962531D01*
X10523158Y-12962531D02*
X10532682Y-12933960D01*
X10532682Y-12933960D02*
X10542206Y-12886341D01*
X10542206Y-12886341D02*
X10542206Y-12848246D01*
X10542206Y-12848246D02*
X10532682Y-12800627D01*
X10532682Y-12800627D02*
X10523158Y-12772055D01*
X10523158Y-12772055D02*
X10513634Y-12753008D01*
X10513634Y-12753008D02*
X10494587Y-12724436D01*
X10494587Y-12724436D02*
X10485063Y-12714912D01*
D13*
X5643000Y-13049000D02*
X5643000Y-13183000D01*
X5576000Y-13116000D02*
X5710000Y-13116000D01*
D11*
X6075539Y-13207484D02*
X5961253Y-13207484D01*
X6018396Y-13207484D02*
X6018396Y-13007484D01*
X6018396Y-13007484D02*
X5999348Y-13036055D01*
X5999348Y-13036055D02*
X5980301Y-13055103D01*
X5980301Y-13055103D02*
X5961253Y-13064627D01*
X6161253Y-13188436D02*
X6170777Y-13197960D01*
X6170777Y-13197960D02*
X6161253Y-13207484D01*
X6161253Y-13207484D02*
X6151729Y-13197960D01*
X6151729Y-13197960D02*
X6161253Y-13188436D01*
X6161253Y-13188436D02*
X6161253Y-13207484D01*
X6237443Y-13007484D02*
X6361253Y-13007484D01*
X6361253Y-13007484D02*
X6294586Y-13083674D01*
X6294586Y-13083674D02*
X6323158Y-13083674D01*
X6323158Y-13083674D02*
X6342205Y-13093198D01*
X6342205Y-13093198D02*
X6351729Y-13102722D01*
X6351729Y-13102722D02*
X6361253Y-13121769D01*
X6361253Y-13121769D02*
X6361253Y-13169388D01*
X6361253Y-13169388D02*
X6351729Y-13188436D01*
X6351729Y-13188436D02*
X6342205Y-13197960D01*
X6342205Y-13197960D02*
X6323158Y-13207484D01*
X6323158Y-13207484D02*
X6266015Y-13207484D01*
X6266015Y-13207484D02*
X6246967Y-13197960D01*
X6246967Y-13197960D02*
X6237443Y-13188436D01*
X6532682Y-13074150D02*
X6532682Y-13207484D01*
X6485062Y-12997960D02*
X6437443Y-13140817D01*
X6437443Y-13140817D02*
X6561253Y-13140817D01*
X6675539Y-13007484D02*
X6694586Y-13007484D01*
X6694586Y-13007484D02*
X6713634Y-13017008D01*
X6713634Y-13017008D02*
X6723158Y-13026531D01*
X6723158Y-13026531D02*
X6732682Y-13045579D01*
X6732682Y-13045579D02*
X6742205Y-13083674D01*
X6742205Y-13083674D02*
X6742205Y-13131293D01*
X6742205Y-13131293D02*
X6732682Y-13169388D01*
X6732682Y-13169388D02*
X6723158Y-13188436D01*
X6723158Y-13188436D02*
X6713634Y-13197960D01*
X6713634Y-13197960D02*
X6694586Y-13207484D01*
X6694586Y-13207484D02*
X6675539Y-13207484D01*
X6675539Y-13207484D02*
X6656491Y-13197960D01*
X6656491Y-13197960D02*
X6646967Y-13188436D01*
X6646967Y-13188436D02*
X6637443Y-13169388D01*
X6637443Y-13169388D02*
X6627920Y-13131293D01*
X6627920Y-13131293D02*
X6627920Y-13083674D01*
X6627920Y-13083674D02*
X6637443Y-13045579D01*
X6637443Y-13045579D02*
X6646967Y-13026531D01*
X6646967Y-13026531D02*
X6656491Y-13017008D01*
X6656491Y-13017008D02*
X6675539Y-13007484D01*
X6827920Y-13207484D02*
X6827920Y-13074150D01*
X6827920Y-13093198D02*
X6837443Y-13083674D01*
X6837443Y-13083674D02*
X6856491Y-13074150D01*
X6856491Y-13074150D02*
X6885063Y-13074150D01*
X6885063Y-13074150D02*
X6904110Y-13083674D01*
X6904110Y-13083674D02*
X6913634Y-13102722D01*
X6913634Y-13102722D02*
X6913634Y-13207484D01*
X6913634Y-13102722D02*
X6923158Y-13083674D01*
X6923158Y-13083674D02*
X6942205Y-13074150D01*
X6942205Y-13074150D02*
X6970777Y-13074150D01*
X6970777Y-13074150D02*
X6989824Y-13083674D01*
X6989824Y-13083674D02*
X6999348Y-13102722D01*
X6999348Y-13102722D02*
X6999348Y-13207484D01*
X7094586Y-13207484D02*
X7094586Y-13074150D01*
X7094586Y-13093198D02*
X7104110Y-13083674D01*
X7104110Y-13083674D02*
X7123158Y-13074150D01*
X7123158Y-13074150D02*
X7151729Y-13074150D01*
X7151729Y-13074150D02*
X7170777Y-13083674D01*
X7170777Y-13083674D02*
X7180301Y-13102722D01*
X7180301Y-13102722D02*
X7180301Y-13207484D01*
X7180301Y-13102722D02*
X7189824Y-13083674D01*
X7189824Y-13083674D02*
X7208872Y-13074150D01*
X7208872Y-13074150D02*
X7237443Y-13074150D01*
X7237443Y-13074150D02*
X7256491Y-13083674D01*
X7256491Y-13083674D02*
X7266015Y-13102722D01*
X7266015Y-13102722D02*
X7266015Y-13207484D01*
X7656491Y-12997960D02*
X7485063Y-13255103D01*
X7913634Y-13007484D02*
X7932682Y-13007484D01*
X7932682Y-13007484D02*
X7951729Y-13017008D01*
X7951729Y-13017008D02*
X7961253Y-13026531D01*
X7961253Y-13026531D02*
X7970777Y-13045579D01*
X7970777Y-13045579D02*
X7980301Y-13083674D01*
X7980301Y-13083674D02*
X7980301Y-13131293D01*
X7980301Y-13131293D02*
X7970777Y-13169388D01*
X7970777Y-13169388D02*
X7961253Y-13188436D01*
X7961253Y-13188436D02*
X7951729Y-13197960D01*
X7951729Y-13197960D02*
X7932682Y-13207484D01*
X7932682Y-13207484D02*
X7913634Y-13207484D01*
X7913634Y-13207484D02*
X7894586Y-13197960D01*
X7894586Y-13197960D02*
X7885063Y-13188436D01*
X7885063Y-13188436D02*
X7875539Y-13169388D01*
X7875539Y-13169388D02*
X7866015Y-13131293D01*
X7866015Y-13131293D02*
X7866015Y-13083674D01*
X7866015Y-13083674D02*
X7875539Y-13045579D01*
X7875539Y-13045579D02*
X7885063Y-13026531D01*
X7885063Y-13026531D02*
X7894586Y-13017008D01*
X7894586Y-13017008D02*
X7913634Y-13007484D01*
X8066015Y-13188436D02*
X8075539Y-13197960D01*
X8075539Y-13197960D02*
X8066015Y-13207484D01*
X8066015Y-13207484D02*
X8056491Y-13197960D01*
X8056491Y-13197960D02*
X8066015Y-13188436D01*
X8066015Y-13188436D02*
X8066015Y-13207484D01*
X8199348Y-13007484D02*
X8218396Y-13007484D01*
X8218396Y-13007484D02*
X8237444Y-13017008D01*
X8237444Y-13017008D02*
X8246967Y-13026531D01*
X8246967Y-13026531D02*
X8256491Y-13045579D01*
X8256491Y-13045579D02*
X8266015Y-13083674D01*
X8266015Y-13083674D02*
X8266015Y-13131293D01*
X8266015Y-13131293D02*
X8256491Y-13169388D01*
X8256491Y-13169388D02*
X8246967Y-13188436D01*
X8246967Y-13188436D02*
X8237444Y-13197960D01*
X8237444Y-13197960D02*
X8218396Y-13207484D01*
X8218396Y-13207484D02*
X8199348Y-13207484D01*
X8199348Y-13207484D02*
X8180301Y-13197960D01*
X8180301Y-13197960D02*
X8170777Y-13188436D01*
X8170777Y-13188436D02*
X8161253Y-13169388D01*
X8161253Y-13169388D02*
X8151729Y-13131293D01*
X8151729Y-13131293D02*
X8151729Y-13083674D01*
X8151729Y-13083674D02*
X8161253Y-13045579D01*
X8161253Y-13045579D02*
X8170777Y-13026531D01*
X8170777Y-13026531D02*
X8180301Y-13017008D01*
X8180301Y-13017008D02*
X8199348Y-13007484D01*
X8446968Y-13007484D02*
X8351729Y-13007484D01*
X8351729Y-13007484D02*
X8342206Y-13102722D01*
X8342206Y-13102722D02*
X8351729Y-13093198D01*
X8351729Y-13093198D02*
X8370777Y-13083674D01*
X8370777Y-13083674D02*
X8418396Y-13083674D01*
X8418396Y-13083674D02*
X8437444Y-13093198D01*
X8437444Y-13093198D02*
X8446968Y-13102722D01*
X8446968Y-13102722D02*
X8456491Y-13121769D01*
X8456491Y-13121769D02*
X8456491Y-13169388D01*
X8456491Y-13169388D02*
X8446968Y-13188436D01*
X8446968Y-13188436D02*
X8437444Y-13197960D01*
X8437444Y-13197960D02*
X8418396Y-13207484D01*
X8418396Y-13207484D02*
X8370777Y-13207484D01*
X8370777Y-13207484D02*
X8351729Y-13197960D01*
X8351729Y-13197960D02*
X8342206Y-13188436D01*
X8532682Y-13026531D02*
X8542206Y-13017008D01*
X8542206Y-13017008D02*
X8561253Y-13007484D01*
X8561253Y-13007484D02*
X8608872Y-13007484D01*
X8608872Y-13007484D02*
X8627920Y-13017008D01*
X8627920Y-13017008D02*
X8637444Y-13026531D01*
X8637444Y-13026531D02*
X8646968Y-13045579D01*
X8646968Y-13045579D02*
X8646968Y-13064627D01*
X8646968Y-13064627D02*
X8637444Y-13093198D01*
X8637444Y-13093198D02*
X8523158Y-13207484D01*
X8523158Y-13207484D02*
X8646968Y-13207484D01*
X8761253Y-13093198D02*
X8742206Y-13083674D01*
X8742206Y-13083674D02*
X8732682Y-13074150D01*
X8732682Y-13074150D02*
X8723158Y-13055103D01*
X8723158Y-13055103D02*
X8723158Y-13045579D01*
X8723158Y-13045579D02*
X8732682Y-13026531D01*
X8732682Y-13026531D02*
X8742206Y-13017008D01*
X8742206Y-13017008D02*
X8761253Y-13007484D01*
X8761253Y-13007484D02*
X8799349Y-13007484D01*
X8799349Y-13007484D02*
X8818396Y-13017008D01*
X8818396Y-13017008D02*
X8827920Y-13026531D01*
X8827920Y-13026531D02*
X8837444Y-13045579D01*
X8837444Y-13045579D02*
X8837444Y-13055103D01*
X8837444Y-13055103D02*
X8827920Y-13074150D01*
X8827920Y-13074150D02*
X8818396Y-13083674D01*
X8818396Y-13083674D02*
X8799349Y-13093198D01*
X8799349Y-13093198D02*
X8761253Y-13093198D01*
X8761253Y-13093198D02*
X8742206Y-13102722D01*
X8742206Y-13102722D02*
X8732682Y-13112246D01*
X8732682Y-13112246D02*
X8723158Y-13131293D01*
X8723158Y-13131293D02*
X8723158Y-13169388D01*
X8723158Y-13169388D02*
X8732682Y-13188436D01*
X8732682Y-13188436D02*
X8742206Y-13197960D01*
X8742206Y-13197960D02*
X8761253Y-13207484D01*
X8761253Y-13207484D02*
X8799349Y-13207484D01*
X8799349Y-13207484D02*
X8818396Y-13197960D01*
X8818396Y-13197960D02*
X8827920Y-13188436D01*
X8827920Y-13188436D02*
X8837444Y-13169388D01*
X8837444Y-13169388D02*
X8837444Y-13131293D01*
X8837444Y-13131293D02*
X8827920Y-13112246D01*
X8827920Y-13112246D02*
X8818396Y-13102722D01*
X8818396Y-13102722D02*
X8799349Y-13093198D01*
X8913634Y-13007484D02*
X8913634Y-13045579D01*
X8989825Y-13007484D02*
X8989825Y-13045579D01*
X9285063Y-13283674D02*
X9275539Y-13274150D01*
X9275539Y-13274150D02*
X9256491Y-13245579D01*
X9256491Y-13245579D02*
X9246968Y-13226531D01*
X9246968Y-13226531D02*
X9237444Y-13197960D01*
X9237444Y-13197960D02*
X9227920Y-13150341D01*
X9227920Y-13150341D02*
X9227920Y-13112246D01*
X9227920Y-13112246D02*
X9237444Y-13064627D01*
X9237444Y-13064627D02*
X9246968Y-13036055D01*
X9246968Y-13036055D02*
X9256491Y-13017008D01*
X9256491Y-13017008D02*
X9275539Y-12988436D01*
X9275539Y-12988436D02*
X9285063Y-12978912D01*
X9342206Y-13007484D02*
X9466015Y-13007484D01*
X9466015Y-13007484D02*
X9399349Y-13083674D01*
X9399349Y-13083674D02*
X9427920Y-13083674D01*
X9427920Y-13083674D02*
X9446968Y-13093198D01*
X9446968Y-13093198D02*
X9456491Y-13102722D01*
X9456491Y-13102722D02*
X9466015Y-13121769D01*
X9466015Y-13121769D02*
X9466015Y-13169388D01*
X9466015Y-13169388D02*
X9456491Y-13188436D01*
X9456491Y-13188436D02*
X9446968Y-13197960D01*
X9446968Y-13197960D02*
X9427920Y-13207484D01*
X9427920Y-13207484D02*
X9370777Y-13207484D01*
X9370777Y-13207484D02*
X9351730Y-13197960D01*
X9351730Y-13197960D02*
X9342206Y-13188436D01*
X9704111Y-13207484D02*
X9704111Y-13007484D01*
X9789825Y-13207484D02*
X9789825Y-13102722D01*
X9789825Y-13102722D02*
X9780301Y-13083674D01*
X9780301Y-13083674D02*
X9761253Y-13074150D01*
X9761253Y-13074150D02*
X9732682Y-13074150D01*
X9732682Y-13074150D02*
X9713634Y-13083674D01*
X9713634Y-13083674D02*
X9704111Y-13093198D01*
X9913634Y-13207484D02*
X9894587Y-13197960D01*
X9894587Y-13197960D02*
X9885063Y-13188436D01*
X9885063Y-13188436D02*
X9875539Y-13169388D01*
X9875539Y-13169388D02*
X9875539Y-13112246D01*
X9875539Y-13112246D02*
X9885063Y-13093198D01*
X9885063Y-13093198D02*
X9894587Y-13083674D01*
X9894587Y-13083674D02*
X9913634Y-13074150D01*
X9913634Y-13074150D02*
X9942206Y-13074150D01*
X9942206Y-13074150D02*
X9961253Y-13083674D01*
X9961253Y-13083674D02*
X9970777Y-13093198D01*
X9970777Y-13093198D02*
X9980301Y-13112246D01*
X9980301Y-13112246D02*
X9980301Y-13169388D01*
X9980301Y-13169388D02*
X9970777Y-13188436D01*
X9970777Y-13188436D02*
X9961253Y-13197960D01*
X9961253Y-13197960D02*
X9942206Y-13207484D01*
X9942206Y-13207484D02*
X9913634Y-13207484D01*
X10094587Y-13207484D02*
X10075539Y-13197960D01*
X10075539Y-13197960D02*
X10066015Y-13178912D01*
X10066015Y-13178912D02*
X10066015Y-13007484D01*
X10246968Y-13197960D02*
X10227920Y-13207484D01*
X10227920Y-13207484D02*
X10189825Y-13207484D01*
X10189825Y-13207484D02*
X10170777Y-13197960D01*
X10170777Y-13197960D02*
X10161253Y-13178912D01*
X10161253Y-13178912D02*
X10161253Y-13102722D01*
X10161253Y-13102722D02*
X10170777Y-13083674D01*
X10170777Y-13083674D02*
X10189825Y-13074150D01*
X10189825Y-13074150D02*
X10227920Y-13074150D01*
X10227920Y-13074150D02*
X10246968Y-13083674D01*
X10246968Y-13083674D02*
X10256492Y-13102722D01*
X10256492Y-13102722D02*
X10256492Y-13121769D01*
X10256492Y-13121769D02*
X10161253Y-13140817D01*
X10332682Y-13197960D02*
X10351730Y-13207484D01*
X10351730Y-13207484D02*
X10389825Y-13207484D01*
X10389825Y-13207484D02*
X10408873Y-13197960D01*
X10408873Y-13197960D02*
X10418396Y-13178912D01*
X10418396Y-13178912D02*
X10418396Y-13169388D01*
X10418396Y-13169388D02*
X10408873Y-13150341D01*
X10408873Y-13150341D02*
X10389825Y-13140817D01*
X10389825Y-13140817D02*
X10361253Y-13140817D01*
X10361253Y-13140817D02*
X10342206Y-13131293D01*
X10342206Y-13131293D02*
X10332682Y-13112246D01*
X10332682Y-13112246D02*
X10332682Y-13102722D01*
X10332682Y-13102722D02*
X10342206Y-13083674D01*
X10342206Y-13083674D02*
X10361253Y-13074150D01*
X10361253Y-13074150D02*
X10389825Y-13074150D01*
X10389825Y-13074150D02*
X10408873Y-13083674D01*
X10485063Y-13283674D02*
X10494587Y-13274150D01*
X10494587Y-13274150D02*
X10513634Y-13245579D01*
X10513634Y-13245579D02*
X10523158Y-13226531D01*
X10523158Y-13226531D02*
X10532682Y-13197960D01*
X10532682Y-13197960D02*
X10542206Y-13150341D01*
X10542206Y-13150341D02*
X10542206Y-13112246D01*
X10542206Y-13112246D02*
X10532682Y-13064627D01*
X10532682Y-13064627D02*
X10523158Y-13036055D01*
X10523158Y-13036055D02*
X10513634Y-13017008D01*
X10513634Y-13017008D02*
X10494587Y-12988436D01*
X10494587Y-12988436D02*
X10485063Y-12978912D01*
M02*
