%TF.GenerationSoftware,KiCad,Pcbnew,7.0.10*%
%TF.CreationDate,2024-10-31T16:23:13-04:00*%
%TF.ProjectId,segment,7365676d-656e-4742-9e6b-696361645f70,rev?*%
%TF.SameCoordinates,Original*%
%TF.FileFunction,Copper,L1,Top*%
%TF.FilePolarity,Positive*%
%FSLAX46Y46*%
G04 Gerber Fmt 4.6, Leading zero omitted, Abs format (unit mm)*
G04 Created by KiCad (PCBNEW 7.0.10) date 2024-10-31 16:23:13*
%MOMM*%
%LPD*%
G01*
G04 APERTURE LIST*
%TA.AperFunction,ComponentPad*%
%ADD10R,1.800000X1.800000*%
%TD*%
%TA.AperFunction,ComponentPad*%
%ADD11C,1.800000*%
%TD*%
%TA.AperFunction,ComponentPad*%
%ADD12C,2.100000*%
%TD*%
%TA.AperFunction,ComponentPad*%
%ADD13R,2.010000X2.010000*%
%TD*%
%TA.AperFunction,ComponentPad*%
%ADD14C,2.010000*%
%TD*%
%TA.AperFunction,Conductor*%
%ADD15C,0.250000*%
%TD*%
G04 APERTURE END LIST*
D10*
%TO.P,D1,1,K*%
%TO.N,Net-(D1-K)*%
X60960000Y-104140000D03*
D11*
%TO.P,D1,2,A*%
%TO.N,Net-(D1-A)*%
X60960000Y-101600000D03*
%TD*%
D10*
%TO.P,D13,1,K*%
%TO.N,Net-(D1-K)*%
X187960000Y-104140000D03*
D11*
%TO.P,D13,2,A*%
%TO.N,Net-(D1-A)*%
X187960000Y-101600000D03*
%TD*%
D10*
%TO.P,D12,1,K*%
%TO.N,Net-(D1-K)*%
X172085000Y-91440000D03*
D11*
%TO.P,D12,2,A*%
%TO.N,Net-(D1-A)*%
X172085000Y-88900000D03*
%TD*%
D10*
%TO.P,D11,1,K*%
%TO.N,Net-(D1-K)*%
X156210000Y-104140000D03*
D11*
%TO.P,D11,2,A*%
%TO.N,Net-(D1-A)*%
X156210000Y-101600000D03*
%TD*%
D10*
%TO.P,D3,1,K*%
%TO.N,Net-(D1-K)*%
X76835000Y-91440000D03*
D11*
%TO.P,D3,2,A*%
%TO.N,Net-(D1-A)*%
X76835000Y-88900000D03*
%TD*%
D10*
%TO.P,D7,1,K*%
%TO.N,Net-(D1-K)*%
X140335000Y-116840000D03*
D11*
%TO.P,D7,2,A*%
%TO.N,Net-(D1-A)*%
X140335000Y-114300000D03*
%TD*%
D10*
%TO.P,D5,1,K*%
%TO.N,Net-(D1-K)*%
X92710000Y-104140000D03*
D11*
%TO.P,D5,2,A*%
%TO.N,Net-(D1-A)*%
X92710000Y-101600000D03*
%TD*%
D10*
%TO.P,D9,1,K*%
%TO.N,Net-(D1-K)*%
X140335000Y-91440000D03*
D11*
%TO.P,D9,2,A*%
%TO.N,Net-(D1-A)*%
X140335000Y-88900000D03*
%TD*%
D10*
%TO.P,D4,1,K*%
%TO.N,Net-(D1-K)*%
X76835000Y-116840000D03*
D11*
%TO.P,D4,2,A*%
%TO.N,Net-(D1-A)*%
X76835000Y-114300000D03*
%TD*%
D10*
%TO.P,D6,1,K*%
%TO.N,Net-(D1-K)*%
X108585000Y-91440000D03*
D11*
%TO.P,D6,2,A*%
%TO.N,Net-(D1-A)*%
X108585000Y-88900000D03*
%TD*%
D10*
%TO.P,D10,1,K*%
%TO.N,Net-(D1-K)*%
X172085000Y-116840000D03*
D11*
%TO.P,D10,2,A*%
%TO.N,Net-(D1-A)*%
X172085000Y-114300000D03*
%TD*%
D10*
%TO.P,D2,1,K*%
%TO.N,Net-(D1-K)*%
X108585000Y-116840000D03*
D11*
%TO.P,D2,2,A*%
%TO.N,Net-(D1-A)*%
X108585000Y-114300000D03*
%TD*%
D10*
%TO.P,D8,1,K*%
%TO.N,Net-(D1-K)*%
X124460000Y-104140000D03*
D11*
%TO.P,D8,2,A*%
%TO.N,Net-(D1-A)*%
X124460000Y-101600000D03*
%TD*%
D12*
%TO.P,J1,1*%
%TO.N,Net-(U1-D)*%
X183515000Y-95885000D03*
%TO.P,J1,2*%
%TO.N,Net-(U1-G)*%
X180975000Y-95885000D03*
%TO.P,J1,3*%
%TO.N,Net-(D1-A)*%
X178435000Y-95885000D03*
%TD*%
D13*
%TO.P,Q1,1*%
%TO.N,Net-(U1-G)*%
X178174500Y-101600000D03*
D14*
%TO.P,Q1,2*%
%TO.N,Net-(U1-D)*%
X178174500Y-104140000D03*
%TO.P,Q1,3*%
%TO.N,Net-(D1-K)*%
X178174500Y-106680000D03*
%TD*%
D15*
%TO.N,Net-(D1-A)*%
X111760000Y-88900000D02*
X108585000Y-88900000D01*
X80010000Y-88900000D02*
X76835000Y-88900000D01*
X92710000Y-101600000D02*
X80010000Y-88900000D01*
X140335000Y-88900000D02*
X127635000Y-101600000D01*
X159385000Y-101600000D02*
X156210000Y-101600000D01*
X108585000Y-88900000D02*
X105410000Y-88900000D01*
X172085000Y-114300000D02*
X159385000Y-101600000D01*
X172085000Y-88900000D02*
X159385000Y-101600000D01*
X64135000Y-101600000D02*
X60960000Y-101600000D01*
X76835000Y-114300000D02*
X64135000Y-101600000D01*
X156210000Y-101600000D02*
X143510000Y-114300000D01*
X105410000Y-88900000D02*
X92710000Y-101600000D01*
X111760000Y-114300000D02*
X108585000Y-114300000D01*
X178435000Y-95250000D02*
X178435000Y-95885000D01*
X92710000Y-101600000D02*
X80010000Y-114300000D01*
X124460000Y-101600000D02*
X111760000Y-114300000D01*
X143510000Y-88900000D02*
X140335000Y-88900000D01*
X80010000Y-114300000D02*
X76835000Y-114300000D01*
X143510000Y-114300000D02*
X140335000Y-114300000D01*
X156210000Y-101600000D02*
X143510000Y-88900000D01*
X172085000Y-88900000D02*
X178435000Y-95250000D01*
X127635000Y-101600000D02*
X124460000Y-101600000D01*
X124460000Y-101600000D02*
X111760000Y-88900000D01*
%TO.N,Net-(U1-D)*%
X183515000Y-98799500D02*
X178174500Y-104140000D01*
X183515000Y-95885000D02*
X183515000Y-98799500D01*
%TO.N,Net-(U1-G)*%
X180975000Y-95885000D02*
X180975000Y-98799500D01*
X180975000Y-98799500D02*
X178174500Y-101600000D01*
%TD*%
M02*
