M48
; DRILL file {KiCad 7.0.10} date Thu Oct 31 16:24:05 2024
; FORMAT={-:-/ absolute / metric / decimal}
; #@! TF.CreationDate,2024-10-31T16:24:05-04:00
; #@! TF.GenerationSoftware,Kicad,Pcbnew,7.0.10
; #@! TF.FileFunction,Plated,1,2,PTH
FMAT,2
METRIC
; #@! TA.AperFunction,Plated,PTH,ComponentDrill
T1C0.900
; #@! TA.AperFunction,Plated,PTH,ComponentDrill
T2C1.100
; #@! TA.AperFunction,Plated,PTH,ComponentDrill
T3C1.340
%
G90
G05
T1
X60.96Y-101.6
X60.96Y-104.14
X76.835Y-88.9
X76.835Y-91.44
X76.835Y-114.3
X76.835Y-116.84
X92.71Y-101.6
X92.71Y-104.14
X108.585Y-88.9
X108.585Y-91.44
X108.585Y-114.3
X108.585Y-116.84
X124.46Y-101.6
X124.46Y-104.14
X140.335Y-88.9
X140.335Y-91.44
X140.335Y-114.3
X140.335Y-116.84
X156.21Y-101.6
X156.21Y-104.14
X172.085Y-88.9
X172.085Y-91.44
X172.085Y-114.3
X172.085Y-116.84
X187.96Y-101.6
X187.96Y-104.14
T2
X178.435Y-95.885
X180.975Y-95.885
X183.515Y-95.885
T3
X178.174Y-101.6
X178.174Y-104.14
X178.174Y-106.68
M30
